version 1
nodes
  0 "Bip01"  -1
  1 "Bip01 Pelvis"   0
  2 "Bip01 Spine"   1
  3 "Bip01 Spine1"   2
  4 "Bip01 Spine2"   3
  5 "Bip01 Neck"   4
  6 "Bip01 R Clavicle"   5
  7 "Bip01 R UpperArm"   6
  8 "Bip01 R Forearm"   7
  9 "Bip01 R Thigh"   1
 10 "Bip01 L Thigh"   1
 11 "Bip01 L Calf"  10
 12 "Bip01 L Foot"  11
 13 "Bip01 L Toe0"  12
 14 "Bip01 R Calf"   9
 15 "Bip01 R Foot"  14
 16 "Bip01 R Toe0"  15
 17 "Bip01 L Clavicle"   5
 18 "Bip01 L UpperArm"  17
end
skeleton
time 0
  0 3.177613 -3.177613 8.443506 -0.281409 0.436266 -2.443613
  1 0.000000 0.000000 0.000000 -1.570796 -1.570796 0.000000
  2 4.484989 -0.004008 0.000006 0.113378 0.036632 -0.303969
  3 5.037136 -0.005101 -0.000238 0.091010 0.061208 -0.113560
  4 6.388059 -0.005253 -0.000001 -0.139752 -0.121332 -0.248681
  5 6.146608 1.394838 0.000001 0.180946 0.137421 1.009434
  6 -1.142657 1.426464 -3.449841 -2.629779 0.937142 -0.505277
  7 5.760270 -0.000012 -0.000009 0.973427 0.182057 0.155496
  8 10.965153 0.000065 -0.000006 0.000013 0.000002 -1.009993
  9 0.000007 -0.000004 -4.044200 0.206753 3.263382 -1.334754
 10 -0.000007 0.000007 4.044200 -0.498357 -2.349937 -1.047975
 11 17.182070 0.000091 0.000546 0.000004 -0.000009 -1.989284
 12 16.782913 0.000650 -0.000234 0.032945 0.086094 -0.096100
 13 5.168527 5.004116 -0.000135 0.000010 0.000000 2.033191
 14 17.182070 0.000099 0.000206 -0.000001 -0.000007 -1.636059
 15 16.782906 0.000656 -0.000113 0.214792 -0.032181 0.743581
 16 5.168479 5.004167 -0.000064 0.000011 -0.000001 1.483546
 17 -1.947373 2.481170 2.313100 -0.864285 -0.819872 2.989776
 18 5.760273 0.000016 0.000006 0.982775 0.626968 -0.110546
time 1
  0 3.177613 -3.177613 8.443506 -0.281409 0.436266 -2.443613
  1 0.000000 0.000000 0.000000 -1.570796 -1.570796 0.000000
  2 4.484989 -0.004008 0.000006 0.263840 0.047084 -0.300550
  3 5.037136 -0.005101 -0.000238 -0.060240 0.034520 0.000478
  4 6.388059 -0.005253 -0.000001 -0.190315 -0.116193 -0.218086
  5 6.146608 1.394838 0.000001 0.125805 0.136847 0.933811
  6 -1.291099 1.488966 -3.371714 -2.448624 0.753013 -0.315465
  7 5.760270 -0.000012 -0.000009 1.202894 0.218607 -0.004258
  8 10.965153 0.000065 -0.000006 0.000013 0.000002 -0.572848
  9 0.000007 -0.000004 -4.044200 0.206753 3.263382 -1.334754
 10 -0.000007 0.000007 4.044200 -0.498357 -2.349937 -1.047975
 11 17.182070 0.000091 0.000546 0.000004 -0.000009 -1.989284
 12 16.782913 0.000650 -0.000234 0.032945 0.086094 -0.096100
 13 5.168527 5.004116 -0.000135 0.000010 0.000000 2.033191
 14 17.182070 0.000099 0.000206 -0.000001 -0.000007 -1.636059
 15 16.782906 0.000656 -0.000113 0.214792 -0.032181 0.743581
 16 5.168479 5.004167 -0.000064 0.000011 -0.000001 1.483546
 17 -2.095815 2.227256 2.438104 -0.918713 -0.829051 3.097838
 18 5.760273 0.000016 0.000006 0.755135 0.504612 0.039139
time 2
  0 3.177613 -3.177613 8.443506 -0.281409 0.436266 -2.443613
  1 0.000000 0.000000 0.000000 -1.570796 -1.570796 0.000000
  2 4.484989 -0.004008 0.000006 0.414431 0.056930 -0.295602
  3 5.037136 -0.005101 -0.000238 -0.213649 0.025404 0.117327
  4 6.388059 -0.005253 -0.000001 -0.240711 -0.109703 -0.187807
  5 6.146608 1.394838 0.000001 0.067953 0.131326 0.858703
  6 -1.443447 1.551468 -3.281867 -2.254896 0.600420 -0.137958
  7 5.760270 -0.000012 -0.000009 1.339035 0.328258 -0.136842
  8 10.965153 0.000065 -0.000006 0.000013 0.000002 -0.243860
  9 0.000007 -0.000004 -4.044200 0.206753 3.263382 -1.334754
 10 -0.000007 0.000007 4.044200 -0.498357 -2.349937 -1.047975
 11 17.182070 0.000091 0.000546 0.000004 -0.000009 -1.989284
 12 16.782913 0.000650 -0.000234 0.032945 0.086094 -0.096100
 13 5.168527 5.004116 -0.000135 0.000010 0.000000 2.033191
 14 17.182070 0.000099 0.000206 -0.000001 -0.000007 -1.636059
 15 16.782906 0.000656 -0.000113 0.214792 -0.032181 0.743581
 16 5.168479 5.004167 -0.000064 0.000011 -0.000001 1.483546
 17 -2.205194 1.942091 2.563108 -0.979046 -0.834111 3.209411
 18 5.760273 0.000016 0.000006 0.513786 0.437112 0.228423
time 3
  0 3.177613 -3.177613 8.443506 -0.281409 0.436266 -2.443613
  1 0.000000 0.000000 0.000000 -1.570796 -1.570796 0.000000
  2 4.484989 -0.004008 0.000006 0.553453 0.069348 -0.292151
  3 5.037136 -0.005101 -0.000238 -0.271469 0.026165 0.226984
  4 6.388059 -0.005253 -0.000001 -0.247170 -0.093621 -0.146619
  5 6.146608 1.394838 0.000001 0.012149 0.121987 0.783993
  6 -1.599702 1.582719 -3.184208 -1.877918 0.525350 0.357937
  7 5.760270 -0.000012 -0.000009 1.049939 0.352847 -0.263564
  8 10.965153 0.000065 -0.000006 0.000013 0.000002 -0.511496
  9 0.000007 -0.000004 -4.044200 0.206753 3.263382 -1.334754
 10 -0.000007 0.000007 4.044200 -0.498357 -2.349937 -1.047975
 11 17.182070 0.000091 0.000546 0.000004 -0.000009 -1.989284
 12 16.782913 0.000650 -0.000234 0.032945 0.086094 -0.096100
 13 5.168527 5.004116 -0.000135 0.000010 0.000000 2.033191
 14 17.182070 0.000099 0.000206 -0.000001 -0.000007 -1.636059
 15 16.782906 0.000656 -0.000113 0.214792 -0.032181 0.743581
 16 5.168479 5.004167 -0.000064 0.000011 -0.000001 1.483546
 17 -2.310665 1.656926 2.672486 -1.038733 -0.834363 3.320794
 18 5.760273 0.000016 0.000006 0.344448 0.430012 0.346231
time 4
  0 3.177613 -3.177613 8.443506 -0.281409 0.436266 -2.443613
  1 0.000000 0.000000 0.000000 -1.570796 -1.570796 0.000000
  2 4.484989 -0.004008 0.000006 0.689486 0.088831 -0.291533
  3 5.037136 -0.005101 -0.000238 -0.193667 0.015396 0.336279
  4 6.388059 -0.005253 -0.000001 -0.189309 -0.066404 -0.083106
  5 6.146608 1.394838 0.000001 -0.036964 0.110589 0.709282
  6 -1.748144 1.582719 -3.106081 -1.640569 0.418137 0.817395
  7 5.760270 -0.000012 -0.000009 0.976286 -0.513850 -1.218162
  8 10.965153 0.000065 -0.000006 0.000013 0.000002 -0.030642
  9 0.000007 -0.000004 -4.044200 0.206753 3.263382 -1.334754
 10 -0.000007 0.000007 4.044200 -0.498357 -2.349937 -1.047975
 11 17.182070 0.000091 0.000546 0.000004 -0.000009 -1.989284
 12 16.782913 0.000650 -0.000234 0.032945 0.086094 -0.096100
 13 5.168527 5.004116 -0.000135 0.000010 0.000000 2.033191
 14 17.182070 0.000099 0.000206 -0.000001 -0.000007 -1.636059
 15 16.782906 0.000656 -0.000113 0.214792 -0.032181 0.743581
 16 5.168479 5.004167 -0.000064 0.000011 -0.000001 1.483546
 17 -2.392699 1.371761 2.758426 -1.091040 -0.830245 3.427623
 18 5.760273 0.000016 0.000006 0.275695 0.434632 0.303804
time 5
  0 3.177613 -3.177613 8.443506 -0.281409 0.436266 -2.443613
  1 0.000000 0.000000 0.000000 -1.570796 -1.570796 0.000000
  2 4.484989 -0.004008 0.000006 0.825844 0.112597 -0.290459
  3 5.037136 -0.005101 -0.000238 -0.044968 -0.017204 0.443368
  4 6.388059 -0.005253 -0.000001 -0.094774 -0.039264 -0.004637
  5 6.146608 1.394838 0.000001 -0.075329 0.099429 0.634254
  6 -1.896586 1.539749 -3.047485 -1.522466 0.590321 1.068824
  7 5.760270 -0.000012 -0.000009 0.799643 -0.609100 -1.454734
  8 10.965153 0.000065 -0.000006 0.000013 0.000002 -0.844447
  9 0.000007 -0.000004 -4.044200 0.206753 3.263382 -1.334754
 10 -0.000007 0.000007 4.044200 -0.498357 -2.349937 -1.047975
 11 17.182070 0.000091 0.000546 0.000004 -0.000009 -1.989284
 12 16.782913 0.000650 -0.000234 0.032945 0.086094 -0.096100
 13 5.168527 5.004116 -0.000135 0.000010 0.000000 2.033191
 14 17.182070 0.000099 0.000206 -0.000001 -0.000007 -1.636059
 15 16.782906 0.000656 -0.000113 0.214792 -0.032181 0.743581
 16 5.168479 5.004167 -0.000064 0.000011 -0.000001 1.483546
 17 -2.459107 1.113940 2.820928 -1.129325 -0.823330 3.526387
 18 5.760273 0.000016 0.000006 0.254723 0.407009 0.140919
time 6
  0 3.177613 -3.177613 8.443506 -0.281409 0.436266 -2.443613
  1 0.000000 0.000000 0.000000 -1.570796 -1.570796 0.000000
  2 4.484989 -0.004008 0.000006 0.942703 0.133374 -0.286715
  3 5.037136 -0.005101 -0.000238 0.114053 -0.066147 0.527522
  4 6.388059 -0.005253 -0.000001 0.005872 -0.020517 0.070612
  5 6.146608 1.394838 0.000001 -0.096180 0.092662 0.554820
  6 -2.013777 1.434277 -3.024047 -1.306546 0.890233 1.365273
  7 5.760270 -0.000012 -0.000009 0.339416 -0.386692 -1.278159
  8 10.965153 0.000065 -0.000006 0.000013 0.000002 -1.369318
  9 0.000007 -0.000004 -4.044200 0.206753 3.263382 -1.334754
 10 -0.000007 0.000007 4.044200 -0.498357 -2.349937 -1.047975
 11 17.182070 0.000091 0.000546 0.000004 -0.000009 -1.989284
 12 16.782913 0.000650 -0.000234 0.032945 0.086094 -0.096100
 13 5.168527 5.004116 -0.000135 0.000010 0.000000 2.033191
 14 17.182070 0.000099 0.000206 -0.000001 -0.000007 -1.636059
 15 16.782906 0.000656 -0.000113 0.214792 -0.032181 0.743581
 16 5.168479 5.004167 -0.000064 0.000011 -0.000001 1.483546
 17 -2.545048 0.883465 2.828741 -1.145100 -0.813679 3.615000
 18 5.760273 0.000016 0.000006 0.311395 0.272933 -0.053752
time 7
  0 3.177613 -3.177613 8.443506 -0.281409 0.436266 -2.443613
  1 0.000000 0.000000 0.000000 -1.570796 -1.570796 0.000000
  2 4.484989 -0.004008 0.000006 1.020046 0.143859 -0.280464
  3 5.037136 -0.005101 -0.000238 0.226308 -0.109882 0.576806
  4 6.388059 -0.005253 -0.000001 0.081483 -0.010715 0.122426
  5 6.146608 1.394838 0.000001 -0.102606 0.091020 0.471733
  6 -2.099717 1.274116 -3.043579 -1.191872 0.969285 1.562143
  7 5.760270 -0.000012 -0.000009 0.286185 -0.214761 -1.039497
  8 10.965153 0.000065 -0.000006 0.000013 0.000002 -1.500876
  9 0.000007 -0.000004 -4.044200 0.206753 3.263382 -1.334754
 10 -0.000007 0.000007 4.044200 -0.498357 -2.349937 -1.047975
 11 17.182070 0.000091 0.000546 0.000004 -0.000009 -1.989284
 12 16.782913 0.000650 -0.000234 0.032945 0.086094 -0.096100
 13 5.168527 5.004116 -0.000135 0.000010 0.000000 2.033191
 14 17.182070 0.000099 0.000206 -0.000001 -0.000007 -1.636059
 15 16.782906 0.000656 -0.000113 0.214792 -0.032181 0.743581
 16 5.168479 5.004167 -0.000064 0.000011 -0.000001 1.483546
 17 -2.627081 0.668614 2.809209 -1.141871 -0.806481 3.695834
 18 5.760273 0.000016 0.000006 0.395826 0.063917 -0.199756
time 8
  0 3.177613 -3.177613 8.443506 -0.281409 0.436266 -2.443613
  1 0.000000 0.000000 0.000000 -1.570796 -1.570796 0.000000
  2 4.484989 -0.004008 0.000006 1.055500 0.142516 -0.273075
  3 5.037136 -0.005101 -0.000238 0.288056 -0.139570 0.593758
  4 6.388059 -0.005253 -0.000001 0.130141 -0.004682 0.145386
  5 6.146608 1.394838 0.000001 -0.105032 0.090921 0.391505
  6 -2.170032 1.086610 -3.067017 -1.069482 1.027954 1.762352
  7 5.760270 -0.000012 -0.000009 0.248610 -0.118055 -0.872301
  8 10.965153 0.000065 -0.000006 0.000013 0.000002 -1.595784
  9 0.000007 -0.000004 -4.044200 0.206753 3.263382 -1.334754
 10 -0.000007 0.000007 4.044200 -0.498357 -2.349937 -1.047975
 11 17.182070 0.000091 0.000546 0.000004 -0.000009 -1.989284
 12 16.782913 0.000650 -0.000234 0.032945 0.086094 -0.096100
 13 5.168527 5.004116 -0.000135 0.000010 0.000000 2.033191
 14 17.182070 0.000099 0.000206 -0.000001 -0.000007 -1.636059
 15 16.782906 0.000656 -0.000113 0.214792 -0.032181 0.743581
 16 5.168479 5.004167 -0.000064 0.000011 -0.000001 1.483546
 17 -2.693490 0.469390 2.785771 -1.131631 -0.810159 3.772018
 18 5.760273 0.000016 0.000006 0.415781 -0.062232 -0.280345
time 9
  0 3.177613 -3.177613 8.443506 -0.281409 0.436266 -2.443613
  1 0.000000 0.000000 0.000000 -1.570796 -1.570796 0.000000
  2 4.484989 -0.004008 0.000006 1.064795 0.134605 -0.265587
  3 5.037136 -0.005101 -0.000238 0.333734 -0.162395 0.589406
  4 6.388059 -0.005253 -0.000001 0.169738 0.000742 0.152230
  5 6.146608 1.394838 0.000001 -0.113221 0.087280 0.320605
  6 -2.216908 0.934261 -3.070923 -0.947474 1.059385 1.950732
  7 5.760270 -0.000012 -0.000009 0.227031 -0.063997 -0.724016
  8 10.965153 0.000065 -0.000006 0.000013 0.000002 -1.664504
  9 0.000007 -0.000004 -4.044200 0.206753 3.263382 -1.334754
 10 -0.000007 0.000007 4.044200 -0.498357 -2.349937 -1.047975
 11 17.182070 0.000091 0.000546 0.000004 -0.000009 -1.989284
 12 16.782913 0.000650 -0.000234 0.032945 0.086094 -0.096100
 13 5.168527 5.004116 -0.000135 0.000010 0.000000 2.033191
 14 17.182070 0.000099 0.000206 -0.000001 -0.000007 -1.636059
 15 16.782906 0.000656 -0.000113 0.214792 -0.032181 0.743581
 16 5.168479 5.004167 -0.000064 0.000011 -0.000001 1.483546
 17 -2.732553 0.270165 2.774052 -1.132000 -0.825121 3.850859
 18 5.760273 0.000016 0.000006 0.363656 -0.070111 -0.337678
time 10
  0 3.177613 -3.177613 8.443506 -0.281409 0.436266 -2.443613
  1 0.000000 0.000000 0.000000 -1.570796 -1.570796 0.000000
  2 4.484989 -0.004008 0.000006 1.055110 0.122985 -0.258230
  3 5.037136 -0.005101 -0.000238 0.365177 -0.176427 0.572545
  4 6.388059 -0.005253 -0.000001 0.198405 0.005729 0.149714
  5 6.146608 1.394838 0.000001 -0.148041 0.067888 0.314532
  6 -2.279410 1.020202 -2.992796 -0.840324 1.038317 2.061281
  7 5.760270 -0.000012 -0.000009 0.215459 -0.042200 -0.602850
  8 10.965153 0.000065 -0.000006 0.000013 0.000002 -1.717003
  9 0.000007 -0.000004 -4.044200 0.206753 3.263382 -1.334754
 10 -0.000007 0.000007 4.044200 -0.498357 -2.349937 -1.047975
 11 17.182070 0.000091 0.000546 0.000004 -0.000009 -1.989284
 12 16.782913 0.000650 -0.000234 0.032945 0.086094 -0.096100
 13 5.168527 5.004116 -0.000135 0.000010 0.000000 2.033191
 14 17.182070 0.000099 0.000206 -0.000001 -0.000007 -1.636059
 15 16.782906 0.000656 -0.000113 0.214792 -0.032181 0.743581
 16 5.168479 5.004167 -0.000064 0.000011 -0.000001 1.483546
 17 -2.681770 0.152974 2.832647 -1.193717 -0.840398 3.916133
 18 5.760273 0.000016 0.000006 0.294902 -0.035437 -0.369285
time 11
  0 3.177613 -3.177613 8.443506 -0.281409 0.436266 -2.443613
  1 0.000000 0.000000 0.000000 -1.570796 -1.570796 0.000000
  2 4.484989 -0.004008 0.000006 1.033565 0.110631 -0.251133
  3 5.037136 -0.005101 -0.000238 0.383663 -0.180817 0.551665
  4 6.388059 -0.005253 -0.000001 0.214261 0.009250 0.144313
  5 6.146608 1.394838 0.000001 -0.172039 0.058410 0.330450
  6 -2.298942 1.137393 -2.945919 -0.780320 1.022496 2.103631
  7 5.760270 -0.000012 -0.000009 0.219271 -0.047158 -0.518691
  8 10.965153 0.000065 -0.000006 0.000013 0.000002 -1.763064
  9 0.000007 -0.000004 -4.044200 0.206753 3.263382 -1.334754
 10 -0.000007 0.000007 4.044200 -0.498357 -2.349937 -1.047975
 11 17.182070 0.000091 0.000546 0.000004 -0.000009 -1.989284
 12 16.782913 0.000650 -0.000234 0.032945 0.086094 -0.096100
 13 5.168527 5.004116 -0.000135 0.000010 0.000000 2.033191
 14 17.182070 0.000099 0.000206 -0.000001 -0.000007 -1.636059
 15 16.782906 0.000656 -0.000113 0.214792 -0.032181 0.743581
 16 5.168479 5.004167 -0.000064 0.000011 -0.000001 1.483546
 17 -2.646613 0.121723 2.871711 -1.240950 -0.857781 3.950193
 18 5.760273 0.000016 0.000006 0.216104 0.027054 -0.380554
time 12
  0 3.177613 -3.177613 8.443506 -0.281409 0.436266 -2.443613
  1 0.000000 0.000000 0.000000 -1.570796 -1.570796 0.000000
  2 4.484989 -0.004008 0.000006 1.007372 0.100082 -0.244557
  3 5.037136 -0.005101 -0.000238 0.390227 -0.175359 0.534925
  4 6.388059 -0.005253 -0.000001 0.215543 0.010182 0.142747
  5 6.146608 1.394838 0.000001 -0.203827 0.050574 0.350140
  6 -2.310661 1.266303 -2.883417 -0.756509 0.998949 2.108114
  7 5.760270 -0.000012 -0.000009 0.232885 -0.065492 -0.470520
  8 10.965153 0.000065 -0.000006 0.000013 0.000002 -1.809435
  9 0.000007 -0.000004 -4.044200 0.206753 3.263382 -1.334754
 10 -0.000007 0.000007 4.044200 -0.498357 -2.349937 -1.047975
 11 17.182070 0.000091 0.000546 0.000004 -0.000009 -1.989284
 12 16.782913 0.000650 -0.000234 0.032945 0.086094 -0.096100
 13 5.168527 5.004116 -0.000135 0.000010 0.000000 2.033191
 14 17.182070 0.000099 0.000206 -0.000001 -0.000007 -1.636059
 15 16.782906 0.000656 -0.000113 0.214792 -0.032181 0.743581
 16 5.168479 5.004167 -0.000064 0.000011 -0.000001 1.483546
 17 -2.607549 0.078753 2.902962 -1.295378 -0.867023 3.985486
 18 5.760273 0.000016 0.000006 0.132080 0.102919 -0.374942
time 13
  0 3.177613 -3.177613 8.443506 -0.281409 0.436266 -2.443613
  1 0.000000 0.000000 0.000000 -1.570796 -1.570796 0.000000
  2 4.484989 -0.004008 0.000006 0.977832 0.092315 -0.238762
  3 5.037136 -0.005101 -0.000238 0.389428 -0.162395 0.522506
  4 6.388059 -0.005253 -0.000001 0.206207 0.008660 0.145949
  5 6.146608 1.394838 0.000001 -0.238515 0.044124 0.371696
  6 -2.318474 1.403026 -2.809196 -0.747556 0.971816 2.096668
  7 5.760270 -0.000012 -0.000009 0.246499 -0.086422 -0.440955
  8 10.965153 0.000065 -0.000006 0.000013 0.000002 -1.855434
  9 0.000007 -0.000004 -4.044200 0.206753 3.263382 -1.334754
 10 -0.000007 0.000007 4.044200 -0.498357 -2.349937 -1.047975
 11 17.182070 0.000091 0.000546 0.000004 -0.000009 -1.989284
 12 16.782913 0.000650 -0.000234 0.032945 0.086094 -0.096100
 13 5.168527 5.004116 -0.000135 0.000010 0.000000 2.033191
 14 17.182070 0.000099 0.000206 -0.000001 -0.000007 -1.636059
 15 16.782906 0.000656 -0.000113 0.214792 -0.032181 0.743581
 16 5.168479 5.004167 -0.000064 0.000011 -0.000001 1.483546
 17 -2.576298 0.016251 2.934213 -1.347685 -0.869098 4.014044
 18 5.760273 0.000016 0.000006 0.058576 0.175914 -0.353976
time 14
  0 3.177613 -3.177613 8.443506 -0.281409 0.436266 -2.443613
  1 0.000000 0.000000 0.000000 -1.570796 -1.570796 0.000000
  2 4.484989 -0.004008 0.000006 0.942508 0.086162 -0.233619
  3 5.037136 -0.005101 -0.000238 0.385533 -0.145232 0.509241
  4 6.388059 -0.005253 -0.000001 0.191837 0.005481 0.150242
  5 6.146608 1.394838 0.000001 -0.271193 0.038484 0.393609
  6 -2.322381 1.539749 -2.734975 -0.745841 0.945738 2.078545
  7 5.760270 -0.000012 -0.000009 0.258820 -0.113805 -0.422400
  8 10.965153 0.000065 -0.000006 0.000013 0.000002 -1.900380
  9 0.000007 -0.000004 -4.044200 0.206753 3.263382 -1.334754
 10 -0.000007 0.000007 4.044200 -0.498357 -2.349937 -1.047975
 11 17.182070 0.000091 0.000546 0.000004 -0.000009 -1.989284
 12 16.782913 0.000650 -0.000234 0.032945 0.086094 -0.096100
 13 5.168527 5.004116 -0.000135 0.000010 0.000000 2.033191
 14 17.182070 0.000099 0.000206 -0.000001 -0.000007 -1.636059
 15 16.782906 0.000656 -0.000113 0.214792 -0.032181 0.743581
 16 5.168479 5.004167 -0.000064 0.000011 -0.000001 1.483546
 17 -2.545048 -0.026719 2.953745 -1.389014 -0.866143 4.028180
 18 5.760273 0.000016 0.000006 0.019889 0.230916 -0.310336
time 15
  0 3.177613 -3.177613 8.443506 -0.281409 0.436266 -2.443613
  1 0.000000 0.000000 0.000000 -1.570796 -1.570796 0.000000
  2 4.484989 -0.004008 0.000006 0.902862 0.081111 -0.228768
  3 5.037136 -0.005101 -0.000238 0.378510 -0.124879 0.495311
  4 6.388059 -0.005253 -0.000001 0.173513 0.001351 0.155186
  5 6.146608 1.394838 0.000001 -0.296916 0.032726 0.413815
  6 -2.322381 1.656940 -2.668567 -0.744317 0.924986 2.060995
  7 5.760270 -0.000012 -0.000009 0.269780 -0.146421 -0.411645
  8 10.965153 0.000065 -0.000006 0.000013 0.000002 -1.943346
  9 0.000007 -0.000004 -4.044200 0.206753 3.263382 -1.334754
 10 -0.000007 0.000007 4.044200 -0.498357 -2.349937 -1.047975
 11 17.182070 0.000091 0.000546 0.000004 -0.000009 -1.989284
 12 16.782913 0.000650 -0.000234 0.032945 0.086094 -0.096100
 13 5.168527 5.004116 -0.000135 0.000010 0.000000 2.033191
 14 17.182070 0.000099 0.000206 -0.000001 -0.000007 -1.636059
 15 16.782906 0.000656 -0.000113 0.214792 -0.032181 0.743581
 16 5.168479 5.004167 -0.000064 0.000011 -0.000001 1.483546
 17 -2.513797 -0.057970 2.981090 -1.403959 -0.863094 4.012810
 18 5.760273 0.000016 0.000006 0.035160 0.259803 -0.231094
time 16
  0 3.177613 -3.177613 8.443506 -0.281409 0.436266 -2.443613
  1 0.000000 0.000000 0.000000 -1.570796 -1.570796 0.000000
  2 4.484989 -0.004008 0.000006 0.860291 0.076556 -0.223918
  3 5.037136 -0.005101 -0.000238 0.368341 -0.102171 0.480776
  4 6.388059 -0.005253 -0.000001 0.151761 -0.003083 0.160376
  5 6.146608 1.394838 0.000001 -0.310829 0.025721 0.430607
  6 -2.330193 1.723348 -2.617784 -0.737841 0.914228 2.050121
  7 5.760270 -0.000012 -0.000009 0.279582 -0.183089 -0.406344
  8 10.965153 0.000065 -0.000006 0.000013 0.000002 -1.983339
  9 0.000007 -0.000004 -4.044200 0.206753 3.263382 -1.334754
 10 -0.000007 0.000007 4.044200 -0.498357 -2.349937 -1.047975
 11 17.182070 0.000091 0.000546 0.000004 -0.000009 -1.989284
 12 16.782913 0.000650 -0.000234 0.032945 0.086094 -0.096100
 13 5.168527 5.004116 -0.000135 0.000010 0.000000 2.033191
 14 17.182070 0.000099 0.000206 -0.000001 -0.000007 -1.636059
 15 16.782906 0.000656 -0.000113 0.214792 -0.032181 0.743581
 16 5.168479 5.004167 -0.000064 0.000011 -0.000001 1.483546
 17 -2.478639 -0.069689 3.008434 -1.389752 -0.865923 3.968788
 18 5.760273 0.000016 0.000006 0.090611 0.269432 -0.126709
time 17
  0 3.177613 -3.177613 8.443506 -0.281409 0.436266 -2.443613
  1 0.000000 0.000000 0.000000 -1.570796 -1.570796 0.000000
  2 4.484989 -0.004008 0.000006 0.816290 0.072129 -0.218872
  3 5.037136 -0.005101 -0.000238 0.355246 -0.078116 0.465789
  4 6.388059 -0.005253 -0.000001 0.127408 -0.007841 0.165443
  5 6.146608 1.394838 0.000001 -0.308042 0.016164 0.442159
  6 -2.349725 1.738973 -2.594346 -0.721364 0.917814 2.052124
  7 5.760270 -0.000012 -0.000009 0.289180 -0.222708 -0.404305
  8 10.965153 0.000065 -0.000006 0.000013 0.000002 -2.019061
  9 0.000007 -0.000004 -4.044200 0.206753 3.263382 -1.334754
 10 -0.000007 0.000007 4.044200 -0.498357 -2.349937 -1.047975
 11 17.182070 0.000091 0.000546 0.000004 -0.000009 -1.989284
 12 16.782913 0.000650 -0.000234 0.032945 0.086094 -0.096100
 13 5.168527 5.004116 -0.000135 0.000010 0.000000 2.033191
 14 17.182070 0.000099 0.000206 -0.000001 -0.000007 -1.636059
 15 16.782906 0.000656 -0.000113 0.214792 -0.032181 0.743581
 16 5.168479 5.004167 -0.000064 0.000011 -0.000001 1.483546
 17 -2.439576 -0.046251 3.039685 -1.353036 -0.877396 3.910061
 18 5.760273 0.000016 0.000006 0.157803 0.272593 -0.019990
time 18
  0 3.177613 -3.177613 8.443506 -0.281409 0.436266 -2.443613
  1 0.000000 0.000000 0.000000 -1.570796 -1.570796 0.000000
  2 4.484989 -0.004008 0.000006 0.772224 0.067190 -0.213305
  3 5.037136 -0.005101 -0.000238 0.339244 -0.053710 0.450408
  4 6.388059 -0.005253 -0.000001 0.101498 -0.012314 0.169912
  5 6.146608 1.394838 0.000001 -0.283628 0.002828 0.446247
  6 -2.384882 1.676472 -2.598252 -0.688314 0.939937 2.075207
  7 5.760270 -0.000012 -0.000009 0.297825 -0.264019 -0.403795
  8 10.965153 0.000065 -0.000006 0.000013 0.000002 -2.050388
  9 0.000007 -0.000004 -4.044200 0.206753 3.263382 -1.334754
 10 -0.000007 0.000007 4.044200 -0.498357 -2.349937 -1.047975
 11 17.182070 0.000091 0.000546 0.000004 -0.000009 -1.989284
 12 16.782913 0.000650 -0.000234 0.032945 0.086094 -0.096100
 13 5.168527 5.004116 -0.000135 0.000010 0.000000 2.033191
 14 17.182070 0.000099 0.000206 -0.000001 -0.000007 -1.636059
 15 16.782906 0.000656 -0.000113 0.214792 -0.032181 0.743581
 16 5.168479 5.004167 -0.000064 0.000011 -0.000001 1.483546
 17 -2.396605 0.035783 3.070936 -1.299437 -0.899903 3.849910
 18 5.760273 0.000016 0.000006 0.213389 0.285626 0.067244
time 19
  0 3.177613 -3.177613 8.443506 -0.281409 0.436266 -2.443613
  1 0.000000 0.000000 0.000000 -1.570796 -1.570796 0.000000
  2 4.484989 -0.004008 0.000006 0.729522 0.061341 -0.206827
  3 5.037136 -0.005101 -0.000238 0.320384 -0.029773 0.434817
  4 6.388059 -0.005253 -0.000001 0.074700 -0.016044 0.173255
  5 6.146608 1.394838 0.000001 -0.240941 -0.013279 0.443627
  6 -2.427852 1.539749 -2.629503 -0.636786 0.976668 2.120800
  7 5.760270 -0.000012 -0.000009 0.306402 -0.305683 -0.402062
  8 10.965153 0.000065 -0.000006 0.000013 0.000002 -2.075956
  9 0.000007 -0.000004 -4.044200 0.206753 3.263382 -1.334754
 10 -0.000007 0.000007 4.044200 -0.498357 -2.349937 -1.047975
 11 17.182070 0.000091 0.000546 0.000004 -0.000009 -1.989284
 12 16.782913 0.000650 -0.000234 0.032945 0.086094 -0.096100
 13 5.168527 5.004116 -0.000135 0.000010 0.000000 2.033191
 14 17.182070 0.000099 0.000206 -0.000001 -0.000007 -1.636059
 15 16.782906 0.000656 -0.000113 0.214792 -0.032181 0.743581
 16 5.168479 5.004167 -0.000064 0.000011 -0.000001 1.483546
 17 -2.353635 0.152974 3.102187 -1.245193 -0.931494 3.804655
 18 5.760273 0.000016 0.000006 0.237008 0.326184 0.114071
time 20
  0 3.177613 -3.177613 8.443506 -0.281409 0.436266 -2.443613
  1 0.000000 0.000000 0.000000 -1.570796 -1.570796 0.000000
  2 4.484989 -0.004008 0.000006 0.689649 0.054149 -0.199046
  3 5.037136 -0.005101 -0.000238 0.299059 -0.007313 0.419164
  4 6.388059 -0.005253 -0.000001 0.047831 -0.018823 0.174979
  5 6.146608 1.394838 0.000001 -0.187563 -0.030930 0.436799
  6 -2.490354 1.379588 -2.668567 -0.566972 1.020360 2.186995
  7 5.760270 -0.000012 -0.000009 0.314843 -0.346325 -0.397474
  8 10.965153 0.000065 -0.000006 0.000013 0.000002 -2.094715
  9 0.000007 -0.000004 -4.044200 0.206753 3.263382 -1.334754
 10 -0.000007 0.000007 4.044200 -0.498357 -2.349937 -1.047975
 11 17.182070 0.000091 0.000546 0.000004 -0.000009 -1.989284
 12 16.782913 0.000650 -0.000234 0.032945 0.086094 -0.096100
 13 5.168527 5.004116 -0.000135 0.000010 0.000000 2.033191
 14 17.182070 0.000099 0.000206 -0.000001 -0.000007 -1.636059
 15 16.782906 0.000656 -0.000113 0.214792 -0.032181 0.743581
 16 5.168479 5.004167 -0.000064 0.000011 -0.000001 1.483546
 17 -2.298946 0.289697 3.133438 -1.194455 -0.968712 3.772777
 18 5.760273 0.000016 0.000006 0.231239 0.388481 0.126193
time 21
  0 3.177613 -3.177613 8.443506 -0.281409 0.436266 -2.443613
  1 0.000000 0.000000 0.000000 -1.570796 -1.570796 0.000000
  2 4.484989 -0.004008 0.000006 0.653902 0.045055 -0.189670
  3 5.037136 -0.005101 -0.000238 0.275370 0.012762 0.403663
  4 6.388059 -0.005253 -0.000001 0.021680 -0.020308 0.174592
  5 6.146608 1.394838 0.000001 -0.124859 -0.049233 0.425803
  6 -2.552856 1.188175 -2.711537 -0.471537 1.067770 2.280852
  7 5.760270 -0.000012 -0.000009 0.323556 -0.384724 -0.388248
  8 10.965153 0.000065 -0.000006 0.000013 0.000002 -2.106106
  9 0.000007 -0.000004 -4.044200 0.206753 3.263382 -1.334754
 10 -0.000007 0.000007 4.044200 -0.498357 -2.349937 -1.047975
 11 17.182070 0.000091 0.000546 0.000004 -0.000009 -1.989284
 12 16.782913 0.000650 -0.000234 0.032945 0.086094 -0.096100
 13 5.168527 5.004116 -0.000135 0.000010 0.000000 2.033191
 14 17.182070 0.000099 0.000206 -0.000001 -0.000007 -1.636059
 15 16.782906 0.000656 -0.000113 0.214792 -0.032181 0.743581
 16 5.168479 5.004167 -0.000064 0.000011 -0.000001 1.483546
 17 -2.259882 0.457670 3.145157 -1.132646 -1.010205 3.735017
 18 5.760273 0.000016 0.000006 0.211828 0.454327 0.122287
time 22
  0 3.177613 -3.177613 8.443506 -0.281409 0.436266 -2.443613
  1 0.000000 0.000000 0.000000 -1.570796 -1.570796 0.000000
  2 4.484989 -0.004008 0.000006 0.623712 0.033627 -0.178211
  3 5.037136 -0.005101 -0.000238 0.249606 0.029632 0.388615
  4 6.388059 -0.005253 -0.000001 -0.002661 -0.020003 0.171548
  5 6.146608 1.394838 0.000001 -0.054251 -0.067536 0.410837
  6 -2.615358 0.957700 -2.742788 -0.341433 1.114468 2.411526
  7 5.760270 -0.000012 -0.000009 0.332677 -0.419661 -0.373210
  8 10.965153 0.000065 -0.000006 0.000013 0.000002 -2.108830
  9 0.000007 -0.000004 -4.044200 0.206753 3.263382 -1.334754
 10 -0.000007 0.000007 4.044200 -0.498357 -2.349937 -1.047975
 11 17.182070 0.000091 0.000546 0.000004 -0.000009 -1.989284
 12 16.782913 0.000650 -0.000234 0.032945 0.086094 -0.096100
 13 5.168527 5.004116 -0.000135 0.000010 0.000000 2.033191
 14 17.182070 0.000099 0.000206 -0.000001 -0.000007 -1.636059
 15 16.782906 0.000656 -0.000113 0.214792 -0.032181 0.743581
 16 5.168479 5.004167 -0.000064 0.000011 -0.000001 1.483546
 17 -2.216913 0.637363 3.145157 -1.057368 -1.054779 3.688623
 18 5.760273 0.000016 0.000006 0.176671 0.520271 0.099345
time 23
  0 3.177613 -3.177613 8.443506 -0.281409 0.436266 -2.443613
  1 0.000000 0.000000 0.000000 -1.570796 -1.570796 0.000000
  2 4.484989 -0.004008 0.000006 0.600379 0.019403 -0.164376
  3 5.037136 -0.005101 -0.000238 0.222040 0.042377 0.374413
  4 6.388059 -0.005253 -0.000001 -0.024568 -0.018005 0.165267
  5 6.146608 1.394838 0.000001 0.022878 -0.085186 0.392299
  6 -2.677860 0.703786 -2.754507 -0.172564 1.155207 2.582547
  7 5.760270 -0.000012 -0.000009 0.347176 -0.454362 -0.349507
  8 10.965153 0.000065 -0.000006 0.000013 0.000002 -2.096510
  9 0.000007 -0.000004 -4.044200 0.206753 3.263382 -1.334754
 10 -0.000007 0.000007 4.044200 -0.498357 -2.349937 -1.047975
 11 17.182070 0.000091 0.000546 0.000004 -0.000009 -1.989284
 12 16.782913 0.000650 -0.000234 0.032945 0.086094 -0.096100
 13 5.168527 5.004116 -0.000135 0.000010 0.000000 2.033191
 14 17.182070 0.000099 0.000206 -0.000001 -0.000007 -1.636059
 15 16.782906 0.000656 -0.000113 0.214792 -0.032181 0.743581
 16 5.168479 5.004167 -0.000064 0.000011 -0.000001 1.483546
 17 -2.173943 0.840495 3.121719 -0.966315 -1.100987 3.629327
 18 5.760273 0.000016 0.000006 0.124139 0.582081 0.054269
time 24
  0 3.177613 -3.177613 8.443506 -0.281409 0.436266 -2.443613
  1 0.000000 0.000000 0.000000 -1.570796 -1.570796 0.000000
  2 4.484989 -0.004008 0.000006 0.588128 -0.000464 -0.146601
  3 5.037136 -0.005101 -0.000238 0.188776 0.049283 0.361692
  4 6.388059 -0.005253 -0.000001 -0.044619 -0.012714 0.152793
  5 6.146608 1.394838 0.000001 0.105106 -0.101531 0.370624
  6 -2.736455 0.418621 -2.754507 0.032497 1.184792 2.791626
  7 5.760270 -0.000012 -0.000009 0.372022 -0.495161 -0.320044
  8 10.965153 0.000065 -0.000006 0.000013 0.000002 -2.065494
  9 0.000007 -0.000004 -4.044200 0.206753 3.263382 -1.334754
 10 -0.000007 0.000007 4.044200 -0.498357 -2.349937 -1.047975
 11 17.182070 0.000091 0.000546 0.000004 -0.000009 -1.989284
 12 16.782913 0.000650 -0.000234 0.032945 0.086094 -0.096100
 13 5.168527 5.004116 -0.000135 0.000010 0.000000 2.033191
 14 17.182070 0.000099 0.000206 -0.000001 -0.000007 -1.636059
 15 16.782906 0.000656 -0.000113 0.214792 -0.032181 0.743581
 16 5.168479 5.004167 -0.000064 0.000011 -0.000001 1.483546
 17 -2.146598 1.039719 3.090468 -0.855613 -1.147132 3.552573
 18 5.760273 0.000016 0.000006 0.049209 0.634360 -0.014513
time 25
  0 3.177613 -3.177613 8.443506 -0.281409 0.436266 -2.443613
  1 0.000000 0.000000 0.000000 -1.570796 -1.570796 0.000000
  2 4.484989 -0.004008 0.000006 0.587803 -0.027458 -0.124171
  3 5.037136 -0.005101 -0.000238 0.147367 0.050000 0.350723
  4 6.388059 -0.005253 -0.000001 -0.063686 -0.003959 0.132789
  5 6.146608 1.394838 0.000001 0.190916 -0.116094 0.346448
  6 -2.787238 0.133456 -2.723256 0.265275 1.197449 3.030560
  7 5.760270 -0.000012 -0.000009 0.404015 -0.545010 -0.289714
  8 10.965153 0.000065 -0.000006 0.000013 0.000002 -2.020361
  9 0.000007 -0.000004 -4.044200 0.206753 3.263382 -1.334754
 10 -0.000007 0.000007 4.044200 -0.498357 -2.349937 -1.047975
 11 17.182070 0.000091 0.000546 0.000004 -0.000009 -1.989284
 12 16.782913 0.000650 -0.000234 0.032945 0.086094 -0.096100
 13 5.168527 5.004116 -0.000135 0.000010 0.000000 2.033191
 14 17.182070 0.000099 0.000206 -0.000001 -0.000007 -1.636059
 15 16.782906 0.000656 -0.000113 0.214792 -0.032181 0.743581
 16 5.168479 5.004167 -0.000064 0.000011 -0.000001 1.483546
 17 -2.119253 1.250663 3.039685 -0.720279 -1.191046 3.451911
 18 5.760273 0.000016 0.000006 -0.048321 0.671028 -0.104934
time 26
  0 3.177613 -3.177613 8.443506 -0.281409 0.436266 -2.443613
  1 0.000000 0.000000 0.000000 -1.570796 -1.570796 0.000000
  2 4.484989 -0.004008 0.000006 0.595700 -0.059966 -0.098779
  3 5.037136 -0.005101 -0.000238 0.100057 0.046137 0.341295
  4 6.388059 -0.005253 -0.000001 -0.082538 0.007023 0.107225
  5 6.146608 1.394838 0.000001 0.278755 -0.128481 0.320327
  6 -2.841928 -0.155616 -2.668567 0.503005 1.189855 3.275598
  7 5.760270 -0.000012 -0.000009 0.438799 -0.604930 -0.257142
  8 10.965153 0.000065 -0.000006 0.000013 0.000002 -1.965200
  9 0.000007 -0.000004 -4.044200 0.206753 3.263382 -1.334754
 10 -0.000007 0.000007 4.044200 -0.498357 -2.349937 -1.047975
 11 17.182070 0.000091 0.000546 0.000004 -0.000009 -1.989284
 12 16.782913 0.000650 -0.000234 0.032945 0.086094 -0.096100
 13 5.168527 5.004116 -0.000135 0.000010 0.000000 2.033191
 14 17.182070 0.000099 0.000206 -0.000001 -0.000007 -1.636059
 15 16.782906 0.000656 -0.000113 0.214792 -0.032181 0.743581
 16 5.168479 5.004167 -0.000064 0.000011 -0.000001 1.483546
 17 -2.095815 1.445982 2.961558 -0.555332 -1.229930 3.321553
 18 5.760273 0.000016 0.000006 -0.160172 0.687659 -0.209364
time 27
  0 3.177613 -3.177613 8.443506 -0.281409 0.436266 -2.443613
  1 0.000000 0.000000 0.000000 -1.570796 -1.570796 0.000000
  2 4.484989 -0.004008 0.000006 0.608276 -0.096071 -0.071856
  3 5.037136 -0.005101 -0.000238 0.049244 0.039260 0.333137
  4 6.388059 -0.005253 -0.000001 -0.101270 0.019204 0.078019
  5 6.146608 1.394838 0.000001 0.367029 -0.138533 0.293174
  6 -2.884898 -0.440781 -2.594346 0.718639 1.162669 3.499652
  7 5.760270 -0.000012 -0.000009 0.470929 -0.674646 -0.220950
  8 10.965153 0.000065 -0.000006 0.000013 0.000002 -1.904466
  9 0.000007 -0.000004 -4.044200 0.206753 3.263382 -1.334754
 10 -0.000007 0.000007 4.044200 -0.498357 -2.349937 -1.047975
 11 17.182070 0.000091 0.000546 0.000004 -0.000009 -1.989284
 12 16.782913 0.000650 -0.000234 0.032945 0.086094 -0.096100
 13 5.168527 5.004116 -0.000135 0.000010 0.000000 2.033191
 14 17.182070 0.000099 0.000206 -0.000001 -0.000007 -1.636059
 15 16.782906 0.000656 -0.000113 0.214792 -0.032181 0.743581
 16 5.168479 5.004167 -0.000064 0.000011 -0.000001 1.483546
 17 -2.076283 1.645207 2.871711 -0.357636 -1.260546 3.157799
 18 5.760273 0.000016 0.000006 -0.276096 0.682602 -0.318148
time 28
  0 3.177613 -3.177613 8.443506 -0.281409 0.436266 -2.443613
  1 0.000000 0.000000 0.000000 -1.570796 -1.570796 0.000000
  2 4.484989 -0.004008 0.000006 0.622055 -0.133918 -0.044706
  3 5.037136 -0.005101 -0.000238 -0.002862 0.030891 0.325794
  4 6.388059 -0.005253 -0.000001 -0.120158 0.031480 0.047265
  5 6.146608 1.394838 0.000001 0.454091 -0.146309 0.265982
  6 -2.916149 -0.714226 -2.488874 0.895984 1.120032 3.686602
  7 5.760270 -0.000012 -0.000009 0.495911 -0.752231 -0.178794
  8 10.965153 0.000065 -0.000006 0.000013 0.000002 -1.842371
  9 0.000007 -0.000004 -4.044200 0.206753 3.263382 -1.334754
 10 -0.000007 0.000007 4.044200 -0.498357 -2.349937 -1.047975
 11 17.182070 0.000091 0.000546 0.000004 -0.000009 -1.989284
 12 16.782913 0.000650 -0.000234 0.032945 0.086094 -0.096100
 13 5.168527 5.004116 -0.000135 0.000010 0.000000 2.033191
 14 17.182070 0.000099 0.000206 -0.000001 -0.000007 -1.636059
 15 16.782906 0.000656 -0.000113 0.214792 -0.032181 0.743581
 16 5.168479 5.004167 -0.000064 0.000011 -0.000001 1.483546
 17 -2.064564 1.836619 2.766239 -0.132726 -1.279658 2.965204
 18 5.760273 0.000016 0.000006 -0.384690 0.657849 -0.421141
time 29
  0 3.177613 -3.177613 8.443506 -0.281409 0.436266 -2.443613
  1 0.000000 0.000000 0.000000 -1.570796 -1.570796 0.000000
  2 4.484989 -0.004008 0.000006 0.633819 -0.171492 -0.018207
  3 5.037136 -0.005101 -0.000238 -0.054236 0.022697 0.318663
  4 6.388059 -0.005253 -0.000001 -0.139609 0.042823 0.016933
  5 6.146608 1.394838 0.000001 0.538290 -0.152048 0.239226
  6 -2.935680 -0.968140 -2.371683 1.033232 1.067348 3.833682
  7 5.760270 -0.000012 -0.000009 0.506734 -0.834066 -0.127361
  8 10.965153 0.000065 -0.000006 0.000013 0.000002 -1.782999
  9 0.000007 -0.000004 -4.044200 0.206753 3.263382 -1.334754
 10 -0.000007 0.000007 4.044200 -0.498357 -2.349937 -1.047975
 11 17.182070 0.000091 0.000546 0.000004 -0.000009 -1.989284
 12 16.782913 0.000650 -0.000234 0.032945 0.086094 -0.096100
 13 5.168527 5.004116 -0.000135 0.000010 0.000000 2.033191
 14 17.182070 0.000099 0.000206 -0.000001 -0.000007 -1.636059
 15 16.782906 0.000656 -0.000113 0.214792 -0.032181 0.743581
 16 5.168479 5.004167 -0.000064 0.000011 -0.000001 1.483546
 17 -2.052845 2.012405 2.649048 0.102148 -1.284971 2.759990
 18 5.760273 0.000016 0.000006 -0.479030 0.618603 -0.510934
time 30
  0 3.177613 -3.177613 8.443506 -0.281409 0.436266 -2.443613
  1 0.000000 0.000000 0.000000 -1.570796 -1.570796 0.000000
  2 4.484989 -0.004008 0.000006 0.113378 0.036632 -0.303969
  3 5.037136 -0.005101 -0.000238 0.091010 0.061208 -0.113560
  4 6.388059 -0.005253 -0.000001 -0.139752 -0.121332 -0.248681
  5 6.146608 1.394838 0.000001 0.180946 0.137421 1.009434
  6 -1.142657 1.426464 -3.449841 -2.629779 0.937142 -0.505277
  7 5.760270 -0.000012 -0.000009 0.973427 0.182057 0.155496
  8 10.965153 0.000065 -0.000006 0.000013 0.000002 -1.009993
  9 0.000007 -0.000004 -4.044200 0.206753 3.263382 -1.334754
 10 -0.000007 0.000007 4.044200 -0.498357 -2.349937 -1.047975
 11 17.182070 0.000091 0.000546 0.000004 -0.000009 -1.989284
 12 16.782913 0.000650 -0.000234 0.032945 0.086094 -0.096100
 13 5.168527 5.004116 -0.000135 0.000010 0.000000 2.033191
 14 17.182070 0.000099 0.000206 -0.000001 -0.000007 -1.636059
 15 16.782906 0.000656 -0.000113 0.214792 -0.032181 0.743581
 16 5.168479 5.004167 -0.000064 0.000011 -0.000001 1.483546
 17 -1.947373 2.481170 2.313100 -0.864285 -0.819872 2.989776
 18 5.760273 0.000016 0.000006 0.982775 0.626968 -0.110546
end
