version 1
nodes
  0 "Bip01"  -1
  1 "Bip01 Pelvis"   0
  2 "Bip01 Spine"   1
  3 "Bip01 Spine1"   2
  4 "Bip01 Spine2"   3
  5 "Bip01 Neck"   4
  6 "Bip01 R Clavicle"   5
  7 "Bip01 R UpperArm"   6
  8 "Bip01 R Forearm"   7
  9 "Bip01 R Thigh"   1
 10 "Bip01 L Thigh"   1
 11 "Bip01 L Calf"  10
 12 "Bip01 L Foot"  11
 13 "Bip01 L Toe0"  12
 14 "Bip01 R Calf"   9
 15 "Bip01 R Foot"  14
 16 "Bip01 R Toe0"  15
 17 "Bip01 L Clavicle"   5
 18 "Bip01 L UpperArm"  17
end
skeleton
time 0
  0 2.915886 -2.915886 -20.615974 -0.081851 -0.140975 -1.519078
  1 0.000000 0.000000 0.000000 -1.570796 -1.570796 0.000000
  2 4.484989 -0.004008 0.000006 -0.200738 0.019211 -0.026248
  3 5.037136 -0.005101 -0.000238 -0.012079 0.134411 -0.020734
  4 6.388059 -0.005253 -0.000001 -0.183053 -0.062617 -0.335665
  5 6.146608 1.394838 0.000001 0.302733 -0.258998 0.856599
  6 -2.533324 0.988951 -2.801383 0.677684 1.199980 2.885483
  7 5.760270 -0.000012 -0.000009 -1.026764 -0.687315 0.694143
  8 10.965153 0.000065 -0.000006 0.000013 0.000002 -0.369165
  9 0.000007 -0.000004 -4.044200 -0.187895 2.818661 -0.327858
 10 -0.000007 0.000007 4.044200 -0.050763 -2.688109 -0.444190
 11 17.182070 0.000091 0.000546 0.000004 -0.000009 -2.479722
 12 16.782913 0.000650 -0.000234 0.032233 -0.084952 1.001930
 13 5.168527 5.004116 -0.000135 -0.160110 0.009537 2.416314
 14 17.182070 0.000099 0.000206 -0.000001 -0.000007 -2.309758
 15 16.782906 0.000656 -0.000113 -0.030294 0.487066 1.327543
 16 5.168479 5.004167 -0.000064 0.000011 -0.000001 2.067008
 17 -1.029376 2.680395 2.660767 -0.431346 -1.224146 2.675172
 18 5.760273 0.000016 0.000006 1.040940 0.748011 0.708861
time 1
  0 4.267490 -4.267490 -17.072897 -0.046567 -0.129363 -1.574755
  1 0.000000 0.000000 0.000000 1.441497 -1.473327 -3.014411
  2 4.465457 0.421786 0.050789 -0.259818 -0.156693 0.167744
  3 5.037136 -0.005101 -0.000238 -0.049883 0.146380 0.179755
  4 6.388059 -0.005253 -0.000001 -0.068001 0.020517 -0.028248
  5 6.146608 1.394838 0.000001 0.235935 -0.089084 0.621273
  6 -2.447384 0.617846 -2.961545 0.539674 1.370451 3.041052
  7 5.760270 -0.000012 -0.000009 -0.130817 -0.838748 -0.181648
  8 10.965153 0.000065 -0.000006 0.000013 0.000002 -0.574953
  9 0.000007 -0.000004 -4.044200 -0.279158 2.837482 -0.716706
 10 -0.000007 0.000007 4.044200 -0.143061 -2.908597 -0.798126
 11 17.182070 0.000091 0.000546 0.000004 -0.000009 -2.362633
 12 16.782913 0.000650 -0.000234 -0.142184 0.043323 0.799646
 13 5.168527 5.004116 -0.000135 -0.152719 0.000285 2.322581
 14 17.182070 0.000099 0.000206 -0.000001 -0.000007 -2.236707
 15 16.782906 0.000656 -0.000113 -0.026066 0.388583 0.967426
 16 5.168479 5.004167 -0.000064 0.055557 -0.008007 1.870767
 17 -1.939560 1.985061 2.754520 -0.874248 -1.304586 3.387301
 18 5.760273 0.000016 0.000006 -0.248880 0.887971 -0.670811
time 2
  0 5.623000 -5.623000 -13.557165 -0.011857 -0.115824 -1.630150
  1 0.000000 0.000000 0.000000 1.441314 -1.375800 -3.014779
  2 4.406862 0.847580 0.113291 -0.341483 -0.325340 0.376580
  3 5.037136 -0.005101 -0.000238 -0.084439 0.165489 0.380154
  4 6.388059 -0.005253 -0.000001 0.067066 0.064501 0.287404
  5 6.146608 1.394838 0.000001 0.131567 0.060270 0.375626
  6 -2.267691 0.309242 -3.152957 -1.015288 1.547830 1.761302
  7 5.760270 -0.000012 -0.000009 0.593728 -0.450192 -0.749656
  8 10.965153 0.000065 -0.000006 0.000013 0.000002 -0.780865
  9 0.000007 -0.000004 -4.044200 -0.248231 2.836240 -0.881321
 10 -0.000007 0.000007 4.044200 -0.176224 -3.072125 -0.922764
 11 17.182070 0.000091 0.000546 0.000004 -0.000009 -2.079413
 12 16.782913 0.000650 -0.000234 -0.256565 0.049438 0.674525
 13 5.168527 5.004116 -0.000135 -0.129644 -0.020301 2.076859
 14 17.182070 0.000099 0.000206 -0.000001 -0.000007 -1.978699
 15 16.782906 0.000656 -0.000113 -0.039793 0.226754 0.648556
 16 5.168479 5.004167 -0.000064 0.111263 -0.053560 1.643168
 17 -2.619268 1.082690 2.692018 -1.317703 -1.303831 4.111006
 18 5.760273 0.000016 0.000006 -0.907568 0.201056 -1.017816
time 3
  0 6.654281 -6.654282 -11.189905 0.007554 -0.127337 -1.657472
  1 0.000000 0.000000 0.000000 1.441038 -1.331477 -3.015515
  2 4.359985 1.038993 0.136729 -0.377977 -0.403047 0.483293
  3 5.037136 -0.005101 -0.000238 -0.102431 0.166893 0.488724
  4 6.388059 -0.005253 -0.000001 0.138027 0.076149 0.458715
  5 6.146608 1.394838 0.000001 0.050989 0.127428 0.223307
  6 -2.138781 0.172519 -3.258429 -2.540535 1.458257 0.387791
  7 5.760270 -0.000012 -0.000009 0.871185 -0.132808 -0.892996
  8 10.965153 0.000065 -0.000006 0.000013 0.000002 -0.861472
  9 0.000007 -0.000004 -4.044200 -0.174424 2.847609 -0.925174
 10 -0.000007 0.000007 4.044200 -0.156384 -3.147917 -0.964724
 11 17.182070 0.000091 0.000546 0.000004 -0.000009 -1.749801
 12 16.782913 0.000650 -0.000234 -0.269514 0.042600 0.595527
 13 5.168527 5.004116 -0.000135 -0.095283 -0.037026 1.772423
 14 17.182070 0.000099 0.000206 -0.000001 -0.000007 -1.643049
 15 16.782906 0.000656 -0.000113 -0.031726 0.099034 0.345605
 16 5.168479 5.004167 -0.000064 0.129076 -0.057923 1.489939
 17 -2.884902 0.469390 2.594359 -1.443074 -1.308546 4.397053
 18 5.760273 0.000016 0.000006 -1.136971 -0.149379 -0.832394
time 4
  0 7.373053 -7.373054 -9.728923 0.011379 -0.163952 -1.654843
  1 0.000000 0.000000 0.000000 1.441038 -1.332534 -3.014779
  2 4.359985 1.038993 0.136729 -0.340638 -0.391572 0.472615
  3 5.037136 -0.005101 -0.000238 -0.106801 0.141112 0.495009
  4 6.388059 -0.005253 -0.000001 0.130273 0.092498 0.467512
  5 6.146608 1.394838 0.000001 0.024622 0.127962 0.183649
  6 -2.150500 0.160800 -3.258429 -2.902654 1.456306 0.058435
  7 5.760270 -0.000012 -0.000009 0.961038 -0.045741 -1.029098
  8 10.965153 0.000065 -0.000006 0.000013 0.000002 -0.795166
  9 0.000007 -0.000004 -4.044200 -0.130690 2.846558 -0.930333
 10 -0.000007 0.000007 4.044200 -0.126193 -3.176397 -0.922095
 11 17.182070 0.000091 0.000546 0.000004 -0.000009 -1.314072
 12 16.782913 0.000650 -0.000234 -0.215315 0.031259 0.458451
 13 5.168527 5.004116 -0.000135 -0.064790 -0.042506 1.525787
 14 17.182070 0.000099 0.000206 -0.000001 -0.000007 -1.453843
 15 16.782906 0.000656 -0.000113 -0.014746 0.046523 0.175727
 16 5.168479 5.004167 -0.000064 0.122567 -0.055334 1.494126
 17 -2.892715 0.301416 2.598265 -1.359032 -1.352837 4.341362
 18 5.760273 0.000016 0.000006 -1.116135 -0.190035 -0.772187
time 5
  0 7.998072 -7.998073 -8.314817 0.008606 -0.207386 -1.639445
  1 0.000000 0.000000 0.000000 1.441038 -1.335648 -3.014779
  2 4.367798 1.027273 0.132823 -0.275287 -0.346821 0.434461
  3 5.037136 -0.005101 -0.000238 -0.105730 0.102660 0.461256
  4 6.388059 -0.005253 -0.000001 0.090735 0.114575 0.413376
  5 6.146608 1.394838 0.000001 0.019845 0.105900 0.184959
  6 -2.213002 0.176426 -3.203740 2.714679 1.463636 5.668941
  7 5.760270 -0.000012 -0.000009 0.998750 -0.037597 -1.202971
  8 10.965153 0.000065 -0.000006 0.000013 0.000002 -0.664475
  9 0.000007 -0.000004 -4.044200 -0.078608 2.844265 -0.879315
 10 -0.000007 0.000007 4.044200 -0.091880 -3.212318 -0.616427
 11 17.182070 0.000091 0.000546 0.000004 -0.000009 -0.481474
 12 16.782913 0.000650 -0.000234 -0.151528 0.015007 0.097423
 13 5.168527 5.004116 -0.000135 -0.052907 -0.042595 1.431499
 14 17.182070 0.000099 0.000206 -0.000001 -0.000007 -1.260457
 15 16.782906 0.000656 -0.000113 0.006983 0.005875 0.020074
 16 5.168479 5.004167 -0.000064 0.104397 -0.047820 1.505780
 17 -2.838025 0.301416 2.672486 -1.103402 -1.406778 4.071064
 18 5.760273 0.000016 0.000006 -0.994375 -0.119958 -0.782154
time 6
  0 8.533245 -8.533245 -7.189783 0.000765 -0.257194 -1.616818
  1 0.000000 0.000000 0.000000 1.441130 -1.340549 -3.014779
  2 4.375611 1.003835 0.132823 -0.198626 -0.279103 0.384588
  3 5.037136 -0.005101 -0.000238 -0.098656 0.058574 0.404539
  4 6.388059 -0.005253 -0.000001 0.030848 0.133170 0.320498
  5 6.146608 1.394838 0.000001 0.028527 0.070876 0.213581
  6 -2.310661 0.227209 -3.133425 2.005298 1.423820 4.927626
  7 5.760270 -0.000012 -0.000009 1.006646 -0.092639 -1.386581
  8 10.965153 0.000065 -0.000006 0.000013 0.000002 -0.502828
  9 0.000007 -0.000004 -4.044200 -0.021972 2.845889 -0.794380
 10 -0.000007 0.000007 4.044200 -0.075395 -3.236204 -0.671673
 11 17.182070 0.000091 0.000546 0.000004 -0.000009 -0.430638
 12 16.782913 0.000650 -0.000234 -0.124306 0.020029 0.042130
 13 5.168527 5.004116 -0.000135 -0.048122 -0.038218 1.444717
 14 17.182070 0.000099 0.000206 -0.000001 -0.000007 -1.069538
 15 16.782906 0.000656 -0.000113 0.033348 -0.023114 -0.119095
 16 5.168479 5.004167 -0.000064 0.078313 -0.036662 1.522288
 17 -2.736460 0.395169 2.758426 -0.544816 -1.439029 3.474966
 18 5.760273 0.000016 0.000006 -0.830127 0.043978 -0.789517
time 7
  0 9.017635 -9.017635 -6.599921 -0.009658 -0.313426 -1.591655
  1 0.000000 0.000000 0.000000 1.441130 -1.347219 -3.014779
  2 4.375611 0.972584 0.125010 -0.124565 -0.201028 0.335398
  3 5.037136 -0.005101 -0.000238 -0.086411 0.015996 0.341748
  4 6.388059 -0.005253 -0.000001 -0.035558 0.140859 0.214618
  5 6.146608 1.394838 0.000001 0.042288 0.031559 0.255740
  6 -2.416133 0.289711 -3.043579 -1.503607 1.793265 1.375479
  7 5.760270 -0.000012 -0.000009 1.002357 -0.191587 -1.545672
  8 10.965153 0.000065 -0.000006 0.000013 0.000002 -0.342544
  9 0.000007 -0.000004 -4.044200 0.033620 2.852863 -0.696642
 10 -0.000007 0.000007 4.044200 -0.037345 -3.229773 -0.713441
 11 17.182070 0.000091 0.000546 0.000004 -0.000009 -0.525427
 12 16.782913 0.000650 -0.000234 -0.102283 -0.002098 0.041893
 13 5.168527 5.004116 -0.000135 -0.035308 -0.027062 1.479410
 14 17.182070 0.000099 0.000206 -0.000001 -0.000007 -0.887527
 15 16.782906 0.000656 -0.000113 0.062770 -0.041721 -0.239034
 16 5.168479 5.004167 -0.000064 0.049591 -0.023707 1.540314
 17 -2.607549 0.543611 2.859992 0.080469 -1.413819 2.806288
 18 5.760273 0.000016 0.000006 -0.663843 0.255961 -0.738829
time 8
  0 9.470774 -9.470774 -6.787427 -0.020654 -0.375834 -1.568183
  1 0.000000 0.000000 0.000000 1.441222 -1.355407 -3.014779
  2 4.391236 0.941333 0.113291 -0.063178 -0.127349 0.295096
  3 5.037136 -0.005101 -0.000238 -0.072076 -0.018199 0.289987
  4 6.388059 -0.005253 -0.000001 -0.093516 0.136006 0.122602
  5 6.146608 1.394838 0.000001 0.054192 -0.002832 0.298136
  6 -2.502073 0.375651 -2.961545 1.457546 1.277608 4.291615
  7 5.760270 -0.000012 -0.000009 0.992079 -0.307139 -1.648284
  8 10.965153 0.000065 -0.000006 0.000013 0.000002 -0.217300
  9 0.000007 -0.000004 -4.044200 0.083520 2.865474 -0.609128
 10 -0.000007 0.000007 4.044200 0.007319 -3.207449 -0.751578
 11 17.182070 0.000091 0.000546 0.000004 -0.000009 -0.699877
 12 16.782913 0.000650 -0.000234 -0.076998 -0.035899 0.074497
 13 5.168527 5.004116 -0.000135 -0.018932 -0.013878 1.522458
 14 17.182070 0.000099 0.000206 -0.000001 -0.000007 -0.720593
 15 16.782906 0.000656 -0.000113 0.092875 -0.052392 -0.336919
 16 5.168479 5.004167 -0.000064 0.023913 -0.011686 1.556175
 17 -2.478639 0.684240 2.934213 0.409532 -1.354597 2.441211
 18 5.760273 0.000016 0.000006 -0.515749 0.443483 -0.635298
time 9
  0 9.908287 -9.908287 -7.990589 -0.028017 -0.444666 -1.552691
  1 0.000000 0.000000 0.000000 1.441314 -1.364979 -3.014779
  2 4.399049 0.898363 0.113291 -0.022134 -0.074335 0.267978
  3 5.037136 -0.005101 -0.000238 -0.060512 -0.038508 0.266810
  4 6.388059 -0.005253 -0.000001 -0.127636 0.122188 0.071140
  5 6.146608 1.394838 0.000001 0.058931 -0.022658 0.328465
  6 -2.545043 0.430340 -2.934200 1.346205 1.241299 4.146537
  7 5.760270 -0.000012 -0.000009 0.971930 -0.403373 -1.661690
  8 10.965153 0.000065 -0.000006 0.000013 0.000002 -0.158796
  9 0.000007 -0.000004 -4.044200 0.123839 2.879136 -0.553332
 10 -0.000007 0.000007 4.044200 0.040864 -3.179612 -0.795068
 11 17.182070 0.000091 0.000546 0.000004 -0.000009 -0.888022
 12 16.782913 0.000650 -0.000234 -0.045484 -0.062270 0.116442
 13 5.168527 5.004116 -0.000135 -0.005267 -0.003719 1.557543
 14 17.182070 0.000099 0.000206 -0.000001 -0.000007 -0.575382
 15 16.782906 0.000656 -0.000113 0.121191 -0.058416 -0.409928
 16 5.168479 5.004167 -0.000064 0.006261 -0.003021 1.567039
 17 -2.408325 0.777993 2.965464 0.545604 -1.300562 2.282865
 18 5.760273 0.000016 0.000006 -0.424598 0.541182 -0.549949
time 10
  0 10.337988 -10.337988 -11.822737 -0.032224 -0.520317 -1.544711
  1 0.000000 0.000000 0.000000 1.441314 -1.375800 -3.014779
  2 4.406862 0.847580 0.105478 -0.004099 -0.044895 0.255640
  3 5.037136 -0.005101 -0.000238 -0.052740 -0.040498 0.282191
  4 6.388059 -0.005253 -0.000001 -0.132610 0.095600 0.067586
  5 6.146608 1.394838 0.000001 0.058419 -0.021610 0.351172
  6 -2.525512 0.488935 -2.934200 1.227340 1.251609 3.999648
  7 5.760270 -0.000012 -0.000009 0.935103 -0.474545 -1.571669
  8 10.965153 0.000065 -0.000006 0.000013 0.000002 -0.175821
  9 0.000007 -0.000004 -4.044200 0.151825 2.888976 -0.549415
 10 -0.000007 0.000007 4.044200 0.047957 -3.157104 -0.850218
 11 17.182070 0.000091 0.000546 0.000004 -0.000009 -1.023896
 12 16.782913 0.000650 -0.000234 -0.019341 -0.062307 0.143375
 13 5.168527 5.004116 -0.000135 0.000010 0.000000 1.570793
 14 17.182070 0.000099 0.000206 -0.000001 -0.000007 -0.458130
 15 16.782906 0.000656 -0.000113 0.145165 -0.064132 -0.455390
 16 5.168479 5.004167 -0.000064 0.000011 -0.000001 1.570802
 17 -2.396605 0.840495 2.961558 0.596342 -1.254511 2.216357
 18 5.760273 0.000016 0.000006 -0.418829 0.539237 -0.546043
time 11
  0 10.677842 -10.677842 -18.174494 -0.036049 -0.601898 -1.537856
  1 0.000000 0.000000 0.000000 1.441406 -1.387717 -3.014779
  2 4.422487 0.792891 0.101572 -0.002344 -0.028641 0.251864
  3 5.037136 -0.005101 -0.000238 -0.045666 -0.028002 0.324374
  4 6.388059 -0.005253 -0.000001 -0.119163 0.054775 0.092798
  5 6.146608 1.394838 0.000001 0.057964 -0.005721 0.377055
  6 -2.459103 0.555344 -2.973264 1.035422 1.288947 3.777597
  7 5.760270 -0.000012 -0.000009 0.879898 -0.538597 -1.400752
  8 10.965153 0.000065 -0.000006 0.000013 0.000002 -0.241136
  9 0.000007 -0.000004 -4.044200 0.139587 2.886014 -0.649828
 10 -0.000007 0.000007 4.044200 -0.020476 -3.123572 -0.941880
 11 17.182070 0.000091 0.000546 0.000004 -0.000009 -1.117466
 12 16.782913 0.000650 -0.000234 -0.015883 0.006908 0.158760
 13 5.168527 5.004116 -0.000135 0.000010 0.000000 1.570793
 14 17.182070 0.000099 0.000206 -0.000001 -0.000007 -0.412011
 15 16.782906 0.000656 -0.000113 0.163185 -0.056031 -0.412487
 16 5.168479 5.004167 -0.000064 0.000011 -0.000001 1.570802
 17 -2.427856 0.891277 2.922494 0.609627 -1.206920 2.182772
 18 5.760273 0.000016 0.000006 -0.459212 0.478497 -0.599739
time 12
  0 10.970819 -10.970819 -24.698130 -0.039587 -0.687728 -1.532786
  1 0.000000 0.000000 0.000000 1.441406 -1.400576 -3.014779
  2 4.422487 0.742109 0.093759 -0.009721 -0.021960 0.249585
  3 5.037136 -0.005101 -0.000238 -0.038727 -0.007547 0.378402
  4 6.388059 -0.005253 -0.000001 -0.097579 0.009383 0.132912
  5 6.146608 1.394838 0.000001 0.058021 0.016619 0.402779
  6 -2.380976 0.610033 -3.024047 0.725687 1.325889 3.444044
  7 5.760270 -0.000012 -0.000009 0.810942 -0.591514 -1.174426
  8 10.965153 0.000065 -0.000006 0.000013 0.000002 -0.338582
  9 0.000007 -0.000004 -4.044200 0.090256 2.877989 -0.843487
 10 -0.000007 0.000007 4.044200 -0.130793 -3.071022 -1.043387
 11 17.182070 0.000091 0.000546 0.000004 -0.000009 -1.188092
 12 16.782913 0.000650 -0.000234 -0.031726 0.118338 0.186610
 13 5.168527 5.004116 -0.000135 0.000010 0.000000 1.570793
 14 17.182070 0.000099 0.000206 -0.000001 -0.000007 -0.442232
 15 16.782906 0.000656 -0.000113 0.184931 -0.034957 -0.272076
 16 5.168479 5.004167 -0.000064 0.000011 -0.000001 1.570802
 17 -2.478639 0.953779 2.863898 0.605106 -1.163509 2.164935
 18 5.760273 0.000016 0.000006 -0.507875 0.385077 -0.679296
time 13
  0 11.240358 -11.240359 -29.135765 -0.042838 -0.776572 -1.528561
  1 0.000000 0.000000 0.000000 1.441406 -1.414165 -3.014779
  2 4.434206 0.675700 0.082040 -0.019535 -0.020969 0.242033
  3 5.037136 -0.005101 -0.000238 -0.031534 0.014240 0.429317
  4 6.388059 -0.005253 -0.000001 -0.076606 -0.030814 0.175155
  5 6.146608 1.394838 0.000001 0.058438 0.037633 0.425248
  6 -2.298942 0.660816 -3.078736 0.331565 1.332639 3.036378
  7 5.760270 -0.000012 -0.000009 0.731980 -0.635499 -0.920726
  8 10.965153 0.000065 -0.000006 0.000013 0.000002 -0.449091
  9 0.000007 -0.000004 -4.044200 0.049368 2.875792 -1.055586
 10 -0.000007 0.000007 4.044200 -0.182933 -3.040154 -1.097582
 11 17.182070 0.000091 0.000546 0.000004 -0.000009 -1.182786
 12 16.782913 0.000650 -0.000234 -0.048991 0.168633 0.215139
 13 5.168527 5.004116 -0.000135 0.000010 0.000000 1.570793
 14 17.182070 0.000099 0.000206 -0.000001 -0.000007 -0.498562
 15 16.782906 0.000656 -0.000113 0.214613 -0.023813 -0.108821
 16 5.168479 5.004167 -0.000064 0.000011 -0.000001 1.570802
 17 -2.521609 1.008469 2.809209 0.594128 -1.129215 2.155258
 18 5.760273 0.000016 0.000006 -0.542625 0.289808 -0.758628
time 14
  0 11.502085 -11.502086 -30.991291 -0.045802 -0.866800 -1.525087
  1 0.000000 0.000000 0.000000 1.441406 -1.428427 -3.014687
  2 4.442019 0.613198 0.070321 -0.024864 -0.022280 0.222305
  3 5.037136 -0.005101 -0.000238 -0.025344 0.031403 0.462042
  4 6.388059 -0.005253 -0.000001 -0.063303 -0.055023 0.207686
  5 6.146608 1.394838 0.000001 0.059367 0.059103 0.447994
  6 -2.213002 0.711598 -3.133425 0.000876 1.311650 2.696339
  7 5.760270 -0.000012 -0.000009 0.635932 -0.675945 -0.657800
  8 10.965153 0.000065 -0.000006 0.000013 0.000002 -0.555390
  9 0.000007 -0.000004 -4.044200 0.063693 2.870060 -1.210361
 10 -0.000007 0.000007 4.044200 -0.150345 -3.050811 -1.099111
 11 17.182070 0.000091 0.000546 0.000004 -0.000009 -1.090506
 12 16.782913 0.000650 -0.000234 -0.072780 0.130199 0.242887
 13 5.168527 5.004116 -0.000135 0.000010 0.000000 1.570793
 14 17.182070 0.000099 0.000206 -0.000001 -0.000007 -0.531044
 15 16.782906 0.000656 -0.000113 0.241124 -0.034936 0.002612
 16 5.168479 5.004167 -0.000064 0.000011 -0.000001 1.570802
 17 -2.556767 1.063158 2.754520 0.565715 -1.102653 2.160476
 18 5.760273 0.000016 0.000006 -0.558304 0.226928 -0.818431
time 15
  0 11.744280 -11.744281 -31.635841 -0.049340 -0.957077 -1.521144
  1 0.000000 0.000000 0.000000 1.441497 -1.443131 -3.014595
  2 4.453738 0.558509 0.070321 -0.026359 -0.050169 0.161786
  3 5.037136 -0.005101 -0.000238 -0.031007 0.045493 0.442310
  4 6.388059 -0.005253 -0.000001 -0.060474 -0.014484 0.254573
  5 6.146608 1.394838 0.000001 0.060618 0.082808 0.466969
  6 -2.130968 0.746756 -3.184208 -0.201042 1.288815 2.489645
  7 5.760270 -0.000012 -0.000009 0.462216 -0.687472 -0.390796
  8 10.965153 0.000065 -0.000006 0.000013 0.000002 -0.639649
  9 0.000007 -0.000004 -4.044200 0.203243 2.843501 -1.284118
 10 -0.000007 0.000007 4.044200 -0.083542 -3.078647 -1.078465
 11 17.182070 0.000091 0.000546 0.000004 -0.000009 -0.953126
 12 16.782913 0.000650 -0.000234 -0.115943 0.069286 0.281299
 13 5.168527 5.004116 -0.000135 0.000010 0.000000 1.570793
 14 17.182070 0.000099 0.000206 -0.000001 -0.000007 -0.521108
 15 16.782906 0.000656 -0.000113 0.263975 -0.083582 0.025192
 16 5.168479 5.004167 -0.000064 0.000011 -0.000001 1.570802
 17 -2.607549 1.106128 2.692018 0.511286 -1.082095 2.193587
 18 5.760273 0.000016 0.000006 -0.587624 0.244338 -0.824088
time 16
  0 11.966943 -11.966944 -31.573339 -0.054121 -1.045625 -1.516637
  1 0.000000 0.000000 0.000000 1.441497 -1.458123 -3.014503
  2 4.457644 0.488195 0.062508 -0.024767 -0.084132 0.080205
  3 5.037136 -0.005101 -0.000238 -0.032180 0.054038 0.395444
  4 6.388059 -0.005253 -0.000001 -0.061181 0.039911 0.244035
  5 6.146608 1.394838 0.000001 0.060428 0.100399 0.466731
  6 -2.076279 0.746756 -3.227178 -0.259523 1.282434 2.437184
  7 5.760270 -0.000012 -0.000009 0.239965 -0.677243 -0.125984
  8 10.965153 0.000065 -0.000006 0.000013 0.000002 -0.683605
  9 0.000007 -0.000004 -4.044200 0.414702 2.802038 -1.290519
 10 -0.000007 0.000007 4.044200 -0.002553 -3.108689 -1.042527
 11 17.182070 0.000091 0.000546 0.000004 -0.000009 -0.797248
 12 16.782913 0.000650 -0.000234 -0.175341 0.016285 0.316927
 13 5.168527 5.004116 -0.000135 0.000010 0.000000 1.570793
 14 17.182070 0.000099 0.000206 -0.000001 -0.000007 -0.498288
 15 16.782906 0.000656 -0.000113 0.282939 -0.148388 0.011795
 16 5.168479 5.004167 -0.000064 0.000011 -0.000001 1.570802
 17 -2.658332 1.102221 2.641235 0.439606 -1.070999 2.261897
 18 5.760273 0.000016 0.000006 -0.571267 0.357454 -0.777754
time 17
  0 12.154449 -12.154449 -31.323332 -0.060910 -1.131208 -1.509220
  1 0.000000 0.000000 0.000000 1.441497 -1.473327 -3.014411
  2 4.465457 0.421786 0.050789 -0.020315 -0.091484 0.009367
  3 5.037136 -0.005101 -0.000238 -0.006178 0.053395 0.359063
  4 6.388059 -0.005253 -0.000001 -0.068312 0.042176 0.082400
  5 6.146608 1.394838 0.000001 0.057149 0.107047 0.435728
  6 -2.080185 0.680347 -3.234991 -0.137895 1.303344 2.580067
  7 5.760270 -0.000012 -0.000009 -0.031910 -0.667800 0.138777
  8 10.965153 0.000065 -0.000006 0.000013 0.000002 -0.682181
  9 0.000007 -0.000004 -4.044200 0.555770 2.772326 -1.224406
 10 -0.000007 0.000007 4.044200 0.069810 -3.128992 -1.000376
 11 17.182070 0.000091 0.000546 0.000004 -0.000009 -0.649973
 12 16.782913 0.000650 -0.000234 -0.234861 -0.017905 0.331157
 13 5.168527 5.004116 -0.000135 0.000010 0.000000 1.570793
 14 17.182070 0.000099 0.000206 -0.000001 -0.000007 -0.483554
 15 16.782906 0.000656 -0.000113 0.286453 -0.177891 0.001746
 16 5.168479 5.004167 -0.000064 0.000011 -0.000001 1.570802
 17 -2.705209 1.020188 2.629516 0.272907 -1.090205 2.450129
 18 5.760273 0.000016 0.000006 -0.381092 0.540258 -0.621290
time 18
  0 12.310703 -12.310704 -31.319426 -0.072480 -1.212146 -1.496920
  1 0.000000 0.000000 0.000000 1.441589 -1.488473 -3.014227
  2 4.473270 0.351472 0.039070 -0.015213 -0.090781 -0.060592
  3 5.037136 -0.005101 -0.000238 0.027936 0.050000 0.321624
  4 6.388059 -0.005253 -0.000001 -0.075275 0.028301 -0.127407
  5 6.146608 1.394838 0.000001 0.051955 0.107364 0.385590
  6 -2.119249 0.574875 -3.227178 0.191556 1.334353 2.939565
  7 5.760270 -0.000012 -0.000009 -0.297182 -0.613388 0.309541
  8 10.965153 0.000065 -0.000006 0.000013 0.000002 -0.648812
  9 0.000007 -0.000004 -4.044200 0.595424 2.756276 -1.106031
 10 -0.000007 0.000007 4.044200 0.110448 -3.131381 -0.963195
 11 17.182070 0.000091 0.000546 0.000004 -0.000009 -0.538405
 12 16.782913 0.000650 -0.000234 -0.275155 -0.043998 0.300692
 13 5.168527 5.004116 -0.000135 0.000010 0.000000 1.570793
 14 17.182070 0.000099 0.000206 -0.000001 -0.000007 -0.485953
 15 16.782906 0.000656 -0.000113 0.271245 -0.166542 -0.000512
 16 5.168479 5.004167 -0.000064 0.000011 -0.000001 1.570802
 17 -2.744272 0.883465 2.641235 -0.049238 -1.111266 2.804960
 18 5.760273 0.000016 0.000006 -0.023684 0.632852 -0.352674
time 19
  0 12.341954 -12.341955 -31.483494 -0.088544 -1.278656 -1.480020
  1 0.000000 0.000000 0.000000 1.441681 -1.503523 -3.014135
  2 4.484989 0.285063 0.031257 -0.010891 -0.088255 -0.125994
  3 5.037136 -0.005101 -0.000238 0.049244 0.047044 0.284215
  4 6.388059 -0.005253 -0.000001 -0.075551 0.018538 -0.245655
  5 6.146608 1.394838 0.000001 0.046762 0.107423 0.335293
  6 -2.162219 0.469404 -3.227178 0.691780 1.335592 3.469034
  7 5.760270 -0.000012 -0.000009 -0.416578 -0.590254 0.272737
  8 10.965153 0.000065 -0.000006 0.000013 0.000002 -0.593341
  9 0.000007 -0.000004 -4.044200 0.609749 2.742710 -0.955460
 10 -0.000007 0.000007 4.044200 0.089362 -3.107035 -0.941880
 11 17.182070 0.000091 0.000546 0.000004 -0.000009 -0.493807
 12 16.782913 0.000650 -0.000234 -0.262721 -0.100055 0.114744
 13 5.168527 5.004116 -0.000135 0.000010 0.000000 1.570793
 14 17.182070 0.000099 0.000206 -0.000001 -0.000007 -0.496369
 15 16.782906 0.000656 -0.000113 0.244702 -0.146578 -0.003146
 16 5.168479 5.004167 -0.000064 0.000011 -0.000001 1.570802
 17 -2.775523 0.742835 2.641235 -0.409390 -1.076154 3.195844
 18 5.760273 0.000016 0.000006 0.222891 0.577461 -0.228086
time 20
  0 12.314610 -12.314610 -31.479588 -0.107477 -1.330984 -1.460397
  1 0.000000 0.000000 0.000000 1.441773 -1.518246 -3.014043
  2 4.484989 0.222561 0.027351 -0.006828 -0.086050 -0.191624
  3 5.037136 -0.005101 -0.000238 0.051114 0.044732 0.246807
  4 6.388059 -0.005253 -0.000001 -0.072746 0.020308 -0.219388
  5 6.146608 1.394838 0.000001 0.041663 0.109501 0.288292
  6 -2.170032 0.375651 -3.227178 1.140668 1.285150 3.949095
  7 5.760270 -0.000012 -0.000009 -0.351775 -0.643644 0.053700
  8 10.965153 0.000065 -0.000006 0.000013 0.000002 -0.525364
  9 0.000007 -0.000004 -4.044200 0.606714 2.730099 -0.789030
 10 -0.000007 0.000007 4.044200 0.017958 -3.062938 -0.915978
 11 17.182070 0.000091 0.000546 0.000004 -0.000009 -0.498109
 12 16.782913 0.000650 -0.000234 -0.191551 -0.142789 -0.174691
 13 5.168527 5.004116 -0.000135 0.000010 0.000000 1.570793
 14 17.182070 0.000099 0.000206 -0.000001 -0.000007 -0.508910
 15 16.782906 0.000656 -0.000113 0.207587 -0.123325 -0.002732
 16 5.168479 5.004167 -0.000064 0.000011 -0.000001 1.570802
 17 -2.806774 0.617832 2.641235 -0.772217 -0.931651 3.572876
 18 5.760273 0.000016 0.000006 0.227574 0.518618 -0.436855
time 21
  0 12.314610 -12.314610 -31.448336 -0.137119 -1.383312 -1.430352
  1 0.000000 0.000000 0.000000 1.441865 -1.532431 -3.013859
  2 4.484989 0.160060 0.019538 -0.002799 -0.082550 -0.257807
  3 5.037136 -0.005101 -0.000238 0.044193 0.041748 0.209187
  4 6.388059 -0.005253 -0.000001 -0.068492 0.025218 -0.124029
  5 6.146608 1.394838 0.000001 0.036488 0.111321 0.241131
  6 -2.173938 0.270179 -3.227178 1.406971 1.208075 4.254320
  7 5.760270 -0.000012 -0.000009 -0.158522 -0.702973 -0.231348
  8 10.965153 0.000065 -0.000006 0.000013 0.000002 -0.454601
  9 0.000007 -0.000004 -4.044200 0.596088 2.717870 -0.620975
 10 -0.000007 0.000007 4.044200 -0.066769 -3.019208 -0.855093
 11 17.182070 0.000091 0.000546 0.000004 -0.000009 -0.504204
 12 16.782913 0.000650 -0.000234 -0.132742 -0.127130 -0.324231
 13 5.168527 5.004116 -0.000135 0.000010 0.000000 1.570793
 14 17.182070 0.000099 0.000206 -0.000001 -0.000007 -0.517476
 15 16.782906 0.000656 -0.000113 0.164975 -0.100873 0.002461
 16 5.168479 5.004167 -0.000064 0.000011 -0.000001 1.570802
 17 -2.830213 0.481109 2.641235 -0.963455 -0.793404 3.782929
 18 5.760273 0.000016 0.000006 0.078055 0.518083 -0.625331
time 22
  0 12.314610 -12.314610 -31.378021 -0.137119 -1.383312 -1.430352
  1 0.000000 0.000000 0.000000 1.441957 -1.546078 -3.013767
  2 4.484989 0.097558 0.007819 -0.000524 -0.078778 -0.313735
  3 5.037136 -0.005101 -0.000238 0.032918 0.037709 0.172292
  4 6.388059 -0.005253 -0.000001 -0.059288 0.030414 -0.012519
  5 6.146608 1.394838 0.000001 0.032299 0.112607 0.203736
  6 -2.185658 0.184239 -3.227178 1.543457 1.142735 4.426867
  7 5.760270 -0.000012 -0.000009 0.091638 -0.714816 -0.474038
  8 10.965153 0.000065 -0.000006 0.000013 0.000002 -0.391143
  9 0.000007 -0.000004 -4.044200 0.586222 2.708221 -0.466200
 10 -0.000007 0.000007 4.044200 -0.169994 -2.982001 -0.727301
 11 17.182070 0.000091 0.000546 0.000004 -0.000009 -0.494094
 12 16.782913 0.000650 -0.000234 -0.103926 -0.097165 -0.222816
 13 5.168527 5.004116 -0.000135 0.000010 0.000000 1.570793
 14 17.182070 0.000099 0.000206 -0.000001 -0.000007 -0.515763
 15 16.782906 0.000656 -0.000113 0.125322 -0.081012 0.010967
 16 5.168479 5.004167 -0.000064 0.000011 -0.000001 1.570802
 17 -2.849744 0.375637 2.641235 -0.982828 -0.821161 3.852282
 18 5.760273 0.000016 0.000006 -0.211008 0.593753 -0.505232
time 23
  0 12.314610 -12.314610 -31.299894 -0.137119 -1.383312 -1.430352
  1 0.000000 0.000000 0.000000 1.441957 -1.558898 -3.012938
  2 4.484989 0.042868 0.000006 -0.001434 -0.075757 -0.348926
  3 5.037136 -0.005101 -0.000238 0.021660 0.032881 0.137119
  4 6.388059 -0.005253 -0.000001 -0.043001 0.032964 0.062167
  5 6.146608 1.394838 0.000001 0.029740 0.113300 0.181029
  6 -2.185658 0.133456 -3.227178 -1.517703 2.027810 1.392934
  7 5.760270 -0.000012 -0.000009 0.340982 -0.683223 -0.558910
  8 10.965153 0.000065 -0.000006 0.000013 0.000002 -0.326076
  9 0.000007 -0.000004 -4.044200 0.584704 2.706406 -0.339418
 10 -0.000007 0.000007 4.044200 -0.297850 -2.960595 -0.557931
 11 17.182070 0.000091 0.000546 0.000004 -0.000009 -0.483984
 12 16.782913 0.000650 -0.000234 -0.076704 -0.084804 -0.001241
 13 5.168527 5.004116 -0.000135 0.000010 0.000000 1.570793
 14 17.182070 0.000099 0.000206 -0.000001 -0.000007 -0.497877
 15 16.782906 0.000656 -0.000113 0.098600 -0.063330 0.018079
 16 5.168479 5.004167 -0.000064 0.000011 -0.000001 1.570802
 17 -2.853651 0.309228 2.641235 -0.953215 -0.912477 3.868695
 18 5.760273 0.000016 0.000006 -0.505161 0.754770 -0.285688
time 24
  0 12.314610 -12.314610 -31.323332 -0.137119 -1.383312 -1.430352
  1 0.000000 0.000000 0.000000 -1.570796 -1.570796 0.000000
  2 4.484989 -0.004008 0.000006 -0.009266 -0.074175 -0.344922
  3 5.037136 -0.005101 -0.000238 0.006899 0.024819 0.107084
  4 6.388059 -0.005253 -0.000001 -0.005825 0.032260 0.072213
  5 6.146608 1.394838 0.000001 0.028261 0.113676 0.168008
  6 -2.185658 0.110018 -3.227178 -1.449508 2.028021 1.482022
  7 5.760270 -0.000012 -0.000009 0.586581 -0.648876 -0.498454
  8 10.965153 0.000065 -0.000006 0.000013 0.000002 -0.251165
  9 0.000007 -0.000004 -4.044200 0.578917 2.755703 -0.292699
 10 -0.000007 0.000007 4.044200 -0.409318 -2.961881 -0.405862
 11 17.182070 0.000091 0.000546 0.000004 -0.000009 -0.477172
 12 16.782913 0.000650 -0.000234 -0.061989 -0.098591 0.227400
 13 5.168527 5.004116 -0.000135 0.000010 0.000000 1.570793
 14 17.182070 0.000099 0.000206 -0.000001 -0.000007 -0.346087
 15 16.782906 0.000656 -0.000113 0.117824 -0.050274 -0.052408
 16 5.168479 5.004167 -0.000064 -0.018751 0.005056 1.575313
 17 -2.861464 0.270165 2.641235 -0.933381 -0.979557 3.876380
 18 5.760273 0.000016 0.000006 -0.676942 0.889333 -0.137529
time 25
  0 12.314610 -12.314610 -31.420992 -0.137119 -1.383312 -1.430352
  1 0.000000 0.000000 0.000000 -1.570796 -1.570796 0.000000
  2 4.484989 -0.004008 0.000006 -0.020737 -0.074223 -0.299932
  3 5.037136 -0.005101 -0.000238 -0.010174 0.015279 0.079617
  4 6.388059 -0.005253 -0.000001 0.041694 0.031175 0.047969
  5 6.146608 1.394838 0.000001 0.027332 0.113894 0.159870
  6 -2.193470 0.090486 -3.227178 -1.387980 2.017210 1.559663
  7 5.760270 -0.000012 -0.000009 0.812100 -0.634319 -0.381621
  8 10.965153 0.000065 -0.000006 0.000013 0.000002 -0.178112
  9 0.000007 -0.000004 -4.044200 0.568197 2.780351 -0.262317
 10 -0.000007 0.000007 4.044200 -0.462703 -2.969598 -0.320890
 11 17.182070 0.000091 0.000546 0.000004 -0.000009 -0.477387
 12 16.782913 0.000650 -0.000234 -0.066845 -0.106263 0.351196
 13 5.168527 5.004116 -0.000135 0.000010 0.000000 1.570793
 14 17.182070 0.000099 0.000206 -0.000001 -0.000007 -0.258645
 15 16.782906 0.000656 -0.000113 0.149963 0.005464 -0.037957
 16 5.168479 5.004167 -0.000064 -0.056188 0.015639 1.584094
 17 -2.861464 0.258446 2.641235 -0.956444 -0.982417 3.910251
 18 5.760273 0.000016 0.000006 -0.752890 0.875959 -0.200160
time 26
  0 12.314610 -12.314610 -31.510838 -0.137119 -1.383312 -1.430352
  1 0.000000 0.000000 0.000000 -1.570796 -1.570796 0.000000
  2 4.484989 -0.004008 0.000006 -0.028081 -0.073631 -0.256211
  3 5.037136 -0.005101 -0.000238 -0.018949 0.010655 0.046257
  4 6.388059 -0.005253 -0.000001 0.065016 0.031232 0.023865
  5 6.146608 1.394838 0.000001 0.026972 0.113993 0.156576
  6 -2.193470 0.090486 -3.227178 1.800712 1.128918 4.756987
  7 5.760270 -0.000012 -0.000009 0.982276 -0.630031 -0.298227
  8 10.965153 0.000065 -0.000006 0.000013 0.000002 -0.117873
  9 0.000007 -0.000004 -4.044200 0.562695 2.787134 -0.256203
 10 -0.000007 0.000007 4.044200 -0.424748 -2.962708 -0.333889
 11 17.182070 0.000091 0.000546 0.000004 -0.000009 -0.505853
 12 16.782913 0.000650 -0.000234 -0.133846 -0.036011 0.346644
 13 5.168527 5.004116 -0.000135 -0.022534 0.000623 1.552288
 14 17.182070 0.000099 0.000206 -0.000001 -0.000007 -0.231714
 15 16.782906 0.000656 -0.000113 0.168130 0.036325 -0.015640
 16 5.168479 5.004167 -0.000064 -0.074876 0.021008 1.588362
 17 -2.861464 0.238914 2.641235 -0.989286 -0.959691 3.944975
 18 5.760273 0.000016 0.000006 -0.676399 0.849601 -0.218972
time 27
  0 12.314610 -12.314610 -31.616310 -0.137119 -1.383312 -1.430352
  1 0.000000 0.000000 0.000000 -1.570796 -1.570796 0.000000
  2 4.484989 -0.004008 0.000006 -0.022557 -0.072529 -0.220499
  3 5.037136 -0.005101 -0.000238 -0.003678 0.022375 -0.011820
  4 6.388059 -0.005253 -0.000001 0.014453 0.031080 0.009579
  5 6.146608 1.394838 0.000001 0.027162 0.113953 0.158203
  6 -2.193470 0.090486 -3.227178 1.816237 1.127072 4.772343
  7 5.760270 -0.000012 -0.000009 1.070496 -0.610044 -0.306281
  8 10.965153 0.000065 -0.000006 0.000013 0.000002 -0.078375
  9 0.000007 -0.000004 -4.044200 0.573889 2.783122 -0.263177
 10 -0.000007 0.000007 4.044200 -0.336476 -2.950673 -0.388466
 11 17.182070 0.000091 0.000546 0.000004 -0.000009 -0.556259
 12 16.782913 0.000650 -0.000234 -0.255143 0.079367 0.281605
 13 5.168527 5.004116 -0.000135 -0.067622 0.000623 1.515147
 14 17.182070 0.000099 0.000206 -0.000001 -0.000007 -0.247886
 15 16.782906 0.000656 -0.000113 0.152614 0.012619 -0.033215
 16 5.168479 5.004167 -0.000064 -0.056188 0.015639 1.584094
 17 -2.861464 0.246727 2.641235 -1.010596 -0.941490 3.963286
 18 5.760273 0.000016 0.000006 -0.588235 0.826015 -0.180405
time 28
  0 12.314610 -12.314610 -31.678812 -0.137119 -1.383312 -1.430352
  1 0.000000 0.000000 0.000000 -1.570796 -1.570796 0.000000
  2 4.484989 -0.004008 0.000006 -0.014628 -0.071889 -0.196312
  3 5.037136 -0.005101 -0.000238 0.014229 0.037036 -0.058868
  4 6.388059 -0.005253 -0.000001 -0.044894 0.030281 -0.000432
  5 6.146608 1.394838 0.000001 0.027332 0.113894 0.159870
  6 -2.193470 0.090486 -3.227178 1.808427 1.127995 4.762328
  7 5.760270 -0.000012 -0.000009 1.119711 -0.587225 -0.354706
  8 10.965153 0.000065 -0.000006 0.000013 0.000002 -0.055221
  9 0.000007 -0.000004 -4.044200 0.601591 2.783122 -0.259547
 10 -0.000007 0.000007 4.044200 -0.273506 -2.945161 -0.429566
 11 17.182070 0.000091 0.000546 0.000004 -0.000009 -0.590962
 12 16.782913 0.000650 -0.000234 -0.342597 0.148026 0.220403
 13 5.168527 5.004116 -0.000135 -0.090192 0.000000 1.496610
 14 17.182070 0.000099 0.000206 -0.000001 -0.000007 -0.250216
 15 16.782906 0.000656 -0.000113 0.123159 -0.035985 -0.078865
 16 5.168479 5.004167 -0.000064 -0.018751 0.005056 1.575313
 17 -2.861464 0.258446 2.641235 -1.016408 -0.938284 3.967460
 18 5.760273 0.000016 0.000006 -0.572014 0.805104 -0.155308
time 29
  0 12.314610 -12.314610 -31.729595 -0.137119 -1.383312 -1.430352
  1 0.000000 0.000000 0.000000 -1.570796 -1.570796 0.000000
  2 4.484989 -0.004008 0.000006 -0.013393 -0.071762 -0.190712
  3 5.037136 -0.005101 -0.000238 0.017239 0.039714 -0.068658
  4 6.388059 -0.005253 -0.000001 -0.055309 0.029976 -0.002719
  5 6.146608 1.394838 0.000001 0.027332 0.113894 0.159870
  6 -2.193470 0.090486 -3.227178 1.800712 1.128918 4.753648
  7 5.760270 -0.000012 -0.000009 1.158988 -0.579042 -0.384272
  8 10.965153 0.000065 -0.000006 0.000013 0.000002 -0.040858
  9 0.000007 -0.000004 -4.044200 0.622841 2.781402 -0.260215
 10 -0.000007 0.000007 4.044200 -0.258171 -2.944150 -0.438168
 11 17.182070 0.000091 0.000546 0.000004 -0.000009 -0.600069
 12 16.782913 0.000650 -0.000234 -0.366165 0.164686 0.204814
 13 5.168527 5.004116 -0.000135 -0.090192 0.000000 1.496610
 14 17.182070 0.000099 0.000206 -0.000001 -0.000007 -0.259194
 15 16.782906 0.000656 -0.000113 0.101609 -0.076386 -0.110063
 16 5.168479 5.004167 -0.000064 0.000011 -0.000001 1.570802
 17 -2.861464 0.258446 2.641235 -1.015670 -0.938630 3.966701
 18 5.760273 0.000016 0.000006 -0.561358 0.807341 -0.137933
time 30
  0 12.314610 -12.314610 -31.729595 -0.137119 -1.383312 -1.430352
  1 0.000000 0.000000 0.000000 -1.570796 -1.570796 0.000000
  2 4.484989 -0.004008 0.000006 -0.013523 -0.071762 -0.191331
  3 5.037136 -0.005101 -0.000238 0.016899 0.039392 -0.067570
  4 6.388059 -0.005253 -0.000001 -0.054074 0.030014 -0.002473
  5 6.146608 1.394838 0.000001 0.027332 0.113894 0.159870
  6 -2.193470 0.090486 -3.227178 1.800712 1.128918 4.753648
  7 5.760270 -0.000012 -0.000009 1.175802 -0.582150 -0.382742
  8 10.965153 0.000065 -0.000006 0.000013 0.000002 -0.046987
  9 0.000007 -0.000004 -4.044200 0.626446 2.782071 -0.258687
 10 -0.000007 0.000007 4.044200 -0.256158 -2.943966 -0.439124
 11 17.182070 0.000091 0.000546 0.000004 -0.000009 -0.601072
 12 16.782913 0.000650 -0.000234 -0.369108 0.166724 0.202878
 13 5.168527 5.004116 -0.000135 -0.090192 0.000000 1.496610
 14 17.182070 0.000099 0.000206 -0.000001 -0.000007 -0.258029
 15 16.782906 0.000656 -0.000113 0.098665 -0.082225 -0.115445
 16 5.168479 5.004167 -0.000064 0.000011 -0.000001 1.570802
 17 -2.861464 0.258446 2.641235 -1.012349 -0.940422 3.963475
 18 5.760273 0.000016 0.000006 -0.562104 0.808994 -0.133893
time 31
  0 12.314610 -12.314610 -31.729595 -0.137119 -1.383312 -1.430352
  1 0.000000 0.000000 0.000000 -1.570796 -1.570796 0.000000
  2 4.484989 -0.004008 0.000006 -0.014238 -0.071825 -0.194456
  3 5.037136 -0.005101 -0.000238 0.015164 0.037914 -0.062131
  4 6.388059 -0.005253 -0.000001 -0.048430 0.030128 -0.001206
  5 6.146608 1.394838 0.000001 0.027332 0.113894 0.159870
  6 -2.193470 0.090486 -3.227178 1.800712 1.128918 4.753648
  7 5.760270 -0.000012 -0.000009 1.188939 -0.565311 -0.389522
  8 10.965153 0.000065 -0.000006 0.000013 0.000002 -0.002721
  9 0.000007 -0.000004 -4.044200 0.622841 2.781402 -0.260215
 10 -0.000007 0.000007 4.044200 -0.261909 -2.944426 -0.435779
 11 17.182070 0.000091 0.000546 0.000004 -0.000009 -0.597702
 12 16.782913 0.000650 -0.000234 -0.360230 0.160609 0.208754
 13 5.168527 5.004116 -0.000135 -0.090192 0.000000 1.496610
 14 17.182070 0.000099 0.000206 -0.000001 -0.000007 -0.259194
 15 16.782906 0.000656 -0.000113 0.101609 -0.076386 -0.110063
 16 5.168479 5.004167 -0.000064 0.000011 -0.000001 1.570802
 17 -2.861464 0.258446 2.641235 -1.010596 -0.941490 3.961578
 18 5.760273 0.000016 0.000006 -0.563598 0.812447 -0.133623
time 32
  0 12.314610 -12.314610 -31.729595 -0.137119 -1.383312 -1.430352
  1 0.000000 0.000000 0.000000 -1.570796 -1.570796 0.000000
  2 4.484989 -0.004008 0.000006 -0.014628 -0.071889 -0.196312
  3 5.037136 -0.005101 -0.000238 0.014229 0.037036 -0.058868
  4 6.388059 -0.005253 -0.000001 -0.044894 0.030281 -0.000432
  5 6.146608 1.394838 0.000001 0.027332 0.113894 0.159870
  6 -2.193470 0.090486 -3.227178 1.800712 1.128918 4.753648
  7 5.760270 -0.000012 -0.000009 1.187306 -0.566530 -0.387891
  8 10.965153 0.000065 -0.000006 0.000013 0.000002 -0.002721
  9 0.000007 -0.000004 -4.044200 0.622841 2.781402 -0.260215
 10 -0.000007 0.000007 4.044200 -0.269576 -2.944885 -0.431382
 11 17.182070 0.000091 0.000546 0.000004 -0.000009 -0.593113
 12 16.782913 0.000650 -0.000234 -0.348483 0.152270 0.216565
 13 5.168527 5.004116 -0.000135 -0.090192 0.000000 1.496610
 14 17.182070 0.000099 0.000206 -0.000001 -0.000007 -0.259194
 15 16.782906 0.000656 -0.000113 0.101609 -0.076386 -0.110063
 16 5.168479 5.004167 -0.000064 0.000011 -0.000001 1.570802
 17 -2.861464 0.258446 2.641235 -1.010596 -0.941490 3.961578
 18 5.760273 0.000016 0.000006 -0.564548 0.814052 -0.135329
time 33
  0 12.314610 -12.314610 -31.729595 -0.137119 -1.383312 -1.430352
  1 0.000000 0.000000 0.000000 -1.570796 -1.570796 0.000000
  2 4.484989 -0.004008 0.000006 -0.014628 -0.071889 -0.196312
  3 5.037136 -0.005101 -0.000238 0.014229 0.037036 -0.058868
  4 6.388059 -0.005253 -0.000001 -0.044894 0.030281 -0.000432
  5 6.146608 1.394838 0.000001 0.027332 0.113894 0.159870
  6 -2.193470 0.090486 -3.227178 1.800712 1.128918 4.753648
  7 5.760270 -0.000012 -0.000009 1.179614 -0.566530 -0.387891
  8 10.965153 0.000065 -0.000006 0.000013 0.000002 -0.002721
  9 0.000007 -0.000004 -4.044200 0.622841 2.781402 -0.260215
 10 -0.000007 0.000007 4.044200 -0.273506 -2.945161 -0.429566
 11 17.182070 0.000091 0.000546 0.000004 -0.000009 -0.590962
 12 16.782913 0.000650 -0.000234 -0.342597 0.148026 0.220403
 13 5.168527 5.004116 -0.000135 -0.090192 0.000000 1.496610
 14 17.182070 0.000099 0.000206 -0.000001 -0.000007 -0.259194
 15 16.782906 0.000656 -0.000113 0.101609 -0.076386 -0.110063
 16 5.168479 5.004167 -0.000064 0.000011 -0.000001 1.570802
 17 -2.861464 0.258446 2.641235 -1.010596 -0.941490 3.961578
 18 5.760273 0.000016 0.000006 -0.564548 0.814052 -0.135329
time 34
  0 12.314610 -12.314610 -31.729595 -0.137119 -1.383312 -1.430352
  1 0.000000 0.000000 0.000000 -1.570796 -1.570796 0.000000
  2 4.484989 -0.004008 0.000006 -0.014628 -0.071889 -0.196312
  3 5.037136 -0.005101 -0.000238 0.014229 0.037036 -0.058868
  4 6.388059 -0.005253 -0.000001 -0.044894 0.030281 -0.000432
  5 6.146608 1.394838 0.000001 0.027332 0.113894 0.159870
  6 -2.193470 0.090486 -3.227178 1.800712 1.128918 4.753648
  7 5.760270 -0.000012 -0.000009 1.171922 -0.566530 -0.387891
  8 10.965153 0.000065 -0.000006 0.000013 0.000002 -0.002721
  9 0.000007 -0.000004 -4.044200 0.622841 2.781402 -0.260215
 10 -0.000007 0.000007 4.044200 -0.273506 -2.945161 -0.429566
 11 17.182070 0.000091 0.000546 0.000004 -0.000009 -0.590962
 12 16.782913 0.000650 -0.000234 -0.342597 0.148026 0.220403
 13 5.168527 5.004116 -0.000135 -0.090192 0.000000 1.496610
 14 17.182070 0.000099 0.000206 -0.000001 -0.000007 -0.259194
 15 16.782906 0.000656 -0.000113 0.101609 -0.076386 -0.110063
 16 5.168479 5.004167 -0.000064 0.000011 -0.000001 1.570802
 17 -2.861464 0.258446 2.641235 -1.010596 -0.941490 3.961578
 18 5.760273 0.000016 0.000006 -0.564548 0.814052 -0.135329
time 35
  0 12.314610 -12.314610 -31.729595 -0.137119 -1.383312 -1.430352
  1 0.000000 0.000000 0.000000 -1.570796 -1.570796 0.000000
  2 4.484989 -0.004008 0.000006 -0.014628 -0.071889 -0.196312
  3 5.037136 -0.005101 -0.000238 0.014229 0.037036 -0.058868
  4 6.388059 -0.005253 -0.000001 -0.044894 0.030281 -0.000432
  5 6.146608 1.394838 0.000001 0.027332 0.113894 0.159870
  6 -2.193470 0.090486 -3.227178 1.800712 1.128918 4.753648
  7 5.760270 -0.000012 -0.000009 1.168722 -0.566727 -0.387738
  8 10.965153 0.000065 -0.000006 0.000013 0.000002 -0.003216
  9 0.000007 -0.000004 -4.044200 0.622841 2.781402 -0.260215
 10 -0.000007 0.000007 4.044200 -0.273506 -2.945161 -0.429566
 11 17.182070 0.000091 0.000546 0.000004 -0.000009 -0.590962
 12 16.782913 0.000650 -0.000234 -0.342597 0.148026 0.220403
 13 5.168527 5.004116 -0.000135 -0.090192 0.000000 1.496610
 14 17.182070 0.000099 0.000206 -0.000001 -0.000007 -0.259194
 15 16.782906 0.000656 -0.000113 0.101609 -0.076386 -0.110063
 16 5.168479 5.004167 -0.000064 0.000011 -0.000001 1.570802
 17 -2.861464 0.258446 2.641235 -1.010596 -0.941490 3.961578
 18 5.760273 0.000016 0.000006 -0.564548 0.814052 -0.135329
time 36
  0 12.314610 -12.314610 -31.729595 -0.137119 -1.383312 -1.430352
  1 0.000000 0.000000 0.000000 -1.570796 -1.570796 0.000000
  2 4.484989 -0.004008 0.000006 -0.014628 -0.071889 -0.196312
  3 5.037136 -0.005101 -0.000238 0.014229 0.037036 -0.058868
  4 6.388059 -0.005253 -0.000001 -0.044894 0.030281 -0.000432
  5 6.146608 1.394838 0.000001 0.027332 0.113894 0.159870
  6 -2.193470 0.090486 -3.227178 1.800712 1.128918 4.753648
  7 5.760270 -0.000012 -0.000009 1.168722 -0.566727 -0.387738
  8 10.965153 0.000065 -0.000006 0.000013 0.000002 -0.003216
  9 0.000007 -0.000004 -4.044200 0.622841 2.781402 -0.260215
 10 -0.000007 0.000007 4.044200 -0.273506 -2.945161 -0.429566
 11 17.182070 0.000091 0.000546 0.000004 -0.000009 -0.590962
 12 16.782913 0.000650 -0.000234 -0.342597 0.148026 0.220403
 13 5.168527 5.004116 -0.000135 -0.090192 0.000000 1.496610
 14 17.182070 0.000099 0.000206 -0.000001 -0.000007 -0.259194
 15 16.782906 0.000656 -0.000113 0.101609 -0.076386 -0.110063
 16 5.168479 5.004167 -0.000064 0.000011 -0.000001 1.570802
 17 -2.861464 0.258446 2.641235 -1.010596 -0.941490 3.961578
 18 5.760273 0.000016 0.000006 -0.564548 0.814052 -0.135329
end
