version 1
nodes
  0 "Bip01"  -1
  1 "Bip01 Pelvis"   0
  2 "Bip01 Spine"   1
  3 "Bip01 Spine1"   2
  4 "Bip01 Spine2"   3
  5 "Bip01 Neck"   4
  6 "Bip01 R Clavicle"   5
  7 "Bip01 R UpperArm"   6
  8 "Bip01 R Forearm"   7
  9 "Bip01 R Thigh"   1
 10 "Bip01 L Thigh"   1
 11 "Bip01 L Calf"  10
 12 "Bip01 L Foot"  11
 13 "Bip01 L Toe0"  12
 14 "Bip01 R Calf"   9
 15 "Bip01 R Foot"  14
 16 "Bip01 R Toe0"  15
 17 "Bip01 L Clavicle"   5
 18 "Bip01 L UpperArm"  17
end
skeleton
time 0
  0 3.177613 -3.177613 8.443506 -0.281409 0.436266 -2.443613
  1 0.000000 0.000000 0.000000 -1.570796 -1.570796 0.000000
  2 4.484989 -0.004008 0.000006 0.640415 -0.206318 0.006828
  3 5.037136 -0.005101 -0.000238 -0.102686 0.016186 0.310897
  4 6.388059 -0.005253 -0.000001 -0.159527 0.052320 -0.010883
  5 6.146608 1.394838 0.000001 0.618091 -0.156203 0.214097
  6 -2.955212 -1.202523 -2.234960 1.136477 1.009470 3.946424
  7 5.760270 -0.000012 -0.000009 0.683786 -0.983650 -0.494682
  8 10.965153 0.000065 -0.000006 0.000013 0.000002 -1.100939
  9 0.000007 -0.000004 -4.044200 0.206753 3.263382 -1.334754
 10 -0.000007 0.000007 4.044200 -0.498357 -2.349937 -1.047975
 11 17.182070 0.000091 0.000546 0.000004 -0.000009 -1.989284
 12 16.782913 0.000650 -0.000234 0.032945 0.086094 -0.096100
 13 5.168527 5.004116 -0.000135 0.000010 0.000000 2.033191
 14 17.182070 0.000099 0.000206 -0.000001 -0.000007 -1.636059
 15 16.782906 0.000656 -0.000113 0.214792 -0.032181 0.743581
 16 5.168479 5.004167 -0.000064 0.000011 -0.000001 1.483546
 17 -2.052845 2.164754 2.524044 1.003727 -1.080775 1.931449
 18 5.760273 0.000016 0.000006 -0.588574 0.605473 -0.436855
time 1
  0 3.177613 -3.177613 8.443506 -0.281409 0.436266 -2.443613
  1 0.000000 0.000000 0.000000 -1.570796 -1.570796 0.000000
  2 4.484989 -0.004008 0.000006 0.656372 -0.203058 -0.000107
  3 5.037136 -0.005101 -0.000238 -0.107431 0.006822 0.325582
  4 6.388059 -0.005253 -0.000001 -0.172027 0.050931 -0.008103
  5 6.146608 1.394838 0.000001 0.620972 -0.158953 0.212668
  6 -2.966931 -1.210335 -2.227147 1.136001 1.005093 3.945471
  7 5.760270 -0.000012 -0.000009 0.725309 -0.973263 -0.537399
  8 10.965153 0.000065 -0.000006 0.000013 0.000002 -1.112330
  9 0.000007 -0.000004 -4.044200 0.206753 3.263382 -1.334754
 10 -0.000007 0.000007 4.044200 -0.498357 -2.349937 -1.047975
 11 17.182070 0.000091 0.000546 0.000004 -0.000009 -1.989284
 12 16.782913 0.000650 -0.000234 0.032945 0.086094 -0.096100
 13 5.168527 5.004116 -0.000135 0.000010 0.000000 2.033191
 14 17.182070 0.000099 0.000206 -0.000001 -0.000007 -1.636059
 15 16.782906 0.000656 -0.000113 0.214792 -0.032181 0.743581
 16 5.168479 5.004167 -0.000064 0.000011 -0.000001 1.483546
 17 -2.045032 2.176473 2.524044 1.012860 -1.077663 1.923005
 18 5.760273 0.000016 0.000006 -0.600927 0.575808 -0.449875
time 2
  0 3.177613 -3.177613 8.443506 -0.281409 0.436266 -2.443613
  1 0.000000 0.000000 0.000000 -1.570796 -1.570796 0.000000
  2 4.484989 -0.004008 0.000006 0.672718 -0.199973 -0.005966
  3 5.037136 -0.005101 -0.000238 -0.111410 -0.005674 0.339240
  4 6.388059 -0.005253 -0.000001 -0.189668 0.046477 -0.001382
  5 6.146608 1.394838 0.000001 0.620915 -0.148070 0.220647
  6 -2.935680 -1.210335 -2.266211 1.158288 1.006965 3.963116
  7 5.760270 -0.000012 -0.000009 0.767854 -0.967912 -0.589291
  8 10.965153 0.000065 -0.000006 0.000013 0.000002 -1.125393
  9 0.000007 -0.000004 -4.044200 0.206753 3.263382 -1.334754
 10 -0.000007 0.000007 4.044200 -0.498357 -2.349937 -1.047975
 11 17.182070 0.000091 0.000546 0.000004 -0.000009 -1.989284
 12 16.782913 0.000650 -0.000234 0.032945 0.086094 -0.096100
 13 5.168527 5.004116 -0.000135 0.000010 0.000000 2.033191
 14 17.182070 0.000099 0.000206 -0.000001 -0.000007 -1.636059
 15 16.782906 0.000656 -0.000113 0.214792 -0.032181 0.743581
 16 5.168479 5.004167 -0.000064 0.000011 -0.000001 1.483546
 17 -2.076283 2.176473 2.492793 0.993118 -1.064083 1.941316
 18 5.760273 0.000016 0.000006 -0.612465 0.545267 -0.451895
time 3
  0 3.177613 -3.177613 8.443506 -0.281409 0.436266 -2.443613
  1 0.000000 0.000000 0.000000 -1.570796 -1.570796 0.000000
  2 4.484989 -0.004008 0.000006 0.688414 -0.197304 -0.010589
  3 5.037136 -0.005101 -0.000238 -0.114488 -0.019999 0.351206
  4 6.388059 -0.005253 -0.000001 -0.210509 0.040311 0.008101
  5 6.146608 1.394838 0.000001 0.618774 -0.128362 0.234859
  6 -2.880991 -1.210335 -2.332619 1.195624 1.012133 3.992685
  7 5.760270 -0.000012 -0.000009 0.809309 -0.966299 -0.645261
  8 10.965153 0.000065 -0.000006 0.000013 0.000002 -1.139633
  9 0.000007 -0.000004 -4.044200 0.206753 3.263382 -1.334754
 10 -0.000007 0.000007 4.044200 -0.498357 -2.349937 -1.047975
 11 17.182070 0.000091 0.000546 0.000004 -0.000009 -1.989284
 12 16.782913 0.000650 -0.000234 0.032945 0.086094 -0.096100
 13 5.168527 5.004116 -0.000135 0.000010 0.000000 2.033191
 14 17.182070 0.000099 0.000206 -0.000001 -0.000007 -1.636059
 15 16.782906 0.000656 -0.000113 0.214792 -0.032181 0.743581
 16 5.168479 5.004167 -0.000064 0.000011 -0.000001 1.483546
 17 -2.138785 2.176473 2.442010 0.956587 -1.043463 1.974617
 18 5.760273 0.000016 0.000006 -0.621831 0.516478 -0.443814
time 4
  0 3.177613 -3.177613 8.443506 -0.281409 0.436266 -2.443613
  1 0.000000 0.000000 0.000000 -1.570796 -1.570796 0.000000
  2 4.484989 -0.004008 0.000006 0.702355 -0.195083 -0.013779
  3 5.037136 -0.005101 -0.000238 -0.116835 -0.034747 0.360876
  4 6.388059 -0.005253 -0.000001 -0.232333 0.033040 0.019238
  5 6.146608 1.394838 0.000001 0.615987 -0.104617 0.251532
  6 -2.806770 -1.210335 -2.414653 1.240198 1.017776 4.028072
  7 5.760270 -0.000012 -0.000009 0.847837 -0.967204 -0.700313
  8 10.965153 0.000065 -0.000006 0.000013 0.000002 -1.153624
  9 0.000007 -0.000004 -4.044200 0.206753 3.263382 -1.334754
 10 -0.000007 0.000007 4.044200 -0.498357 -2.349937 -1.047975
 11 17.182070 0.000091 0.000546 0.000004 -0.000009 -1.989284
 12 16.782913 0.000650 -0.000234 0.032945 0.086094 -0.096100
 13 5.168527 5.004116 -0.000135 0.000010 0.000000 2.033191
 14 17.182070 0.000099 0.000206 -0.000001 -0.000007 -1.636059
 15 16.782906 0.000656 -0.000113 0.214792 -0.032181 0.743581
 16 5.168479 5.004167 -0.000064 0.000011 -0.000001 1.483546
 17 -2.197381 2.176473 2.383415 0.914889 -1.019353 2.011713
 18 5.760273 0.000016 0.000006 -0.628143 0.491968 -0.428055
time 5
  0 3.177613 -3.177613 8.443506 -0.281409 0.436266 -2.443613
  1 0.000000 0.000000 0.000000 -1.570796 -1.570796 0.000000
  2 4.484989 -0.004008 0.000006 0.713436 -0.193596 -0.015407
  3 5.037136 -0.005101 -0.000238 -0.118008 -0.048443 0.367584
  4 6.388059 -0.005253 -0.000001 -0.253043 0.025808 0.030797
  5 6.146608 1.394838 0.000001 0.613295 -0.081605 0.267530
  6 -2.744268 -1.202523 -2.500593 1.283820 1.021573 4.061933
  7 5.760270 -0.000012 -0.000009 0.880511 -0.969171 -0.750319
  8 10.965153 0.000065 -0.000006 0.000013 0.000002 -1.166006
  9 0.000007 -0.000004 -4.044200 0.206753 3.263382 -1.334754
 10 -0.000007 0.000007 4.044200 -0.498357 -2.349937 -1.047975
 11 17.182070 0.000091 0.000546 0.000004 -0.000009 -1.989284
 12 16.782913 0.000650 -0.000234 0.032945 0.086094 -0.096100
 13 5.168527 5.004116 -0.000135 0.000010 0.000000 2.033191
 14 17.182070 0.000099 0.000206 -0.000001 -0.000007 -1.636059
 15 16.782906 0.000656 -0.000113 0.214792 -0.032181 0.743581
 16 5.168479 5.004167 -0.000064 0.000011 -0.000001 1.483546
 17 -2.259882 2.172566 2.320913 0.877250 -0.995966 2.044539
 18 5.760273 0.000016 0.000006 -0.631265 0.474315 -0.406415
time 6
  0 3.177613 -3.177613 8.443506 -0.281409 0.436266 -2.443613
  1 0.000000 0.000000 0.000000 -1.570796 -1.570796 0.000000
  2 4.484989 -0.004008 0.000006 0.720553 -0.192909 -0.015375
  3 5.037136 -0.005101 -0.000238 -0.118025 -0.059607 0.370696
  4 6.388059 -0.005253 -0.000001 -0.270265 0.019147 0.041494
  5 6.146608 1.394838 0.000001 0.611362 -0.064232 0.279479
  6 -2.689579 -1.202523 -2.555282 1.317251 1.021784 4.087114
  7 5.760270 -0.000012 -0.000009 0.905016 -0.970627 -0.790283
  8 10.965153 0.000065 -0.000006 0.000013 0.000002 -1.175788
  9 0.000007 -0.000004 -4.044200 0.206753 3.263382 -1.334754
 10 -0.000007 0.000007 4.044200 -0.498357 -2.349937 -1.047975
 11 17.182070 0.000091 0.000546 0.000004 -0.000009 -1.989284
 12 16.782913 0.000650 -0.000234 0.032945 0.086094 -0.096100
 13 5.168527 5.004116 -0.000135 0.000010 0.000000 2.033191
 14 17.182070 0.000099 0.000206 -0.000001 -0.000007 -1.636059
 15 16.782906 0.000656 -0.000113 0.214792 -0.032181 0.743581
 16 5.168479 5.004167 -0.000064 0.000011 -0.000001 1.483546
 17 -2.310665 2.172566 2.277943 0.850866 -0.978080 2.067309
 18 5.760273 0.000016 0.000006 -0.630179 0.465999 -0.381273
time 7
  0 3.177613 -3.177613 8.443506 -0.281409 0.436266 -2.443613
  1 0.000000 0.000000 0.000000 -1.570796 -1.570796 0.000000
  2 4.484989 -0.004008 0.000006 0.722601 -0.193341 -0.013519
  3 5.037136 -0.005101 -0.000238 -0.116699 -0.066952 0.369518
  4 6.388059 -0.005253 -0.000001 -0.281938 0.013818 0.049957
  5 6.146608 1.394838 0.000001 0.610642 -0.057365 0.284203
  6 -2.670047 -1.202523 -2.586533 1.330871 1.016932 4.096080
  7 5.760270 -0.000012 -0.000009 0.919175 -0.969919 -0.814954
  8 10.965153 0.000065 -0.000006 0.000013 0.000002 -1.181855
  9 0.000007 -0.000004 -4.044200 0.206753 3.263382 -1.334754
 10 -0.000007 0.000007 4.044200 -0.498357 -2.349937 -1.047975
 11 17.182070 0.000091 0.000546 0.000004 -0.000009 -1.989284
 12 16.782913 0.000650 -0.000234 0.032945 0.086094 -0.096100
 13 5.168527 5.004116 -0.000135 0.000010 0.000000 2.033191
 14 17.182070 0.000099 0.000206 -0.000001 -0.000007 -1.636059
 15 16.782906 0.000656 -0.000113 0.214792 -0.032181 0.743581
 16 5.168479 5.004167 -0.000064 0.000011 -0.000001 1.483546
 17 -2.330197 2.164754 2.258411 0.843578 -0.967738 2.073476
 18 5.760273 0.000016 0.000006 -0.624953 0.470619 -0.352853
time 8
  0 3.177613 -3.177613 8.443506 -0.281409 0.436266 -2.443613
  1 0.000000 0.000000 0.000000 -1.570796 -1.570796 0.000000
  2 4.484989 -0.004008 0.000006 0.718506 -0.194843 -0.009775
  3 5.037136 -0.005101 -0.000238 -0.113791 -0.068825 0.363474
  4 6.388059 -0.005253 -0.000001 -0.285761 0.010449 0.054848
  5 6.146608 1.394838 0.000001 0.611210 -0.062708 0.280551
  6 -2.681767 -1.202523 -2.563095 1.322299 1.005304 4.086542
  7 5.760270 -0.000012 -0.000009 0.917609 -0.964450 -0.818370
  8 10.965153 0.000065 -0.000006 0.000013 0.000002 -1.183155
  9 0.000007 -0.000004 -4.044200 0.206753 3.263382 -1.334754
 10 -0.000007 0.000007 4.044200 -0.498357 -2.349937 -1.047975
 11 17.182070 0.000091 0.000546 0.000004 -0.000009 -1.989284
 12 16.782913 0.000650 -0.000234 0.032945 0.086094 -0.096100
 13 5.168527 5.004116 -0.000135 0.000010 0.000000 2.033191
 14 17.182070 0.000099 0.000206 -0.000001 -0.000007 -1.636059
 15 16.782906 0.000656 -0.000113 0.214792 -0.032181 0.743581
 16 5.168479 5.004167 -0.000064 0.000011 -0.000001 1.483546
 17 -2.310665 2.172566 2.277943 0.859999 -0.963714 2.060383
 18 5.760273 0.000016 0.000006 -0.615994 0.491336 -0.321964
time 9
  0 3.177613 -3.177613 8.443506 -0.281409 0.436266 -2.443613
  1 0.000000 0.000000 0.000000 -1.570796 -1.570796 0.000000
  2 4.484989 -0.004008 0.000006 0.708659 -0.197512 -0.004143
  3 5.037136 -0.005101 -0.000238 -0.109199 -0.066381 0.352536
  4 6.388059 -0.005253 -0.000001 -0.283268 0.008203 0.057188
  5 6.146608 1.394838 0.000001 0.612727 -0.076539 0.270983
  6 -2.724736 -1.202523 -2.512312 1.299440 0.987769 4.064890
  7 5.760270 -0.000012 -0.000009 0.903042 -0.955362 -0.804301
  8 10.965153 0.000065 -0.000006 0.000013 0.000002 -1.180493
  9 0.000007 -0.000004 -4.044200 0.206753 3.263382 -1.334754
 10 -0.000007 0.000007 4.044200 -0.498357 -2.349937 -1.047975
 11 17.182070 0.000091 0.000546 0.000004 -0.000009 -1.989284
 12 16.782913 0.000650 -0.000234 0.032945 0.086094 -0.096100
 13 5.168527 5.004116 -0.000135 0.000010 0.000000 2.033191
 14 17.182070 0.000099 0.000206 -0.000001 -0.000007 -1.636059
 15 16.782906 0.000656 -0.000113 0.214792 -0.032181 0.743581
 16 5.168479 5.004167 -0.000064 0.000011 -0.000001 1.483546
 17 -2.267695 2.172566 2.313100 0.892564 -0.963903 2.033439
 18 5.760273 0.000016 0.000006 -0.602895 0.524599 -0.288292
time 10
  0 3.177613 -3.177613 8.443506 -0.281409 0.436266 -2.443613
  1 0.000000 0.000000 0.000000 -1.570796 -1.570796 0.000000
  2 4.484989 -0.004008 0.000006 0.694718 -0.200964 0.003279
  3 5.037136 -0.005101 -0.000238 -0.103264 -0.061611 0.337699
  4 6.388059 -0.005253 -0.000001 -0.277815 0.006167 0.058965
  5 6.146608 1.394838 0.000001 0.614926 -0.095634 0.257844
  6 -2.787238 -1.210335 -2.445904 1.268962 0.966595 4.038183
  7 5.760270 -0.000012 -0.000009 0.881464 -0.946509 -0.781974
  8 10.965153 0.000065 -0.000006 0.000013 0.000002 -1.174735
  9 0.000007 -0.000004 -4.044200 0.206753 3.263382 -1.334754
 10 -0.000007 0.000007 4.044200 -0.498357 -2.349937 -1.047975
 11 17.182070 0.000091 0.000546 0.000004 -0.000009 -1.989284
 12 16.782913 0.000650 -0.000234 0.032945 0.086094 -0.096100
 13 5.168527 5.004116 -0.000135 0.000010 0.000000 2.033191
 14 17.182070 0.000099 0.000206 -0.000001 -0.000007 -1.636059
 15 16.782906 0.000656 -0.000113 0.214792 -0.032181 0.743581
 16 5.168479 5.004167 -0.000064 0.000011 -0.000001 1.483546
 17 -2.216913 2.176473 2.363883 0.935369 -0.966323 1.998430
 18 5.760273 0.000016 0.000006 -0.586131 0.564234 -0.251477
time 11
  0 3.177613 -3.177613 8.443506 -0.281409 0.436266 -2.443613
  1 0.000000 0.000000 0.000000 -1.570796 -1.570796 0.000000
  2 4.484989 -0.004008 0.000006 0.677332 -0.205056 0.012525
  3 5.037136 -0.005101 -0.000238 -0.096309 -0.054778 0.319720
  4 6.388059 -0.005253 -0.000001 -0.269737 0.004130 0.060126
  5 6.146608 1.394838 0.000001 0.617409 -0.116688 0.243116
  6 -2.849740 -1.210335 -2.375589 1.237055 0.944314 4.010617
  7 5.760270 -0.000012 -0.000009 0.853827 -0.939782 -0.753938
  8 10.965153 0.000065 -0.000006 0.000013 0.000002 -1.166873
  9 0.000007 -0.000004 -4.044200 0.206753 3.263382 -1.334754
 10 -0.000007 0.000007 4.044200 -0.498357 -2.349937 -1.047975
 11 17.182070 0.000091 0.000546 0.000004 -0.000009 -1.989284
 12 16.782913 0.000650 -0.000234 0.032945 0.086094 -0.096100
 13 5.168527 5.004116 -0.000135 0.000010 0.000000 2.033191
 14 17.182070 0.000099 0.000206 -0.000001 -0.000007 -1.636059
 15 16.782906 0.000656 -0.000113 0.214792 -0.032181 0.743581
 16 5.168479 5.004167 -0.000064 0.000011 -0.000001 1.483546
 17 -2.170036 2.176473 2.414666 0.982140 -0.969309 1.960290
 18 5.760273 0.000016 0.000006 -0.565702 0.608148 -0.212058
time 12
  0 3.177613 -3.177613 8.443506 -0.281409 0.436266 -2.443613
  1 0.000000 0.000000 0.000000 -1.570796 -1.570796 0.000000
  2 4.484989 -0.004008 0.000006 0.657281 -0.209531 0.022942
  3 5.037136 -0.005101 -0.000238 -0.088520 -0.046321 0.299384
  4 6.388059 -0.005253 -0.000001 -0.259646 0.002341 0.060777
  5 6.146608 1.394838 0.000001 0.619683 -0.136495 0.228984
  6 -2.904429 -1.210335 -2.309181 1.208101 0.923615 3.986199
  7 5.760270 -0.000012 -0.000009 0.821493 -0.937106 -0.721926
  8 10.965153 0.000065 -0.000006 0.000013 0.000002 -1.158020
  9 0.000007 -0.000004 -4.044200 0.206753 3.263382 -1.334754
 10 -0.000007 0.000007 4.044200 -0.498357 -2.349937 -1.047975
 11 17.182070 0.000091 0.000546 0.000004 -0.000009 -1.989284
 12 16.782913 0.000650 -0.000234 0.032945 0.086094 -0.096100
 13 5.168527 5.004116 -0.000135 0.000010 0.000000 2.033191
 14 17.182070 0.000099 0.000206 -0.000001 -0.000007 -1.636059
 15 16.782906 0.000656 -0.000113 0.214792 -0.032181 0.743581
 16 5.168479 5.004167 -0.000064 0.000011 -0.000001 1.483546
 17 -2.107534 2.176473 2.469355 1.026421 -0.971667 1.924523
 18 5.760273 0.000016 0.000006 -0.541404 0.654153 -0.170438
time 13
  0 3.177613 -3.177613 8.443506 -0.281409 0.436266 -2.443613
  1 0.000000 0.000000 0.000000 -1.570796 -1.570796 0.000000
  2 4.484989 -0.004008 0.000006 0.635248 -0.214102 0.034336
  3 5.037136 -0.005101 -0.000238 -0.080527 -0.036474 0.277386
  4 6.388059 -0.005253 -0.000001 -0.247901 0.000609 0.060865
  5 6.146608 1.394838 0.000001 0.621086 -0.151810 0.217948
  6 -2.947400 -1.210335 -2.246679 1.186004 0.907504 3.968076
  7 5.760270 -0.000012 -0.000009 0.783238 -0.940608 -0.687365
  8 10.965153 0.000065 -0.000006 0.000013 0.000002 -1.149167
  9 0.000007 -0.000004 -4.044200 0.206753 3.263382 -1.334754
 10 -0.000007 0.000007 4.044200 -0.498357 -2.349937 -1.047975
 11 17.182070 0.000091 0.000546 0.000004 -0.000009 -1.989284
 12 16.782913 0.000650 -0.000234 0.032945 0.086094 -0.096100
 13 5.168527 5.004116 -0.000135 0.000010 0.000000 2.033191
 14 17.182070 0.000099 0.000206 -0.000001 -0.000007 -1.636059
 15 16.782906 0.000656 -0.000113 0.214792 -0.032181 0.743581
 16 5.168479 5.004167 -0.000064 0.000011 -0.000001 1.483546
 17 -2.064564 2.176473 2.504512 1.061108 -0.972736 1.896535
 18 5.760273 0.000016 0.000006 -0.513237 0.700206 -0.127832
time 14
  0 3.177613 -3.177613 8.443506 -0.281409 0.436266 -2.443613
  1 0.000000 0.000000 0.000000 -1.570796 -1.570796 0.000000
  2 4.484989 -0.004008 0.000006 0.611916 -0.218577 0.046316
  3 5.037136 -0.005101 -0.000238 -0.072331 -0.025529 0.254512
  4 6.388059 -0.005253 -0.000001 -0.235006 -0.000590 0.060478
  5 6.146608 1.394838 0.000001 0.620915 -0.159448 0.212271
  6 -2.966931 -1.210335 -2.227147 1.174670 0.898407 3.958633
  7 5.760270 -0.000012 -0.000009 0.737766 -0.951663 -0.647554
  8 10.965153 0.000065 -0.000006 0.000013 0.000002 -1.139633
  9 0.000007 -0.000004 -4.044200 0.206753 3.263382 -1.334754
 10 -0.000007 0.000007 4.044200 -0.498357 -2.349937 -1.047975
 11 17.182070 0.000091 0.000546 0.000004 -0.000009 -1.989284
 12 16.782913 0.000650 -0.000234 0.032945 0.086094 -0.096100
 13 5.168527 5.004116 -0.000135 0.000010 0.000000 2.033191
 14 17.182070 0.000099 0.000206 -0.000001 -0.000007 -1.636059
 15 16.782906 0.000656 -0.000113 0.214792 -0.032181 0.743581
 16 5.168479 5.004167 -0.000064 0.000011 -0.000001 1.483546
 17 -2.045032 2.176473 2.524044 1.079097 -0.972170 1.882778
 18 5.760273 0.000016 0.000006 -0.482288 0.744266 -0.084686
time 15
  0 3.177613 -3.177613 8.443506 -0.281409 0.436266 -2.443613
  1 0.000000 0.000000 0.000000 -1.570796 -1.570796 0.000000
  2 4.484989 -0.004008 0.000006 0.588095 -0.222860 0.058459
  3 5.037136 -0.005101 -0.000238 -0.064457 -0.013853 0.231457
  4 6.388059 -0.005253 -0.000001 -0.221224 -0.001789 0.059651
  5 6.146608 1.394838 0.000001 0.618091 -0.156203 0.214097
  6 -2.955212 -1.202523 -2.234960 1.177813 0.898750 3.960637
  7 5.760270 -0.000012 -0.000009 0.683650 -0.968856 -0.600811
  8 10.965153 0.000065 -0.000006 0.000013 0.000002 -1.128179
  9 0.000007 -0.000004 -4.044200 0.206753 3.263382 -1.334754
 10 -0.000007 0.000007 4.044200 -0.498357 -2.349937 -1.047975
 11 17.182070 0.000091 0.000546 0.000004 -0.000009 -1.989284
 12 16.782913 0.000650 -0.000234 0.032945 0.086094 -0.096100
 13 5.168527 5.004116 -0.000135 0.000010 0.000000 2.033191
 14 17.182070 0.000099 0.000206 -0.000001 -0.000007 -1.636059
 15 16.782906 0.000656 -0.000113 0.214792 -0.032181 0.743581
 16 5.168479 5.004167 -0.000064 0.000011 -0.000001 1.483546
 17 -2.052845 2.164754 2.524044 1.073562 -0.969561 1.888281
 18 5.760273 0.000016 0.000006 -0.449778 0.784581 -0.043516
time 16
  0 3.177613 -3.177613 8.443506 -0.281409 0.436266 -2.443613
  1 0.000000 0.000000 0.000000 -1.570796 -1.570796 0.000000
  2 4.484989 -0.004008 0.000006 0.564502 -0.226792 0.070439
  3 5.037136 -0.005101 -0.000238 -0.057076 -0.001884 0.208945
  4 6.388059 -0.005253 -0.000001 -0.207094 -0.002703 0.058349
  5 6.146608 1.394838 0.000001 0.611495 -0.137722 0.226324
  6 -2.904429 -1.190803 -2.309181 1.200386 0.913015 3.978282
  7 5.760270 -0.000012 -0.000009 0.621501 -0.989984 -0.546115
  8 10.965153 0.000065 -0.000006 0.000013 0.000002 -1.115735
  9 0.000007 -0.000004 -4.044200 0.206753 3.263382 -1.334754
 10 -0.000007 0.000007 4.044200 -0.498357 -2.349937 -1.047975
 11 17.182070 0.000091 0.000546 0.000004 -0.000009 -1.989284
 12 16.782913 0.000650 -0.000234 0.032945 0.086094 -0.096100
 13 5.168527 5.004116 -0.000135 0.000010 0.000000 2.033191
 14 17.182070 0.000099 0.000206 -0.000001 -0.000007 -1.636059
 15 16.782906 0.000656 -0.000113 0.214792 -0.032181 0.743581
 16 5.168479 5.004167 -0.000064 0.000011 -0.000001 1.483546
 17 -2.107534 2.156941 2.492793 1.035554 -0.963997 1.920633
 18 5.760273 0.000016 0.000006 -0.418693 0.819644 -0.006701
time 17
  0 3.177613 -3.177613 8.443506 -0.281409 0.436266 -2.443613
  1 0.000000 0.000000 0.000000 -1.570796 -1.570796 0.000000
  2 4.484989 -0.004008 0.000006 0.541852 -0.230292 0.081768
  3 5.037136 -0.005101 -0.000238 -0.050393 0.009967 0.187672
  4 6.388059 -0.005253 -0.000001 -0.193048 -0.003236 0.056748
  5 6.146608 1.394838 0.000001 0.601752 -0.105092 0.247840
  6 -2.806770 -1.182991 -2.426372 1.242865 0.939937 4.012429
  7 5.760270 -0.000012 -0.000009 0.552137 -1.012764 -0.484181
  8 10.965153 0.000065 -0.000006 0.000013 0.000002 -1.102858
  9 0.000007 -0.000004 -4.044200 0.206753 3.263382 -1.334754
 10 -0.000007 0.000007 4.044200 -0.498357 -2.349937 -1.047975
 11 17.182070 0.000091 0.000546 0.000004 -0.000009 -1.989284
 12 16.782913 0.000650 -0.000234 0.032945 0.086094 -0.096100
 13 5.168527 5.004116 -0.000135 0.000010 0.000000 2.033191
 14 17.182070 0.000099 0.000206 -0.000001 -0.000007 -1.636059
 15 16.782906 0.000656 -0.000113 0.214792 -0.032181 0.743581
 16 5.168479 5.004167 -0.000064 0.000011 -0.000001 1.483546
 17 -2.197381 2.133503 2.418572 0.968210 -0.955793 1.976988
 18 5.760273 0.000016 0.000006 -0.395549 0.845176 0.015658
time 18
  0 3.177613 -3.177613 8.443506 -0.281409 0.436266 -2.443613
  1 0.000000 0.000000 0.000000 -1.570796 -1.570796 0.000000
  2 4.484989 -0.004008 0.000006 0.520989 -0.233201 0.092185
  3 5.037136 -0.005101 -0.000238 -0.044594 0.021424 0.168333
  4 6.388059 -0.005253 -0.000001 -0.179421 -0.003369 0.054760
  5 6.146608 1.394838 0.000001 0.590966 -0.063222 0.274794
  6 -2.689579 -1.159552 -2.574814 1.301726 0.974242 4.060979
  7 5.760270 -0.000012 -0.000009 0.478689 -1.035190 -0.416386
  8 10.965153 0.000065 -0.000006 0.000013 0.000002 -1.089795
  9 0.000007 -0.000004 -4.044200 0.206753 3.263382 -1.334754
 10 -0.000007 0.000007 4.044200 -0.498357 -2.349937 -1.047975
 11 17.182070 0.000091 0.000546 0.000004 -0.000009 -1.989284
 12 16.782913 0.000650 -0.000234 0.032945 0.086094 -0.096100
 13 5.168527 5.004116 -0.000135 0.000010 0.000000 2.033191
 14 17.182070 0.000099 0.000206 -0.000001 -0.000007 -1.636059
 15 16.782906 0.000656 -0.000113 0.214792 -0.032181 0.743581
 16 5.168479 5.004167 -0.000064 0.000011 -0.000001 1.483546
 17 -2.318478 2.113971 2.332632 0.882324 -0.945011 2.047860
 18 5.760273 0.000016 0.000006 -0.385097 0.859814 0.018352
time 19
  0 3.177613 -3.177613 8.443506 -0.281409 0.436266 -2.443613
  1 0.000000 0.000000 0.000000 -1.570796 -1.570796 0.000000
  2 4.484989 -0.004008 0.000006 0.502595 -0.235534 0.101235
  3 5.037136 -0.005101 -0.000238 -0.039850 0.032017 0.151623
  4 6.388059 -0.005253 -0.000001 -0.166837 -0.002988 0.052473
  5 6.146608 1.394838 0.000001 0.580768 -0.017177 0.303774
  6 -2.545043 -1.140021 -2.734975 1.373350 1.010683 4.121452
  7 5.760270 -0.000012 -0.000009 0.404219 -1.055569 -0.346245
  8 10.965153 0.000065 -0.000006 0.000013 0.000002 -1.077289
  9 0.000007 -0.000004 -4.044200 0.206753 3.263382 -1.334754
 10 -0.000007 0.000007 4.044200 -0.498357 -2.349937 -1.047975
 11 17.182070 0.000091 0.000546 0.000004 -0.000009 -1.989284
 12 16.782913 0.000650 -0.000234 0.032945 0.086094 -0.096100
 13 5.168527 5.004116 -0.000135 0.000010 0.000000 2.033191
 14 17.182070 0.000099 0.000206 -0.000001 -0.000007 -1.636059
 15 16.782906 0.000656 -0.000113 0.214792 -0.032181 0.743581
 16 5.168479 5.004167 -0.000064 0.000011 -0.000001 1.483546
 17 -2.439576 2.090533 2.215441 0.790256 -0.931086 2.123380
 18 5.760273 0.000016 0.000006 -0.385233 0.865844 0.005870
time 20
  0 3.177613 -3.177613 8.443506 -0.281409 0.436266 -2.443613
  1 0.000000 0.000000 0.000000 -1.570796 -1.570796 0.000000
  2 4.484989 -0.004008 0.000006 0.487484 -0.237324 0.108365
  3 5.037136 -0.005101 -0.000238 -0.036295 0.041221 0.138207
  4 6.388059 -0.005253 -0.000001 -0.155740 -0.002341 0.049957
  5 6.146608 1.394838 0.000001 0.572295 0.027858 0.331601
  6 -2.396601 -1.116582 -2.867792 1.451451 1.044777 4.189078
  7 5.760270 -0.000012 -0.000009 0.333426 -1.072841 -0.278092
  8 10.965153 0.000065 -0.000006 0.000013 0.000002 -1.065960
  9 0.000007 -0.000004 -4.044200 0.206753 3.263382 -1.334754
 10 -0.000007 0.000007 4.044200 -0.498357 -2.349937 -1.047975
 11 17.182070 0.000091 0.000546 0.000004 -0.000009 -1.989284
 12 16.782913 0.000650 -0.000234 0.032945 0.086094 -0.096100
 13 5.168527 5.004116 -0.000135 0.000010 0.000000 2.033191
 14 17.182070 0.000099 0.000206 -0.000001 -0.000007 -1.636059
 15 16.782906 0.000656 -0.000113 0.214792 -0.032181 0.743581
 16 5.168479 5.004167 -0.000064 0.000011 -0.000001 1.483546
 17 -2.556767 2.059282 2.098250 0.702801 -0.915211 2.194916
 18 5.760273 0.000016 0.000006 -0.392902 0.865406 -0.017431
time 21
  0 3.177613 -3.177613 8.443506 -0.281409 0.436266 -2.443613
  1 0.000000 0.000000 0.000000 -1.570796 -1.570796 0.000000
  2 4.484989 -0.004008 0.000006 0.476403 -0.238475 0.113313
  3 5.037136 -0.005101 -0.000238 -0.034085 0.048639 0.128749
  4 6.388059 -0.005253 -0.000001 -0.146380 -0.001123 0.047230
  5 6.146608 1.394838 0.000001 0.566097 0.066642 0.355142
  6 -2.259879 -1.104863 -2.973264 1.526218 1.072912 4.255560
  7 5.760270 -0.000012 -0.000009 0.272707 -1.086415 -0.217840
  8 10.965153 0.000065 -0.000006 0.000013 0.000002 -1.056426
  9 0.000007 -0.000004 -4.044200 0.206753 3.263382 -1.334754
 10 -0.000007 0.000007 4.044200 -0.498357 -2.349937 -1.047975
 11 17.182070 0.000091 0.000546 0.000004 -0.000009 -1.989284
 12 16.782913 0.000650 -0.000234 0.032945 0.086094 -0.096100
 13 5.168527 5.004116 -0.000135 0.000010 0.000000 2.033191
 14 17.182070 0.000099 0.000206 -0.000001 -0.000007 -1.636059
 15 16.782906 0.000656 -0.000113 0.214792 -0.032181 0.743581
 16 5.168479 5.004167 -0.000064 0.000011 -0.000001 1.483546
 17 -2.650519 2.047563 1.996684 0.629000 -0.900217 2.254782
 18 5.760273 0.000016 0.000006 -0.404101 0.860543 -0.045267
time 22
  0 3.177613 -3.177613 8.443506 -0.281409 0.436266 -2.443613
  1 0.000000 0.000000 0.000000 -1.570796 -1.570796 0.000000
  2 4.484989 -0.004008 0.000006 0.470131 -0.239051 0.115722
  3 5.037136 -0.005101 -0.000238 -0.033353 0.053877 0.123975
  4 6.388059 -0.005253 -0.000001 -0.139297 0.000533 0.044309
  5 6.146608 1.394838 0.000001 0.562363 0.093829 0.371537
  6 -2.170032 -1.085331 -3.055298 -1.557420 2.048641 1.167163
  7 5.760270 -0.000012 -0.000009 0.228937 -1.096172 -0.172575
  8 10.965153 0.000065 -0.000006 0.000013 0.000002 -1.048935
  9 0.000007 -0.000004 -4.044200 0.206753 3.263382 -1.334754
 10 -0.000007 0.000007 4.044200 -0.498357 -2.349937 -1.047975
 11 17.182070 0.000091 0.000546 0.000004 -0.000009 -1.989284
 12 16.782913 0.000650 -0.000234 0.032945 0.086094 -0.096100
 13 5.168527 5.004116 -0.000135 0.000010 0.000000 2.033191
 14 17.182070 0.000099 0.000206 -0.000001 -0.000007 -1.636059
 15 16.782906 0.000656 -0.000113 0.214792 -0.032181 0.743581
 16 5.168479 5.004167 -0.000064 0.000011 -0.000001 1.483546
 17 -2.713021 2.039750 1.922463 0.575217 -0.891133 2.298709
 18 5.760273 0.000016 0.000006 -0.419711 0.850282 -0.078984
time 23
  0 3.177613 -3.177613 8.443506 -0.281409 0.436266 -2.443613
  1 0.000000 0.000000 0.000000 -1.570796 -1.570796 0.000000
  2 4.484989 -0.004008 0.000006 0.473056 -0.238411 0.112434
  3 5.037136 -0.005101 -0.000238 -0.035768 0.055940 0.128628
  4 6.388059 -0.005253 -0.000001 -0.134659 0.004187 0.039594
  5 6.146608 1.394838 0.000001 0.561093 0.104059 0.377690
  6 -2.138781 -1.085331 -3.078736 -1.532561 2.037909 1.191295
  7 5.760270 -0.000012 -0.000009 0.209877 -1.102349 -0.148158
  8 10.965153 0.000065 -0.000006 0.000013 0.000002 -1.044663
  9 0.000007 -0.000004 -4.044200 0.206753 3.263382 -1.334754
 10 -0.000007 0.000007 4.044200 -0.498357 -2.349937 -1.047975
 11 17.182070 0.000091 0.000546 0.000004 -0.000009 -1.989284
 12 16.782913 0.000650 -0.000234 0.032945 0.086094 -0.096100
 13 5.168527 5.004116 -0.000135 0.000010 0.000000 2.033191
 14 17.182070 0.000099 0.000206 -0.000001 -0.000007 -1.636059
 15 16.782906 0.000656 -0.000113 0.214792 -0.032181 0.743581
 16 5.168479 5.004167 -0.000064 0.000011 -0.000001 1.483546
 17 -2.736460 2.028031 1.891212 0.546987 -0.893428 2.322902
 18 5.760273 0.000016 0.000006 -0.440412 0.832386 -0.122354
time 24
  0 3.177613 -3.177613 8.443506 -0.281409 0.436266 -2.443613
  1 0.000000 0.000000 0.000000 -1.570796 -1.570796 0.000000
  2 4.484989 -0.004008 0.000006 0.487094 -0.236190 0.102342
  3 5.037136 -0.005101 -0.000238 -0.042145 0.054667 0.144946
  4 6.388059 -0.005253 -0.000001 -0.132322 0.010677 0.032152
  5 6.146608 1.394838 0.000001 0.562742 0.090861 0.369711
  6 -2.173938 -1.093144 -3.047485 -1.557896 2.036116 1.172886
  7 5.760270 -0.000012 -0.000009 0.232681 -1.102270 -0.157690
  8 10.965153 0.000065 -0.000006 0.000013 0.000002 -1.044291
  9 0.000007 -0.000004 -4.044200 0.206753 3.263382 -1.334754
 10 -0.000007 0.000007 4.044200 -0.498357 -2.349937 -1.047975
 11 17.182070 0.000091 0.000546 0.000004 -0.000009 -1.989284
 12 16.782913 0.000650 -0.000234 0.032945 0.086094 -0.096100
 13 5.168527 5.004116 -0.000135 0.000010 0.000000 2.033191
 14 17.182070 0.000099 0.000206 -0.000001 -0.000007 -1.636059
 15 16.782906 0.000656 -0.000113 0.214792 -0.032181 0.743581
 16 5.168479 5.004167 -0.000064 0.000011 -0.000001 1.483546
 17 -2.713021 2.039750 1.930276 0.553999 -0.911911 2.319201
 18 5.760273 0.000016 0.000006 -0.464845 0.807876 -0.173491
time 25
  0 3.177613 -3.177613 8.443506 -0.281409 0.436266 -2.443613
  1 0.000000 0.000000 0.000000 -1.570796 -1.570796 0.000000
  2 4.484989 -0.004008 0.000006 0.509290 -0.232530 0.087269
  3 5.037136 -0.005101 -0.000238 -0.051328 0.050834 0.169814
  4 6.388059 -0.005253 -0.000001 -0.132106 0.019071 0.023056
  5 6.146608 1.394838 0.000001 0.567613 0.056510 0.348989
  6 -2.291130 -1.108770 -2.953732 1.514217 1.099913 4.258517
  7 5.760270 -0.000012 -0.000009 0.296463 -1.093969 -0.202599
  8 10.965153 0.000065 -0.000006 0.000013 0.000002 -1.048935
  9 0.000007 -0.000004 -4.044200 0.206753 3.263382 -1.334754
 10 -0.000007 0.000007 4.044200 -0.498357 -2.349937 -1.047975
 11 17.182070 0.000091 0.000546 0.000004 -0.000009 -1.989284
 12 16.782913 0.000650 -0.000234 0.032945 0.086094 -0.096100
 13 5.168527 5.004116 -0.000135 0.000010 0.000000 2.033191
 14 17.182070 0.000099 0.000206 -0.000001 -0.000007 -1.636059
 15 16.782906 0.000656 -0.000113 0.214792 -0.032181 0.743581
 16 5.168479 5.004167 -0.000064 0.000011 -0.000001 1.483546
 17 -2.627081 2.047563 2.024029 0.596342 -0.944256 2.286280
 18 5.760273 0.000016 0.000006 -0.490161 0.777967 -0.227996
time 26
  0 3.177613 -3.177613 8.443506 -0.281409 0.436266 -2.443613
  1 0.000000 0.000000 0.000000 -1.570796 -1.570796 0.000000
  2 4.484989 -0.004008 0.000006 0.536685 -0.227751 0.069299
  3 5.037136 -0.005101 -0.000238 -0.062484 0.045215 0.200031
  4 6.388059 -0.005253 -0.000001 -0.134144 0.028149 0.013344
  5 6.146608 1.394838 0.000001 0.575669 0.008981 0.319970
  6 -2.459103 -1.128302 -2.809196 1.420591 1.086887 4.181829
  7 5.760270 -0.000012 -0.000009 0.383526 -1.077641 -0.266215
  8 10.965153 0.000065 -0.000006 0.000013 0.000002 -1.056921
  9 0.000007 -0.000004 -4.044200 0.206753 3.263382 -1.334754
 10 -0.000007 0.000007 4.044200 -0.498357 -2.349937 -1.047975
 11 17.182070 0.000091 0.000546 0.000004 -0.000009 -1.989284
 12 16.782913 0.000650 -0.000234 0.032945 0.086094 -0.096100
 13 5.168527 5.004116 -0.000135 0.000010 0.000000 2.033191
 14 17.182070 0.000099 0.000206 -0.000001 -0.000007 -1.636059
 15 16.782906 0.000656 -0.000113 0.214792 -0.032181 0.743581
 16 5.168479 5.004167 -0.000064 0.000011 -0.000001 1.483546
 17 -2.509890 2.071001 2.152939 0.667376 -0.983109 2.227458
 18 5.760273 0.000016 0.000006 -0.514798 0.744217 -0.282141
time 27
  0 3.177613 -3.177613 8.443506 -0.281409 0.436266 -2.443613
  1 0.000000 0.000000 0.000000 -1.570796 -1.570796 0.000000
  2 4.484989 -0.004008 0.000006 0.566355 -0.222077 0.050418
  3 5.037136 -0.005101 -0.000238 -0.074388 0.038470 0.232424
  4 6.388059 -0.005253 -0.000001 -0.138039 0.036999 0.004037
  5 6.146608 1.394838 0.000001 0.586436 -0.043712 0.287140
  6 -2.627077 -1.151740 -2.641222 1.322013 1.067480 4.099991
  7 5.760270 -0.000012 -0.000009 0.476375 -1.054507 -0.335285
  8 10.965153 0.000065 -0.000006 0.000013 0.000002 -1.067198
  9 0.000007 -0.000004 -4.044200 0.206753 3.263382 -1.334754
 10 -0.000007 0.000007 4.044200 -0.498357 -2.349937 -1.047975
 11 17.182070 0.000091 0.000546 0.000004 -0.000009 -1.989284
 12 16.782913 0.000650 -0.000234 0.032945 0.086094 -0.096100
 13 5.168527 5.004116 -0.000135 0.000010 0.000000 2.033191
 14 17.182070 0.000099 0.000206 -0.000001 -0.000007 -1.636059
 15 16.782906 0.000656 -0.000113 0.214792 -0.032181 0.743581
 16 5.168479 5.004167 -0.000064 0.000011 -0.000001 1.483546
 17 -2.365355 2.102252 2.277943 0.759905 -1.020987 2.148332
 18 5.760273 0.000016 0.000006 -0.537874 0.708133 -0.332470
time 28
  0 3.177613 -3.177613 8.443506 -0.281409 0.436266 -2.443613
  1 0.000000 0.000000 0.000000 -1.570796 -1.570796 0.000000
  2 4.484989 -0.004008 0.000006 0.595407 -0.216132 0.032480
  3 5.037136 -0.005101 -0.000238 -0.085799 0.031140 0.263849
  4 6.388059 -0.005253 -0.000001 -0.143647 0.044631 -0.003810
  5 6.146608 1.394838 0.000001 0.598700 -0.093853 0.255105
  6 -2.775519 -1.179084 -2.469342 1.234198 1.044698 4.027309
  7 5.760270 -0.000012 -0.000009 0.561871 -1.027832 -0.398443
  8 10.965153 0.000065 -0.000006 0.000013 0.000002 -1.078775
  9 0.000007 -0.000004 -4.044200 0.206753 3.263382 -1.334754
 10 -0.000007 0.000007 4.044200 -0.498357 -2.349937 -1.047975
 11 17.182070 0.000091 0.000546 0.000004 -0.000009 -1.989284
 12 16.782913 0.000650 -0.000234 0.032945 0.086094 -0.096100
 13 5.168527 5.004116 -0.000135 0.000010 0.000000 2.033191
 14 17.182070 0.000099 0.000206 -0.000001 -0.000007 -1.636059
 15 16.782906 0.000656 -0.000113 0.214792 -0.032181 0.743581
 16 5.168479 5.004167 -0.000064 0.000011 -0.000001 1.483546
 17 -2.228631 2.125690 2.395134 0.860829 -1.051698 2.059814
 18 5.760273 0.000016 0.000006 -0.557828 0.671562 -0.376559
time 29
  0 3.177613 -3.177613 8.443506 -0.281409 0.436266 -2.443613
  1 0.000000 0.000000 0.000000 -1.570796 -1.570796 0.000000
  2 4.484989 -0.004008 0.000006 0.621015 -0.210554 0.017343
  3 5.037136 -0.005101 -0.000238 -0.095731 0.023619 0.291075
  4 6.388059 -0.005253 -0.000001 -0.150970 0.050074 -0.009176
  5 6.146608 1.394838 0.000001 0.610206 -0.133823 0.228944
  6 -2.892710 -1.190803 -2.320900 1.169527 1.023445 3.973990
  7 5.760270 -0.000012 -0.000009 0.632937 -1.002377 -0.452220
  8 10.965153 0.000065 -0.000006 0.000013 0.000002 -1.090476
  9 0.000007 -0.000004 -4.044200 0.206753 3.263382 -1.334754
 10 -0.000007 0.000007 4.044200 -0.498357 -2.349937 -1.047975
 11 17.182070 0.000091 0.000546 0.000004 -0.000009 -1.989284
 12 16.782913 0.000650 -0.000234 0.032945 0.086094 -0.096100
 13 5.168527 5.004116 -0.000135 0.000010 0.000000 2.033191
 14 17.182070 0.000099 0.000206 -0.000001 -0.000007 -1.636059
 15 16.782906 0.000656 -0.000113 0.214792 -0.032181 0.743581
 16 5.168479 5.004167 -0.000064 0.000011 -0.000001 1.483546
 17 -2.119253 2.153035 2.481074 0.950037 -1.071847 1.979930
 18 5.760273 0.000016 0.000006 -0.574660 0.636645 -0.411758
time 30
  0 3.177613 -3.177613 8.443506 -0.281409 0.436266 -2.443613
  1 0.000000 0.000000 0.000000 -1.570796 -1.570796 0.000000
  2 4.484989 -0.004008 0.000006 0.640415 -0.206318 0.006828
  3 5.037136 -0.005101 -0.000238 -0.102686 0.016186 0.310897
  4 6.388059 -0.005253 -0.000001 -0.159527 0.052320 -0.010883
  5 6.146608 1.394838 0.000001 0.618091 -0.156203 0.214097
  6 -2.955212 -1.202523 -2.234960 1.136477 1.009470 3.946424
  7 5.760270 -0.000012 -0.000009 0.683786 -0.983650 -0.494682
  8 10.965153 0.000065 -0.000006 0.000013 0.000002 -1.100939
  9 0.000007 -0.000004 -4.044200 0.206753 3.263382 -1.334754
 10 -0.000007 0.000007 4.044200 -0.498357 -2.349937 -1.047975
 11 17.182070 0.000091 0.000546 0.000004 -0.000009 -1.989284
 12 16.782913 0.000650 -0.000234 0.032945 0.086094 -0.096100
 13 5.168527 5.004116 -0.000135 0.000010 0.000000 2.033191
 14 17.182070 0.000099 0.000206 -0.000001 -0.000007 -1.636059
 15 16.782906 0.000656 -0.000113 0.214792 -0.032181 0.743581
 16 5.168479 5.004167 -0.000064 0.000011 -0.000001 1.483546
 17 -2.052845 2.164754 2.524044 1.003727 -1.080775 1.931449
 18 5.760273 0.000016 0.000006 -0.588574 0.605473 -0.436855
end
