version 1
nodes
  0 "Bip01"  -1
  1 "Bip01 Pelvis"   0
  2 "Bip01 Spine"   1
  3 "Bip01 Spine1"   2
  4 "Bip01 Spine2"   3
  5 "Bip01 Neck"   4
  6 "Bip01 R Clavicle"   5
  7 "Bip01 R UpperArm"   6
  8 "Bip01 R Forearm"   7
  9 "Bip01 R Thigh"   1
 10 "Bip01 L Thigh"   1
 11 "Bip01 L Calf"  10
 12 "Bip01 L Foot"  11
 13 "Bip01 L Toe0"  12
 14 "Bip01 R Calf"   9
 15 "Bip01 R Foot"  14
 16 "Bip01 R Toe0"  15
 17 "Bip01 L Clavicle"   5
 18 "Bip01 L UpperArm"  17
end
skeleton
time 0
  0 3.177613 -3.177613 8.443506 -0.281409 0.436266 -2.443613
  1 0.000000 0.000000 0.000000 -1.570796 -1.570796 0.000000
  2 4.484989 -0.004008 0.000006 0.640415 -0.206318 0.006828
  3 5.037136 -0.005101 -0.000238 -0.102686 0.016186 0.310897
  4 6.388059 -0.005253 -0.000001 -0.159527 0.052320 -0.010883
  5 6.146608 1.394838 0.000001 -0.000001 -0.000002 0.650292
  6 -2.170032 1.352243 -2.953732 -0.476680 1.281959 2.030949
  7 5.760270 -0.000012 -0.000009 0.683786 -0.983650 -0.494682
  8 10.965153 0.000065 -0.000006 0.000013 0.000002 -1.100939
  9 0.000007 -0.000004 -4.044200 0.206753 3.263382 -1.334754
 10 -0.000007 0.000007 4.044200 -0.498357 -2.349937 -1.047975
 11 17.182070 0.000091 0.000546 0.000004 -0.000009 -1.989284
 12 16.782913 0.000650 -0.000234 0.032945 0.086094 -0.096100
 13 5.168527 5.004116 -0.000135 0.000010 0.000000 2.033191
 14 17.182070 0.000099 0.000206 -0.000001 -0.000007 -1.636059
 15 16.782906 0.000656 -0.000113 0.214792 -0.032181 0.743581
 16 5.168479 5.004167 -0.000064 0.000011 -0.000001 1.483546
 17 -2.170036 1.352229 2.953745 -0.696478 -1.212798 3.154858
 18 5.760273 0.000016 0.000006 -0.588574 0.605473 -0.436855
time 1
  0 3.302616 -5.560682 8.646638 -0.276915 0.443233 -2.437792
  1 0.000000 0.000000 0.000000 -1.570796 -1.570796 0.000000
  2 4.484989 -0.004008 0.000006 0.640415 -0.206318 0.006828
  3 5.037136 -0.005101 -0.000238 -0.102686 0.016186 0.310897
  4 6.388059 -0.005253 -0.000001 -0.159527 0.052320 -0.010883
  5 6.146608 1.394838 0.000001 -0.000001 -0.000002 0.650292
  6 -2.170032 1.352243 -2.953732 -0.476680 1.281959 2.030949
  7 5.760270 -0.000012 -0.000009 0.683786 -0.983650 -0.494682
  8 10.965153 0.000065 -0.000006 0.000013 0.000002 -1.100939
  9 0.000007 -0.000004 -4.044200 0.145563 3.214372 -1.296634
 10 -0.000007 0.000007 4.044200 -0.317498 -2.270011 -1.364635
 11 17.182070 0.000091 0.000546 0.000004 -0.000009 -1.962539
 12 16.782913 0.000650 -0.000234 0.032381 0.120321 -0.091515
 13 5.168527 5.004116 -0.000135 0.000010 0.000000 2.019712
 14 17.182070 0.000099 0.000206 -0.000001 -0.000007 -1.640102
 15 16.782906 0.000656 -0.000113 0.137716 0.042575 0.694808
 16 5.168479 5.004167 -0.000064 0.000011 -0.000001 1.556640
 17 -2.170036 1.352229 2.953745 -0.696478 -1.212798 3.154858
 18 5.760273 0.000016 0.000006 -0.588574 0.605473 -0.436855
time 2
  0 3.462778 -7.978909 9.064619 -0.269648 0.453857 -2.428121
  1 0.000000 0.000000 0.000000 -1.570796 -1.570796 0.000000
  2 4.484989 -0.004008 0.000006 0.640415 -0.206318 0.006828
  3 5.037136 -0.005101 -0.000238 -0.102686 0.016186 0.310897
  4 6.388059 -0.005253 -0.000001 -0.159527 0.052320 -0.010883
  5 6.146608 1.394838 0.000001 -0.000001 -0.000002 0.650292
  6 -2.170032 1.352243 -2.953732 -0.476680 1.281959 2.030949
  7 5.760270 -0.000012 -0.000009 0.683786 -0.983650 -0.494682
  8 10.965153 0.000065 -0.000006 0.000013 0.000002 -1.100939
  9 0.000007 -0.000004 -4.044200 0.076026 3.157815 -1.237495
 10 -0.000007 0.000007 4.044200 2.933070 -0.896008 1.554027
 11 17.182070 0.000091 0.000546 0.000004 -0.000009 -1.847817
 12 16.782913 0.000650 -0.000234 0.043981 0.161628 -0.094470
 13 5.168527 5.004116 -0.000135 0.000010 0.000000 1.987173
 14 17.182070 0.000099 0.000206 -0.000001 -0.000007 -1.610704
 15 16.782906 0.000656 -0.000113 0.053792 0.119738 0.638658
 16 5.168479 5.004167 -0.000064 0.000011 -0.000001 1.702769
 17 -2.170036 1.352229 2.953745 -0.696478 -1.212798 3.154858
 18 5.760273 0.000016 0.000006 -0.588574 0.605473 -0.436855
time 3
  0 3.650283 -10.424481 9.533383 -0.262094 0.464975 -2.418075
  1 0.000000 0.000000 0.000000 -1.570796 -1.570796 0.000000
  2 4.484989 -0.004008 0.000006 0.640415 -0.206318 0.006828
  3 5.037136 -0.005101 -0.000238 -0.102686 0.016186 0.310897
  4 6.388059 -0.005253 -0.000001 -0.159527 0.052320 -0.010883
  5 6.146608 1.394838 0.000001 -0.000001 -0.000002 0.650292
  6 -2.170032 1.352243 -2.953732 -0.476680 1.281959 2.030949
  7 5.760270 -0.000012 -0.000009 0.683786 -0.983650 -0.494682
  8 10.965153 0.000065 -0.000006 0.000013 0.000002 -1.100939
  9 0.000007 -0.000004 -4.044200 0.005824 3.099346 -1.170808
 10 -0.000007 0.000007 4.044200 2.958757 -0.893711 1.443153
 11 17.182070 0.000091 0.000546 0.000004 -0.000009 -1.678243
 12 16.782913 0.000650 -0.000234 0.073165 0.195541 -0.067910
 13 5.168527 5.004116 -0.000135 0.000010 0.000000 1.954601
 14 17.182070 0.000099 0.000206 -0.000001 -0.000007 -1.554716
 15 16.782906 0.000656 -0.000113 -0.025757 0.189519 0.558386
 16 5.168479 5.004167 -0.000064 0.000011 -0.000001 1.775843
 17 -2.170036 1.352229 2.953745 -0.696478 -1.212798 3.154858
 18 5.760273 0.000016 0.000006 -0.588574 0.605473 -0.436855
time 4
  0 3.861227 -12.893491 9.896676 -0.255592 0.475154 -2.410094
  1 0.000000 0.000000 0.000000 -1.570796 -1.570796 0.000000
  2 4.484989 -0.004008 0.000006 0.640415 -0.206318 0.006828
  3 5.037136 -0.005101 -0.000238 -0.102686 0.016186 0.310897
  4 6.388059 -0.005253 -0.000001 -0.159527 0.052320 -0.010883
  5 6.146608 1.394838 0.000001 -0.000001 -0.000002 0.650292
  6 -2.170032 1.352243 -2.953732 -0.476680 1.281959 2.030949
  7 5.760270 -0.000012 -0.000009 0.683786 -0.983650 -0.494682
  8 10.965153 0.000065 -0.000006 0.000013 0.000002 -1.100939
  9 0.000007 -0.000004 -4.044200 -0.059255 3.040592 -1.120171
 10 -0.000007 0.000007 4.044200 2.931441 -0.879196 1.409795
 11 17.182070 0.000091 0.000546 0.000004 -0.000009 -1.478913
 12 16.782913 0.000650 -0.000234 0.120938 0.211960 0.002020
 13 5.168527 5.004116 -0.000135 0.000010 0.000000 1.941122
 14 17.182070 0.000099 0.000206 -0.000001 -0.000007 -1.487353
 15 16.782906 0.000656 -0.000113 -0.098653 0.238720 0.424222
 16 5.168479 5.004167 -0.000064 0.000011 -0.000001 1.929114
 17 -2.170036 1.352229 2.953745 -0.696478 -1.212798 3.154858
 18 5.760273 0.000016 0.000006 -0.588574 0.605473 -0.436855
time 5
  0 4.095610 -15.385940 9.990429 -0.251289 0.483060 -2.406714
  1 0.000000 0.000000 0.000000 -1.570796 -1.570796 0.000000
  2 4.484989 -0.004008 0.000006 0.640415 -0.206318 0.006828
  3 5.037136 -0.005101 -0.000238 -0.102686 0.016186 0.310897
  4 6.388059 -0.005253 -0.000001 -0.159527 0.052320 -0.010883
  5 6.146608 1.394838 0.000001 -0.000001 -0.000002 0.650292
  6 -2.170032 1.352243 -2.953732 -0.476680 1.281959 2.030949
  7 5.760270 -0.000012 -0.000009 0.683786 -0.983650 -0.494682
  8 10.965153 0.000065 -0.000006 0.000013 0.000002 -1.100939
  9 0.000007 -0.000004 -4.044200 -0.140367 2.995594 -1.066573
 10 -0.000007 0.000007 4.044200 2.890611 -0.855494 1.405781
 11 17.182070 0.000091 0.000546 0.000004 -0.000009 -1.238928
 12 16.782913 0.000650 -0.000234 0.197552 0.186293 0.182466
 13 5.168527 5.004116 -0.000135 0.000010 0.000000 1.925783
 14 17.182070 0.000099 0.000206 -0.000001 -0.000007 -1.417043
 15 16.782906 0.000656 -0.000113 -0.143835 0.290716 0.299466
 16 5.168479 5.004167 -0.000064 0.000011 -0.000001 2.082343
 17 -2.170036 1.352229 2.953745 -0.696478 -1.212798 3.154858
 18 5.760273 0.000016 0.000006 -0.588574 0.605473 -0.436855
time 6
  0 4.341711 -17.890106 9.990429 -0.251289 0.489138 -2.411972
  1 0.000000 0.000000 0.000000 -1.570796 -1.570796 0.000000
  2 4.484989 -0.004008 0.000006 0.640415 -0.206318 0.006828
  3 5.037136 -0.005101 -0.000238 -0.102686 0.016186 0.310897
  4 6.388059 -0.005253 -0.000001 -0.159527 0.052320 -0.010883
  5 6.146608 1.394838 0.000001 -0.000001 -0.000002 0.650292
  6 -2.170032 1.352243 -2.953732 -0.476680 1.281959 2.030949
  7 5.760270 -0.000012 -0.000009 0.683786 -0.983650 -0.494682
  8 10.965153 0.000065 -0.000006 0.000013 0.000002 -1.100939
  9 0.000007 -0.000004 -4.044200 -0.294242 3.010020 -0.947435
 10 -0.000007 0.000007 4.044200 2.834542 -0.831791 1.444491
 11 17.182070 0.000091 0.000546 0.000004 -0.000009 -1.028556
 12 16.782913 0.000650 -0.000234 0.248784 0.142707 0.323380
 13 5.168527 5.004116 -0.000135 0.000010 0.000000 1.910444
 14 17.182070 0.000099 0.000206 -0.000001 -0.000007 -1.310071
 15 16.782906 0.000656 -0.000113 -0.036328 0.405524 0.313955
 16 5.168479 5.004167 -0.000064 0.000011 -0.000001 2.068202
 17 -2.170036 1.352229 2.953745 -0.696478 -1.212798 3.154858
 18 5.760273 0.000016 0.000006 -0.588574 0.605473 -0.436855
time 7
  0 4.591719 -20.398180 9.959178 -0.254540 0.494326 -2.425493
  1 0.000000 0.000000 0.000000 -1.570796 -1.570796 0.000000
  2 4.484989 -0.004008 0.000006 0.640415 -0.206318 0.006828
  3 5.037136 -0.005101 -0.000238 -0.102686 0.016186 0.310897
  4 6.388059 -0.005253 -0.000001 -0.159527 0.052320 -0.010883
  5 6.146608 1.394838 0.000001 -0.000001 -0.000002 0.650292
  6 -2.170032 1.352243 -2.953732 -0.476680 1.281959 2.030949
  7 5.760270 -0.000012 -0.000009 0.683786 -0.983650 -0.494682
  8 10.965153 0.000065 -0.000006 0.000013 0.000002 -1.100939
  9 0.000007 -0.000004 -4.044200 -0.340727 2.985467 -0.880079
 10 -0.000007 0.000007 4.044200 2.832721 -0.830873 1.440094
 11 17.182070 0.000091 0.000546 0.000004 -0.000009 -1.049995
 12 16.782913 0.000650 -0.000234 0.228723 0.177009 0.265235
 13 5.168527 5.004116 -0.000135 0.000010 0.000000 1.883029
 14 17.182070 0.000099 0.000206 -0.000001 -0.000007 -1.227289
 15 16.782906 0.000656 -0.000113 -0.111632 0.161742 0.137265
 16 5.168479 5.004167 -0.000064 0.000011 -0.000001 2.138687
 17 -2.170036 1.352229 2.953745 -0.696478 -1.212798 3.154858
 18 5.760273 0.000016 0.000006 -0.588574 0.605473 -0.436855
time 8
  0 4.822194 -22.886723 9.841987 -0.258556 0.497785 -2.438543
  1 0.000000 0.000000 0.000000 -1.570796 -1.570796 0.000000
  2 4.484989 -0.004008 0.000006 0.640415 -0.206318 0.006828
  3 5.037136 -0.005101 -0.000238 -0.102686 0.016186 0.310897
  4 6.388059 -0.005253 -0.000001 -0.159527 0.052320 -0.010883
  5 6.146608 1.394838 0.000001 -0.000001 -0.000002 0.650292
  6 -2.170032 1.352243 -2.953732 -0.476680 1.281959 2.030949
  7 5.760270 -0.000012 -0.000009 0.683786 -0.983650 -0.494682
  8 10.965153 0.000065 -0.000006 0.000013 0.000002 -1.100939
  9 0.000007 -0.000004 -4.044200 -0.354388 2.974385 -0.871385
 10 -0.000007 0.000007 4.044200 2.850165 -0.837303 1.421169
 11 17.182070 0.000091 0.000546 0.000004 -0.000009 -1.170740
 12 16.782913 0.000650 -0.000234 0.176780 0.209458 0.164534
 13 5.168527 5.004116 -0.000135 0.000010 0.000000 1.855614
 14 17.182070 0.000099 0.000206 -0.000001 -0.000007 -1.195561
 15 16.782906 0.000656 -0.000113 -0.136500 -0.010449 -0.212765
 16 5.168479 5.004167 -0.000064 0.000011 -0.000001 2.209232
 17 -2.170036 1.352229 2.953745 -0.696478 -1.212798 3.154858
 18 5.760273 0.000016 0.000006 -0.588574 0.605473 -0.436855
time 9
  0 5.064389 -25.386982 9.689638 -0.263911 0.500157 -2.454504
  1 0.000000 0.000000 0.000000 -1.570796 -1.570796 0.000000
  2 4.484989 -0.004008 0.000006 0.640415 -0.206318 0.006828
  3 5.037136 -0.005101 -0.000238 -0.102686 0.016186 0.310897
  4 6.388059 -0.005253 -0.000001 -0.159527 0.052320 -0.010883
  5 6.146608 1.394838 0.000001 -0.000001 -0.000002 0.650292
  6 -2.170032 1.352243 -2.953732 -0.476680 1.281959 2.030949
  7 5.760270 -0.000012 -0.000009 0.683786 -0.983650 -0.494682
  8 10.965153 0.000065 -0.000006 0.000013 0.000002 -1.100939
  9 0.000007 -0.000004 -4.044200 -0.465382 3.156955 -1.089025
 10 -0.000007 0.000007 4.044200 2.838376 -0.844653 1.441337
 11 17.182070 0.000091 0.000546 0.000004 -0.000009 -1.307403
 12 16.782913 0.000650 -0.000234 0.143623 0.126844 0.181991
 13 5.168527 5.004116 -0.000135 0.000010 0.000000 1.494978
 14 17.182070 0.000099 0.000206 -0.000001 -0.000007 -1.544231
 15 16.782906 0.000656 -0.000113 -0.148633 0.093503 -0.403267
 16 5.168479 5.004167 -0.000064 0.000011 -0.000001 1.304137
 17 -2.170036 1.352229 2.953745 -0.696478 -1.212798 3.154858
 18 5.760273 0.000016 0.000006 -0.588574 0.605473 -0.436855
time 10
  0 5.271427 -27.852087 9.502132 -0.271465 0.502084 -2.474409
  1 0.000000 0.000000 0.000000 -1.570796 -1.570796 0.000000
  2 4.484989 -0.004008 0.000006 0.640415 -0.206318 0.006828
  3 5.037136 -0.005101 -0.000238 -0.102686 0.016186 0.310897
  4 6.388059 -0.005253 -0.000001 -0.159527 0.052320 -0.010883
  5 6.146608 1.394838 0.000001 -0.000001 -0.000002 0.650292
  6 -2.170032 1.352243 -2.953732 -0.476680 1.281959 2.030949
  7 5.760270 -0.000012 -0.000009 0.683786 -0.983650 -0.494682
  8 10.965153 0.000065 -0.000006 0.000013 0.000002 -1.100939
  9 0.000007 -0.000004 -4.044200 -0.378294 3.168037 -1.215043
 10 -0.000007 0.000007 4.044200 2.824287 -0.846582 1.477180
 11 17.182070 0.000091 0.000546 0.000004 -0.000009 -1.452670
 12 16.782913 0.000650 -0.000234 0.122115 0.123638 0.310372
 13 5.168527 5.004116 -0.000135 0.000010 0.000000 1.539821
 14 17.182070 0.000099 0.000206 -0.000001 -0.000007 -1.618173
 15 16.782906 0.000656 -0.000113 -0.274356 0.032994 -0.343204
 16 5.168479 5.004167 -0.000064 0.000011 -0.000001 1.539080
 17 -2.170036 1.352229 2.953745 -0.696478 -1.212798 3.154858
 18 5.760273 0.000016 0.000006 -0.588574 0.605473 -0.436855
time 11
  0 5.470651 -30.309376 9.306814 -0.278923 0.503764 -2.494877
  1 0.000000 0.000000 0.000000 -1.570796 -1.570796 0.000000
  2 4.484989 -0.004008 0.000006 0.640415 -0.206318 0.006828
  3 5.037136 -0.005101 -0.000238 -0.102686 0.016186 0.310897
  4 6.388059 -0.005253 -0.000001 -0.159527 0.052320 -0.010883
  5 6.146608 1.394838 0.000001 -0.000001 -0.000002 0.650292
  6 -2.170032 1.352243 -2.953732 -0.476680 1.281959 2.030949
  7 5.760270 -0.000012 -0.000009 0.683786 -0.983650 -0.494682
  8 10.965153 0.000065 -0.000006 0.000013 0.000002 -1.100939
  9 0.000007 -0.000004 -4.044200 -0.266161 3.154853 -1.322239
 10 -0.000007 0.000007 4.044200 2.783361 -0.836752 1.548961
 11 17.182070 0.000091 0.000546 0.000004 -0.000009 -1.567536
 12 16.782913 0.000650 -0.000234 0.099725 0.136851 0.449247
 13 5.168527 5.004116 -0.000135 0.000010 0.000000 1.629441
 14 17.182070 0.000099 0.000206 -0.000001 -0.000007 -1.650998
 15 16.782906 0.000656 -0.000113 -0.351124 -0.004322 -0.242835
 16 5.168479 5.004167 -0.000064 0.000011 -0.000001 1.773921
 17 -2.170036 1.352229 2.953745 -0.696478 -1.212798 3.154858
 18 5.760273 0.000016 0.000006 -0.588574 0.605473 -0.436855
time 12
  0 5.630812 -32.727604 9.123215 -0.285043 0.505197 -2.511214
  1 0.000000 0.000000 0.000000 -1.570796 -1.570796 0.000000
  2 4.484989 -0.004008 0.000006 0.640415 -0.206318 0.006828
  3 5.037136 -0.005101 -0.000238 -0.102686 0.016186 0.310897
  4 6.388059 -0.005253 -0.000001 -0.159527 0.052320 -0.010883
  5 6.146608 1.394838 0.000001 -0.000001 -0.000002 0.650292
  6 -2.170032 1.352243 -2.953732 -0.476680 1.281959 2.030949
  7 5.760270 -0.000012 -0.000009 0.683786 -0.983650 -0.494682
  8 10.965153 0.000065 -0.000006 0.000013 0.000002 -1.100939
  9 0.000007 -0.000004 -4.044200 -0.169776 3.171476 -1.439848
 10 -0.000007 0.000007 4.044200 -0.414685 -2.326419 -1.503896
 11 17.182070 0.000091 0.000546 0.000004 -0.000009 -1.649348
 12 16.782913 0.000650 -0.000234 0.073680 0.148934 0.549812
 13 5.168527 5.004116 -0.000135 0.000010 0.000000 1.674284
 14 17.182070 0.000099 0.000206 -0.000001 -0.000007 -1.703079
 15 16.782906 0.000656 -0.000113 -0.284944 0.012845 -0.185255
 16 5.168479 5.004167 -0.000064 0.000011 -0.000001 1.766476
 17 -2.170036 1.352229 2.953745 -0.696478 -1.212798 3.154858
 18 5.760273 0.000016 0.000006 -0.588574 0.605473 -0.436855
time 13
  0 5.767535 -35.122391 8.970866 -0.287051 0.506136 -2.517129
  1 0.000000 0.000000 0.000000 -1.570796 -1.570796 0.000000
  2 4.484989 -0.004008 0.000006 0.640415 -0.206318 0.006828
  3 5.037136 -0.005101 -0.000238 -0.102686 0.016186 0.310897
  4 6.388059 -0.005253 -0.000001 -0.159527 0.052320 -0.010883
  5 6.146608 1.394838 0.000001 -0.000001 -0.000002 0.650292
  6 -2.170032 1.352243 -2.953732 -0.476680 1.281959 2.030949
  7 5.760270 -0.000012 -0.000009 0.683786 -0.983650 -0.494682
  8 10.965153 0.000065 -0.000006 0.000013 0.000002 -1.100939
  9 0.000007 -0.000004 -4.044200 -0.061437 3.182845 -1.549624
 10 -0.000007 0.000007 4.044200 -0.461744 -2.356092 -1.432019
 11 17.182070 0.000091 0.000546 0.000004 -0.000009 -1.715026
 12 16.782913 0.000650 -0.000234 0.039959 0.146247 0.572160
 13 5.168527 5.004116 -0.000135 0.000010 0.000000 1.769616
 14 17.182070 0.000099 0.000206 -0.000001 -0.000007 -1.739194
 15 16.782906 0.000656 -0.000113 -0.168947 0.018561 -0.131439
 16 5.168479 5.004167 -0.000064 0.000011 -0.000001 1.746852
 17 -2.170036 1.352229 2.953745 -0.696478 -1.212798 3.154858
 18 5.760273 0.000016 0.000006 -0.588574 0.605473 -0.436855
time 14
  0 5.853475 -37.466400 8.877113 -0.282461 0.511077 -2.508397
  1 0.000000 0.000000 0.000000 -1.570796 -1.570796 0.000000
  2 4.484989 -0.004008 0.000006 0.640415 -0.206318 0.006828
  3 5.037136 -0.005101 -0.000238 -0.102686 0.016186 0.310897
  4 6.388059 -0.005253 -0.000001 -0.159527 0.052320 -0.010883
  5 6.146608 1.394838 0.000001 -0.000001 -0.000002 0.650292
  6 -2.170032 1.352243 -2.953732 -0.476680 1.281959 2.030949
  7 5.760270 -0.000012 -0.000009 0.683786 -0.983650 -0.494682
  8 10.965153 0.000065 -0.000006 0.000013 0.000002 -1.100939
  9 0.000007 -0.000004 -4.044200 -3.092639 -0.049621 1.492658
 10 -0.000007 0.000007 4.044200 -0.499795 -2.387420 -1.382317
 11 17.182070 0.000091 0.000546 0.000004 -0.000009 -1.757043
 12 16.782913 0.000650 -0.000234 0.015630 0.141521 0.540846
 13 5.168527 5.004116 -0.000135 0.000010 0.000000 1.864948
 14 17.182070 0.000099 0.000206 -0.000001 -0.000007 -1.750090
 15 16.782906 0.000656 -0.000113 -0.020471 0.015827 -0.074612
 16 5.168479 5.004167 -0.000064 0.000011 -0.000001 1.722656
 17 -2.170036 1.352229 2.953745 -0.696478 -1.212798 3.154858
 18 5.760273 0.000016 0.000006 -0.588574 0.605473 -0.436855
time 15
  0 5.892539 -39.763527 8.865395 -0.278254 0.511769 -2.498914
  1 0.000000 0.000000 0.000000 -1.570796 -1.570796 0.000000
  2 4.484989 -0.004008 0.000006 0.640415 -0.206318 0.006828
  3 5.037136 -0.005101 -0.000238 -0.102686 0.016186 0.310897
  4 6.388059 -0.005253 -0.000001 -0.159527 0.052320 -0.010883
  5 6.146608 1.394838 0.000001 -0.000001 -0.000002 0.650292
  6 -2.170032 1.352243 -2.953732 -0.476680 1.281959 2.030949
  7 5.760270 -0.000012 -0.000009 0.683786 -0.983650 -0.494682
  8 10.965153 0.000065 -0.000006 0.000013 0.000002 -1.100939
  9 0.000007 -0.000004 -4.044200 -2.980790 -0.067868 1.412595
 10 -0.000007 0.000007 4.044200 -0.514938 -2.393392 -1.365208
 11 17.182070 0.000091 0.000546 0.000004 -0.000009 -1.764285
 12 16.782913 0.000650 -0.000234 0.005723 0.141558 0.454036
 13 5.168527 5.004116 -0.000135 0.000010 0.000000 1.971148
 14 17.182070 0.000099 0.000206 -0.000001 -0.000007 -1.723090
 15 16.782906 0.000656 -0.000113 0.131129 -0.000539 -0.016506
 16 5.168479 5.004167 -0.000064 0.000011 -0.000001 1.703113
 17 -2.170036 1.352229 2.953745 -0.696478 -1.212798 3.154858
 18 5.760273 0.000016 0.000006 -0.588574 0.605473 -0.436855
time 16
  0 5.912071 -42.041126 8.869301 -0.280166 0.505296 -2.503046
  1 0.000000 0.000000 0.000000 -1.570796 -1.570796 0.000000
  2 4.484989 -0.004008 0.000006 0.640415 -0.206318 0.006828
  3 5.037136 -0.005101 -0.000238 -0.102686 0.016186 0.310897
  4 6.388059 -0.005253 -0.000001 -0.159527 0.052320 -0.010883
  5 6.146608 1.394838 0.000001 -0.000001 -0.000002 0.650292
  6 -2.170032 1.352243 -2.953732 -0.476680 1.281959 2.030949
  7 5.760270 -0.000012 -0.000009 0.683786 -0.983650 -0.494682
  8 10.965153 0.000065 -0.000006 0.000013 0.000002 -1.100939
  9 0.000007 -0.000004 -4.044200 -2.878618 6.179719 1.362055
 10 -0.000007 0.000007 4.044200 -0.534586 -2.400465 -1.326307
 11 17.182070 0.000091 0.000546 0.000004 -0.000009 -1.767153
 12 16.782913 0.000650 -0.000234 -0.002125 0.142615 0.394804
 13 5.168527 5.004116 -0.000135 0.000010 0.000000 2.077381
 14 17.182070 0.000099 0.000206 -0.000001 -0.000007 -1.655658
 15 16.782906 0.000656 -0.000113 0.247369 -0.017543 0.052552
 16 5.168479 5.004167 -0.000064 0.000011 -0.000001 1.695587
 17 -2.170036 1.352229 2.953745 -0.696478 -1.212798 3.154858
 18 5.760273 0.000016 0.000006 -0.588574 0.605473 -0.436855
time 17
  0 5.873007 -44.260132 9.021649 -0.284469 0.493140 -2.511683
  1 0.000000 0.000000 0.000000 -1.570796 -1.570796 0.000000
  2 4.484989 -0.004008 0.000006 0.640415 -0.206318 0.006828
  3 5.037136 -0.005101 -0.000238 -0.102686 0.016186 0.310897
  4 6.388059 -0.005253 -0.000001 -0.159527 0.052320 -0.010883
  5 6.146608 1.394838 0.000001 -0.000001 -0.000002 0.650292
  6 -2.170032 1.352243 -2.953732 -0.476680 1.281959 2.030949
  7 5.760270 -0.000012 -0.000009 0.683786 -0.983650 -0.494682
  8 10.965153 0.000065 -0.000006 0.000013 0.000002 -1.100939
  9 0.000007 -0.000004 -4.044200 -2.803198 6.120391 1.341800
 10 -0.000007 0.000007 4.044200 -0.593818 -2.448421 -1.206735
 11 17.182070 0.000091 0.000546 0.000004 -0.000009 -1.762779
 12 16.782913 0.000650 -0.000234 0.000671 0.151473 0.439636
 13 5.168527 5.004116 -0.000135 0.000010 0.000000 2.083288
 14 17.182070 0.000099 0.000206 -0.000001 -0.000007 -1.546424
 15 16.782906 0.000656 -0.000113 0.328122 0.001332 0.161501
 16 5.168479 5.004167 -0.000064 0.000011 -0.000001 1.664552
 17 -2.170036 1.352229 2.953745 -0.696478 -1.212798 3.154858
 18 5.760273 0.000016 0.000006 -0.588574 0.605473 -0.436855
time 18
  0 5.783161 -46.428349 9.209155 -0.289250 0.479107 -2.522011
  1 0.000000 0.000000 0.000000 -1.570796 -1.570796 0.000000
  2 4.484989 -0.004008 0.000006 0.640415 -0.206318 0.006828
  3 5.037136 -0.005101 -0.000238 -0.102686 0.016186 0.310897
  4 6.388059 -0.005253 -0.000001 -0.159527 0.052320 -0.010883
  5 6.146608 1.394838 0.000001 -0.000001 -0.000002 0.650292
  6 -2.170032 1.352243 -2.953732 -0.476680 1.281959 2.030949
  7 5.760270 -0.000012 -0.000009 0.683786 -0.983650 -0.494682
  8 10.965153 0.000065 -0.000006 0.000013 0.000002 -1.100939
  9 0.000007 -0.000004 -4.044200 -2.756144 6.043962 1.342851
 10 -0.000007 0.000007 4.044200 -0.658705 -2.523755 -1.061930
 11 17.182070 0.000091 0.000546 0.000004 -0.000009 -1.732450
 12 16.782913 0.000650 -0.000234 0.003859 0.164686 0.503894
 13 5.168527 5.004116 -0.000135 0.000010 0.000000 2.095103
 14 17.182070 0.000099 0.000206 -0.000001 -0.000007 -1.402515
 15 16.782906 0.000656 -0.000113 0.391406 0.045680 0.305074
 16 5.168479 5.004167 -0.000064 0.000011 -0.000001 1.589536
 17 -2.170036 1.352229 2.953745 -0.696478 -1.212798 3.154858
 18 5.760273 0.000016 0.000006 -0.588574 0.605473 -0.436855
time 19
  0 5.654251 -48.557507 9.365410 -0.293553 0.465469 -2.530743
  1 0.000000 0.000000 0.000000 -1.570796 -1.570796 0.000000
  2 4.484989 -0.004008 0.000006 0.640415 -0.206318 0.006828
  3 5.037136 -0.005101 -0.000238 -0.102686 0.016186 0.310897
  4 6.388059 -0.005253 -0.000001 -0.159527 0.052320 -0.010883
  5 6.146608 1.394838 0.000001 -0.000001 -0.000002 0.650292
  6 -2.170032 1.352243 -2.953732 -0.476680 1.281959 2.030949
  7 5.760270 -0.000012 -0.000009 0.683786 -0.983650 -0.494682
  8 10.965153 0.000065 -0.000006 0.000013 0.000002 -1.100939
  9 0.000007 -0.000004 -4.044200 -2.730150 5.963521 1.365972
 10 -0.000007 0.000007 4.044200 -0.704902 -2.598629 -0.940446
 11 17.182070 0.000091 0.000546 0.000004 -0.000009 -1.686632
 12 16.782913 0.000650 -0.000234 -0.004651 0.171320 0.504607
 13 5.168527 5.004116 -0.000135 0.000010 0.000000 2.101010
 14 17.182070 0.000099 0.000206 -0.000001 -0.000007 -1.232497
 15 16.782906 0.000656 -0.000113 0.440231 0.080406 0.434044
 16 5.168479 5.004167 -0.000064 0.000011 -0.000001 1.514641
 17 -2.170036 1.352229 2.953745 -0.696478 -1.212798 3.154858
 18 5.760273 0.000016 0.000006 -0.588574 0.605473 -0.436855
time 20
  0 5.482370 -50.643688 9.373222 -0.295274 0.454697 -2.534874
  1 0.000000 0.000000 0.000000 -1.570796 -1.570796 0.000000
  2 4.484989 -0.004008 0.000006 0.640415 -0.206318 0.006828
  3 5.037136 -0.005101 -0.000238 -0.102686 0.016186 0.310897
  4 6.388059 -0.005253 -0.000001 -0.159527 0.052320 -0.010883
  5 6.146608 1.394838 0.000001 -0.000001 -0.000002 0.650292
  6 -2.170032 1.352243 -2.953732 -0.476680 1.281959 2.030949
  7 5.760270 -0.000012 -0.000009 0.683786 -0.983650 -0.494682
  8 10.965153 0.000065 -0.000006 0.000013 0.000002 -1.100939
  9 0.000007 -0.000004 -4.044200 -2.718102 5.887378 1.411927
 10 -0.000007 0.000007 4.044200 -0.719950 -2.633080 -0.882142
 11 17.182070 0.000091 0.000546 0.000004 -0.000009 -1.658239
 12 16.782913 0.000650 -0.000234 -0.033688 0.151714 0.344912
 13 5.168527 5.004116 -0.000135 0.000010 0.000000 2.238835
 14 17.182070 0.000099 0.000206 -0.000001 -0.000007 -1.041647
 15 16.782906 0.000656 -0.000113 0.466579 0.083141 0.492903
 16 5.168479 5.004167 -0.000064 0.000011 -0.000001 1.483546
 17 -2.170036 1.352229 2.953745 -0.696478 -1.212798 3.154858
 18 5.760273 0.000016 0.000006 -0.588574 0.605473 -0.436855
time 21
  0 5.263614 -52.683002 9.365410 -0.294605 0.445605 -2.532245
  1 0.000000 0.000000 0.000000 -1.570796 -1.570796 0.000000
  2 4.484989 -0.004008 0.000006 0.640415 -0.206318 0.006828
  3 5.037136 -0.005101 -0.000238 -0.102686 0.016186 0.310897
  4 6.388059 -0.005253 -0.000001 -0.159527 0.052320 -0.010883
  5 6.146608 1.394838 0.000001 -0.000001 -0.000002 0.650292
  6 -2.170032 1.352243 -2.953732 -0.476680 1.281959 2.030949
  7 5.760270 -0.000012 -0.000009 0.683786 -0.983650 -0.494682
  8 10.965153 0.000065 -0.000006 0.000013 0.000002 -1.100939
  9 0.000007 -0.000004 -4.044200 -2.753014 5.805599 1.535651
 10 -0.000007 0.000007 4.044200 -0.729822 -2.665142 -0.827661
 11 17.182070 0.000091 0.000546 0.000004 -0.000009 -1.630992
 12 16.782913 0.000650 -0.000234 -0.057158 0.118023 0.184334
 13 5.168527 5.004116 -0.000135 0.000010 0.000000 2.376627
 14 17.182070 0.000099 0.000206 -0.000001 -0.000007 -0.819890
 15 16.782906 0.000656 -0.000113 0.438312 -0.036766 0.087288
 16 5.168479 5.004167 -0.000064 0.000011 -0.000001 1.483546
 17 -2.170036 1.352229 2.953745 -0.696478 -1.212798 3.154858
 18 5.760273 0.000016 0.000006 -0.588574 0.605473 -0.436855
time 22
  0 5.040951 -54.718403 9.310720 -0.291832 0.435772 -2.525391
  1 0.000000 0.000000 0.000000 -1.570796 -1.570796 0.000000
  2 4.484989 -0.004008 0.000006 0.640415 -0.206318 0.006828
  3 5.037136 -0.005101 -0.000238 -0.102686 0.016186 0.310897
  4 6.388059 -0.005253 -0.000001 -0.159527 0.052320 -0.010883
  5 6.146608 1.394838 0.000001 -0.000001 -0.000002 0.650292
  6 -2.170032 1.352243 -2.953732 -0.476680 1.281959 2.030949
  7 5.760270 -0.000012 -0.000009 0.683786 -0.983650 -0.494682
  8 10.965153 0.000065 -0.000006 0.000013 0.000002 -1.100939
  9 0.000007 -0.000004 -4.044200 -2.764682 5.811427 1.552944
 10 -0.000007 0.000007 4.044200 -0.754262 -2.750030 -0.716118
 11 17.182070 0.000091 0.000546 0.000004 -0.000009 -1.558717
 12 16.782913 0.000650 -0.000234 -0.066477 0.093988 0.179681
 13 5.168527 5.004116 -0.000135 0.000010 0.000000 2.283645
 14 17.182070 0.000099 0.000206 -0.000001 -0.000007 -0.812009
 15 16.782906 0.000656 -0.000113 0.400969 -0.014130 -0.046086
 16 5.168479 5.004167 -0.000064 0.000011 -0.000001 1.527265
 17 -2.170036 1.352229 2.953745 -0.696478 -1.212798 3.154858
 18 5.760273 0.000016 0.000006 -0.588574 0.605473 -0.436855
time 23
  0 4.798756 -56.734276 9.240406 -0.288007 0.426927 -2.516002
  1 0.000000 0.000000 0.000000 -1.570796 -1.570796 0.000000
  2 4.484989 -0.004008 0.000006 0.640415 -0.206318 0.006828
  3 5.037136 -0.005101 -0.000238 -0.102686 0.016186 0.310897
  4 6.388059 -0.005253 -0.000001 -0.159527 0.052320 -0.010883
  5 6.146608 1.394838 0.000001 -0.000001 -0.000002 0.650292
  6 -2.170032 1.352243 -2.953732 -0.476680 1.281959 2.030949
  7 5.760270 -0.000012 -0.000009 0.683786 -0.983650 -0.494682
  8 10.965153 0.000065 -0.000006 0.000013 0.000002 -1.100939
  9 0.000007 -0.000004 -4.044200 -2.766675 5.844005 1.535460
 10 -0.000007 0.000007 4.044200 -0.770843 -2.850443 -0.597597
 11 17.182070 0.000091 0.000546 0.000004 -0.000009 -1.459697
 12 16.782913 0.000650 -0.000234 -0.075551 0.073251 0.200942
 13 5.168527 5.004116 -0.000135 0.000010 0.000000 2.097681
 14 17.182070 0.000099 0.000206 -0.000001 -0.000007 -0.910210
 15 16.782906 0.000656 -0.000113 0.361740 0.005464 -0.056059
 16 5.168479 5.004167 -0.000064 0.000011 -0.000001 1.570944
 17 -2.170036 1.352229 2.953745 -0.696478 -1.212798 3.154858
 18 5.760273 0.000016 0.000006 -0.588574 0.605473 -0.436855
time 24
  0 4.544842 -58.738426 9.146653 -0.284278 0.420948 -2.506426
  1 0.000000 0.000000 0.000000 -1.570796 -1.570796 0.000000
  2 4.484989 -0.004008 0.000006 0.640415 -0.206318 0.006828
  3 5.037136 -0.005101 -0.000238 -0.102686 0.016186 0.310897
  4 6.388059 -0.005253 -0.000001 -0.159527 0.052320 -0.010883
  5 6.146608 1.394838 0.000001 -0.000001 -0.000002 0.650292
  6 -2.170032 1.352243 -2.953732 -0.476680 1.281959 2.030949
  7 5.760270 -0.000012 -0.000009 0.683786 -0.983650 -0.494682
  8 10.965153 0.000065 -0.000006 0.000013 0.000002 -1.100939
  9 0.000007 -0.000004 -4.044200 -2.775782 5.881073 1.526957
 10 -0.000007 0.000007 4.044200 -0.770268 -2.905289 -0.527441
 11 17.182070 0.000091 0.000546 0.000004 -0.000009 -1.416246
 12 16.782913 0.000650 -0.000234 -0.083595 0.050865 0.157469
 13 5.168527 5.004116 -0.000135 0.000010 0.000000 2.004666
 14 17.182070 0.000099 0.000206 -0.000001 -0.000007 -1.071182
 15 16.782906 0.000656 -0.000113 0.343589 -0.045381 0.032606
 16 5.168479 5.004167 -0.000064 0.000011 -0.000001 1.612316
 17 -2.170036 1.352229 2.953745 -0.696478 -1.212798 3.154858
 18 5.760273 0.000016 0.000006 -0.588574 0.605473 -0.436855
time 25
  0 4.279209 -60.730858 9.033368 -0.277967 0.417242 -2.490277
  1 0.000000 0.000000 0.000000 -1.570796 -1.570796 0.000000
  2 4.484989 -0.004008 0.000006 0.640415 -0.206318 0.006828
  3 5.037136 -0.005101 -0.000238 -0.102686 0.016186 0.310897
  4 6.388059 -0.005253 -0.000001 -0.159527 0.052320 -0.010883
  5 6.146608 1.394838 0.000001 -0.000001 -0.000002 0.650292
  6 -2.170032 1.352243 -2.953732 -0.476680 1.281959 2.030949
  7 5.760270 -0.000012 -0.000009 0.683786 -0.983650 -0.494682
  8 10.965153 0.000065 -0.000006 0.000013 0.000002 -1.100939
  9 0.000007 -0.000004 -4.044200 -2.799309 5.921580 1.542434
 10 -0.000007 0.000007 4.044200 -0.750333 -2.836663 -0.570357
 11 17.182070 0.000091 0.000546 0.000004 -0.000009 -1.558932
 12 16.782913 0.000650 -0.000234 -0.078347 0.021697 -0.088186
 13 5.168527 5.004116 -0.000135 0.000010 0.000000 1.818702
 14 17.182070 0.000099 0.000206 -0.000001 -0.000007 -1.231195
 15 16.782906 0.000656 -0.000113 0.334725 -0.114258 0.163120
 16 5.168479 5.004167 -0.000064 0.000011 -0.000001 1.695142
 17 -2.170036 1.352229 2.953745 -0.696478 -1.212798 3.154858
 18 5.760273 0.000016 0.000006 -0.588574 0.605473 -0.436855
time 26
  0 4.033108 -62.742821 8.927896 -0.269170 0.414821 -2.467649
  1 0.000000 0.000000 0.000000 -1.570796 -1.570796 0.000000
  2 4.484989 -0.004008 0.000006 0.640415 -0.206318 0.006828
  3 5.037136 -0.005101 -0.000238 -0.102686 0.016186 0.310897
  4 6.388059 -0.005253 -0.000001 -0.159527 0.052320 -0.010883
  5 6.146608 1.394838 0.000001 -0.000001 -0.000002 0.650292
  6 -2.170032 1.352243 -2.953732 -0.476680 1.281959 2.030949
  7 5.760270 -0.000012 -0.000009 0.683786 -0.983650 -0.494682
  8 10.965153 0.000065 -0.000006 0.000013 0.000002 -1.100939
  9 0.000007 -0.000004 -4.044200 0.308166 3.458849 -1.558700
 10 -0.000007 0.000007 4.044200 -0.712378 -2.713741 -0.665173
 11 17.182070 0.000091 0.000546 0.000004 -0.000009 -1.763281
 12 16.782913 0.000650 -0.000234 -0.059463 0.021808 -0.286158
 13 5.168527 5.004116 -0.000135 0.000010 0.000000 1.632738
 14 17.182070 0.000099 0.000206 -0.000001 -0.000007 -1.368457
 15 16.782906 0.000656 -0.000113 0.326593 -0.162697 0.304359
 16 5.168479 5.004167 -0.000064 0.000011 -0.000001 1.736575
 17 -2.170036 1.352229 2.953745 -0.696478 -1.212798 3.154858
 18 5.760273 0.000016 0.000006 -0.588574 0.605473 -0.436855
time 27
  0 3.783100 -64.750885 8.802893 -0.262094 0.414228 -2.447181
  1 0.000000 0.000000 0.000000 -1.570796 -1.570796 0.000000
  2 4.484989 -0.004008 0.000006 0.640415 -0.206318 0.006828
  3 5.037136 -0.005101 -0.000238 -0.102686 0.016186 0.310897
  4 6.388059 -0.005253 -0.000001 -0.159527 0.052320 -0.010883
  5 6.146608 1.394838 0.000001 -0.000001 -0.000002 0.650292
  6 -2.170032 1.352243 -2.953732 -0.476680 1.281959 2.030949
  7 5.760270 -0.000012 -0.000009 0.683786 -0.983650 -0.494682
  8 10.965153 0.000065 -0.000006 0.000013 0.000002 -1.100939
  9 0.000007 -0.000004 -4.044200 0.267183 3.405349 -1.493446
 10 -0.000007 0.000007 4.044200 -0.677011 -2.618197 -0.744027
 11 17.182070 0.000091 0.000546 0.000004 -0.000009 -1.841866
 12 16.782913 0.000650 -0.000234 -0.040996 0.038968 -0.289894
 13 5.168527 5.004116 -0.000135 0.000010 0.000000 1.691386
 14 17.182070 0.000099 0.000206 -0.000001 -0.000007 -1.490231
 15 16.782906 0.000656 -0.000113 0.311695 -0.159655 0.469269
 16 5.168479 5.004167 -0.000064 0.000011 -0.000001 1.662368
 17 -2.170036 1.352229 2.953745 -0.696478 -1.212798 3.154858
 18 5.760273 0.000016 0.000006 -0.588574 0.605473 -0.436855
time 28
  0 3.552624 -66.778473 8.677889 -0.260373 0.415068 -2.438543
  1 0.000000 0.000000 0.000000 -1.570796 -1.570796 0.000000
  2 4.484989 -0.004008 0.000006 0.640415 -0.206318 0.006828
  3 5.037136 -0.005101 -0.000238 -0.102686 0.016186 0.310897
  4 6.388059 -0.005253 -0.000001 -0.159527 0.052320 -0.010883
  5 6.146608 1.394838 0.000001 -0.000001 -0.000002 0.650292
  6 -2.170032 1.352243 -2.953732 -0.476680 1.281959 2.030949
  7 5.760270 -0.000012 -0.000009 0.683786 -0.983650 -0.494682
  8 10.965153 0.000065 -0.000006 0.000013 0.000002 -1.100939
  9 0.000007 -0.000004 -4.044200 0.222216 3.349269 -1.400868
 10 -0.000007 0.000007 4.044200 -0.632156 -2.524490 -0.832440
 11 17.182070 0.000091 0.000546 0.000004 -0.000009 -1.895857
 12 16.782913 0.000650 -0.000234 -0.019562 0.058111 -0.237013
 13 5.168527 5.004116 -0.000135 0.000010 0.000000 1.832964
 14 17.182070 0.000099 0.000206 -0.000001 -0.000007 -1.577673
 15 16.782906 0.000656 -0.000113 0.285086 -0.118226 0.636212
 16 5.168479 5.004167 -0.000064 0.000011 -0.000001 1.588221
 17 -2.170036 1.352229 2.953745 -0.696478 -1.212798 3.154858
 18 5.760273 0.000016 0.000006 -0.588574 0.605473 -0.436855
time 29
  0 3.345587 -68.829498 8.552885 -0.269170 0.424753 -2.438731
  1 0.000000 0.000000 0.000000 -1.570796 -1.570796 0.000000
  2 4.484989 -0.004008 0.000006 0.640415 -0.206318 0.006828
  3 5.037136 -0.005101 -0.000238 -0.102686 0.016186 0.310897
  4 6.388059 -0.005253 -0.000001 -0.159527 0.052320 -0.010883
  5 6.146608 1.394838 0.000001 -0.000001 -0.000002 0.650292
  6 -2.170032 1.352243 -2.953732 -0.476680 1.281959 2.030949
  7 5.760270 -0.000012 -0.000009 0.683786 -0.983650 -0.494682
  8 10.965153 0.000065 -0.000006 0.000013 0.000002 -1.100939
  9 0.000007 -0.000004 -4.044200 0.210263 3.304749 -1.362748
 10 -0.000007 0.000007 4.044200 -0.574170 -2.434457 -0.932035
 11 17.182070 0.000091 0.000546 0.000004 -0.000009 -1.940169
 12 16.782913 0.000650 -0.000234 0.006017 0.073993 -0.161309
 13 5.168527 5.004116 -0.000135 0.000010 0.000000 1.974542
 14 17.182070 0.000099 0.000206 -0.000001 -0.000007 -1.616391
 15 16.782906 0.000656 -0.000113 0.251793 -0.077743 0.704743
 16 5.168479 5.004167 -0.000064 0.000011 -0.000001 1.535924
 17 -2.170036 1.352229 2.953745 -0.696478 -1.212798 3.154858
 18 5.760273 0.000016 0.000006 -0.588574 0.605473 -0.436855
time 30
  0 3.177613 -70.919594 8.443506 -0.281409 0.436266 -2.443613
  1 0.000000 0.000000 0.000000 -1.570796 -1.570796 0.000000
  2 4.484989 -0.004008 0.000006 0.640415 -0.206318 0.006828
  3 5.037136 -0.005101 -0.000238 -0.102686 0.016186 0.310897
  4 6.388059 -0.005253 -0.000001 -0.159527 0.052320 -0.010883
  5 6.146608 1.394838 0.000001 -0.000001 -0.000002 0.650292
  6 -2.170032 1.352243 -2.953732 -0.476680 1.281959 2.030949
  7 5.760270 -0.000012 -0.000009 0.683786 -0.983650 -0.494682
  8 10.965153 0.000065 -0.000006 0.000013 0.000002 -1.100939
  9 0.000007 -0.000004 -4.044200 0.206753 3.263382 -1.334754
 10 -0.000007 0.000007 4.044200 -0.498357 -2.349937 -1.047975
 11 17.182070 0.000091 0.000546 0.000004 -0.000009 -1.989284
 12 16.782913 0.000650 -0.000234 0.032945 0.086094 -0.096100
 13 5.168527 5.004116 -0.000135 0.000010 0.000000 2.033191
 14 17.182070 0.000099 0.000206 -0.000001 -0.000007 -1.636059
 15 16.782906 0.000656 -0.000113 0.214792 -0.032181 0.743581
 16 5.168479 5.004167 -0.000064 0.000011 -0.000001 1.483546
 17 -2.170036 1.352229 2.953745 -0.696478 -1.212798 3.154858
 18 5.760273 0.000016 0.000006 -0.588574 0.605473 -0.436855
end
