version 1
nodes
  0 "Bip01"  -1
  1 "Bip01 Pelvis"   0
  2 "Bip01 Spine"   1
  3 "Bip01 Spine1"   2
  4 "Bip01 Spine2"   3
  5 "Bip01 Neck"   4
  6 "Bip01 R Clavicle"   5
  7 "Bip01 R UpperArm"   6
  8 "Bip01 R Forearm"   7
  9 "Bip01 R Thigh"   1
 10 "Bip01 L Thigh"   1
 11 "Bip01 L Calf"  10
 12 "Bip01 L Foot"  11
 13 "Bip01 L Toe0"  12
 14 "Bip01 R Calf"   9
 15 "Bip01 R Foot"  14
 16 "Bip01 R Toe0"  15
 17 "Bip01 L Clavicle"   5
 18 "Bip01 L UpperArm"  17
end
skeleton
time 0
  0 0.009547 -0.009547 -4.869400 0.014152 0.130055 -1.742724
  1 0.000000 0.000000 0.000000 -3.141168 -1.396520 1.570796
  2 4.422487 -0.004008 -0.769549 -0.081702 0.040244 0.012655
  3 5.037136 -0.005101 -0.000238 -0.008916 -0.021315 0.313737
  4 6.388059 -0.005253 -0.000001 -0.005825 -0.045811 0.031501
  5 6.146608 1.394838 0.000001 0.260160 0.648348 0.022279
  6 -0.248098 -1.171272 -3.711568 2.673248 0.864814 -0.426872
  7 5.760270 -0.000012 -0.000009 -0.052127 -0.422848 -0.169160
  8 10.965153 0.000065 -0.000006 0.000013 0.000002 -0.848595
  9 0.000007 -0.000004 -4.044200 0.064357 3.030942 0.146594
 10 -0.000007 0.000007 4.044200 -0.050955 -2.904463 -0.671290
 11 17.182070 0.000091 0.000546 0.000004 -0.000009 -1.605179
 12 16.782913 0.000650 -0.000234 -0.358072 0.092209 0.326063
 13 5.168527 5.004116 -0.000135 -0.091495 0.102092 1.663971
 14 17.182070 0.000099 0.000206 -0.000001 -0.000007 -1.834516
 15 16.782906 0.000656 -0.000113 0.151638 0.036777 -0.017861
 16 5.168479 5.004167 -0.000064 0.158957 -0.099150 1.436913
 17 -3.802898 0.047502 0.840399 0.349291 -0.900186 2.869285
 18 5.760273 0.000016 0.000006 0.465937 1.270552 0.610897
time 1
  0 -0.037329 0.037329 -4.322508 0.017116 -0.063397 -1.750705
  1 0.000000 0.000000 0.000000 -0.000424 -1.745975 -1.570796
  2 4.422487 -0.004008 -0.769549 -0.167591 0.172100 0.075778
  3 5.037136 -0.005101 -0.000238 -0.160285 0.065802 0.375531
  4 6.388059 -0.005253 -0.000001 -0.169582 -0.037380 -0.082191
  5 6.146608 1.394838 0.000001 0.197437 0.302724 0.232914
  6 -1.537200 -0.347028 -3.567032 2.599719 1.189169 5.524245
  7 5.760270 -0.000012 -0.000009 -0.008766 0.039005 -0.428874
  8 10.965153 0.000065 -0.000006 0.000013 0.000002 -0.817268
  9 0.000007 -0.000004 -4.044200 0.128487 3.066960 -0.138593
 10 -0.000007 0.000007 4.044200 -0.105490 -2.919713 -0.446006
 11 17.182070 0.000091 0.000546 0.000004 -0.000009 -1.513832
 12 16.782913 0.000650 -0.000234 -0.377103 0.064856 0.371607
 13 5.168527 5.004116 -0.000135 -0.091495 0.102092 1.713742
 14 17.182070 0.000099 0.000206 -0.000001 -0.000007 -1.895780
 15 16.782906 0.000656 -0.000113 0.260706 -0.013163 -0.295936
 16 5.168479 5.004167 -0.000064 0.158957 -0.099150 1.436913
 17 -3.283351 0.766274 1.961527 0.268755 -1.219022 2.674982
 18 5.760273 0.000016 0.000006 0.417681 1.478596 0.962706
time 2
  0 -0.088112 0.088112 -3.759991 0.021706 -0.256947 -1.759812
  1 0.000000 0.000000 0.000000 -0.000424 -1.746840 -1.570796
  2 4.422487 -0.004008 -0.781268 -0.108934 0.173682 -0.121339
  3 5.037136 -0.005101 -0.000238 -0.190317 0.029120 0.174588
  4 6.388059 -0.005253 -0.000001 -0.128715 -0.010715 0.095824
  5 6.146608 1.394838 0.000001 0.065565 0.118108 0.196551
  6 -2.170032 0.059235 -3.238897 2.335796 1.398296 5.277872
  7 5.760270 -0.000012 -0.000009 -0.163287 0.316454 -0.245978
  8 10.965153 0.000065 -0.000006 0.000013 0.000002 -0.786004
  9 0.000007 -0.000004 -4.044200 0.201061 3.084061 -0.425022
 10 -0.000007 0.000007 4.044200 -0.154371 -2.946263 -0.222824
 11 17.182070 0.000091 0.000546 0.000004 -0.000009 -1.422341
 12 16.782913 0.000650 -0.000234 -0.393387 0.035688 0.418239
 13 5.168527 5.004116 -0.000135 -0.091495 0.102092 1.813284
 14 17.182070 0.000099 0.000206 -0.000001 -0.000007 -1.956907
 15 16.782906 0.000656 -0.000113 0.384038 -0.021099 -0.576156
 16 5.168479 5.004167 -0.000064 0.158957 -0.099150 1.436913
 17 -2.861464 0.449858 2.617797 0.098827 -1.429568 2.850785
 18 5.760273 0.000016 0.000006 0.759276 1.357261 1.218706
time 3
  0 0.017360 -0.017360 -2.662301 0.014917 -0.315501 -1.748921
  1 0.000000 0.000000 0.000000 -3.141168 -1.396520 1.570796
  2 4.422487 -0.004008 -0.769549 -0.178218 0.045246 -0.082957
  3 5.037136 -0.005101 -0.000238 -0.113672 0.012016 0.019968
  4 6.388059 -0.005253 -0.000001 0.049377 0.033573 0.139105
  5 6.146608 1.394838 0.000001 -0.013876 -0.194293 0.680660
  6 -2.650516 1.445996 -2.469342 0.780929 1.321538 3.246029
  7 5.760270 -0.000012 -0.000009 -0.236054 0.313897 -0.124863
  8 10.965153 0.000065 -0.000006 0.000013 0.000002 -0.760559
  9 0.000007 -0.000004 -4.044200 0.234549 3.092086 -0.647153
 10 -0.000007 0.000007 4.044200 -0.167118 -2.965096 -0.085952
 11 17.182070 0.000091 0.000546 0.000004 -0.000009 -1.286180
 12 16.782913 0.000650 -0.000234 -0.367857 0.013469 0.396265
 13 5.168527 5.004116 -0.000135 -0.091495 0.102092 1.863055
 14 17.182070 0.000099 0.000206 -0.000001 -0.000007 -1.860009
 15 16.782906 0.000656 -0.000113 0.422015 -0.028501 -0.771701
 16 5.168479 5.004167 -0.000064 0.158957 -0.099150 1.436913
 17 -1.517672 1.360042 3.324850 2.733269 -1.389332 -0.275243
 18 5.760273 0.000016 0.000006 0.390125 1.226298 0.627868
time 4
  0 0.388465 -0.388465 -0.345824 -0.006407 -0.172352 -1.712116
  1 0.000000 0.000000 0.000000 -3.141168 -1.400595 1.570796
  2 4.422487 -0.004008 -0.757830 -0.150043 0.063562 -0.084683
  3 5.037136 -0.005101 -0.000238 -0.074371 0.013084 0.080825
  4 6.388059 -0.005253 -0.000001 0.060510 0.028320 0.173431
  5 6.146608 1.394838 0.000001 -0.030310 -0.140848 0.511113
  6 -2.720830 1.125674 -2.567001 0.256227 1.401038 2.887486
  7 5.760270 -0.000012 -0.000009 -0.101478 0.139920 -0.120479
  8 10.965153 0.000065 -0.000006 0.000013 0.000002 -0.756473
  9 0.000007 -0.000004 -4.044200 0.168711 3.130300 -0.713553
 10 -0.000007 0.000007 4.044200 -0.090251 -2.928992 -0.178570
 11 17.182070 0.000091 0.000546 0.000004 -0.000009 -1.087638
 12 16.782913 0.000650 -0.000234 -0.240183 -0.022260 0.234498
 13 5.168527 5.004116 -0.000135 -0.060656 0.060743 1.754342
 14 17.182070 0.000099 0.000206 -0.000001 -0.000007 -1.373117
 15 16.782906 0.000656 -0.000113 0.247727 -0.058930 -0.745357
 16 5.168479 5.004167 -0.000064 0.097691 -0.064406 1.489048
 17 -1.904403 0.945967 3.281880 -2.806467 -1.237442 5.437449
 18 5.760273 0.000016 0.000006 -0.078320 1.134288 -0.480539
time 5
  0 0.915825 -0.915825 2.681612 -0.024670 0.081383 -1.667988
  1 0.000000 0.000000 0.000000 -0.000424 -1.736903 -1.570796
  2 4.434206 -0.004008 -0.738298 -0.105912 0.105101 -0.091942
  3 5.037136 -0.005101 -0.000238 -0.038557 0.012806 0.175827
  4 6.388059 -0.005253 -0.000001 0.047063 0.016615 0.206771
  5 6.146608 1.394838 0.000001 -0.043863 -0.039992 0.267808
  6 -2.627077 0.574875 -2.828728 -0.947760 1.423794 1.926124
  7 5.760270 -0.000012 -0.000009 0.105457 -0.112822 -0.238689
  8 10.965153 0.000065 -0.000006 0.000013 0.000002 -0.765450
  9 0.000007 -0.000004 -4.044200 0.061416 3.183418 -0.683458
 10 -0.000007 0.000007 4.044200 0.002814 -2.912639 -0.337808
 11 17.182070 0.000091 0.000546 0.000004 -0.000009 -0.737018
 12 16.782913 0.000650 -0.000234 -0.084699 -0.031544 -0.056023
 13 5.168527 5.004116 -0.000135 -0.025551 0.022952 1.644617
 14 17.182070 0.000099 0.000206 -0.000001 -0.000007 -0.690783
 15 16.782906 0.000656 -0.000113 0.084629 0.039882 -0.601822
 16 5.168479 5.004167 -0.000064 0.038410 -0.026739 1.538918
 17 -2.392699 0.320948 3.059217 -2.388842 -1.354377 5.267623
 18 5.760273 0.000016 0.000006 -0.070922 1.053414 -0.499216
time 6
  0 1.415840 -1.415840 5.220752 -0.031555 0.344457 -1.622733
  1 0.000000 0.000000 0.000000 -0.000424 -1.732751 -1.570796
  2 4.434206 -0.004008 -0.718766 -0.061521 0.149724 -0.096467
  3 5.037136 -0.005101 -0.000238 -0.009800 0.010201 0.273277
  4 6.388059 -0.005253 -0.000001 0.025276 0.004663 0.237543
  5 6.146608 1.394838 0.000001 -0.042745 -0.034828 0.318898
  6 -2.588014 0.703786 -2.840447 -1.087865 1.338572 1.736980
  7 5.760270 -0.000012 -0.000009 0.351669 -0.264688 -0.487036
  8 10.965153 0.000065 -0.000006 0.000013 0.000002 -0.757835
  9 0.000007 -0.000004 -4.044200 -0.013814 3.220486 -0.589924
 10 -0.000007 0.000007 4.044200 0.054474 -2.895459 -0.406149
 11 17.182070 0.000091 0.000546 0.000004 -0.000009 -0.275548
 12 16.782913 0.000650 -0.000234 0.057028 -0.076465 -0.336559
 13 5.168527 5.004116 -0.000135 0.000010 0.000000 1.570793
 14 17.182070 0.000099 0.000206 -0.000001 -0.000007 -0.001939
 15 16.782906 0.000656 -0.000113 0.055191 0.121485 -0.481884
 16 5.168479 5.004167 -0.000064 0.000011 -0.000001 1.570802
 17 -2.380980 0.449858 3.059217 -2.189670 -1.438369 5.012031
 18 5.760273 0.000016 0.000006 -0.076759 0.952213 -0.528578
time 7
  0 1.681473 -1.681473 6.080153 -0.028973 0.514684 -1.579638
  1 0.000000 0.000000 0.000000 -3.141168 -1.413031 1.570796
  2 4.434206 -0.004008 -0.695328 -0.032241 0.176591 -0.092528
  3 5.037136 -0.005101 -0.000238 0.008379 0.006939 0.341567
  4 6.388059 -0.005253 -0.000001 0.011517 -0.002474 0.263669
  5 6.146608 1.394838 0.000001 -0.029647 -0.011775 0.442873
  6 -2.427852 0.969419 -2.902949 -1.069863 1.272018 1.641597
  7 5.760270 -0.000012 -0.000009 0.484066 -0.243796 -0.737626
  8 10.965153 0.000065 -0.000006 0.000013 0.000002 -0.702673
  9 0.000007 -0.000004 -4.044200 -0.024913 3.218385 -0.618013
 10 -0.000007 0.000007 4.044200 -0.100219 -2.901798 -0.294319
 11 17.182070 0.000091 0.000546 0.000004 -0.000009 -0.002222
 12 16.782913 0.000650 -0.000234 0.158117 -0.063641 -0.165147
 13 5.168527 5.004116 -0.000135 0.000010 0.000000 1.570793
 14 17.182070 0.000099 0.000206 -0.000001 -0.000007 -0.027706
 15 16.782906 0.000656 -0.000113 0.099527 0.124939 -0.264474
 16 5.168479 5.004167 -0.000064 0.000011 -0.000001 1.570802
 17 -2.361448 0.797525 3.004528 -1.157923 -1.502809 3.854180
 18 5.760273 0.000016 0.000006 -0.118703 0.841917 -0.568492
time 8
  0 1.743975 -1.743975 4.943400 -0.025148 0.581589 -1.534570
  1 0.000000 0.000000 0.000000 -0.000424 -1.724390 -1.570796
  2 4.434206 -0.004008 -0.683609 -0.019437 0.183064 -0.079246
  3 5.037136 -0.005101 -0.000238 0.016797 0.004861 0.380366
  4 6.388059 -0.005253 -0.000001 0.008821 -0.004872 0.288389
  5 6.146608 1.394838 0.000001 -0.028377 -0.009005 0.472884
  6 -2.396601 1.039733 -2.914668 -0.798226 1.174904 1.904186
  7 5.760270 -0.000012 -0.000009 0.334379 -0.086462 -0.892181
  8 10.965153 0.000065 -0.000006 0.000013 0.000002 -0.543194
  9 0.000007 -0.000004 -4.044200 -0.023300 3.209691 -0.671038
 10 -0.000007 0.000007 4.044200 0.049107 -2.893806 -0.249109
 11 17.182070 0.000091 0.000546 0.000004 -0.000009 0.080020
 12 16.782913 0.000650 -0.000234 0.013203 -0.091883 0.037002
 13 5.168527 5.004116 -0.000135 0.000010 0.000000 1.570793
 14 17.182070 0.000099 0.000206 -0.000001 -0.000007 -0.190117
 15 16.782906 0.000656 -0.000113 0.148792 0.113755 -0.031409
 16 5.168479 5.004167 -0.000064 0.000011 -0.000001 1.570802
 17 -2.341916 0.871746 2.996715 -0.171103 -1.446605 2.837787
 18 5.760273 0.000016 0.000006 -0.258721 0.704875 -0.664166
time 9
  0 1.693192 -1.693193 2.662080 -0.020654 0.610545 -1.483306
  1 0.000000 0.000000 0.000000 -0.000424 -1.720219 -1.570796
  2 4.442019 -0.004008 -0.664077 -0.013003 0.182296 -0.060592
  3 5.037136 -0.005101 -0.000238 0.019110 0.003837 0.410734
  4 6.388059 -0.005253 -0.000001 0.008018 -0.005653 0.314375
  5 6.146608 1.394838 0.000001 -0.028168 -0.007699 0.497576
  6 -2.365350 1.094423 -2.914668 -0.545637 1.030828 2.157808
  7 5.760270 -0.000012 -0.000009 -0.008562 0.099239 -1.023592
  8 10.965153 0.000065 -0.000006 0.000013 0.000002 -0.317904
  9 0.000007 -0.000004 -4.044200 -0.000627 3.194309 -0.751005
 10 -0.000007 0.000007 4.044200 0.198529 -2.883149 -0.294892
 11 17.182070 0.000091 0.000546 0.000004 -0.000009 -0.001935
 12 16.782913 0.000650 -0.000234 -0.099757 -0.070220 0.258510
 13 5.168527 5.004116 -0.000135 0.000010 0.000000 1.570793
 14 17.182070 0.000099 0.000206 -0.000001 -0.000007 -0.393097
 15 16.782906 0.000656 -0.000113 0.176685 0.102920 0.190028
 16 5.168479 5.004167 -0.000064 0.000011 -0.000001 1.570802
 17 -2.322384 0.926435 2.996715 0.091908 -1.352805 2.554301
 18 5.760273 0.000016 0.000006 -0.379464 0.551833 -0.740535
time 10
  0 1.595533 -1.595533 -0.185663 -0.017881 0.613164 -1.433920
  1 0.000000 0.000000 0.000000 -0.000424 -1.716010 -1.570796
  2 4.442019 -0.004008 -0.644545 -0.011248 0.176543 -0.039953
  3 5.037136 -0.005101 -0.000238 0.017630 0.003749 0.432852
  4 6.388059 -0.005253 -0.000001 0.008581 -0.005234 0.338549
  5 6.146608 1.394838 0.000001 -0.028661 -0.007581 0.517187
  6 -2.345819 1.145205 -2.914668 -0.427153 0.899963 2.275892
  7 5.760270 -0.000012 -0.000009 -0.321891 0.207512 -1.159847
  8 10.965153 0.000065 -0.000006 0.000013 0.000002 -0.139975
  9 0.000007 -0.000004 -4.044200 0.126116 3.130873 -0.961670
 10 -0.000007 0.000007 4.044200 0.043261 -2.871941 -0.714397
 11 17.182070 0.000091 0.000546 0.000004 -0.000009 -0.713357
 12 16.782913 0.000650 -0.000234 0.205964 -0.146866 0.549744
 13 5.168527 5.004116 -0.000135 0.000010 0.000000 1.570793
 14 17.182070 0.000099 0.000206 -0.000001 -0.000007 -0.768494
 15 16.782906 0.000656 -0.000113 0.093981 0.107114 0.349331
 16 5.168479 5.004167 -0.000064 0.000011 -0.000001 1.570802
 17 -2.298946 0.977218 2.996715 0.195415 -1.254888 2.439313
 18 5.760273 0.000016 0.000006 -0.471089 0.393490 -0.796431
time 11
  0 1.435372 -1.435372 -3.041219 -0.017212 0.601107 -1.393641
  1 0.000000 0.000000 0.000000 -0.000424 -1.711762 -1.570796
  2 4.442019 -0.004008 -0.621107 -0.012548 0.168328 -0.020974
  3 5.037136 -0.005101 -0.000238 0.014076 0.004349 0.446964
  4 6.388059 -0.005253 -0.000001 0.009767 -0.004263 0.357673
  5 6.146608 1.394838 0.000001 -0.029514 -0.007877 0.531994
  6 -2.330193 1.180363 -2.902949 -0.392865 0.831590 2.306414
  7 5.760270 -0.000012 -0.000009 -0.489890 0.238987 -1.256393
  8 10.965153 0.000065 -0.000006 0.000013 0.000002 -0.060669
  9 0.000007 -0.000004 -4.044200 0.113783 3.094665 -1.156763
 10 -0.000007 0.000007 4.044200 0.096934 -2.880668 -0.947328
 11 17.182070 0.000091 0.000546 0.000004 -0.000009 -1.072151
 12 16.782913 0.000650 -0.000234 0.257073 -0.158652 0.690046
 13 5.168527 5.004116 -0.000135 0.000010 0.000000 1.570793
 14 17.182070 0.000099 0.000206 -0.000001 -0.000007 -1.135941
 15 16.782906 0.000656 -0.000113 0.137228 0.114927 0.528919
 16 5.168479 5.004167 -0.000064 0.000011 -0.000001 1.570802
 17 -2.279414 1.008469 2.996715 0.254641 -1.148515 2.378403
 18 5.760273 0.000016 0.000006 -0.535295 0.227755 -0.841328
time 12
  0 1.267398 -1.267398 -5.326445 -0.017977 0.585987 -1.367164
  1 0.000000 0.000000 0.000000 -0.000424 -1.707495 -1.570796
  2 4.453738 -0.004008 -0.609388 -0.014888 0.159969 -0.006780
  3 5.037136 -0.005101 -0.000238 0.010471 0.005066 0.453309
  4 6.388059 -0.005253 -0.000001 0.011146 -0.003445 0.368670
  5 6.146608 1.394838 0.000001 -0.030348 -0.008352 0.541997
  6 -2.322381 1.207707 -2.902949 -0.379055 0.798366 2.315380
  7 5.760270 -0.000012 -0.000009 -0.582534 0.247564 -1.306653
  8 10.965153 0.000065 -0.000006 0.000013 0.000002 -0.028723
  9 0.000007 -0.000004 -4.044200 0.077354 3.090271 -1.276475
 10 -0.000007 0.000007 4.044200 0.181181 -2.924215 -1.134285
 11 17.182070 0.000091 0.000546 0.000004 -0.000009 -1.388569
 12 16.782913 0.000650 -0.000234 0.241255 -0.167621 0.833609
 13 5.168527 5.004116 -0.000135 0.000010 0.000000 1.570793
 14 17.182070 0.000099 0.000206 -0.000001 -0.000007 -1.364345
 15 16.782906 0.000656 -0.000113 0.195584 0.121300 0.647615
 16 5.168479 5.004167 -0.000064 0.000011 -0.000001 1.570802
 17 -2.267695 1.028000 3.004528 0.289604 -1.062386 2.347949
 18 5.760273 0.000016 0.000006 -0.574118 0.098056 -0.874866
time 13
  0 1.095518 -1.095518 -6.471011 -0.017403 0.579662 -1.360404
  1 0.000000 0.000000 0.000000 -0.000424 -1.703151 -1.570796
  2 4.453738 -0.004008 -0.589856 -0.016058 0.153864 -0.000888
  3 5.037136 -0.005101 -0.000238 0.008906 0.005505 0.452070
  4 6.388059 -0.005253 -0.000001 0.011733 -0.002931 0.368370
  5 6.146608 1.394838 0.000001 -0.030727 -0.008530 0.547595
  6 -2.318474 1.219426 -2.902949 -0.369816 0.775004 2.322629
  7 5.760270 -0.000012 -0.000009 -0.652171 0.232063 -1.323526
  8 10.965153 0.000065 -0.000006 0.000013 0.000002 -0.002659
  9 0.000007 -0.000004 -4.044200 0.040071 3.108709 -1.335710
 10 -0.000007 0.000007 4.044200 0.234183 -2.962432 -1.178539
 11 17.182070 0.000091 0.000546 0.000004 -0.000009 -1.491031
 12 16.782913 0.000650 -0.000234 0.194119 -0.173663 0.897460
 13 5.168527 5.004116 -0.000135 0.000010 0.000000 1.570793
 14 17.182070 0.000099 0.000206 -0.000001 -0.000007 -1.468576
 15 16.782906 0.000656 -0.000113 0.243661 0.122781 0.702184
 16 5.168479 5.004167 -0.000064 0.000011 -0.000001 1.570802
 17 -2.267695 1.039719 3.004528 0.309069 -1.024193 2.331346
 18 5.760273 0.000016 0.000006 -0.595633 0.049473 -0.888245
time 14
  0 0.939263 -0.939263 -6.709300 -0.015969 0.580749 -1.368291
  1 0.000000 0.000000 0.000000 -0.000424 -1.698884 -1.570796
  2 4.453738 -0.004008 -0.570324 -0.016318 0.149612 -0.001051
  3 5.037136 -0.005101 -0.000238 0.008243 0.005666 0.445755
  4 6.388059 -0.005253 -0.000001 0.011697 -0.002912 0.360524
  5 6.146608 1.394838 0.000001 -0.030671 -0.008708 0.542474
  6 -2.322381 1.207707 -2.902949 -0.374007 0.789770 2.320913
  7 5.760270 -0.000012 -0.000009 -0.642777 0.186070 -1.280452
  8 10.965153 0.000065 -0.000006 0.000013 0.000002 0.008980
  9 0.000007 -0.000004 -4.044200 -0.039428 3.179501 -1.354531
 10 -0.000007 0.000007 4.044200 0.301849 -3.024628 -1.169267
 11 17.182070 0.000091 0.000546 0.000004 -0.000009 -1.507881
 12 16.782913 0.000650 -0.000234 0.090822 -0.164897 0.924392
 13 5.168527 5.004116 -0.000135 0.000010 0.000000 1.570793
 14 17.182070 0.000099 0.000206 -0.000001 -0.000007 -1.492287
 15 16.782906 0.000656 -0.000113 0.341100 0.122267 0.720587
 16 5.168479 5.004167 -0.000064 0.000011 -0.000001 1.570802
 17 -2.267695 1.028000 3.004528 0.321523 -1.021584 2.326033
 18 5.760273 0.000016 0.000006 -0.610836 0.062117 -0.883935
time 15
  0 0.779102 -0.779102 -6.681955 -0.014917 0.580601 -1.381717
  1 0.000000 0.000000 0.000000 -3.141168 -1.447052 1.570796
  2 4.453738 -0.004008 -0.546886 -0.017260 0.145249 -0.002288
  3 5.037136 -0.005101 -0.000238 0.006423 0.005944 0.436962
  4 6.388059 -0.005253 -0.000001 0.011493 -0.002836 0.350935
  5 6.146608 1.394838 0.000001 -0.030519 -0.009282 0.524769
  6 -2.341912 1.168644 -2.902949 -0.378293 0.802585 2.332168
  7 5.760270 -0.000012 -0.000009 -0.627325 0.152156 -1.248543
  8 10.965153 0.000065 -0.000006 0.000013 0.000002 0.010032
  9 0.000007 -0.000004 -4.044200 -0.015047 3.161158 -1.359213
 10 -0.000007 0.000007 4.044200 0.273767 -2.999272 -1.166878
 11 17.182070 0.000091 0.000546 0.000004 -0.000009 -1.500639
 12 16.782913 0.000650 -0.000234 0.114317 -0.173978 0.920860
 13 5.168527 5.004116 -0.000135 0.000010 0.000000 1.570793
 14 17.182070 0.000099 0.000206 -0.000001 -0.000007 -1.492972
 15 16.782906 0.000656 -0.000113 0.297333 0.113631 0.713286
 16 5.168479 5.004167 -0.000064 0.000011 -0.000001 1.570802
 17 -2.287227 0.988937 3.004528 0.333885 -1.023722 2.332864
 18 5.760273 0.000016 0.000006 -0.625564 0.085703 -0.873564
time 16
  0 0.611128 -0.611128 -6.431947 -0.013865 0.579415 -1.399838
  1 0.000000 0.000000 0.000000 -3.141168 -1.451396 1.570796
  2 4.453738 -0.004008 -0.527354 -0.018657 0.140870 -0.004566
  3 5.037136 -0.005101 -0.000238 0.003906 0.006339 0.425963
  4 6.388059 -0.005253 -0.000001 0.011313 -0.002779 0.339675
  5 6.146608 1.394838 0.000001 -0.030291 -0.010014 0.500633
  6 -2.365350 1.106142 -2.902949 -0.383436 0.817747 2.348097
  7 5.760270 -0.000012 -0.000009 -0.609014 0.112931 -1.213982
  8 10.965153 0.000065 -0.000006 0.000013 0.000002 0.008732
  9 0.000007 -0.000004 -4.044200 0.039502 3.120173 -1.348990
 10 -0.000007 0.000007 4.044200 0.222873 -2.954991 -1.152732
 11 17.182070 0.000091 0.000546 0.000004 -0.000009 -1.471958
 12 16.782913 0.000650 -0.000234 0.160545 -0.185727 0.905543
 13 5.168527 5.004116 -0.000135 0.000010 0.000000 1.570793
 14 17.182070 0.000099 0.000206 -0.000001 -0.000007 -1.474538
 15 16.782906 0.000656 -0.000113 0.212255 0.100350 0.696163
 16 5.168479 5.004167 -0.000064 0.000011 -0.000001 1.570802
 17 -2.310665 0.934247 3.004528 0.345970 -1.030166 2.345007
 18 5.760273 0.000016 0.000006 -0.639477 0.119356 -0.858389
time 17
  0 0.439248 -0.439248 -5.994434 -0.013387 0.577389 -1.422184
  1 0.000000 0.000000 0.000000 -0.000424 -1.685852 -1.570796
  2 4.457644 -0.004008 -0.503916 -0.020380 0.136507 -0.007952
  3 5.037136 -0.005101 -0.000238 0.000845 0.006748 0.413030
  4 6.388059 -0.005253 -0.000001 0.011182 -0.002703 0.326779
  5 6.146608 1.394838 0.000001 -0.030026 -0.010766 0.476695
  6 -2.396601 1.051453 -2.902949 -0.394389 0.846831 2.356300
  7 5.760270 -0.000012 -0.000009 -0.577021 0.048565 -1.158267
  8 10.965153 0.000065 -0.000006 0.000013 0.000002 0.006875
  9 0.000007 -0.000004 -4.044200 0.135792 3.049285 -1.320710
 10 -0.000007 0.000007 4.044200 0.166804 -2.909883 -1.121668
 11 17.182070 0.000091 0.000546 0.000004 -0.000009 -1.424922
 12 16.782913 0.000650 -0.000234 0.204419 -0.196753 0.883738
 13 5.168527 5.004116 -0.000135 0.000010 0.000000 1.570793
 14 17.182070 0.000099 0.000206 -0.000001 -0.000007 -1.439863
 15 16.782906 0.000656 -0.000113 0.072691 0.082524 0.671738
 16 5.168479 5.004167 -0.000064 0.000011 -0.000001 1.570802
 17 -2.334104 0.871746 3.004528 0.358332 -1.040413 2.356392
 18 5.760273 0.000016 0.000006 -0.651626 0.162054 -0.839308
time 18
  0 0.263461 -0.263461 -5.416291 -0.012622 0.574523 -1.448285
  1 0.000000 0.000000 0.000000 -0.000424 -1.681489 -1.570796
  2 4.457644 -0.004008 -0.492197 -0.022297 0.132032 -0.012347
  3 5.037136 -0.005101 -0.000238 -0.002250 0.007187 0.398466
  4 6.388059 -0.005253 -0.000001 0.010942 -0.002646 0.312404
  5 6.146608 1.394838 0.000001 -0.029780 -0.011459 0.453988
  6 -2.416133 0.996763 -2.902949 -0.397913 0.857141 2.373468
  7 5.760270 -0.000012 -0.000009 -0.571235 0.004028 -1.127274
  8 10.965153 0.000065 -0.000006 0.000013 0.000002 0.006194
  9 0.000007 -0.000004 -4.044200 0.121562 3.076227 -1.289660
 10 -0.000007 0.000007 4.044200 0.157699 -2.909975 -1.068334
 11 17.182070 0.000091 0.000546 0.000004 -0.000009 -1.360893
 12 16.782913 0.000650 -0.000234 0.175039 -0.195493 0.870663
 13 5.168527 5.004116 -0.000135 0.000010 0.000000 1.570793
 14 17.182070 0.000099 0.000206 -0.000001 -0.000007 -1.391551
 15 16.782906 0.000656 -0.000113 0.077847 0.072655 0.657776
 16 5.168479 5.004167 -0.000064 0.000011 -0.000001 1.570802
 17 -2.353635 0.820963 3.004528 0.370878 -1.054056 2.365785
 18 5.760273 0.000016 0.000006 -0.661264 0.212922 -0.817219
time 19
  0 0.079862 -0.079862 -4.736583 -0.011857 0.571163 -1.476546
  1 0.000000 0.000000 0.000000 -3.141168 -1.464543 1.570796
  2 4.465457 -0.004008 -0.472665 -0.024247 0.127556 -0.017556
  3 5.037136 -0.005101 -0.000238 -0.005430 0.007538 0.382602
  4 6.388059 -0.005253 -0.000001 0.010630 -0.002493 0.296535
  5 6.146608 1.394838 0.000001 -0.029495 -0.012171 0.429058
  6 -2.439571 0.934261 -2.902949 -0.400199 0.864181 2.394834
  7 5.760270 -0.000012 -0.000009 -0.571235 -0.039014 -1.098015
  8 10.965153 0.000065 -0.000006 0.000013 0.000002 0.005513
  9 0.000007 -0.000004 -4.044200 0.085038 3.119504 -1.250966
 10 -0.000007 0.000007 4.044200 0.154632 -2.917140 -1.002287
 11 17.182070 0.000091 0.000546 0.000004 -0.000009 -1.281591
 12 16.782913 0.000650 -0.000234 0.131925 -0.190100 0.854938
 13 5.168527 5.004116 -0.000135 0.000010 0.000000 1.570793
 14 17.182070 0.000099 0.000206 -0.000001 -0.000007 -1.332206
 15 16.782906 0.000656 -0.000113 0.106976 0.063485 0.642836
 16 5.168479 5.004167 -0.000064 0.000011 -0.000001 1.570802
 17 -2.373167 0.766274 3.004528 0.384070 -1.070653 2.375842
 18 5.760273 0.000016 0.000006 -0.668322 0.270891 -0.792840
time 20
  0 -0.099831 0.099831 -3.994373 -0.010901 0.567556 -1.507248
  1 0.000000 0.000000 0.000000 -0.000424 -1.672705 -1.570796
  2 4.465457 -0.004008 -0.453133 -0.026034 0.122985 -0.023481
  3 5.037136 -0.005101 -0.000238 -0.008185 0.007860 0.365650
  4 6.388059 -0.005253 -0.000001 0.010499 -0.002398 0.279240
  5 6.146608 1.394838 0.000001 -0.029154 -0.012943 0.402263
  6 -2.459103 0.871760 -2.902949 -0.406104 0.875625 2.414292
  7 5.760270 -0.000012 -0.000009 -0.568308 -0.087445 -1.064168
  8 10.965153 0.000065 -0.000006 0.000013 0.000002 0.004832
  9 0.000007 -0.000004 -4.044200 0.049937 3.157146 -1.202527
 10 -0.000007 0.000007 4.044200 0.156453 -2.929084 -0.925249
 11 17.182070 0.000091 0.000546 0.000004 -0.000009 -1.187877
 12 16.782913 0.000650 -0.000234 0.078683 -0.180186 0.836496
 13 5.168527 5.004116 -0.000135 0.000010 0.000000 1.570793
 14 17.182070 0.000099 0.000206 -0.000001 -0.000007 -1.264226
 15 16.782906 0.000656 -0.000113 0.129079 0.053534 0.625600
 16 5.168479 5.004167 -0.000064 0.000011 -0.000001 1.570802
 17 -2.392699 0.699865 3.004528 0.398277 -1.089765 2.386373
 18 5.760273 0.000016 0.000006 -0.671512 0.334792 -0.766845
time 21
  0 -0.291243 0.291243 -3.240444 -0.009658 0.563603 -1.539546
  1 0.000000 0.000000 0.000000 -0.000424 -1.668265 -1.570796
  2 4.465457 -0.004008 -0.433601 -0.027594 0.118430 -0.030154
  3 5.037136 -0.005101 -0.000238 -0.010277 0.008094 0.347973
  4 6.388059 -0.005253 -0.000001 0.010355 -0.002341 0.260590
  5 6.146608 1.394838 0.000001 -0.028756 -0.013814 0.373641
  6 -2.490354 0.797539 -2.902949 -0.413914 0.891525 2.432415
  7 5.760270 -0.000012 -0.000009 -0.563134 -0.144179 -1.023592
  8 10.965153 0.000065 -0.000006 0.000013 0.000002 0.003408
  9 0.000007 -0.000004 -4.044200 0.050127 3.166222 -1.145776
 10 -0.000007 0.000007 4.044200 0.182619 -2.955818 -0.836168
 11 17.182070 0.000091 0.000546 0.000004 -0.000009 -1.080612
 12 16.782913 0.000650 -0.000234 -0.004651 -0.159227 0.817918
 13 5.168527 5.004116 -0.000135 0.000010 0.000000 1.570793
 14 17.182070 0.000099 0.000206 -0.000001 -0.000007 -1.190010
 15 16.782906 0.000656 -0.000113 0.102373 0.043418 0.605578
 16 5.168479 5.004167 -0.000064 0.000011 -0.000001 1.570802
 17 -2.408325 0.629551 3.004528 0.413314 -1.110920 2.397568
 18 5.760273 0.000016 0.000006 -0.670562 0.403410 -0.739682
time 22
  0 -0.490468 0.490468 -2.509953 -0.008128 0.559798 -1.572314
  1 0.000000 0.000000 0.000000 -0.000424 -1.663883 -1.570796
  2 4.465457 -0.004008 -0.410163 -0.028731 0.113875 -0.037414
  3 5.037136 -0.005101 -0.000238 -0.011450 0.008182 0.329843
  4 6.388059 -0.005253 -0.000001 0.010271 -0.002284 0.240692
  5 6.146608 1.394838 0.000001 -0.028358 -0.014625 0.345257
  6 -2.513793 0.735037 -2.902949 -0.420486 0.907478 2.451110
  7 5.760270 -0.000012 -0.000009 -0.561501 -0.205318 -0.979143
  8 10.965153 0.000065 -0.000006 0.000013 0.000002 0.001117
  9 0.000007 -0.000004 -4.044200 0.021856 3.189724 -1.084153
 10 -0.000007 0.000007 4.044200 0.146389 -2.946631 -0.743932
 11 17.182070 0.000091 0.000546 0.000004 -0.000009 -0.959364
 12 16.782913 0.000650 -0.000234 -0.017036 -0.154760 0.782392
 13 5.168527 5.004116 -0.000135 0.000010 0.000000 1.570793
 14 17.182070 0.000099 0.000206 -0.000001 -0.000007 -1.112779
 15 16.782906 0.000656 -0.000113 0.105740 0.034310 0.588267
 16 5.168479 5.004167 -0.000064 0.000011 -0.000001 1.570802
 17 -2.427856 0.563142 3.004528 0.429643 -1.133710 2.407056
 18 5.760273 0.000016 0.000006 -0.664725 0.475579 -0.711532
time 23
  0 -0.689693 0.689693 -1.838057 -0.006120 0.556191 -1.605363
  1 0.000000 0.000000 0.000000 -0.000424 -1.659443 -1.570796
  2 4.473270 -0.004008 -0.390631 -0.029316 0.109208 -0.045162
  3 5.037136 -0.005101 -0.000238 -0.011314 0.008255 0.311562
  4 6.388059 -0.005253 -0.000001 0.010271 -0.002170 0.219526
  5 6.146608 1.394838 0.000001 -0.027960 -0.015377 0.318223
  6 -2.525512 0.660816 -2.902949 -0.427915 0.923958 2.468088
  7 5.760270 -0.000012 -0.000009 -0.562522 -0.268897 -0.931329
  8 10.965153 0.000065 -0.000006 0.000013 0.000002 -0.001421
  9 0.000007 -0.000004 -4.044200 -0.014383 3.212079 -1.018994
 10 -0.000007 0.000007 4.044200 0.095400 -2.936709 -0.641756
 11 17.182070 0.000091 0.000546 0.000004 -0.000009 -0.822988
 12 16.782913 0.000650 -0.000234 -0.016913 -0.153889 0.739667
 13 5.168527 5.004116 -0.000135 0.000010 0.000000 1.570793
 14 17.182070 0.000099 0.000206 -0.000001 -0.000007 -1.035822
 15 16.782906 0.000656 -0.000113 0.113498 0.025469 0.573891
 16 5.168479 5.004167 -0.000064 0.000011 -0.000001 1.570802
 17 -2.439576 0.492828 3.004528 0.447263 -1.157694 2.413317
 18 5.760273 0.000016 0.000006 -0.653391 0.549887 -0.682484
time 24
  0 -0.892824 0.892824 -1.275540 -0.003825 0.552979 -1.637943
  1 0.000000 0.000000 0.000000 -3.141168 -1.486589 1.570796
  2 4.473270 -0.004008 -0.367193 -0.029186 0.104637 -0.053398
  3 5.037136 -0.005101 -0.000238 -0.009545 0.008255 0.293401
  4 6.388059 -0.005253 -0.000001 0.010391 -0.002056 0.197253
  5 6.146608 1.394838 0.000001 -0.027505 -0.016148 0.290157
  6 -2.545043 0.586595 -2.902949 -0.437535 0.941572 2.483731
  7 5.760270 -0.000012 -0.000009 -0.565449 -0.333066 -0.881374
  8 10.965153 0.000065 -0.000006 0.000013 0.000002 -0.003526
  9 0.000007 -0.000004 -4.044200 -0.034305 3.219435 -0.952594
 10 -0.000007 0.000007 4.044200 0.042973 -2.935055 -0.526867
 11 17.182070 0.000091 0.000546 0.000004 -0.000009 -0.667826
 12 16.782913 0.000650 -0.000234 -0.018924 -0.152629 0.689978
 13 5.168527 5.004116 -0.000135 0.000010 0.000000 1.570793
 14 17.182070 0.000099 0.000206 -0.000001 -0.000007 -0.963456
 15 16.782906 0.000656 -0.000113 0.099348 0.018458 0.564181
 16 5.168479 5.004167 -0.000064 0.000011 -0.000001 1.570802
 17 -2.447388 0.426419 3.004528 0.466636 -1.182401 2.419010
 18 5.760273 0.000016 0.000006 -0.636559 0.625023 -0.652897
time 25
  0 -1.103768 1.103768 -0.861465 -0.000861 0.550360 -1.669396
  1 0.000000 0.000000 0.000000 -3.141168 -1.491087 1.570796
  2 4.473270 -0.004008 -0.355474 -0.028244 0.100003 -0.061927
  3 5.037136 -0.005101 -0.000238 -0.006008 0.008255 0.275664
  4 6.388059 -0.005253 -0.000001 0.010570 -0.001865 0.173853
  5 6.146608 1.394838 0.000001 -0.027012 -0.016999 0.259312
  6 -2.564575 0.512374 -2.902949 -0.451345 0.960768 2.497943
  7 5.760270 -0.000012 -0.000009 -0.568852 -0.396331 -0.830501
  8 10.965153 0.000065 -0.000006 0.000013 0.000002 -0.004888
  9 0.000007 -0.000004 -4.044200 0.040830 3.177113 -0.887914
 10 -0.000007 0.000007 4.044200 0.011824 -2.947917 -0.393436
 11 17.182070 0.000091 0.000546 0.000004 -0.000009 -0.482263
 12 16.782913 0.000650 -0.000234 -0.044356 -0.142474 0.631358
 13 5.168527 5.004116 -0.000135 0.000010 0.000000 1.570793
 14 17.182070 0.000099 0.000206 -0.000001 -0.000007 -0.901096
 15 16.782906 0.000656 -0.000113 -0.021447 0.024071 0.560832
 16 5.168479 5.004167 -0.000064 0.000011 -0.000001 1.570802
 17 -2.459107 0.352198 3.004528 0.488131 -1.207423 2.425272
 18 5.760273 0.000016 0.000006 -0.613483 0.699574 -0.622278
time 26
  0 -1.420184 1.420184 -0.416139 0.007841 0.530447 -1.723101
  1 0.000000 0.000000 0.000000 -3.141168 -1.495469 1.570796
  2 4.473270 -0.004008 -0.335942 -0.026327 0.095400 -0.070815
  3 5.037136 -0.005101 -0.000238 -0.000243 0.008299 0.258682
  4 6.388059 -0.005253 -0.000001 0.011062 -0.001751 0.149415
  5 6.146608 1.394838 0.000001 -0.026387 -0.017949 0.223704
  6 -2.576294 0.414714 -2.902949 -0.471918 0.981836 2.510056
  7 5.760270 -0.000012 -0.000009 -0.570214 -0.457313 -0.780343
  8 10.965153 0.000065 -0.000006 0.000013 0.000002 -0.004764
  9 0.000007 -0.000004 -4.044200 0.034379 3.163547 -0.745941
 10 -0.000007 0.000007 4.044200 -0.093414 -2.979336 -0.164520
 11 17.182070 0.000091 0.000546 0.000004 -0.000009 -0.225142
 12 16.782913 0.000650 -0.000234 0.012639 -0.155483 0.433828
 13 5.168527 5.004116 -0.000135 0.000010 0.000000 1.570793
 14 17.182070 0.000099 0.000206 -0.000001 -0.000007 -0.796865
 15 16.782906 0.000656 -0.000113 -0.055927 0.037394 0.595116
 16 5.168479 5.004167 -0.000064 0.000011 -0.000001 1.570802
 17 -2.470827 0.258446 3.004528 0.511563 -1.232287 2.434569
 18 5.760273 0.000016 0.000006 -0.584095 0.772278 -0.590940
time 27
  0 -1.814727 1.814727 -0.341918 0.021706 0.511176 -1.789763
  1 0.000000 0.000000 0.000000 -3.141168 -1.499967 1.570796
  2 4.484989 -0.004008 -0.316410 -0.023272 0.090877 -0.079832
  3 5.037136 -0.005101 -0.000238 0.007784 0.008416 0.242697
  4 6.388059 -0.005253 -0.000001 0.011565 -0.001561 0.124027
  5 6.146608 1.394838 0.000001 -0.025591 -0.019057 0.181188
  6 -2.595826 0.309242 -2.902949 -0.502396 1.005093 2.519595
  7 5.760270 -0.000012 -0.000009 -0.567355 -0.515069 -0.733242
  8 10.965153 0.000065 -0.000006 0.000013 0.000002 -0.002659
  9 0.000007 -0.000004 -4.044200 0.015785 3.128007 -0.607026
 10 -0.000007 0.000007 4.044200 -0.155904 -3.026925 -0.096848
 11 17.182070 0.000091 0.000546 0.000004 -0.000009 -0.357431
 12 16.782913 0.000650 -0.000234 0.082459 -0.163822 0.375377
 13 5.168527 5.004116 -0.000135 0.000010 0.000000 1.570793
 14 17.182070 0.000099 0.000206 -0.000001 -0.000007 -0.647748
 15 16.782906 0.000656 -0.000113 -0.074631 0.071812 0.582547
 16 5.168479 5.004167 -0.000064 0.000011 -0.000001 1.570802
 17 -2.478639 0.152974 3.004528 0.537116 -1.256586 2.448611
 18 5.760273 0.000016 0.000006 -0.548734 0.841869 -0.558929
time 28
  0 -2.107705 2.107705 -1.584143 0.023714 0.544974 -1.822906
  1 0.000000 0.000000 0.000000 -3.141168 -1.504407 1.570796
  2 4.484989 -0.004008 -0.292972 -0.007348 0.085842 -0.108024
  3 5.037136 -0.005101 -0.000238 0.049006 0.007816 0.231910
  4 6.388059 -0.005253 -0.000001 0.014537 -0.000895 0.072389
  5 6.146608 1.394838 0.000001 -0.024207 -0.020779 0.111678
  6 -2.607545 0.121737 -2.902949 -0.591259 1.040268 2.497943
  7 5.760270 -0.000012 -0.000009 -0.521747 -0.584432 -0.661776
  8 10.965153 0.000065 -0.000006 0.000013 0.000002 0.017152
  9 0.000007 -0.000004 -4.044200 0.043202 3.078902 -0.484926
 10 -0.000007 0.000007 4.044200 -0.113158 -2.992657 -0.064160
 11 17.182070 0.000091 0.000546 0.000004 -0.000009 -0.001935
 12 16.782913 0.000650 -0.000234 -0.089751 -0.159560 0.445375
 13 5.168527 5.004116 -0.000135 0.000010 0.000000 1.570793
 14 17.182070 0.000099 0.000206 -0.000001 -0.000007 -0.620405
 15 16.782906 0.000656 -0.000113 -0.158538 0.112603 0.655293
 16 5.168479 5.004167 -0.000064 0.000011 -0.000001 1.570802
 17 -2.478639 -0.018907 3.004528 0.642192 -1.303517 2.408858
 18 5.760273 0.000016 0.000006 -0.485274 0.962523 -0.551655
time 29
  0 -2.267866 2.267866 -4.142815 0.010423 0.634609 -1.815207
  1 0.000000 0.000000 0.000000 -0.000424 -1.632745 -1.570796
  2 4.484989 -0.004008 -0.273440 0.020567 0.082070 -0.147154
  3 5.037136 -0.005101 -0.000238 0.120192 0.007904 0.219823
  4 6.388059 -0.005253 -0.000001 0.019679 0.000495 -0.005411
  5 6.146608 1.394838 0.000001 -0.022254 -0.022856 0.022795
  6 -2.607545 -0.100926 -2.902949 -0.743936 1.082958 2.428409
  7 5.760270 -0.000012 -0.000009 -0.455174 -0.660168 -0.560439
  8 10.965153 0.000065 -0.000006 0.000013 0.000002 0.035415
  9 0.000007 -0.000004 -4.044200 0.068816 3.075558 -0.756928
 10 -0.000007 0.000007 4.044200 -0.040891 -2.978234 -0.424309
 11 17.182070 0.000091 0.000546 0.000004 -0.000009 -0.811875
 12 16.782913 0.000650 -0.000234 -0.090781 -0.222845 0.491362
 13 5.168527 5.004116 -0.000135 0.000010 0.000000 1.570793
 14 17.182070 0.000099 0.000206 -0.000001 -0.000007 -1.066385
 15 16.782906 0.000656 -0.000113 -0.277918 0.079111 0.809214
 16 5.168479 5.004167 -0.000064 0.000011 -0.000001 1.570802
 17 -2.470827 -0.241570 3.004528 0.815441 -1.371634 2.316735
 18 5.760273 0.000016 0.000006 -0.352655 1.121644 -0.539982
time 30
  0 -2.385057 2.385057 -7.252285 -0.006311 0.744602 -1.794739
  1 0.000000 0.000000 0.000000 -3.141168 -1.513306 1.570796
  2 4.484989 -0.004008 -0.253908 0.041820 0.080728 -0.155977
  3 5.037136 -0.005101 -0.000238 0.170342 0.012528 0.190905
  4 6.388059 -0.005253 -0.000001 0.023070 0.001884 -0.070878
  5 6.146608 1.394838 0.000001 -0.020643 -0.024321 -0.045603
  6 -2.595826 -0.280619 -2.902949 -0.975571 1.134930 2.249185
  7 5.760270 -0.000012 -0.000009 -0.388465 -0.673466 -0.505234
  8 10.965153 0.000065 -0.000006 0.000013 0.000002 -0.002659
  9 0.000007 -0.000004 -4.044200 -0.023206 3.077278 -0.635019
 10 -0.000007 0.000007 4.044200 -0.033319 -3.002947 -0.457093
 11 17.182070 0.000091 0.000546 0.000004 -0.000009 -1.107069
 12 16.782913 0.000650 -0.000234 -0.024344 -0.257240 0.269140
 13 5.168527 5.004116 -0.000135 0.000010 0.000000 1.570793
 14 17.182070 0.000099 0.000206 -0.000001 -0.000007 -1.069264
 15 16.782906 0.000656 -0.000113 -0.214569 0.091776 0.973146
 16 5.168479 5.004167 -0.000064 0.000011 -0.000001 1.570802
 17 -2.447388 -0.409544 3.004528 0.688502 -1.444153 2.504492
 18 5.760273 0.000016 0.000006 -0.068886 1.192985 -0.395281
time 31
  0 -2.482716 2.482716 -10.693796 -0.023236 0.868134 -1.765728
  1 0.000000 0.000000 0.000000 -0.000424 -1.623846 -1.570796
  2 4.484989 -0.004008 -0.230470 0.049879 0.081223 -0.117074
  3 5.037136 -0.005101 -0.000238 0.182348 0.024014 0.132980
  4 6.388059 -0.005253 -0.000001 0.023825 0.002969 -0.121443
  5 6.146608 1.394838 0.000001 -0.019487 -0.025270 -0.092764
  6 -2.576294 -0.409530 -2.902949 -0.345148 1.126360 2.916673
  7 5.760270 -0.000012 -0.000009 -0.695940 -0.392239 -0.368113
  8 10.965153 0.000065 -0.000006 0.000013 0.000002 -0.460668
  9 0.000007 -0.000004 -4.044200 -0.031839 3.062279 -0.476231
 10 -0.000007 0.000007 4.044200 -0.011371 -2.981633 -0.527823
 11 17.182070 0.000091 0.000546 0.000004 -0.000009 -1.269043
 12 16.782913 0.000650 -0.000234 0.058107 -0.243360 0.141609
 13 5.168527 5.004116 -0.000135 0.000010 0.000000 1.570793
 14 17.182070 0.000099 0.000206 -0.000001 -0.000007 -0.954890
 15 16.782906 0.000656 -0.000113 -0.151642 0.107689 1.166659
 16 5.168479 5.004167 -0.000064 0.000011 -0.000001 1.570802
 17 -2.427856 -0.526735 3.004528 -0.607639 -1.424224 3.835015
 18 5.760273 0.000016 0.000006 0.329177 1.087018 -0.176948
time 32
  0 -2.553031 2.553031 -14.229060 -0.036718 0.998090 -1.731552
  1 0.000000 0.000000 0.000000 -3.141168 -1.522244 1.570796
  2 4.484989 -0.004008 -0.210938 0.052901 0.082821 -0.054440
  3 5.037136 -0.005101 -0.000238 0.178403 0.038792 0.058283
  4 6.388059 -0.005253 -0.000001 0.023586 0.004035 -0.170142
  5 6.146608 1.394838 0.000001 -0.018425 -0.026042 -0.133573
  6 -2.556763 -0.515002 -2.902949 0.001638 1.148404 3.276361
  7 5.760270 -0.000012 -0.000009 -1.086599 0.006467 0.192809
  8 10.965153 0.000065 -0.000006 0.000013 0.000002 -1.453206
  9 0.000007 -0.000004 -4.044200 -0.027190 3.094283 -0.434289
 10 -0.000007 0.000007 4.044200 0.000801 -2.951775 -0.531169
 11 17.182070 0.000091 0.000546 0.000004 -0.000009 -1.247102
 12 16.782913 0.000650 -0.000234 0.141391 -0.194974 -0.017203
 13 5.168527 5.004116 -0.000135 0.000010 0.000000 1.570793
 14 17.182070 0.000099 0.000206 -0.000001 -0.000007 -1.144781
 15 16.782906 0.000656 -0.000113 -0.124204 0.059558 1.138095
 16 5.168479 5.004167 -0.000064 0.000011 -0.000001 1.570802
 17 -2.408325 -0.620487 3.004528 -1.077756 -1.219619 4.318592
 18 5.760273 0.000016 0.000006 0.597268 0.859765 -0.138786
time 33
  0 -2.635065 2.635065 -17.670572 -0.044272 1.127156 -1.695873
  1 0.000000 0.000000 0.000000 -0.000424 -1.614908 -1.570796
  2 4.484989 -0.004008 -0.187500 0.053486 0.084084 0.011450
  3 5.037136 -0.005101 -0.000238 0.167859 0.051785 -0.011669
  4 6.388059 -0.005253 -0.000001 0.022879 0.004549 -0.201899
  5 6.146608 1.394838 0.000001 -0.017933 -0.026378 -0.152230
  6 -2.545043 -0.557972 -2.902949 0.356900 1.120243 3.621074
  7 5.760270 -0.000012 -0.000009 -1.201638 0.077246 0.826931
  8 10.965153 0.000065 -0.000006 0.000013 0.000002 -1.625377
  9 0.000007 -0.000004 -4.044200 -0.019885 3.135459 -0.422538
 10 -0.000007 0.000007 4.044200 -0.015205 -2.933677 -0.398598
 11 17.182070 0.000091 0.000546 0.000004 -0.000009 -0.936779
 12 16.782913 0.000650 -0.000234 0.185854 -0.126185 -0.299403
 13 5.168527 5.004116 -0.000135 0.000010 0.000000 1.570793
 14 17.182070 0.000099 0.000206 -0.000001 -0.000007 -1.314868
 15 16.782906 0.000656 -0.000113 -0.075314 0.005505 0.919970
 16 5.168479 5.004167 -0.000064 0.000011 -0.000001 1.570802
 17 -2.392699 -0.663458 3.004528 -1.174251 -1.029631 4.397053
 18 5.760273 0.000016 0.000006 0.724593 0.620159 -0.215919
time 34
  0 -2.701473 2.701473 -20.760509 -0.045324 1.248020 -1.664420
  1 0.000000 0.000000 0.000000 -3.141168 -1.531124 1.570796
  2 4.484989 -0.004008 -0.175781 0.054234 0.083509 0.060347
  3 5.037136 -0.005101 -0.000238 0.160989 0.059540 -0.055181
  4 6.388059 -0.005253 -0.000001 0.022471 0.004454 -0.201706
  5 6.146608 1.394838 0.000001 -0.018444 -0.026022 -0.132937
  6 -2.556763 -0.515002 -2.902949 0.914557 0.924116 4.090261
  7 5.760270 -0.000012 -0.000009 -1.386178 -0.197371 -0.134803
  8 10.965153 0.000065 -0.000006 0.000013 0.000002 -0.879983
  9 0.000007 -0.000004 -4.044200 -0.009260 3.175011 -0.442888
 10 -0.000007 0.000007 4.044200 -0.038687 -2.935974 -0.265358
 11 17.182070 0.000091 0.000546 0.000004 -0.000009 -0.681808
 12 16.782913 0.000650 -0.000234 0.210305 -0.070924 -0.449657
 13 5.168527 5.004116 -0.000135 0.000010 0.000000 1.570793
 14 17.182070 0.000099 0.000206 -0.000001 -0.000007 -1.081324
 15 16.782906 0.000656 -0.000113 0.013147 -0.024142 -0.032538
 16 5.168479 5.004167 -0.000064 0.000011 -0.000001 1.570802
 17 -2.408325 -0.620487 3.004528 -1.160506 -0.966889 4.344587
 18 5.760273 0.000016 0.000006 0.738439 0.468673 -0.274868
time 35
  0 -2.724911 2.724911 -23.448092 -0.062918 1.367945 -1.676438
  1 0.000000 0.000000 0.000000 -3.141168 -1.535564 1.570796
  2 4.484989 -0.004008 -0.156249 0.055241 0.079513 0.079977
  3 5.037136 -0.005101 -0.000238 0.165614 0.061764 -0.043427
  4 6.388059 -0.005253 -0.000001 0.025443 0.005101 -0.127161
  5 6.146608 1.394838 0.000001 -0.021345 -0.023707 -0.016584
  6 -2.595826 -0.206398 -2.902949 0.673017 1.040347 3.768154
  7 5.760270 -0.000012 -0.000009 -1.427497 -0.228570 -0.080107
  8 10.965153 0.000065 -0.000006 0.000013 0.000002 -0.796157
  9 0.000007 -0.000004 -4.044200 -0.011252 3.178355 -0.346775
 10 -0.000007 0.000007 4.044200 -0.024310 -2.903728 -0.227316
 11 17.182070 0.000091 0.000546 0.000004 -0.000009 -1.154321
 12 16.782913 0.000650 -0.000234 0.254130 -0.044090 -0.157607
 13 5.168527 5.004116 -0.000135 0.000010 0.000000 1.570793
 14 17.182070 0.000099 0.000206 -0.000001 -0.000007 -0.997241
 15 16.782906 0.000656 -0.000113 0.035495 -0.017501 -0.311027
 16 5.168479 5.004167 -0.000064 0.000011 -0.000001 1.570802
 17 -2.459107 -0.335322 3.004528 -0.825908 -1.166087 3.934728
 18 5.760273 0.000016 0.000006 0.513379 0.477281 -0.233653
time 36
  0 -2.724911 2.724911 -25.698160 -0.126792 1.456789 -1.747888
  1 0.000000 0.000000 0.000000 -0.000424 -1.601588 -1.570796
  2 4.484989 -0.004008 -0.136717 0.055338 0.073408 0.081312
  3 5.037136 -0.005101 -0.000238 0.172128 0.057462 0.002684
  4 6.388059 -0.005253 -0.000001 0.028607 0.004282 -0.004725
  5 6.146608 1.394838 0.000001 -0.025136 -0.019651 0.157886
  6 -2.595826 0.246740 -2.902949 0.141743 1.138384 3.113734
  7 5.760270 -0.000012 -0.000009 -1.395912 -0.221843 0.099475
  8 10.965153 0.000065 -0.000006 0.000013 0.000002 -0.829155
  9 0.000007 -0.000004 -4.044200 -0.015332 3.173769 -0.230980
 10 -0.000007 0.000007 4.044200 0.000035 -2.866796 -0.217376
 11 17.182070 0.000091 0.000546 0.000004 -0.000009 -1.715600
 12 16.782913 0.000650 -0.000234 0.263842 0.145024 -0.344948
 13 5.168527 5.004116 -0.000135 0.000010 0.000000 1.570793
 14 17.182070 0.000099 0.000206 -0.000001 -0.000007 -0.945296
 15 16.782906 0.000656 -0.000113 0.040488 -0.011950 -0.461637
 16 5.168479 5.004167 -0.000064 0.000011 -0.000001 1.570802
 17 -2.478639 0.098284 3.004528 0.480197 -1.259603 2.526503
 18 5.760273 0.000016 0.000006 0.112737 0.496928 -0.174704
time 37
  0 -2.724911 2.724911 -27.260708 -0.217631 1.503830 -1.838586
  1 0.000000 0.000000 0.000000 -3.141168 -1.544444 1.570796
  2 4.484989 -0.004008 -0.113279 0.054981 0.067958 0.077666
  3 5.037136 -0.005101 -0.000238 0.165699 0.044206 0.030877
  4 6.388059 -0.005253 -0.000001 0.023046 -0.001542 0.077421
  5 6.146608 1.394838 0.000001 -0.027012 -0.016979 0.259670
  6 -2.564575 0.512374 -2.902949 -0.246284 1.130579 2.655324
  7 5.760270 -0.000012 -0.000009 -1.325323 -0.230892 0.069757
  8 10.965153 0.000065 -0.000006 0.000013 0.000002 -0.784208
  9 0.000007 -0.000004 -4.044200 -0.018747 3.158865 -0.148242
 10 -0.000007 0.000007 4.044200 0.020162 -2.849341 -0.221390
 11 17.182070 0.000091 0.000546 0.000004 -0.000009 -1.989069
 12 16.782913 0.000650 -0.000234 0.194462 0.260809 -0.566762
 13 5.168527 5.004116 -0.000135 0.000010 0.000000 1.570793
 14 17.182070 0.000099 0.000206 -0.000001 -0.000007 -0.957700
 15 16.782906 0.000656 -0.000113 0.033706 -0.003192 -0.585790
 16 5.168479 5.004167 -0.000064 0.000011 -0.000001 1.570802
 17 -2.459107 0.352198 3.004528 1.021624 -1.082441 1.926989
 18 5.760273 0.000016 0.000006 -0.117142 0.454570 -0.094518
time 38
  0 -2.724911 2.724911 -28.127922 -0.499040 1.540445 -2.120350
  1 0.000000 0.000000 0.000000 -0.000424 -1.592708 -1.570796
  2 4.484989 -0.004008 -0.093747 0.054169 0.064218 0.072132
  3 5.037136 -0.005101 -0.000238 0.135667 0.016157 0.021026
  4 6.388059 -0.005253 -0.000001 0.001774 -0.016292 0.088030
  5 6.146608 1.394838 0.000001 -0.034158 -0.016564 0.239424
  6 -2.572388 0.481123 -2.902949 -0.081415 1.140309 2.827013
  7 5.760270 -0.000012 -0.000009 -1.383387 -0.183483 -0.042437
  8 10.965153 0.000065 -0.000006 0.000013 0.000002 -0.881221
  9 0.000007 -0.000004 -4.044200 -0.031080 3.096003 -0.250184
 10 -0.000007 0.000007 4.044200 0.027159 -2.872308 -0.237639
 11 17.182070 0.000091 0.000546 0.000004 -0.000009 -1.681111
 12 16.782913 0.000650 -0.000234 0.244296 0.186979 -0.629118
 13 5.168527 5.004116 -0.000135 0.000010 0.000000 1.570793
 14 17.182070 0.000099 0.000206 -0.000001 -0.000007 -1.302944
 15 16.782906 0.000656 -0.000113 -0.027790 -0.001937 -0.612322
 16 5.168479 5.004167 -0.000064 0.000011 -0.000001 1.570802
 17 -2.470827 0.277977 3.004528 0.971162 -1.114912 1.991599
 18 5.760273 0.000016 0.000006 -0.064678 0.437695 0.023111
time 39
  0 -2.724911 2.724911 -28.514652 1.277576 1.585559 -0.343951
  1 0.000000 0.000000 0.000000 -3.141168 -1.553305 1.570704
  2 4.484989 -0.004008 -0.070309 0.053031 0.061165 0.062268
  3 5.037136 -0.005101 -0.000238 0.093561 -0.022340 -0.002060
  4 6.388059 -0.005253 -0.000001 -0.028056 -0.036923 0.069310
  5 6.146608 1.394838 0.000001 -0.045304 -0.017672 0.163681
  6 -2.595826 0.320961 -2.902949 0.175935 1.134956 3.139678
  7 5.760270 -0.000012 -0.000009 -1.494547 -0.145201 -0.181699
  8 10.965153 0.000065 -0.000006 0.000013 0.000002 -1.007393
  9 0.000007 -0.000004 -4.044200 -0.039997 3.068106 -0.315342
 10 -0.000007 0.000007 4.044200 0.029267 -2.910158 -0.258571
 11 17.182070 0.000091 0.000546 0.000004 -0.000009 -1.168016
 12 16.782913 0.000650 -0.000234 0.270684 0.039246 -0.669195
 13 5.168527 5.004116 -0.000135 0.000010 0.000000 1.570793
 14 17.182070 0.000099 0.000206 -0.000001 -0.000007 -1.290883
 15 16.782906 0.000656 -0.000113 -0.053585 0.004560 -0.452793
 16 5.168479 5.004167 -0.000064 0.000011 -0.000001 1.570802
 17 -2.490358 0.055314 2.996715 0.638870 -1.238040 2.371098
 18 5.760273 0.000016 0.000006 0.094412 0.407058 0.157262
time 40
  0 -2.724911 2.724911 -28.698252 0.471310 1.602211 -1.150466
  1 0.000000 0.000000 0.000000 -0.000424 -1.583924 -1.570704
  2 4.484989 -0.004008 -0.058590 0.052024 0.058000 0.052859
  3 5.037136 -0.005101 -0.000238 0.056675 -0.057222 -0.024511
  4 6.388059 -0.005253 -0.000001 -0.054051 -0.055936 0.042849
  5 6.146608 1.394838 0.000001 -0.046005 -0.020561 0.076228
  6 -2.607545 0.098298 -2.902949 0.416523 1.106505 3.446905
  7 5.760270 -0.000012 -0.000009 -1.599784 -0.125687 -0.308524
  8 10.965153 0.000065 -0.000006 0.000013 0.000002 -1.117097
  9 0.000007 -0.000004 -4.044200 -0.048345 3.048330 -0.373239
 10 -0.000007 0.000007 4.044200 0.029267 -2.945712 -0.279790
 11 17.182070 0.000091 0.000546 0.000004 -0.000009 -0.646818
 12 16.782913 0.000650 -0.000234 0.223254 -0.095033 -0.678840
 13 5.168527 5.004116 -0.000135 0.000010 0.000000 1.570793
 14 17.182070 0.000099 0.000206 -0.000001 -0.000007 -1.208513
 15 16.782906 0.000656 -0.000113 -0.067507 0.026024 -0.264022
 16 5.168479 5.004167 -0.000064 0.000011 -0.000001 1.570802
 17 -2.490358 -0.175161 2.996715 0.046243 -1.298582 3.021085
 18 5.760273 0.000016 0.000006 0.241624 0.340044 0.253879
time 41
  0 -2.724911 2.724911 -28.877945 0.300629 1.619110 -1.321064
  1 0.000000 0.000000 0.000000 -0.000424 -1.579484 -1.570796
  2 4.484989 -0.004008 -0.039058 0.051471 0.054149 0.048595
  3 5.037136 -0.005101 -0.000238 0.040911 -0.072497 -0.034483
  4 6.388059 -0.005253 -0.000001 -0.065064 -0.064482 0.029425
  5 6.146608 1.394838 0.000001 -0.022217 -0.022896 0.020572
  6 -2.607545 -0.112646 -2.902949 0.556533 1.076419 3.628037
  7 5.760270 -0.000012 -0.000009 -1.645460 -0.121123 -0.364596
  8 10.965153 0.000065 -0.000006 0.000013 0.000002 -1.163654
  9 0.000007 -0.000004 -4.044200 -0.054322 3.040210 -0.421391
 10 -0.000007 0.000007 4.044200 0.030801 -2.961789 -0.298333
 11 17.182070 0.000091 0.000546 0.000004 -0.000009 -0.314553
 12 16.782913 0.000650 -0.000234 0.164395 -0.163025 -0.655915
 13 5.168527 5.004116 -0.000135 0.000010 0.000000 1.570793
 14 17.182070 0.000099 0.000206 -0.000001 -0.000007 -1.072896
 15 16.782906 0.000656 -0.000113 -0.063750 0.046379 -0.156654
 16 5.168479 5.004167 -0.000064 0.000011 -0.000001 1.570802
 17 -2.470827 -0.241570 3.004528 -0.185678 -1.293678 3.298309
 18 5.760273 0.000016 0.000006 0.300400 0.298221 0.286474
time 42
  0 -2.724911 2.724911 -28.803724 0.496745 1.600679 -1.124834
  1 0.000000 0.000000 0.000000 -0.000424 -1.575140 -1.570704
  2 4.484989 -0.004008 -0.019526 0.052251 0.047947 0.062723
  3 5.037136 -0.005101 -0.000238 0.099717 -0.015682 -0.003359
  4 6.388059 -0.005253 -0.000001 -0.022939 -0.034011 0.050819
  5 6.146608 1.394838 0.000001 0.043786 -0.024083 0.011363
  6 -2.607545 -0.323589 -2.883417 0.352995 1.117395 3.451770
  7 5.760270 -0.000012 -0.000009 -1.498631 -0.148388 -0.144641
  8 10.965153 0.000065 -0.000006 0.000013 0.000002 -0.997921
  9 0.000007 -0.000004 -4.044200 -0.041800 3.089029 -0.419003
 10 -0.000007 0.000007 4.044200 0.039906 -2.912547 -0.311332
 11 17.182070 0.000091 0.000546 0.000004 -0.000009 -0.587592
 12 16.782913 0.000650 -0.000234 0.228257 -0.177332 -0.522677
 13 5.168527 5.004116 -0.000135 0.000010 0.000000 1.570793
 14 17.182070 0.000099 0.000206 -0.000001 -0.000007 -0.676803
 15 16.782906 0.000656 -0.000113 -0.017559 0.016341 -0.491932
 16 5.168479 5.004167 -0.000064 0.000011 -0.000001 1.570802
 17 -2.470827 -0.069689 3.016247 0.716639 -1.216790 2.449085
 18 5.760273 0.000016 0.000006 0.136288 0.413234 0.121883
time 43
  0 -2.724911 2.724911 -28.608406 -1.350725 1.555763 -2.972589
  1 0.000000 0.000000 0.000000 -1.570796 -1.570796 0.000000
  2 4.484989 -0.004008 0.000006 0.052934 0.041634 0.077503
  3 5.037136 -0.005101 -0.000238 0.165699 0.044206 0.030877
  4 6.388059 -0.005253 -0.000001 0.023046 -0.001542 0.077421
  5 6.146608 1.394838 0.000001 0.139813 -0.026299 0.024225
  6 -2.619265 -0.565784 -2.836541 0.138981 1.139518 3.240974
  7 5.760270 -0.000012 -0.000009 -1.325323 -0.230892 0.069757
  8 10.965153 0.000065 -0.000006 0.000013 0.000002 -0.784208
  9 0.000007 -0.000004 -4.044200 -0.023300 3.137274 -0.263177
 10 -0.000007 0.000007 4.044200 0.048340 -2.852189 -0.317258
 11 17.182070 0.000091 0.000546 0.000004 -0.000009 -0.955779
 12 16.782913 0.000650 -0.000234 0.326501 -0.129947 -0.421875
 13 5.168527 5.004116 -0.000135 0.000010 0.000000 1.570793
 14 17.182070 0.000099 0.000206 -0.000001 -0.000007 -0.763834
 15 16.782906 0.000656 -0.000113 0.028224 -0.021860 -0.336241
 16 5.168479 5.004167 -0.000064 0.000011 -0.000001 1.570802
 17 -2.459107 0.258446 3.012341 1.180667 -0.943408 2.027367
 18 5.760273 0.000016 0.000006 -0.117142 0.454570 -0.094518
time 44
  0 -2.713192 2.713192 -28.573248 -1.142752 1.554725 -2.764247
  1 0.000000 0.000000 0.000000 -1.570796 -1.570796 0.000000
  2 4.484989 -0.004008 0.000006 0.052999 0.041523 0.078480
  3 5.037136 -0.005101 -0.000238 0.174372 0.052634 0.029094
  4 6.388059 -0.005253 -0.000001 0.028380 0.003578 0.084793
  5 6.146608 1.394838 0.000001 0.234475 -0.030474 0.044192
  6 -2.627077 -0.780635 -2.774039 0.378711 1.118054 3.437653
  7 5.760270 -0.000012 -0.000009 -1.317358 -0.270550 0.059868
  8 10.965153 0.000065 -0.000006 0.000013 0.000002 -0.714312
  9 0.000007 -0.000004 -4.044200 -0.020454 3.147401 -0.233560
 10 -0.000007 0.000007 4.044200 0.050066 -2.837214 -0.316111
 11 17.182070 0.000091 0.000546 0.000004 -0.000009 -0.839623
 12 16.782913 0.000650 -0.000234 0.337684 -0.108117 -0.547606
 13 5.168527 5.004116 -0.000135 0.000010 0.000000 1.570793
 14 17.182070 0.000099 0.000206 -0.000001 -0.000007 -0.820849
 15 16.782906 0.000656 -0.000113 0.036926 -0.028254 -0.268125
 16 5.168479 5.004167 -0.000064 0.000011 -0.000001 1.570802
 17 -2.447388 0.594393 2.973277 1.241000 -0.860516 1.959247
 18 5.760273 0.000016 0.000006 -0.125015 0.461914 -0.111848
time 45
  0 -2.713192 2.713192 -28.573248 -1.036710 1.553836 -2.658433
  1 0.000000 0.000000 0.000000 -1.570796 -1.570796 0.000000
  2 4.484989 -0.004008 0.000006 0.052999 0.041523 0.078545
  3 5.037136 -0.005101 -0.000238 0.179321 0.057945 0.024803
  4 6.388059 -0.005253 -0.000001 0.031184 0.007213 0.090968
  5 6.146608 1.394838 0.000001 0.296535 -0.034155 0.056538
  6 -2.646609 -0.917358 -2.723256 0.635205 1.062312 3.653886
  7 5.760270 -0.000012 -0.000009 -1.337848 -0.277946 0.003694
  8 10.965153 0.000065 -0.000006 0.000013 0.000002 -0.686267
  9 0.000007 -0.000004 -4.044200 -0.021024 3.148548 -0.239770
 10 -0.000007 0.000007 4.044200 0.049011 -2.836846 -0.311428
 11 17.182070 0.000091 0.000546 0.000004 -0.000009 -0.588811
 12 16.782913 0.000650 -0.000234 0.326698 -0.093606 -0.746563
 13 5.168527 5.004116 -0.000135 0.000010 0.000000 1.570793
 14 17.182070 0.000099 0.000206 -0.000001 -0.000007 -0.840380
 15 16.782906 0.000656 -0.000113 0.038016 -0.028439 -0.259657
 16 5.168479 5.004167 -0.000064 0.000011 -0.000001 1.570802
 17 -2.447388 0.809244 2.938119 1.226424 -0.872618 1.956116
 18 5.760273 0.000016 0.000006 -0.069429 0.484187 -0.102420
time 46
  0 -2.713192 2.713192 -28.573248 -0.997219 1.553391 -2.618624
  1 0.000000 0.000000 0.000000 -1.570796 -1.570796 0.000000
  2 4.484989 -0.004008 0.000006 0.052966 0.041602 0.077894
  3 5.037136 -0.005101 -0.000238 0.181192 0.060740 0.018457
  4 6.388059 -0.005253 -0.000001 0.031699 0.009459 0.096141
  5 6.146608 1.394838 0.000001 0.319186 -0.035382 0.058920
  6 -2.650516 -0.968140 -2.692005 0.750641 1.021309 3.751558
  7 5.760270 -0.000012 -0.000009 -1.356499 -0.275310 -0.034383
  8 10.965153 0.000065 -0.000006 0.000013 0.000002 -0.680819
  9 0.000007 -0.000004 -4.044200 -0.020170 3.150172 -0.301489
 10 -0.000007 0.000007 4.044200 0.047574 -2.838408 -0.307509
 11 17.182070 0.000091 0.000546 0.000004 -0.000009 -0.403965
 12 16.782913 0.000650 -0.000234 0.313283 -0.079152 -0.871853
 13 5.168527 5.004116 -0.000135 0.000010 0.000000 1.570793
 14 17.182070 0.000099 0.000206 -0.000001 -0.000007 -0.701405
 15 16.782906 0.000656 -0.000113 0.038325 -0.028727 -0.462691
 16 5.168479 5.004167 -0.000064 0.000011 -0.000001 1.570802
 17 -2.439576 0.883465 2.922494 1.208711 -0.893302 1.966647
 18 5.760273 0.000016 0.000006 -0.034136 0.498679 -0.091061
time 47
  0 -2.713192 2.713192 -28.573248 -1.003434 1.553490 -2.624727
  1 0.000000 0.000000 0.000000 -1.570796 -1.570796 0.000000
  2 4.484989 -0.004008 0.000006 0.052901 0.041762 0.076657
  3 5.037136 -0.005101 -0.000238 0.180733 0.061457 0.010450
  4 6.388059 -0.005253 -0.000001 0.030705 0.010658 0.100557
  5 6.146608 1.394838 0.000001 0.322029 -0.035540 0.059158
  6 -2.650516 -0.979859 -2.688099 0.766833 1.014612 3.765102
  7 5.760270 -0.000012 -0.000009 -1.365961 -0.266891 -0.035709
  8 10.965153 0.000065 -0.000006 0.000013 0.000002 -0.693820
  9 0.000007 -0.000004 -4.044200 -0.020170 3.149216 -0.328622
 10 -0.000007 0.000007 4.044200 0.046903 -2.838776 -0.306935
 11 17.182070 0.000091 0.000546 0.000004 -0.000009 -0.375500
 12 16.782913 0.000650 -0.000234 0.302467 -0.062381 -0.847502
 13 5.168527 5.004116 -0.000135 0.000010 0.000000 1.570793
 14 17.182070 0.000099 0.000206 -0.000001 -0.000007 -0.681326
 15 16.782906 0.000656 -0.000113 0.036861 -0.028172 -0.497615
 16 5.168479 5.004167 -0.000064 0.000011 -0.000001 1.570802
 17 -2.439576 0.891277 2.914681 1.235557 -0.857373 1.946059
 18 5.760273 0.000016 0.000006 -0.064135 0.503250 -0.091151
time 48
  0 -2.713192 2.713192 -28.573248 -1.043212 1.553836 -2.664536
  1 0.000000 0.000000 0.000000 -1.570796 -1.570796 0.000000
  2 4.484989 -0.004008 0.000006 0.052771 0.042002 0.074964
  3 5.037136 -0.005101 -0.000238 0.178539 0.060696 0.001264
  4 6.388059 -0.005253 -0.000001 0.028380 0.011134 0.104410
  5 6.146608 1.394838 0.000001 0.313518 -0.035085 0.058285
  6 -2.650516 -0.960328 -2.699818 0.753689 1.019780 3.754896
  7 5.760270 -0.000012 -0.000009 -1.376308 -0.249658 -0.028470
  8 10.965153 0.000065 -0.000006 0.000013 0.000002 -0.724404
  9 0.000007 -0.000004 -4.044200 -0.021024 3.148070 -0.348877
 10 -0.000007 0.000007 4.044200 0.046903 -2.840981 -0.307413
 11 17.182070 0.000091 0.000546 0.000004 -0.000009 -0.412856
 12 16.782913 0.000650 -0.000234 0.289568 -0.045109 -0.749687
 13 5.168527 5.004116 -0.000135 0.000010 0.000000 1.570793
 14 17.182070 0.000099 0.000206 -0.000001 -0.000007 -0.683930
 15 16.782906 0.000656 -0.000113 0.035121 -0.027411 -0.500588
 16 5.168479 5.004167 -0.000064 0.000011 -0.000001 1.570802
 17 -2.439576 0.860026 2.922494 1.273103 -0.803337 1.920348
 18 5.760273 0.000016 0.000006 -0.118703 0.502618 -0.095057
time 49
  0 -2.713192 2.713192 -28.573248 -1.107564 1.554478 -2.729414
  1 0.000000 0.000000 0.000000 -1.570796 -1.570796 0.000000
  2 4.484989 -0.004008 0.000006 0.052674 0.042258 0.073043
  3 5.037136 -0.005101 -0.000238 0.175325 0.058969 -0.008708
  4 6.388059 -0.005253 -0.000001 0.025276 0.011134 0.107911
  5 6.146608 1.394838 0.000001 0.302202 -0.034471 0.057094
  6 -2.650516 -0.929077 -2.711537 0.725592 1.030591 3.732100
  7 5.760270 -0.000012 -0.000009 -1.385361 -0.230773 -0.016389
  8 10.965153 0.000065 -0.000006 0.000013 0.000002 -0.758454
  9 0.000007 -0.000004 -4.044200 -0.021498 3.146446 -0.366265
 10 -0.000007 0.000007 4.044200 0.046711 -2.843461 -0.308274
 11 17.182070 0.000091 0.000546 0.000004 -0.000009 -0.444907
 12 16.782913 0.000650 -0.000234 0.278336 -0.028616 -0.661587
 13 5.168527 5.004116 -0.000135 0.000010 0.000000 1.570793
 14 17.182070 0.000099 0.000206 -0.000001 -0.000007 -0.690098
 15 16.782906 0.000656 -0.000113 0.033218 -0.026568 -0.497238
 16 5.168479 5.004167 -0.000064 0.000011 -0.000001 1.570802
 17 -2.439576 0.828776 2.934213 1.293583 -0.771432 1.907825
 18 5.760273 0.000016 0.000006 -0.159087 0.500673 -0.102420
time 50
  0 -2.724911 2.724911 -28.573248 -1.186355 1.555022 -2.807906
  1 0.000000 0.000000 0.000000 -1.570796 -1.570796 0.000000
  2 4.484989 -0.004008 0.000006 0.052544 0.042497 0.071090
  3 5.037136 -0.005101 -0.000238 0.171703 0.056862 -0.018951
  4 6.388059 -0.005253 -0.000001 0.021944 0.011020 0.111254
  5 6.146608 1.394838 0.000001 0.296535 -0.034155 0.056538
  6 -2.646609 -0.917358 -2.723256 0.697209 1.041112 3.708158
  7 5.760270 -0.000012 -0.000009 -1.392100 -0.217790 -0.002677
  8 10.965153 0.000065 -0.000006 0.000013 0.000002 -0.782846
  9 0.000007 -0.000004 -4.044200 -0.021972 3.144726 -0.382124
 10 -0.000007 0.000007 4.044200 0.046423 -2.845482 -0.307796
 11 17.182070 0.000091 0.000546 0.000004 -0.000009 -0.447560
 12 16.782913 0.000650 -0.000234 0.269654 -0.013810 -0.610642
 13 5.168527 5.004116 -0.000135 0.000010 0.000000 1.570793
 14 17.182070 0.000099 0.000206 -0.000001 -0.000007 -0.693593
 15 16.782906 0.000656 -0.000113 0.031363 -0.025643 -0.496034
 16 5.168479 5.004167 -0.000064 0.000011 -0.000001 1.570802
 17 -2.447388 0.809244 2.938119 1.276517 -0.799691 1.920064
 18 5.760273 0.000016 0.000006 -0.156372 0.504758 -0.127921
time 51
  0 -2.724911 2.724911 -28.573248 -1.265241 1.555417 -2.886586
  1 0.000000 0.000000 0.000000 -1.570796 -1.570796 0.000000
  2 4.484989 -0.004008 0.000006 0.052414 0.042737 0.069071
  3 5.037136 -0.005101 -0.000238 0.168352 0.054872 -0.029013
  4 6.388059 -0.005253 -0.000001 0.018708 0.010944 0.114685
  5 6.146608 1.394838 0.000001 0.296535 -0.034155 0.056538
  6 -2.646609 -0.917358 -2.723256 0.670636 1.050657 3.684790
  7 5.760270 -0.000012 -0.000009 -1.394755 -0.218184 0.008894
  8 10.965153 0.000065 -0.000006 0.000013 0.000002 -0.784208
  9 0.000007 -0.000004 -4.044200 -0.022636 3.142911 -0.395882
 10 -0.000007 0.000007 4.044200 0.046040 -2.847503 -0.307605
 11 17.182070 0.000091 0.000546 0.000004 -0.000009 -0.446341
 12 16.782913 0.000650 -0.000234 0.261978 0.000237 -0.566490
 13 5.168527 5.004116 -0.000135 0.000010 0.000000 1.570793
 14 17.182070 0.000099 0.000206 -0.000001 -0.000007 -0.699555
 15 16.782906 0.000656 -0.000113 0.029461 -0.024615 -0.490389
 16 5.168479 5.004167 -0.000064 0.000011 -0.000001 1.570802
 17 -2.447388 0.809244 2.938119 1.254561 -0.833388 1.935718
 18 5.760273 0.000016 0.000006 -0.142322 0.511566 -0.148709
time 52
  0 -2.724911 2.724911 -28.604500 -1.326342 1.555664 -2.947896
  1 0.000000 0.000000 0.000000 -1.570796 -1.570796 0.000000
  2 4.484989 -0.004008 0.000006 0.052284 0.043009 0.067346
  3 5.037136 -0.005101 -0.000238 0.165734 0.053629 -0.038501
  4 6.388059 -0.005253 -0.000001 0.016011 0.011172 0.118397
  5 6.146608 1.394838 0.000001 0.296535 -0.034155 0.056538
  6 -2.646609 -0.917358 -2.723256 0.599393 1.073228 3.622028
  7 5.760270 -0.000012 -0.000009 -1.377533 -0.265553 0.023422
  8 10.965153 0.000065 -0.000006 0.000013 0.000002 -0.703169
  9 0.000007 -0.000004 -4.044200 -0.023300 3.141191 -0.408876
 10 -0.000007 0.000007 4.044200 0.046040 -2.849524 -0.307413
 11 17.182070 0.000091 0.000546 0.000004 -0.000009 -0.443473
 12 16.782913 0.000650 -0.000234 0.255160 0.014228 -0.524851
 13 5.168527 5.004116 -0.000135 0.000010 0.000000 1.570793
 14 17.182070 0.000099 0.000206 -0.000001 -0.000007 -0.706476
 15 16.782906 0.000656 -0.000113 0.027493 -0.023546 -0.482937
 16 5.168479 5.004167 -0.000064 0.000011 -0.000001 1.570802
 17 -2.447388 0.809244 2.938119 1.262494 -0.821663 1.930215
 18 5.760273 0.000016 0.000006 -0.146055 0.517159 -0.132276
time 53
  0 -2.724911 2.724911 -28.608406 -1.350725 1.555763 -2.972589
  1 0.000000 0.000000 0.000000 -1.570796 -1.570796 0.000000
  2 4.484989 -0.004008 0.000006 0.052219 0.043185 0.065946
  3 5.037136 -0.005101 -0.000238 0.164747 0.053716 -0.046962
  4 6.388059 -0.005253 -0.000001 0.014489 0.012200 0.122567
  5 6.146608 1.394838 0.000001 0.296535 -0.034155 0.056538
  6 -2.646609 -0.917358 -2.723256 0.491385 1.100493 3.525501
  7 5.760270 -0.000012 -0.000009 -1.344655 -0.336293 0.038051
  8 10.965153 0.000065 -0.000006 0.000013 0.000002 -0.577925
  9 0.000007 -0.000004 -4.044200 -0.024154 3.139472 -0.422060
 10 -0.000007 0.000007 4.044200 0.045465 -2.851637 -0.307222
 11 17.182070 0.000091 0.000546 0.000004 -0.000009 -0.441537
 12 16.782913 0.000650 -0.000234 0.248980 0.028776 -0.482431
 13 5.168527 5.004116 -0.000135 0.000010 0.000000 1.570793
 14 17.182070 0.000099 0.000206 -0.000001 -0.000007 -0.713055
 15 16.782906 0.000656 -0.000113 0.025590 -0.022456 -0.476389
 16 5.168479 5.004167 -0.000064 0.000011 -0.000001 1.570802
 17 -2.447388 0.809244 2.938119 1.277162 -0.798434 1.919494
 18 5.760273 0.000016 0.000006 -0.155218 0.523773 -0.108032
time 54
  0 -2.724911 2.724911 -28.608406 -1.350725 1.555763 -2.972589
  1 0.000000 0.000000 0.000000 -1.570796 -1.570796 0.000000
  2 4.484989 -0.004008 0.000006 0.052219 0.043185 0.065946
  3 5.037136 -0.005101 -0.000238 0.164747 0.053716 -0.046962
  4 6.388059 -0.005253 -0.000001 0.014489 0.012200 0.122567
  5 6.146608 1.394838 0.000001 0.296535 -0.034155 0.056538
  6 -2.646609 -0.917358 -2.723256 0.491385 1.100493 3.525501
  7 5.760270 -0.000012 -0.000009 -1.344655 -0.336293 0.038051
  8 10.965153 0.000065 -0.000006 0.000013 0.000002 -0.577925
  9 0.000007 -0.000004 -4.044200 -0.024154 3.139472 -0.422060
 10 -0.000007 0.000007 4.044200 0.045465 -2.851637 -0.307222
 11 17.182070 0.000091 0.000546 0.000004 -0.000009 -0.441537
 12 16.782913 0.000650 -0.000234 0.248980 0.028776 -0.482431
 13 5.168527 5.004116 -0.000135 0.000010 0.000000 1.570793
 14 17.182070 0.000099 0.000206 -0.000001 -0.000007 -0.713055
 15 16.782906 0.000656 -0.000113 0.025590 -0.022456 -0.476389
 16 5.168479 5.004167 -0.000064 0.000011 -0.000001 1.570802
 17 -2.447388 0.809244 2.938119 1.277162 -0.798434 1.919494
 18 5.760273 0.000016 0.000006 -0.155218 0.523773 -0.108032
time 55
  0 -2.724911 2.724911 -28.608406 -1.350725 1.555763 -2.972589
  1 0.000000 0.000000 0.000000 -1.570796 -1.570796 0.000000
  2 4.484989 -0.004008 0.000006 0.052219 0.043185 0.065946
  3 5.037136 -0.005101 -0.000238 0.164747 0.053716 -0.046962
  4 6.388059 -0.005253 -0.000001 0.014489 0.012200 0.122567
  5 6.146608 1.394838 0.000001 0.296535 -0.034155 0.056538
  6 -2.646609 -0.917358 -2.723256 0.491385 1.100493 3.525501
  7 5.760270 -0.000012 -0.000009 -1.344655 -0.336293 0.038051
  8 10.965153 0.000065 -0.000006 0.000013 0.000002 -0.577925
  9 0.000007 -0.000004 -4.044200 -0.024154 3.139472 -0.422060
 10 -0.000007 0.000007 4.044200 0.045465 -2.851637 -0.307222
 11 17.182070 0.000091 0.000546 0.000004 -0.000009 -0.441537
 12 16.782913 0.000650 -0.000234 0.248980 0.028776 -0.482431
 13 5.168527 5.004116 -0.000135 0.000010 0.000000 1.570793
 14 17.182070 0.000099 0.000206 -0.000001 -0.000007 -0.713055
 15 16.782906 0.000656 -0.000113 0.025590 -0.022456 -0.476389
 16 5.168479 5.004167 -0.000064 0.000011 -0.000001 1.570802
 17 -2.447388 0.809244 2.938119 1.277162 -0.798434 1.919494
 18 5.760273 0.000016 0.000006 -0.155218 0.523773 -0.108032
time 56
  0 -2.724911 2.724911 -28.608406 -1.350725 1.555763 -2.972589
  1 0.000000 0.000000 0.000000 -1.570796 -1.570796 0.000000
  2 4.484989 -0.004008 0.000006 0.052219 0.043185 0.065946
  3 5.037136 -0.005101 -0.000238 0.164747 0.053716 -0.046962
  4 6.388059 -0.005253 -0.000001 0.014489 0.012200 0.122567
  5 6.146608 1.394838 0.000001 0.296535 -0.034155 0.056538
  6 -2.646609 -0.917358 -2.723256 0.491385 1.100493 3.525501
  7 5.760270 -0.000012 -0.000009 -1.344655 -0.336293 0.038051
  8 10.965153 0.000065 -0.000006 0.000013 0.000002 -0.577925
  9 0.000007 -0.000004 -4.044200 -0.024154 3.139472 -0.422060
 10 -0.000007 0.000007 4.044200 0.045465 -2.851637 -0.307222
 11 17.182070 0.000091 0.000546 0.000004 -0.000009 -0.441537
 12 16.782913 0.000650 -0.000234 0.248980 0.028776 -0.482431
 13 5.168527 5.004116 -0.000135 0.000010 0.000000 1.570793
 14 17.182070 0.000099 0.000206 -0.000001 -0.000007 -0.713055
 15 16.782906 0.000656 -0.000113 0.025590 -0.022456 -0.476389
 16 5.168479 5.004167 -0.000064 0.000011 -0.000001 1.570802
 17 -2.447388 0.809244 2.938119 1.277162 -0.798434 1.919494
 18 5.760273 0.000016 0.000006 -0.155218 0.523773 -0.108032
time 57
  0 -2.724911 2.724911 -28.608406 -1.350725 1.555763 -2.972589
  1 0.000000 0.000000 0.000000 -1.570796 -1.570796 0.000000
  2 4.484989 -0.004008 0.000006 0.052219 0.043185 0.065946
  3 5.037136 -0.005101 -0.000238 0.164747 0.053716 -0.046962
  4 6.388059 -0.005253 -0.000001 0.014489 0.012200 0.122567
  5 6.146608 1.394838 0.000001 0.296535 -0.034155 0.056538
  6 -2.646609 -0.917358 -2.723256 0.491385 1.100493 3.525501
  7 5.760270 -0.000012 -0.000009 -1.344655 -0.336293 0.038051
  8 10.965153 0.000065 -0.000006 0.000013 0.000002 -0.577925
  9 0.000007 -0.000004 -4.044200 -0.024154 3.139472 -0.422060
 10 -0.000007 0.000007 4.044200 0.045465 -2.851637 -0.307222
 11 17.182070 0.000091 0.000546 0.000004 -0.000009 -0.441537
 12 16.782913 0.000650 -0.000234 0.248980 0.028776 -0.482431
 13 5.168527 5.004116 -0.000135 0.000010 0.000000 1.570793
 14 17.182070 0.000099 0.000206 -0.000001 -0.000007 -0.713055
 15 16.782906 0.000656 -0.000113 0.025590 -0.022456 -0.476389
 16 5.168479 5.004167 -0.000064 0.000011 -0.000001 1.570802
 17 -2.447388 0.809244 2.938119 1.277162 -0.798434 1.919494
 18 5.760273 0.000016 0.000006 -0.155218 0.523773 -0.108032
time 58
  0 -2.724911 2.724911 -28.608406 -1.350725 1.555763 -2.972589
  1 0.000000 0.000000 0.000000 -1.570796 -1.570796 0.000000
  2 4.484989 -0.004008 0.000006 0.052219 0.043185 0.065946
  3 5.037136 -0.005101 -0.000238 0.164747 0.053716 -0.046962
  4 6.388059 -0.005253 -0.000001 0.014489 0.012200 0.122567
  5 6.146608 1.394838 0.000001 0.296535 -0.034155 0.056538
  6 -2.646609 -0.917358 -2.723256 0.491385 1.100493 3.525501
  7 5.760270 -0.000012 -0.000009 -1.344655 -0.336293 0.038051
  8 10.965153 0.000065 -0.000006 0.000013 0.000002 -0.577925
  9 0.000007 -0.000004 -4.044200 -0.024154 3.139472 -0.422060
 10 -0.000007 0.000007 4.044200 0.045465 -2.851637 -0.307222
 11 17.182070 0.000091 0.000546 0.000004 -0.000009 -0.441537
 12 16.782913 0.000650 -0.000234 0.248980 0.028776 -0.482431
 13 5.168527 5.004116 -0.000135 0.000010 0.000000 1.570793
 14 17.182070 0.000099 0.000206 -0.000001 -0.000007 -0.713055
 15 16.782906 0.000656 -0.000113 0.025590 -0.022456 -0.476389
 16 5.168479 5.004167 -0.000064 0.000011 -0.000001 1.570802
 17 -2.447388 0.809244 2.938119 1.277162 -0.798434 1.919494
 18 5.760273 0.000016 0.000006 -0.155218 0.523773 -0.108032
time 59
  0 -2.724911 2.724911 -28.608406 -1.350725 1.555763 -2.972589
  1 0.000000 0.000000 0.000000 -1.570796 -1.570796 0.000000
  2 4.484989 -0.004008 0.000006 0.052219 0.043185 0.065946
  3 5.037136 -0.005101 -0.000238 0.164747 0.053716 -0.046962
  4 6.388059 -0.005253 -0.000001 0.014489 0.012200 0.122567
  5 6.146608 1.394838 0.000001 0.296535 -0.034155 0.056538
  6 -2.646609 -0.917358 -2.723256 0.491385 1.100493 3.525501
  7 5.760270 -0.000012 -0.000009 -1.344655 -0.336293 0.038051
  8 10.965153 0.000065 -0.000006 0.000013 0.000002 -0.577925
  9 0.000007 -0.000004 -4.044200 -0.024154 3.139472 -0.422060
 10 -0.000007 0.000007 4.044200 0.045465 -2.851637 -0.307222
 11 17.182070 0.000091 0.000546 0.000004 -0.000009 -0.441537
 12 16.782913 0.000650 -0.000234 0.248980 0.028776 -0.482431
 13 5.168527 5.004116 -0.000135 0.000010 0.000000 1.570793
 14 17.182070 0.000099 0.000206 -0.000001 -0.000007 -0.713055
 15 16.782906 0.000656 -0.000113 0.025590 -0.022456 -0.476389
 16 5.168479 5.004167 -0.000064 0.000011 -0.000001 1.570802
 17 -2.447388 0.809244 2.938119 1.277162 -0.798434 1.919494
 18 5.760273 0.000016 0.000006 -0.155218 0.523773 -0.108032
time 60
  0 -2.724911 2.724911 -28.608406 -1.350725 1.555763 -2.972589
  1 0.000000 0.000000 0.000000 -1.570796 -1.570796 0.000000
  2 4.484989 -0.004008 0.000006 0.052219 0.043185 0.065946
  3 5.037136 -0.005101 -0.000238 0.164747 0.053716 -0.046962
  4 6.388059 -0.005253 -0.000001 0.014489 0.012200 0.122567
  5 6.146608 1.394838 0.000001 0.296535 -0.034155 0.056538
  6 -2.646609 -0.917358 -2.723256 0.491385 1.100493 3.525501
  7 5.760270 -0.000012 -0.000009 -1.344655 -0.336293 0.038051
  8 10.965153 0.000065 -0.000006 0.000013 0.000002 -0.577925
  9 0.000007 -0.000004 -4.044200 -0.024154 3.139472 -0.422060
 10 -0.000007 0.000007 4.044200 0.045465 -2.851637 -0.307222
 11 17.182070 0.000091 0.000546 0.000004 -0.000009 -0.441537
 12 16.782913 0.000650 -0.000234 0.248980 0.028776 -0.482431
 13 5.168527 5.004116 -0.000135 0.000010 0.000000 1.570793
 14 17.182070 0.000099 0.000206 -0.000001 -0.000007 -0.713055
 15 16.782906 0.000656 -0.000113 0.025590 -0.022456 -0.476389
 16 5.168479 5.004167 -0.000064 0.000011 -0.000001 1.570802
 17 -2.447388 0.809244 2.938119 1.277162 -0.798434 1.919494
 18 5.760273 0.000016 0.000006 -0.155218 0.523773 -0.108032
time 61
  0 -2.724911 2.724911 -28.608406 -1.350725 1.555763 -2.972589
  1 0.000000 0.000000 0.000000 -1.570796 -1.570796 0.000000
  2 4.484989 -0.004008 0.000006 0.052219 0.043185 0.065946
  3 5.037136 -0.005101 -0.000238 0.164747 0.053716 -0.046962
  4 6.388059 -0.005253 -0.000001 0.014489 0.012200 0.122567
  5 6.146608 1.394838 0.000001 0.296535 -0.034155 0.056538
  6 -2.646609 -0.917358 -2.723256 0.491385 1.100493 3.525501
  7 5.760270 -0.000012 -0.000009 -1.344655 -0.336293 0.038051
  8 10.965153 0.000065 -0.000006 0.000013 0.000002 -0.577925
  9 0.000007 -0.000004 -4.044200 -0.024154 3.139472 -0.422060
 10 -0.000007 0.000007 4.044200 0.045465 -2.851637 -0.307222
 11 17.182070 0.000091 0.000546 0.000004 -0.000009 -0.441537
 12 16.782913 0.000650 -0.000234 0.248980 0.028776 -0.482431
 13 5.168527 5.004116 -0.000135 0.000010 0.000000 1.570793
 14 17.182070 0.000099 0.000206 -0.000001 -0.000007 -0.713055
 15 16.782906 0.000656 -0.000113 0.025590 -0.022456 -0.476389
 16 5.168479 5.004167 -0.000064 0.000011 -0.000001 1.570802
 17 -2.447388 0.809244 2.938119 1.277162 -0.798434 1.919494
 18 5.760273 0.000016 0.000006 -0.155218 0.523773 -0.108032
time 62
  0 -2.724911 2.724911 -28.608406 -1.350725 1.555763 -2.972589
  1 0.000000 0.000000 0.000000 -1.570796 -1.570796 0.000000
  2 4.484989 -0.004008 0.000006 0.052219 0.043185 0.065946
  3 5.037136 -0.005101 -0.000238 0.164747 0.053716 -0.046962
  4 6.388059 -0.005253 -0.000001 0.014489 0.012200 0.122567
  5 6.146608 1.394838 0.000001 0.296535 -0.034155 0.056538
  6 -2.646609 -0.917358 -2.723256 0.491385 1.100493 3.525501
  7 5.760270 -0.000012 -0.000009 -1.344655 -0.336293 0.038051
  8 10.965153 0.000065 -0.000006 0.000013 0.000002 -0.577925
  9 0.000007 -0.000004 -4.044200 -0.024154 3.139472 -0.422060
 10 -0.000007 0.000007 4.044200 0.045465 -2.851637 -0.307222
 11 17.182070 0.000091 0.000546 0.000004 -0.000009 -0.441537
 12 16.782913 0.000650 -0.000234 0.248980 0.028776 -0.482431
 13 5.168527 5.004116 -0.000135 0.000010 0.000000 1.570793
 14 17.182070 0.000099 0.000206 -0.000001 -0.000007 -0.713055
 15 16.782906 0.000656 -0.000113 0.025590 -0.022456 -0.476389
 16 5.168479 5.004167 -0.000064 0.000011 -0.000001 1.570802
 17 -2.447388 0.809244 2.938119 1.277162 -0.798434 1.919494
 18 5.760273 0.000016 0.000006 -0.155218 0.523773 -0.108032
time 63
  0 -2.724911 2.724911 -28.608406 -1.350725 1.555763 -2.972589
  1 0.000000 0.000000 0.000000 -1.570796 -1.570796 0.000000
  2 4.484989 -0.004008 0.000006 0.052219 0.043185 0.065946
  3 5.037136 -0.005101 -0.000238 0.164747 0.053716 -0.046962
  4 6.388059 -0.005253 -0.000001 0.014489 0.012200 0.122567
  5 6.146608 1.394838 0.000001 0.296535 -0.034155 0.056538
  6 -2.646609 -0.917358 -2.723256 0.491385 1.100493 3.525501
  7 5.760270 -0.000012 -0.000009 -1.344655 -0.336293 0.038051
  8 10.965153 0.000065 -0.000006 0.000013 0.000002 -0.577925
  9 0.000007 -0.000004 -4.044200 -0.024154 3.139472 -0.422060
 10 -0.000007 0.000007 4.044200 0.045465 -2.851637 -0.307222
 11 17.182070 0.000091 0.000546 0.000004 -0.000009 -0.441537
 12 16.782913 0.000650 -0.000234 0.248980 0.028776 -0.482431
 13 5.168527 5.004116 -0.000135 0.000010 0.000000 1.570793
 14 17.182070 0.000099 0.000206 -0.000001 -0.000007 -0.713055
 15 16.782906 0.000656 -0.000113 0.025590 -0.022456 -0.476389
 16 5.168479 5.004167 -0.000064 0.000011 -0.000001 1.570802
 17 -2.447388 0.809244 2.938119 1.277162 -0.798434 1.919494
 18 5.760273 0.000016 0.000006 -0.155218 0.523773 -0.108032
time 64
  0 -2.724911 2.724911 -28.608406 -1.350725 1.555763 -2.972589
  1 0.000000 0.000000 0.000000 -1.570796 -1.570796 0.000000
  2 4.484989 -0.004008 0.000006 0.052219 0.043185 0.065946
  3 5.037136 -0.005101 -0.000238 0.164747 0.053716 -0.046962
  4 6.388059 -0.005253 -0.000001 0.014489 0.012200 0.122567
  5 6.146608 1.394838 0.000001 0.296535 -0.034155 0.056538
  6 -2.646609 -0.917358 -2.723256 0.491385 1.100493 3.525501
  7 5.760270 -0.000012 -0.000009 -1.344655 -0.336293 0.038051
  8 10.965153 0.000065 -0.000006 0.000013 0.000002 -0.577925
  9 0.000007 -0.000004 -4.044200 -0.024154 3.139472 -0.422060
 10 -0.000007 0.000007 4.044200 0.045465 -2.851637 -0.307222
 11 17.182070 0.000091 0.000546 0.000004 -0.000009 -0.441537
 12 16.782913 0.000650 -0.000234 0.248980 0.028776 -0.482431
 13 5.168527 5.004116 -0.000135 0.000010 0.000000 1.570793
 14 17.182070 0.000099 0.000206 -0.000001 -0.000007 -0.713055
 15 16.782906 0.000656 -0.000113 0.025590 -0.022456 -0.476389
 16 5.168479 5.004167 -0.000064 0.000011 -0.000001 1.570802
 17 -2.447388 0.809244 2.938119 1.277162 -0.798434 1.919494
 18 5.760273 0.000016 0.000006 -0.155218 0.523773 -0.108032
time 65
  0 -2.724911 2.724911 -28.608406 -1.350725 1.555763 -2.972589
  1 0.000000 0.000000 0.000000 -1.570796 -1.570796 0.000000
  2 4.484989 -0.004008 0.000006 0.052219 0.043185 0.065946
  3 5.037136 -0.005101 -0.000238 0.164747 0.053716 -0.046962
  4 6.388059 -0.005253 -0.000001 0.014489 0.012200 0.122567
  5 6.146608 1.394838 0.000001 0.296535 -0.034155 0.056538
  6 -2.646609 -0.917358 -2.723256 0.491385 1.100493 3.525501
  7 5.760270 -0.000012 -0.000009 -1.344655 -0.336293 0.038051
  8 10.965153 0.000065 -0.000006 0.000013 0.000002 -0.577925
  9 0.000007 -0.000004 -4.044200 -0.024154 3.139472 -0.422060
 10 -0.000007 0.000007 4.044200 0.045465 -2.851637 -0.307222
 11 17.182070 0.000091 0.000546 0.000004 -0.000009 -0.441537
 12 16.782913 0.000650 -0.000234 0.248980 0.028776 -0.482431
 13 5.168527 5.004116 -0.000135 0.000010 0.000000 1.570793
 14 17.182070 0.000099 0.000206 -0.000001 -0.000007 -0.713055
 15 16.782906 0.000656 -0.000113 0.025590 -0.022456 -0.476389
 16 5.168479 5.004167 -0.000064 0.000011 -0.000001 1.570802
 17 -2.447388 0.809244 2.938119 1.277162 -0.798434 1.919494
 18 5.760273 0.000016 0.000006 -0.155218 0.523773 -0.108032
time 66
  0 -2.724911 2.724911 -28.608406 -1.350725 1.555763 -2.972589
  1 0.000000 0.000000 0.000000 -1.570796 -1.570796 0.000000
  2 4.484989 -0.004008 0.000006 0.052219 0.043185 0.065946
  3 5.037136 -0.005101 -0.000238 0.164747 0.053716 -0.046962
  4 6.388059 -0.005253 -0.000001 0.014489 0.012200 0.122567
  5 6.146608 1.394838 0.000001 0.296535 -0.034155 0.056538
  6 -2.646609 -0.917358 -2.723256 0.491385 1.100493 3.525501
  7 5.760270 -0.000012 -0.000009 -1.344655 -0.336293 0.038051
  8 10.965153 0.000065 -0.000006 0.000013 0.000002 -0.577925
  9 0.000007 -0.000004 -4.044200 -0.024154 3.139472 -0.422060
 10 -0.000007 0.000007 4.044200 0.045465 -2.851637 -0.307222
 11 17.182070 0.000091 0.000546 0.000004 -0.000009 -0.441537
 12 16.782913 0.000650 -0.000234 0.248980 0.028776 -0.482431
 13 5.168527 5.004116 -0.000135 0.000010 0.000000 1.570793
 14 17.182070 0.000099 0.000206 -0.000001 -0.000007 -0.713055
 15 16.782906 0.000656 -0.000113 0.025590 -0.022456 -0.476389
 16 5.168479 5.004167 -0.000064 0.000011 -0.000001 1.570802
 17 -2.447388 0.809244 2.938119 1.277162 -0.798434 1.919494
 18 5.760273 0.000016 0.000006 -0.155218 0.523773 -0.108032
time 67
  0 -2.724911 2.724911 -28.608406 -1.350725 1.555763 -2.972589
  1 0.000000 0.000000 0.000000 -1.570796 -1.570796 0.000000
  2 4.484989 -0.004008 0.000006 0.052219 0.043185 0.065946
  3 5.037136 -0.005101 -0.000238 0.164747 0.053716 -0.046962
  4 6.388059 -0.005253 -0.000001 0.014489 0.012200 0.122567
  5 6.146608 1.394838 0.000001 0.296535 -0.034155 0.056538
  6 -2.646609 -0.917358 -2.723256 0.491385 1.100493 3.525501
  7 5.760270 -0.000012 -0.000009 -1.344655 -0.336293 0.038051
  8 10.965153 0.000065 -0.000006 0.000013 0.000002 -0.577925
  9 0.000007 -0.000004 -4.044200 -0.024154 3.139472 -0.422060
 10 -0.000007 0.000007 4.044200 0.045465 -2.851637 -0.307222
 11 17.182070 0.000091 0.000546 0.000004 -0.000009 -0.441537
 12 16.782913 0.000650 -0.000234 0.248980 0.028776 -0.482431
 13 5.168527 5.004116 -0.000135 0.000010 0.000000 1.570793
 14 17.182070 0.000099 0.000206 -0.000001 -0.000007 -0.713055
 15 16.782906 0.000656 -0.000113 0.025590 -0.022456 -0.476389
 16 5.168479 5.004167 -0.000064 0.000011 -0.000001 1.570802
 17 -2.447388 0.809244 2.938119 1.277162 -0.798434 1.919494
 18 5.760273 0.000016 0.000006 -0.155218 0.523773 -0.108032
time 68
  0 -2.724911 2.724911 -28.608406 -1.350725 1.555763 -2.972589
  1 0.000000 0.000000 0.000000 -1.570796 -1.570796 0.000000
  2 4.484989 -0.004008 0.000006 0.052219 0.043185 0.065946
  3 5.037136 -0.005101 -0.000238 0.164747 0.053716 -0.046962
  4 6.388059 -0.005253 -0.000001 0.014489 0.012200 0.122567
  5 6.146608 1.394838 0.000001 0.296535 -0.034155 0.056538
  6 -2.646609 -0.917358 -2.723256 0.491385 1.100493 3.525501
  7 5.760270 -0.000012 -0.000009 -1.344655 -0.336293 0.038051
  8 10.965153 0.000065 -0.000006 0.000013 0.000002 -0.577925
  9 0.000007 -0.000004 -4.044200 -0.024154 3.139472 -0.422060
 10 -0.000007 0.000007 4.044200 0.045465 -2.851637 -0.307222
 11 17.182070 0.000091 0.000546 0.000004 -0.000009 -0.441537
 12 16.782913 0.000650 -0.000234 0.248980 0.028776 -0.482431
 13 5.168527 5.004116 -0.000135 0.000010 0.000000 1.570793
 14 17.182070 0.000099 0.000206 -0.000001 -0.000007 -0.713055
 15 16.782906 0.000656 -0.000113 0.025590 -0.022456 -0.476389
 16 5.168479 5.004167 -0.000064 0.000011 -0.000001 1.570802
 17 -2.447388 0.809244 2.938119 1.277162 -0.798434 1.919494
 18 5.760273 0.000016 0.000006 -0.155218 0.523773 -0.108032
time 69
  0 -2.724911 2.724911 -28.608406 -1.350725 1.555763 -2.972589
  1 0.000000 0.000000 0.000000 -1.570796 -1.570796 0.000000
  2 4.484989 -0.004008 0.000006 0.052219 0.043185 0.065946
  3 5.037136 -0.005101 -0.000238 0.164747 0.053716 -0.046962
  4 6.388059 -0.005253 -0.000001 0.014489 0.012200 0.122567
  5 6.146608 1.394838 0.000001 0.296535 -0.034155 0.056538
  6 -2.646609 -0.917358 -2.723256 0.491385 1.100493 3.525501
  7 5.760270 -0.000012 -0.000009 -1.344655 -0.336293 0.038051
  8 10.965153 0.000065 -0.000006 0.000013 0.000002 -0.577925
  9 0.000007 -0.000004 -4.044200 -0.024154 3.139472 -0.422060
 10 -0.000007 0.000007 4.044200 0.045465 -2.851637 -0.307222
 11 17.182070 0.000091 0.000546 0.000004 -0.000009 -0.441537
 12 16.782913 0.000650 -0.000234 0.248980 0.028776 -0.482431
 13 5.168527 5.004116 -0.000135 0.000010 0.000000 1.570793
 14 17.182070 0.000099 0.000206 -0.000001 -0.000007 -0.713055
 15 16.782906 0.000656 -0.000113 0.025590 -0.022456 -0.476389
 16 5.168479 5.004167 -0.000064 0.000011 -0.000001 1.570802
 17 -2.447388 0.809244 2.938119 1.277162 -0.798434 1.919494
 18 5.760273 0.000016 0.000006 -0.155218 0.523773 -0.108032
time 70
  0 -2.724911 2.724911 -28.608406 -1.350725 1.555763 -2.972589
  1 0.000000 0.000000 0.000000 -1.570796 -1.570796 0.000000
  2 4.484989 -0.004008 0.000006 0.052219 0.043185 0.065946
  3 5.037136 -0.005101 -0.000238 0.164747 0.053716 -0.046962
  4 6.388059 -0.005253 -0.000001 0.014489 0.012200 0.122567
  5 6.146608 1.394838 0.000001 0.296535 -0.034155 0.056538
  6 -2.646609 -0.917358 -2.723256 0.491385 1.100493 3.525501
  7 5.760270 -0.000012 -0.000009 -1.344655 -0.336293 0.038051
  8 10.965153 0.000065 -0.000006 0.000013 0.000002 -0.577925
  9 0.000007 -0.000004 -4.044200 -0.024154 3.139472 -0.422060
 10 -0.000007 0.000007 4.044200 0.045465 -2.851637 -0.307222
 11 17.182070 0.000091 0.000546 0.000004 -0.000009 -0.441537
 12 16.782913 0.000650 -0.000234 0.248980 0.028776 -0.482431
 13 5.168527 5.004116 -0.000135 0.000010 0.000000 1.570793
 14 17.182070 0.000099 0.000206 -0.000001 -0.000007 -0.713055
 15 16.782906 0.000656 -0.000113 0.025590 -0.022456 -0.476389
 16 5.168479 5.004167 -0.000064 0.000011 -0.000001 1.570802
 17 -2.447388 0.809244 2.938119 1.277162 -0.798434 1.919494
 18 5.760273 0.000016 0.000006 -0.155218 0.523773 -0.108032
time 71
  0 -2.724911 2.724911 -28.608406 -1.350725 1.555763 -2.972589
  1 0.000000 0.000000 0.000000 -1.570796 -1.570796 0.000000
  2 4.484989 -0.004008 0.000006 0.052219 0.043185 0.065946
  3 5.037136 -0.005101 -0.000238 0.164747 0.053716 -0.046962
  4 6.388059 -0.005253 -0.000001 0.014489 0.012200 0.122567
  5 6.146608 1.394838 0.000001 0.296535 -0.034155 0.056538
  6 -2.646609 -0.917358 -2.723256 0.491385 1.100493 3.525501
  7 5.760270 -0.000012 -0.000009 -1.344655 -0.336293 0.038051
  8 10.965153 0.000065 -0.000006 0.000013 0.000002 -0.577925
  9 0.000007 -0.000004 -4.044200 -0.024154 3.139472 -0.422060
 10 -0.000007 0.000007 4.044200 0.045465 -2.851637 -0.307222
 11 17.182070 0.000091 0.000546 0.000004 -0.000009 -0.441537
 12 16.782913 0.000650 -0.000234 0.248980 0.028776 -0.482431
 13 5.168527 5.004116 -0.000135 0.000010 0.000000 1.570793
 14 17.182070 0.000099 0.000206 -0.000001 -0.000007 -0.713055
 15 16.782906 0.000656 -0.000113 0.025590 -0.022456 -0.476389
 16 5.168479 5.004167 -0.000064 0.000011 -0.000001 1.570802
 17 -2.447388 0.809244 2.938119 1.277162 -0.798434 1.919494
 18 5.760273 0.000016 0.000006 -0.155218 0.523773 -0.108032
time 72
  0 -2.724911 2.724911 -28.608406 -1.350725 1.555763 -2.972589
  1 0.000000 0.000000 0.000000 -1.570796 -1.570796 0.000000
  2 4.484989 -0.004008 0.000006 0.052219 0.043185 0.065946
  3 5.037136 -0.005101 -0.000238 0.164747 0.053716 -0.046962
  4 6.388059 -0.005253 -0.000001 0.014489 0.012200 0.122567
  5 6.146608 1.394838 0.000001 0.296535 -0.034155 0.056538
  6 -2.646609 -0.917358 -2.723256 0.491385 1.100493 3.525501
  7 5.760270 -0.000012 -0.000009 -1.344655 -0.336293 0.038051
  8 10.965153 0.000065 -0.000006 0.000013 0.000002 -0.577925
  9 0.000007 -0.000004 -4.044200 -0.024154 3.139472 -0.422060
 10 -0.000007 0.000007 4.044200 0.045465 -2.851637 -0.307222
 11 17.182070 0.000091 0.000546 0.000004 -0.000009 -0.441537
 12 16.782913 0.000650 -0.000234 0.248980 0.028776 -0.482431
 13 5.168527 5.004116 -0.000135 0.000010 0.000000 1.570793
 14 17.182070 0.000099 0.000206 -0.000001 -0.000007 -0.713055
 15 16.782906 0.000656 -0.000113 0.025590 -0.022456 -0.476389
 16 5.168479 5.004167 -0.000064 0.000011 -0.000001 1.570802
 17 -2.447388 0.809244 2.938119 1.277162 -0.798434 1.919494
 18 5.760273 0.000016 0.000006 -0.155218 0.523773 -0.108032
time 73
  0 -2.724911 2.724911 -28.608406 -1.350725 1.555763 -2.972589
  1 0.000000 0.000000 0.000000 -1.570796 -1.570796 0.000000
  2 4.484989 -0.004008 0.000006 0.052219 0.043185 0.065946
  3 5.037136 -0.005101 -0.000238 0.164747 0.053716 -0.046962
  4 6.388059 -0.005253 -0.000001 0.014489 0.012200 0.122567
  5 6.146608 1.394838 0.000001 0.296535 -0.034155 0.056538
  6 -2.646609 -0.917358 -2.723256 0.491385 1.100493 3.525501
  7 5.760270 -0.000012 -0.000009 -1.344655 -0.336293 0.038051
  8 10.965153 0.000065 -0.000006 0.000013 0.000002 -0.577925
  9 0.000007 -0.000004 -4.044200 -0.024154 3.139472 -0.422060
 10 -0.000007 0.000007 4.044200 0.045465 -2.851637 -0.307222
 11 17.182070 0.000091 0.000546 0.000004 -0.000009 -0.441537
 12 16.782913 0.000650 -0.000234 0.248980 0.028776 -0.482431
 13 5.168527 5.004116 -0.000135 0.000010 0.000000 1.570793
 14 17.182070 0.000099 0.000206 -0.000001 -0.000007 -0.713055
 15 16.782906 0.000656 -0.000113 0.025590 -0.022456 -0.476389
 16 5.168479 5.004167 -0.000064 0.000011 -0.000001 1.570802
 17 -2.447388 0.809244 2.938119 1.277162 -0.798434 1.919494
 18 5.760273 0.000016 0.000006 -0.155218 0.523773 -0.108032
time 74
  0 -2.724911 2.724911 -28.608406 -1.350725 1.555763 -2.972589
  1 0.000000 0.000000 0.000000 -1.570796 -1.570796 0.000000
  2 4.484989 -0.004008 0.000006 0.052219 0.043185 0.065946
  3 5.037136 -0.005101 -0.000238 0.164747 0.053716 -0.046962
  4 6.388059 -0.005253 -0.000001 0.014489 0.012200 0.122567
  5 6.146608 1.394838 0.000001 0.296535 -0.034155 0.056538
  6 -2.646609 -0.917358 -2.723256 0.491385 1.100493 3.525501
  7 5.760270 -0.000012 -0.000009 -1.344655 -0.336293 0.038051
  8 10.965153 0.000065 -0.000006 0.000013 0.000002 -0.577925
  9 0.000007 -0.000004 -4.044200 -0.024154 3.139472 -0.422060
 10 -0.000007 0.000007 4.044200 0.045465 -2.851637 -0.307222
 11 17.182070 0.000091 0.000546 0.000004 -0.000009 -0.441537
 12 16.782913 0.000650 -0.000234 0.248980 0.028776 -0.482431
 13 5.168527 5.004116 -0.000135 0.000010 0.000000 1.570793
 14 17.182070 0.000099 0.000206 -0.000001 -0.000007 -0.713055
 15 16.782906 0.000656 -0.000113 0.025590 -0.022456 -0.476389
 16 5.168479 5.004167 -0.000064 0.000011 -0.000001 1.570802
 17 -2.447388 0.809244 2.938119 1.277162 -0.798434 1.919494
 18 5.760273 0.000016 0.000006 -0.155218 0.523773 -0.108032
time 75
  0 -2.724911 2.724911 -28.608406 -1.350725 1.555763 -2.972589
  1 0.000000 0.000000 0.000000 -1.570796 -1.570796 0.000000
  2 4.484989 -0.004008 0.000006 0.052219 0.043185 0.065946
  3 5.037136 -0.005101 -0.000238 0.164747 0.053716 -0.046962
  4 6.388059 -0.005253 -0.000001 0.014489 0.012200 0.122567
  5 6.146608 1.394838 0.000001 0.296535 -0.034155 0.056538
  6 -2.646609 -0.917358 -2.723256 0.491385 1.100493 3.525501
  7 5.760270 -0.000012 -0.000009 -1.344655 -0.336293 0.038051
  8 10.965153 0.000065 -0.000006 0.000013 0.000002 -0.577925
  9 0.000007 -0.000004 -4.044200 -0.024154 3.139472 -0.422060
 10 -0.000007 0.000007 4.044200 0.045465 -2.851637 -0.307222
 11 17.182070 0.000091 0.000546 0.000004 -0.000009 -0.441537
 12 16.782913 0.000650 -0.000234 0.248980 0.028776 -0.482431
 13 5.168527 5.004116 -0.000135 0.000010 0.000000 1.570793
 14 17.182070 0.000099 0.000206 -0.000001 -0.000007 -0.713055
 15 16.782906 0.000656 -0.000113 0.025590 -0.022456 -0.476389
 16 5.168479 5.004167 -0.000064 0.000011 -0.000001 1.570802
 17 -2.447388 0.809244 2.938119 1.277162 -0.798434 1.919494
 18 5.760273 0.000016 0.000006 -0.155218 0.523773 -0.108032
time 76
  0 -2.724911 2.724911 -28.608406 -1.350725 1.555763 -2.972589
  1 0.000000 0.000000 0.000000 -1.570796 -1.570796 0.000000
  2 4.484989 -0.004008 0.000006 0.052219 0.043185 0.065946
  3 5.037136 -0.005101 -0.000238 0.164747 0.053716 -0.046962
  4 6.388059 -0.005253 -0.000001 0.014489 0.012200 0.122567
  5 6.146608 1.394838 0.000001 0.296535 -0.034155 0.056538
  6 -2.646609 -0.917358 -2.723256 0.491385 1.100493 3.525501
  7 5.760270 -0.000012 -0.000009 -1.344655 -0.336293 0.038051
  8 10.965153 0.000065 -0.000006 0.000013 0.000002 -0.577925
  9 0.000007 -0.000004 -4.044200 -0.024154 3.139472 -0.422060
 10 -0.000007 0.000007 4.044200 0.045465 -2.851637 -0.307222
 11 17.182070 0.000091 0.000546 0.000004 -0.000009 -0.441537
 12 16.782913 0.000650 -0.000234 0.248980 0.028776 -0.482431
 13 5.168527 5.004116 -0.000135 0.000010 0.000000 1.570793
 14 17.182070 0.000099 0.000206 -0.000001 -0.000007 -0.713055
 15 16.782906 0.000656 -0.000113 0.025590 -0.022456 -0.476389
 16 5.168479 5.004167 -0.000064 0.000011 -0.000001 1.570802
 17 -2.447388 0.809244 2.938119 1.277162 -0.798434 1.919494
 18 5.760273 0.000016 0.000006 -0.155218 0.523773 -0.108032
time 77
  0 -2.724911 2.724911 -28.608406 -1.350725 1.555763 -2.972589
  1 0.000000 0.000000 0.000000 -1.570796 -1.570796 0.000000
  2 4.484989 -0.004008 0.000006 0.052219 0.043185 0.065946
  3 5.037136 -0.005101 -0.000238 0.164747 0.053716 -0.046962
  4 6.388059 -0.005253 -0.000001 0.014489 0.012200 0.122567
  5 6.146608 1.394838 0.000001 0.296535 -0.034155 0.056538
  6 -2.646609 -0.917358 -2.723256 0.491385 1.100493 3.525501
  7 5.760270 -0.000012 -0.000009 -1.344655 -0.336293 0.038051
  8 10.965153 0.000065 -0.000006 0.000013 0.000002 -0.577925
  9 0.000007 -0.000004 -4.044200 -0.024154 3.139472 -0.422060
 10 -0.000007 0.000007 4.044200 0.045465 -2.851637 -0.307222
 11 17.182070 0.000091 0.000546 0.000004 -0.000009 -0.441537
 12 16.782913 0.000650 -0.000234 0.248980 0.028776 -0.482431
 13 5.168527 5.004116 -0.000135 0.000010 0.000000 1.570793
 14 17.182070 0.000099 0.000206 -0.000001 -0.000007 -0.713055
 15 16.782906 0.000656 -0.000113 0.025590 -0.022456 -0.476389
 16 5.168479 5.004167 -0.000064 0.000011 -0.000001 1.570802
 17 -2.447388 0.809244 2.938119 1.277162 -0.798434 1.919494
 18 5.760273 0.000016 0.000006 -0.155218 0.523773 -0.108032
end
