version 1
nodes
  0 "Bip01"  -1
  1 "Bip01 Pelvis"   0
  2 "Bip01 Spine"   1
  3 "Bip01 Spine1"   2
  4 "Bip01 Spine2"   3
  5 "Bip01 Neck"   4
  6 "Bip01 R Clavicle"   5
  7 "Bip01 R UpperArm"   6
  8 "Bip01 R Forearm"   7
  9 "Bip01 R Thigh"   1
 10 "Bip01 L Thigh"   1
 11 "Bip01 L Calf"  10
 12 "Bip01 L Foot"  11
 13 "Bip01 L Toe0"  12
 14 "Bip01 R Calf"   9
 15 "Bip01 R Foot"  14
 16 "Bip01 R Toe0"  15
 17 "Bip01 L Clavicle"   5
 18 "Bip01 L UpperArm"  17
end
skeleton
time 0
  0 0.009547 -0.009547 -3.951403 0.014152 0.130055 -1.742724
  1 0.000000 0.000000 0.000000 -3.141168 -1.396520 1.570796
  2 4.422487 -0.004008 -0.769549 -0.076372 0.049626 0.131380
  3 5.037136 -0.005101 -0.000238 -0.298576 -0.019004 0.502895
  4 6.388059 -0.005253 -0.000001 -0.152132 -0.048495 0.336948
  5 6.146608 1.394838 0.000001 0.208127 0.516486 -0.212491
  6 -0.669986 -1.526751 -3.524062 2.124544 1.126202 5.470068
  7 5.760270 -0.000012 -0.000009 1.100243 -0.891783 -0.040347
  8 10.965153 0.000065 -0.000006 0.000013 0.000002 -0.495399
  9 0.000007 -0.000004 -4.044200 0.109324 3.065813 0.236975
 10 -0.000007 0.000007 4.044200 -0.391107 -2.898032 0.185020
 11 17.182070 0.000091 0.000546 0.000004 -0.000009 -0.945598
 12 16.782913 0.000650 -0.000234 -0.156531 -0.001227 0.098679
 13 5.168527 5.004116 -0.000135 -0.024235 0.055494 1.641386
 14 17.182070 0.000099 0.000206 -0.000001 -0.000007 -1.292048
 15 16.782906 0.000656 -0.000113 0.186720 0.007459 -0.466717
 16 5.168479 5.004167 -0.000064 0.158957 -0.099150 1.436913
 17 -3.572423 -0.460326 1.496669 0.567191 -1.045506 2.849456
 18 5.760273 0.000016 0.000006 -1.404587 0.882233 -0.742107
time 1
  0 0.017360 -0.017360 2.966777 0.014152 0.130055 -1.742724
  1 0.000000 0.000000 0.000000 -0.227810 -1.745725 -1.355270
  2 4.422487 0.167872 -0.757830 -0.061196 0.043760 0.169209
  3 5.037136 -0.005101 -0.000238 -0.298576 -0.019004 0.502895
  4 6.388059 -0.005253 -0.000001 -0.152132 -0.048495 0.336948
  5 6.146608 1.394838 0.000001 0.262320 0.291089 -0.069660
  6 -1.568451 -1.315807 -3.320931 2.020918 1.177541 5.242008
  7 5.760270 -0.000012 -0.000009 0.791814 -0.275940 -0.100803
  8 10.965153 0.000065 -0.000006 0.000013 0.000002 -0.627639
  9 0.000007 -0.000004 -4.044200 0.355315 3.055495 -1.171381
 10 -0.000007 0.000007 4.044200 -0.372322 -2.870195 0.123370
 11 17.182070 0.000091 0.000546 0.000004 -0.000009 -0.860632
 12 16.782913 0.000650 -0.000234 -0.137868 -0.092698 -0.655847
 13 5.168527 5.004116 -0.000135 -0.060271 0.005854 1.151247
 14 17.182070 0.000099 0.000206 -0.000001 -0.000007 -2.040854
 15 16.782906 0.000656 -0.000113 0.410484 -0.467564 -0.270721
 16 5.168479 5.004167 -0.000064 0.158957 -0.099150 1.436913
 17 -3.252100 0.152974 2.141220 0.746990 -1.215690 2.507907
 18 5.760273 0.000016 0.000006 -1.376284 0.878391 -0.698512
time 2
  0 2.243991 -2.243991 2.861305 0.058711 0.188362 -1.787416
  1 0.000000 0.000000 0.000000 -0.435979 -1.752491 -1.158978
  2 4.422487 0.328033 -0.726579 -0.047027 0.037111 0.123535
  3 5.037136 -0.005101 -0.000238 -0.401920 -0.050798 0.430526
  4 6.388059 -0.005253 -0.000001 0.045901 0.013665 0.440101
  5 6.146608 1.394838 0.000001 0.281996 0.061101 0.055347
  6 -2.361444 -0.948609 -2.953732 1.742232 1.223237 4.831290
  7 5.760270 -0.000012 -0.000009 0.599378 0.226319 -0.183229
  8 10.965153 0.000065 -0.000006 0.000013 0.000002 -0.760559
  9 0.000007 -0.000004 -4.044200 0.145658 3.148643 -1.421123
 10 -0.000007 0.000007 4.044200 -0.309831 -2.887742 -0.082894
 11 17.182070 0.000091 0.000546 0.000004 -0.000009 -1.071004
 12 16.782913 0.000650 -0.000234 -0.168131 -0.128798 -0.287924
 13 5.168527 5.004116 -0.000135 -0.057187 0.032542 1.134701
 14 17.182070 0.000099 0.000206 -0.000001 -0.000007 -1.798128
 15 16.782906 0.000656 -0.000113 0.094355 -0.345539 0.123642
 16 5.168479 5.004167 -0.000064 0.158957 -0.099150 1.436913
 17 -2.724741 0.692053 2.711550 1.257421 -1.329921 1.838756
 18 5.760273 0.000016 0.000006 -1.430853 0.999190 -0.833112
time 3
  0 4.861258 -4.861258 1.802679 0.108433 0.255267 -1.837741
  1 0.000000 0.000000 0.000000 -0.620978 -1.765119 -0.986245
  2 4.406862 0.488195 -0.695328 -0.038481 0.021177 0.064904
  3 5.037136 -0.005101 -0.000238 -0.454995 -0.065869 0.401517
  4 6.388059 -0.005253 -0.000001 0.196931 0.044098 0.498072
  5 6.146608 1.394838 0.000001 0.275513 -0.060254 0.193772
  6 -2.709111 -0.503282 -2.766226 1.483643 1.253112 4.418569
  7 5.760270 -0.000012 -0.000009 0.692091 0.316022 -0.177214
  8 10.965153 0.000065 -0.000006 0.000013 0.000002 -0.916138
  9 0.000007 -0.000004 -4.044200 -0.124239 3.304080 -1.415008
 10 -0.000007 0.000007 4.044200 -0.285390 -2.969414 -0.146551
 11 17.182070 0.000091 0.000546 0.000004 -0.000009 -1.064407
 12 16.782913 0.000650 -0.000234 -0.267258 -0.075779 0.355882
 13 5.168527 5.004116 -0.000135 -0.029526 0.031030 1.234112
 14 17.182070 0.000099 0.000206 -0.000001 -0.000007 -1.376886
 15 16.782906 0.000656 -0.000113 0.138708 -0.104492 0.460726
 16 5.168479 5.004167 -0.000064 0.158957 -0.099150 1.436913
 17 -2.353635 1.102221 2.922494 1.616835 -1.328538 1.321025
 18 5.760273 0.000016 0.000006 -1.473340 1.019907 -0.940549
time 4
  0 7.501963 -7.501964 0.271382 0.153948 0.332944 -1.883559
  1 0.000000 0.000000 0.000000 -0.780691 -1.783571 -0.838359
  2 4.391236 0.656168 -0.664077 -0.038611 -0.013681 0.011939
  3 5.037136 -0.005101 -0.000238 -0.386343 -0.025544 0.485792
  4 6.388059 -0.005253 -0.000001 0.179937 0.037627 0.428717
  5 6.146608 1.394838 0.000001 0.271627 -0.022045 0.365384
  6 -2.521605 -0.100926 -2.973264 -1.483796 1.828941 1.281623
  7 5.760270 -0.000012 -0.000009 0.936941 0.236115 -0.195921
  8 10.965153 0.000065 -0.000006 0.000013 0.000002 -1.093386
  9 0.000007 -0.000004 -4.044200 -0.310274 3.397228 -1.368862
 10 -0.000007 0.000007 4.044200 -0.245423 -3.027568 -0.165093
 11 17.182070 0.000091 0.000546 0.000004 -0.000009 -0.825426
 12 16.782913 0.000650 -0.000234 -0.326828 0.011541 0.662027
 13 5.168527 5.004116 -0.000135 -0.007726 0.017152 1.472002
 14 17.182070 0.000099 0.000206 -0.000001 -0.000007 -1.077418
 15 16.782906 0.000656 -0.000113 0.262137 -0.117116 0.693491
 16 5.168479 5.004167 -0.000064 0.158957 -0.099150 1.436913
 17 -2.384886 1.465514 2.715456 1.404378 -1.310904 1.364003
 18 5.760273 0.000016 0.000006 -1.515895 0.769165 -0.917652
time 5
  0 9.845785 -9.845785 -1.240383 0.187224 0.421541 -1.915951
  1 0.000000 0.000000 0.000000 -0.914658 -1.808116 -0.716148
  2 4.359985 0.824142 -0.640639 -0.038058 -0.054101 -0.044836
  3 5.037136 -0.005101 -0.000238 -0.279801 0.022024 0.617599
  4 6.388059 -0.005253 -0.000001 0.120205 0.019147 0.331441
  5 6.146608 1.394838 0.000001 0.295151 0.100458 0.556686
  6 -1.982526 0.176426 -3.352182 2.300270 1.360273 4.896532
  7 5.760270 -0.000012 -0.000009 1.245438 0.111396 -0.239249
  8 10.965153 0.000065 -0.000006 0.000013 0.000002 -1.260295
  9 0.000007 -0.000004 -4.044200 -0.219296 3.326245 -1.393798
 10 -0.000007 0.000007 4.044200 -0.170856 -2.978877 -0.352528
 11 17.182070 0.000091 0.000546 0.000004 -0.000009 -0.820622
 12 16.782913 0.000650 -0.000234 -0.372517 -0.030673 0.527804
 13 5.168527 5.004116 -0.000135 -0.017536 0.039392 1.761881
 14 17.182070 0.000099 0.000206 -0.000001 -0.000007 -1.160680
 15 16.782906 0.000656 -0.000113 0.078400 -0.096638 0.648669
 16 5.168479 5.004167 -0.000064 0.158957 -0.099150 1.436913
 17 -2.564579 1.879589 2.266224 0.959815 -1.276043 1.625288
 18 5.760273 0.000016 0.000006 -1.579219 0.410170 -0.867054
time 6
  0 11.658340 -11.658340 -2.607612 0.203288 0.522541 -1.927124
  1 0.000000 0.000000 0.000000 -1.023892 -1.839177 -0.620901
  2 4.328734 1.003835 -0.613294 -0.033508 -0.092731 -0.096142
  3 5.037136 -0.005101 -0.000238 -0.153329 0.055311 0.756959
  4 6.388059 -0.005253 -0.000001 0.046692 -0.013285 0.217274
  5 6.146608 1.394838 0.000001 0.341155 0.228719 0.743541
  6 -1.314537 0.352212 -3.660785 2.998889 1.313891 5.447176
  7 5.760270 -0.000012 -0.000009 1.512139 -0.007617 -0.319891
  8 10.965153 0.000065 -0.000006 0.000013 0.000002 -1.384919
  9 0.000007 -0.000004 -4.044200 -0.081834 3.198226 -1.385868
 10 -0.000007 0.000007 4.044200 -0.168748 -3.022239 -0.494848
 11 17.182070 0.000091 0.000546 0.000004 -0.000009 -0.997510
 12 16.782913 0.000650 -0.000234 -0.294799 0.026274 0.541288
 13 5.168527 5.004116 -0.000135 -0.040625 0.118532 1.796411
 14 17.182070 0.000099 0.000206 -0.000001 -0.000007 -1.346734
 15 16.782906 0.000656 -0.000113 -0.175421 -0.140205 0.572009
 16 5.168479 5.004167 -0.000064 0.158957 -0.099150 1.436913
 17 -2.646613 2.258507 1.762302 0.546711 -1.213490 1.863708
 18 5.760273 0.000016 0.000006 -1.559875 0.219293 -0.833696
time 7
  0 13.158385 -13.158386 -4.240474 0.207591 0.639254 -1.922805
  1 0.000000 0.000000 0.000000 -1.110783 -1.877484 -0.548384
  2 4.281858 1.195247 -0.589856 -0.023629 -0.122378 -0.132017
  3 5.037136 -0.005101 -0.000238 -0.032248 0.067119 0.859243
  4 6.388059 -0.005253 -0.000001 -0.012692 -0.055346 0.096000
  5 6.146608 1.394838 0.000001 0.370763 0.293404 0.891136
  6 -0.857492 0.500654 -3.777976 -2.962563 1.261972 5.649101
  7 5.760270 -0.000012 -0.000009 1.628813 -0.089688 -0.406649
  8 10.965153 0.000065 -0.000006 0.000013 0.000002 -1.434819
  9 0.000007 -0.000004 -4.044200 -0.119022 3.176731 -1.370773
 10 -0.000007 0.000007 4.044200 -0.193571 -3.062478 -0.636786
 11 17.182070 0.000091 0.000546 0.000004 -0.000009 -1.261371
 12 16.782913 0.000650 -0.000234 -0.219436 0.068192 0.415760
 13 5.168527 5.004116 -0.000135 -0.079385 0.278982 1.861554
 14 17.182070 0.000099 0.000206 -0.000001 -0.000007 -1.332822
 15 16.782906 0.000656 -0.000113 -0.203981 -0.052207 0.734474
 16 5.168479 5.004167 -0.000064 0.158957 -0.099150 1.436913
 17 -2.556767 2.543672 1.496669 0.326966 -1.169953 1.943023
 18 5.760273 0.000016 0.000006 -1.442255 0.269140 -0.843483
time 8
  0 14.767810 -14.767811 -6.416322 0.210077 0.774645 -1.913510
  1 0.000000 0.000000 0.000000 -1.178272 -1.923595 -0.498414
  2 4.211543 1.417910 -0.589856 -0.008291 -0.136347 -0.142109
  3 5.037136 -0.005101 -0.000238 0.056335 0.065524 0.878794
  4 6.388059 -0.005253 -0.000001 -0.032011 -0.095429 -0.025521
  5 6.146608 1.394838 0.000001 0.360774 0.292296 0.996175
  6 -0.669986 0.723318 -3.777976 -2.843793 1.264846 5.658830
  7 5.760270 -0.000012 -0.000009 1.514181 -0.142605 -0.498658
  8 10.965153 0.000065 -0.000006 0.000013 0.000002 -1.344121
  9 0.000007 -0.000004 -4.044200 -0.197856 3.177782 -1.353289
 10 -0.000007 0.000007 4.044200 -0.233826 -3.101431 -0.703405
 11 17.182070 0.000091 0.000546 0.000004 -0.000009 -1.476977
 12 16.782913 0.000650 -0.000234 -0.171074 0.083166 0.307383
 13 5.168527 5.004116 -0.000135 -0.095336 0.360079 1.892918
 14 17.182070 0.000099 0.000206 -0.000001 -0.000007 -1.344130
 15 16.782906 0.000656 -0.000113 -0.135524 0.044775 0.911879
 16 5.168479 5.004167 -0.000064 0.158957 -0.099150 1.436913
 17 -2.361448 2.715552 1.516201 0.265526 -1.179195 1.893024
 18 5.760273 0.000016 0.000006 -1.273867 0.452625 -0.849185
time 9
  0 16.724901 -16.724901 -9.432039 0.216292 0.946256 -1.896516
  1 0.000000 0.000000 0.000000 -1.246037 -2.026984 -0.468966
  2 4.031850 1.863236 -0.621107 0.028431 -0.107227 -0.054505
  3 5.037136 -0.005101 -0.000238 0.087422 0.057462 0.682897
  4 6.388059 -0.005253 -0.000001 0.038938 -0.122607 -0.192786
  5 6.146608 1.394838 0.000001 0.330142 0.270154 1.086527
  6 -0.560608 0.988951 -3.735006 -2.819982 1.295750 5.572127
  7 5.760270 -0.000012 -0.000009 1.108820 -0.335545 -0.524859
  8 10.965153 0.000065 -0.000006 0.000013 0.000002 -1.136042
  9 0.000007 -0.000004 -4.044200 -0.250508 3.172527 -1.300838
 10 -0.000007 0.000007 4.044200 -0.303122 -3.140843 -0.614037
 11 17.182070 0.000091 0.000546 0.000004 -0.000009 -1.633932
 12 16.782913 0.000650 -0.000234 -0.125287 0.042063 0.302560
 13 5.168527 5.004116 -0.000135 -0.175648 0.329583 1.656465
 14 17.182070 0.000099 0.000206 -0.000001 -0.000007 -1.697597
 15 16.782906 0.000656 -0.000113 -0.138110 0.055220 0.829009
 16 5.168479 5.004167 -0.000064 0.149243 -0.105921 1.522248
 17 -2.138785 2.828836 1.652924 0.261191 -1.210660 1.797201
 18 5.760273 0.000016 0.000006 -0.896233 0.847315 -0.717099
time 10
  0 18.783558 -18.783558 -14.068899 0.220117 1.149639 -1.863842
  1 0.000000 0.000000 0.000000 -1.290264 -2.158320 -0.472555
  2 3.734966 2.378877 -0.687515 0.080914 -0.052151 0.102049
  3 5.037136 -0.005101 -0.000238 0.074276 0.042626 0.335675
  4 6.388059 -0.005253 -0.000001 0.163350 -0.120647 -0.381902
  5 6.146608 1.394838 0.000001 0.284290 0.237821 1.160681
  6 -0.509825 1.274116 -3.660785 -2.878081 1.348539 5.415318
  7 5.760270 -0.000012 -0.000009 0.493733 -0.686016 -0.354095
  8 10.965153 0.000065 -0.000006 0.000013 0.000002 -0.913786
  9 0.000007 -0.000004 -4.044200 -0.351352 3.178355 -1.142814
 10 -0.000007 0.000007 4.044200 -0.388040 -3.180439 -0.436830
 11 17.182070 0.000091 0.000546 0.000004 -0.000009 -1.742344
 12 16.782913 0.000650 -0.000234 -0.064687 -0.015867 0.316519
 13 5.168527 5.004116 -0.000135 -0.301261 0.221531 1.202911
 14 17.182070 0.000099 0.000206 -0.000001 -0.000007 -2.016801
 15 16.782906 0.000656 -0.000113 -0.103386 0.149961 0.765108
 16 5.168479 5.004167 -0.000064 0.123775 -0.088291 1.417269
 17 -1.896590 2.871807 1.856055 0.323368 -1.253379 1.650809
 18 5.760273 0.000016 0.000006 0.214950 1.126507 0.160404
time 11
  0 20.967218 -20.967218 -22.760571 0.223177 1.414541 -1.791641
  1 0.000000 0.000000 0.000000 -1.281713 -2.200625 -0.490040
  2 3.625588 2.519506 -0.750017 0.102102 -0.012387 0.182621
  3 5.037136 -0.005101 -0.000238 0.047713 0.025331 0.088168
  4 6.388059 -0.005253 -0.000001 0.231950 -0.106582 -0.481325
  5 6.146608 1.394838 0.000001 0.230741 0.204460 1.217806
  6 -0.490293 1.531936 -3.555313 -3.019615 1.411111 5.198036
  7 5.760270 -0.000012 -0.000009 -0.161721 -0.920189 0.004000
  8 10.965153 0.000065 -0.000006 0.000013 0.000002 -0.780370
  9 0.000007 -0.000004 -4.044200 -0.398406 3.066960 -0.867468
 10 -0.000007 0.000007 4.044200 -0.417273 -3.212409 -0.306266
 11 17.182070 0.000091 0.000546 0.000004 -0.000009 -1.697029
 12 16.782913 0.000650 -0.000234 0.021713 -0.002135 0.253382
 13 5.168527 5.004116 -0.000135 -0.341537 0.150309 0.986171
 14 17.182070 0.000099 0.000206 -0.000001 -0.000007 -2.139055
 15 16.782906 0.000656 -0.000113 -0.191116 0.196201 0.638771
 16 5.168479 5.004167 -0.000064 0.158957 -0.099150 1.436913
 17 -1.681740 2.852275 2.070905 0.465529 -1.293961 1.443982
 18 5.760273 0.000016 0.000006 1.005919 0.929891 0.854416
time 12
  0 22.510233 -22.510235 -29.698282 3.089475 1.527647 -5.150931
  1 0.000000 0.000000 0.000000 -1.185076 -2.098447 -0.529519
  2 3.883408 2.081993 -0.843770 0.055501 0.007464 0.119205
  3 5.037136 -0.005101 -0.000238 0.013277 0.014796 0.024440
  4 6.388059 -0.005253 -0.000001 0.206207 -0.108504 -0.450430
  5 6.146608 1.394838 0.000001 0.178216 0.177747 1.255756
  6 -0.478574 1.762412 -3.449841 2.973078 1.472496 4.858188
  7 5.760270 -0.000012 -0.000009 -1.009202 -0.528643 0.757963
  8 10.965153 0.000065 -0.000006 0.000013 0.000002 -1.161982
  9 0.000007 -0.000004 -4.044200 -0.041515 2.744239 -0.168497
 10 -0.000007 0.000007 4.044200 -0.347114 -3.219667 -0.264975
 11 17.182070 0.000091 0.000546 0.000004 -0.000009 -1.438187
 12 16.782913 0.000650 -0.000234 0.131091 0.117486 0.068248
 13 5.168527 5.004116 -0.000135 -0.341537 0.150309 0.986171
 14 17.182070 0.000099 0.000206 -0.000001 -0.000007 -1.272244
 15 16.782906 0.000656 -0.000113 -0.256677 -0.506464 -0.483803
 16 5.168479 5.004167 -0.000064 -0.117824 -0.171309 2.035691
 17 -1.525485 2.789773 2.270130 0.678354 -1.318794 1.188959
 18 5.760273 0.000016 0.000006 1.122385 0.860105 1.047920
time 13
  0 23.033686 -23.033688 -31.198328 -3.109651 1.473787 -5.056196
  1 0.000000 0.000000 0.000000 -0.961735 -1.928823 -0.663325
  2 4.207637 1.269468 -0.898459 -0.024279 0.014113 -0.013226
  3 5.037136 -0.005101 -0.000238 -0.034221 0.005622 0.032055
  4 6.388059 -0.005253 -0.000001 0.138122 -0.112139 -0.352573
  5 6.146608 1.394838 0.000001 0.135889 0.164510 1.271635
  6 -0.490293 1.922573 -3.363901 -0.786511 1.637561 1.075787
  7 5.760270 -0.000012 -0.000009 -1.153852 -0.339794 0.687567
  8 10.965153 0.000065 -0.000006 0.000013 0.000002 -1.212996
  9 0.000007 -0.000004 -4.044200 0.174498 2.745481 -0.040760
 10 -0.000007 0.000007 4.044200 -0.227692 -3.194771 -0.263542
 11 17.182070 0.000091 0.000546 0.000004 -0.000009 -1.053795
 12 16.782913 0.000650 -0.000234 0.257024 0.274541 -0.143988
 13 5.168527 5.004116 -0.000135 -0.341537 0.150309 0.986171
 14 17.182070 0.000099 0.000206 -0.000001 -0.000007 -0.968459
 15 16.782906 0.000656 -0.000113 -0.078648 -0.581570 -0.662299
 16 5.168479 5.004167 -0.000064 -0.045057 -0.169008 1.883917
 17 -1.451264 2.703833 2.410759 0.950406 -1.300876 0.896840
 18 5.760273 0.000016 0.000006 1.032660 0.928918 1.146827
time 14
  0 23.338383 -23.338385 -31.428804 -3.110607 1.452836 -5.055633
  1 0.000000 0.000000 0.000000 -0.482597 -1.785647 -1.059774
  2 4.391236 0.433505 -0.843770 -0.092361 0.007863 -0.149856
  3 5.037136 -0.005101 -0.000238 -0.087126 -0.000685 0.065777
  4 6.388059 -0.005253 -0.000001 0.063375 -0.108028 -0.239409
  5 6.146608 1.394838 0.000001 0.106641 0.165618 1.237654
  6 -0.560608 1.985075 -3.313118 -1.320928 1.647607 0.570449
  7 5.760270 -0.000012 -0.000009 -1.212189 -0.230144 0.533420
  8 10.965153 0.000065 -0.000006 0.000013 0.000002 -1.198694
  9 0.000007 -0.000004 -4.044200 0.311202 2.785415 -0.050123
 10 -0.000007 0.000007 4.044200 -0.115362 -3.143783 -0.280364
 11 17.182070 0.000091 0.000546 0.000004 -0.000009 -0.661230
 12 16.782913 0.000650 -0.000234 0.389921 0.395570 -0.286531
 13 5.168527 5.004116 -0.000135 -0.341537 0.150309 0.986171
 14 17.182070 0.000099 0.000206 -0.000001 -0.000007 -0.773702
 15 16.782906 0.000656 -0.000113 0.045481 -0.567548 -0.629069
 16 5.168479 5.004167 -0.000064 0.094942 -0.132407 1.583649
 17 -1.537204 2.606174 2.481074 1.124024 -1.250550 0.752820
 18 5.760273 0.000016 0.000006 0.824567 1.035956 1.155043
time 15
  0 23.471199 -23.471201 -30.948320 -3.127436 1.452737 -5.076758
  1 0.000000 0.000000 0.000000 -3.067518 -1.396520 1.570796
  2 4.422487 -0.054791 -0.769549 -0.110656 0.006697 -0.222843
  3 5.037136 -0.005101 -0.000238 -0.136391 -0.007196 0.080160
  4 6.388059 -0.005253 -0.000001 0.017581 -0.099216 -0.162982
  5 6.146608 1.394838 0.000001 0.084293 0.173315 1.147700
  6 -0.740301 1.942105 -3.301399 -1.565326 1.643599 0.414976
  7 5.760270 -0.000012 -0.000009 -1.244182 -0.167667 0.438047
  8 10.965153 0.000065 -0.000006 0.000013 0.000002 -1.131337
  9 0.000007 -0.000004 -4.044200 0.359869 2.826591 -0.086906
 10 -0.000007 0.000007 4.044200 -0.056130 -3.089855 -0.270901
 11 17.182070 0.000091 0.000546 0.000004 -0.000009 -0.378153
 12 16.782913 0.000650 -0.000234 0.508031 0.436321 -0.313294
 13 5.168527 5.004116 -0.000135 -0.341537 0.150309 0.986171
 14 17.182070 0.000099 0.000206 -0.000001 -0.000007 -0.636509
 15 16.782906 0.000656 -0.000113 0.085231 -0.525338 -0.531334
 16 5.168479 5.004167 -0.000064 0.158957 -0.099150 1.436913
 17 -1.755961 2.438200 2.500606 1.146257 -1.237317 0.820086
 18 5.760273 0.000016 0.000006 0.645049 1.098301 1.083568
time 16
  0 23.533701 -23.533703 -30.307676 3.133173 1.461434 -5.104925
  1 0.000000 0.000000 0.000000 -2.858246 -1.395963 1.371467
  2 4.422487 -0.214952 -0.738298 -0.071952 0.010852 -0.238014
  3 5.037136 -0.005101 -0.000238 -0.188548 -0.019121 0.053600
  4 6.388059 -0.005253 -0.000001 0.025276 -0.093449 -0.158214
  5 6.146608 1.394838 0.000001 0.064106 0.182476 1.030553
  6 -0.955151 1.848352 -3.301399 0.880650 1.540025 2.983536
  7 5.760270 -0.000012 -0.000009 -1.302179 -0.132061 0.473882
  8 10.965153 0.000065 -0.000006 0.000013 0.000002 -1.013522
  9 0.000007 -0.000004 -4.044200 0.324388 2.849997 -0.159612
 10 -0.000007 0.000007 4.044200 -0.041179 -3.070379 -0.248631
 11 17.182070 0.000091 0.000546 0.000004 -0.000009 -0.295768
 12 16.782913 0.000650 -0.000234 0.600071 0.347036 -0.138893
 13 5.168527 5.004116 -0.000135 -0.341537 0.150309 0.986171
 14 17.182070 0.000099 0.000206 -0.000001 -0.000007 -0.559415
 15 16.782906 0.000656 -0.000113 0.010139 -0.410263 -0.384714
 16 5.168479 5.004167 -0.000064 0.154692 -0.099221 1.427870
 17 -2.033313 2.219443 2.492793 0.962029 -1.309835 1.128524
 18 5.760273 0.000016 0.000006 0.632764 1.086337 0.973122
time 17
  0 23.596203 -23.596205 -30.014698 3.120073 1.466968 -5.120417
  1 0.000000 0.000000 0.000000 -2.753609 -1.392849 1.267569
  2 4.422487 -0.296986 -0.726579 -0.015993 0.008487 -0.247129
  3 5.037136 -0.005101 -0.000238 -0.238732 -0.033109 0.019606
  4 6.388059 -0.005253 -0.000001 0.062272 -0.089757 -0.186980
  5 6.146608 1.394838 0.000001 0.042383 0.188749 0.915034
  6 -1.158282 1.731161 -3.301399 -0.869564 1.501158 1.359837
  7 5.760270 -0.000012 -0.000009 -1.355138 -0.136074 0.572110
  8 10.965153 0.000065 -0.000006 0.000013 0.000002 -0.857386
  9 0.000007 -0.000004 -4.044200 0.248305 2.857353 -0.286107
 10 -0.000007 0.000007 4.044200 -0.038782 -3.083057 -0.250734
 11 17.182070 0.000091 0.000546 0.000004 -0.000009 -0.338430
 12 16.782913 0.000650 -0.000234 0.640389 0.184718 0.126393
 13 5.168527 5.004116 -0.000135 -0.341537 0.150309 0.986171
 14 17.182070 0.000099 0.000206 -0.000001 -0.000007 -0.539747
 15 16.782906 0.000656 -0.000113 -0.077705 -0.218251 -0.209416
 16 5.168479 5.004167 -0.000064 0.146161 -0.099689 1.409743
 17 -2.259882 1.973342 2.500606 0.392834 -1.394739 1.822912
 18 5.760273 0.000016 0.000006 0.687536 1.042229 0.822809
time 18
  0 23.658705 -23.658707 -30.135796 3.119117 1.471415 -5.121731
  1 0.000000 0.000000 0.000000 -2.729151 -1.391792 1.238397
  2 4.422487 -0.320424 -0.726579 0.019267 0.007560 -0.251752
  3 5.037136 -0.005101 -0.000238 -0.262609 -0.038464 0.014559
  4 6.388059 -0.005253 -0.000001 0.090999 -0.088406 -0.191501
  5 6.146608 1.394838 0.000001 0.013988 0.191677 0.779944
  6 -1.388758 1.574906 -3.297493 -1.056243 1.422739 1.320444
  7 5.760270 -0.000012 -0.000009 -1.336010 -0.206105 0.638428
  8 10.965153 0.000065 -0.000006 0.000013 0.000002 -0.688372
  9 0.000007 -0.000004 -4.044200 0.190531 2.870537 -0.361966
 10 -0.000007 0.000007 4.044200 -0.049421 -3.094816 -0.253123
 11 17.182070 0.000091 0.000546 0.000004 -0.000009 -0.372345
 12 16.782913 0.000650 -0.000234 0.648384 0.103254 0.255589
 13 5.168527 5.004116 -0.000135 -0.341537 0.150309 0.986171
 14 17.182070 0.000099 0.000206 -0.000001 -0.000007 -0.517818
 15 16.782906 0.000656 -0.000113 -0.105240 -0.069827 -0.115671
 16 5.168479 5.004167 -0.000064 0.141896 -0.099929 1.400700
 17 -2.494265 1.645207 2.500606 -0.307174 -1.394990 2.663502
 18 5.760273 0.000016 0.000006 0.699685 1.024138 0.680262
time 19
  0 23.662611 -23.662613 -30.295958 3.116153 1.482533 -5.124642
  1 0.000000 0.000000 0.000000 -2.762896 -1.393022 1.261035
  2 4.422487 -0.289173 -0.726579 0.009518 0.009398 -0.261518
  3 5.037136 -0.005101 -0.000238 -0.241062 -0.025222 0.070854
  4 6.388059 -0.005253 -0.000001 0.095397 -0.093069 -0.134304
  5 6.146608 1.394838 0.000001 -0.017572 0.191123 0.619566
  6 -1.611421 1.348337 -3.289680 -1.058625 1.373510 1.485551
  7 5.760270 -0.000012 -0.000009 -1.202523 -0.339204 0.585159
  8 10.965153 0.000065 -0.000006 0.000013 0.000002 -0.532236
  9 0.000007 -0.000004 -4.044200 0.179905 2.885441 -0.333017
 10 -0.000007 0.000007 4.044200 -0.079229 -3.097021 -0.256469
 11 17.182070 0.000091 0.000546 0.000004 -0.000009 -0.342732
 12 16.782913 0.000650 -0.000234 0.651793 0.201082 0.111891
 13 5.168527 5.004116 -0.000135 -0.364971 0.142160 0.993024
 14 17.182070 0.000099 0.000206 -0.000001 -0.000007 -0.465394
 15 16.782906 0.000656 -0.000113 -0.103028 -0.027802 -0.165874
 16 5.168479 5.004167 -0.000064 0.139973 -0.101127 1.411564
 17 -2.724741 1.250663 2.504512 -0.617603 -1.373646 3.135504
 18 5.760273 0.000016 0.000006 0.589327 1.068976 0.538523
time 20
  0 23.658705 -23.658707 -30.448305 3.111085 1.497604 -5.129806
  1 0.000000 0.000000 0.000000 -2.836822 -1.395348 1.321773
  2 4.422487 -0.234484 -0.738298 -0.024409 0.010564 -0.273042
  3 5.037136 -0.005101 -0.000238 -0.191847 -0.005747 0.156368
  4 6.388059 -0.005253 -0.000001 0.091227 -0.100739 -0.052932
  5 6.146608 1.394838 0.000001 -0.041797 0.187819 0.486818
  6 -1.771582 1.125674 -3.297493 -0.940902 1.368236 1.734214
  7 5.760270 -0.000012 -0.000009 -0.974418 -0.488158 0.378764
  8 10.965153 0.000065 -0.000006 0.000013 0.000002 -0.373994
  9 0.000007 -0.000004 -4.044200 0.189013 2.896237 -0.260502
 10 -0.000007 0.000007 4.044200 -0.118717 -3.099410 -0.267843
 11 17.182070 0.000091 0.000546 0.000004 -0.000009 -0.304228
 12 16.782913 0.000650 -0.000234 0.611156 0.385563 -0.166098
 13 5.168527 5.004116 -0.000135 -0.411973 0.126414 1.007287
 14 17.182070 0.000099 0.000206 -0.000001 -0.000007 -0.410709
 15 16.782906 0.000656 -0.000113 -0.100231 -0.035039 -0.285624
 16 5.168479 5.004167 -0.000064 0.136078 -0.103452 1.433292
 17 -2.861464 0.883465 2.500606 -0.779874 -1.361764 3.431418
 18 5.760273 0.000016 0.000006 0.399831 1.139443 0.368186
time 21
  0 23.627455 -23.627457 -30.604561 3.102288 1.513614 -5.138350
  1 0.000000 0.000000 0.000000 -2.932631 -1.397174 1.401375
  2 4.422487 -0.160263 -0.757830 -0.052682 0.013217 -0.267801
  3 5.037136 -0.005101 -0.000238 -0.148500 0.004539 0.208764
  4 6.388059 -0.005253 -0.000001 0.089225 -0.105383 -0.001998
  5 6.146608 1.394838 0.000001 -0.049095 0.187126 0.434576
  6 -1.822365 1.028014 -3.301399 -0.716316 1.383134 2.003288
  7 5.760270 -0.000012 -0.000009 -0.723033 -0.592497 0.079901
  8 10.965153 0.000065 -0.000006 0.000013 0.000002 -0.207333
  9 0.000007 -0.000004 -4.044200 0.190531 2.904835 -0.205758
 10 -0.000007 0.000007 4.044200 -0.147278 -3.096838 -0.272717
 11 17.182070 0.000091 0.000546 0.000004 -0.000009 -0.285658
 12 16.782913 0.000650 -0.000234 0.541433 0.510002 -0.383870
 13 5.168527 5.004116 -0.000135 -0.435527 0.118781 1.014663
 14 17.182070 0.000099 0.000206 -0.000001 -0.000007 -0.378364
 15 16.782906 0.000656 -0.000113 -0.099255 -0.053975 -0.355435
 16 5.168479 5.004167 -0.000064 0.134106 -0.104579 1.444176
 17 -2.912246 0.742835 2.500606 -0.854506 -1.354346 3.559594
 18 5.760273 0.000016 0.000006 0.240538 1.186226 0.224517
time 22
  0 23.596203 -23.596205 -30.753002 3.089475 1.527647 -5.150931
  1 0.000000 0.000000 0.000000 -3.029544 -1.397616 1.483371
  2 4.422487 -0.086042 -0.757830 -0.068053 0.017948 -0.234400
  3 5.037136 -0.005101 -0.000238 -0.125270 0.003427 0.191087
  4 6.388059 -0.005253 -0.000001 0.096344 -0.104298 -0.014595
  5 6.146608 1.394838 0.000001 -0.029571 0.193874 0.510200
  6 -1.724706 1.145205 -3.313118 -0.456679 1.395738 2.179842
  7 5.760270 -0.000012 -0.000009 -0.577906 -0.649663 -0.150860
  8 10.965153 0.000065 -0.000006 0.000013 0.000002 -0.070760
  9 0.000007 -0.000004 -4.044200 0.177534 2.912191 -0.192573
 10 -0.000007 0.000007 4.044200 -0.148812 -3.087926 -0.269468
 11 17.182070 0.000091 0.000546 0.000004 -0.000009 -0.307527
 12 16.782913 0.000650 -0.000234 0.512813 0.515042 -0.415524
 13 5.168527 5.004116 -0.000135 -0.411973 0.126414 1.007287
 14 17.182070 0.000099 0.000206 -0.000001 -0.000007 -0.377336
 15 16.782906 0.000656 -0.000113 -0.104557 -0.072644 -0.332704
 16 5.168479 5.004167 -0.000064 0.137754 -0.103800 1.443124
 17 -2.853651 0.969405 2.481074 -0.859580 -1.347493 3.492138
 18 5.760273 0.000016 0.000006 0.197168 1.197216 0.171180
time 23
  0 23.596203 -23.596205 -30.753002 3.089475 1.527647 -5.150931
  1 0.000000 0.000000 0.000000 -3.105952 -1.397001 1.545304
  2 4.422487 -0.023540 -0.769549 -0.080792 0.022455 -0.190907
  3 5.037136 -0.005101 -0.000238 -0.109199 -0.001680 0.139325
  4 6.388059 -0.005253 -0.000001 0.106231 -0.100092 -0.057700
  5 6.146608 1.394838 0.000001 0.010330 0.201156 0.674626
  6 -1.505949 1.360056 -3.332650 -0.321432 1.400036 2.149224
  7 5.760270 -0.000012 -0.000009 -0.546797 -0.685898 -0.238791
  8 10.965153 0.000065 -0.000006 0.000013 0.000002 -0.002721
  9 0.000007 -0.000004 -4.044200 0.163398 2.917254 -0.196395
 10 -0.000007 0.000007 4.044200 -0.135873 -3.077269 -0.266409
 11 17.182070 0.000091 0.000546 0.000004 -0.000009 -0.349257
 12 16.782913 0.000650 -0.000234 0.508840 0.470363 -0.359518
 13 5.168527 5.004116 -0.000135 -0.364971 0.142160 0.993024
 14 17.182070 0.000099 0.000206 -0.000001 -0.000007 -0.392618
 15 16.782906 0.000656 -0.000113 -0.113860 -0.099804 -0.272377
 16 5.168479 5.004167 -0.000064 0.146544 -0.101894 1.440514
 17 -2.677864 1.426450 2.461542 -0.824893 -1.343187 3.296980
 18 5.760273 0.000016 0.000006 0.290219 1.187441 0.254867
time 24
  0 23.596203 -23.596205 -30.753002 3.089475 1.527647 -5.150931
  1 0.000000 0.000000 0.000000 -0.000424 -1.745072 -1.570796
  2 4.422487 -0.004008 -0.769549 -0.087486 0.025252 -0.163367
  3 5.037136 -0.005101 -0.000238 -0.096887 -0.005308 0.099560
  4 6.388059 -0.005253 -0.000001 0.111756 -0.097008 -0.086783
  5 6.146608 1.394838 0.000001 0.053074 0.201353 0.851320
  6 -1.228597 1.574906 -3.352182 -0.376864 1.400326 1.923644
  7 5.760270 -0.000012 -0.000009 -0.572052 -0.692980 -0.210602
  8 10.965153 0.000065 -0.000006 0.000013 0.000002 -0.020242
  9 0.000007 -0.000004 -4.044200 0.152584 2.920312 -0.211108
 10 -0.000007 0.000007 4.044200 -0.126864 -3.070195 -0.266600
 11 17.182070 0.000091 0.000546 0.000004 -0.000009 -0.378153
 12 16.782913 0.000650 -0.000234 0.508031 0.436321 -0.313294
 13 5.168527 5.004116 -0.000135 -0.341537 0.150309 0.986171
 14 17.182070 0.000099 0.000206 -0.000001 -0.000007 -0.413039
 15 16.782906 0.000656 -0.000113 -0.125668 -0.127354 -0.201814
 16 5.168479 5.004167 -0.000064 0.155320 -0.099929 1.437965
 17 -2.404418 1.887402 2.426385 -0.779044 -1.339666 3.078579
 18 5.760273 0.000016 0.000006 0.368067 1.174068 0.327195
time 25
  0 23.596203 -23.596205 -30.753002 3.089475 1.527647 -5.150931
  1 0.000000 0.000000 0.000000 -0.000424 -1.745072 -1.570796
  2 4.422487 -0.004008 -0.769549 -0.093531 0.025332 -0.157311
  3 5.037136 -0.005101 -0.000238 -0.087432 -0.006230 0.087110
  4 6.388059 -0.005253 -0.000001 0.110822 -0.096989 -0.087381
  5 6.146608 1.394838 0.000001 0.079744 0.197713 0.962433
  6 -1.041091 1.688191 -3.363901 -0.517921 1.394868 1.680227
  7 5.760270 -0.000012 -0.000009 -0.591316 -0.674213 -0.148923
  8 10.965153 0.000065 -0.000006 0.000013 0.000002 -0.093171
  9 0.000007 -0.000004 -4.044200 0.152394 2.920885 -0.222955
 10 -0.000007 0.000007 4.044200 -0.122263 -3.069369 -0.268799
 11 17.182070 0.000091 0.000546 0.000004 -0.000009 -0.385394
 12 16.782913 0.000650 -0.000234 0.505407 0.430428 -0.307215
 13 5.168527 5.004116 -0.000135 -0.341537 0.150309 0.986171
 14 17.182070 0.000099 0.000206 -0.000001 -0.000007 -0.427841
 15 16.782906 0.000656 -0.000113 -0.136077 -0.147976 -0.148751
 16 5.168479 5.004167 -0.000064 0.158957 -0.099150 1.436913
 17 -2.193474 2.145222 2.410759 -0.744080 -1.337749 2.934749
 18 5.760273 0.000016 0.000006 0.369085 1.172269 0.325893
time 26
  0 23.596203 -23.596205 -30.753002 3.089475 1.527647 -5.150931
  1 0.000000 0.000000 0.000000 -0.000424 -1.745072 -1.570796
  2 4.422487 -0.004008 -0.769549 -0.092848 0.025332 -0.157963
  3 5.037136 -0.005101 -0.000238 -0.080834 -0.006625 0.083091
  4 6.388059 -0.005253 -0.000001 0.106939 -0.098074 -0.078232
  5 6.146608 1.394838 0.000001 0.088653 0.195952 0.999073
  6 -0.974683 1.719442 -3.363901 -0.673075 1.381921 1.496711
  7 5.760270 -0.000012 -0.000009 -0.616706 -0.644903 -0.063694
  8 10.965153 0.000065 -0.000006 0.000013 0.000002 -0.192227
  9 0.000007 -0.000004 -4.044200 0.154007 2.921840 -0.218178
 10 -0.000007 0.000007 4.044200 -0.121592 -3.069277 -0.268799
 11 17.182070 0.000091 0.000546 0.000004 -0.000009 -0.386398
 12 16.782913 0.000650 -0.000234 0.505039 0.429686 -0.306706
 13 5.168527 5.004116 -0.000135 -0.341537 0.150309 0.986171
 14 17.182070 0.000099 0.000206 -0.000001 -0.000007 -0.421194
 15 16.782906 0.000656 -0.000113 -0.138175 -0.151348 -0.141713
 16 5.168479 5.004167 -0.000064 0.163062 -0.098958 1.428477
 17 -2.127066 2.227256 2.406853 -0.729412 -1.337214 2.883991
 18 5.760273 0.000016 0.000006 0.341801 1.175575 0.294735
time 27
  0 23.596203 -23.596205 -30.753002 3.089475 1.527647 -5.150931
  1 0.000000 0.000000 0.000000 -0.000424 -1.745072 -1.570796
  2 4.422487 -0.004008 -0.769549 -0.089501 0.025284 -0.161316
  3 5.037136 -0.005101 -0.000238 -0.075307 -0.006903 0.082487
  4 6.388059 -0.005253 -0.000001 0.101953 -0.099559 -0.065125
  5 6.146608 1.394838 0.000001 0.091136 0.195397 1.009315
  6 -0.955151 1.723348 -3.363901 -0.797083 1.365995 1.370042
  7 5.760270 -0.000012 -0.000009 -0.637944 -0.615828 0.016948
  8 10.965153 0.000065 -0.000006 0.000013 0.000002 -0.286825
  9 0.000007 -0.000004 -4.044200 0.152584 2.920885 -0.222955
 10 -0.000007 0.000007 4.044200 -0.123701 -3.069552 -0.268130
 11 17.182070 0.000091 0.000546 0.000004 -0.000009 -0.383674
 12 16.782913 0.000650 -0.000234 0.506020 0.431892 -0.308879
 13 5.168527 5.004116 -0.000135 -0.341537 0.150309 0.986171
 14 17.182070 0.000099 0.000206 -0.000001 -0.000007 -0.427841
 15 16.782906 0.000656 -0.000113 -0.136451 -0.148120 -0.148675
 16 5.168479 5.004167 -0.000064 0.158957 -0.099150 1.436913
 17 -2.107534 2.250694 2.406853 -0.727844 -1.336743 2.872321
 18 5.760273 0.000016 0.000006 0.320286 1.178542 0.270266
time 28
  0 23.596203 -23.596205 -30.753002 3.089475 1.527647 -5.150931
  1 0.000000 0.000000 0.000000 -0.000424 -1.745072 -1.570796
  2 4.422487 -0.004008 -0.769549 -0.087486 0.025252 -0.163367
  3 5.037136 -0.005101 -0.000238 -0.069236 -0.007225 0.080160
  4 6.388059 -0.005253 -0.000001 0.097459 -0.100701 -0.053970
  5 6.146608 1.394838 0.000001 0.089373 0.195793 1.002051
  6 -0.966870 1.719442 -3.363901 -0.863659 1.353259 1.315293
  7 5.760270 -0.000012 -0.000009 -0.647270 -0.597690 0.066342
  8 10.965153 0.000065 -0.000006 0.000013 0.000002 -0.348178
  9 0.000007 -0.000004 -4.044200 0.152584 2.920885 -0.222955
 10 -0.000007 0.000007 4.044200 -0.126001 -3.070012 -0.267269
 11 17.182070 0.000091 0.000546 0.000004 -0.000009 -0.379873
 12 16.782913 0.000650 -0.000234 0.507369 0.434857 -0.311766
 13 5.168527 5.004116 -0.000135 -0.341537 0.150309 0.986171
 14 17.182070 0.000099 0.000206 -0.000001 -0.000007 -0.427841
 15 16.782906 0.000656 -0.000113 -0.136451 -0.148120 -0.148675
 16 5.168479 5.004167 -0.000064 0.158957 -0.099150 1.436913
 17 -2.119253 2.238975 2.406853 -0.729043 -1.337057 2.880670
 18 5.760273 0.000016 0.000006 0.303522 1.180536 0.250467
time 29
  0 23.596203 -23.596205 -30.753002 3.089475 1.527647 -5.150931
  1 0.000000 0.000000 0.000000 -0.000424 -1.745072 -1.570796
  2 4.422487 -0.004008 -0.769549 -0.087486 0.025252 -0.163367
  3 5.037136 -0.005101 -0.000238 -0.069236 -0.007225 0.080160
  4 6.388059 -0.005253 -0.000001 0.097459 -0.100701 -0.053970
  5 6.146608 1.394838 0.000001 0.085449 0.196624 0.985933
  6 -0.998121 1.707723 -3.363901 -0.882708 1.347326 1.314053
  7 5.760270 -0.000012 -0.000009 -0.652239 -0.598281 0.083979
  8 10.965153 0.000065 -0.000006 0.000013 0.000002 -0.357031
  9 0.000007 -0.000004 -4.044200 0.152584 2.920885 -0.222955
 10 -0.000007 0.000007 4.044200 -0.126864 -3.070195 -0.266600
 11 17.182070 0.000091 0.000546 0.000004 -0.000009 -0.378153
 12 16.782913 0.000650 -0.000234 0.508031 0.436321 -0.313294
 13 5.168527 5.004116 -0.000135 -0.341537 0.150309 0.986171
 14 17.182070 0.000099 0.000206 -0.000001 -0.000007 -0.427841
 15 16.782906 0.000656 -0.000113 -0.136451 -0.148120 -0.148675
 16 5.168479 5.004167 -0.000064 0.158957 -0.099150 1.436913
 17 -2.150504 2.196005 2.406853 -0.731626 -1.337811 2.898981
 18 5.760273 0.000016 0.000006 0.303522 1.180536 0.250467
time 30
  0 23.596203 -23.596205 -30.753002 3.089475 1.527647 -5.150931
  1 0.000000 0.000000 0.000000 -0.000424 -1.745072 -1.570796
  2 4.422487 -0.004008 -0.769549 -0.087486 0.025252 -0.163367
  3 5.037136 -0.005101 -0.000238 -0.069236 -0.007225 0.080160
  4 6.388059 -0.005253 -0.000001 0.097459 -0.100701 -0.053970
  5 6.146608 1.394838 0.000001 0.081544 0.197376 0.969777
  6 -1.029372 1.688191 -3.363901 -0.882041 1.346087 1.330459
  7 5.760270 -0.000012 -0.000009 -0.652443 -0.598399 0.086018
  8 10.965153 0.000065 -0.000006 0.000013 0.000002 -0.357774
  9 0.000007 -0.000004 -4.044200 0.152584 2.920885 -0.222955
 10 -0.000007 0.000007 4.044200 -0.126864 -3.070195 -0.266600
 11 17.182070 0.000091 0.000546 0.000004 -0.000009 -0.378153
 12 16.782913 0.000650 -0.000234 0.508031 0.436321 -0.313294
 13 5.168527 5.004116 -0.000135 -0.341537 0.150309 0.986171
 14 17.182070 0.000099 0.000206 -0.000001 -0.000007 -0.427841
 15 16.782906 0.000656 -0.000113 -0.136451 -0.148120 -0.148675
 16 5.168479 5.004167 -0.000064 0.158957 -0.099150 1.436913
 17 -2.173943 2.164754 2.410759 -0.734209 -1.338534 2.917292
 18 5.760273 0.000016 0.000006 0.303522 1.180536 0.250467
time 31
  0 23.596203 -23.596205 -30.753002 3.089475 1.527647 -5.150931
  1 0.000000 0.000000 0.000000 -0.000424 -1.745072 -1.570796
  2 4.422487 -0.004008 -0.769549 -0.087486 0.025252 -0.163367
  3 5.037136 -0.005101 -0.000238 -0.069236 -0.007225 0.080160
  4 6.388059 -0.005253 -0.000001 0.097459 -0.100701 -0.053970
  5 6.146608 1.394838 0.000001 0.079744 0.197713 0.962433
  6 -1.041091 1.688191 -3.363901 -0.872517 1.347748 1.346578
  7 5.760270 -0.000012 -0.000009 -0.651082 -0.598045 0.079799
  8 10.965153 0.000065 -0.000006 0.000013 0.000002 -0.354988
  9 0.000007 -0.000004 -4.044200 0.152584 2.920885 -0.222955
 10 -0.000007 0.000007 4.044200 -0.126864 -3.070195 -0.266600
 11 17.182070 0.000091 0.000546 0.000004 -0.000009 -0.378153
 12 16.782913 0.000650 -0.000234 0.508031 0.436321 -0.313294
 13 5.168527 5.004116 -0.000135 -0.341537 0.150309 0.986171
 14 17.182070 0.000099 0.000206 -0.000001 -0.000007 -0.427841
 15 16.782906 0.000656 -0.000113 -0.136451 -0.148120 -0.148675
 16 5.168479 5.004167 -0.000064 0.158957 -0.099150 1.436913
 17 -2.193474 2.145222 2.410759 -0.735316 -1.338849 2.925736
 18 5.760273 0.000016 0.000006 0.303522 1.180536 0.250467
time 32
  0 23.596203 -23.596205 -30.753002 3.089475 1.527647 -5.150931
  1 0.000000 0.000000 0.000000 -0.000424 -1.745072 -1.570796
  2 4.422487 -0.004008 -0.769549 -0.087486 0.025252 -0.163367
  3 5.037136 -0.005101 -0.000238 -0.069236 -0.007225 0.080160
  4 6.388059 -0.005253 -0.000001 0.097459 -0.100701 -0.053970
  5 6.146608 1.394838 0.000001 0.079744 0.197713 0.962433
  6 -1.041091 1.688191 -3.363901 -0.861373 1.350411 1.356880
  7 5.760270 -0.000012 -0.000009 -0.648563 -0.597769 0.071083
  8 10.965153 0.000065 -0.000006 0.000013 0.000002 -0.350654
  9 0.000007 -0.000004 -4.044200 0.152584 2.920885 -0.222955
 10 -0.000007 0.000007 4.044200 -0.126864 -3.070195 -0.266600
 11 17.182070 0.000091 0.000546 0.000004 -0.000009 -0.378153
 12 16.782913 0.000650 -0.000234 0.508031 0.436321 -0.313294
 13 5.168527 5.004116 -0.000135 -0.341537 0.150309 0.986171
 14 17.182070 0.000099 0.000206 -0.000001 -0.000007 -0.427841
 15 16.782906 0.000656 -0.000113 -0.136451 -0.148120 -0.148675
 16 5.168479 5.004167 -0.000064 0.158957 -0.099150 1.436913
 17 -2.193474 2.145222 2.410759 -0.735316 -1.338849 2.925736
 18 5.760273 0.000016 0.000006 0.303522 1.180536 0.250467
time 33
  0 23.596203 -23.596205 -30.753002 3.089475 1.527647 -5.150931
  1 0.000000 0.000000 0.000000 -0.000424 -1.745072 -1.570796
  2 4.422487 -0.004008 -0.769549 -0.087486 0.025252 -0.163367
  3 5.037136 -0.005101 -0.000238 -0.069236 -0.007225 0.080160
  4 6.388059 -0.005253 -0.000001 0.097459 -0.100701 -0.053970
  5 6.146608 1.394838 0.000001 0.079744 0.197713 0.962433
  6 -1.041091 1.688191 -3.363901 -0.855468 1.351756 1.362030
  7 5.760270 -0.000012 -0.000009 -0.647270 -0.597690 0.066342
  8 10.965153 0.000065 -0.000006 0.000013 0.000002 -0.348178
  9 0.000007 -0.000004 -4.044200 0.152584 2.920885 -0.222955
 10 -0.000007 0.000007 4.044200 -0.126864 -3.070195 -0.266600
 11 17.182070 0.000091 0.000546 0.000004 -0.000009 -0.378153
 12 16.782913 0.000650 -0.000234 0.508031 0.436321 -0.313294
 13 5.168527 5.004116 -0.000135 -0.341537 0.150309 0.986171
 14 17.182070 0.000099 0.000206 -0.000001 -0.000007 -0.427841
 15 16.782906 0.000656 -0.000113 -0.136451 -0.148120 -0.148675
 16 5.168479 5.004167 -0.000064 0.158957 -0.099150 1.436913
 17 -2.193474 2.145222 2.410759 -0.735316 -1.338849 2.925736
 18 5.760273 0.000016 0.000006 0.303522 1.180536 0.250467
time 34
  0 23.596203 -23.596205 -30.753002 3.089475 1.527647 -5.150931
  1 0.000000 0.000000 0.000000 -0.000424 -1.745072 -1.570796
  2 4.422487 -0.004008 -0.769549 -0.087486 0.025252 -0.163367
  3 5.037136 -0.005101 -0.000238 -0.069236 -0.007225 0.080160
  4 6.388059 -0.005253 -0.000001 0.097459 -0.100701 -0.053970
  5 6.146608 1.394838 0.000001 0.079744 0.197713 0.962433
  6 -1.041091 1.688191 -3.363901 -0.855468 1.351756 1.362030
  7 5.760270 -0.000012 -0.000009 -0.647270 -0.597690 0.066342
  8 10.965153 0.000065 -0.000006 0.000013 0.000002 -0.348178
  9 0.000007 -0.000004 -4.044200 0.152584 2.920885 -0.222955
 10 -0.000007 0.000007 4.044200 -0.126864 -3.070195 -0.266600
 11 17.182070 0.000091 0.000546 0.000004 -0.000009 -0.378153
 12 16.782913 0.000650 -0.000234 0.508031 0.436321 -0.313294
 13 5.168527 5.004116 -0.000135 -0.341537 0.150309 0.986171
 14 17.182070 0.000099 0.000206 -0.000001 -0.000007 -0.427841
 15 16.782906 0.000656 -0.000113 -0.136451 -0.148120 -0.148675
 16 5.168479 5.004167 -0.000064 0.158957 -0.099150 1.436913
 17 -2.193474 2.145222 2.410759 -0.735316 -1.338849 2.925736
 18 5.760273 0.000016 0.000006 0.303522 1.180536 0.250467
time 35
  0 23.596203 -23.596205 -30.753002 3.089475 1.527647 -5.150931
  1 0.000000 0.000000 0.000000 -0.000424 -1.745072 -1.570796
  2 4.422487 -0.004008 -0.769549 -0.087486 0.025252 -0.163367
  3 5.037136 -0.005101 -0.000238 -0.069236 -0.007225 0.080160
  4 6.388059 -0.005253 -0.000001 0.097459 -0.100701 -0.053970
  5 6.146608 1.394838 0.000001 0.079744 0.197713 0.962433
  6 -1.041091 1.688191 -3.363901 -0.855468 1.351756 1.362030
  7 5.760270 -0.000012 -0.000009 -0.647270 -0.597690 0.066342
  8 10.965153 0.000065 -0.000006 0.000013 0.000002 -0.348178
  9 0.000007 -0.000004 -4.044200 0.152584 2.920885 -0.222955
 10 -0.000007 0.000007 4.044200 -0.126864 -3.070195 -0.266600
 11 17.182070 0.000091 0.000546 0.000004 -0.000009 -0.378153
 12 16.782913 0.000650 -0.000234 0.508031 0.436321 -0.313294
 13 5.168527 5.004116 -0.000135 -0.341537 0.150309 0.986171
 14 17.182070 0.000099 0.000206 -0.000001 -0.000007 -0.427841
 15 16.782906 0.000656 -0.000113 -0.136451 -0.148120 -0.148675
 16 5.168479 5.004167 -0.000064 0.158957 -0.099150 1.436913
 17 -2.193474 2.145222 2.410759 -0.735316 -1.338849 2.925736
 18 5.760273 0.000016 0.000006 0.303522 1.180536 0.250467
end
