version 1
nodes
  0 "Bip01"  -1
  1 "Bip01 Pelvis"   0
  2 "Bip01 Spine"   1
  3 "Bip01 Spine1"   2
  4 "Bip01 Spine2"   3
  5 "Bip01 Neck"   4
  6 "Bip01 R Clavicle"   5
  7 "Bip01 R UpperArm"   6
  8 "Bip01 R Forearm"   7
  9 "Bip01 R Thigh"   1
 10 "Bip01 L Thigh"   1
 11 "Bip01 L Calf"  10
 12 "Bip01 L Foot"  11
 13 "Bip01 L Toe0"  12
 14 "Bip01 R Calf"   9
 15 "Bip01 R Foot"  14
 16 "Bip01 R Toe0"  15
 17 "Bip01 L Clavicle"   5
 18 "Bip01 L UpperArm"  17
end
skeleton
time 0
  0 0.005641 -0.005641 -4.720958 0.000000 0.087214 -1.396458
  1 0.000000 0.000000 0.000000 -1.570796 -1.570796 0.000000
  2 4.484989 -0.004008 0.000006 -0.079134 -0.074079 -0.308624
  3 5.037136 -0.005101 -0.000238 0.166159 0.076732 -0.051404
  4 6.388059 -0.005253 -0.000001 0.070817 -0.050189 -0.128234
  5 6.146608 1.394838 0.000001 0.122772 -0.181115 0.654540
  6 -2.650516 1.051453 -2.668567 1.052281 0.801636 3.418863
  7 5.760270 -0.000012 -0.000009 -0.984765 -0.497286 0.485453
  8 10.965153 0.000065 -0.000006 0.000013 0.000002 -1.025100
  9 0.000007 -0.000004 -4.044200 0.204381 2.952221 -0.914187
 10 -0.000007 0.000007 4.044200 -0.168556 -2.962065 0.243038
 11 17.182070 0.000091 0.000546 0.000004 -0.000009 -0.577196
 12 16.782913 0.000650 -0.000234 0.111349 -0.091086 -0.191774
 13 5.168527 5.004116 -0.000135 -0.085806 0.015871 2.640169
 14 17.182070 0.000099 0.000206 -0.000001 -0.000007 -0.706682
 15 16.782906 0.000656 -0.000113 -0.003719 0.033652 0.324079
 16 5.168479 5.004167 -0.000064 0.000011 -0.000001 1.570802
 17 -1.599706 1.754585 3.102187 1.626706 -1.189222 0.864013
 18 5.760273 0.000016 0.000006 0.965603 1.136525 0.369982
time 1
  0 0.005641 -0.005641 -4.720958 0.000000 0.087214 -1.396458
  1 0.000000 0.000000 0.000000 -1.570796 -1.570796 0.000000
  2 4.484989 -0.004008 0.000006 -0.114719 -0.079689 -0.309275
  3 5.037136 -0.005101 -0.000238 0.246239 0.082600 -0.004115
  4 6.388059 -0.005253 -0.000001 0.099832 0.005824 -0.008490
  5 6.146608 1.394838 0.000001 0.105769 -0.293705 0.486024
  6 -3.103654 0.754568 -2.234960 0.924843 0.694660 3.482197
  7 5.760270 -0.000012 -0.000009 -0.869725 -0.506768 0.306126
  8 10.965153 0.000065 -0.000006 0.000013 0.000002 -1.416246
  9 0.000007 -0.000004 -4.044200 0.204381 2.952221 -0.914187
 10 -0.000007 0.000007 4.044200 -0.168556 -2.962065 0.243038
 11 17.182070 0.000091 0.000546 0.000004 -0.000009 -0.577196
 12 16.782913 0.000650 -0.000234 0.111349 -0.091086 -0.191774
 13 5.168527 5.004116 -0.000135 -0.085806 0.015871 2.640169
 14 17.182070 0.000099 0.000206 -0.000001 -0.000007 -0.706682
 15 16.782906 0.000656 -0.000113 -0.003719 0.033652 0.324079
 16 5.168479 5.004167 -0.000064 0.000011 -0.000001 1.570802
 17 -1.408294 1.348323 3.387352 1.778091 -1.248413 0.894278
 18 5.760273 0.000016 0.000006 0.421007 1.187441 -0.024480
end
