version 1
nodes
  0 "Bip01"  -1
  1 "Bip01 Pelvis"   0
  2 "Bip01 Spine"   1
  3 "Bip01 Spine1"   2
  4 "Bip01 Spine2"   3
  5 "Bip01 Neck"   4
  6 "Bip01 R Clavicle"   5
  7 "Bip01 R UpperArm"   6
  8 "Bip01 R Forearm"   7
  9 "Bip01 R Thigh"   1
 10 "Bip01 L Thigh"   1
 11 "Bip01 L Calf"  10
 12 "Bip01 L Foot"  11
 13 "Bip01 L Toe0"  12
 14 "Bip01 R Calf"   9
 15 "Bip01 R Foot"  14
 16 "Bip01 R Toe0"  15
 17 "Bip01 L Clavicle"   5
 18 "Bip01 L UpperArm"  17
end
skeleton
time 0
  0 0.009547 -0.009547 -4.447512 0.014152 0.130055 -1.742724
  1 0.000000 0.000000 0.000000 -0.233143 -1.720738 -1.332448
  2 4.442019 0.136621 -0.644545 -0.138734 -0.036936 0.212408
  3 5.037136 -0.005101 -0.000238 -0.094540 -0.107950 0.341084
  4 6.388059 -0.005253 -0.000001 0.049928 0.030490 0.136642
  5 6.146608 1.394838 0.000001 -0.041987 0.443669 -0.327891
  6 -0.849679 -0.882200 -3.703755 2.773540 1.122484 -0.065467
  7 5.760270 -0.000012 -0.000009 0.327844 0.050414 -0.012210
  8 10.965153 0.000065 -0.000006 0.000013 0.000002 -0.760559
  9 0.000007 -0.000004 -4.044200 0.219560 3.068106 -0.613045
 10 -0.000007 0.000007 4.044200 -0.221750 -3.147825 0.685482
 11 17.182070 0.000091 0.000546 0.000004 -0.000009 -0.001935
 12 16.782913 0.000650 -0.000234 -0.358857 0.087113 0.047666
 13 5.168527 5.004116 -0.000135 -0.091495 0.102092 1.663971
 14 17.182070 0.000099 0.000206 -0.000001 -0.000007 -1.860009
 15 16.782906 0.000656 -0.000113 0.421999 -0.028172 -0.771701
 16 5.168479 5.004167 -0.000064 0.158957 -0.099150 1.436913
 17 -3.369291 -1.108784 1.621673 0.148920 -1.139619 3.318802
 18 5.760273 0.000016 0.000006 -0.909739 0.950219 -0.578863
time 1
  0 0.017360 -0.017360 -2.248226 0.014152 0.130055 -1.742724
  1 0.000000 0.000000 0.000000 -0.233143 -1.720738 -1.332448
  2 4.442019 0.136621 -0.644545 -0.138734 -0.036936 0.212408
  3 5.037136 -0.005101 -0.000238 -0.094540 -0.107950 0.341084
  4 6.388059 -0.005253 -0.000001 0.049928 0.030490 0.136642
  5 6.146608 1.394838 0.000001 -0.041987 0.443669 -0.327891
  6 -0.849679 -0.882200 -3.703755 2.773540 1.122484 -0.065467
  7 5.760270 -0.000012 -0.000009 0.327844 0.050414 -0.012210
  8 10.965153 0.000065 -0.000006 0.000013 0.000002 -0.760559
  9 0.000007 -0.000004 -4.044200 0.219560 3.068106 -0.613045
 10 -0.000007 0.000007 4.044200 -0.221750 -3.147825 0.685482
 11 17.182070 0.000091 0.000546 0.000004 -0.000009 -0.001935
 12 16.782913 0.000650 -0.000234 -0.358857 0.087113 0.047666
 13 5.168527 5.004116 -0.000135 -0.091495 0.102092 1.663971
 14 17.182070 0.000099 0.000206 -0.000001 -0.000007 -1.860009
 15 16.782906 0.000656 -0.000113 0.421999 -0.028172 -0.771701
 16 5.168479 5.004167 -0.000064 0.158957 -0.099150 1.436913
 17 -3.369291 -1.108784 1.621673 0.148920 -1.139619 3.318802
 18 5.760273 0.000016 0.000006 -0.909739 0.950219 -0.578863
time 2
  0 2.228365 -2.228365 -0.787244 0.061388 0.229523 -1.793049
  1 0.000000 0.000000 0.000000 -0.499607 -1.707937 -1.060234
  2 4.453738 0.285063 -0.535167 -0.221439 -0.040468 0.009888
  3 5.037136 -0.005101 -0.000238 -0.192800 -0.038786 -0.104828
  4 6.388059 -0.005253 -0.000001 0.102996 0.090347 0.221374
  5 6.146608 1.394838 0.000001 -0.220337 0.201373 -0.554246
  6 -1.408290 -0.776728 -3.555313 3.138041 1.332639 0.515509
  7 5.760270 -0.000012 -0.000009 0.645939 -0.285185 -0.368572
  8 10.965153 0.000065 -0.000006 0.000013 0.000002 -0.904437
  9 0.000007 -0.000004 -4.044200 0.113878 3.003619 -0.816163
 10 -0.000007 0.000007 4.044200 -0.269576 -3.109424 0.331737
 11 17.182070 0.000091 0.000546 0.000004 -0.000009 -0.267589
 12 16.782913 0.000650 -0.000234 -0.170289 0.076161 0.152918
 13 5.168527 5.004116 -0.000135 -0.125058 0.119564 1.566289
 14 17.182070 0.000099 0.000206 -0.000001 -0.000007 -1.766262
 15 16.782906 0.000656 -0.000113 0.263731 -0.248516 -0.431304
 16 5.168479 5.004167 -0.000064 0.158957 -0.099150 1.436913
 17 -2.576298 -2.038499 2.090437 -1.081538 -1.169545 4.814597
 18 5.760273 0.000016 0.000006 -1.160591 0.024039 -0.478833
time 3
  0 4.744067 -4.744067 0.704989 0.112449 0.365408 -1.850322
  1 0.000000 0.000000 0.000000 -0.852502 -1.706726 -0.701884
  2 4.453738 0.445224 -0.398444 -0.276879 -0.067031 -0.140871
  3 5.037136 -0.005101 -0.000238 -0.272030 -0.011015 -0.434796
  4 6.388059 -0.005253 -0.000001 0.148741 0.127346 0.294969
  5 6.146608 1.394838 0.000001 -0.306924 -0.017751 -0.650512
  6 -1.935650 -0.757196 -3.301399 1.022279 1.794188 4.816124
  7 5.760270 -0.000012 -0.000009 1.066072 -0.603080 -0.676661
  8 10.965153 0.000065 -0.000006 0.000013 0.000002 -0.977367
  9 0.000007 -0.000004 -4.044200 -0.035633 2.967698 -1.075459
 10 -0.000007 0.000007 4.044200 -0.314527 -3.047412 -0.091400
 11 17.182070 0.000091 0.000546 0.000004 -0.000009 -0.592898
 12 16.782913 0.000650 -0.000234 0.038831 0.022364 0.258646
 13 5.168527 5.004116 -0.000135 -0.212136 0.147444 1.327192
 14 17.182070 0.000099 0.000206 -0.000001 -0.000007 -1.661209
 15 16.782906 0.000656 -0.000113 -0.033189 -0.298415 0.054584
 16 5.168479 5.004167 -0.000064 0.158957 -0.099150 1.436913
 17 -1.830182 -2.546328 2.332632 -1.519090 -0.877490 5.418379
 18 5.760273 0.000016 0.000006 -1.442187 -0.704406 -0.440761
time 4
  0 7.373053 -7.373054 1.775334 0.156243 0.456970 -1.896328
  1 0.000000 0.000000 0.000000 -1.145723 -1.722295 -0.403075
  2 4.434206 0.605386 -0.273440 -0.273824 -0.092427 -0.135793
  3 5.037136 -0.005101 -0.000238 -0.246164 0.010523 -0.407390
  4 6.388059 -0.005253 -0.000001 0.155596 0.114975 0.320973
  5 6.146608 1.394838 0.000001 -0.275402 -0.045018 -0.514231
  6 -2.224721 -0.620474 -3.141238 1.300107 1.921230 4.965970
  7 5.760270 -0.000012 -0.000009 1.302005 -0.555081 -0.911194
  8 10.965153 0.000065 -0.000006 0.000013 0.000002 -0.834293
  9 0.000007 -0.000004 -4.044200 -0.176037 2.974481 -1.295392
 10 -0.000007 0.000007 4.044200 -0.337913 -2.973732 -0.475349
 11 17.182070 0.000091 0.000546 0.000004 -0.000009 -0.875044
 12 16.782913 0.000650 -0.000234 0.198092 -0.048186 0.330274
 13 5.168527 5.004116 -0.000135 -0.303627 0.153974 1.086039
 14 17.182070 0.000099 0.000206 -0.000001 -0.000007 -1.545533
 15 16.782906 0.000656 -0.000113 -0.196467 -0.142733 0.478904
 16 5.168479 5.004167 -0.000064 0.158957 -0.099150 1.436913
 17 -1.970811 -2.226005 2.535763 -1.635419 -0.883337 5.382327
 18 5.760273 0.000016 0.000006 -1.539854 -0.685586 -0.330136
time 5
  0 9.845785 -9.845785 1.962840 0.187224 0.421541 -1.915951
  1 0.000000 0.000000 0.000000 -1.286310 -1.743707 -0.259146
  2 4.422487 0.730389 -0.210938 -0.262938 -0.104110 -0.111768
  3 5.037136 -0.005101 -0.000238 -0.194143 0.032325 -0.304713
  4 6.388059 -0.005253 -0.000001 0.155584 0.093316 0.345498
  5 6.146608 1.394838 0.000001 -0.205646 -0.028179 -0.304232
  6 -2.427852 -0.374372 -3.024047 1.360587 2.050645 4.796666
  7 5.760270 -0.000012 -0.000009 1.299214 -0.394088 -1.020585
  8 10.965153 0.000065 -0.000006 0.000013 0.000002 -0.612842
  9 0.000007 -0.000004 -4.044200 -0.253449 2.983461 -1.384053
 10 -0.000007 0.000007 4.044200 -0.335230 -2.918243 -0.717265
 11 17.182070 0.000091 0.000546 0.000004 -0.000009 -1.011205
 12 16.782913 0.000650 -0.000234 0.273995 -0.091401 0.366785
 13 5.168527 5.004116 -0.000135 -0.341537 0.150309 0.986171
 14 17.182070 0.000099 0.000206 -0.000001 -0.000007 -1.419785
 15 16.782906 0.000656 -0.000113 -0.176901 -0.015589 0.722506
 16 5.168479 5.004167 -0.000064 0.158957 -0.099150 1.436913
 17 -2.267695 -1.573642 2.754520 -1.760329 -0.960036 5.269046
 18 5.760273 0.000016 0.000006 -1.703762 -0.614147 -0.161324
time 6
  0 12.154449 -12.154449 1.263600 0.208069 0.276366 -1.916796
  1 0.000000 0.000000 0.000000 -1.315917 -1.766599 -0.228133
  2 4.399049 0.835861 -0.218751 -0.247469 -0.100610 -0.073744
  3 5.037136 -0.005101 -0.000238 -0.126800 0.044703 -0.159550
  4 6.388059 -0.005253 -0.000001 0.150287 0.066290 0.363779
  5 6.146608 1.394838 0.000001 -0.125257 -0.003109 -0.085380
  6 -2.513793 -0.077488 -2.973264 -1.796865 1.001243 1.393125
  7 5.760270 -0.000012 -0.000009 1.137069 -0.220072 -0.980927
  8 10.965153 0.000065 -0.000006 0.000013 0.000002 -0.414793
  9 0.000007 -0.000004 -4.044200 -0.260564 2.960150 -1.317653
 10 -0.000007 0.000007 4.044200 -0.319128 -2.893989 -0.791818
 11 17.182070 0.000091 0.000546 0.000004 -0.000009 -0.967323
 12 16.782913 0.000650 -0.000234 0.277600 -0.081005 0.384038
 13 5.168527 5.004116 -0.000135 -0.284247 0.162443 1.049257
 14 17.182070 0.000099 0.000206 -0.000001 -0.000007 -1.281289
 15 16.782906 0.000656 -0.000113 -0.102280 0.011447 0.796268
 16 5.168479 5.004167 -0.000064 0.152732 -0.108486 1.496959
 17 -2.494265 -0.811900 2.883430 -1.867618 -1.072005 5.135747
 18 5.760273 0.000016 0.000006 -1.858440 -0.491208 -0.019721
time 7
  0 14.377172 -14.377173 -0.130974 0.225185 0.097640 -1.915951
  1 0.000000 0.000000 0.000000 -1.302217 -1.791663 -0.242029
  2 4.379517 0.929614 -0.253908 -0.228783 -0.088831 -0.025629
  3 5.037136 -0.005101 -0.000238 -0.057519 0.043064 -0.006079
  4 6.388059 -0.005253 -0.000001 0.141742 0.037266 0.371186
  5 6.146608 1.394838 0.000001 -0.073301 0.014502 0.074005
  6 -2.502073 0.176426 -2.984983 -1.826105 0.976167 1.196064
  7 5.760270 -0.000012 -0.000009 1.028701 -0.041492 -0.853797
  8 10.965153 0.000065 -0.000006 0.000013 0.000002 -0.341925
  9 0.000007 -0.000004 -4.044200 -0.224514 2.919547 -1.155999
 10 -0.000007 0.000007 4.044200 -0.298617 -2.887099 -0.770886
 11 17.182070 0.000091 0.000546 0.000004 -0.000009 -0.814599
 12 16.782913 0.000650 -0.000234 0.247999 -0.027671 0.391748
 13 5.168527 5.004116 -0.000135 -0.131345 0.176908 1.217141
 14 17.182070 0.000099 0.000206 -0.000001 -0.000007 -1.132104
 15 16.782906 0.000656 -0.000113 -0.013249 -0.007879 0.774253
 16 5.168479 5.004167 -0.000064 0.133822 -0.131124 1.654700
 17 -2.588017 -0.249382 2.906868 -1.930441 -1.172154 5.027970
 18 5.760273 0.000016 0.000006 -1.960518 -0.348329 0.047804
time 8
  0 16.533489 -16.533489 -2.334166 0.238954 -0.107720 -1.913417
  1 0.000000 0.000000 0.000000 -1.264519 -1.813075 -0.280680
  2 4.359985 1.015554 -0.316410 -0.208440 -0.072209 0.018775
  3 5.037136 -0.005101 -0.000238 -0.000447 0.031008 0.121316
  4 6.388059 -0.005253 -0.000001 0.132418 0.009764 0.362899
  5 6.146608 1.394838 0.000001 -0.055009 0.032766 0.170232
  6 -2.439571 0.375651 -3.016234 -1.847916 1.003801 1.086756
  7 5.760270 -0.000012 -0.000009 1.049122 0.116550 -0.697764
  8 10.965153 0.000065 -0.000006 0.000013 0.000002 -0.384890
  9 0.000007 -0.000004 -4.044200 -0.154502 2.879518 -0.941320
 10 -0.000007 0.000007 4.044200 -0.280407 -2.888110 -0.692318
 11 17.182070 0.000091 0.000546 0.000004 -0.000009 -0.609031
 12 16.782913 0.000650 -0.000234 0.209054 0.055053 0.387876
 13 5.168527 5.004116 -0.000135 0.057552 0.159632 1.424580
 14 17.182070 0.000099 0.000206 -0.000001 -0.000007 -0.978190
 15 16.782906 0.000656 -0.000113 0.073179 -0.036437 0.683141
 16 5.168479 5.004167 -0.000064 0.105790 -0.154590 1.850941
 17 -2.638800 0.047502 2.883430 -1.944372 -1.248916 4.938787
 18 5.760273 0.000016 0.000006 -1.986241 -0.219262 0.040261
time 9
  0 18.658554 -18.658554 -5.463168 0.248994 -0.333191 -1.909285
  1 0.000000 0.000000 0.000000 -1.211465 -1.825434 -0.335528
  2 4.344360 1.046805 -0.390631 -0.188877 -0.053973 0.045925
  3 5.037136 -0.005101 -0.000238 0.032697 0.018863 0.189304
  4 6.388059 -0.005253 -0.000001 0.124855 -0.012885 0.333957
  5 6.146608 1.394838 0.000001 -0.043788 0.058529 0.249706
  6 -2.341912 0.543625 -3.074830 -1.879442 1.046649 0.989656
  7 5.760270 -0.000012 -0.000009 1.075193 0.178162 -0.540967
  8 10.965153 0.000065 -0.000006 0.000013 0.000002 -0.461349
  9 0.000007 -0.000004 -4.044200 -0.066560 2.852768 -0.718617
 10 -0.000007 0.000007 4.044200 -0.268714 -2.889212 -0.596355
 11 17.182070 0.000091 0.000546 0.000004 -0.000009 -0.406833
 12 16.782913 0.000650 -0.000234 0.177099 0.142374 0.376158
 13 5.168527 5.004116 -0.000135 0.204592 0.118158 1.586981
 14 17.182070 0.000099 0.000206 -0.000001 -0.000007 -0.826263
 15 16.782906 0.000656 -0.000113 0.145783 -0.052166 0.555036
 16 5.168479 5.004167 -0.000064 0.079977 -0.169307 2.010644
 17 -2.689583 0.281884 2.820928 -1.909131 -1.322440 4.818297
 18 5.760273 0.000016 0.000006 -1.905474 -0.110086 -0.013615
time 10
  0 20.787525 -20.787525 -9.846114 0.256548 -0.572102 -1.904403
  1 0.000000 0.000000 0.000000 -1.142321 -1.823358 -0.407216
  2 4.344360 1.003835 -0.464852 -0.166909 -0.036936 0.055919
  3 5.037136 -0.005101 -0.000238 0.031677 0.011957 0.171778
  4 6.388059 -0.005253 -0.000001 0.117964 -0.032222 0.262966
  5 6.146608 1.394838 0.000001 -0.036983 0.089852 0.316000
  6 -2.213002 0.692067 -3.141238 -1.917635 1.101284 0.900092
  7 5.760270 -0.000012 -0.000009 1.045174 0.125088 -0.421942
  8 10.965153 0.000065 -0.000006 0.000013 0.000002 -0.563748
  9 0.000007 -0.000004 -4.044200 0.018062 2.837960 -0.536899
 10 -0.000007 0.000007 4.044200 -0.267276 -2.885905 -0.522949
 11 17.182070 0.000091 0.000546 0.000004 -0.000009 -0.263717
 12 16.782913 0.000650 -0.000234 0.162335 0.199692 0.367736
 13 5.168527 5.004116 -0.000135 0.258466 0.096256 1.646902
 14 17.182070 0.000099 0.000206 -0.000001 -0.000007 -0.682491
 15 16.782906 0.000656 -0.000113 0.189046 -0.049678 0.424335
 16 5.168479 5.004167 -0.000064 0.069524 -0.173826 2.071823
 17 -2.736460 0.469390 2.738894 1.350687 -1.751924 1.486960
 18 5.760273 0.000016 0.000006 -1.686251 -0.004118 -0.058511
time 11
  0 22.967278 -22.967279 -15.248623 0.261903 -0.817733 -1.898957
  1 0.000000 0.000000 0.000000 -0.997503 -1.794431 -0.557495
  2 4.375611 0.824142 -0.535167 -0.139059 -0.019243 0.038535
  3 5.037136 -0.005101 -0.000238 0.003940 0.005622 0.091129
  4 6.388059 -0.005253 -0.000001 0.111025 -0.051083 0.150506
  5 6.146608 1.394838 0.000001 -0.032358 0.124084 0.372609
  6 -2.076279 0.817070 -3.203740 -1.960590 1.164541 0.811768
  7 5.760270 -0.000012 -0.000009 0.932789 0.017208 -0.327945
  8 10.965153 0.000065 -0.000006 0.000013 0.000002 -0.684224
  9 0.000007 -0.000004 -4.044200 0.125262 2.820668 -0.393971
 10 -0.000007 0.000007 4.044200 -0.280119 -2.882322 -0.463115
 11 17.182070 0.000091 0.000546 0.000004 -0.000009 -0.180687
 12 16.782913 0.000650 -0.000234 0.158215 0.204084 0.373238
 13 5.168527 5.004116 -0.000135 0.183803 0.129670 1.599383
 14 17.182070 0.000099 0.000206 -0.000001 -0.000007 -0.545572
 15 16.782906 0.000656 -0.000113 0.154029 -0.038596 0.223108
 16 5.168479 5.004167 -0.000064 0.078646 -0.150959 1.936741
 17 -2.798962 0.629551 2.649048 -1.510418 -1.443367 4.285575
 18 5.760273 0.000016 0.000006 -1.365154 0.114298 -0.031214
time 12
  0 25.041559 -25.041561 -20.994892 0.265919 -1.063463 -1.893042
  1 0.000000 0.000000 0.000000 -0.695639 -1.754163 -0.866979
  2 4.410768 0.507726 -0.621107 -0.111274 0.000495 -0.006617
  3 5.037136 -0.005101 -0.000238 -0.032639 -0.003406 -0.012636
  4 6.388059 -0.005253 -0.000001 0.106459 -0.068498 0.024428
  5 6.146608 1.394838 0.000001 -0.027865 0.158217 0.423382
  6 -1.927837 0.926449 -3.270148 -2.009260 1.233125 0.719056
  7 5.760270 -0.000012 -0.000009 0.757030 -0.061715 -0.226710
  8 10.965153 0.000065 -0.000006 0.000013 0.000002 -0.814978
  9 0.000007 -0.000004 -4.044200 0.252005 2.816368 -0.274260
 10 -0.000007 0.000007 4.044200 -0.306860 -2.883792 -0.391811
 11 17.182070 0.000091 0.000546 0.000004 -0.000009 -0.127915
 12 16.782913 0.000650 -0.000234 0.155027 0.175619 0.384581
 13 5.168527 5.004116 -0.000135 -0.003818 0.194736 1.474482
 14 17.182070 0.000099 0.000206 -0.000001 -0.000007 -0.419686
 15 16.782906 0.000656 -0.000113 0.056492 -0.063248 -0.038296
 16 5.168479 5.004167 -0.000064 0.087151 -0.102457 1.668396
 17 -2.841932 0.766274 2.563108 -0.983105 -1.469520 3.701052
 18 5.760273 0.000016 0.000006 -1.003266 0.225372 0.094496
time 13
  0 27.033808 -27.033810 -26.385681 0.274429 -1.302374 -1.892291
  1 0.000000 0.000000 0.000000 -0.279577 -1.737095 -1.290392
  2 4.434206 0.191310 -0.707047 -0.091158 0.018699 -0.057532
  3 5.037136 -0.005101 -0.000238 -0.061294 -0.014365 -0.099781
  4 6.388059 -0.005253 -0.000001 0.105321 -0.082125 -0.087381
  5 6.146608 1.394838 0.000001 -0.021496 0.188947 0.472011
  6 -1.779395 1.028014 -3.320931 -2.066598 1.303344 0.614612
  7 5.760270 -0.000012 -0.000009 0.580931 -0.057072 -0.112986
  8 10.965153 0.000065 -0.000006 0.000013 0.000002 -0.948084
  9 0.000007 -0.000004 -4.044200 0.330080 2.834138 -0.215694
 10 -0.000007 0.000007 4.044200 -0.340980 -2.887926 -0.325383
 11 17.182070 0.000091 0.000546 0.000004 -0.000009 -0.116657
 12 16.782913 0.000650 -0.000234 0.159147 0.139464 0.387502
 13 5.168527 5.004116 -0.000135 -0.200478 0.235053 1.337799
 14 17.182070 0.000099 0.000206 -0.000001 -0.000007 -0.318881
 15 16.782906 0.000656 -0.000113 -0.009070 -0.109590 -0.213142
 16 5.168479 5.004167 -0.000064 0.086449 -0.077901 1.534892
 17 -2.880995 0.902997 2.481074 -0.429132 -1.457261 3.092620
 18 5.760273 0.000016 0.000006 -0.666761 0.295693 0.288225
time 14
  0 28.787767 -28.787769 -30.795973 0.400647 -1.527647 -2.009935
  1 0.000000 0.000000 0.000000 -0.000424 -1.745072 -1.570796
  2 4.422487 -0.004008 -0.769549 -0.085471 0.031454 -0.091714
  3 5.037136 -0.005101 -0.000238 -0.066175 -0.021550 -0.130693
  4 6.388059 -0.005253 -0.000001 0.107226 -0.090119 -0.157088
  5 6.146608 1.394838 0.000001 -0.011355 0.212692 0.522387
  6 -1.650485 1.113954 -3.363901 -2.139079 1.372112 0.489088
  7 5.760270 -0.000012 -0.000009 0.495094 0.032080 0.002012
  8 10.965153 0.000065 -0.000006 0.000013 0.000002 -1.075927
  9 0.000007 -0.000004 -4.044200 0.318127 2.856685 -0.236044
 10 -0.000007 0.000007 4.044200 -0.377018 -2.888477 -0.277496
 11 17.182070 0.000091 0.000546 0.000004 -0.000009 -0.157886
 12 16.782913 0.000650 -0.000234 0.173886 0.123083 0.366445
 13 5.168527 5.004116 -0.000135 -0.283702 0.243807 1.278988
 14 17.182070 0.000099 0.000206 -0.000001 -0.000007 -0.248435
 15 16.782906 0.000656 -0.000113 -0.009932 -0.128156 -0.256722
 16 5.168479 5.004167 -0.000064 0.103534 -0.086194 1.421376
 17 -2.884902 1.043626 2.410759 -0.102283 -1.423532 2.710465
 18 5.760273 0.000016 0.000006 -0.429824 0.339266 0.474815
time 15
  0 29.846394 -29.846395 -31.823347 0.400647 -1.527647 -2.009935
  1 0.000000 0.000000 0.000000 -0.030123 -1.750761 -1.528832
  2 4.422487 0.011617 -0.800800 -0.119366 0.034506 -0.096858
  3 5.037136 -0.005101 -0.000238 -0.011637 -0.018360 -0.031280
  4 6.388059 -0.005253 -0.000001 0.115903 -0.080374 -0.131788
  5 6.146608 1.394838 0.000001 -0.005062 0.212395 0.540529
  6 -1.630953 1.137393 -3.363901 -2.197845 1.447947 0.406200
  7 5.760270 -0.000012 -0.000009 0.640902 0.161638 0.158962
  8 10.965153 0.000065 -0.000006 0.000013 0.000002 -1.190584
  9 0.000007 -0.000004 -4.044200 0.267942 2.869964 -0.261648
 10 -0.000007 0.000007 4.044200 -0.422257 -2.875707 -0.260196
 11 17.182070 0.000091 0.000546 0.000004 -0.000009 -0.314768
 12 16.782913 0.000650 -0.000234 0.208490 0.157718 0.291047
 13 5.168527 5.004116 -0.000135 -0.205490 0.269143 1.346970
 14 17.182070 0.000099 0.000206 -0.000001 -0.000007 -0.203206
 15 16.782906 0.000656 -0.000113 0.011863 -0.135825 -0.223604
 16 5.168479 5.004167 -0.000064 0.140023 -0.096896 1.193676
 17 -2.869276 1.102221 2.410759 0.114233 -1.397599 2.473468
 18 5.760273 0.000016 0.000006 -0.394056 0.458704 0.542070
time 16
  0 30.205780 -30.205782 -31.073324 0.400647 -1.527647 -2.009935
  1 0.000000 0.000000 0.000000 -0.221098 -1.755105 -1.318276
  2 4.410768 0.171779 -0.800800 -0.178348 0.029504 -0.088296
  3 5.037136 -0.005101 -0.000238 0.077184 -0.021067 0.150294
  4 6.388059 -0.005253 -0.000001 0.129482 -0.058848 -0.040687
  5 6.146608 1.394838 0.000001 -0.005195 0.202679 0.532391
  6 -1.673923 1.113954 -3.352182 -2.243086 1.511389 0.362897
  7 5.760270 -0.000012 -0.000009 0.954367 0.215302 0.361127
  8 10.965153 0.000065 -0.000006 0.000013 0.000002 -1.284192
  9 0.000007 -0.000004 -4.044200 0.238249 2.875123 -0.248368
 10 -0.000007 0.000007 4.044200 -0.472479 -2.851637 -0.265740
 11 17.182070 0.000091 0.000546 0.000004 -0.000009 -0.558912
 12 16.782913 0.000650 -0.000234 0.236546 0.249579 0.186814
 13 5.168527 5.004116 -0.000135 -0.043097 0.303642 1.489430
 14 17.182070 0.000099 0.000206 -0.000001 -0.000007 -0.182237
 15 16.782906 0.000656 -0.000113 0.023882 -0.142980 -0.131891
 16 5.168479 5.004167 -0.000064 0.158957 -0.099150 1.079674
 17 -2.853651 1.082690 2.438104 -0.007540 -1.341175 2.605818
 18 5.760273 0.000016 0.000006 -0.547851 0.564282 0.389871
time 17
  0 30.264376 -30.264378 -31.135826 0.400647 -1.527647 -2.009935
  1 0.000000 0.000000 0.000000 -0.332263 -1.760064 -1.196709
  2 4.406862 0.265531 -0.792987 -0.209415 0.024469 -0.085464
  3 5.037136 -0.005101 -0.000238 0.123440 -0.029685 0.267747
  4 6.388059 -0.005253 -0.000001 0.136612 -0.048457 0.020751
  5 6.146608 1.394838 0.000001 -0.011355 0.212692 0.522387
  6 -1.650485 1.113954 -3.363901 -2.072789 1.487051 0.545841
  7 5.760270 -0.000012 -0.000009 1.263545 0.172575 0.485963
  8 10.965153 0.000065 -0.000006 0.000013 0.000002 -1.334463
  9 0.000007 -0.000004 -4.044200 0.266424 2.873785 -0.217318
 10 -0.000007 0.000007 4.044200 -0.509571 -2.828211 -0.282753
 11 17.182070 0.000091 0.000546 0.000004 -0.000009 -0.761540
 12 16.782913 0.000650 -0.000234 0.224897 0.334861 0.110804
 13 5.168527 5.004116 -0.000135 0.040099 0.312378 1.562928
 14 17.182070 0.000099 0.000206 -0.000001 -0.000007 -0.207249
 15 16.782906 0.000656 -0.000113 -0.004694 -0.130253 0.150512
 16 5.168479 5.004167 -0.000064 0.086930 -0.143493 1.458378
 17 -2.884902 1.043626 2.410759 -0.285587 -1.226252 2.893763
 18 5.760273 0.000016 0.000006 -0.675924 0.523627 0.195873
time 18
  0 30.096401 -30.096403 -31.198328 0.400647 -1.527647 -2.009935
  1 0.000000 0.000000 0.000000 -0.263302 -1.754855 -1.274103
  2 4.410768 0.203030 -0.789081 -0.189624 0.023782 -0.102425
  3 5.037136 -0.005101 -0.000238 0.098952 -0.026700 0.269983
  4 6.388059 -0.005253 -0.000001 0.130392 -0.056298 0.018798
  5 6.146608 1.394838 0.000001 -0.027979 0.272231 0.521593
  6 -1.451260 1.168644 -3.438122 -2.069265 1.357056 0.560816
  7 5.760270 -0.000012 -0.000009 1.479329 0.143697 0.491417
  8 10.965153 0.000065 -0.000006 0.000013 0.000002 -1.336568
  9 0.000007 -0.000004 -4.044200 0.282362 2.876843 -0.220280
 10 -0.000007 0.000007 4.044200 -0.499699 -2.812777 -0.322324
 11 17.182070 0.000091 0.000546 0.000004 -0.000009 -0.807071
 12 16.782913 0.000650 -0.000234 0.196694 0.318015 0.083803
 13 5.168527 5.004116 -0.000135 -0.126653 0.288643 1.458620
 14 17.182070 0.000099 0.000206 -0.000001 -0.000007 -0.271871
 15 16.782906 0.000656 -0.000113 -0.016941 -0.102847 0.362766
 16 5.168479 5.004167 -0.000064 0.003080 -0.158222 1.840866
 17 -3.029437 1.008469 2.250598 -0.465479 -1.098881 3.064917
 18 5.760273 0.000016 0.000006 -0.665947 0.449853 0.163772
time 19
  0 30.014368 -30.014370 -31.256924 0.400647 -1.527647 -2.009935
  1 0.000000 0.000000 0.000000 -0.115450 -1.747532 -1.439474
  2 4.422487 0.074119 -0.781268 -0.146306 0.024357 -0.127850
  3 5.037136 -0.005101 -0.000238 0.042220 -0.018799 0.224839
  4 6.388059 -0.005253 -0.000001 0.118048 -0.072095 -0.005323
  5 6.146608 1.394838 0.000001 -0.044337 0.332246 0.521633
  6 -1.240316 1.223333 -3.492811 -2.100886 1.255327 0.535635
  7 5.760270 -0.000012 -0.000009 1.573675 0.155186 0.437436
  8 10.965153 0.000065 -0.000006 0.000013 0.000002 -1.309513
  9 0.000007 -0.000004 -4.044200 0.220888 2.892033 -0.242063
 10 -0.000007 0.000007 4.044200 -0.484556 -2.805427 -0.358932
 11 17.182070 0.000091 0.000546 0.000004 -0.000009 -0.854752
 12 16.782913 0.000650 -0.000234 0.176731 0.271835 0.156688
 13 5.168527 5.004116 -0.000135 -0.283702 0.243807 1.278988
 14 17.182070 0.000099 0.000206 -0.000001 -0.000007 -0.378501
 15 16.782906 0.000656 -0.000113 0.041464 -0.094767 0.096997
 16 5.168479 5.004167 -0.000064 -0.089940 -0.147879 1.730546
 17 -3.146628 0.977218 2.078718 -0.568524 -1.036264 3.163587
 18 5.760273 0.000016 0.000006 -0.628686 0.430498 0.210689
time 20
  0 30.014368 -30.014370 -31.260830 0.400647 -1.527647 -2.009935
  1 0.000000 0.000000 0.000000 -0.000424 -1.745072 -1.570796
  2 4.422487 -0.004008 -0.769549 -0.102142 0.025460 -0.143541
  3 5.037136 -0.005101 -0.000238 -0.019953 -0.013253 0.166097
  4 6.388059 -0.005253 -0.000001 0.105381 -0.089224 -0.035004
  5 6.146608 1.394838 0.000001 -0.056203 0.374848 0.520998
  6 -1.084061 1.266303 -3.531875 -2.151937 1.229908 0.481839
  7 5.760270 -0.000012 -0.000009 1.551893 0.200588 0.345682
  8 10.965153 0.000065 -0.000006 0.000013 0.000002 -1.253856
  9 0.000007 -0.000004 -4.044200 0.165296 2.907128 -0.253814
 10 -0.000007 0.000007 4.044200 -0.495098 -2.801477 -0.377474
 11 17.182070 0.000091 0.000546 0.000004 -0.000009 -0.856975
 12 16.782913 0.000650 -0.000234 0.172439 0.265960 0.158047
 13 5.168527 5.004116 -0.000135 -0.283702 0.243807 1.278988
 14 17.182070 0.000099 0.000206 -0.000001 -0.000007 -0.458679
 15 16.782906 0.000656 -0.000113 0.088630 -0.058930 -0.214647
 16 5.168479 5.004167 -0.000064 -0.183491 -0.147687 1.619862
 17 -3.240381 0.957686 1.953714 -0.657271 -1.009859 3.255710
 18 5.760273 0.000016 0.000006 -0.595633 0.426024 0.261781
time 21
  0 30.029993 -30.029995 -31.260830 0.400647 -1.527647 -2.009935
  1 0.000000 0.000000 0.000000 -3.121675 -1.396751 1.541071
  2 4.422487 -0.011821 -0.769549 -0.072960 0.026659 -0.143964
  3 5.037136 -0.005101 -0.000238 -0.060444 -0.011585 0.128387
  4 6.388059 -0.005253 -0.000001 0.097459 -0.100701 -0.053970
  5 6.146608 1.394838 0.000001 -0.066174 0.410465 0.520283
  6 -0.955151 1.305367 -3.555313 -2.216703 1.231965 0.408680
  7 5.760270 -0.000012 -0.000009 1.520104 0.260823 0.244803
  8 10.965153 0.000065 -0.000006 0.000013 0.000002 -1.173002
  9 0.000007 -0.000004 -4.044200 0.161691 2.909420 -0.284291
 10 -0.000007 0.000007 4.044200 -0.505066 -2.799915 -0.376041
 11 17.182070 0.000091 0.000546 0.000004 -0.000009 -0.850737
 12 16.782913 0.000650 -0.000234 0.171875 0.265201 0.155228
 13 5.168527 5.004116 -0.000135 -0.283702 0.243807 1.278988
 14 17.182070 0.000099 0.000206 -0.000001 -0.000007 -0.462516
 15 16.782906 0.000656 -0.000113 0.094843 -0.077640 -0.288146
 16 5.168479 5.004167 -0.000064 -0.093737 -0.143481 1.639911
 17 -3.306789 0.945967 1.848242 -0.738545 -1.000052 3.345366
 18 5.760273 0.000016 0.000006 -0.589864 0.449513 0.282119
time 22
  0 30.033899 -30.033901 -31.260830 0.400647 -1.527647 -2.009935
  1 0.000000 0.000000 0.000000 -3.144018 -1.396655 1.555427
  2 4.422487 -0.004008 -0.769549 -0.058661 0.027826 -0.140220
  3 5.037136 -0.005101 -0.000238 -0.073606 -0.011293 0.118385
  4 6.388059 -0.005253 -0.000001 0.094738 -0.104469 -0.059213
  5 6.146608 1.394838 0.000001 -0.072656 0.433260 0.519648
  6 -0.880930 1.324898 -3.567032 -2.282136 1.248893 0.333042
  7 5.760270 -0.000012 -0.000009 1.506490 0.320113 0.167781
  8 10.965153 0.000065 -0.000006 0.000013 0.000002 -1.093200
  9 0.000007 -0.000004 -4.044200 0.190531 2.919261 -0.253241
 10 -0.000007 0.000007 4.044200 -0.515801 -2.799639 -0.365909
 11 17.182070 0.000091 0.000546 0.000004 -0.000009 -0.839623
 12 16.782913 0.000650 -0.000234 0.173543 0.267332 0.150032
 13 5.168527 5.004116 -0.000135 -0.283702 0.243807 1.278988
 14 17.182070 0.000099 0.000206 -0.000001 -0.000007 -0.406734
 15 16.782906 0.000656 -0.000113 0.090110 -0.120796 -0.258603
 16 5.168479 5.004167 -0.000064 0.074294 -0.120734 1.518404
 17 -3.345853 0.938154 1.781834 -0.807273 -1.005239 3.424682
 18 5.760273 0.000016 0.000006 -0.608528 0.494934 0.273499
time 23
  0 30.033899 -30.033901 -31.256924 0.400647 -1.527647 -2.009935
  1 0.000000 0.000000 0.000000 -0.022767 -1.745072 -1.570796
  2 4.422487 -0.000102 -0.769549 -0.052844 0.028609 -0.137421
  3 5.037136 -0.005101 -0.000238 -0.075273 -0.011263 0.117146
  4 6.388059 -0.005253 -0.000001 0.094487 -0.105002 -0.059864
  5 6.146608 1.394838 0.000001 -0.075007 0.441947 0.519291
  6 -0.849679 1.336617 -3.574845 -2.328139 1.265268 0.280772
  7 5.760270 -0.000012 -0.000009 1.505060 0.360440 0.125268
  8 10.965153 0.000065 -0.000006 0.000013 0.000002 -1.039339
  9 0.000007 -0.000004 -4.044200 0.213488 2.928337 -0.221235
 10 -0.000007 0.000007 4.044200 -0.524714 -2.800833 -0.355586
 11 17.182070 0.000091 0.000546 0.000004 -0.000009 -0.827147
 12 16.782913 0.000650 -0.000234 0.175701 0.270186 0.144020
 13 5.168527 5.004116 -0.000135 -0.283702 0.243807 1.278988
 14 17.182070 0.000099 0.000206 -0.000001 -0.000007 -0.352803
 15 16.782906 0.000656 -0.000113 0.082840 -0.150587 -0.231808
 16 5.168479 5.004167 -0.000064 0.158957 -0.099150 1.436913
 17 -3.361479 0.934247 1.750583 -0.855890 -1.020704 3.481891
 18 5.760273 0.000016 0.000006 -0.621899 0.533985 0.270446
time 24
  0 30.033899 -30.033901 -31.256924 0.400647 -1.527647 -2.009935
  1 0.000000 0.000000 0.000000 -0.024514 -1.745072 -1.570796
  2 4.422487 -0.000102 -0.769549 -0.053494 0.028912 -0.137746
  3 5.037136 -0.005101 -0.000238 -0.070290 -0.011337 0.120893
  4 6.388059 -0.005253 -0.000001 0.095397 -0.103594 -0.057929
  5 6.146608 1.394838 0.000001 -0.074779 0.441987 0.519251
  6 -0.849679 1.336617 -3.574845 -2.344902 1.273363 0.261791
  7 5.760270 -0.000012 -0.000009 1.520921 0.379483 0.126186
  8 10.965153 0.000065 -0.000006 0.000013 0.000002 -1.009374
  9 0.000007 -0.000004 -4.044200 0.217757 2.930439 -0.218560
 10 -0.000007 0.000007 4.044200 -0.528548 -2.802671 -0.350329
 11 17.182070 0.000091 0.000546 0.000004 -0.000009 -0.817252
 12 16.782913 0.000650 -0.000234 0.176780 0.271613 0.139265
 13 5.168527 5.004116 -0.000135 -0.283702 0.243807 1.278988
 14 17.182070 0.000099 0.000206 -0.000001 -0.000007 -0.343894
 15 16.782906 0.000656 -0.000113 0.082092 -0.157886 -0.233088
 16 5.168479 5.004167 -0.000064 0.161952 -0.095135 1.432685
 17 -3.361479 0.934247 1.750583 -0.826184 -1.063643 3.447737
 18 5.760273 0.000016 0.000006 -0.575475 0.535833 0.365268
time 25
  0 30.033899 -30.033901 -31.256924 0.400647 -1.527647 -2.009935
  1 0.000000 0.000000 0.000000 -0.024330 -1.745072 -1.570796
  2 4.422487 -0.000102 -0.769549 -0.056939 0.028912 -0.138235
  3 5.037136 -0.005101 -0.000238 -0.063743 -0.011497 0.125879
  4 6.388059 -0.005253 -0.000001 0.096800 -0.101576 -0.055272
  5 6.146608 1.394838 0.000001 -0.073490 0.437673 0.519410
  6 -0.857492 1.328805 -3.567032 -2.347188 1.278900 0.259311
  7 5.760270 -0.000012 -0.000009 1.530655 0.385699 0.139796
  8 10.965153 0.000065 -0.000006 0.000013 0.000002 -0.999221
  9 0.000007 -0.000004 -4.044200 0.217093 2.930343 -0.218369
 10 -0.000007 0.000007 4.044200 -0.528548 -2.802763 -0.350329
 11 17.182070 0.000091 0.000546 0.000004 -0.000009 -0.817252
 12 16.782913 0.000650 -0.000234 0.176780 0.271613 0.139265
 13 5.168527 5.004116 -0.000135 -0.283702 0.243807 1.278988
 14 17.182070 0.000099 0.000206 -0.000001 -0.000007 -0.344031
 15 16.782906 0.000656 -0.000113 0.082157 -0.157085 -0.233389
 16 5.168479 5.004167 -0.000064 0.161620 -0.095506 1.433150
 17 -3.349760 0.938154 1.762302 -0.762623 -1.106016 3.375726
 18 5.760273 0.000016 0.000006 -0.528440 0.519882 0.449314
time 26
  0 30.033899 -30.033901 -31.256924 0.400647 -1.527647 -2.009935
  1 0.000000 0.000000 0.000000 -0.023319 -1.745072 -1.570796
  2 4.422487 -0.000102 -0.769549 -0.059539 0.028752 -0.138528
  3 5.037136 -0.005101 -0.000238 -0.060444 -0.011585 0.128387
  4 6.388059 -0.005253 -0.000001 0.097459 -0.100701 -0.053970
  5 6.146608 1.394838 0.000001 -0.072656 0.433260 0.519648
  6 -0.880930 1.324898 -3.567032 -2.339378 1.280324 0.268086
  7 5.760270 -0.000012 -0.000009 1.528612 0.381410 0.152081
  8 10.965153 0.000065 -0.000006 0.000013 0.000002 -1.005165
  9 0.000007 -0.000004 -4.044200 0.215101 2.929388 -0.219706
 10 -0.000007 0.000007 4.044200 -0.527302 -2.803130 -0.350712
 11 17.182070 0.000091 0.000546 0.000004 -0.000009 -0.817252
 12 16.782913 0.000650 -0.000234 0.176780 0.271613 0.139265
 13 5.168527 5.004116 -0.000135 -0.283702 0.243807 1.278988
 14 17.182070 0.000099 0.000206 -0.000001 -0.000007 -0.348143
 15 16.782906 0.000656 -0.000113 0.082596 -0.153075 -0.233050
 16 5.168479 5.004167 -0.000064 0.159955 -0.097735 1.435497
 17 -3.345853 0.938154 1.781834 -0.752752 -1.117773 3.364531
 18 5.760273 0.000016 0.000006 -0.523011 0.518764 0.459730
time 27
  0 30.033899 -30.033901 -31.256924 0.400647 -1.527647 -2.009935
  1 0.000000 0.000000 0.000000 -0.022767 -1.745072 -1.570796
  2 4.422487 -0.000102 -0.769549 -0.060156 0.028673 -0.138560
  3 5.037136 -0.005101 -0.000238 -0.060444 -0.011585 0.128387
  4 6.388059 -0.005253 -0.000001 0.097459 -0.100701 -0.053970
  5 6.146608 1.394838 0.000001 -0.072524 0.429362 0.520045
  6 -0.888743 1.324898 -3.567032 -2.327377 1.280034 0.280772
  7 5.760270 -0.000012 -0.000009 1.519559 0.373227 0.159064
  8 10.965153 0.000065 -0.000006 0.000013 0.000002 -1.016184
  9 0.000007 -0.000004 -4.044200 0.213963 2.928719 -0.220566
 10 -0.000007 0.000007 4.044200 -0.527015 -2.803314 -0.350998
 11 17.182070 0.000091 0.000546 0.000004 -0.000009 -0.817252
 12 16.782913 0.000650 -0.000234 0.176780 0.271613 0.139265
 13 5.168527 5.004116 -0.000135 -0.283702 0.243807 1.278988
 14 17.182070 0.000099 0.000206 -0.000001 -0.000007 -0.351295
 15 16.782906 0.000656 -0.000113 0.082840 -0.150629 -0.232523
 16 5.168479 5.004167 -0.000064 0.158957 -0.099150 1.436913
 17 -3.338040 0.938154 1.793553 -0.755704 -1.120790 3.367662
 18 5.760273 0.000016 0.000006 -0.523689 0.519201 0.458293
time 28
  0 30.033899 -30.033901 -31.256924 0.400647 -1.527647 -2.009935
  1 0.000000 0.000000 0.000000 -0.022767 -1.745072 -1.570796
  2 4.422487 -0.000102 -0.769549 -0.060156 0.028673 -0.138560
  3 5.037136 -0.005101 -0.000238 -0.060444 -0.011585 0.128387
  4 6.388059 -0.005253 -0.000001 0.097459 -0.100701 -0.053970
  5 6.146608 1.394838 0.000001 -0.072353 0.424099 0.520442
  6 -0.912181 1.324898 -3.563126 -2.317948 1.282935 0.290406
  7 5.760270 -0.000012 -0.000009 1.512820 0.369411 0.164060
  8 10.965153 0.000065 -0.000006 0.000013 0.000002 -1.020394
  9 0.000007 -0.000004 -4.044200 0.213868 2.928337 -0.221235
 10 -0.000007 0.000007 4.044200 -0.527015 -2.803314 -0.350998
 11 17.182070 0.000091 0.000546 0.000004 -0.000009 -0.817252
 12 16.782913 0.000650 -0.000234 0.176780 0.271613 0.139265
 13 5.168527 5.004116 -0.000135 -0.283702 0.243807 1.278988
 14 17.182070 0.000099 0.000206 -0.000001 -0.000007 -0.352323
 15 16.782906 0.000656 -0.000113 0.082840 -0.150587 -0.232034
 16 5.168479 5.004167 -0.000064 0.158957 -0.099150 1.436913
 17 -3.326321 0.938154 1.813085 -0.764560 -1.121859 3.376960
 18 5.760273 0.000016 0.000006 -0.528440 0.521195 0.449808
time 29
  0 30.033899 -30.033901 -31.256924 0.400647 -1.527647 -2.009935
  1 0.000000 0.000000 0.000000 -0.022767 -1.745072 -1.570796
  2 4.422487 -0.000102 -0.769549 -0.060156 0.028673 -0.138560
  3 5.037136 -0.005101 -0.000238 -0.060444 -0.011585 0.128387
  4 6.388059 -0.005253 -0.000001 0.097459 -0.100701 -0.053970
  5 6.146608 1.394838 0.000001 -0.072164 0.418064 0.520958
  6 -0.931713 1.324898 -3.555313 -2.312043 1.288736 0.296415
  7 5.760270 -0.000012 -0.000009 1.512820 0.369529 0.164060
  8 10.965153 0.000065 -0.000006 0.000013 0.000002 -1.020270
  9 0.000007 -0.000004 -4.044200 0.213488 2.928337 -0.221235
 10 -0.000007 0.000007 4.044200 -0.527015 -2.803314 -0.350998
 11 17.182070 0.000091 0.000546 0.000004 -0.000009 -0.817252
 12 16.782913 0.000650 -0.000234 0.176780 0.271613 0.139265
 13 5.168527 5.004116 -0.000135 -0.283702 0.243807 1.278988
 14 17.182070 0.000099 0.000206 -0.000001 -0.000007 -0.352803
 15 16.782906 0.000656 -0.000113 0.082840 -0.150587 -0.231808
 16 5.168479 5.004167 -0.000064 0.158957 -0.099150 1.436913
 17 -3.314602 0.938154 1.836523 -0.771479 -1.125254 3.383886
 18 5.760273 0.000016 0.000006 -0.531087 0.522362 0.444869
time 30
  0 30.033899 -30.033901 -31.256924 0.400647 -1.527647 -2.009935
  1 0.000000 0.000000 0.000000 -0.022767 -1.745072 -1.570796
  2 4.422487 -0.000102 -0.769549 -0.060156 0.028673 -0.138560
  3 5.037136 -0.005101 -0.000238 -0.060444 -0.011585 0.128387
  4 6.388059 -0.005253 -0.000001 0.097459 -0.100701 -0.053970
  5 6.146608 1.394838 0.000001 -0.071974 0.411831 0.521355
  6 -0.955151 1.324898 -3.543594 -2.305090 1.294748 0.302901
  7 5.760270 -0.000012 -0.000009 1.512820 0.369529 0.164060
  8 10.965153 0.000065 -0.000006 0.000013 0.000002 -1.020270
  9 0.000007 -0.000004 -4.044200 0.213488 2.928337 -0.221235
 10 -0.000007 0.000007 4.044200 -0.527015 -2.803314 -0.350998
 11 17.182070 0.000091 0.000546 0.000004 -0.000009 -0.817252
 12 16.782913 0.000650 -0.000234 0.176780 0.271613 0.139265
 13 5.168527 5.004116 -0.000135 -0.283702 0.243807 1.278988
 14 17.182070 0.000099 0.000206 -0.000001 -0.000007 -0.352803
 15 16.782906 0.000656 -0.000113 0.082840 -0.150587 -0.231808
 16 5.168479 5.004167 -0.000064 0.158957 -0.099150 1.436913
 17 -3.306789 0.938154 1.848242 -0.775077 -1.131321 3.387017
 18 5.760273 0.000016 0.000006 -0.531087 0.522362 0.444869
time 31
  0 30.033899 -30.033901 -31.256924 0.400647 -1.527647 -2.009935
  1 0.000000 0.000000 0.000000 -0.022767 -1.745072 -1.570796
  2 4.422487 -0.000102 -0.769549 -0.060156 0.028673 -0.138560
  3 5.037136 -0.005101 -0.000238 -0.060444 -0.011585 0.128387
  4 6.388059 -0.005253 -0.000001 0.097459 -0.100701 -0.053970
  5 6.146608 1.394838 0.000001 -0.071784 0.405994 0.521871
  6 -0.974683 1.324898 -3.543594 -2.298804 1.300338 0.309387
  7 5.760270 -0.000012 -0.000009 1.512820 0.369529 0.164060
  8 10.965153 0.000065 -0.000006 0.000013 0.000002 -1.020270
  9 0.000007 -0.000004 -4.044200 0.213488 2.928337 -0.221235
 10 -0.000007 0.000007 4.044200 -0.527015 -2.803314 -0.350998
 11 17.182070 0.000091 0.000546 0.000004 -0.000009 -0.817252
 12 16.782913 0.000650 -0.000234 0.176780 0.271613 0.139265
 13 5.168527 5.004116 -0.000135 -0.283702 0.243807 1.278988
 14 17.182070 0.000099 0.000206 -0.000001 -0.000007 -0.352803
 15 16.782906 0.000656 -0.000113 0.082840 -0.150587 -0.231808
 16 5.168479 5.004167 -0.000064 0.158957 -0.099150 1.436913
 17 -3.295070 0.938154 1.867774 -0.778398 -1.137010 3.390147
 18 5.760273 0.000016 0.000006 -0.531087 0.522362 0.444869
time 32
  0 30.033899 -30.033901 -31.256924 0.400647 -1.527647 -2.009935
  1 0.000000 0.000000 0.000000 -0.022767 -1.745072 -1.570796
  2 4.422487 -0.000102 -0.769549 -0.060156 0.028673 -0.138560
  3 5.037136 -0.005101 -0.000238 -0.060444 -0.011585 0.128387
  4 6.388059 -0.005253 -0.000001 0.097459 -0.100701 -0.053970
  5 6.146608 1.394838 0.000001 -0.071784 0.405994 0.521871
  6 -0.974683 1.324898 -3.543594 -2.298804 1.300338 0.309387
  7 5.760270 -0.000012 -0.000009 1.512820 0.369529 0.164060
  8 10.965153 0.000065 -0.000006 0.000013 0.000002 -1.020270
  9 0.000007 -0.000004 -4.044200 0.213488 2.928337 -0.221235
 10 -0.000007 0.000007 4.044200 -0.527015 -2.803314 -0.350998
 11 17.182070 0.000091 0.000546 0.000004 -0.000009 -0.817252
 12 16.782913 0.000650 -0.000234 0.176780 0.271613 0.139265
 13 5.168527 5.004116 -0.000135 -0.283702 0.243807 1.278988
 14 17.182070 0.000099 0.000206 -0.000001 -0.000007 -0.352803
 15 16.782906 0.000656 -0.000113 0.082840 -0.150587 -0.231808
 16 5.168479 5.004167 -0.000064 0.158957 -0.099150 1.436913
 17 -3.295070 0.938154 1.867774 -0.778398 -1.137010 3.390147
 18 5.760273 0.000016 0.000006 -0.531087 0.522362 0.444869
time 33
  0 30.033899 -30.033901 -31.256924 0.400647 -1.527647 -2.009935
  1 0.000000 0.000000 0.000000 -0.022767 -1.745072 -1.570796
  2 4.422487 -0.000102 -0.769549 -0.060156 0.028673 -0.138560
  3 5.037136 -0.005101 -0.000238 -0.060444 -0.011585 0.128387
  4 6.388059 -0.005253 -0.000001 0.097459 -0.100701 -0.053970
  5 6.146608 1.394838 0.000001 -0.071784 0.405994 0.521871
  6 -0.974683 1.324898 -3.543594 -2.298804 1.300338 0.309387
  7 5.760270 -0.000012 -0.000009 1.512820 0.369529 0.164060
  8 10.965153 0.000065 -0.000006 0.000013 0.000002 -1.020270
  9 0.000007 -0.000004 -4.044200 0.213488 2.928337 -0.221235
 10 -0.000007 0.000007 4.044200 -0.527015 -2.803314 -0.350998
 11 17.182070 0.000091 0.000546 0.000004 -0.000009 -0.817252
 12 16.782913 0.000650 -0.000234 0.176780 0.271613 0.139265
 13 5.168527 5.004116 -0.000135 -0.283702 0.243807 1.278988
 14 17.182070 0.000099 0.000206 -0.000001 -0.000007 -0.352803
 15 16.782906 0.000656 -0.000113 0.082840 -0.150587 -0.231808
 16 5.168479 5.004167 -0.000064 0.158957 -0.099150 1.436913
 17 -3.295070 0.938154 1.867774 -0.778398 -1.137010 3.390147
 18 5.760273 0.000016 0.000006 -0.531087 0.522362 0.444869
time 34
  0 30.033899 -30.033901 -31.256924 0.400647 -1.527647 -2.009935
  1 0.000000 0.000000 0.000000 -0.022767 -1.745072 -1.570796
  2 4.422487 -0.000102 -0.769549 -0.060156 0.028673 -0.138560
  3 5.037136 -0.005101 -0.000238 -0.060444 -0.011585 0.128387
  4 6.388059 -0.005253 -0.000001 0.097459 -0.100701 -0.053970
  5 6.146608 1.394838 0.000001 -0.071784 0.405994 0.521871
  6 -0.974683 1.324898 -3.543594 -2.298804 1.300338 0.309387
  7 5.760270 -0.000012 -0.000009 1.512820 0.369529 0.164060
  8 10.965153 0.000065 -0.000006 0.000013 0.000002 -1.020270
  9 0.000007 -0.000004 -4.044200 0.213488 2.928337 -0.221235
 10 -0.000007 0.000007 4.044200 -0.527015 -2.803314 -0.350998
 11 17.182070 0.000091 0.000546 0.000004 -0.000009 -0.817252
 12 16.782913 0.000650 -0.000234 0.176780 0.271613 0.139265
 13 5.168527 5.004116 -0.000135 -0.283702 0.243807 1.278988
 14 17.182070 0.000099 0.000206 -0.000001 -0.000007 -0.352803
 15 16.782906 0.000656 -0.000113 0.082840 -0.150587 -0.231808
 16 5.168479 5.004167 -0.000064 0.158957 -0.099150 1.436913
 17 -3.295070 0.938154 1.867774 -0.778398 -1.137010 3.390147
 18 5.760273 0.000016 0.000006 -0.531087 0.522362 0.444869
time 35
  0 30.033899 -30.033901 -31.256924 0.400647 -1.527647 -2.009935
  1 0.000000 0.000000 0.000000 -0.022767 -1.745072 -1.570796
  2 4.422487 -0.000102 -0.769549 -0.060156 0.028673 -0.138560
  3 5.037136 -0.005101 -0.000238 -0.060444 -0.011585 0.128387
  4 6.388059 -0.005253 -0.000001 0.097459 -0.100701 -0.053970
  5 6.146608 1.394838 0.000001 -0.071784 0.405994 0.521871
  6 -0.974683 1.324898 -3.543594 -2.298804 1.300338 0.309387
  7 5.760270 -0.000012 -0.000009 1.512820 0.369529 0.164060
  8 10.965153 0.000065 -0.000006 0.000013 0.000002 -1.020270
  9 0.000007 -0.000004 -4.044200 0.213488 2.928337 -0.221235
 10 -0.000007 0.000007 4.044200 -0.527015 -2.803314 -0.350998
 11 17.182070 0.000091 0.000546 0.000004 -0.000009 -0.817252
 12 16.782913 0.000650 -0.000234 0.176780 0.271613 0.139265
 13 5.168527 5.004116 -0.000135 -0.283702 0.243807 1.278988
 14 17.182070 0.000099 0.000206 -0.000001 -0.000007 -0.352803
 15 16.782906 0.000656 -0.000113 0.082840 -0.150587 -0.231808
 16 5.168479 5.004167 -0.000064 0.158957 -0.099150 1.436913
 17 -3.295070 0.938154 1.867774 -0.778398 -1.137010 3.390147
 18 5.760273 0.000016 0.000006 -0.531087 0.522362 0.444869
end
