version 1
nodes
  0 "Bip01"  -1
  1 "Bip01 Pelvis"   0
  2 "Bip01 Spine"   1
  3 "Bip01 Spine1"   2
  4 "Bip01 Spine2"   3
  5 "Bip01 Neck"   4
  6 "Bip01 R Clavicle"   5
  7 "Bip01 R UpperArm"   6
  8 "Bip01 R Forearm"   7
  9 "Bip01 R Thigh"   1
 10 "Bip01 L Thigh"   1
 11 "Bip01 L Calf"  10
 12 "Bip01 L Foot"  11
 13 "Bip01 L Toe0"  12
 14 "Bip01 R Calf"   9
 15 "Bip01 R Foot"  14
 16 "Bip01 R Toe0"  15
 17 "Bip01 L Clavicle"   5
 18 "Bip01 L UpperArm"  17
end
skeleton
time 0
  0 0.005641 -0.005641 -4.720958 0.000000 0.087214 -1.396458
  1 0.000000 0.000000 0.000000 -1.570796 -1.570796 0.000000
  2 4.484989 -0.004008 0.000006 -0.079134 -0.074079 -0.308624
  3 5.037136 -0.005101 -0.000238 0.137215 0.072138 -0.046177
  4 6.388059 -0.005253 -0.000001 -0.054841 -0.101119 -0.147569
  5 6.146608 1.394838 0.000001 0.122772 -0.181115 0.654540
  6 -2.650516 1.051453 -2.668567 1.052281 0.801636 3.418863
  7 5.760270 -0.000012 -0.000009 -1.010155 -0.524512 0.506302
  8 10.965153 0.000065 -0.000006 0.000013 0.000002 -0.895275
  9 0.000007 -0.000004 -4.044200 0.204381 2.952221 -0.914187
 10 -0.000007 0.000007 4.044200 -0.168556 -2.962065 0.243038
 11 17.182070 0.000091 0.000546 0.000004 -0.000009 -0.577196
 12 16.782913 0.000650 -0.000234 0.111349 -0.091086 -0.191774
 13 5.168527 5.004116 -0.000135 -0.085806 0.015871 2.640169
 14 17.182070 0.000099 0.000206 -0.000001 -0.000007 -0.706682
 15 16.782906 0.000656 -0.000113 -0.003719 0.033652 0.324079
 16 5.168479 5.004167 -0.000064 0.000011 -0.000001 1.570802
 17 -1.599706 1.754585 3.102187 1.626706 -1.189222 0.864013
 18 5.760273 0.000016 0.000006 0.709051 0.881211 0.324097
time 1
  0 0.005641 -0.005641 -4.720958 0.000000 0.087214 -1.396458
  1 0.000000 0.000000 0.000000 -1.570796 -1.570796 0.000000
  2 4.484989 -0.004008 0.000006 -0.114719 -0.079689 -0.309275
  3 5.037136 -0.005101 -0.000238 0.217176 0.077610 0.000750
  4 6.388059 -0.005253 -0.000001 -0.026881 -0.044555 -0.029198
  5 6.146608 1.394838 0.000001 -0.084371 0.048734 0.631356
  6 -2.052841 1.563187 -2.945919 0.777786 1.067137 3.223519
  7 5.760270 -0.000012 -0.000009 -0.893278 -0.557954 0.324374
  8 10.965153 0.000065 -0.000006 0.000013 0.000002 -1.286235
  9 0.000007 -0.000004 -4.044200 0.204381 2.952221 -0.914187
 10 -0.000007 0.000007 4.044200 -0.168556 -2.962065 0.243038
 11 17.182070 0.000091 0.000546 0.000004 -0.000009 -0.577196
 12 16.782913 0.000650 -0.000234 0.111349 -0.091086 -0.191774
 13 5.168527 5.004116 -0.000135 -0.085806 0.015871 2.640169
 14 17.182070 0.000099 0.000206 -0.000001 -0.000007 -0.706682
 15 16.782906 0.000656 -0.000113 -0.003719 0.033652 0.324079
 16 5.168479 5.004167 -0.000064 0.000011 -0.000001 1.570802
 17 -2.330197 1.070970 2.945932 -0.070456 -1.432302 2.577545
 18 5.760273 0.000016 0.000006 0.318725 0.912189 0.113128
end
