version 1
nodes
  0 "Bip01"  -1
  1 "Bip01 Pelvis"   0
  2 "Bip01 Spine"   1
  3 "Bip01 Spine1"   2
  4 "Bip01 Spine2"   3
  5 "Bip01 Neck"   4
  6 "Bip01 R Clavicle"   5
  7 "Bip01 R UpperArm"   6
  8 "Bip01 R Forearm"   7
  9 "Bip01 R Thigh"   1
 10 "Bip01 L Thigh"   1
 11 "Bip01 L Calf"  10
 12 "Bip01 L Foot"  11
 13 "Bip01 L Toe0"  12
 14 "Bip01 R Calf"   9
 15 "Bip01 R Foot"  14
 16 "Bip01 R Toe0"  15
 17 "Bip01 L Clavicle"   5
 18 "Bip01 L UpperArm"  17
end
skeleton
time 0
  0 0.228304 -0.228304 -15.006428 -0.080225 0.100061 -1.631840
  1 0.000000 0.000000 0.000000 -3.141168 -1.462909 1.570796
  2 4.465457 -0.004008 -0.472665 -0.116376 0.187715 0.274424
  3 5.037136 -0.005101 -0.000238 0.080534 -0.072015 0.318693
  4 6.388059 -0.005253 -0.000001 -0.034012 0.047676 -0.274192
  5 6.146608 1.394838 0.000001 -0.000001 -0.000002 0.650292
  6 -2.170032 1.352243 -2.953732 -1.467414 1.167758 1.032197
  7 5.760270 -0.000012 -0.000009 0.103483 -1.174308 0.457010
  8 10.965153 0.000065 -0.000006 0.000013 0.000002 -1.800210
  9 0.000007 -0.000004 -4.044200 0.203338 3.194978 -0.713075
 10 -0.000007 0.000007 4.044200 0.119840 -2.952602 -1.289604
 11 17.182070 0.000091 0.000546 0.000004 -0.000009 -2.234431
 12 16.782913 0.000650 -0.000234 0.112158 0.026126 0.045085
 13 5.168527 5.004116 -0.000135 0.000010 0.000000 2.015730
 14 17.182070 0.000099 0.000206 -0.000001 -0.000007 -1.951768
 15 16.782906 0.000656 -0.000113 -0.028961 -0.075584 0.749038
 16 5.168479 5.004167 -0.000064 0.000011 -0.000001 2.015824
 17 -2.170036 1.352229 2.953745 0.173459 -1.207234 2.328120
 18 5.760273 0.000016 0.000006 -0.428263 0.816435 0.023515
time 1
  0 0.228304 -0.228304 -12.826674 -0.090074 0.103866 -1.616442
  1 0.000000 0.000000 0.000000 -3.141168 -1.462909 1.570796
  2 4.465457 -0.004008 -0.472665 -0.116376 0.187715 0.274457
  3 5.037136 -0.005101 -0.000238 0.080534 -0.072015 0.318693
  4 6.388059 -0.005253 -0.000001 -0.034012 0.047676 -0.274192
  5 6.146608 1.394838 0.000001 -0.000001 -0.000002 0.650292
  6 -2.170032 1.352243 -2.953732 -1.467414 1.167758 1.032197
  7 5.760270 -0.000012 -0.000009 0.103483 -1.174308 0.457010
  8 10.965153 0.000065 -0.000006 0.000013 0.000002 -1.800210
  9 0.000007 -0.000004 -4.044200 0.223924 3.205200 -0.670655
 10 -0.000007 0.000007 4.044200 0.111885 -2.929543 -1.239041
 11 17.182070 0.000091 0.000546 0.000004 -0.000009 -2.116769
 12 16.782913 0.000650 -0.000234 0.106125 0.047066 -0.023283
 13 5.168527 5.004116 -0.000135 0.000010 0.000000 2.012368
 14 17.182070 0.000099 0.000206 -0.000001 -0.000007 -1.786752
 15 16.782906 0.000656 -0.000113 0.009342 -0.085556 0.564106
 16 5.168479 5.004167 -0.000064 0.000011 -0.000001 1.998809
 17 -2.170036 1.352229 2.953745 0.173459 -1.207234 2.328120
 18 5.760273 0.000016 0.000006 -0.428263 0.816435 0.023515
time 2
  0 0.220491 -0.220491 -10.373474 -0.104895 0.108412 -1.594378
  1 0.000000 0.000000 0.000000 -3.141168 -1.462909 1.570796
  2 4.465457 -0.004008 -0.472665 -0.116376 0.187715 0.274424
  3 5.037136 -0.005101 -0.000238 0.080534 -0.072015 0.318693
  4 6.388059 -0.005253 -0.000001 -0.034012 0.047676 -0.274192
  5 6.146608 1.394838 0.000001 -0.000001 -0.000002 0.650292
  6 -2.170032 1.352243 -2.953732 -1.467414 1.167758 1.032197
  7 5.760270 -0.000012 -0.000009 0.103483 -1.174308 0.457010
  8 10.965153 0.000065 -0.000006 0.000013 0.000002 -1.800210
  9 0.000007 -0.000004 -4.044200 0.262725 3.214372 -0.597090
 10 -0.000007 0.000007 4.044200 0.097604 -2.887467 -1.201860
 11 17.182070 0.000091 0.000546 0.000004 -0.000009 -2.011225
 12 16.782913 0.000650 -0.000234 0.081209 0.084704 -0.102858
 13 5.168527 5.004116 -0.000135 0.000010 0.000000 1.980058
 14 17.182070 0.000099 0.000206 -0.000001 -0.000007 -1.568079
 15 16.782906 0.000656 -0.000113 0.099527 -0.104286 0.247457
 16 5.168479 5.004167 -0.000064 0.000011 -0.000001 1.893123
 17 -2.170036 1.352229 2.953745 0.173459 -1.207234 2.328120
 18 5.760273 0.000016 0.000006 -0.428263 0.816435 0.023515
time 3
  0 0.216585 -0.216585 -8.056997 -0.118282 0.113452 -1.573910
  1 0.000000 0.000000 0.000000 -3.141168 -1.462909 1.570796
  2 4.465457 -0.004008 -0.472665 -0.116376 0.187715 0.274457
  3 5.037136 -0.005101 -0.000238 0.080534 -0.072015 0.318693
  4 6.388059 -0.005253 -0.000001 -0.034012 0.047676 -0.274192
  5 6.146608 1.394838 0.000001 -0.000001 -0.000002 0.650292
  6 -2.170032 1.352243 -2.953732 -1.467414 1.167758 1.032197
  7 5.760270 -0.000012 -0.000009 0.103483 -1.174308 0.457010
  8 10.965153 0.000065 -0.000006 0.000013 0.000002 -1.800210
  9 0.000007 -0.000004 -4.044200 0.306838 3.228607 -0.504511
 10 -0.000007 0.000007 4.044200 0.077190 -2.843828 -1.170223
 11 17.182070 0.000091 0.000546 0.000004 -0.000009 -1.916292
 12 16.782913 0.000650 -0.000234 0.048150 0.123879 -0.182400
 13 5.168527 5.004116 -0.000135 0.000010 0.000000 1.913349
 14 17.182070 0.000099 0.000206 -0.000001 -0.000007 -1.326860
 15 16.782906 0.000656 -0.000113 0.208693 -0.112942 -0.108671
 16 5.168479 5.004167 -0.000064 0.000011 -0.000001 1.721078
 17 -2.170036 1.352229 2.953745 0.173459 -1.207234 2.328120
 18 5.760273 0.000016 0.000006 -0.428263 0.816435 0.023515
time 4
  0 0.216585 -0.216585 -6.291318 -0.126027 0.118937 -1.560296
  1 0.000000 0.000000 0.000000 -3.141168 -1.462909 1.570796
  2 4.465457 -0.004008 -0.472665 -0.116376 0.187715 0.274424
  3 5.037136 -0.005101 -0.000238 0.080534 -0.072015 0.318693
  4 6.388059 -0.005253 -0.000001 -0.034012 0.047676 -0.274192
  5 6.146608 1.394838 0.000001 -0.000001 -0.000002 0.650292
  6 -2.170032 1.352243 -2.953732 -1.467414 1.167758 1.032197
  7 5.760270 -0.000012 -0.000009 0.103483 -1.174308 0.457010
  8 10.965153 0.000065 -0.000006 0.000013 0.000002 -1.800210
  9 0.000007 -0.000004 -4.044200 0.347915 3.245230 -0.413366
 10 -0.000007 0.000007 4.044200 0.054283 -2.806070 -1.155217
 11 17.182070 0.000091 0.000546 0.000004 -0.000009 -1.857282
 12 16.782913 0.000650 -0.000234 0.008960 0.155939 -0.242855
 13 5.168527 5.004116 -0.000135 0.000010 0.000000 1.825066
 14 17.182070 0.000099 0.000206 -0.000001 -0.000007 -1.103459
 15 16.782906 0.000656 -0.000113 0.312622 -0.108562 -0.436159
 16 5.168479 5.004167 -0.000064 0.000011 -0.000001 1.536369
 17 -2.170036 1.352229 2.953745 0.173459 -1.207234 2.328120
 18 5.760273 0.000016 0.000006 -0.428263 0.816435 0.023515
time 5
  0 0.208772 -0.208772 -5.506138 -0.125740 0.124076 -1.558418
  1 0.000000 0.000000 0.000000 -3.141168 -1.462909 1.570796
  2 4.465457 -0.004008 -0.472665 -0.116376 0.187715 0.274457
  3 5.037136 -0.005101 -0.000238 0.080534 -0.072015 0.318693
  4 6.388059 -0.005253 -0.000001 -0.034012 0.047676 -0.274192
  5 6.146608 1.394838 0.000001 -0.000001 -0.000002 0.650292
  6 -2.170032 1.352243 -2.953732 -1.467414 1.167758 1.032197
  7 5.760270 -0.000012 -0.000009 0.103483 -1.174308 0.457010
  8 10.965153 0.000065 -0.000006 0.000013 0.000002 -1.800210
  9 0.000007 -0.000004 -4.044200 0.379601 3.250485 -0.356520
 10 -0.000007 0.000007 4.044200 0.036935 -2.777131 -1.170797
 11 17.182070 0.000091 0.000546 0.000004 -0.000009 -1.864954
 12 16.782913 0.000650 -0.000234 -0.034350 0.173933 -0.265610
 13 5.168527 5.004116 -0.000135 0.000010 0.000000 1.731138
 14 17.182070 0.000099 0.000206 -0.000001 -0.000007 -0.968459
 15 16.782906 0.000656 -0.000113 0.385372 -0.101778 -0.654509
 16 5.168479 5.004167 -0.000064 0.000011 -0.000001 1.396067
 17 -2.170036 1.352229 2.953745 0.173459 -1.207234 2.328120
 18 5.760273 0.000016 0.000006 -0.428263 0.816435 0.023515
time 6
  0 0.208772 -0.208772 -5.388947 -0.123541 0.126497 -1.559357
  1 0.000000 0.000000 0.000000 -3.141168 -1.462909 1.570796
  2 4.465457 -0.004008 -0.472665 -0.116376 0.187715 0.274424
  3 5.037136 -0.005101 -0.000238 0.080534 -0.072015 0.318693
  4 6.388059 -0.005253 -0.000001 -0.034012 0.047676 -0.274192
  5 6.146608 1.394838 0.000001 -0.000001 -0.000002 0.650292
  6 -2.170032 1.352243 -2.953732 -1.467414 1.167758 1.032197
  7 5.760270 -0.000012 -0.000009 0.103483 -1.174308 0.457010
  8 10.965153 0.000065 -0.000006 0.000013 0.000002 -1.800210
  9 0.000007 -0.000004 -4.044200 0.396582 3.249243 -0.334354
 10 -0.000007 0.000007 4.044200 0.029938 -2.752877 -1.207309
 11 17.182070 0.000091 0.000546 0.000004 -0.000009 -1.918228
 12 16.782913 0.000650 -0.000234 -0.074104 0.184792 -0.256949
 13 5.168527 5.004116 -0.000135 0.000010 0.000000 1.648305
 14 17.182070 0.000099 0.000206 -0.000001 -0.000007 -0.921106
 15 16.782906 0.000656 -0.000113 0.403848 -0.100791 -0.727180
 16 5.168479 5.004167 -0.000064 0.000011 -0.000001 1.343911
 17 -2.170036 1.352229 2.953745 0.173459 -1.207234 2.328120
 18 5.760273 0.000016 0.000006 -0.428263 0.816435 0.023515
time 7
  0 0.208772 -0.208772 -5.365509 -0.117804 0.132822 -1.563488
  1 0.000000 0.000000 0.000000 -3.141168 -1.462909 1.570796
  2 4.465457 -0.004008 -0.472665 -0.116376 0.187715 0.274424
  3 5.037136 -0.005101 -0.000238 0.080534 -0.072015 0.318693
  4 6.388059 -0.005253 -0.000001 -0.034012 0.047676 -0.274192
  5 6.146608 1.394838 0.000001 -0.000001 -0.000002 0.650292
  6 -2.170032 1.352243 -2.953732 -1.467414 1.167758 1.032197
  7 5.760270 -0.000012 -0.000009 0.103483 -1.174308 0.457010
  8 10.965153 0.000065 -0.000006 0.000013 0.000002 -1.800210
  9 0.000007 -0.000004 -4.044200 0.397721 3.260229 -0.293654
 10 -0.000007 0.000007 4.044200 0.025338 -2.737352 -1.244490
 11 17.182070 0.000091 0.000546 0.000004 -0.000009 -1.971502
 12 16.782913 0.000650 -0.000234 -0.105471 0.187757 -0.234160
 13 5.168527 5.004116 -0.000135 0.000010 0.000000 1.592235
 14 17.182070 0.000099 0.000206 -0.000001 -0.000007 -0.834281
 15 16.782906 0.000656 -0.000113 0.306897 -0.118740 -0.658574
 16 5.168479 5.004167 -0.000064 0.000011 -0.000001 1.344437
 17 -2.170036 1.352229 2.953745 0.173459 -1.207234 2.328120
 18 5.760273 0.000016 0.000006 -0.428263 0.816435 0.023515
time 8
  0 0.197053 -0.197053 -5.416291 -0.110250 0.140876 -1.569497
  1 0.000000 0.000000 0.000000 -3.141168 -1.462909 1.570796
  2 4.465457 -0.004008 -0.472665 -0.116376 0.187715 0.274424
  3 5.037136 -0.005101 -0.000238 0.080534 -0.072015 0.318693
  4 6.388059 -0.005253 -0.000001 -0.034012 0.047676 -0.274192
  5 6.146608 1.394838 0.000001 -0.000001 -0.000002 0.650292
  6 -2.170032 1.352243 -2.953732 -1.467414 1.167758 1.032197
  7 5.760270 -0.000012 -0.000009 0.103483 -1.174308 0.457010
  8 10.965153 0.000065 -0.000006 0.000013 0.000002 -1.800210
  9 0.000007 -0.000004 -4.044200 0.380265 3.305322 -0.167542
 10 -0.000007 0.000007 4.044200 0.022558 -2.732666 -1.273451
 11 17.182070 0.000091 0.000546 0.000004 -0.000009 -2.013448
 12 16.782913 0.000650 -0.000234 -0.122540 0.183254 -0.204340
 13 5.168527 5.004116 -0.000135 0.000010 0.000000 1.572360
 14 17.182070 0.000099 0.000206 -0.000001 -0.000007 -0.584839
 15 16.782906 0.000656 -0.000113 -0.019365 -0.082698 -0.375832
 16 5.168479 5.004167 -0.000064 0.000011 -0.000001 1.346096
 17 -2.170036 1.352229 2.953745 0.173459 -1.207234 2.328120
 18 5.760273 0.000016 0.000006 -0.428263 0.816435 0.023515
time 9
  0 0.197053 -0.197053 -5.541295 -0.101644 0.149573 -1.576351
  1 0.000000 0.000000 0.000000 -3.141168 -1.462909 1.570796
  2 4.465457 -0.004008 -0.472665 -0.116376 0.187715 0.274457
  3 5.037136 -0.005101 -0.000238 0.080534 -0.072015 0.318693
  4 6.388059 -0.005253 -0.000001 -0.034012 0.047676 -0.274192
  5 6.146608 1.394838 0.000001 -0.000001 -0.000002 0.650292
  6 -2.170032 1.352243 -2.953732 -1.467414 1.167758 1.032197
  7 5.760270 -0.000012 -0.000009 0.103483 -1.174308 0.457010
  8 10.965153 0.000065 -0.000006 0.000013 0.000002 -1.800210
  9 0.000007 -0.000004 -4.044200 0.375142 3.290610 -0.177764
 10 -0.000007 0.000007 4.044200 0.018724 -2.736341 -1.290560
 11 17.182070 0.000091 0.000546 0.000004 -0.000009 -2.034097
 12 16.782913 0.000650 -0.000234 -0.129088 0.174878 -0.188140
 13 5.168527 5.004116 -0.000135 0.000010 0.000000 1.570793
 14 17.182070 0.000099 0.000206 -0.000001 -0.000007 -0.601628
 15 16.782906 0.000656 -0.000113 -0.194368 0.021398 -0.110552
 16 5.168479 5.004167 -0.000064 0.000011 -0.000001 1.347067
 17 -2.170036 1.352229 2.953745 0.173459 -1.207234 2.328120
 18 5.760273 0.000016 0.000006 -0.428263 0.816435 0.023515
time 10
  0 0.185334 -0.185334 -5.728801 -0.092560 0.158912 -1.584332
  1 0.000000 0.000000 0.000000 -3.141168 -1.462909 1.570796
  2 4.465457 -0.004008 -0.472665 -0.116376 0.187715 0.274424
  3 5.037136 -0.005101 -0.000238 0.080534 -0.072015 0.318693
  4 6.388059 -0.005253 -0.000001 -0.034012 0.047676 -0.274192
  5 6.146608 1.394838 0.000001 -0.000001 -0.000002 0.650292
  6 -2.170032 1.352243 -2.953732 -1.467414 1.167758 1.032197
  7 5.760270 -0.000012 -0.000009 0.103483 -1.174308 0.457010
  8 10.965153 0.000065 -0.000006 0.000013 0.000002 -1.800210
  9 0.000007 -0.000004 -4.044200 0.381119 3.250962 -0.252286
 10 -0.000007 0.000007 4.044200 0.022558 -2.743966 -1.321623
 11 17.182070 0.000091 0.000546 0.000004 -0.000009 -2.093681
 12 16.782913 0.000650 -0.000234 -0.129259 0.158867 -0.112062
 13 5.168527 5.004116 -0.000135 0.000010 0.000000 1.570793
 14 17.182070 0.000099 0.000206 -0.000001 -0.000007 -0.737519
 15 16.782906 0.000656 -0.000113 -0.203981 0.039224 -0.016694
 16 5.168479 5.004167 -0.000064 0.000011 -0.000001 1.349151
 17 -2.170036 1.352229 2.953745 0.173459 -1.207234 2.328120
 18 5.760273 0.000016 0.000006 -0.428263 0.816435 0.023515
time 11
  0 0.185334 -0.185334 -5.982715 -0.082520 0.168745 -1.593439
  1 0.000000 0.000000 0.000000 -3.141168 -1.462909 1.570796
  2 4.465457 -0.004008 -0.472665 -0.116376 0.187715 0.274424
  3 5.037136 -0.005101 -0.000238 0.080534 -0.072015 0.318693
  4 6.388059 -0.005253 -0.000001 -0.034012 0.047676 -0.274192
  5 6.146608 1.394838 0.000001 -0.000001 -0.000002 0.650292
  6 -2.170032 1.352243 -2.953732 -1.467414 1.167758 1.032197
  7 5.760270 -0.000012 -0.000009 0.103483 -1.174308 0.457010
  8 10.965153 0.000065 -0.000006 0.000013 0.000002 -1.800210
  9 0.000007 -0.000004 -4.044200 0.386432 3.182081 -0.379354
 10 -0.000007 0.000007 4.044200 0.033293 -2.759400 -1.362723
 11 17.182070 0.000091 0.000546 0.000004 -0.000009 -2.197290
 12 16.782913 0.000650 -0.000234 -0.121706 0.132033 0.037511
 13 5.168527 5.004116 -0.000135 0.000010 0.000000 1.570793
 14 17.182070 0.000099 0.000206 -0.000001 -0.000007 -0.978738
 15 16.782906 0.000656 -0.000113 -0.195914 0.068872 0.129814
 16 5.168479 5.004167 -0.000064 0.000011 -0.000001 1.361512
 17 -2.170036 1.352229 2.953745 0.173459 -1.207234 2.328120
 18 5.760273 0.000016 0.000006 -0.428263 0.816435 0.023515
time 12
  0 0.177521 -0.177521 -6.279599 -0.072289 0.178825 -1.602734
  1 0.000000 0.000000 0.000000 -3.141168 -1.462909 1.570796
  2 4.465457 -0.004008 -0.472665 -0.116376 0.187715 0.274424
  3 5.037136 -0.005101 -0.000238 0.080534 -0.072015 0.318693
  4 6.388059 -0.005253 -0.000001 -0.034012 0.047676 -0.274192
  5 6.146608 1.394838 0.000001 -0.000001 -0.000002 0.650292
  6 -2.170032 1.352243 -2.953732 -1.467414 1.167758 1.032197
  7 5.760270 -0.000012 -0.000009 0.103483 -1.174308 0.457010
  8 10.965153 0.000065 -0.000006 0.000013 0.000002 -1.800210
  9 0.000007 -0.000004 -4.044200 0.381878 3.103072 -0.516167
 10 -0.000007 0.000007 4.044200 0.043261 -2.781909 -1.397897
 11 17.182070 0.000091 0.000546 0.000004 -0.000009 -2.311224
 12 16.782913 0.000650 -0.000234 -0.113932 0.099288 0.219792
 13 5.168527 5.004116 -0.000135 0.000010 0.000000 1.570793
 14 17.182070 0.000099 0.000206 -0.000001 -0.000007 -1.232840
 15 16.782906 0.000656 -0.000113 -0.170314 0.094737 0.263376
 16 5.168479 5.004167 -0.000064 0.000011 -0.000001 1.383726
 17 -2.170036 1.352229 2.953745 0.173459 -1.207234 2.328120
 18 5.760273 0.000016 0.000006 -0.428263 0.816435 0.023515
time 13
  0 0.177521 -0.177521 -6.615547 -0.061484 0.189103 -1.612123
  1 0.000000 0.000000 0.000000 -3.141168 -1.462909 1.570796
  2 4.465457 -0.004008 -0.472665 -0.116376 0.187715 0.274457
  3 5.037136 -0.005101 -0.000238 0.080534 -0.072015 0.318693
  4 6.388059 -0.005253 -0.000001 -0.034012 0.047676 -0.274192
  5 6.146608 1.394838 0.000001 -0.000001 -0.000002 0.650292
  6 -2.170032 1.352243 -2.953732 -1.467414 1.167758 1.032197
  7 5.760270 -0.000012 -0.000009 0.103483 -1.174308 0.457010
  8 10.965153 0.000065 -0.000006 0.000013 0.000002 -1.800210
  9 0.000007 -0.000004 -4.044200 0.365181 3.018523 -0.656133
 10 -0.000007 0.000007 4.044200 0.047574 -2.809377 -1.423513
 11 17.182070 0.000091 0.000546 0.000004 -0.000009 -2.417055
 12 16.782913 0.000650 -0.000234 -0.111823 0.066839 0.409001
 13 5.168527 5.004116 -0.000135 0.000010 0.000000 1.570793
 14 17.182070 0.000099 0.000206 -0.000001 -0.000007 -1.479198
 15 16.782906 0.000656 -0.000113 -0.135199 0.116900 0.374621
 16 5.168479 5.004167 -0.000064 0.000011 -0.000001 1.413668
 17 -2.170036 1.352229 2.953745 0.173459 -1.207234 2.328120
 18 5.760273 0.000016 0.000006 -0.428263 0.816435 0.023515
time 14
  0 0.177521 -0.177521 -6.978839 -0.050583 0.199381 -1.622357
  1 0.000000 0.000000 0.000000 -3.141168 -1.462909 1.570796
  2 4.465457 -0.004008 -0.472665 -0.116376 0.187715 0.274424
  3 5.037136 -0.005101 -0.000238 0.080534 -0.072015 0.318693
  4 6.388059 -0.005253 -0.000001 -0.034012 0.047676 -0.274192
  5 6.146608 1.394838 0.000001 -0.000001 -0.000002 0.650292
  6 -2.170032 1.352243 -2.953732 -1.467414 1.167758 1.032197
  7 5.760270 -0.000012 -0.000009 0.103483 -1.174308 0.457010
  8 10.965153 0.000065 -0.000006 0.000013 0.000002 -1.800210
  9 0.000007 -0.000004 -4.044200 0.333401 2.931680 -0.798392
 10 -0.000007 0.000007 4.044200 0.045465 -2.837765 -1.443298
 11 17.182070 0.000091 0.000546 0.000004 -0.000009 -2.498006
 12 16.782913 0.000650 -0.000234 -0.116311 0.041692 0.574809
 13 5.168527 5.004116 -0.000135 0.000010 0.000000 1.570793
 14 17.182070 0.000099 0.000206 -0.000001 -0.000007 -1.707945
 15 16.782906 0.000656 -0.000113 -0.096864 0.135980 0.459221
 16 5.168479 5.004167 -0.000064 0.000011 -0.000001 1.448202
 17 -2.170036 1.352229 2.953745 0.173459 -1.207234 2.328120
 18 5.760273 0.000016 0.000006 -0.428263 0.816435 0.023515
time 15
  0 0.165802 -0.165802 -7.365570 -0.039778 0.209560 -1.632122
  1 0.000000 0.000000 0.000000 -3.141168 -1.462909 1.570796
  2 4.465457 -0.004008 -0.472665 -0.116376 0.187715 0.274457
  3 5.037136 -0.005101 -0.000238 0.080534 -0.072015 0.318693
  4 6.388059 -0.005253 -0.000001 -0.034012 0.047676 -0.274192
  5 6.146608 1.394838 0.000001 -0.000001 -0.000002 0.650292
  6 -2.170032 1.352243 -2.953732 -1.467414 1.167758 1.032197
  7 5.760270 -0.000012 -0.000009 0.103483 -1.174308 0.457010
  8 10.965153 0.000065 -0.000006 0.000013 0.000002 -1.800210
  9 0.000007 -0.000004 -4.044200 0.283880 2.847704 -0.945142
 10 -0.000007 0.000007 4.044200 0.041440 -2.862202 -1.469392
 11 17.182070 0.000091 0.000546 0.000004 -0.000009 -2.538230
 12 16.782913 0.000650 -0.000234 -0.123472 0.027831 0.677514
 13 5.168527 5.004116 -0.000135 0.000010 0.000000 1.570793
 14 17.182070 0.000099 0.000206 -0.000001 -0.000007 -1.912364
 15 16.782906 0.000656 -0.000113 -0.060107 0.152860 0.514467
 16 5.168479 5.004167 -0.000064 0.000011 -0.000001 1.483869
 17 -2.170036 1.352229 2.953745 0.173459 -1.207234 2.328120
 18 5.760273 0.000016 0.000006 -0.428263 0.816435 0.023515
time 16
  0 0.165802 -0.165802 -7.760113 -0.028973 0.219492 -1.642074
  1 0.000000 0.000000 0.000000 -3.141168 -1.462909 1.570796
  2 4.465457 -0.004008 -0.472665 -0.116376 0.187715 0.274424
  3 5.037136 -0.005101 -0.000238 0.080534 -0.072015 0.318693
  4 6.388059 -0.005253 -0.000001 -0.034012 0.047676 -0.274192
  5 6.146608 1.394838 0.000001 -0.000001 -0.000002 0.650292
  6 -2.170032 1.352243 -2.953732 -1.467414 1.167758 1.032197
  7 5.760270 -0.000012 -0.000009 0.103483 -1.174308 0.457010
  8 10.965153 0.000065 -0.000006 0.000013 0.000002 -1.800210
  9 0.000007 -0.000004 -4.044200 0.216334 2.774046 -1.096095
 10 -0.000007 0.000007 4.044200 0.036072 -2.874146 -1.496823
 11 17.182070 0.000091 0.000546 0.000004 -0.000009 -2.549201
 12 16.782913 0.000650 -0.000234 -0.131320 0.021345 0.701016
 13 5.168527 5.004116 -0.000135 0.000010 0.000000 1.570793
 14 17.182070 0.000099 0.000206 -0.000001 -0.000007 -2.085946
 15 16.782906 0.000656 -0.000113 -0.028278 0.168198 0.539494
 16 5.168479 5.004167 -0.000064 0.000011 -0.000001 1.516927
 17 -2.170036 1.352229 2.953745 0.173459 -1.207234 2.328120
 18 5.760273 0.000016 0.000006 -0.428263 0.816435 0.023515
time 17
  0 0.154083 -0.154083 -8.166375 -0.018455 0.228930 -1.652215
  1 0.000000 0.000000 0.000000 -3.141168 -1.462909 1.570796
  2 4.465457 -0.004008 -0.472665 -0.116376 0.187715 0.274424
  3 5.037136 -0.005101 -0.000238 0.080534 -0.072015 0.318693
  4 6.388059 -0.005253 -0.000001 -0.034012 0.047676 -0.274192
  5 6.146608 1.394838 0.000001 -0.000001 -0.000002 0.650292
  6 -2.170032 1.352243 -2.953732 -1.467414 1.167758 1.032197
  7 5.760270 -0.000012 -0.000009 0.103483 -1.174308 0.457010
  8 10.965153 0.000065 -0.000006 0.000013 0.000002 -1.800210
  9 0.000007 -0.000004 -4.044200 0.135318 2.718539 -1.246380
 10 -0.000007 0.000007 4.044200 0.031472 -2.882322 -1.524542
 11 17.182070 0.000091 0.000546 0.000004 -0.000009 -2.551208
 12 16.782913 0.000650 -0.000234 -0.138947 0.016119 0.700201
 13 5.168527 5.004116 -0.000135 0.000010 0.000000 1.570793
 14 17.182070 0.000099 0.000206 -0.000001 -0.000007 -2.223002
 15 16.782906 0.000656 -0.000113 -0.003523 0.181932 0.537424
 16 5.168479 5.004167 -0.000064 0.000011 -0.000001 1.544117
 17 -2.170036 1.352229 2.953745 0.173459 -1.207234 2.328120
 18 5.760273 0.000016 0.000006 -0.428263 0.816435 0.023515
time 18
  0 0.154083 -0.154083 -8.572638 -0.008415 0.237824 -1.661134
  1 0.000000 0.000000 0.000000 -3.141168 -1.462909 1.570796
  2 4.465457 -0.004008 -0.472665 -0.116376 0.187715 0.274424
  3 5.037136 -0.005101 -0.000238 0.080534 -0.072015 0.318693
  4 6.388059 -0.005253 -0.000001 -0.034012 0.047676 -0.274192
  5 6.146608 1.394838 0.000001 -0.000001 -0.000002 0.650292
  6 -2.170032 1.352243 -2.953732 -1.467414 1.167758 1.032197
  7 5.760270 -0.000012 -0.000009 0.103483 -1.174308 0.457010
  8 10.965153 0.000065 -0.000006 0.000013 0.000002 -1.800210
  9 0.000007 -0.000004 -4.044200 0.055914 2.687203 -1.380709
 10 -0.000007 0.000007 4.044200 0.033868 -2.896102 -1.568796
 11 17.182070 0.000091 0.000546 0.000004 -0.000009 -2.506968
 12 16.782913 0.000650 -0.000234 -0.140492 0.013561 0.668004
 13 5.168527 5.004116 -0.000135 0.000010 0.000000 1.570793
 14 17.182070 0.000099 0.000206 -0.000001 -0.000007 -2.318461
 15 16.782906 0.000656 -0.000113 0.013766 0.193261 0.519172
 16 5.168479 5.004167 -0.000064 0.000011 -0.000001 1.562669
 17 -2.170036 1.352229 2.953745 0.173459 -1.207234 2.328120
 18 5.760273 0.000016 0.000006 -0.428263 0.816435 0.023515
time 19
  0 0.146270 -0.146270 -8.978900 0.001052 0.245928 -1.670241
  1 0.000000 0.000000 0.000000 -3.141168 -1.462909 1.570796
  2 4.465457 -0.004008 -0.472665 -0.116376 0.187715 0.274424
  3 5.037136 -0.005101 -0.000238 0.080534 -0.072015 0.318693
  4 6.388059 -0.005253 -0.000001 -0.034012 0.047676 -0.274192
  5 6.146608 1.394838 0.000001 -0.000001 -0.000002 0.650292
  6 -2.170032 1.352243 -2.953732 -1.467414 1.167758 1.032197
  7 5.760270 -0.000012 -0.000009 0.103483 -1.174308 0.457010
  8 10.965153 0.000065 -0.000006 0.000013 0.000002 -1.800210
  9 0.000007 -0.000004 -4.044200 0.001365 2.680898 -1.467937
 10 -0.000007 0.000007 4.044200 -3.103413 -0.229861 1.536249
 11 17.182070 0.000091 0.000546 0.000004 -0.000009 -2.420425
 12 16.782913 0.000650 -0.000234 -0.135955 0.012320 0.617705
 13 5.168527 5.004116 -0.000135 0.000010 0.000000 1.570793
 14 17.182070 0.000099 0.000206 -0.000001 -0.000007 -2.367664
 15 16.782906 0.000656 -0.000113 0.022321 0.200231 0.505812
 16 5.168479 5.004167 -0.000064 0.000011 -0.000001 1.570134
 17 -2.170036 1.352229 2.953745 0.173459 -1.207234 2.328120
 18 5.760273 0.000016 0.000006 -0.428263 0.816435 0.023515
time 20
  0 0.142364 -0.142364 -9.353911 0.010327 0.253241 -1.678034
  1 0.000000 0.000000 0.000000 -3.141168 -1.462909 1.570796
  2 4.465457 -0.004008 -0.472665 -0.116376 0.187715 0.274424
  3 5.037136 -0.005101 -0.000238 0.080534 -0.072015 0.318693
  4 6.388059 -0.005253 -0.000001 -0.034012 0.047676 -0.274192
  5 6.146608 1.394838 0.000001 -0.000001 -0.000002 0.650292
  6 -2.170032 1.352243 -2.953732 -1.467414 1.167758 1.032197
  7 5.760270 -0.000012 -0.000009 0.103483 -1.174308 0.457010
  8 10.965153 0.000065 -0.000006 0.000013 0.000002 -1.800210
  9 0.000007 -0.000004 -4.044200 -0.027095 2.682140 -1.511217
 10 -0.000007 0.000007 4.044200 -3.101017 -0.216356 1.521434
 11 17.182070 0.000091 0.000546 0.000004 -0.000009 -2.308141
 12 16.782913 0.000650 -0.000234 -0.127347 0.011615 0.567133
 13 5.168527 5.004116 -0.000135 0.000010 0.000000 1.570793
 14 17.182070 0.000099 0.000206 -0.000001 -0.000007 -2.392129
 15 16.782906 0.000656 -0.000113 0.019051 0.201300 0.505511
 16 5.168479 5.004167 -0.000064 0.000011 -0.000001 1.570802
 17 -2.170036 1.352229 2.953745 0.173459 -1.207234 2.328120
 18 5.760273 0.000016 0.000006 -0.428263 0.816435 0.023515
time 21
  0 0.142364 -0.142364 -9.697672 0.018646 0.259319 -1.685545
  1 0.000000 0.000000 0.000000 -3.141168 -1.462909 1.570796
  2 4.465457 -0.004008 -0.472665 -0.116376 0.187715 0.274457
  3 5.037136 -0.005101 -0.000238 0.080534 -0.072015 0.318693
  4 6.388059 -0.005253 -0.000001 -0.034012 0.047676 -0.274192
  5 6.146608 1.394838 0.000001 -0.000001 -0.000002 0.650292
  6 -2.170032 1.352243 -2.953732 -1.467414 1.167758 1.032197
  7 5.760270 -0.000012 -0.000009 0.103483 -1.174308 0.457010
  8 10.965153 0.000065 -0.000006 0.000013 0.000002 -1.800210
  9 0.000007 -0.000004 -4.044200 -0.053089 2.680803 -1.551153
 10 -0.000007 0.000007 4.044200 -3.101017 -0.205332 1.530132
 11 17.182070 0.000091 0.000546 0.000004 -0.000009 -2.175851
 12 16.782913 0.000650 -0.000234 -0.115943 0.011615 0.520944
 13 5.168527 5.004116 -0.000135 0.000010 0.000000 1.570793
 14 17.182070 0.000099 0.000206 -0.000001 -0.000007 -2.416594
 15 16.782906 0.000656 -0.000113 0.012107 0.201259 0.504984
 16 5.168479 5.004167 -0.000064 0.000011 -0.000001 1.570863
 17 -2.170036 1.352229 2.953745 0.173459 -1.207234 2.328120
 18 5.760273 0.000016 0.000006 -0.428263 0.816435 0.023515
time 22
  0 0.134551 -0.134551 -10.010181 0.026200 0.264112 -1.691554
  1 0.000000 0.000000 0.000000 -3.141168 -1.462909 1.570796
  2 4.465457 -0.004008 -0.472665 -0.116376 0.187715 0.274457
  3 5.037136 -0.005101 -0.000238 0.080534 -0.072015 0.318693
  4 6.388059 -0.005253 -0.000001 -0.034012 0.047676 -0.274192
  5 6.146608 1.394838 0.000001 -0.000001 -0.000002 0.650292
  6 -2.170032 1.352243 -2.953732 -1.467414 1.167758 1.032197
  7 5.760270 -0.000012 -0.000009 0.103483 -1.174308 0.457010
  8 10.965153 0.000065 -0.000006 0.000013 0.000002 -1.800210
  9 0.000007 -0.000004 -4.044200 3.061501 0.457485 1.548644
 10 -0.000007 0.000007 4.044200 -3.103317 -0.196972 1.560240
 11 17.182070 0.000091 0.000546 0.000004 -0.000009 -2.027859
 12 16.782913 0.000650 -0.000234 -0.102626 0.012375 0.478116
 13 5.168527 5.004116 -0.000135 0.000010 0.000000 1.570793
 14 17.182070 0.000099 0.000206 -0.000001 -0.000007 -2.437906
 15 16.782906 0.000656 -0.000113 0.010936 0.203726 0.501070
 16 5.168479 5.004167 -0.000064 0.000011 -0.000001 1.572441
 17 -2.170036 1.352229 2.953745 0.173459 -1.207234 2.328120
 18 5.760273 0.000016 0.000006 -0.428263 0.816435 0.023515
time 23
  0 0.134551 -0.134551 -10.283628 0.032798 0.267373 -1.696718
  1 0.000000 0.000000 0.000000 -3.141168 -1.462909 1.570796
  2 4.465457 -0.004008 -0.472665 -0.116376 0.187715 0.274457
  3 5.037136 -0.005101 -0.000238 0.080534 -0.072015 0.318693
  4 6.388059 -0.005253 -0.000001 -0.034012 0.047676 -0.274192
  5 6.146608 1.394838 0.000001 -0.000001 -0.000002 0.650292
  6 -2.170032 1.352243 -2.953732 -1.467414 1.167758 1.032197
  7 5.760270 -0.000012 -0.000009 0.103483 -1.174308 0.457010
  8 10.965153 0.000065 -0.000006 0.000013 0.000002 -1.800210
  9 0.000007 -0.000004 -4.044200 3.042812 0.446116 1.519123
 10 -0.000007 0.000007 4.044200 0.033868 -2.950948 -1.534674
 11 17.182070 0.000091 0.000546 0.000004 -0.000009 -1.868826
 12 16.782913 0.000650 -0.000234 -0.088451 0.013672 0.437768
 13 5.168527 5.004116 -0.000135 0.000010 0.000000 1.570793
 14 17.182070 0.000099 0.000206 -0.000001 -0.000007 -2.447226
 15 16.782906 0.000656 -0.000113 0.017588 0.207653 0.498398
 16 5.168479 5.004167 -0.000064 0.000011 -0.000001 1.578490
 17 -2.170036 1.352229 2.953745 0.173459 -1.207234 2.328120
 18 5.760273 0.000016 0.000006 -0.428263 0.816435 0.023515
time 24
  0 0.134551 -0.134551 -10.498478 0.038344 0.269053 -1.700943
  1 0.000000 0.000000 0.000000 -3.141168 -1.462909 1.570796
  2 4.465457 -0.004008 -0.472665 -0.116376 0.187715 0.274457
  3 5.037136 -0.005101 -0.000238 0.080534 -0.072015 0.318693
  4 6.388059 -0.005253 -0.000001 -0.034012 0.047676 -0.274192
  5 6.146608 1.394838 0.000001 -0.000001 -0.000002 0.650292
  6 -2.170032 1.352243 -2.953732 -1.467414 1.167758 1.032197
  7 5.760270 -0.000012 -0.000009 0.103483 -1.174308 0.457010
  8 10.965153 0.000065 -0.000006 0.000013 0.000002 -1.800210
  9 0.000007 -0.000004 -4.044200 3.041294 0.424143 1.515970
 10 -0.000007 0.000007 4.044200 0.027734 -2.955909 -1.475700
 11 17.182070 0.000091 0.000546 0.000004 -0.000009 -1.703769
 12 16.782913 0.000650 -0.000234 -0.074472 0.015136 0.398438
 13 5.168527 5.004116 -0.000135 0.000010 0.000000 1.570793
 14 17.182070 0.000099 0.000206 -0.000001 -0.000007 -2.437289
 15 16.782906 0.000656 -0.000113 0.033087 0.211498 0.502500
 16 5.168479 5.004167 -0.000064 0.000011 -0.000001 1.592065
 17 -2.170036 1.352229 2.953745 0.173459 -1.207234 2.328120
 18 5.760273 0.000016 0.000006 -0.428263 0.816435 0.023515
time 25
  0 0.122832 -0.122832 -10.654733 0.042073 0.268954 -1.702915
  1 0.000000 0.000000 0.000000 -3.141168 -1.462909 1.570796
  2 4.465457 -0.004008 -0.472665 -0.116376 0.187715 0.274424
  3 5.037136 -0.005101 -0.000238 0.080534 -0.072015 0.318693
  4 6.388059 -0.005253 -0.000001 -0.034012 0.047676 -0.274192
  5 6.146608 1.394838 0.000001 -0.000001 -0.000002 0.650292
  6 -2.170032 1.352243 -2.953732 -1.467414 1.167758 1.032197
  7 5.760270 -0.000012 -0.000009 0.103483 -1.174308 0.457010
  8 10.965153 0.000065 -0.000006 0.000013 0.000002 -1.800210
  9 0.000007 -0.000004 -4.044200 3.057611 0.392711 1.543199
 10 -0.000007 0.000007 4.044200 0.021025 -2.959768 -1.409367
 11 17.182070 0.000091 0.000546 0.000004 -0.000009 -1.538210
 12 16.782913 0.000650 -0.000234 -0.061008 0.016471 0.359109
 13 5.168527 5.004116 -0.000135 0.000010 0.000000 1.570793
 14 17.182070 0.000099 0.000206 -0.000001 -0.000007 -2.405355
 15 16.782906 0.000656 -0.000113 0.055890 0.214171 0.514279
 16 5.168479 5.004167 -0.000064 0.000011 -0.000001 1.613793
 17 -2.170036 1.352229 2.953745 0.173459 -1.207234 2.328120
 18 5.760273 0.000016 0.000006 -0.428263 0.816435 0.023515
time 26
  0 0.122832 -0.122832 -10.728953 0.043507 0.268460 -1.703572
  1 0.000000 0.000000 0.000000 -3.141168 -1.462909 1.570796
  2 4.465457 -0.004008 -0.472665 -0.116376 0.187715 0.274457
  3 5.037136 -0.005101 -0.000238 0.080534 -0.072015 0.318693
  4 6.388059 -0.005253 -0.000001 -0.034012 0.047676 -0.274192
  5 6.146608 1.394838 0.000001 -0.000001 -0.000002 0.650292
  6 -2.170032 1.352243 -2.953732 -1.467414 1.167758 1.032197
  7 5.760270 -0.000012 -0.000009 0.103483 -1.174308 0.457010
  8 10.965153 0.000065 -0.000006 0.000013 0.000002 -1.800210
  9 0.000007 -0.000004 -4.044200 -0.056694 2.787708 -1.548573
 10 -0.000007 0.000007 4.044200 0.014986 -2.962340 -1.341695
 11 17.182070 0.000091 0.000546 0.000004 -0.000009 -1.380395
 12 16.782913 0.000650 -0.000234 -0.048746 0.017379 0.320968
 13 5.168527 5.004116 -0.000135 0.000010 0.000000 1.570793
 14 17.182070 0.000099 0.000206 -0.000001 -0.000007 -2.353959
 15 16.782906 0.000656 -0.000113 0.082775 0.215425 0.529144
 16 5.168479 5.004167 -0.000064 0.000011 -0.000001 1.642015
 17 -2.170036 1.352229 2.953745 0.173459 -1.207234 2.328120
 18 5.760273 0.000016 0.000006 -0.428263 0.816435 0.023515
time 27
  0 0.111113 -0.111113 -10.721141 0.044559 0.266879 -1.703854
  1 0.000000 0.000000 0.000000 -3.141168 -1.462909 1.570796
  2 4.465457 -0.004008 -0.472665 -0.116376 0.187715 0.274424
  3 5.037136 -0.005101 -0.000238 0.080534 -0.072015 0.318693
  4 6.388059 -0.005253 -0.000001 -0.034012 0.047676 -0.274192
  5 6.146608 1.394838 0.000001 -0.000001 -0.000002 0.650292
  6 -2.170032 1.352243 -2.953732 -1.467414 1.167758 1.032197
  7 5.760270 -0.000012 -0.000009 0.103483 -1.174308 0.457010
  8 10.965153 0.000065 -0.000006 0.000013 0.000002 -1.800210
  9 0.000007 -0.000004 -4.044200 -0.026336 2.831558 -1.484179
 10 -0.000007 0.000007 4.044200 0.008852 -2.965005 -1.276892
 11 17.182070 0.000091 0.000546 0.000004 -0.000009 -1.240363
 12 16.782913 0.000650 -0.000234 -0.041462 0.016434 0.286496
 13 5.168527 5.004116 -0.000135 0.000010 0.000000 1.570793
 14 17.182070 0.000099 0.000206 -0.000001 -0.000007 -2.283101
 15 16.782906 0.000656 -0.000113 0.109432 0.213369 0.540096
 16 5.168479 5.004167 -0.000064 0.000011 -0.000001 1.675336
 17 -2.170036 1.352229 2.953745 0.173459 -1.207234 2.328120
 18 5.760273 0.000016 0.000006 -0.428263 0.816435 0.023515
time 28
  0 0.111113 -0.111113 -10.572699 0.045802 0.260406 -1.702633
  1 0.000000 0.000000 0.000000 -3.141168 -1.462909 1.570796
  2 4.465457 -0.004008 -0.472665 -0.116376 0.187715 0.274424
  3 5.037136 -0.005101 -0.000238 0.080534 -0.072015 0.318693
  4 6.388059 -0.005253 -0.000001 -0.034012 0.047676 -0.274192
  5 6.146608 1.394838 0.000001 -0.000001 -0.000002 0.650292
  6 -2.170032 1.352243 -2.953732 -1.467414 1.167758 1.032197
  7 5.760270 -0.000012 -0.000009 0.103483 -1.174308 0.457010
  8 10.965153 0.000065 -0.000006 0.000013 0.000002 -1.800210
  9 0.000007 -0.000004 -4.044200 0.002124 2.878371 -1.406314
 10 -0.000007 0.000007 4.044200 0.003006 -2.967301 -1.224991
 11 17.182070 0.000091 0.000546 0.000004 -0.000009 -1.145215
 12 16.782913 0.000650 -0.000234 -0.038127 0.014970 0.262416
 13 5.168527 5.004116 -0.000135 0.000010 0.000000 1.570793
 14 17.182070 0.000099 0.000206 -0.000001 -0.000007 -2.193672
 15 16.782906 0.000656 -0.000113 0.134381 0.209257 0.542843
 16 5.168479 5.004167 -0.000064 0.000011 -0.000001 1.711974
 17 -2.170036 1.352229 2.953745 0.173459 -1.207234 2.328120
 18 5.760273 0.000016 0.000006 -0.428263 0.816435 0.023515
time 29
  0 0.103300 -0.103300 -10.346129 0.044559 0.249387 -1.699160
  1 0.000000 0.000000 0.000000 -3.141168 -1.462909 1.570796
  2 4.465457 -0.004008 -0.472665 -0.116376 0.187715 0.274424
  3 5.037136 -0.005101 -0.000238 0.080534 -0.072015 0.318693
  4 6.388059 -0.005253 -0.000001 -0.034012 0.047676 -0.274192
  5 6.146608 1.394838 0.000001 -0.000001 -0.000002 0.650292
  6 -2.170032 1.352243 -2.953732 -1.467414 1.167758 1.032197
  7 5.760270 -0.000012 -0.000009 0.103483 -1.174308 0.457010
  8 10.965153 0.000065 -0.000006 0.000013 0.000002 -1.800210
  9 0.000007 -0.000004 -4.044200 0.025841 2.926999 -1.317939
 10 -0.000007 0.000007 4.044200 -0.001403 -2.967577 -1.189339
 11 17.182070 0.000091 0.000546 0.000004 -0.000009 -1.097963
 12 16.782913 0.000650 -0.000234 -0.033639 0.015600 0.247710
 13 5.168527 5.004116 -0.000135 0.000010 0.000000 1.570793
 14 17.182070 0.000099 0.000206 -0.000001 -0.000007 -2.087864
 15 16.782906 0.000656 -0.000113 0.157721 0.204898 0.535617
 16 5.168479 5.004167 -0.000064 0.000011 -0.000001 1.750231
 17 -2.170036 1.352229 2.953745 0.173459 -1.207234 2.328120
 18 5.760273 0.000016 0.000006 -0.428263 0.816435 0.023515
time 30
  0 0.103300 -0.103300 -10.029714 0.041786 0.234711 -1.693244
  1 0.000000 0.000000 0.000000 -3.141168 -1.462909 1.570796
  2 4.465457 -0.004008 -0.472665 -0.116376 0.187715 0.274424
  3 5.037136 -0.005101 -0.000238 0.080534 -0.072015 0.318693
  4 6.388059 -0.005253 -0.000001 -0.034012 0.047676 -0.274192
  5 6.146608 1.394838 0.000001 -0.000001 -0.000002 0.650292
  6 -2.170032 1.352243 -2.953732 -1.467414 1.167758 1.032197
  7 5.760270 -0.000012 -0.000009 0.103483 -1.174308 0.457010
  8 10.965153 0.000065 -0.000006 0.000013 0.000002 -1.800210
  9 0.000007 -0.000004 -4.044200 0.044055 2.975627 -1.224406
 10 -0.000007 0.000007 4.044200 -0.005620 -2.967026 -1.152732
 11 17.182070 0.000091 0.000546 0.000004 -0.000009 -1.056520
 12 16.782913 0.000650 -0.000234 -0.027385 0.017064 0.232800
 13 5.168527 5.004116 -0.000135 0.000010 0.000000 1.570793
 14 17.182070 0.000099 0.000206 -0.000001 -0.000007 -1.969105
 15 16.782906 0.000656 -0.000113 0.178962 0.200786 0.517967
 16 5.168479 5.004167 -0.000064 0.000011 -0.000001 1.788204
 17 -2.170036 1.352229 2.953745 0.173459 -1.207234 2.328120
 18 5.760273 0.000016 0.000006 -0.428263 0.816435 0.023515
time 31
  0 0.103300 -0.103300 -9.658608 0.037579 0.217318 -1.685733
  1 0.000000 0.000000 0.000000 -3.141168 -1.462909 1.570796
  2 4.465457 -0.004008 -0.472665 -0.116376 0.187715 0.274424
  3 5.037136 -0.005101 -0.000238 0.080534 -0.072015 0.318693
  4 6.388059 -0.005253 -0.000001 -0.034012 0.047676 -0.274192
  5 6.146608 1.394838 0.000001 -0.000001 -0.000002 0.650292
  6 -2.170032 1.352243 -2.953732 -1.467414 1.167758 1.032197
  7 5.760270 -0.000012 -0.000009 0.103483 -1.174308 0.457010
  8 10.965153 0.000065 -0.000006 0.000013 0.000002 -1.800210
  9 0.000007 -0.000004 -4.044200 0.055345 3.023108 -1.127815
 10 -0.000007 0.000007 4.044200 -0.009262 -2.967301 -1.103794
 11 17.182070 0.000091 0.000546 0.000004 -0.000009 -0.996291
 12 16.782913 0.000650 -0.000234 -0.022554 0.016156 0.215954
 13 5.168527 5.004116 -0.000135 0.000010 0.000000 1.570793
 14 17.182070 0.000099 0.000206 -0.000001 -0.000007 -1.841232
 15 16.782906 0.000656 -0.000113 0.197926 0.197229 0.490796
 16 5.168479 5.004167 -0.000064 0.000011 -0.000001 1.824155
 17 -2.170036 1.352229 2.953745 0.173459 -1.207234 2.328120
 18 5.760273 0.000016 0.000006 -0.428263 0.816435 0.023515
time 32
  0 0.103300 -0.103300 -9.252346 0.032033 0.197849 -1.677095
  1 0.000000 0.000000 0.000000 -3.141168 -1.462909 1.570796
  2 4.465457 -0.004008 -0.472665 -0.116376 0.187715 0.274424
  3 5.037136 -0.005101 -0.000238 0.080534 -0.072015 0.318693
  4 6.388059 -0.005253 -0.000001 -0.034012 0.047676 -0.274192
  5 6.146608 1.394838 0.000001 -0.000001 -0.000002 0.650292
  6 -2.170032 1.352243 -2.953732 -1.467414 1.167758 1.032197
  7 5.760270 -0.000012 -0.000009 0.103483 -1.174308 0.457010
  8 10.965153 0.000065 -0.000006 0.000013 0.000002 -1.800210
  9 0.000007 -0.000004 -4.044200 0.060752 3.066673 -1.030555
 10 -0.000007 0.000007 4.044200 -0.011275 -2.968220 -1.047975
 11 17.182070 0.000091 0.000546 0.000004 -0.000009 -0.926597
 12 16.782913 0.000650 -0.000234 -0.020984 0.012561 0.199040
 13 5.168527 5.004116 -0.000135 0.000010 0.000000 1.570793
 14 17.182070 0.000099 0.000206 -0.000001 -0.000007 -1.708219
 15 16.782906 0.000656 -0.000113 0.214776 0.194289 0.455872
 16 5.168479 5.004167 -0.000064 0.000011 -0.000001 1.856302
 17 -2.170036 1.352229 2.953745 0.173459 -1.207234 2.328120
 18 5.760273 0.000016 0.000006 -0.428263 0.816435 0.023515
time 33
  0 0.091581 -0.091581 -8.822645 0.025722 0.177145 -1.667612
  1 0.000000 0.000000 0.000000 -3.141168 -1.462909 1.570796
  2 4.465457 -0.004008 -0.472665 -0.116376 0.187715 0.274457
  3 5.037136 -0.005101 -0.000238 0.080534 -0.072015 0.318693
  4 6.388059 -0.005253 -0.000001 -0.034012 0.047676 -0.274192
  5 6.146608 1.394838 0.000001 -0.000001 -0.000002 0.650292
  6 -2.170032 1.352243 -2.953732 -1.467414 1.167758 1.032197
  7 5.760270 -0.000012 -0.000009 0.103483 -1.174308 0.457010
  8 10.965153 0.000065 -0.000006 0.000013 0.000002 -1.800210
  9 0.000007 -0.000004 -4.044200 0.060942 3.106129 -0.935779
 10 -0.000007 0.000007 4.044200 -0.010125 -2.969690 -0.991869
 11 17.182070 0.000091 0.000546 0.000004 -0.000009 -0.857477
 12 16.782913 0.000650 -0.000234 -0.023118 0.006797 0.184674
 13 5.168527 5.004116 -0.000135 0.000010 0.000000 1.570793
 14 17.182070 0.000099 0.000206 -0.000001 -0.000007 -1.575069
 15 16.782906 0.000656 -0.000113 0.229755 0.192130 0.415641
 16 5.168479 5.004167 -0.000064 0.000011 -0.000001 1.883047
 17 -2.170036 1.352229 2.953745 0.173459 -1.207234 2.328120
 18 5.760273 0.000016 0.000006 -0.428263 0.816435 0.023515
time 34
  0 0.091581 -0.091581 -8.412477 0.018646 0.156046 -1.657472
  1 0.000000 0.000000 0.000000 -3.141168 -1.462909 1.570796
  2 4.465457 -0.004008 -0.472665 -0.116376 0.187715 0.274424
  3 5.037136 -0.005101 -0.000238 0.080534 -0.072015 0.318693
  4 6.388059 -0.005253 -0.000001 -0.034012 0.047676 -0.274192
  5 6.146608 1.394838 0.000001 -0.000001 -0.000002 0.650292
  6 -2.170032 1.352243 -2.953732 -1.467414 1.167758 1.032197
  7 5.760270 -0.000012 -0.000009 0.103483 -1.174308 0.457010
  8 10.965153 0.000065 -0.000006 0.000013 0.000002 -1.800210
  9 0.000007 -0.000004 -4.044200 0.058191 3.139472 -0.846449
 10 -0.000007 0.000007 4.044200 -0.007537 -2.970976 -0.938248
 11 17.182070 0.000091 0.000546 0.000004 -0.000009 -0.795527
 12 16.782913 0.000650 -0.000234 -0.027851 -0.000134 0.173670
 13 5.168527 5.004116 -0.000135 0.000010 0.000000 1.570793
 14 17.182070 0.000099 0.000206 -0.000001 -0.000007 -1.448292
 15 16.782906 0.000656 -0.000113 0.243352 0.190835 0.373416
 16 5.168479 5.004167 -0.000064 0.000011 -0.000001 1.903117
 17 -2.170036 1.352229 2.953745 0.173459 -1.207234 2.328120
 18 5.760273 0.000016 0.000006 -0.428263 0.816435 0.023515
time 35
  0 0.091581 -0.091581 -8.010120 0.011188 0.135095 -1.647332
  1 0.000000 0.000000 0.000000 -3.141168 -1.462909 1.570796
  2 4.465457 -0.004008 -0.472665 -0.116376 0.187715 0.274457
  3 5.037136 -0.005101 -0.000238 0.080534 -0.072015 0.318693
  4 6.388059 -0.005253 -0.000001 -0.034012 0.047676 -0.274192
  5 6.146608 1.394838 0.000001 -0.000001 -0.000002 0.650292
  6 -2.170032 1.352243 -2.953732 -1.467414 1.167758 1.032197
  7 5.760270 -0.000012 -0.000009 0.103483 -1.174308 0.457010
  8 10.965153 0.000065 -0.000006 0.000013 0.000002 -1.800210
  9 0.000007 -0.000004 -4.044200 0.053068 3.166986 -0.766387
 10 -0.000007 0.000007 4.044200 -0.002361 -2.971711 -0.890744
 11 17.182070 0.000091 0.000546 0.000004 -0.000009 -0.744188
 12 16.782913 0.000650 -0.000234 -0.034914 -0.007880 0.167115
 13 5.168527 5.004116 -0.000135 0.000010 0.000000 1.570793
 14 17.182070 0.000099 0.000206 -0.000001 -0.000007 -1.336454
 15 16.782906 0.000656 -0.000113 0.256087 0.190650 0.333374
 16 5.168479 5.004167 -0.000064 0.000011 -0.000001 1.915619
 17 -2.170036 1.352229 2.953745 0.173459 -1.207234 2.328120
 18 5.760273 0.000016 0.000006 -0.428263 0.816435 0.023515
time 36
  0 0.079862 -0.079862 -7.666360 0.003825 0.115330 -1.637755
  1 0.000000 0.000000 0.000000 -3.141168 -1.462909 1.570796
  2 4.465457 -0.004008 -0.472665 -0.116376 0.187715 0.274424
  3 5.037136 -0.005101 -0.000238 0.080534 -0.072015 0.318693
  4 6.388059 -0.005253 -0.000001 -0.034012 0.047676 -0.274192
  5 6.146608 1.394838 0.000001 -0.000001 -0.000002 0.650292
  6 -2.170032 1.352243 -2.953732 -1.467414 1.167758 1.032197
  7 5.760270 -0.000012 -0.000009 0.103483 -1.174308 0.457010
  8 10.965153 0.000065 -0.000006 0.000013 0.000002 -1.800210
  9 0.000007 -0.000004 -4.044200 0.048514 3.187240 -0.701897
 10 -0.000007 0.000007 4.044200 0.004156 -2.972262 -0.851652
 11 17.182070 0.000091 0.000546 0.000004 -0.000009 -0.707621
 12 16.782913 0.000650 -0.000234 -0.044307 -0.016367 0.166504
 13 5.168527 5.004116 -0.000135 0.000010 0.000000 1.570793
 14 17.182070 0.000099 0.000206 -0.000001 -0.000007 -1.250109
 15 16.782906 0.000656 -0.000113 0.268399 0.191760 0.300821
 16 5.168479 5.004167 -0.000064 0.000011 -0.000001 1.919848
 17 -2.170036 1.352229 2.953745 0.173459 -1.207234 2.328120
 18 5.760273 0.000016 0.000006 -0.428263 0.816435 0.023515
time 37
  0 0.079862 -0.079862 -7.400727 -0.002869 0.097294 -1.628366
  1 0.000000 0.000000 0.000000 -3.141168 -1.462909 1.570796
  2 4.465457 -0.004008 -0.472665 -0.116376 0.187715 0.274424
  3 5.037136 -0.005101 -0.000238 0.080534 -0.072015 0.318693
  4 6.388059 -0.005253 -0.000001 -0.034012 0.047676 -0.274192
  5 6.146608 1.394838 0.000001 -0.000001 -0.000002 0.650292
  6 -2.170032 1.352243 -2.953732 -1.467414 1.167758 1.032197
  7 5.760270 -0.000012 -0.000009 0.103483 -1.174308 0.457010
  8 10.965153 0.000065 -0.000006 0.000013 0.000002 -1.800210
  9 0.000007 -0.000004 -4.044200 0.048324 3.198800 -0.660528
 10 -0.000007 0.000007 4.044200 0.012686 -2.972538 -0.824029
 11 17.182070 0.000091 0.000546 0.000004 -0.000009 -0.689050
 12 16.782913 0.000650 -0.000234 -0.055809 -0.025392 0.174111
 13 5.168527 5.004116 -0.000135 0.000010 0.000000 1.570793
 14 17.182070 0.000099 0.000206 -0.000001 -0.000007 -1.202688
 15 16.782906 0.000656 -0.000113 0.278678 0.193960 0.281515
 16 5.168479 5.004167 -0.000064 0.000011 -0.000001 1.919848
 17 -2.170036 1.352229 2.953745 0.173459 -1.207234 2.328120
 18 5.760273 0.000016 0.000006 -0.428263 0.816435 0.023515
time 38
  0 0.079862 -0.079862 -7.209315 -0.009084 0.081729 -1.620104
  1 0.000000 0.000000 0.000000 -3.141168 -1.462909 1.570796
  2 4.465457 -0.004008 -0.472665 -0.116376 0.187715 0.274424
  3 5.037136 -0.005101 -0.000238 0.080534 -0.072015 0.318693
  4 6.388059 -0.005253 -0.000001 -0.034012 0.047676 -0.274192
  5 6.146608 1.394838 0.000001 -0.000001 -0.000002 0.650292
  6 -2.170032 1.352243 -2.953732 -1.467414 1.167758 1.032197
  7 5.760270 -0.000012 -0.000009 0.103483 -1.174308 0.457010
  8 10.965153 0.000065 -0.000006 0.000013 0.000002 -1.800210
  9 0.000007 -0.000004 -4.044200 0.041779 3.213703 -0.615529
 10 -0.000007 0.000007 4.044200 0.023229 -2.973273 -0.809118
 11 17.182070 0.000091 0.000546 0.000004 -0.000009 -0.691846
 12 16.782913 0.000650 -0.000234 -0.069420 -0.034825 0.190448
 13 5.168527 5.004116 -0.000135 0.000010 0.000000 1.570793
 14 17.182070 0.000099 0.000206 -0.000001 -0.000007 -1.144644
 15 16.782906 0.000656 -0.000113 0.290567 0.195913 0.260177
 16 5.168479 5.004167 -0.000064 0.000011 -0.000001 1.919848
 17 -2.170036 1.352229 2.953745 0.173459 -1.207234 2.328120
 18 5.760273 0.000016 0.000006 -0.428263 0.816435 0.023515
time 39
  0 0.079862 -0.079862 -7.127281 -0.013865 0.069376 -1.613907
  1 0.000000 0.000000 0.000000 -3.141168 -1.462909 1.570796
  2 4.465457 -0.004008 -0.472665 -0.116376 0.187715 0.274424
  3 5.037136 -0.005101 -0.000238 0.080534 -0.072015 0.318693
  4 6.388059 -0.005253 -0.000001 -0.034012 0.047676 -0.274192
  5 6.146608 1.394838 0.000001 -0.000001 -0.000002 0.650292
  6 -2.170032 1.352243 -2.953732 -1.467414 1.167758 1.032197
  7 5.760270 -0.000012 -0.000009 0.103483 -1.174308 0.457010
  8 10.965153 0.000065 -0.000006 0.000013 0.000002 -1.800210
  9 0.000007 -0.000004 -4.044200 0.034379 3.226314 -0.582281
 10 -0.000007 0.000007 4.044200 0.034539 -2.974743 -0.809978
 11 17.182070 0.000091 0.000546 0.000004 -0.000009 -0.717157
 12 16.782913 0.000650 -0.000234 -0.084944 -0.044591 0.216362
 13 5.168527 5.004116 -0.000135 0.000010 0.000000 1.570793
 14 17.182070 0.000099 0.000206 -0.000001 -0.000007 -1.103870
 15 16.782906 0.000656 -0.000113 0.302391 0.198216 0.246553
 16 5.168479 5.004167 -0.000064 0.000011 -0.000001 1.919848
 17 -2.170036 1.352229 2.953745 0.173459 -1.207234 2.328120
 18 5.760273 0.000016 0.000006 -0.428263 0.816435 0.023515
time 40
  0 0.068143 -0.068143 -7.181970 -0.016925 0.060877 -1.609682
  1 0.000000 0.000000 0.000000 -3.141168 -1.462909 1.570796
  2 4.465457 -0.004008 -0.472665 -0.116376 0.187715 0.274424
  3 5.037136 -0.005101 -0.000238 0.080534 -0.072015 0.318693
  4 6.388059 -0.005253 -0.000001 -0.034012 0.047676 -0.274192
  5 6.146608 1.394838 0.000001 -0.000001 -0.000002 0.650292
  6 -2.170032 1.352243 -2.953732 -1.467414 1.167758 1.032197
  7 5.760270 -0.000012 -0.000009 0.103483 -1.174308 0.457010
  8 10.965153 0.000065 -0.000006 0.000013 0.000002 -1.800210
  9 0.000007 -0.000004 -4.044200 0.028118 3.235103 -0.567950
 10 -0.000007 0.000007 4.044200 0.046903 -2.977591 -0.825749
 11 17.182070 0.000091 0.000546 0.000004 -0.000009 -0.764193
 12 16.782913 0.000650 -0.000234 -0.102234 -0.054486 0.251072
 13 5.168527 5.004116 -0.000135 0.000010 0.000000 1.570793
 14 17.182070 0.000099 0.000206 -0.000001 -0.000007 -1.092426
 15 16.782906 0.000656 -0.000113 0.312313 0.200642 0.245199
 16 5.168479 5.004167 -0.000064 0.000011 -0.000001 1.919848
 17 -2.170036 1.352229 2.953745 0.173459 -1.207234 2.328120
 18 5.760273 0.000016 0.000006 -0.428263 0.816435 0.023515
time 41
  0 0.068143 -0.068143 -7.326506 -0.018933 0.055491 -1.607053
  1 0.000000 0.000000 0.000000 -3.141168 -1.462909 1.570796
  2 4.465457 -0.004008 -0.472665 -0.116376 0.187715 0.274457
  3 5.037136 -0.005101 -0.000238 0.080534 -0.072015 0.318693
  4 6.388059 -0.005253 -0.000001 -0.034012 0.047676 -0.274192
  5 6.146608 1.394838 0.000001 -0.000001 -0.000002 0.650292
  6 -2.170032 1.352243 -2.953732 -1.467414 1.167758 1.032197
  7 5.760270 -0.000012 -0.000009 0.103483 -1.174308 0.457010
  8 10.965153 0.000065 -0.000006 0.000013 0.000002 -1.800210
  9 0.000007 -0.000004 -4.044200 0.024133 3.240071 -0.568141
 10 -0.000007 0.000007 4.044200 0.059171 -2.981174 -0.851365
 11 17.182070 0.000091 0.000546 0.000004 -0.000009 -0.823992
 12 16.782913 0.000650 -0.000234 -0.119916 -0.064327 0.290096
 13 5.168527 5.004116 -0.000135 0.000010 0.000000 1.570793
 14 17.182070 0.000099 0.000206 -0.000001 -0.000007 -1.104761
 15 16.782906 0.000656 -0.000113 0.320315 0.203171 0.253741
 16 5.168479 5.004167 -0.000064 0.000011 -0.000001 1.919848
 17 -2.170036 1.352229 2.953745 0.173459 -1.207234 2.328120
 18 5.760273 0.000016 0.000006 -0.428263 0.816435 0.023515
time 42
  0 0.068143 -0.068143 -7.525731 -0.020176 0.051192 -1.604706
  1 0.000000 0.000000 0.000000 -3.141168 -1.462909 1.570796
  2 4.465457 -0.004008 -0.472665 -0.116376 0.187715 0.274424
  3 5.037136 -0.005101 -0.000238 0.080534 -0.072015 0.318693
  4 6.388059 -0.005253 -0.000001 -0.034012 0.047676 -0.274192
  5 6.146608 1.394838 0.000001 -0.000001 -0.000002 0.650292
  6 -2.170032 1.352243 -2.953732 -1.467414 1.167758 1.032197
  7 5.760270 -0.000012 -0.000009 0.103483 -1.174308 0.457010
  8 10.965153 0.000065 -0.000006 0.000013 0.000002 -1.800210
  9 0.000007 -0.000004 -4.044200 0.022615 3.242460 -0.577408
 10 -0.000007 0.000007 4.044200 0.069522 -2.984940 -0.880039
 11 17.182070 0.000091 0.000546 0.000004 -0.000009 -0.886874
 12 16.782913 0.000650 -0.000234 -0.135734 -0.073778 0.328678
 13 5.168527 5.004116 -0.000135 0.000010 0.000000 1.570793
 14 17.182070 0.000099 0.000206 -0.000001 -0.000007 -1.131967
 15 16.782906 0.000656 -0.000113 0.326837 0.205741 0.268193
 16 5.168479 5.004167 -0.000064 0.000011 -0.000001 1.919848
 17 -2.170036 1.352229 2.953745 0.173459 -1.207234 2.328120
 18 5.760273 0.000016 0.000006 -0.428263 0.816435 0.023515
time 43
  0 0.068143 -0.068143 -7.771832 -0.021419 0.047832 -1.603110
  1 0.000000 0.000000 0.000000 -3.141168 -1.462909 1.570796
  2 4.465457 -0.004008 -0.472665 -0.116376 0.187715 0.274424
  3 5.037136 -0.005101 -0.000238 0.080534 -0.072015 0.318693
  4 6.388059 -0.005253 -0.000001 -0.034012 0.047676 -0.274192
  5 6.146608 1.394838 0.000001 -0.000001 -0.000002 0.650292
  6 -2.170032 1.352243 -2.953732 -1.467414 1.167758 1.032197
  7 5.760270 -0.000012 -0.000009 0.103483 -1.174308 0.457010
  8 10.965153 0.000065 -0.000006 0.000013 0.000002 -1.800210
  9 0.000007 -0.000004 -4.044200 0.023374 3.242651 -0.592981
 10 -0.000007 0.000007 4.044200 0.077765 -2.988248 -0.910147
 11 17.182070 0.000091 0.000546 0.000004 -0.000009 -0.950975
 12 16.782913 0.000650 -0.000234 -0.149100 -0.082747 0.365732
 13 5.168527 5.004116 -0.000135 0.000010 0.000000 1.570793
 14 17.182070 0.000099 0.000206 -0.000001 -0.000007 -1.170411
 15 16.782906 0.000656 -0.000113 0.331212 0.208085 0.286934
 16 5.168479 5.004167 -0.000064 0.000011 -0.000001 1.919848
 17 -2.170036 1.352229 2.953745 0.173459 -1.207234 2.328120
 18 5.760273 0.000016 0.000006 -0.428263 0.816435 0.023515
time 44
  0 0.060330 -0.060330 -8.041371 -0.022184 0.045559 -1.601983
  1 0.000000 0.000000 0.000000 -3.141168 -1.462909 1.570796
  2 4.465457 -0.004008 -0.472665 -0.116376 0.187715 0.274457
  3 5.037136 -0.005101 -0.000238 0.080534 -0.072015 0.318693
  4 6.388059 -0.005253 -0.000001 -0.034012 0.047676 -0.274192
  5 6.146608 1.394838 0.000001 -0.000001 -0.000002 0.650292
  6 -2.170032 1.352243 -2.953732 -1.467414 1.167758 1.032197
  7 5.760270 -0.000012 -0.000009 0.103483 -1.174308 0.457010
  8 10.965153 0.000065 -0.000006 0.000013 0.000002 -1.800210
  9 0.000007 -0.000004 -4.044200 0.026600 3.240549 -0.613045
 10 -0.000007 0.000007 4.044200 0.083515 -2.990544 -0.941307
 11 17.182070 0.000091 0.000546 0.000004 -0.000009 -1.014288
 12 16.782913 0.000650 -0.000234 -0.159057 -0.091234 0.399525
 13 5.168527 5.004116 -0.000135 0.000010 0.000000 1.570793
 14 17.182070 0.000099 0.000206 -0.000001 -0.000007 -1.216393
 15 16.782906 0.000656 -0.000113 0.332936 0.209956 0.308273
 16 5.168479 5.004167 -0.000064 0.000011 -0.000001 1.919848
 17 -2.170036 1.352229 2.953745 0.173459 -1.207234 2.328120
 18 5.760273 0.000016 0.000006 -0.428263 0.816435 0.023515
time 45
  0 0.060330 -0.060330 -8.373413 -0.022758 0.044027 -1.601232
  1 0.000000 0.000000 0.000000 -3.141168 -1.462909 1.570796
  2 4.465457 -0.004008 -0.472665 -0.116376 0.187715 0.274457
  3 5.037136 -0.005101 -0.000238 0.080534 -0.072015 0.318693
  4 6.388059 -0.005253 -0.000001 -0.034012 0.047676 -0.274192
  5 6.146608 1.394838 0.000001 -0.000001 -0.000002 0.650292
  6 -2.170032 1.352243 -2.953732 -1.467414 1.167758 1.032197
  7 5.760270 -0.000012 -0.000009 0.103483 -1.174308 0.457010
  8 10.965153 0.000065 -0.000006 0.000013 0.000002 -1.800210
  9 0.000007 -0.000004 -4.044200 0.032482 3.236059 -0.636548
 10 -0.000007 0.000007 4.044200 0.086295 -2.991463 -0.972370
 11 17.182070 0.000091 0.000546 0.000004 -0.000009 -1.075091
 12 16.782913 0.000650 -0.000234 -0.164771 -0.098944 0.429718
 13 5.168527 5.004116 -0.000135 0.000010 0.000000 1.570793
 14 17.182070 0.000099 0.000206 -0.000001 -0.000007 -1.266556
 15 16.782906 0.000656 -0.000113 0.331456 0.210943 0.330665
 16 5.168479 5.004167 -0.000064 0.000011 -0.000001 1.919848
 17 -2.170036 1.352229 2.953745 0.173459 -1.207234 2.328120
 18 5.760273 0.000016 0.000006 -0.428263 0.816435 0.023515
time 46
  0 0.060330 -0.060330 -8.724986 -0.023140 0.043286 -1.601044
  1 0.000000 0.000000 0.000000 -3.141168 -1.462909 1.570796
  2 4.465457 -0.004008 -0.472665 -0.116376 0.187715 0.274424
  3 5.037136 -0.005101 -0.000238 0.080534 -0.072015 0.318693
  4 6.388059 -0.005253 -0.000001 -0.034012 0.047676 -0.274192
  5 6.146608 1.394838 0.000001 -0.000001 -0.000002 0.650292
  6 -2.170032 1.352243 -2.953732 -1.467414 1.167758 1.032197
  7 5.760270 -0.000012 -0.000009 0.103483 -1.174308 0.457010
  8 10.965153 0.000065 -0.000006 0.000013 0.000002 -1.800210
  9 0.000007 -0.000004 -4.044200 0.040735 3.228989 -0.661292
 10 -0.000007 0.000007 4.044200 0.086582 -2.990912 -1.001331
 11 17.182070 0.000091 0.000546 0.000004 -0.000009 -1.130516
 12 16.782913 0.000650 -0.000234 -0.165801 -0.105115 0.453934
 13 5.168527 5.004116 -0.000135 0.000010 0.000000 1.570793
 14 17.182070 0.000099 0.000206 -0.000001 -0.000007 -1.317952
 15 16.782906 0.000656 -0.000113 0.326170 0.210799 0.352906
 16 5.168479 5.004167 -0.000064 0.000011 -0.000001 1.919848
 17 -2.170036 1.352229 2.953745 0.173459 -1.207234 2.328120
 18 5.760273 0.000016 0.000006 -0.428263 0.816435 0.023515
time 47
  0 0.060330 -0.060330 -9.103904 -0.023236 0.043088 -1.601044
  1 0.000000 0.000000 0.000000 -3.141168 -1.462909 1.570796
  2 4.465457 -0.004008 -0.472665 -0.116376 0.187715 0.274424
  3 5.037136 -0.005101 -0.000238 0.080534 -0.072015 0.318693
  4 6.388059 -0.005253 -0.000001 -0.034012 0.047676 -0.274192
  5 6.146608 1.394838 0.000001 -0.000001 -0.000002 0.650292
  6 -2.170032 1.352243 -2.953732 -1.467414 1.167758 1.032197
  7 5.760270 -0.000012 -0.000009 0.103483 -1.174308 0.457010
  8 10.965153 0.000065 -0.000006 0.000013 0.000002 -1.800210
  9 0.000007 -0.000004 -4.044200 0.050791 3.219435 -0.686228
 10 -0.000007 0.000007 4.044200 0.086966 -2.990085 -1.029050
 11 17.182070 0.000091 0.000546 0.000004 -0.000009 -1.179129
 12 16.782913 0.000650 -0.000234 -0.164256 -0.109062 0.472852
 13 5.168527 5.004116 -0.000135 0.000010 0.000000 1.570793
 14 17.182070 0.000099 0.000206 -0.000001 -0.000007 -1.368114
 15 16.782906 0.000656 -0.000113 0.316623 0.209010 0.373906
 16 5.168479 5.004167 -0.000064 0.000011 -0.000001 1.919848
 17 -2.170036 1.352229 2.953745 0.173459 -1.207234 2.328120
 18 5.760273 0.000016 0.000006 -0.428263 0.816435 0.023515
time 48
  0 0.060330 -0.060330 -9.510166 -0.022949 0.043632 -1.601044
  1 0.000000 0.000000 0.000000 -3.141168 -1.462909 1.570796
  2 4.465457 -0.004008 -0.472665 -0.116376 0.187715 0.274424
  3 5.037136 -0.005101 -0.000238 0.080534 -0.072015 0.318693
  4 6.388059 -0.005253 -0.000001 -0.034012 0.047676 -0.274192
  5 6.146608 1.394838 0.000001 -0.000001 -0.000002 0.650292
  6 -2.170032 1.352243 -2.953732 -1.467414 1.167758 1.032197
  7 5.760270 -0.000012 -0.000009 0.103483 -1.174308 0.457010
  8 10.965153 0.000065 -0.000006 0.000013 0.000002 -1.800210
  9 0.000007 -0.000004 -4.044200 0.063883 3.207398 -0.709731
 10 -0.000007 0.000007 4.044200 0.089362 -2.991004 -1.055622
 11 17.182070 0.000091 0.000546 0.000004 -0.000009 -1.221577
 12 16.782913 0.000650 -0.000234 -0.163545 -0.110618 0.488441
 13 5.168527 5.004116 -0.000135 0.000010 0.000000 1.570793
 14 17.182070 0.000099 0.000206 -0.000001 -0.000007 -1.414988
 15 16.782906 0.000656 -0.000113 0.302278 0.205289 0.392722
 16 5.168479 5.004167 -0.000064 0.000011 -0.000001 1.919848
 17 -2.170036 1.352229 2.953745 0.173459 -1.207234 2.328120
 18 5.760273 0.000016 0.000006 -0.428263 0.816435 0.023515
time 49
  0 0.060330 -0.060330 -9.943773 -0.022662 0.044521 -1.601889
  1 0.000000 0.000000 0.000000 -3.141168 -1.462909 1.570796
  2 4.465457 -0.004008 -0.472665 -0.116376 0.187715 0.274424
  3 5.037136 -0.005101 -0.000238 0.080534 -0.072015 0.318693
  4 6.388059 -0.005253 -0.000001 -0.034012 0.047676 -0.274192
  5 6.146608 1.394838 0.000001 -0.000001 -0.000002 0.650292
  6 -2.170032 1.352243 -2.953732 -1.467414 1.167758 1.032197
  7 5.760270 -0.000012 -0.000009 0.103483 -1.174308 0.457010
  8 10.965153 0.000065 -0.000006 0.000013 0.000002 -1.800210
  9 0.000007 -0.000004 -4.044200 0.068152 3.202717 -0.729795
 10 -0.000007 0.000007 4.044200 0.087828 -2.988983 -1.084009
 11 17.182070 0.000091 0.000546 0.000004 -0.000009 -1.267824
 12 16.782913 0.000650 -0.000234 -0.158223 -0.112898 0.502671
 13 5.168527 5.004116 -0.000135 0.000010 0.000000 1.570793
 14 17.182070 0.000099 0.000206 -0.000001 -0.000007 -1.455145
 15 16.782906 0.000656 -0.000113 0.297333 0.204384 0.412179
 16 5.168479 5.004167 -0.000064 0.000011 -0.000001 1.919848
 17 -2.170036 1.352229 2.953745 0.173459 -1.207234 2.328120
 18 5.760273 0.000016 0.000006 -0.428263 0.816435 0.023515
time 50
  0 0.060330 -0.060330 -10.385193 -0.022184 0.045905 -1.602171
  1 0.000000 0.000000 0.000000 -3.141168 -1.462909 1.570796
  2 4.465457 -0.004008 -0.472665 -0.116376 0.187715 0.274457
  3 5.037136 -0.005101 -0.000238 0.080534 -0.072015 0.318693
  4 6.388059 -0.005253 -0.000001 -0.034012 0.047676 -0.274192
  5 6.146608 1.394838 0.000001 -0.000001 -0.000002 0.650292
  6 -2.170032 1.352243 -2.953732 -1.467414 1.167758 1.032197
  7 5.760270 -0.000012 -0.000009 0.103483 -1.174308 0.457010
  8 10.965153 0.000065 -0.000006 0.000013 0.000002 -1.800210
  9 0.000007 -0.000004 -4.044200 0.081907 3.188482 -0.753202
 10 -0.000007 0.000007 4.044200 0.074123 -2.976121 -1.116507
 11 17.182070 0.000091 0.000546 0.000004 -0.000009 -1.327121
 12 16.782913 0.000650 -0.000234 -0.137500 -0.117883 0.513234
 13 5.168527 5.004116 -0.000135 0.000010 0.000000 1.570793
 14 17.182070 0.000099 0.000206 -0.000001 -0.000007 -1.500579
 15 16.782906 0.000656 -0.000113 0.279800 0.199285 0.430168
 16 5.168479 5.004167 -0.000064 0.000011 -0.000001 1.919848
 17 -2.170036 1.352229 2.953745 0.173459 -1.207234 2.328120
 18 5.760273 0.000016 0.000006 -0.428263 0.816435 0.023515
time 51
  0 0.068143 -0.068143 -10.850051 -0.021706 0.047486 -1.602922
  1 0.000000 0.000000 0.000000 -3.141168 -1.462909 1.570796
  2 4.465457 -0.004008 -0.472665 -0.116376 0.187715 0.274457
  3 5.037136 -0.005101 -0.000238 0.080534 -0.072015 0.318693
  4 6.388059 -0.005253 -0.000001 -0.034012 0.047676 -0.274192
  5 6.146608 1.394838 0.000001 -0.000001 -0.000002 0.650292
  6 -2.170032 1.352243 -2.953732 -1.467414 1.167758 1.032197
  7 5.760270 -0.000012 -0.000009 0.103483 -1.174308 0.457010
  8 10.965153 0.000065 -0.000006 0.000013 0.000002 -1.800210
  9 0.000007 -0.000004 -4.044200 0.105340 3.164024 -0.779476
 10 -0.000007 0.000007 4.044200 0.049778 -2.952143 -1.150725
 11 17.182070 0.000091 0.000546 0.000004 -0.000009 -1.394090
 12 16.782913 0.000650 -0.000234 -0.101498 -0.122441 0.517140
 13 5.168527 5.004116 -0.000135 0.000010 0.000000 1.570793
 14 17.182070 0.000099 0.000206 -0.000001 -0.000007 -1.550605
 15 16.782906 0.000656 -0.000113 0.249516 0.189622 0.446388
 16 5.168479 5.004167 -0.000064 0.000011 -0.000001 1.919848
 17 -2.170036 1.352229 2.953745 0.173459 -1.207234 2.328120
 18 5.760273 0.000016 0.000006 -0.428263 0.816435 0.023515
time 52
  0 0.068143 -0.068143 -11.314909 -0.020941 0.049413 -1.603861
  1 0.000000 0.000000 0.000000 -3.141168 -1.462909 1.570796
  2 4.465457 -0.004008 -0.472665 -0.116376 0.187715 0.274424
  3 5.037136 -0.005101 -0.000238 0.080534 -0.072015 0.318693
  4 6.388059 -0.005253 -0.000001 -0.034012 0.047676 -0.274192
  5 6.146608 1.394838 0.000001 -0.000001 -0.000002 0.650292
  6 -2.170032 1.352243 -2.953732 -1.467414 1.167758 1.032197
  7 5.760270 -0.000012 -0.000009 0.103483 -1.174308 0.457010
  8 10.965153 0.000065 -0.000006 0.000013 0.000002 -1.800210
  9 0.000007 -0.000004 -4.044200 0.133420 3.132593 -0.806609
 10 -0.000007 0.000007 4.044200 0.021025 -2.919897 -1.184178
 11 17.182070 0.000091 0.000546 0.000004 -0.000009 -1.462996
 12 16.782913 0.000650 -0.000234 -0.055809 -0.124017 0.515272
 13 5.168527 5.004116 -0.000135 0.000010 0.000000 1.570793
 14 17.182070 0.000099 0.000206 -0.000001 -0.000007 -1.603029
 15 16.782906 0.000656 -0.000113 0.211279 0.176525 0.461442
 16 5.168479 5.004167 -0.000064 0.000011 -0.000001 1.919848
 17 -2.170036 1.352229 2.953745 0.173459 -1.207234 2.328120
 18 5.760273 0.000016 0.000006 -0.428263 0.816435 0.023515
time 53
  0 0.068143 -0.068143 -11.787580 -0.020176 0.051340 -1.604800
  1 0.000000 0.000000 0.000000 -3.141168 -1.462909 1.570796
  2 4.465457 -0.004008 -0.472665 -0.116376 0.187715 0.274457
  3 5.037136 -0.005101 -0.000238 0.080534 -0.072015 0.318693
  4 6.388059 -0.005253 -0.000001 -0.034012 0.047676 -0.274192
  5 6.146608 1.394838 0.000001 -0.000001 -0.000002 0.650292
  6 -2.170032 1.352243 -2.953732 -1.467414 1.167758 1.032197
  7 5.760270 -0.000012 -0.000009 0.103483 -1.174308 0.457010
  8 10.965153 0.000065 -0.000006 0.000013 0.000002 -1.800210
  9 0.000007 -0.000004 -4.044200 0.164063 3.094952 -0.833073
 10 -0.000007 0.000007 4.044200 -0.010604 -2.880668 -1.215815
 11 17.182070 0.000091 0.000546 0.000004 -0.000009 -1.532187
 12 16.782913 0.000650 -0.000234 -0.003302 -0.121293 0.508649
 13 5.168527 5.004116 -0.000135 0.000010 0.000000 1.570793
 14 17.182070 0.000099 0.000206 -0.000001 -0.000007 -1.656549
 15 16.782906 0.000656 -0.000113 0.167756 0.160611 0.475742
 16 5.168479 5.004167 -0.000064 0.000011 -0.000001 1.919848
 17 -2.170036 1.352229 2.953745 0.173459 -1.207234 2.328120
 18 5.760273 0.000016 0.000006 -0.428263 0.816435 0.023515
time 54
  0 0.068143 -0.068143 -12.260250 -0.019698 0.053366 -1.606208
  1 0.000000 0.000000 0.000000 -3.141168 -1.462909 1.570796
  2 4.465457 -0.004008 -0.472665 -0.116376 0.187715 0.274457
  3 5.037136 -0.005101 -0.000238 0.080534 -0.072015 0.318693
  4 6.388059 -0.005253 -0.000001 -0.034012 0.047676 -0.274192
  5 6.146608 1.394838 0.000001 -0.000001 -0.000002 0.650292
  6 -2.170032 1.352243 -2.953732 -1.467414 1.167758 1.032197
  7 5.760270 -0.000012 -0.000009 0.103483 -1.174308 0.457010
  8 10.965153 0.000065 -0.000006 0.000013 0.000002 -1.800210
  9 0.000007 -0.000004 -4.044200 0.196033 3.053871 -0.858392
 10 -0.000007 0.000007 4.044200 -0.042520 -2.835744 -1.245350
 11 17.182070 0.000091 0.000546 0.000004 -0.000009 -1.600375
 12 16.782913 0.000650 -0.000234 0.053104 -0.113454 0.499105
 13 5.168527 5.004116 -0.000135 0.000010 0.000000 1.570793
 14 17.182070 0.000099 0.000206 -0.000001 -0.000007 -1.709932
 15 16.782906 0.000656 -0.000113 0.121565 0.142477 0.489629
 16 5.168479 5.004167 -0.000064 0.000011 -0.000001 1.919848
 17 -2.170036 1.352229 2.953745 0.173459 -1.207234 2.328120
 18 5.760273 0.000016 0.000006 -0.428263 0.816435 0.023515
time 55
  0 0.068143 -0.068143 -12.729014 -0.018933 0.055293 -1.607053
  1 0.000000 0.000000 0.000000 -3.141168 -1.462909 1.570796
  2 4.465457 -0.004008 -0.472665 -0.116376 0.187715 0.274424
  3 5.037136 -0.005101 -0.000238 0.080534 -0.072015 0.318693
  4 6.388059 -0.005253 -0.000001 -0.034012 0.047676 -0.274192
  5 6.146608 1.394838 0.000001 -0.000001 -0.000002 0.650292
  6 -2.170032 1.352243 -2.953732 -1.467414 1.167758 1.032197
  7 5.760270 -0.000012 -0.000009 0.103483 -1.174308 0.457010
  8 10.965153 0.000065 -0.000006 0.000013 0.000002 -1.800210
  9 0.000007 -0.000004 -4.044200 0.226960 3.010498 -0.882181
 10 -0.000007 0.000007 4.044200 -0.073191 -2.787329 -1.271061
 11 17.182070 0.000091 0.000546 0.000004 -0.000009 -1.666412
 12 16.782913 0.000650 -0.000234 0.110295 -0.100574 0.488101
 13 5.168527 5.004116 -0.000135 0.000010 0.000000 1.570793
 14 17.182070 0.000099 0.000206 -0.000001 -0.000007 -1.762219
 15 16.782906 0.000656 -0.000113 0.074903 0.122986 0.503403
 16 5.168479 5.004167 -0.000064 0.000011 -0.000001 1.919848
 17 -2.170036 1.352229 2.953745 0.173459 -1.207234 2.328120
 18 5.760273 0.000016 0.000006 -0.428263 0.816435 0.023515
time 56
  0 0.068143 -0.068143 -13.197779 -0.018359 0.057072 -1.607898
  1 0.000000 0.000000 0.000000 -3.141168 -1.462909 1.570796
  2 4.465457 -0.004008 -0.472665 -0.116376 0.187715 0.274457
  3 5.037136 -0.005101 -0.000238 0.080534 -0.072015 0.318693
  4 6.388059 -0.005253 -0.000001 -0.034012 0.047676 -0.274192
  5 6.146608 1.394838 0.000001 -0.000001 -0.000002 0.650292
  6 -2.170032 1.352243 -2.953732 -1.467414 1.167758 1.032197
  7 5.760270 -0.000012 -0.000009 0.103483 -1.174308 0.457010
  8 10.965153 0.000065 -0.000006 0.000013 0.000002 -1.800210
  9 0.000007 -0.000004 -4.044200 0.255799 2.967506 -0.903582
 10 -0.000007 0.000007 4.044200 -0.101273 -2.737443 -1.294287
 11 17.182070 0.000091 0.000546 0.000004 -0.000009 -1.729080
 12 16.782913 0.000650 -0.000234 0.165548 -0.083488 0.477029
 13 5.168527 5.004116 -0.000135 0.000010 0.000000 1.570793
 14 17.182070 0.000099 0.000206 -0.000001 -0.000007 -1.812382
 15 16.782906 0.000656 -0.000113 0.030192 0.103187 0.517252
 16 5.168479 5.004167 -0.000064 0.000011 -0.000001 1.919848
 17 -2.170036 1.352229 2.953745 0.173459 -1.207234 2.328120
 18 5.760273 0.000016 0.000006 -0.428263 0.816435 0.023515
time 57
  0 0.068143 -0.068143 -13.654824 -0.017881 0.058604 -1.608743
  1 0.000000 0.000000 0.000000 -3.141168 -1.462909 1.570796
  2 4.465457 -0.004008 -0.472665 -0.116376 0.187715 0.274424
  3 5.037136 -0.005101 -0.000238 0.080534 -0.072015 0.318693
  4 6.388059 -0.005253 -0.000001 -0.034012 0.047676 -0.274192
  5 6.146608 1.394838 0.000001 -0.000001 -0.000002 0.650292
  6 -2.170032 1.352243 -2.953732 -1.467414 1.167758 1.032197
  7 5.760270 -0.000012 -0.000009 0.103483 -1.174308 0.457010
  8 10.965153 0.000065 -0.000006 0.000013 0.000002 -1.800210
  9 0.000007 -0.000004 -4.044200 0.280844 2.926617 -0.922690
 10 -0.000007 0.000007 4.044200 -0.125234 -2.689028 -1.314933
 11 17.182070 0.000091 0.000546 0.000004 -0.000009 -1.787373
 12 16.782913 0.000650 -0.000234 0.216068 -0.063641 0.467519
 13 5.168527 5.004116 -0.000135 0.000010 0.000000 1.570793
 14 17.182070 0.000099 0.000206 -0.000001 -0.000007 -1.859529
 15 16.782906 0.000656 -0.000113 -0.010306 0.084354 0.531177
 16 5.168479 5.004167 -0.000064 0.000011 -0.000001 1.919848
 17 -2.170036 1.352229 2.953745 0.173459 -1.207234 2.328120
 18 5.760273 0.000016 0.000006 -0.428263 0.816435 0.023515
time 58
  0 0.068143 -0.068143 -14.096244 -0.017403 0.059839 -1.608931
  1 0.000000 0.000000 0.000000 -3.141168 -1.462909 1.570796
  2 4.465457 -0.004008 -0.472665 -0.116376 0.187715 0.274457
  3 5.037136 -0.005101 -0.000238 0.080534 -0.072015 0.318693
  4 6.388059 -0.005253 -0.000001 -0.034012 0.047676 -0.274192
  5 6.146608 1.394838 0.000001 -0.000001 -0.000002 0.650292
  6 -2.170032 1.352243 -2.953732 -1.467414 1.167758 1.032197
  7 5.760270 -0.000012 -0.000009 0.103483 -1.174308 0.457010
  8 10.965153 0.000065 -0.000006 0.000013 0.000002 -1.800210
  9 0.000007 -0.000004 -4.044200 0.300577 2.890696 -0.939983
 10 -0.000007 0.000007 4.044200 -0.143541 -2.644655 -1.333475
 11 17.182070 0.000091 0.000546 0.000004 -0.000009 -1.840647
 12 16.782913 0.000650 -0.000234 0.259452 -0.043256 0.460761
 13 5.168527 5.004116 -0.000135 0.000010 0.000000 1.570793
 14 17.182070 0.000099 0.000206 -0.000001 -0.000007 -1.902770
 15 16.782906 0.000656 -0.000113 -0.044461 0.067741 0.545139
 16 5.168479 5.004167 -0.000064 0.000011 -0.000001 1.919848
 17 -2.170036 1.352229 2.953745 0.173459 -1.207234 2.328120
 18 5.760273 0.000016 0.000006 -0.428263 0.816435 0.023515
time 59
  0 0.068143 -0.068143 -14.510319 -0.017116 0.060630 -1.609682
  1 0.000000 0.000000 0.000000 -3.141168 -1.462909 1.570796
  2 4.465457 -0.004008 -0.472665 -0.116376 0.187715 0.274457
  3 5.037136 -0.005101 -0.000238 0.080534 -0.072015 0.318693
  4 6.388059 -0.005253 -0.000001 -0.034012 0.047676 -0.274192
  5 6.146608 1.394838 0.000001 -0.000001 -0.000002 0.650292
  6 -2.170032 1.352243 -2.953732 -1.467414 1.167758 1.032197
  7 5.760270 -0.000012 -0.000009 0.103483 -1.174308 0.457010
  8 10.965153 0.000065 -0.000006 0.000013 0.000002 -1.800210
  9 0.000007 -0.000004 -4.044200 0.311486 2.865474 -0.955556
 10 -0.000007 0.000007 4.044200 -0.152646 -2.612593 -1.352687
 11 17.182070 0.000091 0.000546 0.000004 -0.000009 -1.885245
 12 16.782913 0.000650 -0.000234 0.288341 -0.027393 0.458825
 13 5.168527 5.004116 -0.000135 0.000010 0.000000 1.570793
 14 17.182070 0.000099 0.000206 -0.000001 -0.000007 -1.940324
 15 16.782906 0.000656 -0.000113 -0.066564 0.056906 0.559139
 16 5.168479 5.004167 -0.000064 0.000011 -0.000001 1.919848
 17 -2.170036 1.352229 2.953745 0.173459 -1.207234 2.328120
 18 5.760273 0.000016 0.000006 -0.428263 0.816435 0.023515
time 60
  0 0.068143 -0.068143 -14.916581 -0.016925 0.060877 -1.609682
  1 0.000000 0.000000 0.000000 -3.141168 -1.462909 1.570796
  2 4.465457 -0.004008 -0.472665 -0.116376 0.187715 0.274424
  3 5.037136 -0.005101 -0.000238 0.080534 -0.072015 0.318693
  4 6.388059 -0.005253 -0.000001 -0.034012 0.047676 -0.274192
  5 6.146608 1.394838 0.000001 -0.000001 -0.000002 0.650292
  6 -2.170032 1.352243 -2.953732 -1.467414 1.167758 1.032197
  7 5.760270 -0.000012 -0.000009 0.103483 -1.174308 0.457010
  8 10.965153 0.000065 -0.000006 0.000013 0.000002 -1.800210
  9 0.000007 -0.000004 -4.044200 0.311961 2.854583 -0.969505
 10 -0.000007 0.000007 4.044200 -0.148812 -2.600833 -1.373715
 11 17.182070 0.000091 0.000546 0.000004 -0.000009 -1.917439
 12 16.782913 0.000650 -0.000234 0.296999 -0.020592 0.462934
 13 5.168527 5.004116 -0.000135 0.000010 0.000000 1.570793
 14 17.182070 0.000099 0.000206 -0.000001 -0.000007 -1.970819
 15 16.782906 0.000656 -0.000113 -0.073639 0.053986 0.573025
 16 5.168479 5.004167 -0.000064 0.000011 -0.000001 1.919848
 17 -2.170036 1.352229 2.953745 0.173459 -1.207234 2.328120
 18 5.760273 0.000016 0.000006 -0.428263 0.816435 0.023515
end
