version 1
nodes
  0 "Bip01"  -1
  1 "Bip01 Pelvis"   0
  2 "Bip01 Spine"   1
  3 "Bip01 Spine1"   2
  4 "Bip01 Spine2"   3
  5 "Bip01 Neck"   4
  6 "Bip01 R Clavicle"   5
  7 "Bip01 R UpperArm"   6
  8 "Bip01 R Forearm"   7
  9 "Bip01 R Thigh"   1
 10 "Bip01 L Thigh"   1
 11 "Bip01 L Calf"  10
 12 "Bip01 L Foot"  11
 13 "Bip01 L Toe0"  12
 14 "Bip01 R Calf"   9
 15 "Bip01 R Foot"  14
 16 "Bip01 R Toe0"  15
 17 "Bip01 L Clavicle"   5
 18 "Bip01 L UpperArm"  17
end
skeleton
time 0
  0 -0.099831 0.099831 -0.916154 0.000574 0.144434 -1.551564
  1 0.000000 0.000000 0.000000 -0.000424 -1.522859 -1.570796
  2 4.484989 -0.004008 0.210950 0.168168 -0.104717 -0.150508
  3 5.037136 -0.005101 -0.000238 -0.000005 0.000003 0.301439
  4 6.388059 -0.005253 -0.000001 0.000000 0.000000 0.257388
  5 6.146608 1.394838 0.000001 -0.142639 0.092939 0.492098
  6 -2.076279 1.426464 -2.984983 -0.730793 1.283805 1.933373
  7 5.760270 -0.000012 -0.000009 1.068454 -0.064744 -0.430149
  8 10.965153 0.000065 -0.000006 0.000013 0.000002 -0.918057
  9 0.000007 -0.000004 -4.044200 0.246692 2.962634 0.123569
 10 -0.000007 0.000007 4.044200 -0.093414 -2.941394 -1.344181
 11 17.182070 0.000091 0.000546 0.000004 -0.000009 -2.094542
 12 16.782913 0.000650 -0.000234 0.015680 -0.039031 0.119906
 13 5.168527 5.004116 -0.000135 0.000010 0.000000 1.459795
 14 17.182070 0.000099 0.000206 -0.000001 -0.000007 -0.538719
 15 16.782906 0.000656 -0.000113 0.030697 0.128496 0.222280
 16 5.168479 5.004167 -0.000064 0.142796 -0.041108 2.128773
 17 -2.615362 0.606112 2.840460 -0.903861 -1.069836 3.485781
 18 5.760273 0.000016 0.000006 0.016224 0.800824 0.606048
time 1
  0 2.017421 -2.017421 -0.818495 -0.026678 0.053218 -1.738030
  1 0.000000 0.000000 0.000000 -0.000424 -1.533469 -1.570796
  2 4.484989 -0.004008 0.164074 -0.011378 -0.081862 0.424207
  3 5.037136 -0.005101 -0.000238 -0.015650 0.002344 0.170388
  4 6.388059 -0.005253 -0.000001 -0.010774 -0.000438 0.174592
  5 6.146608 1.394838 0.000001 -0.093981 0.073409 0.791337
  6 -1.736425 1.922573 -2.922481 -1.136535 1.310806 1.219910
  7 5.760270 -0.000012 -0.000009 1.268786 0.335261 -0.668199
  8 10.965153 0.000065 -0.000006 0.000013 0.000002 -0.780494
  9 0.000007 -0.000004 -4.044200 0.161786 2.917541 0.095289
 10 -0.000007 0.000007 4.044200 -0.158588 -2.958482 -0.962239
 11 17.182070 0.000091 0.000546 0.000004 -0.000009 -1.598655
 12 16.782913 0.000650 -0.000234 -0.164207 0.080089 0.368958
 13 5.168527 5.004116 -0.000135 -0.034856 0.004484 1.435938
 14 17.182070 0.000099 0.000206 -0.000001 -0.000007 -0.565651
 15 16.782906 0.000656 -0.000113 -0.007589 0.131539 0.405330
 16 5.168479 5.004167 -0.000064 0.150735 -0.030382 1.860166
 17 -2.170036 1.371761 2.945932 -0.834026 -1.124342 3.124119
 18 5.760273 0.000016 0.000006 -0.696353 0.896481 -0.111534
time 2
  0 4.111235 -4.111235 -0.724742 -0.036718 -0.041359 -1.921960
  1 0.000000 0.000000 0.000000 -0.000424 -1.544982 -1.570704
  2 4.484989 -0.004008 0.113291 -0.084594 -0.007016 0.784551
  3 5.037136 -0.005101 -0.000238 -0.008287 -0.000129 0.047889
  4 6.388059 -0.005253 -0.000001 -0.016599 0.000000 0.087133
  5 6.146608 1.394838 0.000001 -0.050706 0.047468 1.118284
  6 -1.189533 2.332742 -2.902949 -1.666666 1.281669 0.344011
  7 5.760270 -0.000012 -0.000009 1.264702 0.649143 -0.749860
  8 10.965153 0.000065 -0.000006 0.000013 0.000002 -0.626277
  9 0.000007 -0.000004 -4.044200 0.069670 2.900727 0.036341
 10 -0.000007 0.000007 4.044200 -0.214849 -2.994495 -0.582973
 11 17.182070 0.000091 0.000546 0.000004 -0.000009 -1.102767
 12 16.782913 0.000650 -0.000234 -0.300881 0.237811 0.602591
 13 5.168527 5.004116 -0.000135 -0.104907 0.011085 1.387864
 14 17.182070 0.000099 0.000206 -0.000001 -0.000007 -0.594433
 15 16.782906 0.000656 -0.000113 -0.039370 0.118586 0.482403
 16 5.168479 5.004167 -0.000064 0.165823 -0.060044 1.673656
 17 -1.470796 2.028031 2.992809 -0.707087 -1.160146 2.679820
 18 5.760273 0.000016 0.000006 -1.028446 0.644280 -0.458495
time 3
  0 5.400337 -5.400337 -0.736461 -0.033276 -0.111772 -2.034159
  1 0.000000 0.000000 0.000000 -0.000424 -1.556092 -1.570796
  2 4.484989 -0.004008 0.062508 0.025441 0.010453 0.649385
  3 5.037136 -0.005101 -0.000238 0.069277 -0.006669 -0.071861
  4 6.388059 -0.005253 -0.000001 -0.007898 0.005120 -0.027773
  5 6.146608 1.394838 0.000001 -0.024169 -0.003485 1.385210
  6 -0.720769 2.524154 -2.891230 -2.001736 1.227113 -0.277121
  7 5.760270 -0.000012 -0.000009 0.941502 0.401476 -0.820205
  8 10.965153 0.000065 -0.000006 0.000013 0.000002 -0.505614
  9 0.000007 -0.000004 -4.044200 0.002883 2.913337 0.006055
 10 -0.000007 0.000007 4.044200 -0.253570 -3.020586 -0.301583
 11 17.182070 0.000091 0.000546 0.000004 -0.000009 -0.775235
 12 16.782913 0.000650 -0.000234 -0.337790 0.318293 0.749482
 13 5.168527 5.004116 -0.000135 -0.140012 0.013131 1.363680
 14 17.182070 0.000099 0.000206 -0.000001 -0.000007 -0.636989
 15 16.782906 0.000656 -0.000113 -0.033092 0.093338 0.482817
 16 5.168479 5.004167 -0.000064 0.176486 -0.089226 1.621946
 17 -0.701241 2.375698 3.012341 -0.525719 -1.189065 2.245009
 18 5.760273 0.000016 0.000006 -0.606492 0.504855 -0.403541
time 4
  0 5.845663 -5.845663 -0.853652 -0.027730 -0.162025 -2.077161
  1 0.000000 0.000000 0.000000 -0.000424 -1.565145 -1.570704
  2 4.484989 -0.004008 0.019538 0.181232 0.046157 0.333543
  3 5.037136 -0.005101 -0.000238 0.168182 -0.004723 -0.184238
  4 6.388059 -0.005253 -0.000001 0.004302 0.013456 -0.146743
  5 6.146608 1.394838 0.000001 -0.023752 -0.086789 1.506009
  6 -0.658267 2.586656 -2.848260 -2.170986 1.246863 5.713103
  7 5.760270 -0.000012 -0.000009 0.667177 -0.160113 -0.746190
  8 10.965153 0.000065 -0.000006 0.000013 0.000002 -0.468840
  9 0.000007 -0.000004 -4.044200 -0.014288 2.920312 0.040831
 10 -0.000007 0.000007 4.044200 -0.292291 -3.029405 -0.152954
 11 17.182070 0.000091 0.000546 0.000004 -0.000009 -0.669977
 12 16.782913 0.000650 -0.000234 -0.235548 0.283417 0.784872
 13 5.168527 5.004116 -0.000135 -0.127836 0.124617 1.316618
 14 17.182070 0.000099 0.000206 -0.000001 -0.000007 -0.635824
 15 16.782906 0.000656 -0.000113 -0.025740 0.087623 0.499941
 16 5.168479 5.004167 -0.000064 0.177053 -0.096105 1.589273
 17 -0.150443 2.453825 3.035779 -0.269904 -1.226975 1.886952
 18 5.760273 0.000016 0.000006 -0.000744 0.520466 -0.312536
time 5
  0 6.068326 -6.068326 -0.966937 -0.021419 -0.211487 -2.101384
  1 0.000000 0.000000 0.000000 -1.570796 -1.570796 0.000000
  2 4.484989 -0.004008 0.000006 0.245804 0.092187 0.128483
  3 5.037136 -0.005101 -0.000238 0.214217 0.001832 -0.247995
  4 6.388059 -0.005253 -0.000001 0.006088 0.019356 -0.215147
  5 6.146608 1.394838 0.000001 -0.043408 -0.260977 1.307482
  6 -1.630953 2.504622 -2.520125 -2.232133 1.431098 -0.423152
  7 5.760270 -0.000012 -0.000009 0.464122 -0.542649 -0.564211
  8 10.965153 0.000065 -0.000006 0.000013 0.000002 -0.507657
  9 0.000007 -0.000004 -4.044200 -0.014288 2.915726 0.051723
 10 -0.000007 0.000007 4.044200 -0.331875 -3.014798 -0.053933
 11 17.182070 0.000091 0.000546 0.000004 -0.000009 -0.701741
 12 16.782913 0.000650 -0.000234 -0.107997 0.151918 0.770539
 13 5.168527 5.004116 -0.000135 -0.099537 0.286259 1.392988
 14 17.182070 0.000099 0.000206 -0.000001 -0.000007 -0.664331
 15 16.782906 0.000656 -0.000113 -0.050625 0.092064 0.513639
 16 5.168479 5.004167 -0.000064 0.176351 -0.088507 1.569588
 17 -0.107473 2.258507 3.184221 0.310176 -1.312130 1.533734
 18 5.760273 0.000016 0.000006 0.339697 0.552514 -0.241824
time 6
  0 6.111296 -6.111296 -1.107566 -0.015873 -0.257441 -2.111712
  1 0.000000 0.000000 0.000000 -0.000424 -1.573641 -1.570796
  2 4.484989 -0.004008 -0.007807 0.220164 0.107626 0.086065
  3 5.037136 -0.005101 -0.000238 0.202432 0.005461 -0.273226
  4 6.388059 -0.005253 -0.000001 -0.004267 0.021887 -0.236841
  5 6.146608 1.394838 0.000001 0.012301 -0.468031 0.875654
  6 -2.943493 1.774131 -1.844323 0.263370 1.434974 2.479248
  7 5.760270 -0.000012 -0.000009 0.368414 -0.696718 -0.462619
  8 10.965153 0.000065 -0.000006 0.000013 0.000002 -0.573839
  9 0.000007 -0.000004 -4.044200 -0.006509 2.907605 0.088601
 10 -0.000007 0.000007 4.044200 -0.363025 -2.992657 0.023010
 11 17.182070 0.000091 0.000546 0.000004 -0.000009 -0.760321
 12 16.782913 0.000650 -0.000234 0.027525 0.017434 0.710526
 13 5.168527 5.004116 -0.000135 -0.051392 0.434201 1.525395
 14 17.182070 0.000099 0.000206 -0.000001 -0.000007 -0.673514
 15 16.782906 0.000656 -0.000113 -0.065279 0.099445 0.534940
 16 5.168479 5.004167 -0.000064 0.174132 -0.084109 1.549863
 17 -0.287166 1.844432 3.430322 1.307237 -1.345230 0.971032
 18 5.760273 0.000016 0.000006 0.348113 0.548963 -0.251881
time 7
  0 6.044888 -6.044888 -1.252102 -0.011379 -0.296922 -2.111430
  1 0.000000 0.000000 0.000000 -3.141168 -1.566202 1.570704
  2 4.484989 -0.004008 -0.019526 0.176325 0.114994 0.065523
  3 5.037136 -0.005101 -0.000238 0.178403 0.008212 -0.295980
  4 6.388059 -0.005253 -0.000001 -0.019175 0.024685 -0.252271
  5 6.146608 1.394838 0.000001 0.108840 -0.543737 0.567841
  6 -3.463040 1.020202 -1.473218 0.272228 1.266006 2.755095
  7 5.760270 -0.000012 -0.000009 0.234859 -0.812466 -0.316629
  8 10.965153 0.000065 -0.000006 0.000013 0.000002 -0.660327
  9 0.000007 -0.000004 -4.044200 0.005824 2.898530 0.139620
 10 -0.000007 0.000007 4.044200 -0.377401 -2.983654 0.089821
 11 17.182070 0.000091 0.000546 0.000004 -0.000009 -0.784413
 12 16.782913 0.000650 -0.000234 0.121649 -0.052300 0.665899
 13 5.168527 5.004116 -0.000135 -0.006224 0.518554 1.621478
 14 17.182070 0.000099 0.000206 -0.000001 -0.000007 -0.670430
 15 16.782906 0.000656 -0.000113 -0.071931 0.109314 0.561020
 16 5.168479 5.004167 -0.000064 0.170705 -0.082443 1.530502
 17 -0.423889 1.563173 3.555326 1.785656 -1.316751 0.772269
 18 5.760273 0.000016 0.000006 0.316078 0.528247 -0.250175
time 8
  0 5.923790 -5.923790 -1.400544 -0.008893 -0.327360 -2.104107
  1 0.000000 0.000000 0.000000 -0.000424 -1.576255 -1.570704
  2 4.484989 -0.004008 -0.019526 0.119878 0.116544 0.061942
  3 5.037136 -0.005101 -0.000238 0.145378 0.009821 -0.314835
  4 6.388059 -0.005253 -0.000001 -0.036925 0.027483 -0.261806
  5 6.146608 1.394838 0.000001 0.149328 -0.512750 0.500474
  6 -3.486478 0.797539 -1.559158 0.282800 1.213507 2.830065
  7 5.760270 -0.000012 -0.000009 0.059033 -0.881553 -0.126953
  8 10.965153 0.000065 -0.000006 0.000013 0.000002 -0.759878
  9 0.000007 -0.000004 -4.044200 0.019864 2.890600 0.190925
 10 -0.000007 0.000007 4.044200 -0.376251 -2.988064 0.142009
 11 17.182070 0.000091 0.000546 0.000004 -0.000009 -0.786851
 12 16.782913 0.000650 -0.000234 0.160741 -0.069108 0.670653
 13 5.168527 5.004116 -0.000135 0.010564 0.552377 1.647489
 14 17.182070 0.000099 0.000206 -0.000001 -0.000007 -0.660973
 15 16.782906 0.000656 -0.000113 -0.073346 0.120252 0.588606
 16 5.168479 5.004167 -0.000064 0.166378 -0.083222 1.511667
 17 -0.603582 1.551454 3.531888 1.730581 -1.315870 0.888775
 18 5.760273 0.000016 0.000006 0.255809 0.489779 -0.239310
time 9
  0 5.814412 -5.814412 -1.548986 -0.008128 -0.345396 -2.094342
  1 0.000000 0.000000 0.000000 -0.000424 -1.576351 -1.570796
  2 4.484989 -0.004008 -0.019526 0.055826 0.114754 0.070471
  3 5.037136 -0.005101 -0.000238 0.106519 0.010289 -0.328342
  4 6.388059 -0.005253 -0.000001 -0.055597 0.029767 -0.265747
  5 6.146608 1.394838 0.000001 0.178766 -0.455307 0.470661
  6 -3.423976 0.649096 -1.750570 0.302706 1.184370 2.886055
  7 5.760270 -0.000012 -0.000009 -0.135514 -0.898983 0.081991
  8 10.965153 0.000065 -0.000006 0.000013 0.000002 -0.865558
  9 0.000007 -0.000004 -4.044200 0.033620 2.884677 0.229236
 10 -0.000007 0.000007 4.044200 -0.367913 -2.990912 0.168389
 11 17.182070 0.000091 0.000546 0.000004 -0.000009 -0.799829
 12 16.782913 0.000650 -0.000234 0.182813 -0.073129 0.685971
 13 5.168527 5.004116 -0.000135 0.013980 0.572500 1.655681
 14 17.182070 0.000099 0.000206 -0.000001 -0.000007 -0.652065
 15 16.782906 0.000656 -0.000113 -0.072679 0.131025 0.615100
 16 5.168479 5.004167 -0.000064 0.161422 -0.086014 1.493863
 17 -0.837964 1.582705 3.469386 1.562775 -1.320177 1.087728
 18 5.760273 0.000016 0.000006 0.178911 0.437404 -0.220184
time 10
  0 5.783161 -5.783161 -1.709147 -0.008606 -0.348410 -2.085047
  1 0.000000 0.000000 0.000000 -3.141168 -1.565760 1.570704
  2 4.484989 -0.004008 -0.019526 -0.010891 0.111734 0.085739
  3 5.037136 -0.005101 -0.000238 0.065263 0.009850 -0.335081
  4 6.388059 -0.005253 -0.000001 -0.073633 0.031270 -0.264445
  5 6.146608 1.394838 0.000001 0.199749 -0.380967 0.470661
  6 -3.295066 0.563156 -2.012297 0.330041 1.174772 2.924876
  7 5.760270 -0.000012 -0.000009 -0.309775 -0.870222 0.270545
  8 10.965153 0.000065 -0.000006 0.000013 0.000002 -0.969876
  9 0.000007 -0.000004 -4.044200 0.043391 2.880760 0.240701
 10 -0.000007 0.000007 4.044200 -0.353919 -2.991463 0.161316
 11 17.182070 0.000091 0.000546 0.000004 -0.000009 -0.826143
 12 16.782913 0.000650 -0.000234 0.188478 -0.066069 0.707062
 13 5.168527 5.004116 -0.000135 0.006510 0.581841 1.649709
 14 17.182070 0.000099 0.000206 -0.000001 -0.000007 -0.653709
 15 16.782906 0.000656 -0.000113 -0.073590 0.140976 0.638884
 16 5.168479 5.004167 -0.000064 0.156134 -0.090605 1.477294
 17 -1.111410 1.637394 3.363914 1.316277 -1.315808 1.340948
 18 5.760273 0.000016 0.000006 0.093393 0.377685 -0.195132
time 11
  0 5.814412 -5.814412 -1.869308 -0.011666 -0.327311 -2.070400
  1 0.000000 0.000000 0.000000 -0.000424 -1.574871 -1.570704
  2 4.484989 -0.004008 -0.007807 -0.075755 0.108969 0.102472
  3 5.037136 -0.005101 -0.000238 0.024534 0.009104 -0.333660
  4 6.388059 -0.005253 -0.000001 -0.089465 0.031994 -0.258129
  5 6.146608 1.394838 0.000001 0.216070 -0.298097 0.491701
  6 -3.115373 0.524093 -2.297462 0.360043 1.181707 2.946718
  7 5.760270 -0.000012 -0.000009 -0.435910 -0.812388 0.409757
  8 10.965153 0.000065 -0.000006 0.000013 0.000002 -1.065960
  9 0.000007 -0.000004 -4.044200 0.049842 2.881428 0.220733
 10 -0.000007 0.000007 4.044200 -0.334942 -2.988248 0.115533
 11 17.182070 0.000091 0.000546 0.000004 -0.000009 -0.863428
 12 16.782913 0.000650 -0.000234 0.187669 -0.052893 0.731108
 13 5.168527 5.004116 -0.000135 -0.008178 0.582997 1.634141
 14 17.182070 0.000099 0.000206 -0.000001 -0.000007 -0.662275
 15 16.782906 0.000656 -0.000113 -0.068922 0.147802 0.661201
 16 5.168479 5.004167 -0.000064 0.150747 -0.096597 1.462303
 17 -1.388762 1.719428 3.219378 1.054189 -1.294087 1.590943
 18 5.760273 0.000016 0.000006 0.006179 0.318549 -0.169136
time 12
  0 5.837850 -5.837851 -2.025563 -0.017212 -0.281357 -2.045614
  1 0.000000 0.000000 0.000000 -3.141168 -1.568028 1.570704
  2 4.484989 -0.004008 -0.007807 -0.133664 0.107019 0.115038
  3 5.037136 -0.005101 -0.000238 -0.012045 0.008650 -0.322692
  4 6.388059 -0.005253 -0.000001 -0.101234 0.031270 -0.247168
  5 6.146608 1.394838 0.000001 0.230646 -0.214417 0.525563
  6 -2.892710 0.500654 -2.574814 0.387664 1.202116 2.953204
  7 5.760270 -0.000012 -0.000009 -0.511196 -0.747353 0.494629
  8 10.965153 0.000065 -0.000006 0.000013 0.000002 -1.146505
  9 0.000007 -0.000004 -4.044200 0.055250 2.887256 0.181084
 10 -0.000007 0.000007 4.044200 -0.311364 -2.982644 0.039259
 11 17.182070 0.000091 0.000546 0.000004 -0.000009 -0.903509
 12 16.782913 0.000650 -0.000234 0.188944 -0.039105 0.756852
 13 5.168527 5.004116 -0.000135 -0.026096 0.578656 1.613939
 14 17.182070 0.000099 0.000206 -0.000001 -0.000007 -0.668991
 15 16.782906 0.000656 -0.000113 -0.052853 0.150146 0.683932
 16 5.168479 5.004167 -0.000064 0.145483 -0.103452 1.449193
 17 -1.642676 1.813181 3.039685 0.837305 -1.257309 1.783254
 18 5.760273 0.000016 0.000006 -0.078795 0.268167 -0.149202
time 13
  0 5.845663 -5.845663 -2.185724 -0.022758 -0.219986 -2.015287
  1 0.000000 0.000000 0.000000 -0.000424 -1.572180 -1.570704
  2 4.484989 -0.004008 0.000006 -0.179810 0.105820 0.117838
  3 5.037136 -0.005101 -0.000238 -0.041652 0.009046 -0.300935
  4 6.388059 -0.005253 -0.000001 -0.107382 0.028891 -0.231791
  5 6.146608 1.394838 0.000001 0.244654 -0.137365 0.564427
  6 -2.650516 0.500654 -2.817009 0.407951 1.232993 2.947005
  7 5.760270 -0.000012 -0.000009 -0.542917 -0.695616 0.530158
  8 10.965153 0.000065 -0.000006 0.000013 0.000002 -1.204390
  9 0.000007 -0.000004 -4.044200 0.059803 2.895090 0.127486
 10 -0.000007 0.000007 4.044200 -0.284911 -2.978418 -0.053263
 11 17.182070 0.000091 0.000546 0.000004 -0.000009 -0.942300
 12 16.782913 0.000650 -0.000234 0.191127 -0.026411 0.780456
 13 5.168527 5.004116 -0.000135 -0.043323 0.571806 1.593965
 14 17.182070 0.000099 0.000206 -0.000001 -0.000007 -0.676666
 15 16.782906 0.000656 -0.000113 -0.030929 0.149262 0.706625
 16 5.168479 5.004167 -0.000064 0.140540 -0.110811 1.438390
 17 -1.853620 1.903027 2.863898 0.687487 -1.214967 1.902037
 18 5.760273 0.000016 0.000006 -0.157526 0.233688 -0.144892
time 14
  0 5.861288 -5.861289 -2.341979 -0.026487 -0.152587 -1.985993
  1 0.000000 0.000000 0.000000 -1.570796 -1.570796 0.000000
  2 4.484989 -0.004008 0.000006 -0.209285 0.104925 0.105304
  3 5.037136 -0.005101 -0.000238 -0.060716 0.010655 -0.267092
  4 6.388059 -0.005253 -0.000001 -0.106231 0.024266 -0.212332
  5 6.146608 1.394838 0.000001 0.257487 -0.074125 0.600789
  6 -2.439571 0.500654 -3.004515 0.419666 1.271095 2.934032
  7 5.760270 -0.000012 -0.000009 -0.539310 -0.673623 0.521289
  8 10.965153 0.000065 -0.000006 0.000013 0.000002 -1.232311
  9 0.000007 -0.000004 -4.044200 0.063219 2.902064 0.066532
 10 -0.000007 0.000007 4.044200 -0.258458 -2.978142 -0.149609
 11 17.182070 0.000091 0.000546 0.000004 -0.000009 -0.976501
 12 16.782913 0.000650 -0.000234 0.192819 -0.016682 0.799646
 13 5.168527 5.004116 -0.000135 -0.056097 0.565312 1.578756
 14 17.182070 0.000099 0.000206 -0.000001 -0.000007 -0.687425
 15 16.782906 0.000656 -0.000113 -0.008582 0.146774 0.728528
 16 5.168479 5.004167 -0.000064 0.136115 -0.118337 1.430055
 17 -2.013781 1.992874 2.703737 0.604460 -1.177906 1.954408
 18 5.760273 0.000016 0.000006 -0.227772 0.220557 -0.169002
time 15
  0 5.869101 -5.869102 -2.494327 -0.028017 -0.088548 -1.961300
  1 0.000000 0.000000 0.000000 -0.000424 -1.568355 -1.570704
  2 4.484989 -0.004008 0.007819 -0.224559 0.102847 0.080172
  3 5.037136 -0.005101 -0.000238 -0.071157 0.013611 -0.215693
  4 6.388059 -0.005253 -0.000001 -0.097327 0.016425 -0.184904
  5 6.146608 1.394838 0.000001 0.267135 -0.031583 0.626791
  6 -2.287223 0.500654 -3.121706 0.420809 1.301498 2.918104
  7 5.760270 -0.000012 -0.000009 -0.495472 -0.683302 0.469600
  8 10.965153 0.000065 -0.000006 0.000013 0.000002 -1.237202
  9 0.000007 -0.000004 -4.044200 0.065875 2.904262 0.004335
 10 -0.000007 0.000007 4.044200 -0.233826 -2.983379 -0.236110
 11 17.182070 0.000091 0.000546 0.000004 -0.000009 -1.004250
 12 16.782913 0.000650 -0.000234 0.192868 -0.011790 0.812110
 13 5.168527 5.004116 -0.000135 -0.061055 0.562483 1.572816
 14 17.182070 0.000099 0.000206 -0.000001 -0.000007 -0.703050
 15 16.782906 0.000656 -0.000113 0.008610 0.144945 0.748850
 16 5.168479 5.004167 -0.000064 0.132380 -0.125540 1.424532
 17 -2.107534 2.047563 2.574827 0.626047 -1.157537 1.908679
 18 5.760273 0.000016 0.000006 -0.311593 0.251876 -0.231004
time 16
  0 5.876914 -5.876914 -2.642769 -0.028017 -0.037554 -1.946653
  1 0.000000 0.000000 0.000000 -0.000424 -1.564376 -1.570704
  2 4.484989 -0.004008 0.027351 -0.232065 0.098932 0.049213
  3 5.037136 -0.005101 -0.000238 -0.076854 0.017912 -0.145197
  4 6.388059 -0.005253 -0.000001 -0.081987 0.004872 -0.147306
  5 6.146608 1.394838 0.000001 0.270983 -0.016406 0.634532
  6 -2.228628 0.492842 -3.152957 0.412618 1.305269 2.905132
  7 5.760270 -0.000012 -0.000009 -0.405891 -0.711039 0.377745
  8 10.965153 0.000065 -0.000006 0.000013 0.000002 -1.231692
  9 0.000007 -0.000004 -4.044200 0.068152 2.900345 -0.052129
 10 -0.000007 0.000007 4.044200 -0.203443 -2.997526 -0.302061
 11 17.182070 0.000091 0.000546 0.000004 -0.000009 -1.021315
 12 16.782913 0.000650 -0.000234 0.174205 -0.010641 0.817952
 13 5.168527 5.004116 -0.000135 -0.055911 0.559405 1.574612
 14 17.182070 0.000099 0.000206 -0.000001 -0.000007 -0.724705
 15 16.782906 0.000656 -0.000113 0.014937 0.146260 0.766124
 16 5.168479 5.004167 -0.000064 0.129507 -0.131963 1.422104
 17 -2.142692 2.059282 2.531857 0.768300 -1.153513 1.754033
 18 5.760273 0.000016 0.000006 -0.428263 0.317382 -0.329013
time 17
  0 5.876914 -5.876914 -2.775586 -0.026965 0.009092 -1.940738
  1 0.000000 0.000000 0.000000 -0.000424 -1.559667 -1.570704
  2 4.484989 -0.004008 0.050789 -0.232683 0.094265 0.013631
  3 5.037136 -0.005101 -0.000238 -0.078300 0.022946 -0.060499
  4 6.388059 -0.005253 -0.000001 -0.062032 -0.009764 -0.102371
  5 6.146608 1.394838 0.000001 0.268974 -0.024142 0.628736
  6 -2.259879 0.492842 -3.141238 0.399379 1.287312 2.894735
  7 5.760270 -0.000012 -0.000009 -0.271587 -0.742789 0.246638
  8 10.965153 0.000065 -0.000006 0.000013 0.000002 -1.217144
  9 0.000007 -0.000004 -4.044200 0.068152 2.892320 -0.110026
 10 -0.000007 0.000007 4.044200 -0.167022 -3.020035 -0.361417
 11 17.182070 0.000091 0.000546 0.000004 -0.000009 -1.035798
 12 16.782913 0.000650 -0.000234 0.131753 -0.009659 0.823046
 13 5.168527 5.004116 -0.000135 -0.043230 0.551683 1.580323
 14 17.182070 0.000099 0.000206 -0.000001 -0.000007 -0.751156
 15 16.782906 0.000656 -0.000113 0.013082 0.149673 0.779747
 16 5.168479 5.004167 -0.000064 0.127658 -0.137332 1.423136
 17 -2.127066 2.047563 2.555295 0.974483 -1.146441 1.544075
 18 5.760273 0.000016 0.000006 -0.565091 0.376420 -0.453287
time 18
  0 5.876914 -5.876914 -2.912309 -0.024957 0.064237 -1.939048
  1 0.000000 0.000000 0.000000 -0.000424 -1.555150 -1.570796
  2 4.484989 -0.004008 0.070321 -0.227483 0.090093 -0.025238
  3 5.037136 -0.005101 -0.000238 -0.076038 0.028082 0.033838
  4 6.388059 -0.005253 -0.000001 -0.039429 -0.027369 -0.052950
  5 6.146608 1.394838 0.000001 0.263003 -0.044504 0.620082
  6 -2.334100 0.504561 -3.086549 0.381473 1.259836 2.880523
  7 5.760270 -0.000012 -0.000009 -0.098824 -0.762343 0.079901
  8 10.965153 0.000065 -0.000006 0.000013 0.000002 -1.194237
  9 0.000007 -0.000004 -4.044200 0.065116 2.883148 -0.180057
 10 -0.000007 0.000007 4.044200 -0.132135 -3.044288 -0.428132
 11 17.182070 0.000091 0.000546 0.000004 -0.000009 -1.050282
 12 16.782913 0.000650 -0.000234 0.082239 -0.009603 0.826646
 13 5.168527 5.004116 -0.000135 -0.027612 0.541079 1.589983
 14 17.182070 0.000099 0.000206 -0.000001 -0.000007 -0.780418
 15 16.782906 0.000656 -0.000113 0.009830 0.152202 0.789871
 16 5.168479 5.004167 -0.000064 0.127017 -0.141167 1.427809
 17 -2.080190 2.028031 2.617797 1.164615 -1.128680 1.352333
 18 5.760273 0.000016 0.000006 -0.695131 0.404918 -0.580254
time 19
  0 5.876914 -5.876914 -3.033406 -0.022949 0.123631 -1.939330
  1 0.000000 0.000000 0.000000 -0.000424 -1.551844 -1.570796
  2 4.484989 -0.004008 0.082040 -0.217702 0.087648 -0.066713
  3 5.037136 -0.005101 -0.000238 -0.070834 0.032647 0.132919
  4 6.388059 -0.005253 -0.000001 -0.015832 -0.046972 -0.001769
  5 6.146608 1.394838 0.000001 0.253923 -0.075669 0.608927
  6 -2.427852 0.531905 -2.992796 0.362710 1.224318 2.865834
  7 5.760270 -0.000012 -0.000009 0.097493 -0.755300 -0.106461
  8 10.965153 0.000065 -0.000006 0.000013 0.000002 -1.164830
  9 0.000007 -0.000004 -4.044200 0.059898 2.875696 -0.256203
 10 -0.000007 0.000007 4.044200 -0.106257 -3.063581 -0.498767
 11 17.182070 0.000091 0.000546 0.000004 -0.000009 -1.067132
 12 16.782913 0.000650 -0.000234 0.038610 -0.010437 0.826816
 13 5.168527 5.004116 -0.000135 -0.013801 0.529336 1.603560
 14 17.182070 0.000099 0.000206 -0.000001 -0.000007 -0.811392
 15 16.782906 0.000656 -0.000113 0.005715 0.153313 0.795628
 16 5.168479 5.004167 -0.000064 0.127782 -0.143169 1.436549
 17 -2.002062 1.996780 2.703737 1.297642 -1.113435 1.225296
 18 5.760273 0.000016 0.000006 -0.785536 0.400104 -0.678174
time 20
  0 5.876914 -5.876914 -3.138878 -0.021419 0.183124 -1.941583
  1 0.000000 0.000000 0.000000 -0.000424 -1.550537 -1.570796
  2 4.484989 -0.004008 0.082040 -0.204800 0.087904 -0.109522
  3 5.037136 -0.005101 -0.000238 -0.063386 0.036114 0.232000
  4 6.388059 -0.005253 -0.000001 0.007383 -0.067927 0.048514
  5 6.146608 1.394838 0.000001 0.242531 -0.115817 0.596184
  6 -2.556763 0.563156 -2.895136 0.346328 1.182287 2.852957
  7 5.760270 -0.000012 -0.000009 0.291018 -0.715052 -0.287573
  8 10.965153 0.000065 -0.000006 0.000013 0.000002 -1.130098
  9 0.000007 -0.000004 -4.044200 0.054586 2.870537 -0.334068
 10 -0.000007 0.000007 4.044200 -0.095618 -3.072125 -0.571790
 11 17.182070 0.000091 0.000546 0.000004 -0.000009 -1.088570
 12 16.782913 0.000650 -0.000234 0.013252 -0.011864 0.821654
 13 5.168527 5.004116 -0.000135 -0.006224 0.518554 1.621478
 14 17.182070 0.000099 0.000206 -0.000001 -0.000007 -0.842984
 15 16.782906 0.000656 -0.000113 0.001567 0.152305 0.796306
 16 5.168479 5.004167 -0.000064 0.130149 -0.142737 1.449436
 17 -1.884871 1.961623 2.809209 1.390171 -1.104633 1.146265
 18 5.760273 0.000016 0.000006 -0.832231 0.386779 -0.747853
time 21
  0 5.892539 -5.892540 -3.240444 -0.020654 0.238763 -1.944025
  1 0.000000 0.000000 0.000000 -0.000332 -1.557783 -1.570796
  2 4.484989 -0.004008 0.058602 -0.191217 0.097365 -0.152689
  3 5.037136 -0.005101 -0.000238 -0.054798 0.038280 0.326308
  4 6.388059 -0.005253 -0.000001 0.029003 -0.088634 0.095261
  5 6.146608 1.394838 0.000001 0.229623 -0.163069 0.582132
  6 -2.701298 0.594407 -2.754507 0.332613 1.135299 2.843133
  7 5.760270 -0.000012 -0.000009 0.457927 -0.645571 -0.440853
  8 10.965153 0.000065 -0.000006 0.000013 0.000002 -1.091281
  9 0.000007 -0.000004 -4.044200 0.053827 2.875123 -0.406105
 10 -0.000007 0.000007 4.044200 -0.086609 -3.061192 -0.674636
 11 17.182070 0.000091 0.000546 0.000004 -0.000009 -1.134101
 12 16.782913 0.000650 -0.000234 0.000156 -0.019573 0.808680
 13 5.168527 5.004116 -0.000135 0.000621 0.498858 1.635708
 14 17.182070 0.000099 0.000206 -0.000001 -0.000007 -0.871217
 15 16.782906 0.000656 -0.000113 -0.001751 0.148460 0.789682
 16 5.168479 5.004167 -0.000064 0.134401 -0.139753 1.466976
 17 -1.748148 1.910840 2.922494 1.474582 -1.094166 1.079853
 18 5.760273 0.000016 0.000006 -0.850081 0.387605 -0.807700
time 22
  0 5.892539 -5.892540 -3.318571 -0.020941 0.286545 -1.945245
  1 0.000000 0.000000 0.000000 -0.000424 -1.573141 -1.570704
  2 4.484989 -0.004008 -0.007807 -0.179193 0.115378 -0.195335
  3 5.037136 -0.005101 -0.000238 -0.046057 0.039070 0.410975
  4 6.388059 -0.005253 -0.000001 0.047795 -0.107933 0.135991
  5 6.146608 1.394838 0.000001 0.215899 -0.215545 0.567444
  6 -2.849740 0.637377 -2.594346 0.322517 1.084883 2.837219
  7 5.760270 -0.000012 -0.000009 0.586037 -0.558426 -0.557126
  8 10.965153 0.000065 -0.000006 0.000013 0.000002 -1.049678
  9 0.000007 -0.000004 -4.044200 0.059139 2.888880 -0.467728
 10 -0.000007 0.000007 4.044200 -0.072136 -3.044564 -0.779488
 11 17.182070 0.000091 0.000546 0.000004 -0.000009 -1.175329
 12 16.782913 0.000650 -0.000234 -0.011346 -0.031155 0.794993
 13 5.168527 5.004116 -0.000135 0.013209 0.460160 1.640016
 14 17.182070 0.000099 0.000206 -0.000001 -0.000007 -0.896093
 15 16.782906 0.000656 -0.000113 -0.003231 0.141120 0.775871
 16 5.168479 5.004167 -0.000064 0.140824 -0.133905 1.489392
 17 -1.591893 1.860057 3.039685 1.552443 -1.083950 1.023023
 18 5.760273 0.000016 0.000006 -0.841190 0.407495 -0.851879
time 23
  0 5.892539 -5.892540 -3.381073 -0.022662 0.322419 -1.944963
  1 0.000000 0.000000 0.000000 -0.000424 -1.586980 -1.570796
  2 4.484989 -0.004008 -0.070309 -0.168599 0.132016 -0.236288
  3 5.037136 -0.005101 -0.000238 -0.038217 0.038748 0.481260
  4 6.388059 -0.005253 -0.000001 0.062835 -0.124263 0.168311
  5 6.146608 1.394838 0.000001 0.202005 -0.271365 0.552478
  6 -2.986463 0.668628 -2.414653 0.315945 1.032674 2.834739
  7 5.760270 -0.000012 -0.000009 0.673984 -0.467660 -0.638022
  8 10.965153 0.000065 -0.000006 0.000013 0.000002 -1.006031
  9 0.000007 -0.000004 -4.044200 0.066918 2.901873 -0.517600
 10 -0.000007 0.000007 4.044200 -0.057664 -3.029497 -0.876694
 11 17.182070 0.000091 0.000546 0.000004 -0.000009 -1.207523
 12 16.782913 0.000650 -0.000234 -0.018998 -0.045072 0.775396
 13 5.168527 5.004116 -0.000135 0.028974 0.405342 1.637339
 14 17.182070 0.000099 0.000206 -0.000001 -0.000007 -0.922614
 15 16.782906 0.000656 -0.000113 -0.001572 0.130121 0.757242
 16 5.168479 5.004167 -0.000064 0.149773 -0.124785 1.517008
 17 -1.420013 1.793649 3.156876 1.625875 -1.075462 0.972834
 18 5.760273 0.000016 0.000006 -0.809426 0.449950 -0.873519
time 24
  0 5.998011 -5.998012 -2.853713 -0.025913 0.359281 -1.942428
  1 0.000000 0.000000 0.000000 -3.141168 -1.552171 1.570704
  2 4.484989 -0.004008 -0.082028 -0.157582 0.137577 -0.274051
  3 5.037136 -0.005101 -0.000238 -0.032163 0.037797 0.532296
  4 6.388059 -0.005253 -0.000001 0.073490 -0.135835 0.189793
  5 6.146608 1.394838 0.000001 0.188471 -0.328570 0.537353
  6 -3.127092 0.703786 -2.227147 0.312897 0.980254 2.835979
  7 5.760270 -0.000012 -0.000009 0.723812 -0.386613 -0.691137
  8 10.965153 0.000065 -0.000006 0.000013 0.000002 -0.962447
  9 0.000007 -0.000004 -4.044200 0.076690 2.912191 -0.547313
 10 -0.000007 0.000007 4.044200 -0.056993 -3.025730 -0.947041
 11 17.182070 0.000091 0.000546 0.000004 -0.000009 -1.166797
 12 16.782913 0.000650 -0.000234 -0.022235 -0.056210 0.711851
 13 5.168527 5.004116 -0.000135 0.045430 0.338319 1.630910
 14 17.182070 0.000099 0.000206 -0.000001 -0.000007 -0.885745
 15 16.782906 0.000656 -0.000113 0.005764 0.111370 0.691233
 16 5.168479 5.004167 -0.000064 0.161681 -0.112249 1.550227
 17 -1.232507 1.742866 3.270161 1.696540 -1.069679 0.925207
 18 5.760273 0.000016 0.000006 -0.757233 0.516332 -0.863552
time 25
  0 6.181611 -6.181611 -1.802900 -0.030790 0.411510 -1.939048
  1 0.000000 0.000000 0.000000 -1.570796 -1.570796 0.000000
  2 4.484989 -0.004008 0.000006 -0.143056 0.122666 -0.307061
  3 5.037136 -0.005101 -0.000238 -0.028711 0.036758 0.559371
  4 6.388059 -0.005253 -0.000001 0.078907 -0.141107 0.198062
  5 6.146608 1.394838 0.000001 0.175809 -0.385221 0.522546
  6 -3.252096 0.735037 -2.024016 0.313659 0.929179 2.840939
  7 5.760270 -0.000012 -0.000009 0.736473 -0.326653 -0.723914
  8 10.965153 0.000065 -0.000006 0.000013 0.000002 -0.919977
  9 0.000007 -0.000004 -4.044200 0.077923 2.912860 -0.571963
 10 -0.000007 0.000007 4.044200 -0.078941 -3.037766 -0.993398
 11 17.182070 0.000091 0.000546 0.000004 -0.000009 -1.051429
 12 16.782913 0.000650 -0.000234 -0.022750 -0.063882 0.608908
 13 5.168527 5.004116 -0.000135 0.060423 0.264179 1.624709
 14 17.182070 0.000099 0.000206 -0.000001 -0.000007 -0.790354
 15 16.782906 0.000656 -0.000113 0.023313 0.085896 0.583412
 16 5.168479 5.004167 -0.000064 0.177053 -0.096105 1.589273
 17 -1.048908 1.676458 3.367820 1.767113 -1.067038 0.876821
 18 5.760273 0.000016 0.000006 -0.684272 0.605862 -0.812055
time 26
  0 6.205049 -6.205049 -1.232570 -0.037292 0.476982 -1.934729
  1 0.000000 0.000000 0.000000 -0.000424 -1.524416 -1.570704
  2 4.484989 -0.004008 0.207044 -0.120178 0.081543 -0.338607
  3 5.037136 -0.005101 -0.000238 -0.027809 0.034885 0.543869
  4 6.388059 -0.005253 -0.000001 0.077984 -0.135359 0.183178
  5 6.146608 1.394838 0.000001 0.164492 -0.439359 0.507858
  6 -3.369287 0.746756 -1.824791 0.317469 0.881004 2.850191
  7 5.760270 -0.000012 -0.000009 0.696243 -0.316739 -0.729878
  8 10.965153 0.000065 -0.000006 0.000013 0.000002 -0.879611
  9 0.000007 -0.000004 -4.044200 0.036276 2.884104 -0.639032
 10 -0.000007 0.000007 4.044200 -0.123030 -3.056690 -1.054092
 11 17.182070 0.000091 0.000546 0.000004 -0.000009 -0.974995
 12 16.782913 0.000650 -0.000234 -0.020322 -0.072944 0.532661
 13 5.168527 5.004116 -0.000135 0.072001 0.188206 1.623599
 14 17.182070 0.000099 0.000206 -0.000001 -0.000007 -0.818382
 15 16.782906 0.000656 -0.000113 0.088679 0.048723 0.455834
 16 5.168479 5.004167 -0.000064 0.192561 -0.085080 1.683995
 17 -0.861402 1.613956 3.449854 1.839162 -1.067572 0.824166
 18 5.760273 0.000016 0.000006 -0.559729 0.733810 -0.685088
time 27
  0 5.845663 -5.845663 -2.131035 -0.045133 0.553424 -1.929847
  1 0.000000 0.000000 0.000000 -0.000424 -1.456874 -1.570796
  2 4.457644 -0.004008 0.507834 -0.086804 0.022024 -0.371845
  3 5.037136 -0.005101 -0.000238 -0.028507 0.031491 0.480565
  4 6.388059 -0.005253 -0.000001 0.070386 -0.117487 0.142008
  5 6.146608 1.394838 0.000001 0.154958 -0.488966 0.493527
  6 -3.455227 0.758475 -1.641192 0.324517 0.837233 2.863545
  7 5.760270 -0.000012 -0.000009 0.599583 -0.366823 -0.702250
  8 10.965153 0.000065 -0.000006 0.000013 0.000002 -0.842528
  9 0.000007 -0.000004 -4.044200 -0.019885 2.843214 -0.646579
 10 -0.000007 0.000007 4.044200 -0.179195 -3.055956 -1.190869
 11 17.182070 0.000091 0.000546 0.000004 -0.000009 -1.084197
 12 16.782913 0.000650 -0.000234 -0.013823 -0.088399 0.560239
 13 5.168527 5.004116 -0.000135 0.078049 0.115792 1.633227
 14 17.182070 0.000099 0.000206 -0.000001 -0.000007 -0.870190
 15 16.782906 0.000656 -0.000113 0.217915 -0.029714 0.531290
 16 5.168479 5.004167 -0.000064 0.199032 -0.097124 1.560383
 17 -0.701241 1.551454 3.512356 1.914440 -1.070747 0.763920
 18 5.760273 0.000016 0.000006 -0.324827 0.879363 -0.428639
time 28
  0 5.122985 -5.122985 -2.595893 -0.053834 0.638908 -1.925434
  1 0.000000 0.000000 0.000000 -0.000424 -1.378472 -1.570796
  2 4.406862 -0.004008 0.855501 -0.044622 -0.045646 -0.404789
  3 5.037136 -0.005101 -0.000238 -0.029816 0.026926 0.384536
  4 6.388059 -0.005253 -0.000001 0.055884 -0.091908 0.082277
  5 6.146608 1.394838 0.000001 0.147603 -0.532062 0.479474
  6 -3.529449 0.766288 -1.473218 0.335089 0.799368 2.882049
  7 5.760270 -0.000012 -0.000009 0.456430 -0.453418 -0.641947
  8 10.965153 0.000065 -0.000006 0.000013 0.000002 -0.810458
  9 0.000007 -0.000004 -4.044200 -0.095495 2.802993 -0.694827
 10 -0.000007 0.000007 4.044200 -0.247053 -3.039878 -1.282626
 11 17.182070 0.000091 0.000546 0.000004 -0.000009 -1.157476
 12 16.782913 0.000650 -0.000234 -0.001512 -0.109710 0.581500
 13 5.168527 5.004116 -0.000135 0.076321 0.052523 1.659891
 14 17.182070 0.000099 0.000206 -0.000001 -0.000007 -0.934812
 15 16.782906 0.000656 -0.000113 0.394187 -0.064646 0.296418
 16 5.168479 5.004167 -0.000064 0.238109 -0.104111 1.669691
 17 -0.552799 1.500671 3.555326 1.995621 -1.075745 0.692479
 18 5.760273 0.000016 0.000006 0.056472 0.969331 -0.013570
time 29
  0 4.224520 -4.224520 -4.174066 -0.063492 0.731310 -1.920552
  1 0.000000 0.000000 0.000000 -0.000424 -1.299455 -1.570796
  2 4.328734 -0.004008 1.195355 0.002661 -0.111990 -0.434805
  3 5.037136 -0.005101 -0.000238 -0.030854 0.021658 0.270890
  4 6.388059 -0.005253 -0.000001 0.034600 -0.062693 0.011391
  5 6.146608 1.394838 0.000001 0.142808 -0.566670 0.465818
  6 -3.580231 0.754568 -1.336495 0.349471 0.768834 2.906181
  7 5.760270 -0.000012 -0.000009 0.271822 -0.548196 -0.544994
  8 10.965153 0.000065 -0.000006 0.000013 0.000002 -0.784456
  9 0.000007 -0.000004 -4.044200 -0.191216 2.740417 -0.772215
 10 -0.000007 0.000007 4.044200 -0.302930 -2.985583 -1.410896
 11 17.182070 0.000091 0.000546 0.000004 -0.000009 -1.350496
 12 16.782913 0.000650 -0.000234 0.015925 -0.135395 0.660125
 13 5.168527 5.004116 -0.000135 0.064252 0.003452 1.709989
 14 17.182070 0.000099 0.000206 -0.000001 -0.000007 -1.015880
 15 16.782906 0.000656 -0.000113 0.506232 0.072429 0.006300
 16 5.168479 5.004167 -0.000064 0.265229 -0.124988 1.902510
 17 -0.423889 1.457701 3.598296 2.084460 -1.081341 0.607472
 18 5.760273 0.000016 0.000006 0.481955 0.942146 0.449269
time 30
  0 3.220583 -3.220583 -7.096030 -0.074010 0.828505 -1.916796
  1 0.000000 0.000000 0.000000 -0.000424 -1.230087 -1.570796
  2 4.231075 -0.004008 1.488333 0.049522 -0.168488 -0.458179
  3 5.037136 -0.005101 -0.000238 -0.031109 0.016157 0.154645
  4 6.388059 -0.005253 -0.000001 0.007251 -0.034163 -0.063207
  5 6.146608 1.394838 0.000001 0.148551 -0.563682 0.439936
  6 -3.603670 0.684254 -1.328682 0.362329 0.771919 2.947195
  7 5.760270 -0.000012 -0.000009 0.057875 -0.622044 -0.415825
  8 10.965153 0.000065 -0.000006 0.000013 0.000002 -0.766069
  9 0.000007 -0.000004 -4.044200 -0.246144 2.677554 -0.804603
 10 -0.000007 0.000007 4.044200 -0.316923 -2.887926 -1.561149
 11 17.182070 0.000091 0.000546 0.000004 -0.000009 -1.648846
 12 16.782913 0.000650 -0.000234 0.039247 -0.166343 0.763882
 13 5.168527 5.004116 -0.000135 0.034264 -0.029055 1.812501
 14 17.182070 0.000099 0.000206 -0.000001 -0.000007 -1.078035
 15 16.782906 0.000656 -0.000113 0.569028 0.155327 -0.084623
 16 5.168479 5.004167 -0.000064 0.344283 -0.103056 2.054384
 17 -0.455140 1.414731 3.610015 2.244610 -1.113278 0.439069
 18 5.760273 0.000016 0.000006 0.674980 0.835352 0.691845
time 31
  0 2.165863 -2.165863 -11.146935 -0.085771 0.928220 -1.914261
  1 0.000000 0.000000 0.000000 -0.000424 -1.180651 -1.570796
  2 4.149041 -0.004008 1.703183 0.088615 -0.207597 -0.469703
  3 5.037136 -0.005101 -0.000238 -0.030224 0.011167 0.050941
  4 6.388059 -0.005253 -0.000001 -0.024473 -0.010087 -0.133706
  5 6.146608 1.394838 0.000001 0.163241 -0.521832 0.410123
  6 -3.572419 0.574875 -1.461499 0.384616 0.810812 3.006428
  7 5.760270 -0.000012 -0.000009 -0.156548 -0.653755 -0.279366
  8 10.965153 0.000065 -0.000006 0.000013 0.000002 -0.755792
  9 0.000007 -0.000004 -4.044200 -0.263220 2.605520 -0.855048
 10 -0.000007 0.000007 4.044200 2.875180 -0.366931 1.486547
 11 17.182070 0.000091 0.000546 0.000004 -0.000009 -1.960890
 12 16.782913 0.000650 -0.000234 0.071154 -0.240951 0.951155
 13 5.168527 5.004116 -0.000135 0.000010 -0.029998 1.902807
 14 17.182070 0.000099 0.000206 -0.000001 -0.000007 -1.209540
 15 16.782906 0.000656 -0.000113 0.543054 0.223649 -0.023543
 16 5.168479 5.004167 -0.000064 0.403922 -0.034529 1.832733
 17 -0.634833 1.391293 3.586577 2.526901 -1.151439 0.141352
 18 5.760273 0.000016 0.000006 0.631407 0.737312 0.688882
time 32
  0 1.083799 -1.083799 -15.662698 -0.098871 1.028528 -1.913510
  1 0.000000 0.000000 0.000000 -0.000424 -1.161411 -1.570796
  2 4.113884 -0.004008 1.773498 0.112533 -0.222173 -0.463811
  3 5.037136 -0.005101 -0.000238 -0.028150 0.007348 -0.025236
  4 6.388059 -0.005253 -0.000001 -0.057934 0.006452 -0.192311
  5 6.146608 1.394838 0.000001 0.176453 -0.481526 0.405399
  6 -3.517729 0.524093 -1.609941 0.519102 0.837259 3.157133
  7 5.760270 -0.000012 -0.000009 -0.408750 -0.575501 -0.136995
  8 10.965153 0.000065 -0.000006 0.000013 0.000002 -0.813801
  9 0.000007 -0.000004 -4.044200 -0.213604 2.521544 -0.866608
 10 -0.000007 0.000007 4.044200 3.006871 -0.469733 1.528411
 11 17.182070 0.000091 0.000546 0.000004 -0.000009 -2.219948
 12 16.782913 0.000650 -0.000234 0.118191 -0.355772 1.115299
 13 5.168527 5.004116 -0.000135 -0.020208 -0.007740 1.935868
 14 17.182070 0.000099 0.000206 -0.000001 -0.000007 -1.325832
 15 16.782906 0.000656 -0.000113 0.457715 0.268491 0.096771
 16 5.168479 5.004167 -0.000064 0.369517 0.069342 1.203245
 17 -0.794994 1.426450 3.547513 2.810945 -1.151659 -0.164239
 18 5.760273 0.000016 0.000006 0.508424 0.678128 0.584049
time 33
  0 0.029079 -0.029079 -20.170649 -0.114266 1.127156 -1.915482
  1 0.000000 0.000000 0.000000 -0.000424 -1.184649 -1.570796
  2 4.156854 -0.004008 1.679745 0.112046 -0.208188 -0.400297
  3 5.037136 -0.005101 -0.000238 -0.023915 0.005592 -0.050709
  4 6.388059 -0.005253 -0.000001 -0.119522 0.011134 -0.245163
  5 6.146608 1.394838 0.000001 0.183846 -0.458196 0.442953
  6 -3.455227 0.586595 -1.727132 0.772452 0.804642 3.389103
  7 5.760270 -0.000012 -0.000009 -0.561501 -0.362771 -0.121957
  8 10.965153 0.000065 -0.000006 0.000013 0.000002 -0.946412
  9 0.000007 -0.000004 -4.044200 -0.066560 2.463362 -0.774794
 10 -0.000007 0.000007 4.044200 0.011919 -2.611215 -1.335674
 11 17.182070 0.000091 0.000546 0.000004 -0.000009 -2.279173
 12 16.782913 0.000650 -0.000234 0.143917 -0.465071 1.232880
 13 5.168527 5.004116 -0.000135 -0.005998 0.022632 1.781986
 14 17.182070 0.000099 0.000206 -0.000001 -0.000007 -1.350229
 15 16.782906 0.000656 -0.000113 0.382412 0.272891 0.179791
 16 5.168479 5.004167 -0.000064 0.327937 0.140914 0.907872
 17 -0.849683 1.539735 3.485011 2.919526 -1.160492 -0.315470
 18 5.760273 0.000016 0.000006 0.402139 0.671271 0.518544
time 34
  0 -0.947513 0.947513 -24.311399 -0.133581 1.222078 -1.922242
  1 0.000000 0.000000 0.000000 -0.000424 -1.245829 -1.570796
  2 4.250607 -0.004008 1.425831 0.098007 -0.166778 -0.278055
  3 5.037136 -0.005101 -0.000238 -0.017606 0.005388 -0.035540
  4 6.388059 -0.005253 -0.000001 -0.196463 0.005253 -0.286508
  5 6.146608 1.394838 0.000001 0.190423 -0.437479 0.503094
  6 -3.369287 0.692067 -1.844323 1.003611 0.728464 3.579773
  7 5.760270 -0.000012 -0.000009 -0.496629 -0.159995 -0.167630
  8 10.965153 0.000065 -0.000006 0.000013 0.000002 -1.074875
  9 0.000007 -0.000004 -4.044200 0.166150 2.480463 -0.594414
 10 -0.000007 0.000007 4.044200 0.040289 -2.574558 -0.990340
 11 17.182070 0.000091 0.000546 0.000004 -0.000009 -2.092176
 12 16.782913 0.000650 -0.000234 0.164616 -0.404528 1.123043
 13 5.168527 5.004116 -0.000135 0.008557 0.035549 1.514951
 14 17.182070 0.000099 0.000206 -0.000001 -0.000007 -1.273751
 15 16.782906 0.000656 -0.000113 0.354584 0.200889 0.199210
 16 5.168479 5.004167 -0.000064 0.286383 0.109802 0.973380
 17 -0.880934 1.688177 3.406884 2.792956 -1.227038 -0.238716
 18 5.760273 0.000016 0.000006 0.384221 0.723549 0.527344
time 35
  0 -1.783476 1.783476 -27.698221 -0.159972 1.310972 -1.937358
  1 0.000000 0.000000 0.000000 -0.000424 -1.329382 -1.570796
  2 4.359985 -0.004008 1.066445 0.092515 -0.101473 -0.150410
  3 5.037136 -0.005101 -0.000238 -0.011076 0.005271 -0.014509
  4 6.388059 -0.005253 -0.000001 -0.227647 0.002341 -0.291470
  5 6.146608 1.394838 0.000001 0.202839 -0.416089 0.556924
  6 -3.275535 0.766288 -1.973233 1.145430 0.677600 3.678590
  7 5.760270 -0.000012 -0.000009 -0.240683 -0.104088 -0.075978
  8 10.965153 0.000065 -0.000006 0.000013 0.000002 -1.121183
  9 0.000007 -0.000004 -4.044200 0.414607 2.575999 -0.407156
 10 -0.000007 0.000007 4.044200 -0.019038 -2.547273 -0.734756
 11 17.182070 0.000091 0.000546 0.000004 -0.000009 -1.736752
 12 16.782913 0.000650 -0.000234 0.188846 -0.199718 0.739497
 13 5.168527 5.004116 -0.000135 0.020134 0.010231 1.262376
 14 17.182070 0.000099 0.000206 -0.000001 -0.000007 -1.118124
 15 16.782906 0.000656 -0.000113 0.350355 0.081208 0.167824
 16 5.168479 5.004167 -0.000064 0.190798 -0.031005 1.047749
 17 -0.900466 1.848338 3.320944 2.388615 -1.297419 0.130347
 18 5.760273 0.000016 0.000006 0.415034 0.807535 0.499194
time 36
  0 -2.435840 2.435840 -30.010792 -0.201949 1.391811 -1.968905
  1 0.000000 0.000000 0.000000 -0.000424 -1.420066 -1.570796
  2 4.434206 -0.004008 0.671902 0.106034 -0.028561 -0.021723
  3 5.037136 -0.005101 -0.000238 -0.004324 0.005110 0.009181
  4 6.388059 -0.005253 -0.000001 -0.129494 0.011857 -0.201723
  5 6.146608 1.394838 0.000001 0.226495 -0.390583 0.576614
  6 -3.213033 0.742849 -2.098237 1.134572 0.822203 3.635000
  7 5.760270 -0.000012 -0.000009 0.509185 -0.536590 0.292362
  8 10.965153 0.000065 -0.000006 0.000013 0.000002 -0.889517
  9 0.000007 -0.000004 -4.044200 0.621892 2.728762 -0.259642
 10 -0.000007 0.000007 4.044200 -0.102519 -2.548835 -0.507273
 11 17.182070 0.000091 0.000546 0.000004 -0.000009 -1.224732
 12 16.782913 0.000650 -0.000234 0.132440 0.013228 0.194455
 13 5.168527 5.004116 -0.000135 0.024361 -0.039766 1.153010
 14 17.182070 0.000099 0.000206 -0.000001 -0.000007 -0.881976
 15 16.782906 0.000656 -0.000113 0.356324 -0.026959 0.063353
 16 5.168479 5.004167 -0.000064 0.155431 -0.040245 1.104639
 17 -0.974687 1.961623 3.227191 1.784641 -1.295375 0.740107
 18 5.760273 0.000016 0.000006 0.331213 0.888603 0.227570
time 37
  0 -2.853821 2.853821 -30.878006 -0.282748 1.462175 -2.040637
  1 0.000000 0.000000 0.000000 -0.000424 -1.502312 -1.570796
  2 4.484989 -0.004008 0.304703 0.137524 0.032684 0.108137
  3 5.037136 -0.005101 -0.000238 0.001968 0.005022 0.036557
  4 6.388059 -0.005253 -0.000001 0.002649 0.010506 -0.085516
  5 6.146608 1.394838 0.000001 0.314485 -0.324138 0.379278
  6 -3.252096 0.067047 -2.145113 1.038185 0.983550 3.720845
  7 5.760270 -0.000012 -0.000009 1.622278 -0.951034 0.037643
  8 10.965153 0.000065 -0.000006 0.000013 0.000002 -0.630982
  9 0.000007 -0.000004 -4.044200 0.763909 2.935693 -0.133625
 10 -0.000007 0.000007 4.044200 -0.289224 -2.608183 -0.069225
 11 17.182070 0.000091 0.000546 0.000004 -0.000009 -0.263717
 12 16.782913 0.000650 -0.000234 0.022473 0.134387 -0.575083
 13 5.168527 5.004116 -0.000135 -0.021218 -0.086061 1.262017
 14 17.182070 0.000099 0.000206 -0.000001 -0.000007 -0.473823
 15 16.782906 0.000656 -0.000113 0.404043 -0.026774 -0.162976
 16 5.168479 5.004167 -0.000064 0.099590 -0.099150 1.227684
 17 -1.388762 1.793649 3.176408 1.395245 -1.225749 1.349392
 18 5.760273 0.000016 0.000006 0.161604 0.849552 -0.136182
time 38
  0 -2.935855 2.935855 -30.174860 -0.282748 1.462175 -2.040637
  1 0.000000 0.000000 0.000000 -0.000424 -1.560801 -1.570704
  2 4.484989 -0.004008 0.039070 0.164886 0.072928 0.200721
  3 5.037136 -0.005101 -0.000238 0.005590 0.005022 0.044746
  4 6.388059 -0.005253 -0.000001 0.009743 0.011286 -0.071828
  5 6.146608 1.394838 0.000001 0.361305 -0.279478 0.369036
  6 -3.170063 -0.100926 -2.270117 1.132572 1.011922 3.823381
  7 5.760270 -0.000012 -0.000009 1.992651 -0.936359 -0.193576
  8 10.965153 0.000065 -0.000006 0.000013 0.000002 -0.579968
  9 0.000007 -0.000004 -4.044200 0.872817 3.031611 -0.113944
 10 -0.000007 0.000007 4.044200 -0.305614 -2.582459 0.018327
 11 17.182070 0.000091 0.000546 0.000004 -0.000009 -0.214745
 12 16.782913 0.000650 -0.000234 -0.036974 0.154512 -0.620492
 13 5.168527 5.004116 -0.000135 -0.036358 -0.092769 1.301964
 14 17.182070 0.000099 0.000206 -0.000001 -0.000007 -0.404884
 15 16.782906 0.000656 -0.000113 0.364993 -0.059547 -0.172385
 16 5.168479 5.004167 -0.000064 0.035587 -0.111697 1.261530
 17 -1.556736 1.891308 3.039685 1.069872 -1.099698 1.724717
 18 5.760273 0.000016 0.000006 0.137917 0.684596 -0.114542
time 39
  0 -2.853821 2.853821 -29.448275 -0.282748 1.462175 -2.040637
  1 0.000000 0.000000 0.000000 -0.000424 -1.572430 -1.570796
  2 4.484989 -0.004008 -0.007807 0.129822 0.083125 0.174938
  3 5.037136 -0.005101 -0.000238 0.000845 0.006309 0.033777
  4 6.388059 -0.005253 -0.000001 0.000120 0.012809 -0.093715
  5 6.146608 1.394838 0.000001 0.405527 -0.237865 0.386900
  6 -3.068497 -0.218117 -2.406840 1.269819 1.009602 3.942609
  7 5.760270 -0.000012 -0.000009 1.884350 -0.906300 -0.156314
  8 10.965153 0.000065 -0.000006 0.000013 0.000002 -0.566967
  9 0.000007 -0.000004 -4.044200 0.980396 3.025879 -0.140408
 10 -0.000007 0.000007 4.044200 -0.281940 -2.604967 -0.027552
 11 17.182070 0.000091 0.000546 0.000004 -0.000009 -0.310968
 12 16.782913 0.000650 -0.000234 -0.087740 0.161665 -0.528417
 13 5.168527 5.004116 -0.000135 -0.067436 -0.104316 1.382218
 14 17.182070 0.000099 0.000206 -0.000001 -0.000007 -0.489859
 15 16.782906 0.000656 -0.000113 0.307564 -0.088393 -0.088951
 16 5.168479 5.004167 -0.000064 -0.063523 -0.177732 1.350567
 17 -1.685646 2.039750 2.883430 0.876143 -0.933192 1.952131
 18 5.760273 0.000016 0.000006 0.184544 0.465707 0.142670
time 40
  0 -2.853821 2.853821 -30.010792 -0.282748 1.462175 -2.040637
  1 0.000000 0.000000 0.000000 -0.000424 -1.550710 -1.570796
  2 4.484989 -0.004008 0.082040 0.080036 0.061533 0.127865
  3 5.037136 -0.005101 -0.000238 -0.005158 0.007729 0.019636
  4 6.388059 -0.005253 -0.000001 -0.012344 0.013932 -0.121830
  5 6.146608 1.394838 0.000001 0.444272 -0.204167 0.412783
  6 -2.966931 -0.300151 -2.512312 1.398780 0.985053 4.045241
  7 5.760270 -0.000012 -0.000009 1.653250 -0.862905 -0.076488
  8 10.965153 0.000065 -0.000006 0.000013 0.000002 -0.575820
  9 0.000007 -0.000004 -4.044200 1.076117 2.978015 -0.125217
 10 -0.000007 0.000007 4.044200 -0.274177 -2.639235 -0.078879
 11 17.182070 0.000091 0.000546 0.000004 -0.000009 -0.395719
 12 16.782913 0.000650 -0.000234 -0.099438 0.171283 -0.451864
 13 5.168527 5.004116 -0.000135 -0.083307 -0.109209 1.422524
 14 17.182070 0.000099 0.000206 -0.000001 -0.000007 -0.596831
 15 16.782906 0.000656 -0.000113 0.233382 -0.078339 0.031740
 16 5.168479 5.004167 -0.000064 -0.181272 -0.251845 1.473734
 17 -1.779399 2.176473 2.711550 0.796068 -0.797648 2.048998
 18 5.760273 0.000016 0.000006 0.179861 0.312470 0.341876
time 41
  0 -2.853821 2.853821 -30.878006 -0.282748 1.462175 -2.040637
  1 0.000000 0.000000 0.000000 -0.000424 -1.534699 -1.570796
  2 4.484989 -0.004008 0.156261 0.054234 0.044815 0.102114
  3 5.037136 -0.005101 -0.000238 -0.008406 0.008372 0.012263
  4 6.388059 -0.005253 -0.000001 -0.019079 0.014160 -0.140725
  5 6.146608 1.394838 0.000001 0.472875 -0.181432 0.426280
  6 -2.904429 -0.374372 -2.586533 1.481453 0.954413 4.113535
  7 5.760270 -0.000012 -0.000009 1.487021 -0.811089 -0.037544
  8 10.965153 0.000065 -0.000006 0.000013 0.000002 -0.590864
  9 0.000007 -0.000004 -4.044200 1.152770 2.944673 -0.091396
 10 -0.000007 0.000007 4.044200 -0.305230 -2.622790 -0.102392
 11 17.182070 0.000091 0.000546 0.000004 -0.000009 -0.414075
 12 16.782913 0.000650 -0.000234 -0.039304 0.188276 -0.451321
 13 5.168527 5.004116 -0.000135 -0.067436 -0.104316 1.382218
 14 17.182070 0.000099 0.000206 -0.000001 -0.000007 -0.673925
 15 16.782906 0.000656 -0.000113 0.168065 -0.050110 0.128421
 16 5.168479 5.004167 -0.000064 -0.284166 -0.298285 1.583831
 17 -1.845807 2.258507 2.594359 0.774850 -0.732642 2.075943
 18 5.760273 0.000016 0.000006 0.182101 0.280714 0.411691
time 42
  0 -2.853821 2.853821 -31.010822 -0.282748 1.462175 -2.040637
  1 0.000000 0.000000 0.000000 -0.000424 -1.544521 -1.570704
  2 4.484989 -0.004008 0.113291 0.055663 0.053509 0.105630
  3 5.037136 -0.005101 -0.000238 -0.008406 0.008255 0.012898
  4 6.388059 -0.005253 -0.000001 -0.019247 0.013665 -0.155627
  5 6.146608 1.394838 0.000001 0.486997 -0.172844 0.419055
  6 -2.884898 -0.429061 -2.586533 1.504502 0.936061 4.142627
  7 5.760270 -0.000012 -0.000009 1.434879 -0.778670 -0.028470
  8 10.965153 0.000065 -0.000006 0.000013 0.000002 -0.596250
  9 0.000007 -0.000004 -4.044200 1.201437 2.955564 -0.073912
 10 -0.000007 0.000007 4.044200 -0.344814 -2.557012 -0.133360
 11 17.182070 0.000091 0.000546 0.000004 -0.000009 -0.421102
 12 16.782913 0.000650 -0.000234 0.059701 0.207327 -0.465416
 13 5.168527 5.004116 -0.000135 -0.036358 -0.092769 1.301964
 14 17.182070 0.000099 0.000206 -0.000001 -0.000007 -0.694141
 15 16.782906 0.000656 -0.000113 0.132430 -0.039521 0.166205
 16 5.168479 5.004167 -0.000064 -0.332415 -0.307574 1.629047
 17 -1.884871 2.278039 2.563108 0.779186 -0.722080 2.081825
 18 5.760273 0.000016 0.000006 0.174024 0.295158 0.378198
time 43
  0 -2.853821 2.853821 -30.878006 -0.282748 1.462175 -2.040637
  1 0.000000 0.000000 0.000000 -0.000424 -1.560801 -1.570704
  2 4.484989 -0.004008 0.039070 0.063300 0.068213 0.116731
  3 5.037136 -0.005101 -0.000238 -0.007777 0.007904 0.015587
  4 6.388059 -0.005253 -0.000001 -0.018253 0.012809 -0.179186
  5 6.146608 1.394838 0.000001 0.490030 -0.175575 0.402144
  6 -2.904429 -0.472031 -2.563095 1.488787 0.931420 4.143294
  7 5.760270 -0.000012 -0.000009 1.424260 -0.777647 -0.012261
  8 10.965153 0.000065 -0.000006 0.000013 0.000002 -0.586778
  9 0.000007 -0.000004 -4.044200 1.225723 2.978111 -0.069517
 10 -0.000007 0.000007 4.044200 -0.369063 -2.501981 -0.154962
 11 17.182070 0.000091 0.000546 0.000004 -0.000009 -0.423970
 12 16.782913 0.000650 -0.000234 0.127314 0.219947 -0.475672
 13 5.168527 5.004116 -0.000135 -0.021218 -0.086061 1.262017
 14 17.182070 0.000099 0.000206 -0.000001 -0.000007 -0.690235
 15 16.782906 0.000656 -0.000113 0.118296 -0.040056 0.173130
 16 5.168479 5.004167 -0.000064 -0.341931 -0.300886 1.630200
 17 -1.884871 2.250694 2.578733 0.795976 -0.740909 2.075943
 18 5.760273 0.000016 0.000006 0.170902 0.323947 0.319428
time 44
  0 -2.853821 2.853821 -30.878006 -0.282748 1.462175 -2.040637
  1 0.000000 0.000000 0.000000 -0.000424 -1.560801 -1.570704
  2 4.484989 -0.004008 0.039070 0.072464 0.066295 0.131966
  3 5.037136 -0.005101 -0.000238 -0.006654 0.007348 0.019485
  4 6.388059 -0.005253 -0.000001 -0.016395 0.011667 -0.207389
  5 6.146608 1.394838 0.000001 0.488191 -0.182658 0.383605
  6 -2.935680 -0.491563 -2.520125 1.460404 0.930207 4.132325
  7 5.760270 -0.000012 -0.000009 1.409965 -0.773713 0.023778
  8 10.965153 0.000065 -0.000006 0.000013 0.000002 -0.580030
  9 0.000007 -0.000004 -4.044200 1.239384 2.978398 -0.065600
 10 -0.000007 0.000007 4.044200 -0.381427 -2.499042 -0.153528
 11 17.182070 0.000091 0.000546 0.000004 -0.000009 -0.424472
 12 16.782913 0.000650 -0.000234 0.142274 0.227878 -0.471801
 13 5.168527 5.004116 -0.000135 -0.023305 -0.081969 1.261005
 14 17.182070 0.000099 0.000206 -0.000001 -0.000007 -0.695923
 15 16.782906 0.000656 -0.000113 0.108944 -0.037527 0.182727
 16 5.168479 5.004167 -0.000064 -0.347811 -0.296775 1.630888
 17 -1.873152 2.215537 2.617797 0.813504 -0.760901 2.072053
 18 5.760273 0.000016 0.000006 0.176128 0.339266 0.288090
time 45
  0 -2.853821 2.853821 -30.878006 -0.282748 1.462175 -2.040637
  1 0.000000 0.000000 0.000000 -0.000424 -1.560801 -1.570704
  2 4.484989 -0.004008 0.039070 0.082701 0.064202 0.148569
  3 5.037136 -0.005101 -0.000238 -0.005549 0.006748 0.023745
  4 6.388059 -0.005253 -0.000001 -0.014214 0.010506 -0.236119
  5 6.146608 1.394838 0.000001 0.487376 -0.187012 0.371537
  6 -2.955212 -0.515002 -2.488874 1.439736 0.931183 4.122596
  7 5.760270 -0.000012 -0.000009 1.399142 -0.767457 0.063386
  8 10.965153 0.000065 -0.000006 0.000013 0.000002 -0.573839
  9 0.000007 -0.000004 -4.044200 1.245645 2.978111 -0.063307
 10 -0.000007 0.000007 4.044200 -0.383535 -2.498582 -0.152954
 11 17.182070 0.000091 0.000546 0.000004 -0.000009 -0.424472
 12 16.782913 0.000650 -0.000234 0.144138 0.228879 -0.471121
 13 5.168527 5.004116 -0.000135 -0.023544 -0.081524 1.260874
 14 17.182070 0.000099 0.000206 -0.000001 -0.000007 -0.699349
 15 16.782906 0.000656 -0.000113 0.104439 -0.036026 0.187732
 16 5.168479 5.004167 -0.000064 -0.350659 -0.294870 1.631171
 17 -1.873152 2.188192 2.641235 0.822729 -0.768068 2.073950
 18 5.760273 0.000016 0.000006 0.187734 0.338245 0.284139
time 46
  0 -2.853821 2.853821 -30.878006 -0.282748 1.462175 -2.040637
  1 0.000000 0.000000 0.000000 -0.000424 -1.560801 -1.570704
  2 4.484989 -0.004008 0.039070 0.091865 0.062220 0.163251
  3 5.037136 -0.005101 -0.000238 -0.004410 0.006266 0.027553
  4 6.388059 -0.005253 -0.000001 -0.012128 0.009497 -0.261367
  5 6.146608 1.394838 0.000001 0.488437 -0.187368 0.367607
  6 -2.955212 -0.526721 -2.488874 1.431449 0.934215 4.117445
  7 5.760270 -0.000012 -0.000009 1.393084 -0.760454 0.098252
  8 10.965153 0.000065 -0.000006 0.000013 0.000002 -0.568143
  9 0.000007 -0.000004 -4.044200 1.246309 2.977920 -0.063021
 10 -0.000007 0.000007 4.044200 -0.378168 -2.499685 -0.153528
 11 17.182070 0.000091 0.000546 0.000004 -0.000009 -0.424400
 12 16.782913 0.000650 -0.000234 0.138522 0.225914 -0.472786
 13 5.168527 5.004116 -0.000135 -0.022773 -0.083001 1.261233
 14 17.182070 0.000099 0.000206 -0.000001 -0.000007 -0.700720
 15 16.782906 0.000656 -0.000113 0.103772 -0.035512 0.189011
 16 5.168479 5.004167 -0.000064 -0.351041 -0.294522 1.631232
 17 -1.873152 2.188192 2.649048 0.825681 -0.768823 2.075279
 18 5.760273 0.000016 0.000006 0.202869 0.334549 0.291233
time 47
  0 -2.853821 2.853821 -30.878006 -0.282748 1.462175 -2.040637
  1 0.000000 0.000000 0.000000 -0.000424 -1.560801 -1.570704
  2 4.484989 -0.004008 0.039070 0.097877 0.060749 0.173115
  3 5.037136 -0.005101 -0.000238 -0.003746 0.005870 0.030091
  4 6.388059 -0.005253 -0.000001 -0.010918 0.008850 -0.279101
  5 6.146608 1.394838 0.000001 0.488551 -0.187427 0.367051
  6 -2.955212 -0.526721 -2.488874 1.424496 0.938935 4.110292
  7 5.760270 -0.000012 -0.000009 1.391450 -0.755182 0.122771
  8 10.965153 0.000065 -0.000006 0.000013 0.000002 -0.564676
  9 0.000007 -0.000004 -4.044200 1.242704 2.976774 -0.063881
 10 -0.000007 0.000007 4.044200 -0.372130 -2.501247 -0.154484
 11 17.182070 0.000091 0.000546 0.000004 -0.000009 -0.424185
 12 16.782913 0.000650 -0.000234 0.131042 0.221948 -0.474688
 13 5.168527 5.004116 -0.000135 -0.021723 -0.085047 1.261755
 14 17.182070 0.000099 0.000206 -0.000001 -0.000007 -0.700720
 15 16.782906 0.000656 -0.000113 0.106065 -0.035738 0.187506
 16 5.168479 5.004167 -0.000064 -0.349525 -0.295661 1.631070
 17 -1.873152 2.188192 2.649048 0.826050 -0.768917 2.075373
 18 5.760273 0.000016 0.000006 0.216172 0.329783 0.303804
time 48
  0 -2.853821 2.853821 -30.878006 -0.282748 1.462175 -2.040637
  1 0.000000 0.000000 0.000000 -0.000424 -1.560801 -1.570704
  2 4.484989 -0.004008 0.039070 0.100217 0.060062 0.177282
  3 5.037136 -0.005101 -0.000238 -0.003457 0.005739 0.031118
  4 6.388059 -0.005253 -0.000001 -0.010415 0.008679 -0.287142
  5 6.146608 1.394838 0.000001 0.488172 -0.187289 0.368520
  6 -2.955212 -0.526721 -2.488874 1.418687 0.944525 4.102280
  7 5.760270 -0.000012 -0.000009 1.396147 -0.753412 0.134393
  8 10.965153 0.000065 -0.000006 0.000013 0.000002 -0.564305
  9 0.000007 -0.000004 -4.044200 1.235969 2.976105 -0.065505
 10 -0.000007 0.000007 4.044200 -0.369063 -2.501981 -0.154962
 11 17.182070 0.000091 0.000546 0.000004 -0.000009 -0.423970
 12 16.782913 0.000650 -0.000234 0.127314 0.219947 -0.475672
 13 5.168527 5.004116 -0.000135 -0.021218 -0.086061 1.262017
 14 17.182070 0.000099 0.000206 -0.000001 -0.000007 -0.699692
 15 16.782906 0.000656 -0.000113 0.110473 -0.036437 0.184006
 16 5.168479 5.004167 -0.000064 -0.346677 -0.297578 1.630726
 17 -1.873152 2.188192 2.649048 0.824943 -0.768634 2.074994
 18 5.760273 0.000016 0.000006 0.224927 0.325649 0.315881
time 49
  0 -2.853821 2.853821 -30.878006 -0.282748 1.462175 -2.040637
  1 0.000000 0.000000 0.000000 -0.000424 -1.560801 -1.570704
  2 4.484989 -0.004008 0.039070 0.100509 0.059966 0.177738
  3 5.037136 -0.005101 -0.000238 -0.003423 0.005739 0.031239
  4 6.388059 -0.005253 -0.000001 -0.010355 0.008641 -0.288144
  5 6.146608 1.394838 0.000001 0.487641 -0.187091 0.370465
  6 -2.955212 -0.522814 -2.488874 1.413258 0.949957 4.094268
  7 5.760270 -0.000012 -0.000009 1.404860 -0.754317 0.137604
  8 10.965153 0.000065 -0.000006 0.000013 0.000002 -0.566472
  9 0.000007 -0.000004 -4.044200 1.227905 2.975054 -0.067702
 10 -0.000007 0.000007 4.044200 -0.369063 -2.501981 -0.154962
 11 17.182070 0.000091 0.000546 0.000004 -0.000009 -0.423970
 12 16.782913 0.000650 -0.000234 0.127314 0.219947 -0.475672
 13 5.168527 5.004116 -0.000135 -0.021218 -0.086061 1.262017
 14 17.182070 0.000099 0.000206 -0.000001 -0.000007 -0.698047
 15 16.782906 0.000656 -0.000113 0.116084 -0.037424 0.179340
 16 5.168479 5.004167 -0.000064 -0.343078 -0.300095 1.630342
 17 -1.873152 2.188192 2.641235 0.823467 -0.768257 2.074235
 18 5.760273 0.000016 0.000006 0.229135 0.323072 0.323603
time 50
  0 -2.853821 2.853821 -30.878006 -0.282748 1.462175 -2.040637
  1 0.000000 0.000000 0.000000 -0.000424 -1.560801 -1.570704
  2 4.484989 -0.004008 0.039070 0.099632 0.060222 0.176208
  3 5.037136 -0.005101 -0.000238 -0.003559 0.005783 0.030877
  4 6.388059 -0.005253 -0.000001 -0.010499 0.008755 -0.285118
  5 6.146608 1.394838 0.000001 0.487376 -0.187012 0.371537
  6 -2.955212 -0.515002 -2.488874 1.408210 0.954466 4.087781
  7 5.760270 -0.000012 -0.000009 1.415547 -0.757031 0.134699
  8 10.965153 0.000065 -0.000006 0.000013 0.000002 -0.569753
  9 0.000007 -0.000004 -4.044200 1.218893 2.974003 -0.069995
 10 -0.000007 0.000007 4.044200 -0.369063 -2.501981 -0.154962
 11 17.182070 0.000091 0.000546 0.000004 -0.000009 -0.423970
 12 16.782913 0.000650 -0.000234 0.127314 0.219947 -0.475672
 13 5.168527 5.004116 -0.000135 -0.021218 -0.086061 1.262017
 14 17.182070 0.000099 0.000206 -0.000001 -0.000007 -0.696197
 15 16.782906 0.000656 -0.000113 0.121988 -0.038411 0.174372
 16 5.168479 5.004167 -0.000064 -0.339269 -0.302816 1.629856
 17 -1.873152 2.188192 2.641235 0.822729 -0.768068 2.073950
 18 5.760273 0.000016 0.000006 0.228592 0.322634 0.325040
time 51
  0 -2.853821 2.853821 -30.878006 -0.282748 1.462175 -2.040637
  1 0.000000 0.000000 0.000000 -0.000424 -1.560801 -1.570704
  2 4.484989 -0.004008 0.039070 0.098462 0.060558 0.174189
  3 5.037136 -0.005101 -0.000238 -0.003678 0.005856 0.030333
  4 6.388059 -0.005253 -0.000001 -0.010702 0.008812 -0.281089
  5 6.146608 1.394838 0.000001 0.487376 -0.187012 0.371537
  6 -2.955212 -0.515002 -2.488874 1.408210 0.954466 4.087781
  7 5.760270 -0.000012 -0.000009 1.418202 -0.758526 0.130162
  8 10.965153 0.000065 -0.000006 0.000013 0.000002 -0.571486
  9 0.000007 -0.000004 -4.044200 1.210734 2.973239 -0.071906
 10 -0.000007 0.000007 4.044200 -0.369063 -2.501981 -0.154962
 11 17.182070 0.000091 0.000546 0.000004 -0.000009 -0.423970
 12 16.782913 0.000650 -0.000234 0.127314 0.219947 -0.475672
 13 5.168527 5.004116 -0.000135 -0.021218 -0.086061 1.262017
 14 17.182070 0.000099 0.000206 -0.000001 -0.000007 -0.694689
 15 16.782906 0.000656 -0.000113 0.127193 -0.039192 0.169931
 16 5.168479 5.004167 -0.000064 -0.335842 -0.305201 1.629472
 17 -1.873152 2.188192 2.641235 0.822729 -0.768068 2.073950
 18 5.760273 0.000016 0.000006 0.226013 0.323510 0.322885
time 52
  0 -2.853821 2.853821 -30.878006 -0.282748 1.462175 -2.040637
  1 0.000000 0.000000 0.000000 -0.000424 -1.560801 -1.570704
  2 4.484989 -0.004008 0.039070 0.097877 0.060749 0.173115
  3 5.037136 -0.005101 -0.000238 -0.003746 0.005870 0.030091
  4 6.388059 -0.005253 -0.000001 -0.010918 0.008850 -0.279101
  5 6.146608 1.394838 0.000001 0.487376 -0.187012 0.371537
  6 -2.955212 -0.515002 -2.488874 1.408210 0.954466 4.087781
  7 5.760270 -0.000012 -0.000009 1.419427 -0.759274 0.127715
  8 10.965153 0.000065 -0.000006 0.000013 0.000002 -0.572229
  9 0.000007 -0.000004 -4.044200 1.205137 2.972283 -0.073339
 10 -0.000007 0.000007 4.044200 -0.369063 -2.501981 -0.154962
 11 17.182070 0.000091 0.000546 0.000004 -0.000009 -0.423970
 12 16.782913 0.000650 -0.000234 0.127314 0.219947 -0.475672
 13 5.168527 5.004116 -0.000135 -0.021218 -0.086061 1.262017
 14 17.182070 0.000099 0.000206 -0.000001 -0.000007 -0.693867
 15 16.782906 0.000656 -0.000113 0.130998 -0.039624 0.166883
 16 5.168479 5.004167 -0.000064 -0.333376 -0.306842 1.629128
 17 -1.873152 2.188192 2.641235 0.822729 -0.768068 2.073950
 18 5.760273 0.000016 0.000006 0.224520 0.323996 0.322032
time 53
  0 -2.853821 2.853821 -30.878006 -0.282748 1.462175 -2.040637
  1 0.000000 0.000000 0.000000 -0.000424 -1.560801 -1.570704
  2 4.484989 -0.004008 0.039070 0.097877 0.060749 0.173115
  3 5.037136 -0.005101 -0.000238 -0.003746 0.005870 0.030091
  4 6.388059 -0.005253 -0.000001 -0.010918 0.008850 -0.279101
  5 6.146608 1.394838 0.000001 0.487376 -0.187012 0.371537
  6 -2.955212 -0.515002 -2.488874 1.408210 0.954466 4.087781
  7 5.760270 -0.000012 -0.000009 1.419427 -0.759274 0.127715
  8 10.965153 0.000065 -0.000006 0.000013 0.000002 -0.572229
  9 0.000007 -0.000004 -4.044200 1.202860 2.971710 -0.073435
 10 -0.000007 0.000007 4.044200 -0.369063 -2.501981 -0.154962
 11 17.182070 0.000091 0.000546 0.000004 -0.000009 -0.423970
 12 16.782913 0.000650 -0.000234 0.127314 0.219947 -0.475672
 13 5.168527 5.004116 -0.000135 -0.021218 -0.086061 1.262017
 14 17.182070 0.000099 0.000206 -0.000001 -0.000007 -0.694141
 15 16.782906 0.000656 -0.000113 0.132413 -0.039583 0.166205
 16 5.168479 5.004167 -0.000064 -0.332415 -0.307574 1.629047
 17 -1.873152 2.188192 2.641235 0.822729 -0.768068 2.073950
 18 5.760273 0.000016 0.000006 0.224520 0.323996 0.322032
end
