version 1
nodes
  0 "Bip01"  -1
  1 "Bip01 Pelvis"   0
  2 "Bip01 Spine"   1
  3 "Bip01 Spine1"   2
  4 "Bip01 Spine2"   3
  5 "Bip01 Neck"   4
  6 "Bip01 R Clavicle"   5
  7 "Bip01 R UpperArm"   6
  8 "Bip01 R Forearm"   7
  9 "Bip01 R Thigh"   1
 10 "Bip01 L Thigh"   1
 11 "Bip01 L Calf"  10
 12 "Bip01 L Foot"  11
 13 "Bip01 L Toe0"  12
 14 "Bip01 R Calf"   9
 15 "Bip01 R Foot"  14
 16 "Bip01 R Toe0"  15
 17 "Bip01 L Clavicle"   5
 18 "Bip01 L UpperArm"  17
end
skeleton
time 0
  0 0.005641 -0.005641 29.373833 0.000000 -0.000000 -1.623296
  1 0.000000 0.000000 0.000000 -1.570796 -1.570796 0.000000
  2 4.484989 -0.004008 0.000006 -0.000004 -0.000016 0.000805
  3 5.037136 -0.005101 -0.000238 -0.000005 0.000003 -0.111294
  4 6.388059 -0.005253 -0.000001 -0.000000 0.000000 -0.078408
  5 6.146608 1.394838 0.000001 -0.000001 -0.000002 0.650292
  6 -2.170032 1.352243 -2.953732 0.101359 1.282170 2.587698
  7 5.760270 -0.000012 -0.000009 -0.237756 0.114898 0.008639
  8 10.965153 0.000065 -0.000006 0.000013 0.000002 -0.222439
  9 0.000007 -0.000004 -4.044200 -0.002999 3.049381 -0.081651
 10 -0.000007 0.000007 4.044200 0.002910 -3.049065 -0.081651
 11 17.182070 0.000091 0.000546 0.000004 -0.000009 -0.201767
 12 16.782913 0.000650 -0.000234 -0.124747 -0.092161 0.120008
 13 5.168527 5.004116 -0.000135 0.000010 0.000000 1.570793
 14 17.182070 0.000099 0.000206 -0.000001 -0.000007 -0.201767
 15 16.782906 0.000656 -0.000113 0.124753 0.092146 0.120029
 16 5.168479 5.004167 -0.000064 0.000011 -0.000001 1.570802
 17 -2.170036 1.352229 2.953745 -0.101360 -1.282173 2.587697
 18 5.760273 0.000016 0.000006 0.237755 -0.114900 0.008654
time 1
  0 0.005641 -0.005641 29.373833 0.000000 -0.000000 -1.623296
  1 0.000000 0.000000 0.000000 -1.570796 -1.570796 0.000000
  2 4.484989 -0.004008 0.000006 -0.000004 -0.000016 0.000805
  3 5.037136 -0.005101 -0.000238 -0.000005 0.000003 -0.111294
  4 6.388059 -0.005253 -0.000001 -0.000000 0.000000 -0.078408
  5 6.146608 1.394838 0.000001 -0.000001 -0.000002 0.650292
  6 -2.170032 1.352243 -2.953732 0.101359 1.282170 2.587698
  7 5.760270 -0.000012 -0.000009 -0.237756 0.114898 0.008639
  8 10.965153 0.000065 -0.000006 0.000013 0.000002 -0.222439
  9 0.000007 -0.000004 -4.044200 -0.002999 3.049381 -0.081651
 10 -0.000007 0.000007 4.044200 0.002910 -3.049065 -0.081651
 11 17.182070 0.000091 0.000546 0.000004 -0.000009 -0.201767
 12 16.782913 0.000650 -0.000234 -0.124747 -0.092161 0.120008
 13 5.168527 5.004116 -0.000135 0.000010 0.000000 1.570793
 14 17.182070 0.000099 0.000206 -0.000001 -0.000007 -0.201767
 15 16.782906 0.000656 -0.000113 0.124753 0.092146 0.120029
 16 5.168479 5.004167 -0.000064 0.000011 -0.000001 1.570802
 17 -2.170036 1.352229 2.953745 -0.101360 -1.282173 2.587697
 18 5.760273 0.000016 0.000006 0.237755 -0.114900 0.008654
end
