version 1
nodes
  0 "Bip01"  -1
  1 "Bip01 Pelvis"   0
  2 "Bip01 Spine"   1
  3 "Bip01 Spine1"   2
  4 "Bip01 Spine2"   3
  5 "Bip01 Neck"   4
  6 "Bip01 R Clavicle"   5
  7 "Bip01 R UpperArm"   6
  8 "Bip01 R Forearm"   7
  9 "Bip01 R Thigh"   1
 10 "Bip01 L Thigh"   1
 11 "Bip01 L Calf"  10
 12 "Bip01 L Foot"  11
 13 "Bip01 L Toe0"  12
 14 "Bip01 R Calf"   9
 15 "Bip01 R Foot"  14
 16 "Bip01 R Toe0"  15
 17 "Bip01 L Clavicle"   5
 18 "Bip01 L UpperArm"  17
end
skeleton
time 0
  0 0.009547 -0.009547 -3.920152 0.014152 0.130055 -1.742724
  1 0.000000 0.000000 0.000000 -1.570796 -1.570796 0.000000
  2 4.484989 -0.004008 0.000006 -0.083944 -0.133918 0.012720
  3 5.037136 -0.005101 -0.000238 -0.009120 -0.021198 0.326096
  4 6.388059 -0.005253 -0.000001 -0.007562 -0.045583 0.070876
  5 6.146608 1.394838 0.000001 0.087534 -0.062391 0.573875
  6 -2.439571 0.938168 -2.902949 0.413475 1.131871 2.942712
  7 5.760270 -0.000012 -0.000009 0.058216 -0.590569 -0.669881
  8 10.965153 0.000065 -0.000006 0.000013 0.000002 -1.200304
  9 0.000007 -0.000004 -4.044200 -2.986292 0.385355 -3.094411
 10 -0.000007 0.000007 4.044200 3.008308 -0.127059 2.610293
 11 17.182070 0.000091 0.000546 0.000004 -0.000009 -1.359172
 12 16.782913 0.000650 -0.000234 -0.231403 -0.163822 0.267680
 13 5.168527 5.004116 -0.000135 -0.046062 0.015675 2.252249
 14 17.182070 0.000099 0.000206 -0.000001 -0.000007 -2.213134
 15 16.782906 0.000656 -0.000113 0.162649 -0.073939 0.218629
 16 5.168479 5.004167 -0.000064 0.158957 -0.099150 1.436913
 17 -2.080190 1.445982 2.973277 0.224936 -1.263941 2.349751
 18 5.760273 0.000016 0.000006 0.348520 0.777141 0.151605
time 1
  0 0.228304 -0.228304 -2.330260 -0.016351 -0.006424 -1.609025
  1 0.000000 0.000000 0.000000 -1.570796 -1.570796 0.000000
  2 4.484989 -0.004008 0.000006 -0.465167 0.010149 0.126855
  3 5.037136 -0.005101 -0.000238 -0.178141 0.056950 0.258894
  4 6.388059 -0.005253 -0.000001 -0.080608 -0.047924 -0.060128
  5 6.146608 1.394838 0.000001 0.169895 0.046003 0.558789
  6 -2.107530 0.594407 -3.195927 0.807883 1.212294 3.330061
  7 5.760270 -0.000012 -0.000009 0.118731 -0.365485 -0.502787
  8 10.965153 0.000065 -0.000006 0.000013 0.000002 -0.869706
  9 0.000007 -0.000004 -4.044200 -3.033442 0.198773 -3.127181
 10 -0.000007 0.000007 4.044200 3.002749 -0.217918 2.775170
 11 17.182070 0.000091 0.000546 0.000004 -0.000009 -1.015005
 12 16.782913 0.000650 -0.000234 -0.138015 -0.152518 0.284424
 13 5.168527 5.004116 -0.000135 -0.024368 0.003861 1.911586
 14 17.182070 0.000099 0.000206 -0.000001 -0.000007 -1.417455
 15 16.782906 0.000656 -0.000113 0.164682 -0.010593 0.345379
 16 5.168479 5.004167 -0.000064 0.077709 -0.052218 1.505962
 17 -2.416137 1.582705 2.567014 0.004453 -1.326149 2.601644
 18 5.760273 0.000016 0.000006 -0.055176 0.485889 -0.265305
time 2
  0 0.400184 -0.400184 -0.978656 -0.065213 -0.137763 -1.470443
  1 0.000000 0.000000 0.000000 -1.570796 -1.570796 0.000000
  2 4.484989 -0.004008 0.000006 -0.834073 0.185877 0.180407
  3 5.037136 -0.005101 -0.000238 -0.353113 0.122486 0.179030
  4 6.388059 -0.005253 -0.000001 -0.152792 -0.059762 -0.190586
  5 6.146608 1.394838 0.000001 0.251516 0.155289 0.552597
  6 -1.810646 0.289711 -3.449841 1.305536 1.219150 3.820901
  7 5.760270 -0.000012 -0.000009 0.212396 -0.152559 -0.331921
  8 10.965153 0.000065 -0.000006 0.000013 0.000002 -0.539046
  9 0.000007 -0.000004 -4.044200 -3.073475 0.011522 -3.150493
 10 -0.000007 0.000007 4.044200 2.980993 -0.306664 2.944444
 11 17.182070 0.000091 0.000546 0.000004 -0.000009 -0.670910
 12 16.782913 0.000650 -0.000234 -0.044626 -0.142863 0.302390
 13 5.168527 5.004116 -0.000135 0.000010 0.000000 1.570793
 14 17.182070 0.000099 0.000206 -0.000001 -0.000007 -0.621981
 15 16.782906 0.000656 -0.000113 0.174782 0.051930 0.472468
 16 5.168479 5.004167 -0.000064 0.000011 -0.000001 1.570802
 17 -2.713021 1.731147 2.203722 -0.339278 -1.367139 2.977063
 18 5.760273 0.000016 0.000006 -0.279761 0.107636 -0.506624
time 3
  0 0.400184 -0.400184 -0.978656 -0.065213 -0.137763 -1.470443
  1 0.000000 0.000000 0.000000 -1.570796 -1.570796 0.000000
  2 4.484989 -0.004008 0.000006 -0.880089 0.204608 0.150229
  3 5.037136 -0.005101 -0.000238 -0.311704 0.110312 0.135246
  4 6.388059 -0.005253 -0.000001 -0.133137 -0.056203 -0.211541
  5 6.146608 1.394838 0.000001 0.299662 0.153330 0.589476
  6 -1.771582 0.207677 -3.469373 1.323537 1.120401 3.757948
  7 5.760270 -0.000012 -0.000009 0.569563 -0.201345 0.214779
  8 10.965153 0.000065 -0.000006 0.000013 0.000002 -0.356288
  9 0.000007 -0.000004 -4.044200 -3.073475 0.011522 -3.150493
 10 -0.000007 0.000007 4.044200 2.980993 -0.306664 2.944444
 11 17.182070 0.000091 0.000546 0.000004 -0.000009 -0.670910
 12 16.782913 0.000650 -0.000234 -0.044626 -0.142863 0.302390
 13 5.168527 5.004116 -0.000135 0.000010 0.000000 1.570793
 14 17.182070 0.000099 0.000206 -0.000001 -0.000007 -0.621981
 15 16.782906 0.000656 -0.000113 0.174782 0.051930 0.472468
 16 5.168479 5.004167 -0.000064 0.000011 -0.000001 1.570802
 17 -2.662239 1.922559 2.102156 1.045425 -1.225906 1.489712
 18 5.760273 0.000016 0.000006 0.040386 0.312130 -0.979699
time 4
  0 0.400184 -0.400184 -0.978656 -0.065213 -0.137763 -1.470443
  1 0.000000 0.000000 0.000000 -1.570796 -1.570796 0.000000
  2 4.484989 -0.004008 0.000006 -0.896110 0.218721 0.088669
  3 5.037136 -0.005101 -0.000238 -0.147717 0.117423 0.015889
  4 6.388059 -0.005253 -0.000001 -0.073490 -0.042557 -0.278996
  5 6.146608 1.394838 0.000001 0.299435 0.178598 0.604481
  6 -1.681736 0.215490 -3.512343 1.609271 1.178332 4.063936
  7 5.760270 -0.000012 -0.000009 0.754512 -0.402822 0.400275
  8 10.965153 0.000065 -0.000006 0.000013 0.000002 -0.304346
  9 0.000007 -0.000004 -4.044200 -3.073475 0.011522 -3.150493
 10 -0.000007 0.000007 4.044200 2.980993 -0.306664 2.944444
 11 17.182070 0.000091 0.000546 0.000004 -0.000009 -0.670910
 12 16.782913 0.000650 -0.000234 -0.044626 -0.142863 0.302390
 13 5.168527 5.004116 -0.000135 0.000010 0.000000 1.570793
 14 17.182070 0.000099 0.000206 -0.000001 -0.000007 -0.621981
 15 16.782906 0.000656 -0.000113 0.174782 0.051930 0.472468
 16 5.168479 5.004167 -0.000064 0.000011 -0.000001 1.570802
 17 -2.693490 1.953810 2.035748 0.918210 -0.741161 1.708208
 18 5.760273 0.000016 0.000006 0.066584 0.373405 -1.134413
time 5
  0 0.400184 -0.400184 -0.978656 -0.065213 -0.137763 -1.470443
  1 0.000000 0.000000 0.000000 -1.570796 -1.570796 0.000000
  2 4.484989 -0.004008 0.000006 -0.913041 0.231842 0.026718
  3 5.037136 -0.005101 -0.000238 0.014535 0.143746 -0.100930
  4 6.388059 -0.005253 -0.000001 -0.014945 -0.024971 -0.345500
  5 6.146608 1.394838 0.000001 0.299605 0.203886 0.619566
  6 -1.568451 0.246740 -3.567032 1.954628 1.194232 4.429061
  7 5.760270 -0.000012 -0.000009 0.914750 -0.631762 0.561456
  8 10.965153 0.000065 -0.000006 0.000013 0.000002 -0.252465
  9 0.000007 -0.000004 -4.044200 -3.073475 0.011522 -3.150493
 10 -0.000007 0.000007 4.044200 2.980993 -0.306664 2.944444
 11 17.182070 0.000091 0.000546 0.000004 -0.000009 -0.670910
 12 16.782913 0.000650 -0.000234 -0.044626 -0.142863 0.302390
 13 5.168527 5.004116 -0.000135 0.000010 0.000000 1.570793
 14 17.182070 0.000099 0.000206 -0.000001 -0.000007 -0.621981
 15 16.782906 0.000656 -0.000113 0.174782 0.051930 0.472468
 16 5.168479 5.004167 -0.000064 0.000011 -0.000001 1.570802
 17 -2.744272 1.934278 1.961527 0.927250 -0.252203 1.813330
 18 5.760273 0.000016 0.000006 0.082738 0.437744 -1.291865
time 6
  0 0.400184 -0.400184 -0.978656 -0.065213 -0.137763 -1.470443
  1 0.000000 0.000000 0.000000 -1.570796 -1.570796 0.000000
  2 4.484989 -0.004008 0.000006 -0.738305 0.239018 0.045990
  3 5.037136 -0.005101 -0.000238 0.084055 0.020019 -0.067359
  4 6.388059 -0.005253 -0.000001 -0.079458 -0.031137 -0.318511
  5 6.146608 1.394838 0.000001 0.279646 0.240077 0.620122
  6 -1.420009 0.277991 -3.625628 2.469520 1.152913 4.971693
  7 5.760270 -0.000012 -0.000009 1.267697 -0.521167 0.340941
  8 10.965153 0.000065 -0.000006 0.000013 0.000002 -0.661875
  9 0.000007 -0.000004 -4.044200 -3.073475 0.011522 -3.150493
 10 -0.000007 0.000007 4.044200 2.980993 -0.306664 2.944444
 11 17.182070 0.000091 0.000546 0.000004 -0.000009 -0.670910
 12 16.782913 0.000650 -0.000234 -0.044626 -0.142863 0.302390
 13 5.168527 5.004116 -0.000135 0.000010 0.000000 1.570793
 14 17.182070 0.000099 0.000206 -0.000001 -0.000007 -0.621981
 15 16.782906 0.000656 -0.000113 0.174782 0.051930 0.472468
 16 5.168479 5.004167 -0.000064 0.000011 -0.000001 1.570802
 17 -2.853651 1.891308 1.867774 0.741270 -0.530081 1.931449
 18 5.760273 0.000016 0.000006 0.198186 0.570993 -1.145996
time 7
  0 0.400184 -0.400184 -0.978656 -0.065213 -0.137763 -1.470443
  1 0.000000 0.000000 0.000000 -1.570796 -1.570796 0.000000
  2 4.484989 -0.004008 0.000006 -0.563210 0.242774 0.066272
  3 5.037136 -0.005101 -0.000238 0.149731 -0.105638 -0.042279
  4 6.388059 -0.005253 -0.000001 -0.144139 -0.035724 -0.291223
  5 6.146608 1.394838 0.000001 0.259515 0.276268 0.620082
  6 -1.263754 0.309242 -3.680317 2.815258 1.027954 5.345880
  7 5.760270 -0.000012 -0.000009 1.566120 -0.357381 0.186489
  8 10.965153 0.000065 -0.000006 0.000013 0.000002 -1.071470
  9 0.000007 -0.000004 -4.044200 -3.073475 0.011522 -3.150493
 10 -0.000007 0.000007 4.044200 2.980993 -0.306664 2.944444
 11 17.182070 0.000091 0.000546 0.000004 -0.000009 -0.670910
 12 16.782913 0.000650 -0.000234 -0.044626 -0.142863 0.302390
 13 5.168527 5.004116 -0.000135 0.000010 0.000000 1.570793
 14 17.182070 0.000099 0.000206 -0.000001 -0.000007 -0.621981
 15 16.782906 0.000656 -0.000113 0.174782 0.051930 0.472468
 16 5.168479 5.004167 -0.000064 0.000011 -0.000001 1.570802
 17 -2.974748 1.817087 1.762302 0.469865 -0.776650 2.144917
 18 5.760273 0.000016 0.000006 0.347910 0.686249 -0.967622
time 8
  0 0.400184 -0.400184 -0.978656 -0.065213 -0.137763 -1.470443
  1 0.000000 0.000000 0.000000 -1.570796 -1.570796 0.000000
  2 4.484989 -0.004008 0.000006 -0.387986 0.243078 0.086911
  3 5.037136 -0.005101 -0.000238 0.213622 -0.232686 -0.025146
  4 6.388059 -0.005253 -0.000001 -0.208879 -0.038446 -0.263671
  5 6.146608 1.394838 0.000001 0.239157 0.312459 0.619169
  6 -1.197346 0.426433 -3.680317 3.012890 0.862309 5.572890
  7 5.760270 -0.000012 -0.000009 1.822270 -0.161804 0.093766
  8 10.965153 0.000065 -0.000006 0.000013 0.000002 -1.481189
  9 0.000007 -0.000004 -4.044200 -3.073475 0.011522 -3.150493
 10 -0.000007 0.000007 4.044200 2.980993 -0.306664 2.944444
 11 17.182070 0.000091 0.000546 0.000004 -0.000009 -0.670910
 12 16.782913 0.000650 -0.000234 -0.044626 -0.142863 0.302390
 13 5.168527 5.004116 -0.000135 0.000010 0.000000 1.570793
 14 17.182070 0.000099 0.000206 -0.000001 -0.000007 -0.621981
 15 16.782906 0.000656 -0.000113 0.174782 0.051930 0.472468
 16 5.168479 5.004167 -0.000064 0.000011 -0.000001 1.570802
 17 -3.005999 1.750679 1.770115 0.041077 -0.951706 2.520621
 18 5.760273 0.000016 0.000006 0.538016 0.775536 -0.750547
time 9
  0 0.400184 -0.400184 -0.978656 -0.065213 -0.137763 -1.470443
  1 0.000000 0.000000 0.000000 -1.570796 -1.570796 0.000000
  2 4.484989 -0.004008 0.000006 -0.101297 0.211992 0.162795
  3 5.037136 -0.005101 -0.000238 0.281322 -0.172272 0.108867
  4 6.388059 -0.005253 -0.000001 -0.107178 -0.039131 -0.168489
  5 6.146608 1.394838 0.000001 0.158370 0.231470 0.646481
  6 -1.388758 0.778007 -3.543594 -2.983993 1.144765 -0.462259
  7 5.760270 -0.000012 -0.000009 1.423307 0.013982 -0.375963
  8 10.965153 0.000065 -0.000006 0.000013 0.000002 -0.741676
  9 0.000007 -0.000004 -4.044200 -3.073475 0.011522 -3.150493
 10 -0.000007 0.000007 4.044200 2.980993 -0.306664 2.944444
 11 17.182070 0.000091 0.000546 0.000004 -0.000009 -0.670910
 12 16.782913 0.000650 -0.000234 -0.044626 -0.142863 0.302390
 13 5.168527 5.004116 -0.000135 0.000010 0.000000 1.570793
 14 17.182070 0.000099 0.000206 -0.000001 -0.000007 -0.621981
 15 16.782906 0.000656 -0.000113 0.174782 0.051930 0.472468
 16 5.168479 5.004167 -0.000064 0.000011 -0.000001 1.570802
 17 -2.818493 1.676458 2.086531 -0.136416 -1.108562 2.649840
 18 5.760273 0.000016 0.000006 0.115316 0.910633 -0.741074
time 10
  0 0.400184 -0.400184 -0.978656 -0.065213 -0.137763 -1.470443
  1 0.000000 0.000000 0.000000 -1.570796 -1.570796 0.000000
  2 4.484989 -0.004008 0.000006 0.179997 0.161471 0.226114
  3 5.037136 -0.005101 -0.000238 0.356028 -0.121368 0.245598
  4 6.388059 -0.005253 -0.000001 -0.005956 -0.049389 -0.073869
  5 6.146608 1.394838 0.000001 0.076616 0.152875 0.679867
  6 -1.654391 1.168644 -3.340463 -2.130888 1.323252 0.354694
  7 5.760270 -0.000012 -0.000009 0.990173 -0.018358 -0.874594
  8 10.965153 0.000065 -0.000006 0.000013 0.000002 -0.002721
  9 0.000007 -0.000004 -4.044200 -3.073475 0.011522 -3.150493
 10 -0.000007 0.000007 4.044200 2.980993 -0.306664 2.944444
 11 17.182070 0.000091 0.000546 0.000004 -0.000009 -0.670910
 12 16.782913 0.000650 -0.000234 -0.044626 -0.142863 0.302390
 13 5.168527 5.004116 -0.000135 0.000010 0.000000 1.570793
 14 17.182070 0.000099 0.000206 -0.000001 -0.000007 -0.621981
 15 16.782906 0.000656 -0.000113 0.174782 0.051930 0.472468
 16 5.168479 5.004167 -0.000064 0.000011 -0.000001 1.570802
 17 -2.545048 1.606143 2.481074 -0.451549 -1.245301 2.918335
 18 5.760273 0.000016 0.000006 -0.395753 1.034205 -0.839263
time 11
  0 0.400184 -0.400184 -0.978656 -0.065213 -0.137763 -1.470443
  1 0.000000 0.000000 0.000000 -1.570796 -1.570796 0.000000
  2 4.484989 -0.004008 0.000006 0.257113 0.145888 0.244344
  3 5.037136 -0.005101 -0.000238 0.387472 -0.094474 0.286542
  4 6.388059 -0.005253 -0.000001 0.036661 -0.054490 -0.050557
  5 6.146608 1.394838 0.000001 0.032886 0.088981 0.708885
  6 -1.841897 1.434277 -3.121706 -1.642759 1.309145 0.808525
  7 5.760270 -0.000012 -0.000009 0.627560 -0.214603 -0.958039
  8 10.965153 0.000065 -0.000006 0.000013 0.000002 -0.169692
  9 0.000007 -0.000004 -4.044200 -3.073475 0.011522 -3.150493
 10 -0.000007 0.000007 4.044200 2.980993 -0.306664 2.944444
 11 17.182070 0.000091 0.000546 0.000004 -0.000009 -0.670910
 12 16.782913 0.000650 -0.000234 -0.044626 -0.142863 0.302390
 13 5.168527 5.004116 -0.000135 0.000010 0.000000 1.570793
 14 17.182070 0.000099 0.000206 -0.000001 -0.000007 -0.621981
 15 16.782906 0.000656 -0.000113 0.174782 0.051930 0.472468
 16 5.168479 5.004167 -0.000064 0.000011 -0.000001 1.570802
 17 -2.279414 1.528016 2.754520 -0.744818 -1.311627 3.173833
 18 5.760273 0.000016 0.000006 -0.147888 1.123102 -0.341584
time 12
  0 0.400184 -0.400184 -0.978656 -0.065213 -0.137763 -1.470443
  1 0.000000 0.000000 0.000000 -1.570796 -1.570796 0.000000
  2 4.484989 -0.004008 0.000006 0.333806 0.128995 0.261240
  3 5.037136 -0.005101 -0.000238 0.419834 -0.068942 0.328241
  4 6.388059 -0.005253 -0.000001 0.079182 -0.060447 -0.027474
  5 6.146608 1.394838 0.000001 -0.012492 0.026454 0.740643
  6 -2.002058 1.656940 -2.914668 -1.268924 1.248603 1.147992
  7 5.760270 -0.000012 -0.000009 0.257391 -0.427451 -0.965482
  8 10.965153 0.000065 -0.000006 0.000013 0.000002 -0.336477
  9 0.000007 -0.000004 -4.044200 -3.073475 0.011522 -3.150493
 10 -0.000007 0.000007 4.044200 2.980993 -0.306664 2.944444
 11 17.182070 0.000091 0.000546 0.000004 -0.000009 -0.670910
 12 16.782913 0.000650 -0.000234 -0.044626 -0.142863 0.302390
 13 5.168527 5.004116 -0.000135 0.000010 0.000000 1.570793
 14 17.182070 0.000099 0.000206 -0.000001 -0.000007 -0.621981
 15 16.782906 0.000656 -0.000113 0.174782 0.051930 0.472468
 16 5.168479 5.004167 -0.000064 0.000011 -0.000001 1.570802
 17 -2.045032 1.453795 2.984996 -1.170008 -1.348059 3.561301
 18 5.760273 0.000016 0.000006 0.195675 1.138324 0.248177
time 13
  0 0.400184 -0.400184 -0.978656 -0.065213 -0.137763 -1.470443
  1 0.000000 0.000000 0.000000 -1.570796 -1.570796 0.000000
  2 4.484989 -0.004008 0.000006 0.410011 0.110919 0.276736
  3 5.037136 -0.005101 -0.000238 0.453216 -0.044799 0.370696
  4 6.388059 -0.005253 -0.000001 0.121680 -0.067451 -0.004602
  5 6.146608 1.394838 0.000001 -0.059862 -0.034531 0.775180
  6 -2.087998 1.774131 -2.785758 -1.025479 1.161588 1.356593
  7 5.760270 -0.000012 -0.000009 -0.158658 -0.626923 -0.878876
  8 10.965153 0.000065 -0.000006 0.000013 0.000002 -0.503386
  9 0.000007 -0.000004 -4.044200 -3.073475 0.011522 -3.150493
 10 -0.000007 0.000007 4.044200 2.980993 -0.306664 2.944444
 11 17.182070 0.000091 0.000546 0.000004 -0.000009 -0.670910
 12 16.782913 0.000650 -0.000234 -0.044626 -0.142863 0.302390
 13 5.168527 5.004116 -0.000135 0.000010 0.000000 1.570793
 14 17.182070 0.000099 0.000206 -0.000001 -0.000007 -0.621981
 15 16.782906 0.000656 -0.000113 0.174782 0.051930 0.472468
 16 5.168479 5.004167 -0.000064 0.000011 -0.000001 1.570802
 17 -1.884871 1.426450 3.110000 -1.648519 -1.339949 4.002090
 18 5.760273 0.000016 0.000006 0.488267 1.072283 0.789001
time 14
  0 0.407997 -0.407997 -0.966937 -0.065213 -0.137763 -1.470443
  1 0.000000 0.000000 0.000000 -1.570796 -1.570796 0.000000
  2 4.484989 -0.004008 0.000006 0.364580 0.111270 0.252417
  3 5.037136 -0.005101 -0.000238 0.427827 -0.030255 0.349091
  4 6.388059 -0.005253 -0.000001 0.107406 -0.066328 -0.002121
  5 6.146608 1.394838 0.000001 -0.054137 -0.039102 0.778237
  6 -2.127062 1.793663 -2.766226 -0.977381 1.170764 1.401614
  7 5.760270 -0.000012 -0.000009 -0.150693 -0.663905 -0.811794
  8 10.965153 0.000065 -0.000006 0.000013 0.000002 -0.487413
  9 0.000007 -0.000004 -4.044200 -3.073475 0.011522 -3.150493
 10 -0.000007 0.000007 4.044200 2.980993 -0.306664 2.944444
 11 17.182070 0.000091 0.000546 0.000004 -0.000009 -0.670910
 12 16.782913 0.000650 -0.000234 -0.044626 -0.142863 0.302390
 13 5.168527 5.004116 -0.000135 0.000010 0.000000 1.570793
 14 17.182070 0.000099 0.000206 -0.000001 -0.000007 -0.621981
 15 16.782906 0.000656 -0.000113 0.174782 0.051930 0.472468
 16 5.168479 5.004167 -0.000064 0.000011 -0.000001 1.570802
 17 -1.834088 1.434263 3.145157 -1.554238 -1.346362 3.903135
 18 5.760273 0.000016 0.000006 0.492339 1.059104 0.738627
time 15
  0 0.407997 -0.407997 -0.959124 -0.065213 -0.137763 -1.470443
  1 0.000000 0.000000 0.000000 -1.570796 -1.570796 0.000000
  2 4.484989 -0.004008 0.000006 0.319182 0.110567 0.228067
  3 5.037136 -0.005101 -0.000238 0.402080 -0.016282 0.327154
  4 6.388059 -0.005253 -0.000001 0.093084 -0.065205 0.000395
  5 6.146608 1.394838 0.000001 -0.048413 -0.043712 0.781333
  6 -2.162219 1.793663 -2.742788 -0.927187 1.179070 1.448733
  7 5.760270 -0.000012 -0.000009 -0.145248 -0.701282 -0.742673
  8 10.965153 0.000065 -0.000006 0.000013 0.000002 -0.471626
  9 0.000007 -0.000004 -4.044200 -3.073475 0.011522 -3.150493
 10 -0.000007 0.000007 4.044200 2.980993 -0.306664 2.944444
 11 17.182070 0.000091 0.000546 0.000004 -0.000009 -0.670910
 12 16.782913 0.000650 -0.000234 -0.044626 -0.142863 0.302390
 13 5.168527 5.004116 -0.000135 0.000010 0.000000 1.570793
 14 17.182070 0.000099 0.000206 -0.000001 -0.000007 -0.621981
 15 16.782906 0.000656 -0.000113 0.174782 0.051930 0.472468
 16 5.168479 5.004167 -0.000064 0.000011 -0.000001 1.570802
 17 -1.798931 1.453795 3.164689 -1.455436 -1.350636 3.799627
 18 5.760273 0.000016 0.000006 0.497633 1.046071 0.689286
time 16
  0 0.407997 -0.407997 -0.935686 -0.065213 -0.137763 -1.470443
  1 0.000000 0.000000 0.000000 -1.570796 -1.570796 0.000000
  2 4.484989 -0.004008 0.000006 0.273784 0.108745 0.203814
  3 5.037136 -0.005101 -0.000238 0.376112 -0.002879 0.304823
  4 6.388059 -0.005253 -0.000001 0.078871 -0.064025 0.002858
  5 6.146608 1.394838 0.000001 -0.042726 -0.048323 0.784350
  6 -2.170032 1.785850 -2.734975 -0.874993 1.186427 1.497474
  7 5.760270 -0.000012 -0.000009 -0.143342 -0.738855 -0.671665
  8 10.965153 0.000065 -0.000006 0.000013 0.000002 -0.455901
  9 0.000007 -0.000004 -4.044200 -3.073475 0.011522 -3.150493
 10 -0.000007 0.000007 4.044200 2.980993 -0.306664 2.944444
 11 17.182070 0.000091 0.000546 0.000004 -0.000009 -0.670910
 12 16.782913 0.000650 -0.000234 -0.044626 -0.142863 0.302390
 13 5.168527 5.004116 -0.000135 0.000010 0.000000 1.570793
 14 17.182070 0.000099 0.000206 -0.000001 -0.000007 -0.621981
 15 16.782906 0.000656 -0.000113 0.174782 0.051930 0.472468
 16 5.168479 5.004167 -0.000064 0.000011 -0.000001 1.570802
 17 -1.767680 1.477233 3.164689 -1.353497 -1.352585 3.693177
 18 5.760273 0.000016 0.000006 0.503877 1.033135 0.640843
time 17
  0 0.407997 -0.407997 -0.916154 -0.065213 -0.137763 -1.470443
  1 0.000000 0.000000 0.000000 -1.570796 -1.570796 0.000000
  2 4.484989 -0.004008 0.000006 0.228483 0.105836 0.179691
  3 5.037136 -0.005101 -0.000238 0.349753 0.009894 0.282191
  4 6.388059 -0.005253 -0.000001 0.064609 -0.062826 0.005339
  5 6.146608 1.394838 0.000001 -0.037040 -0.052953 0.787288
  6 -2.185658 1.762412 -2.742788 -0.821180 1.192808 1.548217
  7 5.760270 -0.000012 -0.000009 -0.145112 -0.776388 -0.598364
  8 10.965153 0.000065 -0.000006 0.000013 0.000002 -0.440176
  9 0.000007 -0.000004 -4.044200 -3.073475 0.011522 -3.150493
 10 -0.000007 0.000007 4.044200 2.980993 -0.306664 2.944444
 11 17.182070 0.000091 0.000546 0.000004 -0.000009 -0.670910
 12 16.782913 0.000650 -0.000234 -0.044626 -0.142863 0.302390
 13 5.168527 5.004116 -0.000135 0.000010 0.000000 1.570793
 14 17.182070 0.000099 0.000206 -0.000001 -0.000007 -0.621981
 15 16.782906 0.000656 -0.000113 0.174782 0.051930 0.472468
 16 5.168479 5.004167 -0.000064 0.000011 -0.000001 1.570802
 17 -1.755961 1.508484 3.164689 -1.251190 -1.352145 3.586159
 18 5.760273 0.000016 0.000006 0.511343 1.020393 0.593207
time 18
  0 0.411903 -0.411904 -0.892716 -0.065213 -0.137763 -1.470443
  1 0.000000 0.000000 0.000000 -1.570796 -1.570796 0.000000
  2 4.484989 -0.004008 0.000006 0.183279 0.101841 0.155731
  3 5.037136 -0.005101 -0.000238 0.323156 0.022097 0.259196
  4 6.388059 -0.005253 -0.000001 0.050299 -0.061589 0.007749
  5 6.146608 1.394838 0.000001 -0.031372 -0.057603 0.790305
  6 -2.197377 1.742880 -2.754507 -0.765747 1.198187 1.600487
  7 5.760270 -0.000012 -0.000009 -0.150966 -0.813765 -0.521953
  8 10.965153 0.000065 -0.000006 0.000013 0.000002 -0.424451
  9 0.000007 -0.000004 -4.044200 -3.073475 0.011522 -3.150493
 10 -0.000007 0.000007 4.044200 2.980993 -0.306664 2.944444
 11 17.182070 0.000091 0.000546 0.000004 -0.000009 -0.670910
 12 16.782913 0.000650 -0.000234 -0.044626 -0.142863 0.302390
 13 5.168527 5.004116 -0.000135 0.000010 0.000000 1.570793
 14 17.182070 0.000099 0.000206 -0.000001 -0.000007 -0.621981
 15 16.782906 0.000656 -0.000113 0.174782 0.051930 0.472468
 16 5.168479 5.004167 -0.000064 0.000011 -0.000001 1.570802
 17 -1.748148 1.539735 3.156876 -1.150266 -1.349379 3.480468
 18 5.760273 0.000016 0.000006 0.519962 1.007847 0.546425
time 19
  0 0.419716 -0.419716 -0.884903 -0.065213 -0.137763 -1.470443
  1 0.000000 0.000000 0.000000 -1.570796 -1.570796 0.000000
  2 4.484989 -0.004008 0.000006 0.138173 0.096774 0.131966
  3 5.037136 -0.005101 -0.000238 0.296287 0.033729 0.235898
  4 6.388059 -0.005253 -0.000001 0.036098 -0.060390 0.010177
  5 6.146608 1.394838 0.000001 -0.025704 -0.062273 0.793322
  6 -2.205189 1.711629 -2.766226 -0.708887 1.202406 1.654283
  7 5.760270 -0.000012 -0.000009 -0.161381 -0.850669 -0.442026
  8 10.965153 0.000065 -0.000006 0.000013 0.000002 -0.408664
  9 0.000007 -0.000004 -4.044200 -3.073475 0.011522 -3.150493
 10 -0.000007 0.000007 4.044200 2.980993 -0.306664 2.944444
 11 17.182070 0.000091 0.000546 0.000004 -0.000009 -0.670910
 12 16.782913 0.000650 -0.000234 -0.044626 -0.142863 0.302390
 13 5.168527 5.004116 -0.000135 0.000010 0.000000 1.570793
 14 17.182070 0.000099 0.000206 -0.000001 -0.000007 -0.621981
 15 16.782906 0.000656 -0.000113 0.174782 0.051930 0.472468
 16 5.168479 5.004167 -0.000064 0.000011 -0.000001 1.570802
 17 -1.740335 1.574892 3.141251 -1.052940 -1.344318 3.378288
 18 5.760273 0.000016 0.000006 0.529125 0.995543 0.500451
time 20
  0 0.419716 -0.419716 -0.873184 -0.065213 -0.137763 -1.470443
  1 0.000000 0.000000 0.000000 -1.570796 -1.570796 0.000000
  2 4.484989 -0.004008 0.000006 0.093263 0.090653 0.108495
  3 5.037136 -0.005101 -0.000238 0.269129 0.044689 0.212299
  4 6.388059 -0.005253 -0.000001 0.021848 -0.059077 0.012605
  5 6.146608 1.394838 0.000001 -0.020056 -0.066962 0.796299
  6 -2.205189 1.680378 -2.785758 -0.650883 1.205491 1.709033
  7 5.760270 -0.000012 -0.000009 -0.176901 -0.886904 -0.357918
  8 10.965153 0.000065 -0.000006 0.000013 0.000002 -0.392877
  9 0.000007 -0.000004 -4.044200 -3.073475 0.011522 -3.150493
 10 -0.000007 0.000007 4.044200 2.980993 -0.306664 2.944444
 11 17.182070 0.000091 0.000546 0.000004 -0.000009 -0.670910
 12 16.782913 0.000650 -0.000234 -0.044626 -0.142863 0.302390
 13 5.168527 5.004116 -0.000135 0.000010 0.000000 1.570793
 14 17.182070 0.000099 0.000206 -0.000001 -0.000007 -0.621981
 15 16.782906 0.000656 -0.000113 0.174782 0.051930 0.472468
 16 5.168479 5.004167 -0.000064 0.000011 -0.000001 1.570802
 17 -1.736429 1.606143 3.121719 -0.960780 -1.337151 3.281611
 18 5.760273 0.000016 0.000006 0.539441 0.983434 0.455016
time 21
  0 0.419716 -0.419716 -0.880997 -0.065213 -0.137763 -1.470443
  1 0.000000 0.000000 0.000000 -1.570796 -1.570796 0.000000
  2 4.484989 -0.004008 0.000006 0.048514 0.083445 0.085316
  3 5.037136 -0.005101 -0.000238 0.241715 0.054989 0.188367
  4 6.388059 -0.005253 -0.000001 0.007550 -0.057668 0.014998
  5 6.146608 1.394838 0.000001 -0.014426 -0.071672 0.799197
  6 -2.205189 1.656940 -2.797477 -0.592021 1.207495 1.764831
  7 5.760270 -0.000012 -0.000009 -0.198139 -0.922116 -0.269019
  8 10.965153 0.000065 -0.000006 0.000013 0.000002 -0.376842
  9 0.000007 -0.000004 -4.044200 -3.073475 0.011522 -3.150493
 10 -0.000007 0.000007 4.044200 2.980993 -0.306664 2.944444
 11 17.182070 0.000091 0.000546 0.000004 -0.000009 -0.670910
 12 16.782913 0.000650 -0.000234 -0.044626 -0.142863 0.302390
 13 5.168527 5.004116 -0.000135 0.000010 0.000000 1.570793
 14 17.182070 0.000099 0.000206 -0.000001 -0.000007 -0.621981
 15 16.782906 0.000656 -0.000113 0.174782 0.051930 0.472468
 16 5.168479 5.004167 -0.000064 0.000011 -0.000001 1.570802
 17 -1.736429 1.637394 3.110000 -0.874893 -1.328067 3.191100
 18 5.760273 0.000016 0.000006 0.550165 0.971617 0.410209
time 22
  0 0.411903 -0.411904 -0.892716 -0.065213 -0.137763 -1.470443
  1 0.000000 0.000000 0.000000 -1.570796 -1.570796 0.000000
  2 4.484989 -0.004008 0.000006 0.003961 0.075246 0.062495
  3 5.037136 -0.005101 -0.000238 0.214030 0.064646 0.164164
  4 6.388059 -0.005253 -0.000001 -0.006604 -0.056317 0.017373
  5 6.146608 1.394838 0.000001 -0.008777 -0.076381 0.802095
  6 -2.197377 1.645221 -2.801383 -0.532779 1.208286 1.820821
  7 5.760270 -0.000012 -0.000009 -0.225639 -0.955991 -0.174512
  8 10.965153 0.000065 -0.000006 0.000013 0.000002 -0.361117
  9 0.000007 -0.000004 -4.044200 -3.073475 0.011522 -3.150493
 10 -0.000007 0.000007 4.044200 2.980993 -0.306664 2.944444
 11 17.182070 0.000091 0.000546 0.000004 -0.000009 -0.670910
 12 16.782913 0.000650 -0.000234 -0.044626 -0.142863 0.302390
 13 5.168527 5.004116 -0.000135 0.000010 0.000000 1.570793
 14 17.182070 0.000099 0.000206 -0.000001 -0.000007 -0.621981
 15 16.782906 0.000656 -0.000113 0.174782 0.051930 0.472468
 16 5.168479 5.004167 -0.000064 0.000011 -0.000001 1.570802
 17 -1.724710 1.656926 3.090468 -0.795926 -1.317222 3.107421
 18 5.760273 0.000016 0.000006 0.562042 0.960091 0.365761
time 23
  0 0.407997 -0.407997 -0.927873 -0.065213 -0.137763 -1.470443
  1 0.000000 0.000000 0.000000 -1.570796 -1.570796 0.000000
  2 4.484989 -0.004008 0.000006 -0.040300 0.066104 0.040098
  3 5.037136 -0.005101 -0.000238 0.186157 0.073616 0.139688
  4 6.388059 -0.005253 -0.000001 -0.020817 -0.054966 0.019713
  5 6.146608 1.394838 0.000001 -0.003185 -0.081130 0.804874
  6 -2.181751 1.645221 -2.801383 -0.473537 1.207917 1.876811
  7 5.760270 -0.000012 -0.000009 -0.259879 -0.988135 -0.073532
  8 10.965153 0.000065 -0.000006 0.000013 0.000002 -0.345454
  9 0.000007 -0.000004 -4.044200 -3.073475 0.011522 -3.150493
 10 -0.000007 0.000007 4.044200 2.980993 -0.306664 2.944444
 11 17.182070 0.000091 0.000546 0.000004 -0.000009 -0.670910
 12 16.782913 0.000650 -0.000234 -0.044626 -0.142863 0.302390
 13 5.168527 5.004116 -0.000135 0.000010 0.000000 1.570793
 14 17.182070 0.000099 0.000206 -0.000001 -0.000007 -0.621981
 15 16.782906 0.000656 -0.000113 0.174782 0.051930 0.472468
 16 5.168479 5.004167 -0.000064 0.000011 -0.000001 1.570802
 17 -1.705178 1.668645 3.090468 -0.723969 -1.304868 3.030857
 18 5.760273 0.000016 0.000006 0.574191 0.948857 0.322032
time 24
  0 0.009547 -0.009547 -3.920152 0.014152 0.130055 -1.742724
  1 0.000000 0.000000 0.000000 -1.570796 -1.570796 0.000000
  2 4.484989 -0.004008 0.000006 -0.083944 -0.133918 0.012720
  3 5.037136 -0.005101 -0.000238 -0.009120 -0.021198 0.326096
  4 6.388059 -0.005253 -0.000001 -0.007562 -0.045583 0.070876
  5 6.146608 1.394838 0.000001 0.087534 -0.062391 0.573875
  6 -2.439571 0.938168 -2.902949 0.413475 1.131871 2.942712
  7 5.760270 -0.000012 -0.000009 0.058216 -0.590569 -0.669881
  8 10.965153 0.000065 -0.000006 0.000013 0.000002 -1.200304
  9 0.000007 -0.000004 -4.044200 -2.986292 0.385355 -3.094411
 10 -0.000007 0.000007 4.044200 3.008308 -0.127059 2.610293
 11 17.182070 0.000091 0.000546 0.000004 -0.000009 -1.359172
 12 16.782913 0.000650 -0.000234 -0.231403 -0.163822 0.267680
 13 5.168527 5.004116 -0.000135 -0.046062 0.015675 2.252249
 14 17.182070 0.000099 0.000206 -0.000001 -0.000007 -2.213134
 15 16.782906 0.000656 -0.000113 0.162649 -0.073939 0.218629
 16 5.168479 5.004167 -0.000064 0.158957 -0.099150 1.436913
 17 -2.080190 1.445982 2.973277 0.224936 -1.263941 2.349751
 18 5.760273 0.000016 0.000006 0.348520 0.777141 0.151605
end
