version 1
nodes
  0 "Bip01"  -1
  1 "Bip01 Pelvis"   0
  2 "Bip01 Spine"   1
  3 "Bip01 Spine1"   2
  4 "Bip01 Spine2"   3
  5 "Bip01 Neck"   4
  6 "Bip01 R Clavicle"   5
  7 "Bip01 R UpperArm"   6
  8 "Bip01 R Forearm"   7
  9 "Bip01 R Thigh"   1
 10 "Bip01 L Thigh"   1
 11 "Bip01 L Calf"  10
 12 "Bip01 L Foot"  11
 13 "Bip01 L Toe0"  12
 14 "Bip01 R Calf"   9
 15 "Bip01 R Foot"  14
 16 "Bip01 R Toe0"  15
 17 "Bip01 L Clavicle"   5
 18 "Bip01 L UpperArm"  17
end
skeleton
time 0
  0 0.009547 -0.009547 -4.861587 0.014152 0.130055 -1.742724
  1 0.000000 0.000000 0.000000 -3.141168 -1.396520 1.570796
  2 4.422487 -0.004008 -0.769549 -0.081702 0.040244 0.012655
  3 5.037136 -0.005101 -0.000238 -0.008916 -0.021315 0.313737
  4 6.388059 -0.005253 -0.000001 -0.005825 -0.045811 0.031501
  5 6.146608 1.394838 0.000001 0.260160 0.648348 0.022279
  6 -0.248098 -1.171272 -3.711568 2.673248 0.864814 -0.426872
  7 5.760270 -0.000012 -0.000009 -0.052127 -0.422848 -0.169160
  8 10.965153 0.000065 -0.000006 0.000013 0.000002 -0.848595
  9 0.000007 -0.000004 -4.044200 0.064357 3.030942 0.146594
 10 -0.000007 0.000007 4.044200 -0.071370 -2.910801 -0.589091
 11 17.182070 0.000091 0.000546 0.000004 -0.000009 -1.390720
 12 16.782913 0.000650 -0.000234 -0.358955 0.093877 0.191365
 13 5.168527 5.004116 -0.000135 -0.091495 0.102092 1.663971
 14 17.182070 0.000099 0.000206 -0.000001 -0.000007 -1.834516
 15 16.782906 0.000656 -0.000113 0.151638 0.036777 -0.017861
 16 5.168479 5.004167 -0.000064 0.158957 -0.099150 1.436913
 17 -3.802898 0.047502 0.840399 0.349291 -0.900186 2.869285
 18 5.760273 0.000016 0.000006 0.465937 1.270552 0.610897
time 1
  0 0.017360 -0.017360 -2.650582 0.014152 0.130055 -1.742724
  1 0.000000 0.000000 0.000000 -3.141168 -1.396520 1.570796
  2 4.422487 -0.004008 -0.769549 -0.178218 0.045246 -0.082957
  3 5.037136 -0.005101 -0.000238 -0.113672 0.012016 0.019968
  4 6.388059 -0.005253 -0.000001 0.049377 0.033573 0.139105
  5 6.146608 1.394838 0.000001 -0.013876 -0.194293 0.680660
  6 -2.650516 1.445996 -2.469342 0.780929 1.321538 3.246029
  7 5.760270 -0.000012 -0.000009 -0.236054 0.313897 -0.124863
  8 10.965153 0.000065 -0.000006 0.000013 0.000002 -0.760559
  9 0.000007 -0.000004 -4.044200 0.234549 3.092086 -0.647153
 10 -0.000007 0.000007 4.044200 -0.227788 -3.055956 0.397783
 11 17.182070 0.000091 0.000546 0.000004 -0.000009 -0.474591
 12 16.782913 0.000650 -0.000234 -0.366827 0.006112 0.072629
 13 5.168527 5.004116 -0.000135 -0.091495 0.102092 1.863055
 14 17.182070 0.000099 0.000206 -0.000001 -0.000007 -1.860009
 15 16.782906 0.000656 -0.000113 0.422015 -0.028501 -0.771701
 16 5.168479 5.004167 -0.000064 0.158957 -0.099150 1.436913
 17 -1.517672 1.360042 3.324850 2.733269 -1.389332 -0.275243
 18 5.760273 0.000016 0.000006 0.390125 1.226298 0.627868
time 2
  0 2.372901 -2.372901 -2.099784 0.068942 0.232784 -1.801687
  1 0.000000 0.000000 0.000000 -3.141168 -1.396520 1.570796
  2 4.422487 -0.004008 -0.769549 -0.274799 0.040979 -0.178830
  3 5.037136 -0.005101 -0.000238 -0.223563 0.013450 -0.275674
  4 6.388059 -0.005253 -0.000001 0.113206 0.106658 0.251582
  5 6.146608 1.394838 0.000001 -0.111951 -0.201239 0.421834
  6 -2.955212 1.094423 -2.309181 0.192318 1.300496 2.930027
  7 5.760270 -0.000012 -0.000009 0.397140 -0.180060 -0.297870
  8 10.965153 0.000065 -0.000006 0.000013 0.000002 -0.888217
  9 0.000007 -0.000004 -4.044200 0.106383 2.974481 -0.961575
 10 -0.000007 0.000007 4.044200 -0.232484 -3.025547 0.068794
 11 17.182070 0.000091 0.000546 0.000004 -0.000009 -0.515748
 12 16.782913 0.000650 -0.000234 -0.337447 0.204955 0.211199
 13 5.168527 5.004116 -0.000135 -0.111154 0.130862 1.790797
 14 17.182070 0.000099 0.000206 -0.000001 -0.000007 -1.858775
 15 16.782906 0.000656 -0.000113 0.171204 -0.252628 -0.366725
 16 5.168479 5.004167 -0.000064 0.158957 -0.099150 1.436913
 17 -1.791118 0.449858 3.438135 -2.655082 -1.261930 5.373883
 18 5.760273 0.000016 0.000006 -0.086600 1.018740 0.215717
time 3
  0 5.189393 -5.189393 -1.673990 0.131286 0.375340 -1.872480
  1 0.000000 0.000000 0.000000 -0.000424 -1.745072 -1.570796
  2 4.422487 -0.004008 -0.769549 -0.285881 0.018204 -0.244883
  3 5.037136 -0.005101 -0.000238 -0.272030 -0.011015 -0.434796
  4 6.388059 -0.005253 -0.000001 0.148741 0.127346 0.294969
  5 6.146608 1.394838 0.000001 -0.173536 -0.121931 -0.012773
  6 -2.873178 0.195958 -2.637316 -0.572401 1.364360 2.598667
  7 5.760270 -0.000012 -0.000009 1.066072 -0.603080 -0.676661
  8 10.965153 0.000065 -0.000006 0.000013 0.000002 -0.977367
  9 0.000007 -0.000004 -4.044200 -0.103274 2.882384 -1.204056
 10 -0.000007 0.000007 4.044200 -0.197405 -2.966750 -0.476209
 11 17.182070 0.000091 0.000546 0.000004 -0.000009 -0.705183
 12 16.782913 0.000650 -0.000234 -0.175046 0.414305 0.443474
 13 5.168527 5.004116 -0.000135 -0.167261 0.193793 1.612699
 14 17.182070 0.000099 0.000206 -0.000001 -0.000007 -1.845686
 15 16.782906 0.000656 -0.000113 -0.182252 -0.123695 0.304396
 16 5.168479 5.004167 -0.000064 0.158957 -0.099150 1.436913
 17 -2.170036 -0.819712 3.145157 -2.037177 -1.114315 5.205765
 18 5.760273 0.000016 0.000006 -0.503124 0.583151 -0.278774
time 4
  0 7.869162 -7.869163 -1.615394 0.176132 0.469076 -1.919613
  1 0.000000 0.000000 0.000000 -0.000424 -1.745072 -1.570796
  2 4.422487 -0.004008 -0.769549 -0.207888 -0.019946 -0.288245
  3 5.037136 -0.005101 -0.000238 -0.258595 -0.044214 -0.460934
  4 6.388059 -0.005253 -0.000001 0.147650 0.096951 0.260925
  5 6.146608 1.394838 0.000001 -0.247973 -0.036470 -0.432772
  6 -2.310661 -0.534533 -3.098268 1.554696 1.786884 5.138994
  7 5.760270 -0.000012 -0.000009 1.124204 -0.574242 -0.706328
  8 10.965153 0.000065 -0.000006 0.000013 0.000002 -0.917315
  9 0.000007 -0.000004 -4.044200 -0.232198 2.836909 -1.356537
 10 -0.000007 0.000007 4.044200 -0.127439 -2.933861 -1.024558
 11 17.182070 0.000091 0.000546 0.000004 -0.000009 -0.913404
 12 16.782913 0.000650 -0.000234 0.062963 0.477127 0.703326
 13 5.168527 5.004116 -0.000135 -0.234706 0.245764 1.429019
 14 17.182070 0.000099 0.000206 -0.000001 -0.000007 -1.724803
 15 16.782906 0.000656 -0.000113 -0.207185 0.082894 0.689313
 16 5.168479 5.004167 -0.000064 0.158957 -0.099150 1.436913
 17 -2.107534 -1.983810 2.629516 -1.646397 -0.994708 5.276542
 18 5.760273 0.000016 0.000006 -0.773794 -0.012921 -0.667668
time 5
  0 9.845785 -9.845785 -2.154473 0.187224 0.421541 -1.915951
  1 0.000000 0.000000 0.000000 -0.000424 -1.745072 -1.570796
  2 4.422487 -0.004008 -0.769549 -0.099445 -0.064617 -0.334407
  3 5.037136 -0.005101 -0.000238 -0.226046 -0.086690 -0.453410
  4 6.388059 -0.005253 -0.000001 0.136493 0.046934 0.201018
  5 6.146608 1.394838 0.000001 -0.306924 -0.017751 -0.650512
  6 -1.935650 -0.757196 -3.301399 1.245627 1.861875 5.052864
  7 5.760270 -0.000012 -0.000009 1.047897 -0.515581 -0.653671
  8 10.965153 0.000065 -0.000006 0.000013 0.000002 -0.819869
  9 0.000007 -0.000004 -4.044200 -0.229352 2.804331 -1.427333
 10 -0.000007 0.000007 4.044200 -0.077408 -2.935147 -1.350202
 11 17.182070 0.000091 0.000546 0.000004 -0.000009 -1.011205
 12 16.782913 0.000650 -0.000234 0.180900 0.410784 0.821722
 13 5.168527 5.004116 -0.000135 -0.265558 0.263574 1.351278
 14 17.182070 0.000099 0.000206 -0.000001 -0.000007 -1.454871
 15 16.782906 0.000656 -0.000113 -0.143526 0.092681 0.742038
 16 5.168479 5.004167 -0.000064 0.152214 -0.099150 1.436913
 17 -1.830182 -2.546328 2.332632 -1.507374 -0.908736 5.396369
 18 5.760273 0.000016 0.000006 -0.923585 -0.571303 -0.945039
time 6
  0 11.220826 -11.220827 -4.396729 0.157486 0.216033 -1.857927
  1 0.000000 0.000000 0.000000 -3.141168 -1.396520 1.570796
  2 4.422487 -0.004008 -0.769549 0.030218 -0.107387 -0.382392
  3 5.037136 -0.005101 -0.000238 -0.182715 -0.132356 -0.420474
  4 6.388059 -0.005253 -0.000001 0.122243 -0.015435 0.125716
  5 6.146608 1.394838 0.000001 -0.320288 -0.055664 -0.618516
  6 -2.099717 -0.682975 -3.215459 1.424116 1.938000 5.215110
  7 5.760270 -0.000012 -0.000009 0.874112 -0.466401 -0.565129
  8 10.965153 0.000065 -0.000006 0.000013 0.000002 -0.706574
  9 0.000007 -0.000004 -4.044200 -0.172052 2.764970 -1.452364
 10 -0.000007 0.000007 4.044200 -0.064852 -2.938822 -1.428770
 11 17.182070 0.000091 0.000546 0.000004 -0.000009 -0.970191
 12 16.782913 0.000650 -0.000234 0.144653 0.313271 0.791325
 13 5.168527 5.004116 -0.000135 -0.266382 0.262720 1.348080
 14 17.182070 0.000099 0.000206 -0.000001 -0.000007 -1.102431
 15 16.782906 0.000656 -0.000113 -0.095986 0.030753 0.677233
 16 5.168479 5.004167 -0.000064 0.134549 -0.099150 1.436913
 17 -1.767680 -2.534608 2.375602 -1.559680 -0.838261 5.430808
 18 5.760273 0.000016 0.000006 -0.952973 -0.948486 -1.207415
time 7
  0 12.459146 -12.459146 -8.162469 0.087301 -0.073477 -1.760657
  1 0.000000 0.000000 0.000000 -3.141168 -1.396520 1.570796
  2 4.422487 -0.004008 -0.769549 0.170866 -0.141557 -0.429075
  3 5.037136 -0.005101 -0.000238 -0.135796 -0.175388 -0.369467
  4 6.388059 -0.005253 -0.000001 0.110654 -0.082296 0.044450
  5 6.146608 1.394838 0.000001 -0.312762 -0.103252 -0.457860
  6 -2.459103 -0.429061 -2.992796 -1.463223 1.117975 2.179269
  7 5.760270 -0.000012 -0.000009 0.655605 -0.449562 -0.483009
  8 10.965153 0.000065 -0.000006 0.000013 0.000002 -0.598789
  9 0.000007 -0.000004 -4.044200 -0.084869 2.726564 -1.435836
 10 -0.000007 0.000007 4.044200 -0.065523 -2.938454 -1.406977
 11 17.182070 0.000091 0.000546 0.000004 -0.000009 -0.868519
 12 16.782913 0.000650 -0.000234 0.033165 0.203935 0.704175
 13 5.168527 5.004116 -0.000135 -0.268615 0.260407 1.339398
 14 17.182070 0.000099 0.000206 -0.000001 -0.000007 -0.732996
 15 16.782906 0.000656 -0.000113 -0.086715 -0.053646 0.553983
 16 5.168479 5.004167 -0.000064 0.112718 -0.099150 1.436913
 17 -1.865339 -2.237724 2.598265 -1.670475 -0.821349 5.357944
 18 5.760273 0.000016 0.000006 -0.814924 -1.025421 -1.441371
time 8
  0 13.517772 -13.517773 -12.791516 -0.043794 -0.398070 -1.607053
  1 0.000000 0.000000 0.000000 -3.141168 -1.396520 1.570796
  2 4.422487 -0.004008 -0.769549 0.311058 -0.162478 -0.468759
  3 5.037136 -0.005101 -0.000238 -0.091785 -0.209349 -0.306828
  4 6.388059 -0.005253 -0.000001 0.105057 -0.144723 -0.034019
  5 6.146608 1.394838 0.000001 -0.303342 -0.157687 -0.224956
  6 -2.853647 0.004546 -2.660754 -1.214826 1.025370 2.198441
  7 5.760270 -0.000012 -0.000009 0.454456 -0.473365 -0.428263
  8 10.965153 0.000065 -0.000006 0.000013 0.000002 -0.517687
  9 0.000007 -0.000004 -4.044200 0.007437 2.699241 -1.386250
 10 -0.000007 0.000007 4.044200 -0.073670 -2.936893 -1.318565
 11 17.182070 0.000091 0.000546 0.000004 -0.000009 -0.736947
 12 16.782913 0.000650 -0.000234 -0.100738 0.081739 0.595459
 13 5.168527 5.004116 -0.000135 -0.271672 0.257240 1.327519
 14 17.182070 0.000099 0.000206 -0.000001 -0.000007 -0.412011
 15 16.782906 0.000656 -0.000113 -0.108428 -0.126470 0.432012
 16 5.168479 5.004167 -0.000064 0.095053 -0.099150 1.436913
 17 -1.935654 -1.741615 2.914681 -1.827765 -0.872838 5.240869
 18 5.760273 0.000016 0.000006 -0.672734 -0.856670 -1.462517
time 9
  0 14.408423 -14.408424 -18.170588 -0.278254 -0.698500 -1.353738
  1 0.000000 0.000000 0.000000 -0.000424 -1.745072 -1.570796
  2 4.422487 -0.004008 -0.769549 0.438479 -0.168168 -0.494412
  3 5.037136 -0.005101 -0.000238 -0.055359 -0.226497 -0.238417
  4 6.388059 -0.005253 -0.000001 0.106339 -0.193103 -0.101086
  5 6.146608 1.394838 0.000001 -0.305635 -0.212775 0.025018
  6 -3.103654 0.555344 -2.297462 -1.007764 0.938566 2.151131
  7 5.760270 -0.000012 -0.000009 0.338463 -0.520813 -0.406649
  8 10.965153 0.000065 -0.000006 0.000013 0.000002 -0.484503
  9 0.000007 -0.000004 -4.044200 0.075077 2.689974 -1.316793
 10 -0.000007 0.000007 4.044200 -0.082967 -2.937536 -1.195170
 11 17.182070 0.000091 0.000546 0.000004 -0.000009 -0.606163
 12 16.782913 0.000650 -0.000234 -0.213255 -0.052856 0.489494
 13 5.168527 5.004116 -0.000135 -0.274676 0.254055 1.315704
 14 17.182070 0.000099 0.000206 -0.000001 -0.000007 -0.205056
 15 16.782906 0.000656 -0.000113 -0.147414 -0.169338 0.361901
 16 5.168479 5.004167 -0.000064 0.088310 -0.099150 1.436913
 17 -1.873152 -1.190817 3.207659 -2.040498 -0.989522 5.177588
 18 5.760273 0.000016 0.000006 -0.551041 -0.575680 -1.295502
time 10
  0 15.123289 -15.123290 -23.385590 -0.659203 -0.901290 -0.957053
  1 0.000000 0.000000 0.000000 -0.000424 -1.745072 -1.570796
  2 4.422487 -0.004008 -0.769549 0.540812 -0.158626 -0.498806
  3 5.037136 -0.005101 -0.000238 -0.029952 -0.218128 -0.170217
  4 6.388059 -0.005253 -0.000001 0.113914 -0.218397 -0.147482
  5 6.146608 1.394838 0.000001 -0.324363 -0.258305 0.236288
  6 -3.189594 1.063172 -1.981046 -0.874231 0.850127 2.065478
  7 5.760270 -0.000012 -0.000009 0.370388 -0.593638 -0.463180
  8 10.965153 0.000065 -0.000006 0.000013 0.000002 -0.570929
  9 0.000007 -0.000004 -4.044200 0.109988 2.703349 -1.214278
 10 -0.000007 0.000007 4.044200 -0.086705 -2.942221 -1.069672
 11 17.182070 0.000091 0.000546 0.000004 -0.000009 -0.506642
 12 16.782913 0.000650 -0.000234 -0.267454 -0.187617 0.402276
 13 5.168527 5.004116 -0.000135 -0.276830 0.251671 1.307023
 14 17.182070 0.000099 0.000206 -0.000001 -0.000007 -0.149754
 15 16.782906 0.000656 -0.000113 -0.202875 -0.195717 0.358100
 16 5.168479 5.004167 -0.000064 0.079878 -0.099150 1.436913
 17 -1.693459 -0.757210 3.430322 -2.355539 -1.129938 5.292291
 18 5.760273 0.000016 0.000006 -0.462266 -0.273778 -1.039052
time 11
  0 15.654555 -15.654556 -27.573217 -1.093508 -0.958757 -0.510324
  1 0.000000 0.000000 0.000000 -0.000424 -1.745072 -1.570796
  2 4.422487 -0.004008 -0.769549 0.546142 -0.059455 -0.329687
  3 5.037136 -0.005101 -0.000238 -0.025344 -0.013370 -0.018045
  4 6.388059 -0.005253 -0.000001 0.145049 -0.097884 -0.084478
  5 6.146608 1.394838 0.000001 -0.354995 -0.264894 0.361295
  6 -3.146624 1.395213 -1.836510 -0.852801 0.773132 1.956455
  7 5.760270 -0.000012 -0.000009 0.264879 -0.238563 -0.514409
  8 10.965153 0.000065 -0.000006 0.000013 0.000002 -0.764026
  9 0.000007 -0.000004 -4.044200 0.124408 2.738698 -1.070204
 10 -0.000007 0.000007 4.044200 -0.078175 -2.951041 -0.974760
 11 17.182070 0.000091 0.000546 0.000004 -0.000009 -0.469429
 12 16.782913 0.000650 -0.000234 -0.232335 -0.298139 0.340497
 13 5.168527 5.004116 -0.000135 -0.277601 0.250799 1.303857
 14 17.182070 0.000099 0.000206 -0.000001 -0.000007 -0.215541
 15 16.782906 0.000656 -0.000113 -0.276633 -0.237331 0.381169
 16 5.168479 5.004167 -0.000064 0.059551 -0.099150 1.436913
 17 -1.611425 -0.569705 3.512356 2.576256 -1.218676 0.341064
 18 5.760273 0.000016 0.000006 -0.846348 0.607807 -0.747898
time 12
  0 15.994410 -15.994411 -29.823286 -1.359522 -0.933705 -0.234663
  1 0.000000 0.000000 0.000000 -0.000424 -1.745072 -1.570796
  2 4.422487 -0.004008 -0.769549 0.504773 0.065320 -0.118214
  3 5.037136 -0.005101 -0.000238 0.005080 0.235078 0.176824
  4 6.388059 -0.005253 -0.000001 0.180045 0.028035 0.011303
  5 6.146608 1.394838 0.000001 -0.380641 -0.248827 0.446763
  6 -3.041152 1.664752 -1.781821 -0.855468 0.740857 1.863076
  7 5.760270 -0.000012 -0.000009 0.031940 0.099672 -0.575222
  8 10.965153 0.000065 -0.000006 0.000013 0.000002 -0.959475
  9 0.000007 -0.000004 -4.044200 0.121277 2.790000 -0.904920
 10 -0.000007 0.000007 4.044200 0.018724 -3.020126 -0.901163
 11 17.182070 0.000091 0.000546 0.000004 -0.000009 -0.741320
 12 16.782913 0.000650 -0.000234 0.251874 -0.226236 0.367736
 13 5.168527 5.004116 -0.000135 -0.278239 0.250052 1.301311
 14 17.182070 0.000099 0.000206 -0.000001 -0.000007 -0.367879
 15 16.782906 0.000656 -0.000113 -0.353271 -0.306084 0.394642
 16 5.168479 5.004167 -0.000064 0.039211 -0.099150 1.436913
 17 -1.599706 -0.452514 3.531888 2.550887 -1.261709 0.286131
 18 5.760273 0.000016 0.000006 -1.352055 0.543030 -1.241312
time 13
  0 16.095976 -16.095976 -29.885788 -1.504386 -0.870259 -0.065098
  1 0.000000 0.000000 0.000000 -0.000424 -1.745072 -1.570796
  2 4.422487 -0.004008 -0.769549 0.449008 0.110375 -0.046692
  3 5.037136 -0.005101 -0.000238 0.031796 0.320015 0.337186
  4 6.388059 -0.005253 -0.000001 0.161432 -0.020936 0.017197
  5 6.146608 1.394838 0.000001 -0.403975 -0.227912 0.525563
  6 -2.923961 1.903041 -1.750570 -0.834514 0.776296 1.798406
  7 5.760270 -0.000012 -0.000009 0.220224 -0.123169 -0.611872
  8 10.965153 0.000065 -0.000006 0.000013 0.000002 -1.131460
  9 0.000007 -0.000004 -4.044200 0.104581 2.851048 -0.737056
 10 -0.000007 0.000007 4.044200 0.058979 -3.008275 -0.794399
 11 17.182070 0.000091 0.000546 0.000004 -0.000009 -1.042968
 12 16.782913 0.000650 -0.000234 0.678843 0.067229 0.414741
 13 5.168527 5.004116 -0.000135 -0.278877 0.249358 1.298733
 14 17.182070 0.000099 0.000206 -0.000001 -0.000007 -0.571339
 15 16.782906 0.000656 -0.000113 -0.408179 -0.405164 0.358890
 16 5.168479 5.004167 -0.000064 0.030792 -0.099150 1.436913
 17 -1.599706 -0.347042 3.547513 2.761590 -1.347273 -0.023730
 18 5.760273 0.000016 0.000006 -1.154211 0.481269 -1.265017
time 14
  0 16.033474 -16.033474 -28.858414 -1.609568 -0.768518 -6.200809
  1 0.000000 0.000000 0.000000 -3.141168 -1.396520 1.570796
  2 4.422487 -0.004008 -0.769549 0.375954 0.133885 -0.016351
  3 5.037136 -0.005101 -0.000238 0.051199 0.354136 0.484826
  4 6.388059 -0.005253 -0.000001 0.124112 -0.121484 0.001134
  5 6.146608 1.394838 0.000001 -0.424560 -0.204820 0.601186
  6 -2.775519 2.133517 -1.715413 -0.793178 0.846989 1.759585
  7 5.760270 -0.000012 -0.000009 0.596587 -0.536944 -0.780241
  8 10.965153 0.000065 -0.000006 0.000013 0.000002 -1.305365
  9 0.000007 -0.000004 -4.044200 0.049937 2.939132 -0.529352
 10 -0.000007 0.000007 4.044200 -0.268905 -2.726603 -0.553343
 11 17.182070 0.000091 0.000546 0.000004 -0.000009 -0.911898
 12 16.782913 0.000650 -0.000234 0.519827 0.163296 0.140114
 13 5.168527 5.004116 -0.000135 -0.281322 0.246618 1.288844
 14 17.182070 0.000099 0.000206 -0.000001 -0.000007 -1.046101
 15 16.782906 0.000656 -0.000113 -0.407268 -0.572935 0.113067
 16 5.168479 5.004167 -0.000064 0.012498 -0.099150 1.436913
 17 -1.587987 -0.237663 3.555326 -2.994753 -1.405646 5.622739
 18 5.760273 0.000016 0.000006 -0.872410 0.425392 -1.162473
time 15
  0 15.994410 -15.994411 -27.807600 -1.664071 -0.689408 -6.113773
  1 0.000000 0.000000 0.000000 -3.141168 -1.396520 1.570796
  2 4.422487 -0.004008 -0.769549 0.324577 0.146592 -0.001116
  3 5.037136 -0.005101 -0.000238 0.064090 0.343163 0.573210
  4 6.388059 -0.005253 -0.000001 0.088890 -0.187603 -0.012009
  5 6.146608 1.394838 0.000001 -0.431650 -0.181728 0.655969
  6 -2.650516 2.289772 -1.715413 -0.749080 0.901624 1.749666
  7 5.760270 -0.000012 -0.000009 0.915567 -0.792558 -1.059631
  8 10.965153 0.000065 -0.000006 0.000013 0.000002 -1.453825
  9 0.000007 -0.000004 -4.044200 -0.037815 3.046419 -0.315724
 10 -0.000007 0.000007 4.044200 -0.684296 -2.555634 -0.240985
 11 17.182070 0.000091 0.000546 0.000004 -0.000009 -0.723467
 12 16.782913 0.000650 -0.000234 0.280297 0.131978 -0.143614
 13 5.168527 5.004116 -0.000135 -0.283702 0.243807 1.278988
 14 17.182070 0.000099 0.000206 -0.000001 -0.000007 -1.507089
 15 16.782906 0.000656 -0.000113 -0.276373 -0.509260 -0.168546
 16 5.168479 5.004167 -0.000064 -0.005758 -0.099150 1.436913
 17 -1.599706 -0.132191 3.555326 -2.485799 -1.415957 5.027780
 18 5.760273 0.000016 0.000006 -0.715561 0.416103 -1.080223
time 16
  0 15.994410 -15.994411 -27.073202 -1.678988 -0.668605 -6.091333
  1 0.000000 0.000000 0.000000 -0.000424 -1.745072 -1.570796
  2 4.422487 -0.004008 -0.769549 0.307873 0.151530 0.008585
  3 5.037136 -0.005101 -0.000238 0.069260 0.283553 0.584602
  4 6.388059 -0.005253 -0.000001 0.058832 -0.188307 -0.018061
  5 6.146608 1.394838 0.000001 -0.410856 -0.161051 0.665695
  6 -2.588014 2.293678 -1.805259 -0.699648 0.931473 1.797452
  7 5.760270 -0.000012 -0.000009 0.824829 -0.748809 -1.114327
  8 10.965153 0.000065 -0.000006 0.000013 0.000002 -1.571763
  9 0.000007 -0.000004 -4.044200 -0.131544 3.171285 -0.135918
 10 -0.000007 0.000007 4.044200 -0.755029 -2.547825 -0.202465
 11 17.182070 0.000091 0.000546 0.000004 -0.000009 -0.689050
 12 16.782913 0.000650 -0.000234 0.207877 0.177120 -0.208110
 13 5.168527 5.004116 -0.000135 -0.229828 0.119724 1.330097
 14 17.182070 0.000099 0.000206 -0.000001 -0.000007 -1.591379
 15 16.782906 0.000656 -0.000113 -0.157871 -0.229251 -0.097983
 16 5.168479 5.004167 -0.000064 0.026638 -0.090365 1.470456
 17 -1.650489 -0.026719 3.535794 1.003358 -1.701473 1.511723
 18 5.760273 0.000016 0.000006 -0.762799 0.515700 -1.040759
time 17
  0 15.994410 -15.994411 -27.635719 -1.671625 -0.679031 -6.102506
  1 0.000000 0.000000 0.000000 -3.141168 -1.396520 1.570796
  2 4.422487 -0.004008 -0.769549 0.305891 0.147151 0.008944
  3 5.037136 -0.005101 -0.000238 0.068868 0.189763 0.552179
  4 6.388059 -0.005253 -0.000001 0.028356 -0.163508 -0.025380
  5 6.146608 1.394838 0.000001 -0.373988 -0.143440 0.646878
  6 -2.564575 2.196019 -1.941982 -0.650121 0.948032 1.875094
  7 5.760270 -0.000012 -0.000009 0.569495 -0.565035 -1.094906
  8 10.965153 0.000065 -0.000006 0.000013 0.000002 -1.663761
  9 0.000007 -0.000004 -4.044200 -0.243203 3.291947 0.039494
 10 -0.000007 0.000007 4.044200 -0.726276 -2.564821 -0.240889
 11 17.182070 0.000091 0.000546 0.000004 -0.000009 -0.715293
 12 16.782913 0.000650 -0.000234 0.172856 0.195745 -0.189091
 13 5.168527 5.004116 -0.000135 -0.221720 0.115116 1.312049
 14 17.182070 0.000099 0.000206 -0.000001 -0.000007 -1.551632
 15 16.782906 0.000656 -0.000113 0.038097 0.052321 0.126126
 16 5.168479 5.004167 -0.000064 0.092230 -0.076007 1.538149
 17 -1.736429 0.078753 3.500637 1.443216 -1.673685 1.081181
 18 5.760273 0.000016 0.000006 -0.949240 0.663295 -1.023294
time 18
  0 15.994410 -15.994411 -28.245113 -1.664071 -0.689408 -6.113773
  1 0.000000 0.000000 0.000000 -3.141168 -1.396520 1.570796
  2 4.422487 -0.004008 -0.769549 0.310213 0.139623 0.005493
  3 5.037136 -0.005101 -0.000238 0.071487 0.093442 0.506582
  4 6.388059 -0.005253 -0.000001 0.000419 -0.131248 -0.033614
  5 6.146608 1.394838 0.000001 -0.334807 -0.125513 0.623099
  6 -2.552856 2.090547 -2.086518 -0.666122 0.948955 1.885014
  7 5.760270 -0.000012 -0.000009 0.410550 -0.447202 -1.139457
  8 10.965153 0.000065 -0.000006 0.000013 0.000002 -1.716075
  9 0.000007 -0.000004 -4.044200 -0.340916 3.363408 0.172294
 10 -0.000007 0.000007 4.044200 -0.672123 -2.586777 -0.275776
 11 17.182070 0.000091 0.000546 0.000004 -0.000009 -0.735799
 12 16.782913 0.000650 -0.000234 0.178276 0.196616 -0.152852
 13 5.168527 5.004116 -0.000135 -0.235982 0.161180 1.269099
 14 17.182070 0.000099 0.000206 -0.000001 -0.000007 -1.516272
 15 16.782906 0.000656 -0.000113 0.220956 0.216700 0.343535
 16 5.168479 5.004167 -0.000064 0.125329 -0.070542 1.572259
 17 -1.822369 0.172505 3.449854 -1.160137 -1.475116 3.701906
 18 5.760273 0.000016 0.000006 -1.201585 0.795621 -1.052881
time 19
  0 15.994410 -15.994411 -28.323240 -1.664071 -0.689408 -6.113773
  1 0.000000 0.000000 0.000000 -3.141168 -1.396520 1.570796
  2 4.422487 -0.004008 -0.769549 0.312553 0.134812 0.003442
  3 5.037136 -0.005101 -0.000238 0.078307 0.026443 0.476516
  4 6.388059 -0.005253 -0.000001 -0.021273 -0.109703 -0.041021
  5 6.146608 1.394838 0.000001 -0.292499 -0.105785 0.593961
  6 -2.533324 1.953824 -2.234960 -0.815370 0.915362 1.760825
  7 5.760270 -0.000012 -0.000009 0.390673 -0.462231 -1.228255
  8 10.965153 0.000065 -0.000006 0.000013 0.000002 -1.705488
  9 0.000007 -0.000004 -4.044200 -0.356190 3.343632 0.133601
 10 -0.000007 0.000007 4.044200 -0.646341 -2.596424 -0.279121
 11 17.182070 0.000091 0.000546 0.000004 -0.000009 -0.734294
 12 16.782913 0.000650 -0.000234 0.194413 0.192224 -0.137433
 13 5.168527 5.004116 -0.000135 -0.248783 0.190697 1.244523
 14 17.182070 0.000099 0.000206 -0.000001 -0.000007 -1.540737
 15 16.782906 0.000656 -0.000113 0.166715 0.297316 0.299090
 16 5.168479 5.004167 -0.000064 0.045104 -0.087465 1.550308
 17 -1.920028 0.266258 3.387352 -0.762715 -1.452200 3.324779
 18 5.760273 0.000016 0.000006 -1.397800 0.876445 -1.103973
time 20
  0 15.994410 -15.994411 -28.362305 -1.664071 -0.689408 -6.113773
  1 0.000000 0.000000 0.000000 -3.141168 -1.396520 1.570796
  2 4.422487 -0.004008 -0.769549 0.311708 0.133917 0.003865
  3 5.037136 -0.005101 -0.000238 0.086469 0.000881 0.468841
  4 6.388059 -0.005253 -0.000001 -0.034432 -0.103251 -0.046405
  5 6.146608 1.394838 0.000001 -0.253091 -0.088867 0.566927
  6 -2.521605 1.813195 -2.363870 -0.993858 0.837971 1.607736
  7 5.760270 -0.000012 -0.000009 0.412933 -0.491463 -1.322965
  8 10.965153 0.000065 -0.000006 0.000013 0.000002 -1.655589
  9 0.000007 -0.000004 -4.044200 -0.333991 3.312679 0.096818
 10 -0.000007 0.000007 4.044200 -0.662539 -2.583102 -0.268799
 11 17.182070 0.000091 0.000546 0.000004 -0.000009 -0.733577
 12 16.782913 0.000650 -0.000234 0.229483 0.172265 -0.137093
 13 5.168527 5.004116 -0.000135 -0.268123 0.214948 1.261494
 14 17.182070 0.000099 0.000206 -0.000001 -0.000007 -1.555127
 15 16.782906 0.000656 -0.000113 0.080888 0.294602 0.229618
 16 5.168479 5.004167 -0.000064 0.012683 -0.109996 1.526233
 17 -2.013781 0.352198 3.332663 -0.726737 -1.422621 3.303337
 18 5.760273 0.000016 0.000006 -1.428749 0.885539 -1.167681
time 21
  0 15.994410 -15.994411 -28.323240 -1.664071 -0.689408 -6.113773
  1 0.000000 0.000000 0.000000 -3.141168 -1.396520 1.570796
  2 4.422487 -0.004008 -0.769549 0.311805 0.134045 0.003735
  3 5.037136 -0.005101 -0.000238 0.094751 -0.001402 0.468478
  4 6.388059 -0.005253 -0.000001 -0.041263 -0.102509 -0.050434
  5 6.146608 1.394838 0.000001 -0.222099 -0.080259 0.548667
  6 -2.513793 1.699910 -2.445904 -1.090531 0.781807 1.530572
  7 5.760270 -0.000012 -0.000009 0.433286 -0.508105 -1.382095
  8 10.965153 0.000065 -0.000006 0.000013 0.000002 -1.620238
  9 0.000007 -0.000004 -4.044200 -0.358372 3.333792 0.125958
 10 -0.000007 0.000007 4.044200 -0.683529 -2.566290 -0.253792
 11 17.182070 0.000091 0.000546 0.000004 -0.000009 -0.730278
 12 16.782913 0.000650 -0.000234 0.272965 0.146414 -0.139233
 13 5.168527 5.004116 -0.000135 -0.283702 0.243807 1.278988
 14 17.182070 0.000099 0.000206 -0.000001 -0.000007 -1.542792
 15 16.782906 0.000656 -0.000113 0.132121 0.319274 0.285692
 16 5.168479 5.004167 -0.000064 0.043193 -0.109253 1.503675
 17 -2.052845 0.414700 3.289693 -0.853030 -1.405426 3.438154
 18 5.760273 0.000016 0.000006 -1.317576 0.887339 -1.122111
time 22
  0 15.994410 -15.994411 -28.260738 -1.664071 -0.689408 -6.113773
  1 0.000000 0.000000 0.000000 -3.141168 -1.396520 1.570796
  2 4.422487 -0.004008 -0.769549 0.312260 0.134541 0.003572
  3 5.037136 -0.005101 -0.000238 0.103067 0.005388 0.471167
  4 6.388059 -0.005253 -0.000001 -0.045494 -0.103841 -0.053900
  5 6.146608 1.394838 0.000001 -0.202291 -0.084316 0.541839
  6 -2.533324 1.637408 -2.473248 -1.106914 0.775584 1.521415
  7 5.760270 -0.000012 -0.000009 0.435940 -0.508853 -1.397897
  8 10.965153 0.000065 -0.000006 0.000013 0.000002 -1.616028
  9 0.000007 -0.000004 -4.044200 -0.391955 3.367994 0.176212
 10 -0.000007 0.000007 4.044200 -0.687363 -2.562616 -0.249874
 11 17.182070 0.000091 0.000546 0.000004 -0.000009 -0.728988
 12 16.782913 0.000650 -0.000234 0.280739 0.140965 -0.140252
 13 5.168527 5.004116 -0.000135 -0.281110 0.247828 1.279086
 14 17.182070 0.000099 0.000206 -0.000001 -0.000007 -1.519219
 15 16.782906 0.000656 -0.000113 0.223347 0.330171 0.376803
 16 5.168479 5.004167 -0.000064 0.122580 -0.103812 1.467077
 17 -2.052845 0.461577 3.289693 -0.951739 -1.403540 3.540144
 18 5.760273 0.000016 0.000006 -1.238846 0.877613 -1.089247
time 23
  0 15.994410 -15.994411 -28.245113 -1.664071 -0.689408 -6.113773
  1 0.000000 0.000000 0.000000 -3.141168 -1.396520 1.570796
  2 4.422487 -0.004008 -0.769549 0.312553 0.134812 0.003442
  3 5.037136 -0.005101 -0.000238 0.111468 0.007626 0.472346
  4 6.388059 -0.005253 -0.000001 -0.051042 -0.104241 -0.057665
  5 6.146608 1.394838 0.000001 -0.189951 -0.097870 0.542077
  6 -2.576294 1.602251 -2.457623 -1.091293 0.785261 1.534005
  7 5.760270 -0.000012 -0.000009 0.449827 -0.508341 -1.407124
  8 10.965153 0.000065 -0.000006 0.000013 0.000002 -1.619433
  9 0.000007 -0.000004 -4.044200 -0.416526 3.390827 0.212039
 10 -0.000007 0.000007 4.044200 -0.685350 -2.563259 -0.250734
 11 17.182070 0.000091 0.000546 0.000004 -0.000009 -0.729059
 12 16.782913 0.000650 -0.000234 0.277649 0.142226 -0.140218
 13 5.168527 5.004116 -0.000135 -0.282426 0.245835 1.279020
 14 17.182070 0.000099 0.000206 -0.000001 -0.000007 -1.500442
 15 16.782906 0.000656 -0.000113 0.288355 0.329575 0.439200
 16 5.168479 5.004167 -0.000064 0.158957 -0.099150 1.436913
 17 -2.013781 0.500641 3.313131 -0.970743 -1.416428 3.560258
 18 5.760273 0.000016 0.000006 -1.229887 0.877515 -1.091447
time 24
  0 15.994410 -15.994411 -28.245113 -1.664071 -0.689408 -6.113773
  1 0.000000 0.000000 0.000000 -3.141168 -1.396520 1.570796
  2 4.422487 -0.004008 -0.769549 0.312553 0.134812 0.003442
  3 5.037136 -0.005101 -0.000238 0.111468 0.007626 0.472346
  4 6.388059 -0.005253 -0.000001 -0.051042 -0.104241 -0.057665
  5 6.146608 1.394838 0.000001 -0.180644 -0.115263 0.544975
  6 -2.619265 1.574906 -2.426372 -1.059005 0.804800 1.559473
  7 5.760270 -0.000012 -0.000009 0.468819 -0.503463 -1.412986
  8 10.965153 0.000065 -0.000006 0.000013 0.000002 -1.626987
  9 0.000007 -0.000004 -4.044200 -0.423736 3.396464 0.221593
 10 -0.000007 0.000007 4.044200 -0.683625 -2.564545 -0.251690
 11 17.182070 0.000091 0.000546 0.000004 -0.000009 -0.729275
 12 16.782913 0.000650 -0.000234 0.274240 0.144208 -0.140014
 13 5.168527 5.004116 -0.000135 -0.283702 0.243807 1.278988
 14 17.182070 0.000099 0.000206 -0.000001 -0.000007 -1.495439
 15 16.782906 0.000656 -0.000113 0.305335 0.329945 0.455571
 16 5.168479 5.004167 -0.000064 0.154803 -0.097436 1.426737
 17 -1.947373 0.531891 3.344382 -0.967053 -1.435886 3.557032
 18 5.760273 0.000016 0.000006 -1.228869 0.877175 -1.091851
time 25
  0 15.994410 -15.994411 -28.245113 -1.664071 -0.689408 -6.113773
  1 0.000000 0.000000 0.000000 -3.141168 -1.396520 1.570796
  2 4.422487 -0.004008 -0.769549 0.312553 0.134812 0.003442
  3 5.037136 -0.005101 -0.000238 0.111468 0.007626 0.472346
  4 6.388059 -0.005253 -0.000001 -0.051042 -0.104241 -0.057665
  5 6.146608 1.394838 0.000001 -0.169821 -0.130756 0.546285
  6 -2.658328 1.539749 -2.406840 -1.025860 0.828215 1.588087
  7 5.760270 -0.000012 -0.000009 0.486381 -0.499096 -1.415586
  8 10.965153 0.000065 -0.000006 0.000013 0.000002 -1.635159
  9 0.000007 -0.000004 -4.044200 -0.422787 3.395891 0.220542
 10 -0.000007 0.000007 4.044200 -0.683625 -2.564545 -0.251690
 11 17.182070 0.000091 0.000546 0.000004 -0.000009 -0.729275
 12 16.782913 0.000650 -0.000234 0.274240 0.144208 -0.140014
 13 5.168527 5.004116 -0.000135 -0.283702 0.243807 1.278988
 14 17.182070 0.000099 0.000206 -0.000001 -0.000007 -1.496056
 15 16.782906 0.000656 -0.000113 0.303514 0.329945 0.453802
 16 5.168479 5.004167 -0.000064 0.155271 -0.097592 1.427809
 17 -1.896590 0.563142 3.367820 -0.904506 -1.455909 3.496597
 18 5.760273 0.000016 0.000006 -1.232330 0.878196 -1.090953
time 26
  0 15.994410 -15.994411 -28.245113 -1.664071 -0.689408 -6.113773
  1 0.000000 0.000000 0.000000 -3.141168 -1.396520 1.570796
  2 4.422487 -0.004008 -0.769549 0.312553 0.134812 0.003442
  3 5.037136 -0.005101 -0.000238 0.111468 0.007626 0.472346
  4 6.388059 -0.005253 -0.000001 -0.051042 -0.104241 -0.057665
  5 6.146608 1.394838 0.000001 -0.169821 -0.130756 0.546285
  6 -2.658328 1.539749 -2.406840 -1.020336 0.834385 1.593524
  7 5.760270 -0.000012 -0.000009 0.499519 -0.495830 -1.419664
  8 10.965153 0.000065 -0.000006 0.000013 0.000002 -1.640483
  9 0.000007 -0.000004 -4.044200 -0.419182 3.392738 0.215287
 10 -0.000007 0.000007 4.044200 -0.683625 -2.564545 -0.251690
 11 17.182070 0.000091 0.000546 0.000004 -0.000009 -0.729275
 12 16.782913 0.000650 -0.000234 0.274240 0.144208 -0.140014
 13 5.168527 5.004116 -0.000135 -0.283702 0.243807 1.278988
 14 17.182070 0.000099 0.000206 -0.000001 -0.000007 -1.498797
 15 16.782906 0.000656 -0.000113 0.294211 0.329801 0.444732
 16 5.168479 5.004167 -0.000064 0.157576 -0.098502 1.433494
 17 -1.896590 0.563142 3.367820 -0.863546 -1.457670 3.456655
 18 5.760273 0.000016 0.000006 -1.236742 0.879509 -1.089741
time 27
  0 15.994410 -15.994411 -28.245113 -1.664071 -0.689408 -6.113773
  1 0.000000 0.000000 0.000000 -3.141168 -1.396520 1.570796
  2 4.422487 -0.004008 -0.769549 0.312553 0.134812 0.003442
  3 5.037136 -0.005101 -0.000238 0.111468 0.007626 0.472346
  4 6.388059 -0.005253 -0.000001 -0.051042 -0.104241 -0.057665
  5 6.146608 1.394838 0.000001 -0.169821 -0.130756 0.546285
  6 -2.658328 1.539749 -2.406840 -1.020336 0.834385 1.593524
  7 5.760270 -0.000012 -0.000009 0.502786 -0.495279 -1.421754
  8 10.965153 0.000065 -0.000006 0.000013 0.000002 -1.641783
  9 0.000007 -0.000004 -4.044200 -0.416620 3.390923 0.212135
 10 -0.000007 0.000007 4.044200 -0.683625 -2.564545 -0.251690
 11 17.182070 0.000091 0.000546 0.000004 -0.000009 -0.729275
 12 16.782913 0.000650 -0.000234 0.274240 0.144208 -0.140014
 13 5.168527 5.004116 -0.000135 -0.283702 0.243807 1.278988
 14 17.182070 0.000099 0.000206 -0.000001 -0.000007 -1.500442
 15 16.782906 0.000656 -0.000113 0.288713 0.329719 0.439313
 16 5.168479 5.004167 -0.000064 0.158957 -0.099150 1.436913
 17 -1.896590 0.563142 3.367820 -0.842421 -1.458487 3.436067
 18 5.760273 0.000016 0.000006 -1.239321 0.880141 -1.089202
time 28
  0 15.994410 -15.994411 -28.245113 -1.664071 -0.689408 -6.113773
  1 0.000000 0.000000 0.000000 -3.141168 -1.396520 1.570796
  2 4.422487 -0.004008 -0.769549 0.312553 0.134812 0.003442
  3 5.037136 -0.005101 -0.000238 0.111468 0.007626 0.472346
  4 6.388059 -0.005253 -0.000001 -0.051042 -0.104241 -0.057665
  5 6.146608 1.394838 0.000001 -0.169821 -0.130756 0.546285
  6 -2.658328 1.539749 -2.406840 -1.020336 0.834385 1.593524
  7 5.760270 -0.000012 -0.000009 0.500880 -0.495555 -1.421040
  8 10.965153 0.000065 -0.000006 0.000013 0.000002 -1.641226
  9 0.000007 -0.000004 -4.044200 -0.416620 3.390923 0.212135
 10 -0.000007 0.000007 4.044200 -0.683625 -2.564545 -0.251690
 11 17.182070 0.000091 0.000546 0.000004 -0.000009 -0.729275
 12 16.782913 0.000650 -0.000234 0.274240 0.144208 -0.140014
 13 5.168527 5.004116 -0.000135 -0.283702 0.243807 1.278988
 14 17.182070 0.000099 0.000206 -0.000001 -0.000007 -1.500442
 15 16.782906 0.000656 -0.000113 0.288713 0.329719 0.439313
 16 5.168479 5.004167 -0.000064 0.158957 -0.099150 1.436913
 17 -1.896590 0.563142 3.367820 -0.842421 -1.458487 3.436067
 18 5.760273 0.000016 0.000006 -1.239321 0.880141 -1.089202
time 29
  0 15.994410 -15.994411 -28.245113 -1.664071 -0.689408 -6.113773
  1 0.000000 0.000000 0.000000 -3.141168 -1.396520 1.570796
  2 4.422487 -0.004008 -0.769549 0.312553 0.134812 0.003442
  3 5.037136 -0.005101 -0.000238 0.111468 0.007626 0.472346
  4 6.388059 -0.005253 -0.000001 -0.051042 -0.104241 -0.057665
  5 6.146608 1.394838 0.000001 -0.169821 -0.130756 0.546285
  6 -2.658328 1.539749 -2.406840 -1.020336 0.834385 1.593524
  7 5.760270 -0.000012 -0.000009 0.499519 -0.495830 -1.419664
  8 10.965153 0.000065 -0.000006 0.000013 0.000002 -1.640483
  9 0.000007 -0.000004 -4.044200 -0.416620 3.390923 0.212135
 10 -0.000007 0.000007 4.044200 -0.683625 -2.564545 -0.251690
 11 17.182070 0.000091 0.000546 0.000004 -0.000009 -0.729275
 12 16.782913 0.000650 -0.000234 0.274240 0.144208 -0.140014
 13 5.168527 5.004116 -0.000135 -0.283702 0.243807 1.278988
 14 17.182070 0.000099 0.000206 -0.000001 -0.000007 -1.500442
 15 16.782906 0.000656 -0.000113 0.288713 0.329719 0.439313
 16 5.168479 5.004167 -0.000064 0.158957 -0.099150 1.436913
 17 -1.896590 0.563142 3.367820 -0.842421 -1.458487 3.436067
 18 5.760273 0.000016 0.000006 -1.239321 0.880141 -1.089202
time 30
  0 15.994410 -15.994411 -28.245113 -1.664071 -0.689408 -6.113773
  1 0.000000 0.000000 0.000000 -3.141168 -1.396520 1.570796
  2 4.422487 -0.004008 -0.769549 0.312553 0.134812 0.003442
  3 5.037136 -0.005101 -0.000238 0.111468 0.007626 0.472346
  4 6.388059 -0.005253 -0.000001 -0.051042 -0.104241 -0.057665
  5 6.146608 1.394838 0.000001 -0.169821 -0.130756 0.546285
  6 -2.658328 1.539749 -2.406840 -1.020336 0.834385 1.593524
  7 5.760270 -0.000012 -0.000009 0.499519 -0.495830 -1.419664
  8 10.965153 0.000065 -0.000006 0.000013 0.000002 -1.640483
  9 0.000007 -0.000004 -4.044200 -0.416620 3.390923 0.212135
 10 -0.000007 0.000007 4.044200 -0.683625 -2.564545 -0.251690
 11 17.182070 0.000091 0.000546 0.000004 -0.000009 -0.729275
 12 16.782913 0.000650 -0.000234 0.274240 0.144208 -0.140014
 13 5.168527 5.004116 -0.000135 -0.283702 0.243807 1.278988
 14 17.182070 0.000099 0.000206 -0.000001 -0.000007 -1.500442
 15 16.782906 0.000656 -0.000113 0.288713 0.329719 0.439313
 16 5.168479 5.004167 -0.000064 0.158957 -0.099150 1.436913
 17 -1.896590 0.563142 3.367820 -0.842421 -1.458487 3.436067
 18 5.760273 0.000016 0.000006 -1.239321 0.880141 -1.089202
time 31
  0 15.994410 -15.994411 -28.245113 -1.664071 -0.689408 -6.113773
  1 0.000000 0.000000 0.000000 -3.141168 -1.396520 1.570796
  2 4.422487 -0.004008 -0.769549 0.312553 0.134812 0.003442
  3 5.037136 -0.005101 -0.000238 0.111468 0.007626 0.472346
  4 6.388059 -0.005253 -0.000001 -0.051042 -0.104241 -0.057665
  5 6.146608 1.394838 0.000001 -0.169821 -0.130756 0.546285
  6 -2.658328 1.539749 -2.406840 -1.020336 0.834385 1.593524
  7 5.760270 -0.000012 -0.000009 0.499519 -0.495830 -1.419664
  8 10.965153 0.000065 -0.000006 0.000013 0.000002 -1.640483
  9 0.000007 -0.000004 -4.044200 -0.416620 3.390923 0.212135
 10 -0.000007 0.000007 4.044200 -0.683625 -2.564545 -0.251690
 11 17.182070 0.000091 0.000546 0.000004 -0.000009 -0.729275
 12 16.782913 0.000650 -0.000234 0.274240 0.144208 -0.140014
 13 5.168527 5.004116 -0.000135 -0.283702 0.243807 1.278988
 14 17.182070 0.000099 0.000206 -0.000001 -0.000007 -1.500442
 15 16.782906 0.000656 -0.000113 0.288713 0.329719 0.439313
 16 5.168479 5.004167 -0.000064 0.158957 -0.099150 1.436913
 17 -1.896590 0.563142 3.367820 -0.842421 -1.458487 3.436067
 18 5.760273 0.000016 0.000006 -1.239321 0.880141 -1.089202
time 32
  0 15.994410 -15.994411 -28.245113 -1.664071 -0.689408 -6.113773
  1 0.000000 0.000000 0.000000 -3.141168 -1.396520 1.570796
  2 4.422487 -0.004008 -0.769549 0.312553 0.134812 0.003442
  3 5.037136 -0.005101 -0.000238 0.111468 0.007626 0.472346
  4 6.388059 -0.005253 -0.000001 -0.051042 -0.104241 -0.057665
  5 6.146608 1.394838 0.000001 -0.169821 -0.130756 0.546285
  6 -2.658328 1.539749 -2.406840 -1.020336 0.834385 1.593524
  7 5.760270 -0.000012 -0.000009 0.499519 -0.495830 -1.419664
  8 10.965153 0.000065 -0.000006 0.000013 0.000002 -1.640483
  9 0.000007 -0.000004 -4.044200 -0.416620 3.390923 0.212135
 10 -0.000007 0.000007 4.044200 -0.683625 -2.564545 -0.251690
 11 17.182070 0.000091 0.000546 0.000004 -0.000009 -0.729275
 12 16.782913 0.000650 -0.000234 0.274240 0.144208 -0.140014
 13 5.168527 5.004116 -0.000135 -0.283702 0.243807 1.278988
 14 17.182070 0.000099 0.000206 -0.000001 -0.000007 -1.500442
 15 16.782906 0.000656 -0.000113 0.288713 0.329719 0.439313
 16 5.168479 5.004167 -0.000064 0.158957 -0.099150 1.436913
 17 -1.896590 0.563142 3.367820 -0.842421 -1.458487 3.436067
 18 5.760273 0.000016 0.000006 -1.239321 0.880141 -1.089202
end
