version 1
nodes
  0 "Bip01"  -1
  1 "Bip01 Pelvis"   0
  2 "Bip01 Spine"   1
  3 "Bip01 Spine1"   2
  4 "Bip01 Spine2"   3
  5 "Bip01 Neck"   4
  6 "Bip01 R Clavicle"   5
  7 "Bip01 R UpperArm"   6
  8 "Bip01 R Forearm"   7
  9 "Bip01 R Thigh"   1
 10 "Bip01 L Thigh"   1
 11 "Bip01 L Calf"  10
 12 "Bip01 L Foot"  11
 13 "Bip01 L Toe0"  12
 14 "Bip01 R Calf"   9
 15 "Bip01 R Foot"  14
 16 "Bip01 R Toe0"  15
 17 "Bip01 L Clavicle"   5
 18 "Bip01 L UpperArm"  17
end
skeleton
time 0
  0 -0.310775 0.310775 3.611328 0.552587 1.289823 -1.044746
  1 0.000000 0.000000 0.000000 -1.570796 -1.570796 0.000000
  2 4.484989 -0.004008 0.000006 0.023394 0.058048 -0.051412
  3 5.037136 -0.005101 -0.000238 0.023412 0.058062 -0.054879
  4 6.388059 -0.005253 -0.000001 0.023430 0.058068 -0.054938
  5 6.146608 1.394838 0.000001 0.022082 -0.151276 -0.219835
  6 -2.841928 -0.831417 -2.535750 0.068023 1.313733 3.428115
  7 5.760270 -0.000012 -0.000009 0.569495 1.068819 0.045035
  8 10.965153 0.000065 -0.000006 0.000013 0.000002 -0.586778
  9 0.000007 -0.000004 -4.044200 -0.012296 3.127530 -0.011238
 10 -0.000007 0.000007 4.044200 -0.123030 -3.110710 -0.127912
 11 17.182070 0.000091 0.000546 0.000004 -0.000009 -0.822056
 12 16.782913 0.000650 -0.000234 0.100240 0.086650 -0.278142
 13 5.168527 5.004116 -0.000135 0.000010 0.000000 1.570793
 14 17.182070 0.000099 0.000206 -0.000001 -0.000007 -0.748141
 15 16.782906 0.000656 -0.000113 0.458220 -0.010120 -0.127262
 16 5.168479 5.004167 -0.000064 0.000011 -0.000001 1.570802
 17 -1.959092 -0.706428 3.301412 -2.456924 -1.507964 -0.471254
 18 5.760273 0.000016 0.000006 -0.546833 -0.713063 -0.092498
time 1
  0 -0.310775 0.310775 3.611328 0.550579 1.290268 -1.046624
  1 0.000000 0.000000 0.000000 -1.570796 -1.570796 0.000000
  2 4.484989 -0.004008 0.000006 0.021899 0.055619 -0.051575
  3 5.037136 -0.005101 -0.000238 0.021813 0.055633 -0.054970
  4 6.388059 -0.005253 -0.000001 0.021908 0.055651 -0.055026
  5 6.146608 1.394838 0.000001 0.022063 -0.143480 -0.219716
  6 -2.818489 -0.831417 -2.563095 -0.231902 1.383055 3.124989
  7 5.760270 -0.000012 -0.000009 0.321582 1.040925 -0.247201
  8 10.965153 0.000065 -0.000006 0.000013 0.000002 -0.586778
  9 0.000007 -0.000004 -4.044200 -0.013814 3.126861 -0.046970
 10 -0.000007 0.000007 4.044200 -0.098973 -3.119621 -0.103061
 11 17.182070 0.000091 0.000546 0.000004 -0.000009 -0.790938
 12 16.782913 0.000650 -0.000234 0.041357 0.041303 -0.223767
 13 5.168527 5.004116 -0.000135 0.000010 0.000000 1.570793
 14 17.182070 0.000099 0.000206 -0.000001 -0.000007 -0.732722
 15 16.782906 0.000656 -0.000113 0.412907 0.047304 -0.343843
 16 5.168479 5.004167 -0.000064 0.000011 -0.000001 1.570802
 17 -1.990343 -0.706428 3.281880 2.921371 -1.461002 0.440587
 18 5.760273 0.000016 0.000006 -0.462877 -0.712236 -0.250444
time 2
  0 -0.299056 0.299056 3.611328 0.544077 1.291602 -1.052351
  1 0.000000 0.000000 0.000000 -1.570796 -1.570796 0.000000
  2 4.484989 -0.004008 0.000006 0.020112 0.053078 -0.051673
  3 5.037136 -0.005101 -0.000238 0.020113 0.053102 -0.055060
  4 6.388059 -0.005253 -0.000001 0.020050 0.053101 -0.055114
  5 6.146608 1.394838 0.000001 0.022044 -0.135664 -0.219557
  6 -2.798957 -0.831417 -2.586533 -0.797464 1.430834 2.553074
  7 5.760270 -0.000012 -0.000009 0.173119 0.968887 -0.442484
  8 10.965153 0.000065 -0.000006 0.000013 0.000002 -0.586778
  9 0.000007 -0.000004 -4.044200 -0.015047 3.125810 -0.078880
 10 -0.000007 0.000007 4.044200 -0.073095 -3.128808 -0.076394
 11 17.182070 0.000091 0.000546 0.000004 -0.000009 -0.754800
 12 16.782913 0.000650 -0.000234 -0.023780 -0.002228 -0.158966
 13 5.168527 5.004116 -0.000135 0.000010 0.000000 1.570793
 14 17.182070 0.000099 0.000206 -0.000001 -0.000007 -0.710451
 15 16.782906 0.000656 -0.000113 0.355836 0.101892 -0.587710
 16 5.168479 5.004167 -0.000064 0.000011 -0.000001 1.570802
 17 -2.013781 -0.706428 3.270161 2.695261 -1.374338 0.668571
 18 5.760273 0.000016 0.000006 -0.407698 -0.684030 -0.370183
time 3
  0 -0.299056 0.299056 3.611328 0.532985 1.293776 -1.061928
  1 0.000000 0.000000 0.000000 -1.570796 -1.570796 0.000000
  2 4.484989 -0.004008 0.000006 0.018129 0.050329 -0.051705
  3 5.037136 -0.005101 -0.000238 0.018089 0.050322 -0.055181
  4 6.388059 -0.005253 -0.000001 0.018157 0.050341 -0.055237
  5 6.146608 1.394838 0.000001 0.022044 -0.127828 -0.219319
  6 -2.775519 -0.831417 -2.606065 -1.445222 1.418863 1.895506
  7 5.760270 -0.000012 -0.000009 0.104640 0.886659 -0.557075
  8 10.965153 0.000065 -0.000006 0.000013 0.000002 -0.586778
  9 0.000007 -0.000004 -4.044200 -0.015711 3.124664 -0.107925
 10 -0.000007 0.000007 4.044200 -0.046258 -3.137444 -0.047720
 11 17.182070 0.000091 0.000546 0.000004 -0.000009 -0.715078
 12 16.782913 0.000650 -0.000234 -0.095661 -0.039809 -0.088492
 13 5.168527 5.004116 -0.000135 0.000010 0.000000 1.570793
 14 17.182070 0.000099 0.000206 -0.000001 -0.000007 -0.682628
 15 16.782906 0.000656 -0.000113 0.295382 0.133349 -0.794921
 16 5.168479 5.004167 -0.000064 0.000011 -0.000001 1.570802
 17 -2.045032 -0.706428 3.250629 2.616017 -1.291918 0.744281
 18 5.760273 0.000016 0.000006 -0.375595 -0.645125 -0.454185
time 4
  0 -0.291243 0.291243 3.611328 0.516825 1.296889 -1.076199
  1 0.000000 0.000000 0.000000 -1.570796 -1.570796 0.000000
  2 4.484989 -0.004008 0.000006 0.015985 0.047468 -0.051868
  3 5.037136 -0.005101 -0.000238 0.015912 0.047527 -0.055272
  4 6.388059 -0.005253 -0.000001 0.015940 0.047505 -0.055325
  5 6.146608 1.394838 0.000001 0.022025 -0.119972 -0.219200
  6 -2.755987 -0.831417 -2.625597 1.381636 1.766396 4.713397
  7 5.760270 -0.000012 -0.000009 0.061619 0.813047 -0.645159
  8 10.965153 0.000065 -0.000006 0.000013 0.000002 -0.586778
  9 0.000007 -0.000004 -4.044200 -0.015332 3.123421 -0.121873
 10 -0.000007 0.000007 4.044200 -0.018943 -3.144885 -0.017994
 11 17.182070 0.000091 0.000546 0.000004 -0.000009 -0.673347
 12 16.782913 0.000650 -0.000234 -0.173452 -0.069034 -0.019105
 13 5.168527 5.004116 -0.000135 0.000010 0.000000 1.570793
 14 17.182070 0.000099 0.000206 -0.000001 -0.000007 -0.624311
 15 16.782906 0.000656 -0.000113 0.246930 0.128969 -0.911321
 16 5.168479 5.004167 -0.000064 0.000011 -0.000001 1.570802
 17 -2.064564 -0.706428 3.238910 2.559374 -1.233010 0.795988
 18 5.760273 0.000016 0.000006 -0.343221 -0.611424 -0.529566
time 5
  0 -0.279524 0.279524 3.611328 0.495215 1.300941 -1.095071
  1 0.000000 0.000000 0.000000 -1.570796 -1.570796 0.000000
  2 4.484989 -0.004008 0.000006 0.013645 0.044543 -0.051966
  3 5.037136 -0.005101 -0.000238 0.013685 0.044572 -0.055393
  4 6.388059 -0.005253 -0.000001 0.013603 0.044574 -0.055413
  5 6.146608 1.394838 0.000001 0.022006 -0.112117 -0.218922
  6 -2.736455 -0.831417 -2.649035 -1.806580 1.343318 1.520652
  7 5.760270 -0.000012 -0.000009 -0.002844 0.753324 -0.753173
  8 10.965153 0.000065 -0.000006 0.000013 0.000002 -0.586778
  9 0.000007 -0.000004 -4.044200 -0.013529 3.122275 -0.113944
 10 -0.000007 0.000007 4.044200 0.006552 -3.150306 0.012018
 11 17.182070 0.000091 0.000546 0.000004 -0.000009 -0.631617
 12 16.782913 0.000650 -0.000234 -0.254260 -0.088751 0.043659
 13 5.168527 5.004116 -0.000135 0.000010 0.000000 1.570793
 14 17.182070 0.000099 0.000206 -0.000001 -0.000007 -0.507471
 15 16.782906 0.000656 -0.000113 0.210856 0.085793 -0.923590
 16 5.168479 5.004167 -0.000064 0.000011 -0.000001 1.570802
 17 -2.088002 -0.706428 3.219378 2.484834 -1.212829 0.867713
 18 5.760273 0.000016 0.000006 -0.282272 -0.592458 -0.630404
time 6
  0 -0.267805 0.267805 3.611328 0.467294 1.305734 -1.119764
  1 0.000000 0.000000 0.000000 -1.570796 -1.570796 0.000000
  2 4.484989 -0.004008 0.000006 0.011175 0.041523 -0.052031
  3 5.037136 -0.005101 -0.000238 0.011253 0.041543 -0.055483
  4 6.388059 -0.005253 -0.000001 0.011266 0.041567 -0.055536
  5 6.146608 1.394838 0.000001 0.021987 -0.104241 -0.218803
  6 -2.720830 -0.839230 -2.668567 1.509836 1.805632 4.841019
  7 5.760270 -0.000012 -0.000009 -0.123669 0.693758 -0.916852
  8 10.965153 0.000065 -0.000006 0.000013 0.000002 -0.586778
  9 0.000007 -0.000004 -4.044200 -0.012296 3.122753 -0.099899
 10 -0.000007 0.000007 4.044200 0.030801 -3.153980 0.041553
 11 17.182070 0.000091 0.000546 0.000004 -0.000009 -0.592396
 12 16.782913 0.000650 -0.000234 -0.336662 -0.100611 0.092736
 13 5.168527 5.004116 -0.000135 0.000010 0.000000 1.570793
 14 17.182070 0.000099 0.000206 -0.000001 -0.000007 -0.371991
 15 16.782906 0.000656 -0.000113 0.172928 0.023598 -0.856038
 16 5.168479 5.004167 -0.000064 0.000011 -0.000001 1.570802
 17 -2.115347 -0.706428 3.203753 2.345072 -1.242849 1.011543
 18 5.760273 0.000016 0.000006 -0.160172 -0.580592 -0.792885
time 7
  0 -0.248273 0.248273 3.611328 0.432871 1.311219 -1.150466
  1 0.000000 0.000000 0.000000 -1.570796 -1.570796 0.000000
  2 4.484989 -0.004008 0.000006 0.008738 0.038454 -0.052161
  3 5.037136 -0.005101 -0.000238 0.008770 0.038470 -0.055574
  4 6.388059 -0.005253 -0.000001 0.008773 0.038484 -0.055624
  5 6.146608 1.394838 0.000001 0.021987 -0.096366 -0.218684
  6 -2.701298 -0.839230 -2.688099 -1.558563 1.336014 1.776564
  7 5.760270 -0.000012 -0.000009 -0.165261 0.676329 -0.981233
  8 10.965153 0.000065 -0.000006 0.000013 0.000002 -0.586778
  9 0.000007 -0.000004 -4.044200 -0.008881 3.123995 -0.092925
 10 -0.000007 0.000007 4.044200 0.050545 -3.155083 0.068794
 11 17.182070 0.000091 0.000546 0.000004 -0.000009 -0.558625
 12 16.782913 0.000650 -0.000234 -0.417077 -0.107839 0.122555
 13 5.168527 5.004116 -0.000135 0.000010 0.000000 1.570793
 14 17.182070 0.000099 0.000206 -0.000001 -0.000007 -0.258919
 15 16.782906 0.000656 -0.000113 0.122801 -0.039727 -0.730943
 16 5.168479 5.004167 -0.000064 0.000011 -0.000001 1.570802
 17 -2.138785 -0.706428 3.188127 2.262138 -1.262370 1.096551
 18 5.760273 0.000016 0.000006 -0.102279 -0.584433 -0.856952
time 8
  0 -0.224835 0.224835 3.611328 0.391085 1.317346 -1.187459
  1 0.000000 0.000000 0.000000 -1.570796 -1.570796 0.000000
  2 4.484989 -0.004008 0.000006 0.006105 0.035353 -0.052259
  3 5.037136 -0.005101 -0.000238 0.006151 0.035368 -0.055665
  4 6.388059 -0.005253 -0.000001 0.006232 0.035305 -0.055712
  5 6.146608 1.394838 0.000001 0.021968 -0.088491 -0.218406
  6 -2.677860 -0.839230 -2.711537 -1.330643 1.326680 2.012731
  7 5.760270 -0.000012 -0.000009 -0.279211 0.624041 -1.112849
  8 10.965153 0.000065 -0.000006 0.000013 0.000002 -0.586778
  9 0.000007 -0.000004 -4.044200 -0.004232 3.126765 -0.082893
 10 -0.000007 0.000007 4.044200 0.064921 -3.154256 0.092211
 11 17.182070 0.000091 0.000546 0.000004 -0.000009 -0.534318
 12 16.782913 0.000650 -0.000234 -0.493177 -0.115437 0.128669
 13 5.168527 5.004116 -0.000135 0.000010 0.000000 1.570793
 14 17.182070 0.000099 0.000206 -0.000001 -0.000007 -0.152427
 15 16.782906 0.000656 -0.000113 0.064055 -0.085453 -0.605698
 16 5.168479 5.004167 -0.000064 0.000011 -0.000001 1.570802
 17 -2.162223 -0.706428 3.172502 2.050050 -1.297576 1.314953
 18 5.760273 0.000016 0.000006 0.030273 -0.566148 -0.996086
time 9
  0 -0.205303 0.205303 3.611328 0.341841 1.323671 -1.231587
  1 0.000000 0.000000 0.000000 -1.570796 -1.570796 0.000000
  2 4.484989 -0.004008 0.000006 0.003636 0.032253 -0.052291
  3 5.037136 -0.005101 -0.000238 0.003583 0.032281 -0.055755
  4 6.388059 -0.005253 -0.000001 0.003595 0.032260 -0.055800
  5 6.146608 1.394838 0.000001 0.021968 -0.080615 -0.218287
  6 -2.658328 -0.839230 -2.734975 -1.087484 1.301762 2.265400
  7 5.760270 -0.000012 -0.000009 -0.411813 0.577734 -1.233760
  8 10.965153 0.000065 -0.000006 0.000013 0.000002 -0.586778
  9 0.000007 -0.000004 -4.044200 0.002124 3.130300 -0.037703
 10 -0.000007 0.000007 4.044200 0.064346 -3.148928 0.109320
 11 17.182070 0.000091 0.000546 0.000004 -0.000009 -0.542492
 12 16.782913 0.000650 -0.000234 -0.563537 -0.139398 0.070490
 13 5.168527 5.004116 -0.000135 0.000010 0.000000 1.570793
 14 17.182070 0.000099 0.000206 -0.000001 -0.000007 -0.002213
 15 16.782906 0.000656 -0.000113 0.019116 -0.104430 -0.574914
 16 5.168479 5.004167 -0.000064 0.000011 -0.000001 1.570802
 17 -2.181755 -0.706428 3.152970 -1.394734 -1.820325 4.768298
 18 5.760273 0.000016 0.000006 0.185019 -0.548301 -1.124805
time 10
  0 -0.185771 0.185771 3.611328 0.285234 1.329897 -1.282757
  1 0.000000 0.000000 0.000000 -1.570796 -1.570796 0.000000
  2 4.484989 -0.004008 0.000006 0.001101 0.029200 -0.052356
  3 5.037136 -0.005101 -0.000238 0.001083 0.029179 -0.055816
  4 6.388059 -0.005253 -0.000001 0.001151 0.029177 -0.055853
  5 6.146608 1.394838 0.000001 0.021949 -0.072740 -0.218128
  6 -2.627077 -0.839230 -2.754507 -0.901757 1.270093 2.460553
  7 5.760270 -0.000012 -0.000009 -0.533523 0.554443 -1.325514
  8 10.965153 0.000065 -0.000006 0.000013 0.000002 -0.586778
  9 0.000007 -0.000004 -4.044200 0.009998 3.133739 -0.040760
 10 -0.000007 0.000007 4.044200 0.047861 -3.138730 0.118591
 11 17.182070 0.000091 0.000546 0.000004 -0.000009 -0.581498
 12 16.782913 0.000650 -0.000234 -0.614940 -0.188803 -0.062578
 13 5.168527 5.004116 -0.000135 0.000010 0.000000 1.570793
 14 17.182070 0.000099 0.000206 -0.000001 -0.000007 -0.004680
 15 16.782906 0.000656 -0.000113 -0.019056 -0.110516 -0.476728
 16 5.168479 5.004167 -0.000064 0.000011 -0.000001 1.570802
 17 -2.205194 -0.706428 3.133438 1.436297 -1.322440 1.945016
 18 5.760273 0.000016 0.000006 0.328227 -0.544507 -1.220031
time 11
  0 -0.162333 0.162333 3.611328 0.221647 1.335876 -1.340688
  1 0.000000 0.000000 0.000000 -1.570796 -1.570796 0.000000
  2 4.484989 -0.004008 0.000006 -0.001239 0.026147 -0.052486
  3 5.037136 -0.005101 -0.000238 -0.001212 0.026121 -0.055876
  4 6.388059 -0.005253 -0.000001 -0.001222 0.026132 -0.055923
  5 6.146608 1.394838 0.000001 0.021949 -0.064865 -0.217969
  6 -2.615358 -0.839230 -2.774039 -0.756890 1.236975 2.613165
  7 5.760270 -0.000012 -0.000009 -0.638897 0.539965 -1.400446
  8 10.965153 0.000065 -0.000006 0.000013 0.000002 -0.586778
  9 0.000007 -0.000004 -4.044200 0.022900 3.136032 -0.089867
 10 -0.000007 0.000007 4.044200 0.026871 -3.126787 0.117827
 11 17.182070 0.000091 0.000546 0.000004 -0.000009 -0.625666
 12 16.782913 0.000650 -0.000234 -0.633358 -0.246362 -0.226756
 13 5.168527 5.004116 -0.000135 0.000010 0.000000 1.570793
 14 17.182070 0.000099 0.000206 -0.000001 -0.000007 -0.108911
 15 16.782906 0.000656 -0.000113 -0.062693 -0.107534 -0.300903
 16 5.168479 5.004167 -0.000064 0.000011 -0.000001 1.570802
 17 -2.228631 -0.706428 3.121719 1.162401 -1.306692 2.225370
 18 5.760273 0.000016 0.000006 0.456164 -0.544216 -1.295771
time 12
  0 -0.131082 0.131082 3.611328 0.152514 1.341015 -1.403218
  1 0.000000 0.000000 0.000000 -1.570796 -1.570796 0.000000
  2 4.484989 -0.004008 0.000006 -0.003644 0.023127 -0.052519
  3 5.037136 -0.005101 -0.000238 -0.003627 0.023107 -0.055937
  4 6.388059 -0.005253 -0.000001 -0.003607 0.023048 -0.055976
  5 6.146608 1.394838 0.000001 0.021949 -0.056989 -0.217731
  6 -2.588014 -0.839230 -2.797477 -0.635643 1.204331 2.741169
  7 5.760270 -0.000012 -0.000009 -0.717383 0.515650 -1.459729
  8 10.965153 0.000065 -0.000006 0.000013 0.000002 -0.586778
  9 0.000007 -0.000004 -4.044200 0.038553 3.137752 -0.121491
 10 -0.000007 0.000007 4.044200 0.013836 -3.117416 0.096034
 11 17.182070 0.000091 0.000546 0.000004 -0.000009 -0.663022
 12 16.782913 0.000650 -0.000234 -0.619183 -0.288929 -0.371847
 13 5.168527 5.004116 -0.000135 0.000010 0.000000 1.570793
 14 17.182070 0.000099 0.000206 -0.000001 -0.000007 -0.189226
 15 16.782906 0.000656 -0.000113 -0.100979 -0.096350 -0.149503
 16 5.168479 5.004167 -0.000064 0.000011 -0.000001 1.570802
 17 -2.255976 -0.706428 3.102187 0.935369 -1.280224 2.457434
 18 5.760273 0.000016 0.000006 0.558038 -0.530404 -1.358222
time 13
  0 -0.107644 0.107644 3.611328 0.079843 1.345215 -1.469692
  1 0.000000 0.000000 0.000000 -1.570796 -1.570796 0.000000
  2 4.484989 -0.004008 0.000006 -0.005853 0.020234 -0.052552
  3 5.037136 -0.005101 -0.000238 -0.005923 0.020224 -0.055967
  4 6.388059 -0.005253 -0.000001 -0.005860 0.020251 -0.056011
  5 6.146608 1.394838 0.000001 0.021949 -0.049134 -0.217612
  6 -2.564575 -0.839230 -2.817009 -0.526017 1.172188 2.855628
  7 5.760270 -0.000012 -0.000009 -0.753120 0.460884 -1.497756
  8 10.965153 0.000065 -0.000006 0.000013 0.000002 -0.586778
  9 0.000007 -0.000004 -4.044200 0.054111 3.138994 -0.149962
 10 -0.000007 0.000007 4.044200 0.013836 -3.109516 0.043942
 11 17.182070 0.000091 0.000546 0.000004 -0.000009 -0.690699
 12 16.782913 0.000650 -0.000234 -0.569153 -0.315466 -0.510960
 13 5.168527 5.004116 -0.000135 0.000010 0.000000 1.570793
 14 17.182070 0.000099 0.000206 -0.000001 -0.000007 -0.267074
 15 16.782906 0.000656 -0.000113 -0.131767 -0.081053 -0.023844
 16 5.168479 5.004167 -0.000064 0.000011 -0.000001 1.570802
 17 -2.279414 -0.706428 3.078749 0.746621 -1.246935 2.648986
 18 5.760273 0.000016 0.000006 0.618308 -0.482551 -1.402939
time 14
  0 -0.076393 0.076393 3.611328 0.006120 1.348328 -1.537293
  1 0.000000 0.000000 0.000000 -1.570796 -1.570796 0.000000
  2 4.484989 -0.004008 0.000006 -0.007933 0.017421 -0.052584
  3 5.037136 -0.005101 -0.000238 -0.008015 0.017430 -0.055997
  4 6.388059 -0.005253 -0.000001 -0.008042 0.017434 -0.056064
  5 6.146608 1.394838 0.000001 0.021949 -0.041298 -0.217453
  6 -2.545043 -0.839230 -2.836541 -0.420772 1.139544 2.963410
  7 5.760270 -0.000012 -0.000009 -0.728819 0.349464 -1.499795
  8 10.965153 0.000065 -0.000006 0.000013 0.000002 -0.586778
  9 0.000007 -0.000004 -4.044200 0.068911 3.139376 -0.173369
 10 -0.000007 0.000007 4.044200 0.020066 -3.100145 -0.024494
 11 17.182070 0.000091 0.000546 0.000004 -0.000009 -0.701311
 12 16.782913 0.000650 -0.000234 -0.484936 -0.326455 -0.670316
 13 5.168527 5.004116 -0.000135 0.000010 0.000000 1.570793
 14 17.182070 0.000099 0.000206 -0.000001 -0.000007 -0.336767
 15 16.782906 0.000656 -0.000113 -0.155725 -0.067175 0.061697
 16 5.168479 5.004167 -0.000064 0.000011 -0.000001 1.570802
 17 -2.298946 -0.706428 3.059217 0.584350 -1.208774 2.812455
 18 5.760273 0.000016 0.000006 0.618308 -0.374153 -1.416274
time 15
  0 -0.056861 0.056861 3.611328 -0.065691 1.350156 -1.603673
  1 0.000000 0.000000 0.000000 -1.570796 -1.570796 0.000000
  2 4.484989 -0.004008 0.000006 -0.009916 0.014704 -0.052584
  3 5.037136 -0.005101 -0.000238 -0.009851 0.014723 -0.056027
  4 6.388059 -0.005253 -0.000001 -0.009875 0.014655 -0.056099
  5 6.146608 1.394838 0.000001 0.021949 -0.033462 -0.217215
  6 -2.525512 -0.839230 -2.859979 -0.316003 1.104791 3.067950
  7 5.760270 -0.000012 -0.000009 -0.620518 0.217702 -1.341520
  8 10.965153 0.000065 -0.000006 0.000013 0.000002 -0.857819
  9 0.000007 -0.000004 -4.044200 0.080674 3.139472 -0.189325
 10 -0.000007 0.000007 4.044200 0.026200 -3.091050 -0.087673
 11 17.182070 0.000091 0.000546 0.000004 -0.000009 -0.685106
 12 16.782913 0.000650 -0.000234 -0.390567 -0.313316 -0.806168
 13 5.168527 5.004116 -0.000135 0.000010 0.000000 1.570793
 14 17.182070 0.000099 0.000206 -0.000001 -0.000007 -0.388986
 15 16.782906 0.000656 -0.000113 -0.172835 -0.060102 0.091465
 16 5.168479 5.004167 -0.000064 0.000011 -0.000001 1.570802
 17 -2.322384 -0.706428 3.047498 0.439606 -1.165678 2.955621
 18 5.760273 0.000016 0.000006 0.527496 -0.231906 -1.266858
time 16
  0 -0.033423 0.033423 3.611328 -0.133294 1.350996 -1.665922
  1 0.000000 0.000000 0.000000 -1.570796 -1.570796 0.000000
  2 4.484989 -0.004008 0.000006 -0.011573 0.012211 -0.052584
  3 5.037136 -0.005101 -0.000238 -0.011603 0.012162 -0.056057
  4 6.388059 -0.005253 -0.000001 -0.011553 0.012200 -0.056099
  5 6.146608 1.394838 0.000001 0.021949 -0.025666 -0.217096
  6 -2.502073 -0.839230 -2.883417 -0.233045 1.077421 3.147690
  7 5.760270 -0.000012 -0.000009 -0.547614 0.011031 -1.156636
  8 10.965153 0.000065 -0.000006 0.000013 0.000002 -1.042868
  9 0.000007 -0.000004 -4.044200 0.091774 3.139472 -0.208050
 10 -0.000007 0.000007 4.044200 0.028405 -3.084894 -0.133360
 11 17.182070 0.000091 0.000546 0.000004 -0.000009 -0.652411
 12 16.782913 0.000650 -0.000234 -0.312530 -0.277939 -0.863940
 13 5.168527 5.004116 -0.000135 0.000010 0.000000 1.570793
 14 17.182070 0.000099 0.000206 -0.000001 -0.000007 -0.446892
 15 16.782906 0.000656 -0.000113 -0.186480 -0.060904 0.090186
 16 5.168479 5.004167 -0.000064 0.000011 -0.000001 1.570802
 17 -2.349729 -0.706428 3.027966 0.334715 -1.127109 3.057137
 18 5.760273 0.000016 0.000006 0.468245 -0.017540 -1.093153
time 17
  0 -0.002172 0.002172 3.611328 -0.194013 1.350947 -1.721505
  1 0.000000 0.000000 0.000000 -1.570796 -1.570796 0.000000
  2 4.484989 -0.004008 0.000006 -0.013068 0.009781 -0.052617
  3 5.037136 -0.005101 -0.000238 -0.012997 0.009821 -0.056088
  4 6.388059 -0.005253 -0.000001 -0.012979 0.009821 -0.056152
  5 6.146608 1.394838 0.000001 0.021949 -0.017870 -0.216937
  6 -2.478635 -0.839230 -2.895136 -0.171707 1.061626 3.205110
  7 5.760270 -0.000012 -0.000009 -0.515144 -0.218498 -1.002285
  8 10.965153 0.000065 -0.000006 0.000013 0.000002 -1.046149
  9 0.000007 -0.000004 -4.044200 0.103158 3.138803 -0.224292
 10 -0.000007 0.000007 4.044200 0.026392 -3.084435 -0.167483
 11 17.182070 0.000091 0.000546 0.000004 -0.000009 -0.611182
 12 16.782913 0.000650 -0.000234 -0.246682 -0.223068 -0.824814
 13 5.168527 5.004116 -0.000135 0.000010 0.000000 1.570793
 14 17.182070 0.000099 0.000206 -0.000001 -0.000007 -0.502811
 15 16.782906 0.000656 -0.000113 -0.199736 -0.065386 0.072987
 16 5.168479 5.004167 -0.000064 0.000011 -0.000001 1.570802
 17 -2.373167 -0.706428 3.012341 0.263036 -1.098472 3.124593
 18 5.760273 0.000016 0.000006 0.444626 0.213700 -0.947598
time 18
  0 0.017360 -0.017360 3.611328 -0.246508 1.350255 -1.770046
  1 0.000000 0.000000 0.000000 -1.570796 -1.570796 0.000000
  2 4.484989 -0.004008 0.000006 -0.014173 0.007624 -0.052617
  3 5.037136 -0.005101 -0.000238 -0.014188 0.007656 -0.056088
  4 6.388059 -0.005253 -0.000001 -0.014202 0.007613 -0.056152
  5 6.146608 1.394838 0.000001 0.021949 -0.010054 -0.216699
  6 -2.459103 -0.839230 -2.914668 -0.123037 1.056590 3.248986
  7 5.760270 -0.000012 -0.000009 -0.480428 -0.435241 -0.882699
  8 10.965153 0.000065 -0.000006 0.000013 0.000002 -0.911928
  9 0.000007 -0.000004 -4.044200 0.115301 3.136701 -0.239197
 10 -0.000007 0.000007 4.044200 0.022558 -3.087559 -0.191665
 11 17.182070 0.000091 0.000546 0.000004 -0.000009 -0.547081
 12 16.782913 0.000650 -0.000234 -0.171785 -0.159597 -0.730668
 13 5.168527 5.004116 -0.000135 0.000010 0.000000 1.570793
 14 17.182070 0.000099 0.000206 -0.000001 -0.000007 -0.556331
 15 16.782906 0.000656 -0.000113 -0.211072 -0.073569 0.042428
 16 5.168479 5.004167 -0.000064 0.000011 -0.000001 1.570802
 17 -2.396605 -0.706428 2.992809 0.211098 -1.079863 3.171936
 18 5.760273 0.000016 0.000006 0.414220 0.428310 -0.835267
time 19
  0 0.029079 -0.029079 3.611328 -0.289824 1.349316 -1.809480
  1 0.000000 0.000000 0.000000 -1.570796 -1.570796 0.000000
  2 4.484989 -0.004008 0.000006 -0.014953 0.005674 -0.052649
  3 5.037136 -0.005101 -0.000238 -0.014970 0.005710 -0.056088
  4 6.388059 -0.005253 -0.000001 -0.015005 0.005729 -0.056152
  5 6.146608 1.394838 0.000001 0.021949 -0.002278 -0.216580
  6 -2.427852 -0.839230 -2.934200 -0.082177 1.060756 3.285041
  7 5.760270 -0.000012 -0.000009 -0.402964 -0.628850 -0.838759
  8 10.965153 0.000065 -0.000006 0.000013 0.000002 -0.642373
  9 0.000007 -0.000004 -4.044200 0.128108 3.133835 -0.252477
 10 -0.000007 0.000007 4.044200 0.018533 -3.092336 -0.199502
 11 17.182070 0.000091 0.000546 0.000004 -0.000009 -0.459175
 12 16.782913 0.000650 -0.000234 -0.091296 -0.104874 -0.613767
 13 5.168527 5.004116 -0.000135 0.000010 0.000000 1.570793
 14 17.182070 0.000099 0.000206 -0.000001 -0.000007 -0.607864
 15 16.782906 0.000656 -0.000113 -0.220278 -0.085494 0.000994
 16 5.168479 5.004167 -0.000064 0.000011 -0.000001 1.570802
 17 -2.416137 -0.706428 2.973277 0.171245 -1.070056 3.207134
 18 5.760273 0.000016 0.000006 0.338476 0.615442 -0.797150
time 20
  0 0.036892 -0.036892 3.611328 -0.323960 1.348229 -1.840933
  1 0.000000 0.000000 0.000000 -1.570796 -1.570796 0.000000
  2 4.484989 -0.004008 0.000006 -0.015408 0.003916 -0.052649
  3 5.037136 -0.005101 -0.000238 -0.015378 0.003998 -0.056088
  4 6.388059 -0.005253 -0.000001 -0.015376 0.003997 -0.056152
  5 6.146608 1.394838 0.000001 0.021968 0.005261 -0.216421
  6 -2.408320 -0.839230 -2.953732 -0.045413 1.071936 3.317090
  7 5.760270 -0.000012 -0.000009 -0.378799 -0.739563 -0.713872
  8 10.965153 0.000065 -0.000006 0.000013 0.000002 -0.586778
  9 0.000007 -0.000004 -4.044200 0.140630 3.130300 -0.264132
 10 -0.000007 0.000007 4.044200 0.011919 -3.096286 -0.187937
 11 17.182070 0.000091 0.000546 0.000004 -0.000009 -0.353344
 12 16.782913 0.000650 -0.000234 -0.014191 -0.066532 -0.504100
 13 5.168527 5.004116 -0.000135 0.000010 0.000000 1.570793
 14 17.182070 0.000099 0.000206 -0.000001 -0.000007 -0.657067
 15 16.782906 0.000656 -0.000113 -0.226832 -0.100688 -0.048946
 16 5.168479 5.004167 -0.000064 0.000011 -0.000001 1.570802
 17 -2.439576 -0.706428 2.953745 0.138957 -1.067290 3.235217
 18 5.760273 0.000016 0.000006 0.315535 0.724765 -0.674223
time 21
  0 0.048611 -0.048611 3.611328 -0.349395 1.347290 -1.864218
  1 0.000000 0.000000 0.000000 -1.570796 -1.570796 0.000000
  2 4.484989 -0.004008 0.000006 -0.015473 0.002461 -0.052649
  3 5.037136 -0.005101 -0.000238 -0.015412 0.002520 -0.056088
  4 6.388059 -0.005253 -0.000001 -0.015436 0.002474 -0.056152
  5 6.146608 1.394838 0.000001 0.021968 0.012978 -0.216262
  6 -2.384882 -0.839230 -2.961545 -0.009696 1.088100 3.348566
  7 5.760270 -0.000012 -0.000009 -0.384585 -0.810971 -0.576904
  8 10.965153 0.000065 -0.000006 0.000013 0.000002 -0.586778
  9 0.000007 -0.000004 -4.044200 0.152678 3.126288 -0.274260
 10 -0.000007 0.000007 4.044200 0.004156 -3.097756 -0.165093
 11 17.182070 0.000091 0.000546 0.000004 -0.000009 -0.255041
 12 16.782913 0.000650 -0.000234 0.043784 -0.044869 -0.423709
 13 5.168527 5.004116 -0.000135 0.000010 0.000000 1.570793
 14 17.182070 0.000099 0.000206 -0.000001 -0.000007 -0.703735
 15 16.782906 0.000656 -0.000113 -0.228800 -0.117958 -0.105359
 16 5.168479 5.004167 -0.000064 0.000011 -0.000001 1.570802
 17 -2.459107 -0.706428 2.945932 0.110543 -1.069521 3.259695
 18 5.760273 0.000016 0.000006 0.322933 0.795912 -0.538950
time 22
  0 0.060330 -0.060330 3.611328 -0.367276 1.346549 -1.880931
  1 0.000000 0.000000 0.000000 -1.570796 -1.570796 0.000000
  2 4.484989 -0.004008 0.000006 -0.015148 0.001311 -0.052649
  3 5.037136 -0.005101 -0.000238 -0.015072 0.001320 -0.056088
  4 6.388059 -0.005253 -0.000001 -0.015149 0.001256 -0.056152
  5 6.146608 1.394838 0.000001 0.021987 0.020676 -0.216024
  6 -2.365350 -0.839230 -2.984983 0.027068 1.106716 3.381282
  7 5.760270 -0.000012 -0.000009 -0.395272 -0.861252 -0.459051
  8 10.965153 0.000065 -0.000006 0.000013 0.000002 -0.586778
  9 0.000007 -0.000004 -4.044200 0.164063 3.121797 -0.281998
 10 -0.000007 0.000007 4.044200 -0.008304 -3.096838 -0.147793
 11 17.182070 0.000091 0.000546 0.000004 -0.000009 -0.201480
 12 16.782913 0.000650 -0.000234 0.078535 -0.028894 -0.343420
 13 5.168527 5.004116 -0.000135 0.000010 0.000000 1.570793
 14 17.182070 0.000099 0.000206 -0.000001 -0.000007 -0.747524
 15 16.782906 0.000656 -0.000113 -0.226458 -0.136339 -0.166100
 16 5.168479 5.004167 -0.000064 0.000011 -0.000001 1.570802
 17 -2.490358 -0.706428 2.922494 0.083144 -1.074457 3.283224
 18 5.760273 0.000016 0.000006 0.335489 0.846002 -0.423431
time 23
  0 0.060330 -0.060330 3.611328 -0.378846 1.346055 -1.891258
  1 0.000000 0.000000 0.000000 -1.570796 -1.570796 0.000000
  2 4.484989 -0.004008 0.000006 -0.014303 0.000447 -0.052617
  3 5.037136 -0.005101 -0.000238 -0.014290 0.000442 -0.056088
  4 6.388059 -0.005253 -0.000001 -0.014322 0.000457 -0.056152
  5 6.146608 1.394838 0.000001 0.021987 0.028274 -0.215905
  6 -2.345819 -0.839230 -2.992796 0.067452 1.125358 3.417432
  7 5.760270 -0.000012 -0.000009 -0.402964 -0.895953 -0.360620
  8 10.965153 0.000065 -0.000006 0.000013 0.000002 -0.586778
  9 0.000007 -0.000004 -4.044200 0.174498 3.117212 -0.288209
 10 -0.000007 0.000007 4.044200 -0.024406 -3.094633 -0.148080
 11 17.182070 0.000091 0.000546 0.000004 -0.000009 -0.204635
 12 16.782913 0.000650 -0.000234 0.098964 -0.013087 -0.231409
 13 5.168527 5.004116 -0.000135 0.000010 0.000000 1.570793
 14 17.182070 0.000099 0.000206 -0.000001 -0.000007 -0.788024
 15 16.782906 0.000656 -0.000113 -0.219627 -0.154391 -0.229174
 16 5.168479 5.004167 -0.000064 0.000011 -0.000001 1.570802
 17 -2.509890 -0.706428 2.902962 0.055007 -1.079769 3.307891
 18 5.760273 0.000016 0.000006 0.346484 0.881065 -0.328160
time 24
  0 0.060330 -0.060330 3.611328 -0.385539 1.345808 -1.897267
  1 0.000000 0.000000 0.000000 -1.570796 -1.570796 0.000000
  2 4.484989 -0.004008 0.000006 -0.012938 -0.000048 -0.052617
  3 5.037136 -0.005101 -0.000238 -0.012912 -0.000041 -0.056088
  4 6.388059 -0.005253 -0.000001 -0.012907 0.000000 -0.056152
  5 6.146608 1.394838 0.000001 0.022006 0.035853 -0.215746
  6 -2.322381 -0.839230 -3.016234 0.112503 1.141390 3.458351
  7 5.760270 -0.000012 -0.000009 -0.402964 -0.917749 -0.280233
  8 10.965153 0.000065 -0.000006 0.000013 0.000002 -0.586778
  9 0.000007 -0.000004 -4.044200 0.184269 3.112626 -0.292795
 10 -0.000007 0.000007 4.044200 -0.040987 -3.091050 -0.162226
 11 17.182070 0.000091 0.000546 0.000004 -0.000009 -0.251599
 12 16.782913 0.000650 -0.000234 0.108651 0.001386 -0.106391
 13 5.168527 5.004116 -0.000135 0.000010 0.000000 1.570793
 14 17.182070 0.000099 0.000206 -0.000001 -0.000007 -0.825098
 15 16.782906 0.000656 -0.000113 -0.209153 -0.171394 -0.292398
 16 5.168479 5.004167 -0.000064 0.000011 -0.000001 1.570802
 17 -2.533329 -0.706428 2.883430 0.024287 -1.083007 3.335405
 18 5.760273 0.000016 0.000006 0.351100 0.904068 -0.251881
time 25
  0 0.060330 -0.060330 3.611328 -0.388886 1.345610 -1.900553
  1 0.000000 0.000000 0.000000 -1.570796 -1.570796 0.000000
  2 4.484989 -0.004008 0.000006 -0.011118 -0.000224 -0.052617
  3 5.037136 -0.005101 -0.000238 -0.011110 -0.000246 -0.056088
  4 6.388059 -0.005253 -0.000001 -0.011146 -0.000171 -0.056152
  5 6.146608 1.394838 0.000001 0.022006 0.043392 -0.215508
  6 -2.298942 -0.839230 -3.035766 0.146410 1.151542 3.489351
  7 5.760270 -0.000012 -0.000009 -0.394863 -0.924516 -0.239046
  8 10.965153 0.000065 -0.000006 0.000013 0.000002 -0.586778
  9 0.000007 -0.000004 -4.044200 0.192143 3.108136 -0.295183
 10 -0.000007 0.000007 4.044200 -0.056130 -3.086640 -0.179430
 11 17.182070 0.000091 0.000546 0.000004 -0.000009 -0.313119
 12 16.782913 0.000650 -0.000234 0.111913 0.013784 0.005552
 13 5.168527 5.004116 -0.000135 0.000010 0.000000 1.570793
 14 17.182070 0.000099 0.000206 -0.000001 -0.000007 -0.858129
 15 16.782906 0.000656 -0.000113 -0.195491 -0.185951 -0.353741
 16 5.168479 5.004167 -0.000064 0.000011 -0.000001 1.570802
 17 -2.552860 -0.706428 2.863898 0.004084 -1.080115 3.353716
 18 5.760273 0.000016 0.000006 0.349674 0.912676 -0.215066
time 26
  0 0.060330 -0.060330 3.611328 -0.390129 1.345561 -1.901492
  1 0.000000 0.000000 0.000000 -1.570796 -1.570796 0.000000
  2 4.484989 -0.004008 0.000006 -0.007608 0.000352 -0.052617
  3 5.037136 -0.005101 -0.000238 -0.007675 0.000354 -0.056057
  4 6.388059 -0.005253 -0.000001 -0.007610 0.000381 -0.056099
  5 6.146608 1.394838 0.000001 0.022006 0.043946 -0.215508
  6 -2.291130 -0.839230 -3.035766 0.152601 1.152702 3.494597
  7 5.760270 -0.000012 -0.000009 -0.381726 -0.920385 -0.233744
  8 10.965153 0.000065 -0.000006 0.000013 0.000002 -0.586778
  9 0.000007 -0.000004 -4.044200 0.199163 3.104601 -0.295852
 10 -0.000007 0.000007 4.044200 -0.065523 -3.082782 -0.195584
 11 17.182070 0.000091 0.000546 0.000004 -0.000009 -0.374567
 12 16.782913 0.000650 -0.000234 0.110981 0.023124 0.084890
 13 5.168527 5.004116 -0.000135 0.000010 0.000000 1.570793
 14 17.182070 0.000099 0.000206 -0.000001 -0.000007 -0.886773
 15 16.782906 0.000656 -0.000113 -0.179666 -0.197218 -0.410907
 16 5.168479 5.004167 -0.000064 0.000011 -0.000001 1.570802
 17 -2.556767 -0.706428 2.863898 -0.000252 -1.080460 3.357321
 18 5.760273 0.000016 0.000006 0.349674 0.915593 -0.218119
time 27
  0 0.060330 -0.060330 3.611328 -0.390416 1.345561 -1.901680
  1 0.000000 0.000000 0.000000 -1.570796 -1.570796 0.000000
  2 4.484989 -0.004008 0.000006 -0.001824 0.002237 -0.052584
  3 5.037136 -0.005101 -0.000238 -0.001825 0.002242 -0.056027
  4 6.388059 -0.005253 -0.000001 -0.001846 0.002265 -0.056064
  5 6.146608 1.394838 0.000001 0.022006 0.036130 -0.215746
  6 -2.318474 -0.839230 -3.016234 0.163077 1.147033 3.504326
  7 5.760270 -0.000012 -0.000009 -0.357288 -0.911494 -0.217483
  8 10.965153 0.000065 -0.000006 0.000013 0.000002 -0.586778
  9 0.000007 -0.000004 -4.044200 0.204381 3.101257 -0.294419
 10 -0.000007 0.000007 4.044200 -0.068303 -3.080944 -0.211163
 11 17.182070 0.000091 0.000546 0.000004 -0.000009 -0.430208
 12 16.782913 0.000650 -0.000234 0.110295 0.028368 0.116476
 13 5.168527 5.004116 -0.000135 0.000010 0.000000 1.570793
 14 17.182070 0.000099 0.000206 -0.000001 -0.000007 -0.910827
 15 16.782906 0.000656 -0.000113 -0.162800 -0.204558 -0.461562
 16 5.168479 5.004167 -0.000064 0.000011 -0.000001 1.570802
 17 -2.533329 -0.706428 2.883430 -0.018518 -1.090708 3.373829
 18 5.760273 0.000016 0.000006 0.344923 0.923326 -0.216368
time 28
  0 0.060330 -0.060330 3.611328 -0.390416 1.345561 -1.901774
  1 0.000000 0.000000 0.000000 -1.570796 -1.570796 0.000000
  2 4.484989 -0.004008 0.000006 0.005845 0.005226 -0.052552
  3 5.037136 -0.005101 -0.000238 0.005947 0.005227 -0.055967
  4 6.388059 -0.005253 -0.000001 0.005872 0.005253 -0.056011
  5 6.146608 1.394838 0.000001 0.021987 0.028254 -0.215905
  6 -2.345819 -0.839230 -2.992796 0.186603 1.142313 3.525787
  7 5.760270 -0.000012 -0.000009 -0.318828 -0.898078 -0.191028
  8 10.965153 0.000065 -0.000006 0.000013 0.000002 -0.586778
  9 0.000007 -0.000004 -4.044200 0.208176 3.098964 -0.291266
 10 -0.000007 0.000007 4.044200 -0.065331 -3.081220 -0.225883
 11 17.182070 0.000091 0.000546 0.000004 -0.000009 -0.480829
 12 16.782913 0.000650 -0.000234 0.110049 0.030944 0.113997
 13 5.168527 5.004116 -0.000135 0.000010 0.000000 1.570793
 14 17.182070 0.000099 0.000206 -0.000001 -0.000007 -0.929740
 15 16.782906 0.000656 -0.000113 -0.146405 -0.207786 -0.503373
 16 5.168479 5.004167 -0.000064 0.000011 -0.000001 1.570802
 17 -2.509890 -0.706428 2.902962 -0.049607 -1.102559 3.401912
 18 5.760273 0.000016 0.000006 0.333725 0.934219 -0.209005
time 29
  0 0.060330 -0.060330 3.611328 -0.390416 1.345561 -1.901680
  1 0.000000 0.000000 0.000000 -1.570796 -1.570796 0.000000
  2 4.484989 -0.004008 0.000006 0.015335 0.009142 -0.052454
  3 5.037136 -0.005101 -0.000238 0.015249 0.009104 -0.055876
  4 6.388059 -0.005253 -0.000001 0.015256 0.009117 -0.055923
  5 6.146608 1.394838 0.000001 0.021987 0.020339 -0.216024
  6 -2.365350 -0.839230 -2.981077 0.225558 1.138094 3.561555
  7 5.760270 -0.000012 -0.000009 -0.263419 -0.879389 -0.155091
  8 10.965153 0.000065 -0.000006 0.000013 0.000002 -0.586778
  9 0.000007 -0.000004 -4.044200 0.209789 3.097722 -0.285820
 10 -0.000007 0.000007 4.044200 -0.061018 -3.082230 -0.239264
 11 17.182070 0.000091 0.000546 0.000004 -0.000009 -0.528295
 12 16.782913 0.000650 -0.000234 0.108234 0.033001 0.101328
 13 5.168527 5.004116 -0.000135 0.000010 0.000000 1.570793
 14 17.182070 0.000099 0.000206 -0.000001 -0.000007 -0.943240
 15 16.782906 0.000656 -0.000113 -0.131100 -0.206182 -0.534006
 16 5.168479 5.004167 -0.000064 0.000011 -0.000001 1.570802
 17 -2.478639 -0.706428 2.922494 -0.096747 -1.115541 3.444700
 18 5.760273 0.000016 0.000006 0.312956 0.945550 -0.194727
time 30
  0 0.060330 -0.060330 3.611328 -0.389555 1.345610 -1.900929
  1 0.000000 0.000000 0.000000 -1.570796 -1.570796 0.000000
  2 4.484989 -0.004008 0.000006 0.025864 0.013681 -0.052291
  3 5.037136 -0.005101 -0.000238 0.025895 0.013684 -0.055695
  4 6.388059 -0.005253 -0.000001 0.025899 0.013627 -0.055747
  5 6.146608 1.394838 0.000001 0.021968 0.012385 -0.216262
  6 -2.392695 -0.839230 -2.961545 0.281276 1.133664 3.612680
  7 5.760270 -0.000012 -0.000009 -0.187588 -0.853226 -0.112884
  8 10.965153 0.000065 -0.000006 0.000013 0.000002 -0.586778
  9 0.000007 -0.000004 -4.044200 0.208840 3.097722 -0.278081
 10 -0.000007 0.000007 4.044200 -0.055651 -3.084160 -0.250925
 11 17.182070 0.000091 0.000546 0.000004 -0.000009 -0.573396
 12 16.782913 0.000650 -0.000234 0.105095 0.034354 0.079150
 13 5.168527 5.004116 -0.000135 0.000010 0.000000 1.570793
 14 17.182070 0.000099 0.000206 -0.000001 -0.000007 -0.950504
 15 16.782906 0.000656 -0.000113 -0.118284 -0.199829 -0.550791
 16 5.168479 5.004167 -0.000064 0.000011 -0.000001 1.570802
 17 -2.459107 -0.706428 2.945932 -0.163446 -1.128837 3.505705
 18 5.760273 0.000016 0.000006 0.278749 0.952991 -0.174614
time 31
  0 0.060330 -0.060330 3.611328 -0.386304 1.345709 -1.898018
  1 0.000000 0.000000 0.000000 -1.570796 -1.570796 0.000000
  2 4.484989 -0.004008 0.000006 0.037205 0.018779 -0.051998
  3 5.037136 -0.005101 -0.000238 0.037153 0.018820 -0.055453
  4 6.388059 -0.005253 -0.000001 0.037128 0.018766 -0.055501
  5 6.146608 1.394838 0.000001 0.021968 0.004331 -0.216421
  6 -2.416133 -0.839230 -2.953732 0.353281 1.127995 3.679067
  7 5.760270 -0.000012 -0.000009 -0.086979 -0.814827 -0.068689
  8 10.965153 0.000065 -0.000006 0.000013 0.000002 -0.586778
  9 0.000007 -0.000004 -4.044200 0.207986 3.098200 -0.274260
 10 -0.000007 0.000007 4.044200 -0.048654 -3.087191 -0.261152
 11 17.182070 0.000091 0.000546 0.000004 -0.000009 -0.615986
 12 16.782913 0.000650 -0.000234 0.100926 0.034817 0.048617
 13 5.168527 5.004116 -0.000135 0.000010 0.000000 1.570793
 14 17.182070 0.000099 0.000206 -0.000001 -0.000007 -0.952012
 15 16.782906 0.000656 -0.000113 -0.113112 -0.195203 -0.553689
 16 5.168479 5.004167 -0.000064 0.000011 -0.000001 1.570802
 17 -2.439576 -0.706428 2.953745 -0.251915 -1.141065 3.587202
 18 5.760273 0.000016 0.000006 0.224927 0.949878 -0.153423
time 32
  0 0.060330 -0.060330 3.611328 -0.378081 1.346055 -1.890413
  1 0.000000 0.000000 0.000000 -1.570796 -1.570796 0.000000
  2 4.484989 -0.004008 0.000006 0.048872 0.024261 -0.051673
  3 5.037136 -0.005101 -0.000238 0.048819 0.024263 -0.055151
  4 6.388059 -0.005253 -0.000001 0.048801 0.024209 -0.055184
  5 6.146608 1.394838 0.000001 0.021949 -0.003583 -0.216580
  6 -2.439571 -0.839230 -2.934200 0.438334 1.120322 3.758235
  7 5.760270 -0.000012 -0.000009 -0.121968 -0.748848 0.210498
  8 10.965153 0.000065 -0.000006 0.000013 0.000002 -0.969319
  9 0.000007 -0.000004 -4.044200 0.205994 3.098869 -0.267190
 10 -0.000007 0.000007 4.044200 -0.041754 -3.091050 -0.270232
 11 17.182070 0.000091 0.000546 0.000004 -0.000009 -0.655996
 12 16.782913 0.000650 -0.000234 0.097100 0.034539 0.011020
 13 5.168527 5.004116 -0.000135 0.000010 0.000000 1.570793
 14 17.182070 0.000099 0.000206 -0.000001 -0.000007 -0.946872
 15 16.782906 0.000656 -0.000113 -0.108249 -0.188521 -0.556135
 16 5.168479 5.004167 -0.000064 0.000011 -0.000001 1.570802
 17 -2.416137 -0.706428 2.977183 -0.360865 -1.150653 3.687864
 18 5.760273 0.000016 0.000006 0.357004 0.883594 0.130907
time 33
  0 0.048611 -0.048611 3.611328 -0.361634 1.346796 -1.875391
  1 0.000000 0.000000 0.000000 -1.570796 -1.570796 0.000000
  2 4.484989 -0.004008 0.000006 0.060473 0.029887 -0.051347
  3 5.037136 -0.005101 -0.000238 0.060451 0.029896 -0.054758
  4 6.388059 -0.005253 -0.000001 0.060426 0.029900 -0.054797
  5 6.146608 1.394838 0.000001 0.021949 -0.011736 -0.216818
  6 -2.459103 -0.839230 -2.914668 0.530340 1.110302 3.844842
  7 5.760270 -0.000012 -0.000009 -0.059887 -0.685426 0.411031
  8 10.965153 0.000065 -0.000006 0.000013 0.000002 -1.284935
  9 0.000007 -0.000004 -4.044200 0.200397 3.101830 -0.250757
 10 -0.000007 0.000007 4.044200 -0.034949 -3.096195 -0.277305
 11 17.182070 0.000091 0.000546 0.000004 -0.000009 -0.693854
 12 16.782913 0.000650 -0.000234 0.094722 0.033983 -0.032860
 13 5.168527 5.004116 -0.000135 0.000010 0.000000 1.570793
 14 17.182070 0.000099 0.000206 -0.000001 -0.000007 -0.931042
 15 16.782906 0.000656 -0.000113 -0.100442 -0.170983 -0.548533
 16 5.168479 5.004167 -0.000064 0.000011 -0.000001 1.570802
 17 -2.392699 -0.706428 2.996715 -0.485221 -1.156311 3.803801
 18 5.760273 0.000016 0.000006 0.370986 0.808265 0.312065
time 34
  0 0.048611 -0.048611 3.611328 -0.334287 1.347883 -1.850322
  1 0.000000 0.000000 0.000000 -1.570796 -1.570796 0.000000
  2 4.484989 -0.004008 0.000006 0.071652 0.035449 -0.050924
  3 5.037136 -0.005101 -0.000238 0.071657 0.035485 -0.054335
  4 6.388059 -0.005253 -0.000001 0.071680 0.035400 -0.054375
  5 6.146608 1.394838 0.000001 0.021949 -0.019868 -0.216977
  6 -2.478635 -0.839230 -2.891230 0.622347 1.098700 3.932785
  7 5.760270 -0.000012 -0.000009 0.095519 -0.622359 0.526131
  8 10.965153 0.000065 -0.000006 0.000013 0.000002 -1.525207
  9 0.000007 -0.000004 -4.044200 0.191384 3.105843 -0.231362
 10 -0.000007 0.000007 4.044200 -0.026514 -3.102993 -0.282753
 11 17.182070 0.000091 0.000546 0.000004 -0.000009 -0.729059
 12 16.782913 0.000650 -0.000234 0.092760 0.032853 -0.081937
 13 5.168527 5.004116 -0.000135 0.000010 0.000000 1.570793
 14 17.182070 0.000099 0.000206 -0.000001 -0.000007 -0.908634
 15 16.782906 0.000656 -0.000113 -0.093237 -0.147360 -0.525426
 16 5.168479 5.004167 -0.000064 0.000011 -0.000001 1.570802
 17 -2.365355 -0.706428 3.016247 -0.616126 -1.157914 3.926949
 18 5.760273 0.000016 0.000006 0.269926 0.738868 0.387716
time 35
  0 0.029079 -0.029079 3.611328 -0.293266 1.349168 -1.812672
  1 0.000000 0.000000 0.000000 -1.570796 -1.570796 0.000000
  2 4.484989 -0.004008 0.000006 0.081954 0.040899 -0.050403
  3 5.037136 -0.005101 -0.000238 0.081895 0.040870 -0.053852
  4 6.388059 -0.005253 -0.000001 0.081987 0.040882 -0.053900
  5 6.146608 1.394838 0.000001 0.021949 -0.028021 -0.217096
  6 -2.509886 -0.839230 -2.867792 0.706924 1.087599 4.015386
  7 5.760270 -0.000012 -0.000009 0.326891 -0.538203 0.554167
  8 10.965153 0.000065 -0.000006 0.000013 0.000002 -1.676143
  9 0.000007 -0.000004 -4.044200 0.180190 3.110429 -0.209675
 10 -0.000007 0.000007 4.044200 -0.019709 -3.110710 -0.287246
 11 17.182070 0.000091 0.000546 0.000004 -0.000009 -0.762042
 12 16.782913 0.000650 -0.000234 0.093814 0.032649 -0.135327
 13 5.168527 5.004116 -0.000135 0.000010 0.000000 1.570793
 14 17.182070 0.000099 0.000206 -0.000001 -0.000007 -0.881017
 15 16.782906 0.000656 -0.000113 -0.084487 -0.118658 -0.489260
 16 5.168479 5.004167 -0.000064 0.000011 -0.000001 1.570802
 17 -2.345823 -0.706428 3.035779 -0.744080 -1.157034 4.048673
 18 5.760273 0.000016 0.000006 0.067467 0.670882 0.354492
time 36
  0 0.005641 -0.005641 3.611328 -0.237711 1.350354 -1.761596
  1 0.000000 0.000000 0.000000 -1.570796 -1.570796 0.000000
  2 4.484989 -0.004008 0.000006 0.090988 0.045918 -0.049980
  3 5.037136 -0.005101 -0.000238 0.090959 0.045932 -0.053398
  4 6.388059 -0.005253 -0.000001 0.091023 0.045868 -0.053425
  5 6.146608 1.394838 0.000001 0.021949 -0.036193 -0.217334
  6 -2.533324 -0.839230 -2.848260 0.778643 1.080084 4.087591
  7 5.760270 -0.000012 -0.000009 0.582905 -0.403452 0.521289
  8 10.965153 0.000065 -0.000006 0.000013 0.000002 -1.718922
  9 0.000007 -0.000004 -4.044200 0.166244 3.115970 -0.186076
 10 -0.000007 0.000007 4.044200 -0.012329 -3.119713 -0.289731
 11 17.182070 0.000091 0.000546 0.000004 -0.000009 -0.792659
 12 16.782913 0.000650 -0.000234 0.096634 0.033427 -0.191672
 13 5.168527 5.004116 -0.000135 0.000010 0.000000 1.570793
 14 17.182070 0.000099 0.000206 -0.000001 -0.000007 -0.849563
 15 16.782906 0.000656 -0.000113 -0.071378 -0.085494 -0.442143
 16 5.168479 5.004167 -0.000064 0.000011 -0.000001 1.570802
 17 -2.318478 -0.706428 3.047498 -0.861056 -1.156814 4.161859
 18 5.760273 0.000016 0.000006 -0.192004 0.579017 0.231431
time 37
  0 -0.013891 0.013891 3.611328 -0.167335 1.350996 -1.696906
  1 0.000000 0.000000 0.000000 -1.570796 -1.570796 0.000000
  2 4.484989 -0.004008 0.000006 0.098332 0.050361 -0.049491
  3 5.037136 -0.005101 -0.000238 0.098357 0.050366 -0.052945
  4 6.388059 -0.005253 -0.000001 0.098382 0.050379 -0.052985
  5 6.146608 1.394838 0.000001 0.021949 -0.044385 -0.217493
  6 -2.556763 -0.839230 -2.828728 0.834742 1.079451 4.147491
  7 5.760270 -0.000012 -0.000009 0.793788 -0.209174 0.477705
  8 10.965153 0.000065 -0.000006 0.000013 0.000002 -1.649955
  9 0.000007 -0.000004 -4.044200 0.151066 3.120651 -0.160567
 10 -0.000007 0.000007 4.044200 -0.006291 -3.129359 -0.291165
 11 17.182070 0.000091 0.000546 0.000004 -0.000009 -0.821052
 12 16.782913 0.000650 -0.000234 0.102103 0.036485 -0.250021
 13 5.168527 5.004116 -0.000135 0.000010 0.000000 1.570793
 14 17.182070 0.000099 0.000206 -0.000001 -0.000007 -0.815915
 15 16.782906 0.000656 -0.000113 -0.051991 -0.049822 -0.385918
 16 5.168479 5.004167 -0.000064 0.000011 -0.000001 1.570802
 17 -2.291133 -0.706428 3.070936 -0.964470 -1.161089 4.264323
 18 5.760273 0.000016 0.000006 -0.429281 0.438425 0.074203
time 38
  0 -0.045142 0.045142 3.611328 -0.084528 1.350502 -1.620949
  1 0.000000 0.000000 0.000000 -1.570796 -1.570796 0.000000
  2 4.484989 -0.004008 0.000006 0.103629 0.054149 -0.049166
  3 5.037136 -0.005101 -0.000238 0.103560 0.054141 -0.052583
  4 6.388059 -0.005253 -0.000001 0.103655 0.054052 -0.052633
  5 6.146608 1.394838 0.000001 0.021949 -0.052616 -0.217612
  6 -2.576294 -0.839230 -2.805290 0.874173 1.089260 4.193370
  7 5.760270 -0.000012 -0.000009 0.924416 0.025628 0.452932
  8 10.965153 0.000065 -0.000006 0.000013 0.000002 -1.483108
  9 0.000007 -0.000004 -4.044200 0.134274 3.125237 -0.133720
 10 -0.000007 0.000007 4.044200 -0.000732 -3.139557 -0.290687
 11 17.182070 0.000091 0.000546 0.000004 -0.000009 -0.847582
 12 16.782913 0.000650 -0.000234 0.108921 0.041729 -0.309049
 13 5.168527 5.004116 -0.000135 0.000010 0.000000 1.570793
 14 17.182070 0.000099 0.000206 -0.000001 -0.000007 -0.781172
 15 16.782906 0.000656 -0.000113 -0.024537 -0.013533 -0.322392
 16 5.168479 5.004167 -0.000064 0.000011 -0.000001 1.570802
 17 -2.267695 -0.706428 3.090468 -1.055154 -1.173883 4.357205
 18 5.760273 0.000016 0.000006 -0.590882 0.251536 -0.065201
time 39
  0 -0.076393 0.076393 3.611328 0.006120 1.348328 -1.537293
  1 0.000000 0.000000 0.000000 -1.570796 -1.570796 0.000000
  2 4.484989 -0.004008 0.000006 0.106391 0.056962 -0.048873
  3 5.037136 -0.005101 -0.000238 0.106366 0.056979 -0.052341
  4 6.388059 -0.005253 -0.000001 0.106351 0.056926 -0.052369
  5 6.146608 1.394838 0.000001 0.021949 -0.060828 -0.217890
  6 -2.595826 -0.839230 -2.785758 0.885317 1.099280 4.209776
  7 5.760270 -0.000012 -0.000009 0.958247 0.188982 0.429586
  8 10.965153 0.000065 -0.000006 0.000013 0.000002 -1.307965
  9 0.000007 -0.000004 -4.044200 0.116060 3.129058 -0.105918
 10 -0.000007 0.000007 4.044200 0.004156 -3.149755 -0.289731
 11 17.182070 0.000091 0.000546 0.000004 -0.000009 -0.872176
 12 16.782913 0.000650 -0.000234 0.116499 0.049438 -0.368145
 13 5.168527 5.004116 -0.000135 0.000010 0.000000 1.570793
 14 17.182070 0.000099 0.000206 -0.000001 -0.000007 -0.746496
 15 16.782906 0.000656 -0.000113 0.012595 0.021460 -0.253485
 16 5.168479 5.004167 -0.000064 0.000011 -0.000001 1.570802
 17 -2.236444 -0.706428 3.110000 -1.115487 -1.187336 4.420012
 18 5.760273 0.000016 0.000006 -0.642803 0.123587 -0.157463
time 40
  0 -0.111550 0.111550 3.611328 0.099923 1.344276 -1.451759
  1 0.000000 0.000000 0.000000 -1.570796 -1.570796 0.000000
  2 4.484989 -0.004008 0.000006 0.106229 0.058911 -0.048808
  3 5.037136 -0.005101 -0.000238 0.106213 0.058896 -0.052220
  4 6.388059 -0.005253 -0.000001 0.106195 0.058848 -0.052246
  5 6.146608 1.394838 0.000001 0.021949 -0.069079 -0.218009
  6 -2.619265 -0.839230 -2.766226 0.883888 1.109326 4.213687
  7 5.760270 -0.000012 -0.000009 0.953006 0.317831 0.395790
  8 10.965153 0.000065 -0.000006 0.000013 0.000002 -1.142295
  9 0.000007 -0.000004 -4.044200 0.096991 3.132115 -0.077256
 10 -0.000007 0.000007 4.044200 0.007990 -3.159401 -0.287341
 11 17.182070 0.000091 0.000546 0.000004 -0.000009 -0.894833
 12 16.782913 0.000650 -0.000234 0.124028 0.059519 -0.425509
 13 5.168527 5.004116 -0.000135 0.000010 0.000000 1.570793
 14 17.182070 0.000099 0.000206 -0.000001 -0.000007 -0.712918
 15 16.782906 0.000656 -0.000113 0.059013 0.052362 -0.181492
 16 5.168479 5.004167 -0.000064 0.000011 -0.000001 1.570802
 17 -2.216913 -0.706428 3.121719 -1.164473 -1.201042 4.470865
 18 5.760273 0.000016 0.000006 -0.656988 0.022580 -0.227188
time 41
  0 -0.150614 0.150614 3.611328 0.190666 1.338297 -1.368385
  1 0.000000 0.000000 0.000000 -1.570796 -1.570796 0.000000
  2 4.484989 -0.004008 0.000006 0.103272 0.060174 -0.048840
  3 5.037136 -0.005101 -0.000238 0.103237 0.060169 -0.052250
  4 6.388059 -0.005253 -0.000001 0.103223 0.060181 -0.052281
  5 6.146608 1.394838 0.000001 0.021968 -0.077331 -0.218247
  6 -2.646609 -0.839230 -2.742788 0.870649 1.120322 4.205007
  7 5.760270 -0.000012 -0.000009 0.926254 0.413200 0.353940
  8 10.965153 0.000065 -0.000006 0.000013 0.000002 -1.011232
  9 0.000007 -0.000004 -4.044200 0.077354 3.134981 -0.048308
 10 -0.000007 0.000007 4.044200 0.010769 -3.168220 -0.284187
 11 17.182070 0.000091 0.000546 0.000004 -0.000009 -0.916057
 12 16.782913 0.000650 -0.000234 0.130821 0.071417 -0.480224
 13 5.168527 5.004116 -0.000135 0.000010 0.000000 1.570793
 14 17.182070 0.000099 0.000206 -0.000001 -0.000007 -0.680435
 15 16.782906 0.000656 -0.000113 0.113254 0.076911 -0.109461
 16 5.168479 5.004167 -0.000064 0.000011 -0.000001 1.570802
 17 -2.185662 -0.706428 3.145157 -1.203588 -1.216319 4.511662
 18 5.760273 0.000016 0.000006 -0.652848 -0.052263 -0.274419
time 42
  0 -0.181865 0.181865 3.611328 0.274142 1.331083 -1.292897
  1 0.000000 0.000000 0.000000 -1.570796 -1.570796 0.000000
  2 4.484989 -0.004008 0.000006 0.097942 0.060829 -0.048905
  3 5.037136 -0.005101 -0.000238 0.097931 0.060842 -0.052371
  4 6.388059 -0.005253 -0.000001 0.097890 0.060847 -0.052422
  5 6.146608 1.394838 0.000001 0.021968 -0.085582 -0.218406
  6 -2.670047 -0.839230 -2.723256 0.846076 1.132794 4.184404
  7 5.760270 -0.000012 -0.000009 0.890653 0.477959 0.311580
  8 10.965153 0.000065 -0.000006 0.000013 0.000002 -0.929696
  9 0.000007 -0.000004 -4.044200 0.059044 3.136701 -0.018977
 10 -0.000007 0.000007 4.044200 0.012878 -3.175754 -0.279695
 11 17.182070 0.000091 0.000546 0.000004 -0.000009 -0.935560
 12 16.782913 0.000650 -0.000234 0.136241 0.084593 -0.531066
 13 5.168527 5.004116 -0.000135 0.000010 0.000000 1.570793
 14 17.182070 0.000099 0.000206 -0.000001 -0.000007 -0.649187
 15 16.782906 0.000656 -0.000113 0.172375 0.093647 -0.041081
 16 5.168479 5.004167 -0.000064 0.000011 -0.000001 1.570802
 17 -2.170036 -0.706428 3.164689 -1.234676 -1.234110 4.545532
 18 5.760273 0.000016 0.000006 -0.641853 -0.104736 -0.296508
time 43
  0 -0.205303 0.205303 3.611328 0.346622 1.323078 -1.227362
  1 0.000000 0.000000 0.000000 -1.570796 -1.570796 0.000000
  2 4.484989 -0.004008 0.000006 0.090695 0.060989 -0.049166
  3 5.037136 -0.005101 -0.000238 0.090636 0.061018 -0.052613
  4 6.388059 -0.005253 -0.000001 0.090639 0.060999 -0.052633
  5 6.146608 1.394838 0.000001 0.021987 -0.093833 -0.218525
  6 -2.693485 -0.839230 -2.699818 0.810169 1.147270 4.152546
  7 5.760270 -0.000012 -0.000009 0.856277 0.518365 0.277121
  8 10.965153 0.000065 -0.000006 0.000013 0.000002 -0.902456
  9 0.000007 -0.000004 -4.044200 0.040830 3.138421 0.009781
 10 -0.000007 0.000007 4.044200 0.014028 -3.181817 -0.274820
 11 17.182070 0.000091 0.000546 0.000004 -0.000009 -0.953413
 12 16.782913 0.000650 -0.000234 0.140067 0.098306 -0.576985
 13 5.168527 5.004116 -0.000135 0.000010 0.000000 1.570793
 14 17.182070 0.000099 0.000206 -0.000001 -0.000007 -0.618897
 15 16.782906 0.000656 -0.000113 0.234000 0.102858 0.019434
 16 5.168479 5.004167 -0.000064 0.000011 -0.000001 1.570802
 17 -2.146598 -0.706428 3.184221 -1.260230 -1.255328 4.573615
 18 5.760273 0.000016 0.000006 -0.630722 -0.140285 -0.292198
time 44
  0 -0.236554 0.236554 3.611328 0.407245 1.315073 -1.173469
  1 0.000000 0.000000 0.000000 -1.570796 -1.570796 0.000000
  2 4.484989 -0.004008 0.000006 0.081954 0.060813 -0.049491
  3 5.037136 -0.005101 -0.000238 0.081946 0.060842 -0.052885
  4 6.388059 -0.005253 -0.000001 0.081999 0.060828 -0.052932
  5 6.146608 1.394838 0.000001 0.021987 -0.102065 -0.218803
  6 -2.713017 -0.839230 -2.680286 0.762642 1.164146 4.108479
  7 5.760270 -0.000012 -0.000009 0.826735 0.545079 0.254743
  8 10.965153 0.000065 -0.000006 0.000013 0.000002 -0.919605
  9 0.000007 -0.000004 -4.044200 0.022900 3.140045 0.038538
 10 -0.000007 0.000007 4.044200 -0.012425 -3.170609 -0.264211
 11 17.182070 0.000091 0.000546 0.000004 -0.000009 -0.958432
 12 16.782913 0.000650 -0.000234 0.151520 0.129420 -0.587853
 13 5.168527 5.004116 -0.000135 0.000010 0.000000 1.570793
 14 17.182070 0.000099 0.000206 -0.000001 -0.000007 -0.589499
 15 16.782906 0.000656 -0.000113 0.295073 0.105962 0.068057
 16 5.168479 5.004167 -0.000064 0.000011 -0.000001 1.570802
 17 -2.119253 -0.706428 3.195940 -1.282924 -1.280538 4.599326
 18 5.760273 0.000016 0.000006 -0.622238 -0.168637 -0.264766
time 45
  0 -0.259992 0.259992 3.611328 0.455724 1.307661 -1.129998
  1 0.000000 0.000000 0.000000 -1.570796 -1.570796 0.000000
  2 4.484989 -0.004008 0.000006 0.072204 0.060350 -0.049784
  3 5.037136 -0.005101 -0.000238 0.072202 0.060374 -0.053247
  4 6.388059 -0.005253 -0.000001 0.072147 0.060371 -0.053284
  5 6.146608 1.394838 0.000001 0.022006 -0.110316 -0.218922
  6 -2.736455 -0.831417 -2.656848 0.702638 1.183632 4.052204
  7 5.760270 -0.000012 -0.000009 0.803114 0.571439 0.242408
  8 10.965153 0.000065 -0.000006 0.000013 0.000002 -0.960713
  9 0.000007 -0.000004 -4.044200 0.008195 3.140714 0.066532
 10 -0.000007 0.000007 4.044200 -0.049229 -3.151776 -0.246146
 11 17.182070 0.000091 0.000546 0.000004 -0.000009 -0.946387
 12 16.782913 0.000650 -0.000234 0.160128 0.154605 -0.555316
 13 5.168527 5.004116 -0.000135 0.000010 0.000000 1.570793
 14 17.182070 0.000099 0.000206 -0.000001 -0.000007 -0.560717
 15 16.782906 0.000656 -0.000113 0.351038 0.104934 0.100648
 16 5.168479 5.004167 -0.000064 0.000011 -0.000001 1.570802
 17 -2.095815 -0.706428 3.219378 -1.306633 -1.310275 4.627219
 18 5.760273 0.000016 0.000006 -0.617216 -0.200345 -0.220723
time 46
  0 -0.279524 0.279524 3.611328 0.493016 1.301287 -1.097419
  1 0.000000 0.000000 0.000000 -1.570796 -1.570796 0.000000
  2 4.484989 -0.004008 0.000006 0.061870 0.059775 -0.050143
  3 5.037136 -0.005101 -0.000238 0.061862 0.059730 -0.053610
  4 6.388059 -0.005253 -0.000001 0.061829 0.059762 -0.053636
  5 6.146608 1.394838 0.000001 0.022025 -0.118548 -0.219160
  6 -2.755987 -0.831417 -2.629503 0.628157 1.205913 3.981048
  7 5.760270 -0.000012 -0.000009 0.784191 0.610901 0.235832
  8 10.965153 0.000065 -0.000006 0.000013 0.000002 -0.999840
  9 0.000007 -0.000004 -4.044200 -0.005086 3.141096 0.092996
 10 -0.000007 0.000007 4.044200 -0.069932 -3.140751 -0.224258
 11 17.182070 0.000091 0.000546 0.000004 -0.000009 -0.926884
 12 16.782913 0.000650 -0.000234 0.156989 0.155346 -0.506443
 13 5.168527 5.004116 -0.000135 0.000010 0.000000 1.570793
 14 17.182070 0.000099 0.000206 -0.000001 -0.000007 -0.533032
 15 16.782906 0.000656 -0.000113 0.401083 0.103290 0.114384
 16 5.168479 5.004167 -0.000064 0.000011 -0.000001 1.570802
 17 -2.076283 -0.706428 3.227191 -1.337814 -1.345010 4.663936
 18 5.760273 0.000016 0.000006 -0.616537 -0.246447 -0.169136
time 47
  0 -0.291243 0.291243 3.611328 0.520172 1.296296 -1.073101
  1 0.000000 0.000000 0.000000 -1.570796 -1.570796 0.000000
  2 4.484989 -0.004008 0.000006 0.051341 0.059119 -0.050501
  3 5.037136 -0.005101 -0.000238 0.051318 0.059145 -0.053972
  4 6.388059 -0.005253 -0.000001 0.051378 0.059153 -0.054023
  5 6.146608 1.394838 0.000001 0.022025 -0.126759 -0.219319
  6 -2.775519 -0.831417 -2.606065 0.535007 1.230963 3.891198
  7 5.760270 -0.000012 -0.000009 0.766832 0.675463 0.228186
  8 10.965153 0.000065 -0.000006 0.000013 0.000002 -1.009189
  9 0.000007 -0.000004 -4.044200 -0.014098 3.136032 0.090608
 10 -0.000007 0.000007 4.044200 -0.091114 -3.129543 -0.201032
 11 17.182070 0.000091 0.000546 0.000004 -0.000009 -0.903509
 12 16.782913 0.000650 -0.000234 0.153310 0.149805 -0.449894
 13 5.168527 5.004116 -0.000135 0.000010 0.000000 1.570793
 14 17.182070 0.000099 0.000206 -0.000001 -0.000007 -0.577849
 15 16.782906 0.000656 -0.000113 0.450949 0.116983 0.063917
 16 5.168479 5.004167 -0.000064 0.000011 -0.000001 1.570802
 17 -2.045032 -0.706428 3.250629 -1.388645 -1.384963 4.720860
 18 5.760273 0.000016 0.000006 -0.618166 -0.316816 -0.119346
time 48
  0 -0.299056 0.299056 3.611328 0.538531 1.292689 -1.057421
  1 0.000000 0.000000 0.000000 -1.570796 -1.570796 0.000000
  2 4.484989 -0.004008 0.000006 0.041137 0.058528 -0.050891
  3 5.037136 -0.005101 -0.000238 0.041166 0.058574 -0.054305
  4 6.388059 -0.005253 -0.000001 0.041095 0.058582 -0.054375
  5 6.146608 1.394838 0.000001 0.022044 -0.134951 -0.219438
  6 -2.798957 -0.831417 -2.586533 0.418047 1.258333 3.776643
  7 5.760270 -0.000012 -0.000009 0.741646 0.775946 0.206573
  8 10.965153 0.000065 -0.000006 0.000013 0.000002 -0.951984
  9 0.000007 -0.000004 -4.044200 -0.014478 3.128963 0.090799
 10 -0.000007 0.000007 4.044200 -0.108845 -3.119805 -0.176945
 11 17.182070 0.000091 0.000546 0.000004 -0.000009 -0.877697
 12 16.782913 0.000650 -0.000234 0.145438 0.136444 -0.390357
 13 5.168527 5.004116 -0.000135 0.000010 0.000000 1.570793
 14 17.182070 0.000099 0.000206 -0.000001 -0.000007 -0.616910
 15 16.782906 0.000656 -0.000113 0.492261 0.152490 -0.118869
 16 5.168479 5.004167 -0.000064 0.000011 -0.000001 1.570802
 17 -2.013781 -0.706428 3.270161 -1.489477 -1.429756 4.828638
 18 5.760273 0.000016 0.000006 -0.616605 -0.420498 -0.083833
time 49
  0 -0.299056 0.299056 3.611328 0.549240 1.290515 -1.048032
  1 0.000000 0.000000 0.000000 -1.570796 -1.570796 0.000000
  2 4.484989 -0.004008 0.000006 0.031681 0.058176 -0.051217
  3 5.037136 -0.005101 -0.000238 0.031677 0.058135 -0.054607
  4 6.388059 -0.005253 -0.000001 0.031627 0.058087 -0.054674
  5 6.146608 1.394838 0.000001 0.022063 -0.143123 -0.219716
  6 -2.818489 -0.831417 -2.563095 0.266894 1.286785 3.627083
  7 5.760270 -0.000012 -0.000009 0.667790 0.925255 0.128837
  8 10.965153 0.000065 -0.000006 0.000013 0.000002 -0.763716
  9 0.000007 -0.000004 -4.044200 -0.013529 3.121797 0.092996
 10 -0.000007 0.000007 4.044200 -0.120729 -3.113007 -0.151999
 11 17.182070 0.000091 0.000546 0.000004 -0.000009 -0.850020
 12 16.782913 0.000650 -0.000234 0.129399 0.115299 -0.331804
 13 5.168527 5.004116 -0.000135 0.000010 0.000000 1.570793
 14 17.182070 0.000099 0.000206 -0.000001 -0.000007 -0.649940
 15 16.782906 0.000656 -0.000113 0.517926 0.196715 -0.326720
 16 5.168479 5.004167 -0.000064 0.000011 -0.000001 1.570802
 17 -1.990343 -0.706428 3.281880 -1.737081 -1.476530 5.084041
 18 5.760273 0.000016 0.000006 -0.588235 -0.568726 -0.091914
time 50
  0 -0.310775 0.310775 3.611328 0.552587 1.289823 -1.044746
  1 0.000000 0.000000 0.000000 -1.570796 -1.570796 0.000000
  2 4.484989 -0.004008 0.000006 0.023394 0.058048 -0.051412
  3 5.037136 -0.005101 -0.000238 0.023412 0.058062 -0.054879
  4 6.388059 -0.005253 -0.000001 0.023430 0.058068 -0.054938
  5 6.146608 1.394838 0.000001 0.022082 -0.151276 -0.219835
  6 -2.841928 -0.831417 -2.535750 0.068023 1.313733 3.428115
  7 5.760270 -0.000012 -0.000009 0.569495 1.068819 0.045035
  8 10.965153 0.000065 -0.000006 0.000013 0.000002 -0.586778
  9 0.000007 -0.000004 -4.044200 -0.012296 3.127530 -0.011238
 10 -0.000007 0.000007 4.044200 -0.123030 -3.110710 -0.127912
 11 17.182070 0.000091 0.000546 0.000004 -0.000009 -0.822056
 12 16.782913 0.000650 -0.000234 0.100240 0.086650 -0.278142
 13 5.168527 5.004116 -0.000135 0.000010 0.000000 1.570793
 14 17.182070 0.000099 0.000206 -0.000001 -0.000007 -0.748141
 15 16.782906 0.000656 -0.000113 0.458220 -0.010120 -0.127262
 16 5.168479 5.004167 -0.000064 0.000011 -0.000001 1.570802
 17 -1.959092 -0.706428 3.301412 -2.456924 -1.507964 -0.471254
 18 5.760273 0.000016 0.000006 -0.546833 -0.713063 -0.092498
end
