version 1
nodes
  0 "Bip01"  -1
  1 "Bip01 Pelvis"   0
  2 "Bip01 Spine"   1
  3 "Bip01 Spine1"   2
  4 "Bip01 Spine2"   3
  5 "Bip01 Neck"   4
  6 "Bip01 R Clavicle"   5
  7 "Bip01 R UpperArm"   6
  8 "Bip01 R Forearm"   7
  9 "Bip01 R Thigh"   1
 10 "Bip01 L Thigh"   1
 11 "Bip01 L Calf"  10
 12 "Bip01 L Foot"  11
 13 "Bip01 L Toe0"  12
 14 "Bip01 R Calf"   9
 15 "Bip01 R Foot"  14
 16 "Bip01 R Toe0"  15
 17 "Bip01 L Clavicle"   5
 18 "Bip01 L UpperArm"  17
end
skeleton
time 0
  0 0.013454 -0.013454 -1.009907 -0.023714 0.337737 -1.751362
  1 0.000000 0.000000 0.000000 -1.739980 -1.640491 0.171721
  2 4.484989 -0.004008 0.000006 -0.030584 -0.404885 0.438986
  3 5.314488 -1.395768 1.878726 0.272156 0.475975 -0.344690
  4 6.388059 -0.005253 -0.000001 -0.176749 -0.350235 0.040069
  5 6.146608 1.394838 0.000001 0.131757 -0.098088 0.634532
  6 -2.966931 -0.292338 -4.668628 1.507169 1.209710 4.417329
  7 7.092342 -0.250020 0.343751 -0.387512 -0.674017 0.246689
  8 11.363603 0.164133 -0.027351 -0.287419 0.027250 -2.127403
  9 0.000007 -0.000004 -4.044200 -0.144826 2.982410 -0.619350
 10 -0.000007 0.000007 4.044200 -0.110091 -2.969414 -0.823933
 11 17.182070 0.000091 0.000546 -0.055389 -0.031109 -0.515748
 12 16.786819 0.000650 -0.000234 -0.215536 -0.147329 -0.028887
 13 5.168527 5.004116 -0.000135 -0.046062 0.015675 2.252249
 14 17.182070 0.000099 0.000206 -0.130609 0.221828 -0.877659
 15 16.810249 0.035813 -0.004019 0.209132 -0.068100 0.376201
 16 5.168479 5.004167 -0.000064 0.158957 -0.099150 1.436913
 17 -2.170036 1.352229 2.953745 -0.101360 -1.282173 2.587697
 18 6.756397 0.050799 -2.230531 1.105825 0.851887 0.277360
time 1
  0 0.021267 -0.021267 -2.353698 -0.031746 0.379886 -1.754555
  1 0.000000 0.000000 0.000000 -1.739980 -1.640491 0.171721
  2 4.484989 -0.004008 0.000006 0.127872 -0.429562 0.403014
  3 5.345739 -1.552023 2.081857 0.317833 0.478390 -0.311632
  4 6.388059 -0.005253 -0.000001 0.056268 0.235241 0.020188
  5 6.146608 1.394838 0.000001 -0.134792 -0.367175 0.539735
  6 -2.943493 -0.429061 -4.668628 0.196127 1.409634 3.237350
  7 7.041559 -0.406274 0.359377 -0.447346 -0.704744 0.315097
  8 11.410479 0.179758 -0.027351 -0.202840 0.392400 -1.710688
  9 0.000007 -0.000004 -4.044200 -0.145395 2.981168 -0.611612
 10 -0.000007 0.000007 4.044200 -0.060635 -2.923204 -1.217249
 11 17.182070 0.000091 0.000546 -0.026338 -0.022600 -0.908098
 12 16.782913 0.000650 -0.000234 -0.213255 -0.143864 -0.082243
 13 5.168527 5.004116 -0.000135 -0.046062 0.015675 2.252249
 14 17.182070 0.000099 0.000206 -0.142234 0.203971 -0.971748
 15 16.829782 0.039720 -0.000113 0.198658 -0.050624 0.571934
 16 5.168479 5.004167 -0.000064 0.158957 -0.099150 1.436913
 17 -2.170036 1.352229 2.953745 -0.101360 -1.282173 2.587697
 18 6.756397 0.054705 -2.230531 1.105825 0.851887 0.277360
time 2
  0 0.021267 -0.021267 -3.486545 -0.040543 0.422035 -1.757559
  1 0.000000 0.000000 0.000000 -1.739980 -1.640491 0.171721
  2 4.484989 -0.004008 0.000006 0.288895 -0.448629 0.362842
  3 5.376990 -1.661402 2.230299 0.363630 0.479472 -0.278484
  4 6.388059 -0.005253 -0.000001 -0.026090 0.272069 0.172991
  5 6.146608 1.394838 0.000001 0.122298 -0.359339 0.178766
  6 -2.923961 -0.534533 -4.668628 -0.904995 1.172610 2.267594
  7 7.022027 -0.523465 0.367190 -0.511264 -0.732166 0.387532
  8 11.453449 0.191477 -0.035163 0.078545 0.679570 -1.165697
  9 0.000007 -0.000004 -4.044200 -0.146059 2.979926 -0.603777
 10 -0.000007 0.000007 4.044200 -0.067536 -2.927797 -1.169267
 11 17.182070 0.000091 0.000546 -0.035626 -0.026639 -0.777458
 12 16.782913 0.000650 -0.000234 -0.211146 -0.140306 -0.135463
 13 5.168527 5.004116 -0.000135 -0.046062 0.015675 2.252249
 14 17.182070 0.000099 0.000206 -0.152049 0.185119 -1.065357
 15 16.837595 0.047532 -0.004019 0.191762 -0.031441 0.767366
 16 5.168479 5.004167 -0.000064 0.158957 -0.099150 1.436913
 17 -2.170036 1.352229 2.953745 -0.101360 -1.282173 2.587697
 18 6.756397 0.054705 -2.234437 0.939134 0.372481 0.264699
time 3
  0 0.021267 -0.021267 -3.486545 -0.040543 0.422035 -1.757559
  1 0.000000 0.000000 0.000000 -1.739980 -1.640491 0.171721
  2 4.484989 -0.004008 0.000006 0.245349 -0.468480 0.379835
  3 5.376990 -1.680933 2.249831 0.363630 0.479472 -0.278484
  4 6.388059 -0.005253 -0.000001 -0.004950 0.232767 0.196725
  5 6.146608 1.394838 0.000001 0.122298 -0.359339 0.178766
  6 -2.916149 -0.557972 -4.656909 -0.904995 1.172610 2.267594
  7 7.006402 -0.542997 0.363283 -0.490843 -0.745228 0.339871
  8 11.461262 0.191477 -0.031257 0.078545 0.679570 -1.165697
  9 0.000007 -0.000004 -4.044200 -0.146059 2.979926 -0.603777
 10 -0.000007 0.000007 4.044200 -0.067536 -2.927797 -1.169267
 11 17.182070 0.000091 0.000546 -0.035626 -0.026639 -0.777458
 12 16.782913 0.000650 -0.000234 -0.211146 -0.140306 -0.135463
 13 5.168527 5.004116 -0.000135 -0.046062 0.015675 2.252249
 14 17.182070 0.000099 0.000206 -0.152049 0.185119 -1.065357
 15 16.837595 0.047532 -0.004019 0.191762 -0.031441 0.767366
 16 5.168479 5.004167 -0.000064 0.158957 -0.099150 1.436913
 17 -2.170036 1.352229 2.953745 0.731492 -1.744443 1.757923
 18 6.756397 0.054705 -2.230531 0.904248 0.330123 0.277405
time 4
  0 0.021267 -0.021267 -3.541234 -0.040543 0.422035 -1.757559
  1 0.000000 0.000000 0.000000 -1.739980 -1.640491 0.171721
  2 4.484989 -0.004008 0.000006 0.201023 -0.487643 0.398000
  3 5.376990 -1.680933 2.261550 0.363630 0.479472 -0.278484
  4 6.388059 -0.005253 -0.000001 0.015077 0.193008 0.219386
  5 6.146608 1.394838 0.000001 0.122298 -0.359339 0.178766
  6 -2.916149 -0.557972 -4.656909 -0.904995 1.172610 2.267594
  7 7.010308 -0.542997 0.367190 -0.468992 -0.757582 0.291292
  8 11.461262 0.191477 -0.031257 0.078545 0.679570 -1.165697
  9 0.000007 -0.000004 -4.044200 -0.146059 2.979926 -0.603777
 10 -0.000007 0.000007 4.044200 -0.067536 -2.927797 -1.169267
 11 17.182070 0.000091 0.000546 -0.035626 -0.026639 -0.777458
 12 16.786819 0.000650 -0.000234 -0.211146 -0.140306 -0.135463
 13 5.168527 5.004116 -0.000135 -0.046062 0.015675 2.252249
 14 17.182070 0.000099 0.000206 -0.152049 0.185119 -1.065357
 15 16.841501 0.047532 -0.004019 0.191762 -0.031441 0.767366
 16 5.168479 5.004167 -0.000064 0.158957 -0.099150 1.436913
 17 -2.170036 1.352229 2.953745 0.598925 -1.850187 1.878603
 18 6.756397 0.050799 -2.230531 0.905741 0.395630 0.278931
time 5
  0 0.021267 -0.021267 -3.611549 -0.040543 0.422035 -1.757559
  1 0.000000 0.000000 0.000000 -1.739980 -1.640491 0.171721
  2 4.484989 -0.004008 0.000006 0.155819 -0.506102 0.417273
  3 5.376990 -1.669214 2.249831 0.363630 0.479472 -0.278484
  4 6.388059 -0.005253 -0.000001 0.034024 0.152773 0.241096
  5 6.146608 1.394838 0.000001 0.122298 -0.359339 0.178766
  6 -2.923961 -0.546252 -4.656909 -0.904995 1.172610 2.267594
  7 7.010308 -0.535185 0.363283 -0.446325 -0.769110 0.241949
  8 11.453449 0.191477 -0.035163 0.078545 0.679570 -1.165697
  9 0.000007 -0.000004 -4.044200 -0.146059 2.979926 -0.603777
 10 -0.000007 0.000007 4.044200 -0.067536 -2.927797 -1.169267
 11 17.182070 0.000091 0.000546 -0.035626 -0.026639 -0.777458
 12 16.786819 0.000650 -0.000234 -0.211146 -0.140306 -0.135463
 13 5.168527 5.004116 -0.000135 -0.046062 0.015675 2.252249
 14 17.182070 0.000099 0.000206 -0.152049 0.185119 -1.065357
 15 16.841501 0.047532 -0.004019 0.191762 -0.031441 0.767366
 16 5.168479 5.004167 -0.000064 0.158957 -0.099150 1.436913
 17 -2.170036 1.352229 2.953745 2.031323 -1.653033 0.418576
 18 6.756397 0.054705 -2.230531 0.845743 0.372238 0.203505
time 6
  0 0.021267 -0.021267 -3.486545 -0.040543 0.422035 -1.757559
  1 0.000000 0.000000 0.000000 -1.739980 -1.640491 0.171721
  2 4.484989 -0.004008 0.000006 0.109771 -0.523747 0.437717
  3 5.376990 -1.661402 2.230299 0.363630 0.479472 -0.278484
  4 6.388059 -0.005253 -0.000001 0.052025 0.112196 0.261892
  5 6.146608 1.394838 0.000001 0.122298 -0.359339 0.178766
  6 -2.923961 -0.534533 -4.668628 -0.904995 1.172610 2.267594
  7 7.010308 -0.511746 0.367190 -0.422432 -0.779811 0.191433
  8 11.453449 0.191477 -0.035163 0.078545 0.679570 -1.165697
  9 0.000007 -0.000004 -4.044200 -0.146059 2.979926 -0.603777
 10 -0.000007 0.000007 4.044200 -0.067536 -2.927797 -1.169267
 11 17.182070 0.000091 0.000546 -0.035626 -0.026639 -0.777458
 12 16.782913 0.000650 -0.000234 -0.211146 -0.140306 -0.135463
 13 5.168527 5.004116 -0.000135 -0.046062 0.015675 2.252249
 14 17.182070 0.000099 0.000206 -0.152049 0.185119 -1.065357
 15 16.837595 0.047532 -0.004019 0.191762 -0.031441 0.767366
 16 5.168479 5.004167 -0.000064 0.158957 -0.099150 1.436913
 17 -2.170036 1.352229 2.953745 -0.101360 -1.282173 2.587697
 18 6.756397 0.054705 -2.234437 1.105825 0.851887 0.277360
time 7
  0 0.021267 -0.021267 -3.115440 -0.038344 0.411856 -1.757090
  1 0.000000 0.000000 0.000000 -1.739980 -1.640491 0.171721
  2 4.484989 -0.004008 0.000006 0.111103 -0.489592 0.418672
  3 5.369177 -1.637963 2.199048 0.352593 0.479341 -0.286431
  4 6.388059 -0.005253 -0.000001 0.046332 0.054756 0.229643
  5 6.146608 1.394838 0.000001 0.116801 -0.328135 0.235375
  6 -2.923961 -0.511095 -4.656909 -0.802988 1.247812 2.342088
  7 7.022027 -0.488308 0.355471 -0.467086 -0.739524 0.245058
  8 11.437823 0.195383 -0.027351 -0.043326 0.638714 -1.338363
  9 0.000007 -0.000004 -4.044200 -0.146059 2.979640 -0.602440
 10 -0.000007 0.000007 4.044200 -0.058431 -2.922010 -1.232064
 11 17.182070 0.000091 0.000546 -0.035075 -0.026411 -0.785417
 12 16.786819 0.000650 -0.000234 -0.212544 -0.142715 -0.099938
 13 5.168527 5.004116 -0.000135 -0.046062 0.015675 2.252249
 14 17.182070 0.000099 0.000206 -0.147915 0.193676 -1.023555
 15 16.833689 0.047532 -0.004019 0.193193 -0.036581 0.716146
 16 5.168479 5.004167 -0.000064 0.158957 -0.099150 1.436913
 17 -2.170036 1.352229 2.953745 -0.101360 -1.282173 2.587697
 18 6.756397 0.054705 -2.230531 1.285751 1.032503 0.388210
time 8
  0 0.021267 -0.021267 -2.619331 -0.036336 0.401776 -1.756245
  1 0.000000 0.000000 0.000000 -1.739980 -1.640491 0.171721
  2 4.484989 -0.004008 0.000006 0.111688 -0.455502 0.400051
  3 5.361365 -1.591087 2.152171 0.341624 0.479136 -0.294409
  4 6.388059 -0.005253 -0.000001 0.042485 -0.002779 0.197763
  5 6.146608 1.394838 0.000001 0.113200 -0.296673 0.291031
  6 -2.931774 -0.472031 -4.656909 -0.650121 1.319033 2.467802
  7 7.037653 -0.457057 0.355471 -0.507384 -0.697662 0.294503
  8 11.430011 0.183664 -0.023444 -0.151136 0.582532 -1.498028
  9 0.000007 -0.000004 -4.044200 -0.146059 2.979449 -0.601484
 10 -0.000007 0.000007 4.044200 -0.048942 -2.916681 -1.294574
 11 17.182070 0.000091 0.000546 -0.034488 -0.026195 -0.793376
 12 16.782913 0.000650 -0.000234 -0.213991 -0.145050 -0.064480
 13 5.168527 5.004116 -0.000135 -0.046062 0.015675 2.252249
 14 17.182070 0.000099 0.000206 -0.143385 0.202017 -0.981548
 15 16.837595 0.043626 -0.000113 0.194852 -0.041639 0.664889
 16 5.168479 5.004167 -0.000064 0.158957 -0.099150 1.436913
 17 -2.170036 1.352229 2.953745 -0.032909 -1.150087 2.287703
 18 6.756397 0.054705 -2.230531 1.462351 1.147272 0.526895
time 9
  0 0.021267 -0.021267 -2.060720 -0.034232 0.391597 -1.755494
  1 0.000000 0.000000 0.000000 -1.739980 -1.640491 0.171721
  2 4.484989 -0.004008 0.000006 0.111591 -0.421363 0.381723
  3 5.345739 -1.555930 2.093576 0.330673 0.478829 -0.302356
  4 6.388059 -0.005253 -0.000001 0.040520 -0.060428 0.166059
  5 6.146608 1.394838 0.000001 0.111475 -0.265072 0.346170
  6 -2.935680 -0.440781 -4.656909 -0.397437 1.381974 2.693287
  7 7.041559 -0.417994 0.355471 -0.543462 -0.654384 0.339922
  8 11.418291 0.179758 -0.027351 -0.243317 0.513555 -1.643888
  9 0.000007 -0.000004 -4.044200 -0.146154 2.979353 -0.600242
 10 -0.000007 0.000007 4.044200 -0.064756 -2.925960 -1.188766
 11 17.182070 0.000091 0.000546 -0.043368 -0.029096 -0.672845
 12 16.782913 0.000650 -0.000234 -0.215536 -0.147329 -0.028887
 13 5.168527 5.004116 -0.000135 -0.046062 0.015675 2.252249
 14 17.182070 0.000099 0.000206 -0.138495 0.210227 -0.939608
 15 16.837595 0.039720 -0.004019 0.196820 -0.046635 0.613670
 16 5.168479 5.004167 -0.000064 0.158957 -0.099150 1.436913
 17 -2.170036 1.352229 2.953745 -0.027097 -1.185922 2.337797
 18 6.756397 0.054705 -2.230531 0.562653 1.045341 -0.317924
time 10
  0 0.013454 -0.013454 -1.537267 -0.032224 0.381566 -1.754648
  1 0.000000 0.000000 0.000000 -1.739980 -1.640491 0.171721
  2 4.484989 -0.004008 0.000006 0.110811 -0.387208 0.363656
  3 5.341833 -1.520772 2.050606 0.319653 0.478477 -0.310333
  4 6.388059 -0.005253 -0.000001 0.040304 -0.118134 0.134302
  5 6.146608 1.394838 0.000001 0.111551 -0.233433 0.400794
  6 -2.947400 -0.409530 -4.668628 0.037069 1.425165 3.101238
  7 7.053278 -0.382836 0.355471 -0.576068 -0.609926 0.382026
  8 11.402666 0.183664 -0.027351 -0.320176 0.434220 -1.776808
  9 0.000007 -0.000004 -4.044200 -0.146154 2.979066 -0.599096
 10 -0.000007 0.000007 4.044200 -0.089388 -2.945620 -1.005728
 11 17.182070 0.000091 0.000546 -0.049349 -0.030342 -0.594332
 12 16.782913 0.000650 -0.000234 -0.215536 -0.147329 -0.028887
 13 5.168527 5.004116 -0.000135 -0.046062 0.015675 2.252249
 14 17.182070 0.000099 0.000206 -0.133246 0.218172 -0.897395
 15 16.833689 0.035813 -0.004019 0.199032 -0.051508 0.562413
 16 5.168479 5.004167 -0.000064 0.158957 -0.099150 1.436913
 17 -2.170036 1.352229 2.953745 -0.012890 -1.182150 2.308481
 18 6.756397 0.050799 -2.234437 0.561160 1.036539 -0.326409
time 11
  0 0.013454 -0.013454 -1.041158 -0.030503 0.372820 -1.753803
  1 0.000000 0.000000 0.000000 -1.739980 -1.640491 0.171721
  2 4.484989 -0.004008 0.000006 0.125890 -0.326587 0.180114
  3 5.337926 -1.489521 1.999823 0.380126 0.409357 -0.235758
  4 6.388059 -0.005253 -0.000001 0.041658 -0.168228 0.106539
  5 6.146608 1.394838 0.000001 0.113029 -0.206047 0.447835
  6 -2.947400 -0.374372 -4.668628 0.554533 1.422950 3.588358
  7 7.061091 -0.343773 0.351564 -0.510584 -0.535095 0.329319
  8 11.402666 0.171945 -0.027351 -0.319398 0.312704 -1.825284
  9 0.000007 -0.000004 -4.044200 -0.146818 2.977633 -0.589446
 10 -0.000007 0.000007 4.044200 -0.110091 -2.969414 -0.823933
 11 17.182070 0.000091 0.000546 -0.055389 -0.031109 -0.515748
 12 16.782913 0.000650 -0.000234 -0.215536 -0.147329 -0.028887
 13 5.168527 5.004116 -0.000135 -0.046062 0.015675 2.252249
 14 17.182070 0.000099 0.000206 -0.128068 0.225327 -0.858403
 15 16.825876 0.035813 -0.000113 0.200805 -0.054962 0.525193
 16 5.168479 5.004167 -0.000064 0.158957 -0.099150 1.436913
 17 -2.170036 1.352229 2.953745 0.034620 -1.171336 2.272713
 18 6.756397 0.050799 -2.234437 0.761040 1.019615 -0.139774
time 12
  0 0.013454 -0.013454 -0.896622 -0.028782 0.364074 -1.753146
  1 0.000000 0.000000 0.000000 -1.739980 -1.640491 0.171721
  2 4.484989 -0.004008 0.000006 0.129009 -0.264351 0.000935
  3 5.330114 -1.446551 1.945134 0.433371 0.336549 -0.167769
  4 6.388059 -0.005253 -0.000001 0.044475 -0.218188 0.078494
  5 6.146608 1.394838 0.000001 0.115815 -0.178760 0.494678
  6 -2.955212 -0.335309 -4.668628 0.965799 1.388777 3.968839
  7 7.068904 -0.308615 0.343751 -0.452247 -0.457667 0.284360
  8 11.383134 0.171945 -0.023444 -0.312647 0.191278 -1.872459
  9 0.000007 -0.000004 -4.044200 -0.146343 2.978875 -0.596994
 10 -0.000007 0.000007 4.044200 -0.110091 -2.969414 -0.823933
 11 17.182070 0.000091 0.000546 -0.055389 -0.031109 -0.515748
 12 16.782913 0.000650 -0.000234 -0.215536 -0.147329 -0.028887
 13 5.168527 5.004116 -0.000135 -0.046062 0.015675 2.252249
 14 17.182070 0.000099 0.000206 -0.128716 0.224452 -0.863200
 15 16.821970 0.035813 -0.004019 0.202724 -0.058375 0.487973
 16 5.168479 5.004167 -0.000064 0.158957 -0.099150 1.436913
 17 -2.170036 1.352229 2.953745 0.085174 -1.157474 2.228691
 18 6.756397 0.050799 -2.230531 0.816762 0.896481 -0.061430
time 13
  0 0.013454 -0.013454 -0.767712 -0.026965 0.355328 -1.752489
  1 0.000000 0.000000 0.000000 -1.739980 -1.640491 0.171721
  2 4.484989 -0.004008 0.000006 0.120690 -0.202626 -0.175281
  3 5.314488 -1.403581 1.890445 0.480103 0.260683 -0.105492
  4 6.388059 -0.005253 -0.000001 0.048717 -0.268072 0.049904
  5 6.146608 1.394838 0.000001 0.119872 -0.151632 0.541323
  6 -2.955212 -0.304058 -4.668628 1.227245 1.336278 4.199475
  7 7.072810 -0.281271 0.347658 -0.399696 -0.378154 0.245670
  8 11.367509 0.171945 -0.023444 -0.300289 0.070304 -1.919510
  9 0.000007 -0.000004 -4.044200 -0.145964 2.980022 -0.604637
 10 -0.000007 0.000007 4.044200 -0.110091 -2.969414 -0.823933
 11 17.182070 0.000091 0.000546 -0.055389 -0.031109 -0.515748
 12 16.786819 0.000650 -0.000234 -0.215536 -0.147329 -0.028887
 13 5.168527 5.004116 -0.000135 -0.046062 0.015675 2.252249
 14 17.182070 0.000099 0.000206 -0.129375 0.223589 -0.867997
 15 16.818064 0.035813 -0.004019 0.204741 -0.061706 0.450716
 16 5.168479 5.004167 -0.000064 0.158957 -0.099150 1.436913
 17 -2.170036 1.352229 2.953745 0.178164 -1.083918 2.077745
 18 6.756397 0.054705 -2.230531 0.791311 0.792411 -0.072339
time 14
  0 0.013454 -0.013454 -0.767712 -0.025244 0.346582 -1.752113
  1 0.000000 0.000000 0.000000 -1.739980 -1.640491 0.171721
  2 4.484989 -0.004008 0.000006 0.101679 -0.143203 -0.350228
  3 5.314488 -1.384049 1.870913 0.521206 0.182257 -0.047869
  4 6.388059 -0.005253 -0.000001 0.054578 -0.317785 0.020698
  5 6.146608 1.394838 0.000001 0.125198 -0.124721 0.587927
  6 -2.963025 -0.280619 -4.668628 1.393447 1.275156 4.334918
  7 7.084529 -0.257832 0.347658 -0.351775 -0.296988 0.212588
  8 11.367509 0.164133 -0.027351 -0.282253 -0.049827 -1.968109
  9 0.000007 -0.000004 -4.044200 -0.145300 2.981168 -0.611994
 10 -0.000007 0.000007 4.044200 -0.110091 -2.969414 -0.823933
 11 17.182070 0.000091 0.000546 -0.055389 -0.031109 -0.515748
 12 16.786819 0.000650 -0.000234 -0.215536 -0.147329 -0.028887
 13 5.168527 5.004116 -0.000135 -0.046062 0.015675 2.252249
 14 17.182070 0.000099 0.000206 -0.130010 0.222715 -0.872862
 15 16.814156 0.035813 -0.004019 0.206904 -0.064934 0.413459
 16 5.168479 5.004167 -0.000064 0.158957 -0.099150 1.436913
 17 -2.170036 1.352229 2.953745 0.195138 -1.126606 2.131255
 18 6.756397 0.050799 -2.234437 0.820970 0.638007 0.011842
time 15
  0 0.013454 -0.013454 -1.009907 -0.023714 0.337737 -1.751362
  1 0.000000 0.000000 0.000000 -1.739980 -1.640491 0.171721
  2 4.484989 -0.004008 0.000006 0.072724 -0.088032 -0.525110
  3 5.314488 -1.391862 1.878726 0.557224 0.101738 0.005827
  4 6.388059 -0.005253 -0.000001 0.062032 -0.367269 -0.009352
  5 6.146608 1.394838 0.000001 0.131757 -0.098088 0.634532
  6 -2.963025 -0.292338 -4.660815 1.507169 1.209710 4.417329
  7 7.092342 -0.250020 0.347658 -0.307460 -0.214485 0.184348
  8 11.367509 0.160226 -0.027351 -0.258110 -0.169055 -2.019618
  9 0.000007 -0.000004 -4.044200 -0.144826 2.982410 -0.619350
 10 -0.000007 0.000007 4.044200 -0.110091 -2.969414 -0.823933
 11 17.182070 0.000091 0.000546 -0.055389 -0.031109 -0.515748
 12 16.786819 0.000650 -0.000234 -0.215536 -0.147329 -0.028887
 13 5.168527 5.004116 -0.000135 -0.046062 0.015675 2.252249
 14 17.182070 0.000099 0.000206 -0.130609 0.221828 -0.877659
 15 16.810249 0.035813 -0.004019 0.209132 -0.068100 0.376201
 16 5.168479 5.004167 -0.000064 0.158957 -0.099150 1.436913
 17 -2.170036 1.352229 2.953745 -0.101360 -1.282173 2.587697
 18 6.756397 0.054705 -2.230531 0.751606 0.556842 -0.050475
time 16
  0 0.013454 -0.013454 -2.142754 -0.031746 0.379886 -1.754555
  1 0.000000 0.000000 0.000000 -1.739980 -1.640491 0.171721
  2 4.484989 -0.004008 0.000006 0.218896 -0.239770 -0.124822
  3 5.345739 -1.520772 2.038887 0.477263 0.297072 -0.122595
  4 6.388059 -0.005253 -0.000001 0.002852 -0.049580 0.089631
  5 6.146608 1.394838 0.000001 0.111721 -0.228169 0.409885
  6 -2.947400 -0.409530 -4.668628 0.153363 1.375171 3.222088
  7 7.053278 -0.375023 0.355471 -0.785658 -0.582425 0.388755
  8 11.402666 0.171945 -0.027351 -0.196735 0.287142 -1.656332
  9 0.000007 -0.000004 -4.044200 -0.145395 2.981168 -0.611612
 10 -0.000007 0.000007 4.044200 -0.064469 -2.925684 -1.190486
 11 17.182070 0.000091 0.000546 -0.027561 -0.023187 -0.890746
 12 16.782913 0.000650 -0.000234 -0.213255 -0.143864 -0.082243
 13 5.168527 5.004116 -0.000135 -0.046062 0.015675 2.252249
 14 17.182070 0.000099 0.000206 -0.142234 0.203971 -0.971748
 15 16.825876 0.039720 -0.004019 0.198658 -0.050624 0.571934
 16 5.168479 5.004167 -0.000064 0.158957 -0.099150 1.436913
 17 -2.170036 1.352229 2.953745 0.101318 -1.672585 2.348992
 18 6.756397 0.050799 -2.234437 0.743665 0.614080 -0.051418
time 17
  0 0.021267 -0.021267 -3.486545 -0.040543 0.422035 -1.757559
  1 0.000000 0.000000 0.000000 -1.739980 -1.640491 0.171721
  2 4.484989 -0.004008 0.000006 0.297312 -0.435603 0.273285
  3 5.376990 -1.661402 2.230299 0.363630 0.479472 -0.278484
  4 6.388059 -0.005253 -0.000001 -0.026090 0.272069 0.172991
  5 6.146608 1.394838 0.000001 0.122298 -0.359339 0.178766
  6 -2.923961 -0.534533 -4.668628 -0.815846 1.125042 2.412480
  7 7.018121 -0.523465 0.367190 -0.511264 -0.732166 0.387532
  8 11.449543 0.191477 -0.035163 0.078545 0.679570 -1.165697
  9 0.000007 -0.000004 -4.044200 -0.146059 2.979926 -0.603777
 10 -0.000007 0.000007 4.044200 -0.067536 -2.927797 -1.169267
 11 17.182070 0.000091 0.000546 -0.035626 -0.026639 -0.777458
 12 16.782913 0.000650 -0.000234 -0.211146 -0.140306 -0.135463
 13 5.168527 5.004116 -0.000135 -0.046062 0.015675 2.252249
 14 17.182070 0.000099 0.000206 -0.152049 0.185119 -1.065357
 15 16.837595 0.047532 -0.004019 0.191762 -0.031441 0.767366
 16 5.168479 5.004167 -0.000064 0.158957 -0.099150 1.436913
 17 -2.170036 1.352229 2.953745 0.156761 -1.909126 2.350510
 18 6.756397 0.054705 -2.230531 0.749299 0.472418 -0.037904
time 18
  0 0.021267 -0.021267 -3.486545 -0.040543 0.422035 -1.757559
  1 0.000000 0.000000 0.000000 -1.739980 -1.640491 0.171721
  2 4.484989 -0.004008 0.000006 0.289252 -0.444282 0.288553
  3 5.376990 -1.680933 2.261550 0.363630 0.479472 -0.278484
  4 6.388059 -0.005253 -0.000001 -0.026090 0.272069 0.172991
  5 6.146608 1.394838 0.000001 0.122298 -0.359339 0.178766
  6 -2.923961 -0.554065 -4.656909 -0.815846 1.125042 2.412480
  7 7.010308 -0.535185 0.367190 -0.511264 -0.732166 0.387532
  8 11.457355 0.191477 -0.035163 0.078545 0.679570 -1.165697
  9 0.000007 -0.000004 -4.044200 -0.146059 2.979926 -0.603777
 10 -0.000007 0.000007 4.044200 -0.067536 -2.927797 -1.169267
 11 17.182070 0.000091 0.000546 -0.035626 -0.026639 -0.777458
 12 16.782913 0.000650 -0.000234 -0.211146 -0.140306 -0.135463
 13 5.168527 5.004116 -0.000135 -0.046062 0.015675 2.252249
 14 17.182070 0.000099 0.000206 -0.152049 0.185119 -1.065357
 15 16.837595 0.047532 -0.004019 0.191762 -0.031441 0.767366
 16 5.168479 5.004167 -0.000064 0.158957 -0.099150 1.436913
 17 -2.170036 1.352229 2.953745 -3.055271 -0.914960 -0.521158
 18 6.756397 0.050799 -2.234437 0.904723 0.484770 -0.040014
time 19
  0 0.021267 -0.021267 -3.486545 -0.040543 0.422035 -1.757559
  1 0.000000 0.000000 0.000000 -1.739980 -1.640491 0.171721
  2 4.484989 -0.004008 0.000006 0.281031 -0.452817 0.303918
  3 5.376990 -1.680933 2.261550 0.363630 0.479472 -0.278484
  4 6.388059 -0.005253 -0.000001 -0.026090 0.272069 0.172991
  5 6.146608 1.394838 0.000001 0.122298 -0.359339 0.178766
  6 -2.923961 -0.554065 -4.656909 -0.815846 1.125042 2.412480
  7 7.014215 -0.535185 0.363283 -0.511264 -0.732166 0.387532
  8 11.453449 0.191477 -0.031257 0.078545 0.679570 -1.165697
  9 0.000007 -0.000004 -4.044200 -0.146059 2.979926 -0.603777
 10 -0.000007 0.000007 4.044200 -0.067536 -2.927797 -1.169267
 11 17.182070 0.000091 0.000546 -0.035626 -0.026639 -0.777458
 12 16.782913 0.000650 -0.000234 -0.211146 -0.140306 -0.135463
 13 5.168527 5.004116 -0.000135 -0.046062 0.015675 2.252249
 14 17.182070 0.000099 0.000206 -0.152049 0.185119 -1.065357
 15 16.837595 0.047532 -0.004019 0.191762 -0.031441 0.767366
 16 5.168479 5.004167 -0.000064 0.158957 -0.099150 1.436913
 17 -2.170036 1.352229 2.953745 -2.729344 -1.015738 5.656704
 18 6.752491 0.054705 -2.234437 0.862304 0.628670 0.047849
time 20
  0 0.021267 -0.021267 -3.486545 -0.040543 0.422035 -1.757559
  1 0.000000 0.000000 0.000000 -1.739980 -1.640491 0.171721
  2 4.484989 -0.004008 0.000006 0.272581 -0.461287 0.319447
  3 5.376990 -1.669214 2.238111 0.363630 0.479472 -0.278484
  4 6.388059 -0.005253 -0.000001 -0.026090 0.272069 0.172991
  5 6.146608 1.394838 0.000001 0.122298 -0.359339 0.178766
  6 -2.923961 -0.534533 -4.668628 -0.815846 1.125042 2.412480
  7 7.018121 -0.523465 0.367190 -0.511264 -0.732166 0.387532
  8 11.453449 0.191477 -0.031257 0.078545 0.679570 -1.165697
  9 0.000007 -0.000004 -4.044200 -0.146059 2.979926 -0.603777
 10 -0.000007 0.000007 4.044200 -0.067536 -2.927797 -1.169267
 11 17.182070 0.000091 0.000546 -0.035626 -0.026639 -0.777458
 12 16.782913 0.000650 -0.000234 -0.211146 -0.140306 -0.135463
 13 5.168527 5.004116 -0.000135 -0.046062 0.015675 2.252249
 14 17.182070 0.000099 0.000206 -0.152049 0.185119 -1.065357
 15 16.837595 0.047532 -0.004019 0.191762 -0.031441 0.767366
 16 5.168479 5.004167 -0.000064 0.158957 -0.099150 1.436913
 17 -2.170036 1.352229 2.953745 0.415621 -1.917896 2.231442
 18 6.756397 0.050799 -2.230531 0.804274 0.499846 0.060105
time 21
  0 0.021267 -0.021267 -3.486545 -0.040543 0.422035 -1.757559
  1 0.000000 0.000000 0.000000 -1.739980 -1.640491 0.171721
  2 4.484989 -0.004008 0.000006 0.264002 -0.469582 0.335138
  3 5.376990 -1.657495 2.230299 0.363630 0.479472 -0.278484
  4 6.388059 -0.005253 -0.000001 -0.026090 0.272069 0.172991
  5 6.146608 1.394838 0.000001 0.122298 -0.359339 0.178766
  6 -2.923961 -0.534533 -4.668628 -0.815846 1.125042 2.412480
  7 7.022027 -0.523465 0.367190 -0.511264 -0.732166 0.387532
  8 11.453449 0.191477 -0.035163 0.078545 0.679570 -1.165697
  9 0.000007 -0.000004 -4.044200 -0.146059 2.979926 -0.603777
 10 -0.000007 0.000007 4.044200 -0.067536 -2.927797 -1.169267
 11 17.182070 0.000091 0.000546 -0.035626 -0.026639 -0.777458
 12 16.782913 0.000650 -0.000234 -0.211146 -0.140306 -0.135463
 13 5.168527 5.004116 -0.000135 -0.046062 0.015675 2.252249
 14 17.182070 0.000099 0.000206 -0.152049 0.185119 -1.065357
 15 16.837595 0.047532 -0.004019 0.191762 -0.031441 0.767366
 16 5.168479 5.004167 -0.000064 0.158957 -0.099150 1.436913
 17 -2.170036 1.352229 2.953745 0.552615 -1.792128 2.062660
 18 6.756397 0.054705 -2.230531 0.765588 0.704583 0.021001
time 22
  0 0.021267 -0.021267 -3.525609 -0.040543 0.422035 -1.757559
  1 0.000000 0.000000 0.000000 -1.739980 -1.640491 0.171721
  2 4.484989 -0.004008 0.000006 0.230953 -0.473242 0.301998
  3 5.376990 -1.661402 2.238111 0.363630 0.479472 -0.278484
  4 6.388059 -0.005253 -0.000001 -0.004950 0.232767 0.196725
  5 6.146608 1.394838 0.000001 0.122298 -0.359339 0.178766
  6 -2.920055 -0.534533 -4.668628 -0.862135 1.139676 2.360973
  7 7.010308 -0.523465 0.355471 -0.644683 -0.785477 0.453289
  8 11.449543 0.191477 -0.035163 0.030495 0.760621 -1.219806
  9 0.000007 -0.000004 -4.044200 -0.146059 2.979926 -0.603777
 10 -0.000007 0.000007 4.044200 -0.067536 -2.927797 -1.169267
 11 17.182070 0.000091 0.000546 -0.035626 -0.026639 -0.777458
 12 16.786819 0.000650 -0.000234 -0.211146 -0.140306 -0.135463
 13 5.168527 5.004116 -0.000135 -0.046062 0.015675 2.252249
 14 17.182070 0.000099 0.000206 -0.152049 0.185119 -1.065357
 15 16.841501 0.047532 -0.004019 0.191762 -0.031441 0.767366
 16 5.168479 5.004167 -0.000064 0.158957 -0.099150 1.436913
 17 -2.170036 1.352229 2.953745 1.030481 -1.675099 1.535916
 18 6.756397 0.054705 -2.230531 0.724390 0.846975 -0.019137
time 23
  0 0.021267 -0.021267 -3.592017 -0.040543 0.422035 -1.757559
  1 0.000000 0.000000 0.000000 -1.739980 -1.640491 0.171721
  2 4.484989 -0.004008 0.000006 0.198033 -0.477813 0.268955
  3 5.376990 -1.669214 2.249831 0.363630 0.479472 -0.278484
  4 6.388059 -0.005253 -0.000001 0.015077 0.193008 0.219386
  5 6.146608 1.394838 0.000001 0.122298 -0.359339 0.178766
  6 -2.923961 -0.538440 -4.656909 -0.911567 1.153150 2.306224
  7 7.014215 -0.531278 0.367190 -0.789878 -0.831627 0.532248
  8 11.457355 0.203196 -0.035163 -0.028033 0.839444 -1.284068
  9 0.000007 -0.000004 -4.044200 -0.146059 2.979926 -0.603777
 10 -0.000007 0.000007 4.044200 -0.067536 -2.927797 -1.169267
 11 17.182070 0.000091 0.000546 -0.035626 -0.026639 -0.777458
 12 16.786819 0.000650 -0.000234 -0.211146 -0.140306 -0.135463
 13 5.168527 5.004116 -0.000135 -0.046062 0.015675 2.252249
 14 17.182070 0.000099 0.000206 -0.152049 0.185119 -1.065357
 15 16.841501 0.047532 -0.004019 0.191762 -0.031441 0.767366
 16 5.168479 5.004167 -0.000064 0.158957 -0.099150 1.436913
 17 -2.170036 1.352229 2.953745 -0.101360 -1.282173 2.587697
 18 6.756397 0.054705 -2.230531 0.666564 1.014266 -0.084192
time 24
  0 0.021267 -0.021267 -3.611549 -0.040543 0.422035 -1.757559
  1 0.000000 0.000000 0.000000 -1.739980 -1.640491 0.171721
  2 4.484989 -0.004008 0.000006 0.165179 -0.483407 0.235978
  3 5.376990 -1.669214 2.249831 0.363630 0.479472 -0.278484
  4 6.388059 -0.005253 -0.000001 0.034024 0.152773 0.241096
  5 6.146608 1.394838 0.000001 0.122298 -0.359339 0.178766
  6 -2.923961 -0.534533 -4.656909 -0.964237 1.165517 2.248231
  7 7.010308 -0.527372 0.359377 -0.947462 -0.869042 0.624665
  8 11.457355 0.203196 -0.035163 -0.100548 0.915136 -1.361951
  9 0.000007 -0.000004 -4.044200 -0.146059 2.979926 -0.603777
 10 -0.000007 0.000007 4.044200 -0.067536 -2.927797 -1.169267
 11 17.182070 0.000091 0.000546 -0.035626 -0.026639 -0.777458
 12 16.786819 0.000650 -0.000234 -0.211146 -0.140306 -0.135463
 13 5.168527 5.004116 -0.000135 -0.046062 0.015675 2.252249
 14 17.182070 0.000099 0.000206 -0.152049 0.185119 -1.065357
 15 16.841501 0.047532 -0.004019 0.191762 -0.031441 0.767366
 16 5.168479 5.004167 -0.000064 0.158957 -0.099150 1.436913
 17 -2.170036 1.352229 2.953745 -0.101360 -1.282173 2.587697
 18 6.756397 0.054705 -2.234437 0.648917 1.071213 -0.095955
time 25
  0 0.021267 -0.021267 -3.486545 -0.040543 0.422035 -1.757559
  1 0.000000 0.000000 0.000000 -1.739980 -1.640491 0.171721
  2 4.484989 -0.004008 0.000006 0.132454 -0.489912 0.203163
  3 5.376990 -1.661402 2.230299 0.363630 0.479472 -0.278484
  4 6.388059 -0.005253 -0.000001 0.052025 0.112196 0.261892
  5 6.146608 1.394838 0.000001 0.122298 -0.359339 0.178766
  6 -2.923961 -0.534533 -4.668628 -1.020431 1.176539 2.186995
  7 7.022027 -0.511746 0.359377 -1.116209 -0.896032 0.728958
  8 11.457355 0.203196 -0.035163 -0.191334 0.986552 -1.458097
  9 0.000007 -0.000004 -4.044200 -0.146059 2.979926 -0.603777
 10 -0.000007 0.000007 4.044200 -0.067536 -2.927797 -1.169267
 11 17.182070 0.000091 0.000546 -0.035626 -0.026639 -0.777458
 12 16.782913 0.000650 -0.000234 -0.211146 -0.140306 -0.135463
 13 5.168527 5.004116 -0.000135 -0.046062 0.015675 2.252249
 14 17.182070 0.000099 0.000206 -0.152049 0.185119 -1.065357
 15 16.837595 0.047532 -0.004019 0.191762 -0.031441 0.767366
 16 5.168479 5.004167 -0.000064 0.158957 -0.099150 1.436913
 17 -2.170036 1.352229 2.953745 -0.101360 -1.282173 2.587697
 18 6.756397 0.054705 -2.234437 0.627674 1.128014 -0.111534
time 26
  0 0.021267 -0.021267 -3.189661 -0.038822 0.413882 -1.757184
  1 0.000000 0.000000 0.000000 -1.739980 -1.640491 0.171721
  2 4.484989 -0.004008 0.000006 0.127189 -0.460137 0.214068
  3 5.369177 -1.637963 2.199048 0.352593 0.479341 -0.286431
  4 6.388059 -0.005253 -0.000001 0.046332 0.054756 0.229643
  5 6.146608 1.394838 0.000001 0.116801 -0.328135 0.235375
  6 -2.927868 -0.511095 -4.668628 -0.905662 1.253323 2.265686
  7 7.022027 -0.488308 0.359377 -0.982246 -0.844138 0.629252
  8 11.445636 0.203196 -0.027351 -0.255836 0.851698 -1.566067
  9 0.000007 -0.000004 -4.044200 -0.146059 2.979640 -0.602822
 10 -0.000007 0.000007 4.044200 -0.066961 -2.927430 -1.173186
 11 17.182070 0.000091 0.000546 -0.037160 -0.027178 -0.756521
 12 16.786819 0.000650 -0.000234 -0.211980 -0.141733 -0.114236
 13 5.168527 5.004116 -0.000135 -0.046062 0.015675 2.252249
 14 17.182070 0.000099 0.000206 -0.148778 0.191950 -1.031847
 15 16.837595 0.047532 -0.004019 0.192884 -0.035553 0.726420
 16 5.168479 5.004167 -0.000064 0.158957 -0.099150 1.436913
 17 -2.170036 1.352229 2.953745 -0.101360 -1.282173 2.587697
 18 6.756397 0.054705 -2.230531 0.627674 1.128014 -0.111534
time 27
  0 0.021267 -0.021267 -2.775586 -0.037005 0.405877 -1.756338
  1 0.000000 0.000000 0.000000 -1.739980 -1.640491 0.171721
  2 4.484989 -0.004008 0.000006 0.122315 -0.430313 0.224649
  3 5.361365 -1.594993 2.152171 0.341624 0.479136 -0.294409
  4 6.388059 -0.005253 -0.000001 0.042497 -0.002779 0.197763
  5 6.146608 1.394838 0.000001 0.113200 -0.296673 0.291031
  6 -2.935680 -0.472031 -4.668628 -0.732698 1.325467 2.402560
  7 7.033747 -0.457057 0.359377 -0.864143 -0.784572 0.546011
  8 11.430011 0.195383 -0.027351 -0.292775 0.713833 -1.648345
  9 0.000007 -0.000004 -4.044200 -0.146059 2.979544 -0.601771
 10 -0.000007 0.000007 4.044200 -0.066386 -2.927063 -1.177105
 11 17.182070 0.000091 0.000546 -0.038694 -0.027693 -0.735513
 12 16.782913 0.000650 -0.000234 -0.212839 -0.143178 -0.092907
 13 5.168527 5.004116 -0.000135 -0.046062 0.015675 2.252249
 14 17.182070 0.000099 0.000206 -0.145218 0.198709 -0.998406
 15 16.837595 0.047532 -0.004019 0.194169 -0.039624 0.685399
 16 5.168479 5.004167 -0.000064 0.158957 -0.099150 1.436913
 17 -2.170036 1.352229 2.953745 -0.101360 -1.282173 2.587697
 18 6.756397 0.050799 -2.234437 0.627674 1.128014 -0.111534
time 28
  0 0.021267 -0.021267 -2.322447 -0.035571 0.397724 -1.755681
  1 0.000000 0.000000 0.000000 -1.739980 -1.640491 0.171721
  2 4.484989 -0.004008 0.000006 0.117895 -0.400426 0.234936
  3 5.349646 -1.563742 2.101389 0.330673 0.478829 -0.302356
  4 6.388059 -0.005253 -0.000001 0.040520 -0.060428 0.166059
  5 6.146608 1.394838 0.000001 0.111475 -0.265072 0.346170
  6 -2.943493 -0.440781 -4.668628 -0.445154 1.387353 2.654275
  7 7.041559 -0.417994 0.359377 -0.759587 -0.719065 0.477298
  8 11.418291 0.195383 -0.027351 -0.312456 0.574373 -1.716694
  9 0.000007 -0.000004 -4.044200 -0.146059 2.979449 -0.600816
 10 -0.000007 0.000007 4.044200 -0.065811 -2.926695 -1.181024
 11 17.182070 0.000091 0.000546 -0.040240 -0.028221 -0.714576
 12 16.782913 0.000650 -0.000234 -0.213721 -0.144568 -0.071510
 13 5.168527 5.004116 -0.000135 -0.046062 0.015675 2.252249
 14 17.182070 0.000099 0.000206 -0.141455 0.205349 -0.964758
 15 16.837595 0.035813 -0.004019 0.195633 -0.043654 0.644416
 16 5.168479 5.004167 -0.000064 0.158957 -0.099150 1.436913
 17 -2.170036 1.352229 2.953745 -0.101360 -1.282173 2.587697
 18 6.752491 0.054705 -2.230531 0.627674 1.128014 -0.111534
time 29
  0 0.021267 -0.021267 -1.877121 -0.033754 0.389670 -1.755024
  1 0.000000 0.000000 0.000000 -1.739980 -1.640491 0.171721
  2 4.484989 -0.004008 0.000006 0.113801 -0.370523 0.244963
  3 5.341833 -1.516866 2.038887 0.319653 0.478463 -0.310333
  4 6.388059 -0.005253 -0.000001 0.040316 -0.118134 0.134302
  5 6.146608 1.394838 0.000001 0.111532 -0.233433 0.400794
  6 -2.947400 -0.405623 -4.668628 0.037069 1.425165 3.101334
  7 7.053278 -0.382836 0.355471 -0.666330 -0.648916 0.421175
  8 11.402666 0.179758 -0.027351 -0.320176 0.434220 -1.776808
  9 0.000007 -0.000004 -4.044200 -0.146154 2.979353 -0.599860
 10 -0.000007 0.000007 4.044200 -0.065331 -2.926327 -1.184847
 11 17.182070 0.000091 0.000546 -0.041798 -0.028652 -0.693639
 12 16.786819 0.000650 -0.000234 -0.214604 -0.145958 -0.050182
 13 5.168527 5.004116 -0.000135 -0.046062 0.015675 2.252249
 14 17.182070 0.000099 0.000206 -0.137452 0.211845 -0.931180
 15 16.837595 0.039720 -0.004019 0.197243 -0.047622 0.603396
 16 5.168479 5.004167 -0.000064 0.158957 -0.099150 1.436913
 17 -2.170036 1.352229 2.953745 -0.101360 -1.282173 2.587697
 18 6.756397 0.054705 -2.230531 0.627674 1.128014 -0.111534
time 30
  0 0.013454 -0.013454 -1.537267 -0.032224 0.381566 -1.754648
  1 0.000000 0.000000 0.000000 -1.739980 -1.640491 0.171721
  2 4.484989 -0.004008 0.000006 0.110129 -0.340555 0.254729
  3 5.337926 -1.489521 1.999823 0.308684 0.478024 -0.318280
  4 6.388059 -0.005253 -0.000001 0.042042 -0.175917 0.102281
  5 6.146608 1.394838 0.000001 0.113370 -0.201852 0.455021
  6 -2.955212 -0.374372 -4.668628 0.628538 1.419443 3.657510
  7 7.068904 -0.347679 0.359377 -0.582807 -0.575186 0.375655
  8 11.402666 0.183664 -0.027351 -0.318752 0.294007 -1.832651
  9 0.000007 -0.000004 -4.044200 -0.146154 2.979066 -0.599096
 10 -0.000007 0.000007 4.044200 -0.064756 -2.925960 -1.188766
 11 17.182070 0.000091 0.000546 -0.043368 -0.029096 -0.672845
 12 16.782913 0.000650 -0.000234 -0.215536 -0.147329 -0.028887
 13 5.168527 5.004116 -0.000135 -0.046062 0.015675 2.252249
 14 17.182070 0.000099 0.000206 -0.133246 0.218172 -0.897395
 15 16.833689 0.035813 -0.004019 0.199032 -0.051508 0.562413
 16 5.168479 5.004167 -0.000064 0.158957 -0.099150 1.436913
 17 -2.170036 1.352229 2.953745 -0.101360 -1.282173 2.587697
 18 6.756397 0.054705 -2.234437 0.627674 1.128014 -0.111534
time 31
  0 0.013454 -0.013454 -1.330229 -0.030025 0.370646 -1.753803
  1 0.000000 0.000000 0.000000 -1.739980 -1.640491 0.171721
  2 4.484989 -0.004008 0.000006 0.076494 -0.358887 0.299426
  3 5.330114 -1.462177 1.964666 0.299552 0.477585 -0.324897
  4 6.388059 -0.005253 -0.000001 -0.012824 -0.218207 0.083315
  5 6.146608 1.394838 0.000001 0.116214 -0.175634 0.500077
  6 -2.955212 -0.347028 -4.668628 1.002849 1.383424 4.002414
  7 7.068904 -0.316428 0.355471 -0.536587 -0.601743 0.346599
  8 11.387041 0.171945 -0.023444 -0.318356 0.226625 -1.907066
  9 0.000007 -0.000004 -4.044200 -0.145964 2.980022 -0.604064
 10 -0.000007 0.000007 4.044200 -0.077599 -2.935239 -1.097199
 11 17.182070 0.000091 0.000546 -0.046340 -0.029779 -0.633553
 12 16.782913 0.000650 -0.000234 -0.215536 -0.147329 -0.028887
 13 5.168527 5.004116 -0.000135 -0.046062 0.015675 2.252249
 14 17.182070 0.000099 0.000206 -0.132599 0.219083 -0.892461
 15 16.829782 0.035813 -0.004019 0.201244 -0.055805 0.515897
 16 5.168479 5.004167 -0.000064 0.158957 -0.099150 1.436913
 17 -2.170036 1.352229 2.953745 -0.101360 -1.282173 2.587697
 18 6.756397 0.050799 -2.230531 0.627674 1.128014 -0.111534
time 32
  0 0.013454 -0.013454 -1.209132 -0.027921 0.359676 -1.753052
  1 0.000000 0.000000 0.000000 -1.739980 -1.640491 0.171721
  2 4.484989 -0.004008 0.000006 0.041787 -0.375765 0.345067
  3 5.330114 -1.438738 1.933415 0.290420 0.477087 -0.331485
  4 6.388059 -0.005253 -0.000001 -0.067437 -0.261449 0.066583
  5 6.146608 1.394838 0.000001 0.120232 -0.149554 0.544975
  6 -2.955212 -0.331402 -4.668628 1.242579 1.331848 4.212733
  7 7.076716 -0.292990 0.355471 -0.488869 -0.627159 0.315250
  8 11.383134 0.171945 -0.027351 -0.312911 0.159454 -1.980615
  9 0.000007 -0.000004 -4.044200 -0.145490 2.980786 -0.609319
 10 -0.000007 0.000007 4.044200 -0.089388 -2.945620 -1.005728
 11 17.182070 0.000091 0.000546 -0.049349 -0.030342 -0.594332
 12 16.786819 0.000650 -0.000234 -0.215536 -0.147329 -0.028887
 13 5.168527 5.004116 -0.000135 -0.046062 0.015675 2.252249
 14 17.182070 0.000099 0.000206 -0.131927 0.219994 -0.887527
 15 16.821970 0.035813 -0.004019 0.203716 -0.060020 0.469345
 16 5.168479 5.004167 -0.000064 0.158957 -0.099150 1.436913
 17 -2.170036 1.352229 2.953745 -0.101360 -1.282173 2.587697
 18 6.752491 0.050799 -2.230531 0.627674 1.128014 -0.111534
time 33
  0 0.013454 -0.013454 -1.115379 -0.025722 0.348756 -1.752113
  1 0.000000 0.000000 0.000000 -1.739980 -1.640491 0.171721
  2 4.484989 -0.004008 0.000006 0.006040 -0.391092 0.391587
  3 5.326207 -1.411394 1.902164 0.281288 0.476590 -0.338102
  4 6.388059 -0.005253 -0.000001 -0.121991 -0.305528 0.052121
  5 6.146608 1.394838 0.000001 0.125426 -0.123692 0.589753
  6 -2.955212 -0.311870 -4.668628 1.398685 1.272730 4.338638
  7 7.084529 -0.265645 0.347658 -0.438973 -0.651276 0.282066
  8 11.371415 0.160226 -0.023444 -0.302564 0.092885 -2.053792
  9 0.000007 -0.000004 -4.044200 -0.145300 2.981646 -0.614382
 10 -0.000007 0.000007 4.044200 -0.100410 -2.957012 -0.914735
 11 17.182070 0.000091 0.000546 -0.052357 -0.030762 -0.555040
 12 16.782913 0.000650 -0.000234 -0.215536 -0.147329 -0.028887
 13 5.168527 5.004116 -0.000135 -0.046062 0.015675 2.252249
 14 17.182070 0.000099 0.000206 -0.131280 0.220929 -0.882593
 15 16.814156 0.035813 -0.004019 0.206351 -0.064132 0.422792
 16 5.168479 5.004167 -0.000064 0.158957 -0.099150 1.436913
 17 -2.170036 1.352229 2.953745 -0.101360 -1.282173 2.587697
 18 6.756397 0.050799 -2.234437 0.627674 1.128014 -0.111534
time 34
  0 0.013454 -0.013454 -1.009907 -0.023714 0.337737 -1.751362
  1 0.000000 0.000000 0.000000 -1.739980 -1.640491 0.171721
  2 4.484989 -0.004008 0.000006 -0.030584 -0.404885 0.438986
  3 5.314488 -1.395768 1.878726 0.272156 0.475975 -0.344690
  4 6.388059 -0.005253 -0.000001 -0.176749 -0.350235 0.040069
  5 6.146608 1.394838 0.000001 0.131757 -0.098088 0.634532
  6 -2.966931 -0.292338 -4.668628 1.507169 1.209710 4.417329
  7 7.092342 -0.250020 0.343751 -0.387512 -0.674017 0.246689
  8 11.363603 0.164133 -0.027351 -0.287419 0.027250 -2.127403
  9 0.000007 -0.000004 -4.044200 -0.144826 2.982410 -0.619350
 10 -0.000007 0.000007 4.044200 -0.110091 -2.969414 -0.823933
 11 17.182070 0.000091 0.000546 -0.055389 -0.031109 -0.515748
 12 16.786819 0.000650 -0.000234 -0.215536 -0.147329 -0.028887
 13 5.168527 5.004116 -0.000135 -0.046062 0.015675 2.252249
 14 17.182070 0.000099 0.000206 -0.130609 0.221828 -0.877659
 15 16.810249 0.035813 -0.004019 0.209132 -0.068100 0.376201
 16 5.168479 5.004167 -0.000064 0.158957 -0.099150 1.436913
 17 -2.170036 1.352229 2.953745 -0.101360 -1.282173 2.587697
 18 6.756397 0.050799 -2.230531 1.105825 0.851887 0.277360
end
