version 1
nodes
  0 "Bip01"  -1
  1 "Bip01 Pelvis"   0
  2 "Bip01 Spine"   1
  3 "Bip01 Spine1"   2
  4 "Bip01 Spine2"   3
  5 "Bip01 Neck"   4
  6 "Bip01 R Clavicle"   5
  7 "Bip01 R UpperArm"   6
  8 "Bip01 R Forearm"   7
  9 "Bip01 R Thigh"   1
 10 "Bip01 L Thigh"   1
 11 "Bip01 L Calf"  10
 12 "Bip01 L Foot"  11
 13 "Bip01 L Toe0"  12
 14 "Bip01 R Calf"   9
 15 "Bip01 R Foot"  14
 16 "Bip01 R Toe0"  15
 17 "Bip01 L Clavicle"   5
 18 "Bip01 L UpperArm"  17
end
skeleton
time 0
  0 0.009547 -0.009547 -3.920152 0.014152 0.130055 -1.742724
  1 0.000000 0.000000 0.000000 -3.141168 -1.552805 1.570704
  2 4.484989 -0.004008 -0.070309 -0.079557 0.007608 0.071025
  3 5.037136 -0.005101 -0.000238 -0.009120 -0.021198 0.326096
  4 6.388059 -0.005253 -0.000001 0.016635 -0.023886 0.223679
  5 6.146608 1.394838 0.000001 -0.000001 -0.000002 0.650292
  6 -2.170032 1.352243 -2.953732 -1.099103 1.199980 1.408386
  7 5.791521 -0.000012 -0.000009 -0.249260 -0.329880 -0.313621
  8 10.965153 0.000065 -0.000006 0.380330 0.082408 -1.901495
  9 0.000007 -0.000004 -4.044200 -2.987051 0.367203 -3.094698
 10 -0.000007 0.000007 4.044200 3.011184 -0.125957 2.713520
 11 17.182070 0.000091 0.000546 -0.030125 -0.024446 -0.854107
 12 16.782913 0.000650 -0.000234 -0.231403 -0.163822 0.267680
 13 5.168527 5.004116 -0.000135 -0.046062 0.015675 2.252249
 14 17.182070 0.000099 0.000206 -0.000001 -0.000007 -2.213134
 15 16.782906 0.000656 -0.000113 0.162649 -0.073939 0.218629
 16 5.168479 5.004167 -0.000064 0.158957 -0.099150 1.436913
 17 -2.170036 1.352229 2.953745 -0.132357 -1.264036 2.616729
 18 5.760273 0.000016 0.000006 0.393790 0.870172 0.147788
time 1
  0 -0.025610 0.025610 -4.916276 0.013674 0.130104 -1.736809
  1 0.000000 0.000000 0.000000 -3.141168 -1.552805 1.570704
  2 4.484989 -0.004008 -0.070309 0.011045 -0.013090 0.047162
  3 5.037136 -0.005101 -0.000238 -0.009120 -0.021198 0.326096
  4 6.388059 -0.005253 -0.000001 0.016635 -0.023886 0.223679
  5 6.146608 1.394838 0.000001 -0.000001 -0.000002 0.650292
  6 -2.170032 1.352243 -2.953732 -1.099103 1.199980 1.408386
  7 5.791521 -0.000012 -0.000009 -0.249260 -0.329880 -0.313621
  8 10.965153 0.000065 -0.000006 0.380330 0.082408 -1.901495
  9 0.000007 -0.000004 -4.044200 -3.023670 0.362140 3.048814
 10 -0.000007 0.000007 4.044200 2.994123 -0.119434 2.781574
 11 17.182070 0.000091 0.000546 -0.019351 -0.017207 -0.943734
 12 16.782913 0.000650 -0.000234 -0.240012 -0.116178 0.283235
 13 5.168527 5.004116 -0.000135 -0.055406 0.029838 2.172485
 14 17.182070 0.000099 0.000206 -0.000001 -0.000007 -2.231019
 15 16.782906 0.000656 -0.000113 0.124574 -0.010305 0.217387
 16 5.168479 5.004167 -0.000064 0.152584 -0.100036 1.458540
 17 -2.170036 1.352229 2.953745 -0.132357 -1.264036 2.616729
 18 5.760273 0.000016 0.000006 0.393790 0.870172 0.147788
time 2
  0 -0.068580 0.068580 -5.920213 0.013196 0.130203 -1.731552
  1 0.000000 0.000000 0.000000 -3.141168 -1.552805 1.570704
  2 4.484989 -0.004008 -0.070309 0.102232 -0.031613 0.021542
  3 5.037136 -0.005101 -0.000238 -0.009120 -0.021198 0.326096
  4 6.388059 -0.005253 -0.000001 0.016635 -0.023886 0.223679
  5 6.146608 1.394838 0.000001 -0.000001 -0.000002 0.650292
  6 -2.170032 1.352243 -2.953732 -1.099103 1.199980 1.408386
  7 5.791521 -0.000012 -0.000009 -0.249260 -0.329880 -0.313621
  8 10.965153 0.000065 -0.000006 0.380330 0.082408 -1.901495
  9 0.000007 -0.000004 -4.044200 -3.059150 0.352204 2.910281
 10 -0.000007 0.000007 4.044200 2.977830 -0.111809 2.849723
 11 17.182070 0.000091 0.000546 -0.009260 -0.008997 -1.033360
 12 16.782913 0.000650 -0.000234 -0.247908 -0.068478 0.298315
 13 5.168527 5.004116 -0.000135 -0.065840 0.043271 2.092557
 14 17.182070 0.000099 0.000206 -0.000001 -0.000007 -2.248905
 15 16.782906 0.000656 -0.000113 0.086353 0.053205 0.213774
 16 5.168479 5.004167 -0.000064 0.146198 -0.100839 1.480187
 17 -2.170036 1.352229 2.953745 -0.132357 -1.264036 2.616729
 18 5.760273 0.000016 0.000006 0.393790 0.870172 0.147788
time 3
  0 -0.111550 0.111550 -6.447573 0.012909 0.130302 -1.725636
  1 0.000000 0.000000 0.000000 -3.141168 -1.552805 1.570704
  2 4.484989 -0.004008 -0.070309 0.193906 -0.047724 -0.005608
  3 5.037136 -0.005101 -0.000238 -0.009120 -0.021198 0.326096
  4 6.388059 -0.005253 -0.000001 0.016635 -0.023886 0.223679
  5 6.146608 1.394838 0.000001 -0.000001 -0.000002 0.650292
  6 -2.170032 1.352243 -2.953732 -1.099103 1.199980 1.408386
  7 5.791521 -0.000012 -0.000009 -0.249260 -0.329880 -0.313621
  8 10.965153 0.000065 -0.000006 0.380330 0.082408 -1.901495
  9 0.000007 -0.000004 -4.044200 -3.092544 0.337492 2.772130
 10 -0.000007 0.000007 4.044200 2.961824 -0.102989 2.917968
 11 17.182070 0.000091 0.000546 0.000004 -0.000009 -1.123059
 12 16.782913 0.000650 -0.000234 -0.255094 -0.020592 0.312987
 13 5.168527 5.004116 -0.000135 -0.077365 0.055850 2.012434
 14 17.182070 0.000099 0.000206 -0.000001 -0.000007 -2.266860
 15 16.782906 0.000656 -0.000113 0.047628 0.116510 0.207678
 16 5.168479 5.004167 -0.000064 0.139788 -0.101487 1.501754
 17 -2.170036 1.352229 2.953745 -0.132357 -1.264036 2.616729
 18 5.760273 0.000016 0.000006 0.393790 0.870172 0.147788
time 4
  0 -0.150614 0.150614 -6.342101 0.011666 0.130549 -1.711177
  1 0.000000 0.000000 0.000000 -3.141168 -1.552805 1.570704
  2 4.484989 -0.004008 -0.070309 0.245901 -0.054261 -0.009059
  3 5.037136 -0.005101 -0.000238 -0.009120 -0.021198 0.326096
  4 6.388059 -0.005253 -0.000001 0.016635 -0.023886 0.223679
  5 6.146608 1.394838 0.000001 -0.000001 -0.000002 0.650292
  6 -2.170032 1.352243 -2.953732 -1.099103 1.199980 1.408386
  7 5.791521 -0.000012 -0.000009 -0.249260 -0.329880 -0.313621
  8 10.965153 0.000065 -0.000006 0.380330 0.082408 -1.901495
  9 0.000007 -0.000004 -4.044200 -3.102600 0.303290 2.667801
 10 -0.000007 0.000007 4.044200 2.951281 -0.090036 3.010586
 11 17.182070 0.000091 0.000546 0.000004 -0.000009 -1.049063
 12 16.782913 0.000650 -0.000234 -0.253058 0.010874 0.300726
 13 5.168527 5.004116 -0.000135 -0.089820 0.067415 1.932115
 14 17.182070 0.000099 0.000206 -0.000001 -0.000007 -2.146182
 15 16.782906 0.000656 -0.000113 0.072561 0.182323 0.191533
 16 5.168479 5.004167 -0.000064 0.133366 -0.102062 1.523401
 17 -2.170036 1.352229 2.953745 -0.132357 -1.264036 2.616729
 18 5.760273 0.000016 0.000006 0.393790 0.870172 0.147788
time 5
  0 -0.193584 0.193584 -5.775677 0.010423 0.130944 -1.696718
  1 0.000000 0.000000 0.000000 -3.141168 -1.552805 1.570704
  2 4.484989 -0.004008 -0.070309 0.297962 -0.060542 -0.012835
  3 5.037136 -0.005101 -0.000238 -0.009120 -0.021198 0.326096
  4 6.388059 -0.005253 -0.000001 0.016635 -0.023886 0.223679
  5 6.146608 1.394838 0.000001 -0.000001 -0.000002 0.650292
  6 -2.170032 1.352243 -2.953732 -1.099103 1.199980 1.408386
  7 5.791521 -0.000012 -0.000009 -0.249260 -0.329880 -0.313621
  8 10.965153 0.000065 -0.000006 0.380330 0.082408 -1.901495
  9 0.000007 -0.000004 -4.044200 -3.108861 0.268419 2.565095
 10 -0.000007 0.000007 4.044200 2.942080 -0.075704 -3.180101
 11 17.182070 0.000091 0.000546 0.000004 -0.000009 -0.975067
 12 16.782913 0.000650 -0.000234 -0.251415 0.042415 0.288737
 13 5.168527 5.004116 -0.000135 -0.103179 0.077948 1.851600
 14 17.182070 0.000099 0.000206 -0.000001 -0.000007 -2.025573
 15 16.782906 0.000656 -0.000113 0.096762 0.248527 0.176818
 16 5.168479 5.004167 -0.000064 0.126931 -0.102433 1.545048
 17 -2.170036 1.352229 2.953745 -0.132357 -1.264036 2.616729
 18 5.760273 0.000016 0.000006 0.393790 0.870172 0.147788
time 6
  0 -0.224835 0.224835 -4.853774 0.009371 0.131290 -1.682072
  1 0.000000 0.000000 0.000000 -3.141168 -1.552805 1.570704
  2 4.484989 -0.004008 -0.070309 0.350054 -0.066631 -0.016937
  3 5.037136 -0.005101 -0.000238 -0.009120 -0.021198 0.326096
  4 6.388059 -0.005253 -0.000001 0.016635 -0.023886 0.223679
  5 6.146608 1.394838 0.000001 -0.000001 -0.000002 0.650292
  6 -2.170032 1.352243 -2.953732 -1.099103 1.199980 1.408386
  7 5.791521 -0.000012 -0.000009 -0.249260 -0.329880 -0.313621
  8 10.965153 0.000065 -0.000006 0.380330 0.082408 -1.901495
  9 0.000007 -0.000004 -4.044200 -3.111422 0.233071 2.463154
 10 -0.000007 0.000007 4.044200 2.933933 -0.060637 -3.087674
 11 17.182070 0.000091 0.000546 0.000004 -0.000009 -0.901358
 12 16.782913 0.000650 -0.000234 -0.250189 0.073955 0.276680
 13 5.168527 5.004116 -0.000135 -0.117388 0.087431 1.770889
 14 17.182070 0.000099 0.000206 -0.000001 -0.000007 -1.904963
 15 16.782906 0.000656 -0.000113 0.120394 0.315080 0.163571
 16 5.168479 5.004167 -0.000064 0.120496 -0.102733 1.566614
 17 -2.170036 1.352229 2.953745 -0.132357 -1.264036 2.616729
 18 5.760273 0.000016 0.000006 0.393790 0.870172 0.147788
time 7
  0 -0.275618 0.275618 -3.431856 0.007650 0.131784 -1.661603
  1 0.000000 0.000000 0.000000 -3.141168 -1.552805 1.570704
  2 4.484989 -0.004008 -0.062496 0.415796 -0.018939 0.034336
  3 5.037136 -0.005101 -0.000238 -0.009120 -0.021198 0.326096
  4 6.388059 -0.005253 -0.000001 0.016635 -0.023886 0.223679
  5 6.146608 1.394838 0.000001 -0.000001 -0.000002 0.650292
  6 -2.170032 1.352243 -2.953732 -1.099103 1.199980 1.408386
  7 5.791521 -0.000012 -0.000009 -0.249260 -0.329880 -0.313621
  8 10.965153 0.000065 -0.000006 0.380330 0.082408 -1.901495
  9 0.000007 -0.000004 -4.044200 -3.086472 0.207849 2.455320
 10 -0.000007 0.000007 4.044200 2.940642 -0.052920 -3.007481
 11 17.182070 0.000091 0.000546 0.000004 -0.000009 -0.810943
 12 16.782913 0.000650 -0.000234 -0.207075 0.056443 0.157673
 13 5.168527 5.004116 -0.000135 -0.114517 0.082058 1.709401
 14 17.182070 0.000099 0.000206 -0.000001 -0.000007 -1.686496
 15 16.782906 0.000656 -0.000113 0.169545 0.283973 0.159733
 16 5.168479 5.004167 -0.000064 0.117501 -0.102793 1.576548
 17 -2.170036 1.352229 2.953745 -0.132357 -1.264036 2.616729
 18 5.760273 0.000016 0.000006 0.393790 0.870172 0.147788
time 8
  0 -0.322494 0.322494 -1.666177 0.005833 0.132328 -1.641135
  1 0.000000 0.000000 0.000000 -3.141168 -1.552805 1.570704
  2 4.484989 -0.004008 -0.062496 0.483910 0.025236 0.088669
  3 5.037136 -0.005101 -0.000238 -0.009120 -0.021198 0.326096
  4 6.388059 -0.005253 -0.000001 0.016635 -0.023886 0.223679
  5 6.146608 1.394838 0.000001 -0.000001 -0.000002 0.650292
  6 -2.170032 1.352243 -2.953732 -1.099103 1.199980 1.408386
  7 5.791521 -0.000012 -0.000009 -0.249260 -0.329880 -0.313621
  8 10.965153 0.000065 -0.000006 0.380330 0.082408 -1.901495
  9 0.000007 -0.000004 -4.044200 -3.061522 0.183201 2.446339
 10 -0.000007 0.000007 4.044200 2.947447 -0.045663 -2.927289
 11 17.182070 0.000091 0.000546 0.000004 -0.000009 -0.720814
 12 16.782913 0.000650 -0.000234 -0.162294 0.044194 0.038191
 13 5.168527 5.004116 -0.000135 -0.111327 0.076916 1.647914
 14 17.182070 0.000099 0.000206 -0.000001 -0.000007 -1.468371
 15 16.782906 0.000656 -0.000113 0.218484 0.253071 0.154389
 16 5.168479 5.004167 -0.000064 0.114518 -0.102841 1.586602
 17 -2.170036 1.352229 2.953745 -0.132357 -1.264036 2.616729
 18 5.760273 0.000016 0.000006 0.393790 0.870172 0.147788
time 9
  0 -0.361558 0.361558 -0.130974 0.004399 0.132822 -1.620855
  1 0.000000 0.000000 0.000000 -3.141168 -1.552805 1.570704
  2 4.484989 -0.004008 -0.062496 0.554428 0.065528 0.145997
  3 5.037136 -0.005101 -0.000238 -0.009120 -0.021198 0.326096
  4 6.388059 -0.005253 -0.000001 0.016635 -0.023886 0.223679
  5 6.146608 1.394838 0.000001 -0.000001 -0.000002 0.650292
  6 -2.170032 1.352243 -2.953732 -1.099103 1.199980 1.408386
  7 5.791521 -0.000012 -0.000009 -0.249260 -0.329880 -0.313621
  8 10.965153 0.000065 -0.000006 0.380330 0.082408 -1.901495
  9 0.000007 -0.000004 -4.044200 -3.036288 0.158170 2.437071
 10 -0.000007 0.000007 4.044200 2.955115 -0.039048 -2.847287
 11 17.182070 0.000091 0.000546 0.000004 -0.000009 -0.630685
 12 16.782913 0.000650 -0.000234 -0.116409 0.037393 -0.081733
 13 5.168527 5.004116 -0.000135 -0.107831 0.072041 1.586459
 14 17.182070 0.000099 0.000206 -0.000001 -0.000007 -1.250109
 15 16.782906 0.000656 -0.000113 0.267228 0.222498 0.147539
 16 5.168479 5.004167 -0.000064 0.111535 -0.102853 1.596617
 17 -2.170036 1.352229 2.953745 -0.132357 -1.264036 2.616729
 18 5.760273 0.000016 0.000006 0.393790 0.870172 0.147788
time 10
  0 -0.404528 0.404528 0.990154 0.002582 0.133415 -1.598415
  1 0.000000 0.000000 0.000000 -3.141168 -1.552805 1.570704
  2 4.484989 -0.004008 -0.062496 0.518227 0.019451 0.085381
  3 5.037136 -0.005101 -0.000238 -0.009120 -0.021198 0.326096
  4 6.388059 -0.005253 -0.000001 0.016635 -0.023886 0.223679
  5 6.146608 1.394838 0.000001 -0.000001 -0.000002 0.650292
  6 -2.170032 1.352243 -2.953732 -1.099103 1.199980 1.408386
  7 5.791521 -0.000012 -0.000009 -0.249260 -0.329880 -0.313621
  8 10.965153 0.000065 -0.000006 0.380330 0.082408 -1.901495
  9 0.000007 -0.000004 -4.044200 -3.001661 0.134286 2.464683
 10 -0.000007 0.000007 4.044200 2.964795 -0.044836 -2.806761
 11 17.182070 0.000091 0.000546 0.000004 -0.000009 -0.607095
 12 16.782913 0.000650 -0.000234 -0.074791 0.035447 -0.172211
 13 5.168527 5.004116 -0.000135 -0.104029 0.067326 1.525069
 14 17.182070 0.000099 0.000206 -0.000001 -0.000007 -0.987030
 15 16.782906 0.000656 -0.000113 0.254135 0.149817 0.126464
 16 5.168479 5.004167 -0.000064 0.106259 -0.102781 1.614319
 17 -2.170036 1.352229 2.953745 -0.132357 -1.264036 2.616729
 18 5.760273 0.000016 0.000006 0.393790 0.870172 0.147788
time 11
  0 -0.435779 0.435779 1.865181 0.001052 0.134156 -1.576257
  1 0.000000 0.000000 0.000000 -3.141168 -1.552805 1.570704
  2 4.484989 -0.004008 -0.062496 0.484852 -0.028609 0.026425
  3 5.037136 -0.005101 -0.000238 -0.009120 -0.021198 0.326096
  4 6.388059 -0.005253 -0.000001 0.016635 -0.023886 0.223679
  5 6.146608 1.394838 0.000001 -0.000001 -0.000002 0.650292
  6 -2.170032 1.352243 -2.953732 -1.099103 1.199980 1.408386
  7 5.791521 -0.000012 -0.000009 -0.249260 -0.329880 -0.313621
  8 10.965153 0.000065 -0.000006 0.380330 0.082408 -1.901495
  9 0.000007 -0.000004 -4.044200 -2.967983 0.109065 2.491147
 10 -0.000007 0.000007 4.044200 2.973900 -0.050991 -2.765757
 11 17.182070 0.000091 0.000546 0.000004 -0.000009 -0.583506
 12 16.782913 0.000650 -0.000234 -0.033173 0.037263 -0.262859
 13 5.168527 5.004116 -0.000135 -0.099935 0.062878 1.463581
 14 17.182070 0.000099 0.000206 -0.000001 -0.000007 -0.724088
 15 16.782906 0.000656 -0.000113 0.242750 0.076952 0.106594
 16 5.168479 5.004167 -0.000064 0.100983 -0.102589 1.632021
 17 -2.170036 1.352229 2.953745 -0.132357 -1.264036 2.616729
 18 5.760273 0.000016 0.000006 0.393790 0.870172 0.147788
time 12
  0 -0.478749 0.478749 2.451136 -0.000574 0.134848 -1.553348
  1 0.000000 0.000000 0.000000 -3.141168 -1.552805 1.570704
  2 4.484989 -0.004008 -0.070309 0.454272 -0.078618 -0.030968
  3 5.037136 -0.005101 -0.000238 -0.009120 -0.021198 0.326096
  4 6.388059 -0.005253 -0.000001 0.016635 -0.023886 0.223679
  5 6.146608 1.394838 0.000001 -0.000001 -0.000002 0.650292
  6 -2.170032 1.352243 -2.953732 -1.099103 1.199980 1.408386
  7 5.791521 -0.000012 -0.000009 -0.249260 -0.329880 -0.313621
  8 10.965153 0.000065 -0.000006 0.380330 0.082408 -1.901495
  9 0.000007 -0.000004 -4.044200 -2.934685 0.083556 2.516274
 10 -0.000007 0.000007 4.044200 2.982526 -0.057514 -2.725231
 11 17.182070 0.000091 0.000546 0.000004 -0.000009 -0.560059
 12 16.782913 0.000650 -0.000234 0.008151 0.042878 -0.353167
 13 5.168527 5.004116 -0.000135 -0.095615 0.058679 1.402126
 14 17.182070 0.000099 0.000206 -0.000001 -0.000007 -0.461214
 15 16.782906 0.000656 -0.000113 0.232829 0.003778 0.087551
 16 5.168479 5.004167 -0.000064 0.095719 -0.102337 1.649723
 17 -2.170036 1.352229 2.953745 -0.132357 -1.264036 2.616729
 18 5.760273 0.000016 0.000006 0.393790 0.870172 0.147788
time 13
  0 -0.529532 0.529532 2.755833 -0.002104 0.135688 -1.531941
  1 0.000000 0.000000 0.000000 -3.141168 -1.552805 1.570704
  2 4.484989 -0.004008 -0.070309 0.454240 -0.078810 -0.031912
  3 5.037136 -0.005101 -0.000238 -0.009120 -0.021198 0.326096
  4 6.388059 -0.005253 -0.000001 0.016635 -0.023886 0.223679
  5 6.146608 1.394838 0.000001 -0.000001 -0.000002 0.650292
  6 -2.170032 1.352243 -2.953732 -1.099103 1.199980 1.408386
  7 5.791521 -0.000012 -0.000009 -0.249260 -0.329880 -0.313621
  8 10.965153 0.000065 -0.000006 0.380330 0.082408 -1.901495
  9 0.000007 -0.000004 -4.044200 -2.912011 0.067411 2.548949
 10 -0.000007 0.000007 4.044200 2.983101 -0.078644 -2.737752
 11 17.182070 0.000091 0.000546 0.000004 -0.000009 -0.676215
 12 16.782913 0.000650 -0.000234 -0.010414 0.075104 -0.298996
 13 5.168527 5.004116 -0.000135 -0.099988 0.061348 1.404607
 14 17.182070 0.000099 0.000206 -0.000001 -0.000007 -0.330052
 15 16.782906 0.000656 -0.000113 0.199406 -0.020771 0.132448
 16 5.168479 5.004167 -0.000064 0.094301 -0.102266 1.654457
 17 -2.170036 1.352229 2.953745 -0.132357 -1.264036 2.616729
 18 5.760273 0.000016 0.000006 0.393790 0.870172 0.147788
time 14
  0 -0.576408 0.576408 2.759739 -0.003825 0.136429 -1.510628
  1 0.000000 0.000000 0.000000 -3.141168 -1.552805 1.570704
  2 4.484989 -0.004008 -0.070309 0.454207 -0.078986 -0.032889
  3 5.037136 -0.005101 -0.000238 -0.009120 -0.021198 0.326096
  4 6.388059 -0.005253 -0.000001 0.016635 -0.023886 0.223679
  5 6.146608 1.394838 0.000001 -0.000001 -0.000002 0.650292
  6 -2.170032 1.352243 -2.953732 -1.099103 1.199980 1.408386
  7 5.791521 -0.000012 -0.000009 -0.249260 -0.329880 -0.313621
  8 10.965153 0.000065 -0.000006 0.380330 0.082408 -1.901495
  9 0.000007 -0.000004 -4.044200 -2.890002 0.050883 2.581337
 10 -0.000007 0.000007 4.044200 2.983868 -0.099406 -2.750846
 11 17.182070 0.000091 0.000546 0.000004 -0.000009 -0.792372
 12 16.782913 0.000650 -0.000234 -0.027189 0.108313 -0.245028
 13 5.168527 5.004116 -0.000135 -0.104402 0.064088 1.407054
 14 17.182070 0.000099 0.000206 -0.000001 -0.000007 -0.199231
 15 16.782906 0.000656 -0.000113 0.164910 -0.043736 0.178399
 16 5.168479 5.004167 -0.000064 0.092884 -0.102230 1.659191
 17 -2.170036 1.352229 2.953745 -0.132357 -1.264036 2.616729
 18 5.760273 0.000016 0.000006 0.393790 0.870172 0.147788
time 15
  0 -0.615472 0.615472 2.228473 -0.005546 0.137269 -1.489221
  1 0.000000 0.000000 0.000000 -3.141168 -1.552805 1.570704
  2 4.484989 -0.004008 -0.070309 0.454175 -0.079129 -0.033833
  3 5.037136 -0.005101 -0.000238 -0.009120 -0.021198 0.326096
  4 6.388059 -0.005253 -0.000001 0.016635 -0.023886 0.223679
  5 6.146608 1.394838 0.000001 -0.000001 -0.000002 0.650292
  6 -2.170032 1.352243 -2.953732 -1.099103 1.199980 1.408386
  7 5.791521 -0.000012 -0.000009 -0.249260 -0.329880 -0.313621
  8 10.965153 0.000065 -0.000006 0.380330 0.082408 -1.901495
  9 0.000007 -0.000004 -4.044200 -2.868562 0.033209 2.613152
 10 -0.000007 0.000007 4.044200 2.984635 -0.120720 -2.763272
 11 17.182070 0.000091 0.000546 0.000004 -0.000009 -0.908528
 12 16.782913 0.000650 -0.000234 -0.042198 0.142374 -0.191638
 13 5.168527 5.004116 -0.000135 -0.108788 0.066810 1.409502
 14 17.182070 0.000099 0.000206 -0.000001 -0.000007 -0.068137
 15 16.782906 0.000656 -0.000113 0.129340 -0.065160 0.225102
 16 5.168479 5.004167 -0.000064 0.091478 -0.102146 1.663946
 17 -2.170036 1.352229 2.953745 -0.132357 -1.264036 2.616729
 18 5.760273 0.000016 0.000006 0.393790 0.870172 0.147788
time 16
  0 -0.670161 0.670161 0.829993 -0.006598 0.137862 -1.472321
  1 0.000000 0.000000 0.000000 -3.141168 -1.552805 1.570704
  2 4.484989 -0.004008 -0.070309 0.488947 -0.082885 -0.038293
  3 5.037136 -0.005101 -0.000238 -0.009120 -0.021198 0.326096
  4 6.388059 -0.005253 -0.000001 0.016635 -0.023886 0.223679
  5 6.146608 1.394838 0.000001 -0.000001 -0.000002 0.650292
  6 -2.170032 1.352243 -2.953732 -1.099103 1.199980 1.408386
  7 5.791521 -0.000012 -0.000009 -0.249260 -0.329880 -0.313621
  8 10.965153 0.000065 -0.000006 0.380330 0.082408 -1.901495
  9 0.000007 -0.000004 -4.044200 -2.866190 0.050310 2.581337
 10 -0.000007 0.000007 4.044200 2.984635 -0.147914 -2.798350
 11 17.182070 0.000091 0.000546 0.000004 -0.000009 -1.077027
 12 16.782913 0.000650 -0.000234 -0.084527 0.178992 -0.092160
 13 5.168527 5.004116 -0.000135 -0.118265 0.072806 1.414789
 14 17.182070 0.000099 0.000206 -0.000001 -0.000007 -0.272282
 15 16.782906 0.000656 -0.000113 0.151020 -0.067113 0.244521
 16 5.168479 5.004167 -0.000064 0.091478 -0.102146 1.663946
 17 -2.170036 1.352229 2.953745 -0.132357 -1.264036 2.616729
 18 5.760273 0.000016 0.000006 0.393790 0.870172 0.147788
time 17
  0 -0.720944 0.720944 -1.103660 -0.007841 0.138603 -1.455421
  1 0.000000 0.000000 0.000000 -3.141168 -1.552805 1.570704
  2 4.484989 -0.004008 -0.070309 0.523784 -0.086433 -0.042883
  3 5.037136 -0.005101 -0.000238 -0.009120 -0.021198 0.326096
  4 6.388059 -0.005253 -0.000001 0.016635 -0.023886 0.223679
  5 6.146608 1.394838 0.000001 -0.000001 -0.000002 0.650292
  6 -2.170032 1.352243 -2.953732 -1.099103 1.199980 1.408386
  7 5.791521 -0.000012 -0.000009 -0.249260 -0.329880 -0.313621
  8 10.965153 0.000065 -0.000006 0.380330 0.082408 -1.901495
  9 0.000007 -0.000004 -4.044200 -2.864103 0.066933 2.549713
 10 -0.000007 0.000007 4.044200 2.985689 -0.175107 -2.833524
 11 17.182070 0.000091 0.000546 0.000004 -0.000009 -1.245453
 12 16.782913 0.000650 -0.000234 -0.123202 0.219539 0.006435
 13 5.168527 5.004116 -0.000135 -0.127743 0.078802 1.420044
 14 17.182070 0.000099 0.000206 -0.000001 -0.000007 -0.476427
 15 16.782906 0.000656 -0.000113 0.172684 -0.069601 0.263865
 16 5.168479 5.004167 -0.000064 0.091478 -0.102146 1.663946
 17 -2.170036 1.352229 2.953745 -0.132357 -1.264036 2.616729
 18 5.760273 0.000016 0.000006 0.393790 0.870172 0.147788
time 18
  0 -0.756101 0.756101 -2.830275 -0.009084 0.139295 -1.438896
  1 0.000000 0.000000 0.000000 -3.141168 -1.552805 1.570704
  2 4.484989 -0.004008 -0.070309 0.558620 -0.089886 -0.047571
  3 5.037136 -0.005101 -0.000238 -0.009120 -0.021198 0.326096
  4 6.388059 -0.005253 -0.000001 0.016635 -0.023886 0.223679
  5 6.146608 1.394838 0.000001 -0.000001 -0.000002 0.650292
  6 -2.170032 1.352243 -2.953732 -1.099103 1.199980 1.408386
  7 5.791521 -0.000012 -0.000009 -0.249260 -0.329880 -0.313621
  8 10.965153 0.000065 -0.000006 0.380330 0.082408 -1.901495
  9 0.000007 -0.000004 -4.044200 -2.863060 0.084034 2.518281
 10 -0.000007 0.000007 4.044200 2.987702 -0.202392 -2.869176
 11 17.182070 0.000091 0.000546 0.000004 -0.000009 -1.414095
 12 16.782913 0.000650 -0.000234 -0.157928 0.263663 0.104351
 13 5.168527 5.004116 -0.000135 -0.137220 0.084887 1.425200
 14 17.182070 0.000099 0.000206 -0.000001 -0.000007 -0.680778
 15 16.782906 0.000656 -0.000113 0.194299 -0.072459 0.283209
 16 5.168479 5.004167 -0.000064 0.091478 -0.102146 1.663946
 17 -2.170036 1.352229 2.953745 -0.132357 -1.264036 2.616729
 18 5.760273 0.000016 0.000006 0.393790 0.870172 0.147788
time 19
  0 -0.795165 0.795165 -4.088126 -0.009658 0.139641 -1.429507
  1 0.000000 0.000000 0.000000 -3.141168 -1.552805 1.570704
  2 4.484989 -0.004008 -0.070309 0.506300 -0.085027 -0.041971
  3 5.037136 -0.005101 -0.000238 -0.009120 -0.021198 0.326096
  4 6.388059 -0.005253 -0.000001 0.016635 -0.023886 0.223679
  5 6.146608 1.394838 0.000001 -0.000001 -0.000002 0.650292
  6 -2.170032 1.352243 -2.953732 -1.099103 1.199980 1.408386
  7 5.791521 -0.000012 -0.000009 -0.249260 -0.329880 -0.313621
  8 10.965153 0.000065 -0.000006 0.380330 0.082408 -1.901495
  9 0.000007 -0.000004 -4.044200 -2.859455 0.091486 2.546178
 10 -0.000007 0.000007 4.044200 2.995657 -0.225635 -2.924326
 11 17.182070 0.000091 0.000546 0.000004 -0.000009 -1.564238
 12 16.782913 0.000650 -0.000234 -0.195524 0.287531 0.176115
 13 5.168527 5.004116 -0.000135 -0.143973 0.089246 1.428888
 14 17.182070 0.000099 0.000206 -0.000001 -0.000007 -0.827428
 15 16.782906 0.000656 -0.000113 0.197308 -0.063371 0.418614
 16 5.168479 5.004167 -0.000064 0.091478 -0.102146 1.663946
 17 -2.170036 1.352229 2.953745 -0.132357 -1.264036 2.616729
 18 5.760273 0.000016 0.000006 0.393790 0.870172 0.147788
time 20
  0 -0.818603 0.818603 -5.135033 -0.010423 0.140036 -1.420494
  1 0.000000 0.000000 0.000000 -3.141168 -1.552805 1.570704
  2 4.484989 -0.004008 -0.070309 0.454012 -0.079881 -0.036665
  3 5.037136 -0.005101 -0.000238 -0.009120 -0.021198 0.326096
  4 6.388059 -0.005253 -0.000001 0.016635 -0.023886 0.223679
  5 6.146608 1.394838 0.000001 -0.000001 -0.000002 0.650292
  6 -2.170032 1.352243 -2.953732 -1.099103 1.199980 1.408386
  7 5.791521 -0.000012 -0.000009 -0.249260 -0.329880 -0.313621
  8 10.965153 0.000065 -0.000006 0.380330 0.082408 -1.901495
  9 0.000007 -0.000004 -4.044200 -2.855565 0.098651 2.573694
 10 -0.000007 0.000007 4.044200 3.005050 -0.248419 -2.980145
 11 17.182070 0.000091 0.000546 0.000004 -0.000009 -1.714381
 12 16.782913 0.000650 -0.000234 -0.231575 0.313939 0.247710
 13 5.168527 5.004116 -0.000135 -0.150712 0.093694 1.432511
 14 17.182070 0.000099 0.000206 -0.000001 -0.000007 -0.974284
 15 16.782906 0.000656 -0.000113 0.201602 -0.054859 0.553983
 16 5.168479 5.004167 -0.000064 0.091478 -0.102146 1.663946
 17 -2.170036 1.352229 2.953745 -0.132357 -1.264036 2.616729
 18 5.760273 0.000016 0.000006 0.393790 0.870172 0.147788
time 21
  0 -0.830322 0.830322 -6.076468 -0.011188 0.140481 -1.411574
  1 0.000000 0.000000 0.000000 -3.141168 -1.552805 1.570704
  2 4.484989 -0.004008 -0.062496 0.401790 -0.074415 -0.031619
  3 5.037136 -0.005101 -0.000238 -0.009120 -0.021198 0.326096
  4 6.388059 -0.005253 -0.000001 0.016635 -0.023886 0.223679
  5 6.146608 1.394838 0.000001 -0.000001 -0.000002 0.650292
  6 -2.170032 1.352243 -2.953732 -1.099103 1.199980 1.408386
  7 5.791521 -0.000012 -0.000009 -0.249260 -0.329880 -0.313621
  8 10.965153 0.000065 -0.000006 0.380330 0.082408 -1.901495
  9 0.000007 -0.000004 -4.044200 -2.851770 0.105721 2.601591
 10 -0.000007 0.000007 4.044200 3.015784 -0.270651 -3.036347
 11 17.182070 0.000091 0.000546 0.000004 -0.000009 -1.864739
 12 16.782913 0.000650 -0.000234 -0.265860 0.342755 0.318829
 13 5.168527 5.004116 -0.000135 -0.157465 0.098142 1.436101
 14 17.182070 0.000099 0.000206 -0.000001 -0.000007 -1.121071
 15 16.782906 0.000656 -0.000113 0.206969 -0.046964 0.689389
 16 5.168479 5.004167 -0.000064 0.091478 -0.102146 1.663946
 17 -2.170036 1.352229 2.953745 -0.132357 -1.264036 2.616729
 18 5.760273 0.000016 0.000006 0.393790 0.870172 0.147788
time 22
  0 -0.830322 0.830322 -6.998371 -0.010901 0.140382 -1.413452
  1 0.000000 0.000000 0.000000 -3.141168 -1.552805 1.570704
  2 4.484989 -0.004008 -0.062496 0.326494 -0.065928 -0.024067
  3 5.037136 -0.005101 -0.000238 -0.009120 -0.021198 0.326096
  4 6.388059 -0.005253 -0.000001 0.016635 -0.023886 0.223679
  5 6.146608 1.394838 0.000001 -0.000001 -0.000002 0.650292
  6 -2.170032 1.352243 -2.953732 -1.099103 1.199980 1.408386
  7 5.791521 -0.000012 -0.000009 -0.249260 -0.329880 -0.313621
  8 10.965153 0.000065 -0.000006 0.380330 0.082408 -1.901495
  9 0.000007 -0.000004 -4.044200 -2.842663 0.099702 2.686527
 10 -0.000007 0.000007 4.044200 3.046071 -0.276347 -3.134891
 11 17.182070 0.000091 0.000546 0.000004 -0.000009 -1.940886
 12 16.782913 0.000650 -0.000234 -0.267552 0.318886 0.273827
 13 5.168527 5.004116 -0.000135 -0.154779 0.098925 1.447198
 14 17.182070 0.000099 0.000206 -0.000001 -0.000007 -1.131418
 15 16.782906 0.000656 -0.000113 0.200577 -0.028439 0.782946
 16 5.168479 5.004167 -0.000064 0.093574 -0.100779 1.672847
 17 -2.170036 1.352229 2.953745 -0.132357 -1.264036 2.616729
 18 5.760273 0.000016 0.000006 0.393790 0.870172 0.147788
time 23
  0 -0.818603 0.818603 -7.822615 -0.010614 0.140283 -1.415330
  1 0.000000 0.000000 0.000000 -3.141168 -1.552805 1.570704
  2 4.484989 -0.004008 -0.062496 0.251328 -0.056882 -0.017230
  3 5.037136 -0.005101 -0.000238 -0.009120 -0.021198 0.326096
  4 6.388059 -0.005253 -0.000001 0.016635 -0.023886 0.223679
  5 6.146608 1.394838 0.000001 -0.000001 -0.000002 0.650292
  6 -2.170032 1.352243 -2.953732 -1.099103 1.199980 1.408386
  7 5.791521 -0.000012 -0.000009 -0.249260 -0.329880 -0.313621
  8 10.965153 0.000065 -0.000006 0.380330 0.082408 -1.901495
  9 0.000007 -0.000004 -4.044200 -2.833651 0.092441 2.771748
 10 -0.000007 0.000007 4.044200 3.076454 -0.279195 3.050252
 11 17.182070 0.000091 0.000546 0.000004 -0.000009 -2.017033
 12 16.782913 0.000650 -0.000234 -0.268141 0.294999 0.229437
 13 5.168527 5.004116 -0.000135 -0.152081 0.099690 1.458261
 14 17.182070 0.000099 0.000206 -0.000001 -0.000007 -1.141903
 15 16.782906 0.000656 -0.000113 0.195958 -0.009421 0.876315
 16 5.168479 5.004167 -0.000064 0.095682 -0.099461 1.681729
 17 -2.170036 1.352229 2.953745 -0.132357 -1.264036 2.616729
 18 5.760273 0.000016 0.000006 0.393790 0.870172 0.147788
time 24
  0 -0.787352 0.787352 -8.385132 -0.010614 0.140234 -1.417583
  1 0.000000 0.000000 0.000000 -3.141168 -1.552805 1.570704
  2 4.484989 -0.004008 -0.062496 0.176228 -0.047292 -0.011077
  3 5.037136 -0.005101 -0.000238 -0.009120 -0.021198 0.326096
  4 6.388059 -0.005253 -0.000001 0.016635 -0.023886 0.223679
  5 6.146608 1.394838 0.000001 -0.000001 -0.000002 0.650292
  6 -2.170032 1.352243 -2.953732 -1.099103 1.199980 1.408386
  7 5.791521 -0.000012 -0.000009 -0.249260 -0.329880 -0.313621
  8 10.965153 0.000065 -0.000006 0.380330 0.082408 -1.901495
  9 0.000007 -0.000004 -4.044200 -2.825872 0.085181 2.856206
 10 -0.000007 0.000007 4.044200 3.107028 -0.279103 2.951517
 11 17.182070 0.000091 0.000546 0.000004 -0.000009 -2.093395
 12 16.782913 0.000650 -0.000234 -0.267626 0.271131 0.185285
 13 5.168527 5.004116 -0.000135 -0.149396 0.100473 1.469325
 14 17.182070 0.000099 0.000206 -0.000001 -0.000007 -1.152388
 15 16.782906 0.000656 -0.000113 0.193177 0.009946 0.969609
 16 5.168479 5.004167 -0.000064 0.097802 -0.098215 1.690671
 17 -2.170036 1.352229 2.953745 -0.132357 -1.264036 2.616729
 18 5.760273 0.000016 0.000006 0.393790 0.870172 0.147788
time 25
  0 -0.756101 0.756101 -8.791394 -0.009658 0.139641 -1.429507
  1 0.000000 0.000000 0.000000 -3.141168 -1.552805 1.570704
  2 4.484989 -0.004008 -0.062496 0.089688 -0.035801 -0.004957
  3 5.037136 -0.005101 -0.000238 -0.009120 -0.021198 0.326096
  4 6.388059 -0.005253 -0.000001 0.016635 -0.023886 0.223679
  5 6.146608 1.394838 0.000001 -0.000001 -0.000002 0.650292
  6 -2.170032 1.352243 -2.953732 -1.099103 1.199980 1.408386
  7 5.791521 -0.000012 -0.000009 -0.249260 -0.329880 -0.313621
  8 10.965153 0.000065 -0.000006 0.380330 0.082408 -1.901495
  9 0.000007 -0.000004 -4.044200 -2.818377 0.069704 2.974198
 10 -0.000007 0.000007 4.044200 -3.137725 -0.253564 2.813115
 11 17.182070 0.000091 0.000546 0.000004 -0.000009 -2.071526
 12 16.782913 0.000650 -0.000234 -0.240232 0.186145 0.046478
 13 5.168527 5.004116 -0.000135 -0.140650 0.101469 1.498894
 14 17.182070 0.000099 0.000206 -0.000001 -0.000007 -1.034794
 15 16.782906 0.000656 -0.000113 0.186655 0.036654 0.973222
 16 5.168479 5.004167 -0.000064 0.103645 -0.094727 1.715009
 17 -2.170036 1.352229 2.953745 -0.132357 -1.264036 2.616729
 18 5.760273 0.000016 0.000006 0.393790 0.870172 0.147788
time 26
  0 -0.713131 0.713131 -8.955462 -0.008893 0.139196 -1.441525
  1 0.000000 0.000000 0.000000 -3.141168 -1.552805 1.570704
  2 4.484989 -0.004008 -0.070309 0.003246 -0.023798 0.000056
  3 5.037136 -0.005101 -0.000238 -0.009120 -0.021198 0.326096
  4 6.388059 -0.005253 -0.000001 0.016635 -0.023886 0.223679
  5 6.146608 1.394838 0.000001 -0.000001 -0.000002 0.650292
  6 -2.170032 1.352243 -2.953732 -1.099103 1.199980 1.408386
  7 5.791521 -0.000012 -0.000009 -0.249260 -0.329880 -0.313621
  8 10.965153 0.000065 -0.000006 0.380330 0.082408 -1.901495
  9 0.000007 -0.000004 -4.044200 -2.812685 0.053749 -3.191671
 10 -0.000007 0.000007 4.044200 -3.103317 -0.223339 2.676244
 11 17.182070 0.000091 0.000546 0.000004 -0.000009 -2.049585
 12 16.782913 0.000650 -0.000234 -0.201606 0.105700 -0.093179
 13 5.168527 5.004116 -0.000135 -0.131877 0.102181 1.528430
 14 17.182070 0.000099 0.000206 -0.000001 -0.000007 -0.917200
 15 16.782906 0.000656 -0.000113 0.180247 0.063403 0.976646
 16 5.168479 5.004167 -0.000064 0.109575 -0.091419 1.739367
 17 -2.170036 1.352229 2.953745 -0.132357 -1.264036 2.616729
 18 5.760273 0.000016 0.000006 0.393790 0.870172 0.147788
time 27
  0 -0.658442 0.658442 -8.572638 -0.008128 0.138702 -1.453449
  1 0.000000 0.000000 0.000000 -3.141168 -1.552805 1.570704
  2 4.484989 -0.004008 -0.070309 -0.083066 -0.011444 0.003963
  3 5.037136 -0.005101 -0.000238 -0.009120 -0.021198 0.326096
  4 6.388059 -0.005253 -0.000001 0.016635 -0.023886 0.223679
  5 6.146608 1.394838 0.000001 -0.000001 -0.000002 0.650292
  6 -2.170032 1.352243 -2.953732 -1.099103 1.199980 1.408386
  7 5.791521 -0.000012 -0.000009 -0.249260 -0.329880 -0.313621
  8 10.965153 0.000065 -0.000006 0.380330 0.082408 -1.901495
  9 0.000007 -0.000004 -4.044200 -2.809175 0.036648 -3.073870
 10 -0.000007 0.000007 4.044200 -3.073701 -0.188796 2.541761
 11 17.182070 0.000091 0.000546 0.000004 -0.000009 -2.027859
 12 16.782913 0.000650 -0.000234 -0.152410 0.031426 -0.235009
 13 5.168527 5.004116 -0.000135 -0.123091 0.102661 1.557967
 14 17.182070 0.000099 0.000206 -0.000001 -0.000007 -0.799606
 15 16.782906 0.000656 -0.000113 0.173920 0.090090 0.979920
 16 5.168479 5.004167 -0.000064 0.115578 -0.088256 1.763745
 17 -2.170036 1.352229 2.953745 -0.132357 -1.264036 2.616729
 18 5.760273 0.000016 0.000006 0.393790 0.870172 0.147788
time 28
  0 -0.615472 0.615472 -7.389008 -0.006598 0.137862 -1.472227
  1 0.000000 0.000000 0.000000 -3.141168 -1.552805 1.570704
  2 4.484989 -0.004008 -0.070309 -0.209708 0.006601 0.007023
  3 5.037136 -0.005101 -0.000238 -0.009120 -0.021198 0.326096
  4 6.388059 -0.005253 -0.000001 0.016635 -0.023886 0.223679
  5 6.146608 1.394838 0.000001 -0.000001 -0.000002 0.650292
  6 -2.170032 1.352243 -2.953732 -1.099103 1.199980 1.408386
  7 5.791521 -0.000012 -0.000009 -0.249260 -0.329880 -0.313621
  8 10.965153 0.000065 -0.000006 0.380330 0.082408 -1.901495
  9 0.000007 -0.000004 -4.044200 -2.804906 0.006363 -2.924254
 10 -0.000007 0.000007 4.044200 -3.098908 -0.167666 2.496551
 11 17.182070 0.000091 0.000546 0.000004 -0.000009 -1.811465
 12 16.782913 0.000650 -0.000234 -0.158027 0.010541 -0.251719
 13 5.168527 5.004116 -0.000135 -0.119807 0.102750 1.568998
 14 17.182070 0.000099 0.000206 -0.000001 -0.000007 -0.534402
 15 16.782906 0.000656 -0.000113 0.121679 0.102262 0.685701
 16 5.168479 5.004167 -0.000064 0.116170 -0.088004 1.766132
 17 -2.170036 1.352229 2.953745 -0.132357 -1.264036 2.616729
 18 5.760273 0.000016 0.000006 0.393790 0.870172 0.147788
time 29
  0 -0.552970 0.552970 -5.662393 -0.005068 0.137170 -1.490911
  1 0.000000 0.000000 0.000000 -3.141168 -1.552805 1.570704
  2 4.484989 -0.004008 -0.070309 -0.336349 0.025045 0.007772
  3 5.037136 -0.005101 -0.000238 -0.009120 -0.021198 0.326096
  4 6.388059 -0.005253 -0.000001 0.016635 -0.023886 0.223679
  5 6.146608 1.394838 0.000001 -0.000001 -0.000002 0.650292
  6 -2.170032 1.352243 -2.953732 -1.099103 1.199980 1.408386
  7 5.791521 -0.000012 -0.000009 -0.249260 -0.329880 -0.313621
  8 10.965153 0.000065 -0.000006 0.380330 0.082408 -1.901495
  9 0.000007 -0.000004 -4.044200 -2.805380 -0.024495 -2.774447
 10 -0.000007 0.000007 4.044200 -3.124690 -0.147546 2.450577
 11 17.182070 0.000091 0.000546 0.000004 -0.000009 -1.595356
 12 16.782913 0.000650 -0.000234 -0.163324 -0.010400 -0.268565
 13 5.168527 5.004116 -0.000135 -0.116524 0.102786 1.579899
 14 17.182070 0.000099 0.000206 -0.000001 -0.000007 -0.269130
 15 16.782906 0.000656 -0.000113 0.068056 0.098807 0.391180
 16 5.168479 5.004167 -0.000064 0.116761 -0.087680 1.768499
 17 -2.170036 1.352229 2.953745 -0.132357 -1.264036 2.616729
 18 5.760273 0.000016 0.000006 0.393790 0.870172 0.147788
time 30
  0 -0.490468 0.490468 -3.857650 -0.003825 0.136528 -1.509783
  1 0.000000 0.000000 0.000000 -3.141168 -1.552805 1.570704
  2 4.484989 -0.004008 -0.070309 -0.463055 0.043361 0.006242
  3 5.037136 -0.005101 -0.000238 -0.009120 -0.021198 0.326096
  4 6.388059 -0.005253 -0.000001 0.016635 -0.023886 0.223679
  5 6.146608 1.394838 0.000001 -0.000001 -0.000002 0.650292
  6 -2.170032 1.352243 -2.953732 -1.099103 1.199980 1.408386
  7 5.791521 -0.000012 -0.000009 -0.249260 -0.329880 -0.313621
  8 10.965153 0.000065 -0.000006 0.380330 0.082408 -1.901495
  9 0.000007 -0.000004 -4.044200 -2.810124 -0.054780 -2.624736
 10 -0.000007 0.000007 4.044200 3.131469 -0.128805 2.404124
 11 17.182070 0.000091 0.000546 0.000004 -0.000009 -1.379176
 12 16.782913 0.000650 -0.000234 -0.168278 -0.031433 -0.285071
 13 5.168527 5.004116 -0.000135 -0.113254 0.102857 1.590930
 14 17.182070 0.000099 0.000206 -0.000001 -0.000007 -0.004132
 15 16.782906 0.000656 -0.000113 0.017783 0.080098 0.097599
 16 5.168479 5.004167 -0.000064 0.117365 -0.087429 1.770927
 17 -2.170036 1.352229 2.953745 -0.132357 -1.264036 2.616729
 18 5.760273 0.000016 0.000006 0.393790 0.870172 0.147788
time 31
  0 -0.435779 0.435779 -1.931810 -0.002104 0.135688 -1.531941
  1 0.000000 0.000000 0.000000 -3.141168 -1.552805 1.570704
  2 4.484989 -0.004008 -0.070309 -0.480408 0.045390 0.005265
  3 5.037136 -0.005101 -0.000238 -0.009120 -0.021198 0.326096
  4 6.388059 -0.005253 -0.000001 0.016635 -0.023886 0.223679
  5 6.146608 1.394838 0.000001 -0.000001 -0.000002 0.650292
  6 -2.170032 1.352243 -2.953732 -1.099103 1.199980 1.408386
  7 5.791521 -0.000012 -0.000009 -0.249260 -0.329880 -0.313621
  8 10.965153 0.000065 -0.000006 0.380330 0.082408 -1.901495
  9 0.000007 -0.000004 -4.044200 -2.815341 -0.025641 -2.635246
 10 -0.000007 0.000007 4.044200 3.074537 -0.118975 2.418748
 11 17.182070 0.000091 0.000546 0.000004 -0.000009 -1.034866
 12 16.782913 0.000650 -0.000234 -0.126513 -0.010845 -0.229541
 13 5.168527 5.004116 -0.000135 -0.106635 0.102786 1.613090
 14 17.182070 0.000099 0.000206 -0.000001 -0.000007 -0.104663
 15 16.782906 0.000656 -0.000113 0.003112 0.118669 -0.029678
 16 5.168479 5.004167 -0.000064 0.118019 -0.087692 1.765242
 17 -2.170036 1.352229 2.953745 -0.132357 -1.264036 2.616729
 18 5.760273 0.000016 0.000006 0.393790 0.870172 0.147788
time 32
  0 -0.381090 0.381090 0.079970 -0.000574 0.134848 -1.554099
  1 0.000000 0.000000 0.000000 -3.141168 -1.552805 1.570704
  2 4.484989 -0.004008 -0.070309 -0.497761 0.047404 0.004158
  3 5.037136 -0.005101 -0.000238 -0.009120 -0.021198 0.326096
  4 6.388059 -0.005253 -0.000001 0.016635 -0.023886 0.223679
  5 6.146608 1.394838 0.000001 -0.000001 -0.000002 0.650292
  6 -2.170032 1.352243 -2.953732 -1.099103 1.199980 1.408386
  7 5.791521 -0.000012 -0.000009 -0.249260 -0.329880 -0.313621
  8 10.965153 0.000065 -0.000006 0.380330 0.082408 -1.901495
  9 0.000007 -0.000004 -4.044200 -2.820844 0.003497 -2.646137
 10 -0.000007 0.000007 4.044200 3.017989 -0.108318 2.432894
 11 17.182070 0.000091 0.000546 0.000004 -0.000009 -0.690699
 12 16.782913 0.000650 -0.000234 -0.083767 0.007390 -0.173196
 13 5.168527 5.004116 -0.000135 -0.099988 0.102608 1.635251
 14 17.182070 0.000099 0.000206 -0.000001 -0.000007 -0.204782
 15 16.782906 0.000656 -0.000113 -0.016519 0.155101 -0.158159
 16 5.168479 5.004167 -0.000064 0.118684 -0.088028 1.759638
 17 -2.170036 1.352229 2.953745 -0.132357 -1.264036 2.616729
 18 5.760273 0.000016 0.000006 0.393790 0.870172 0.147788
time 33
  0 -0.318588 0.318588 1.509701 0.000861 0.134255 -1.576257
  1 0.000000 0.000000 0.000000 -3.141168 -1.552805 1.570704
  2 4.484989 -0.004008 -0.070309 -0.515147 0.049386 0.003149
  3 5.037136 -0.005101 -0.000238 -0.009120 -0.021198 0.326096
  4 6.388059 -0.005253 -0.000001 0.016635 -0.023886 0.223679
  5 6.146608 1.394838 0.000001 -0.000001 -0.000002 0.650292
  6 -2.170032 1.352243 -2.953732 -1.099103 1.199980 1.408386
  7 5.791521 -0.000012 -0.000009 -0.249260 -0.329880 -0.313621
  8 10.965153 0.000065 -0.000006 0.380330 0.082408 -1.901495
  9 0.000007 -0.000004 -4.044200 -2.826725 0.032158 -2.657124
 10 -0.000007 0.000007 4.044200 2.961153 -0.096926 2.446180
 11 17.182070 0.000091 0.000546 0.000004 -0.000009 -0.346604
 12 16.782913 0.000650 -0.000234 -0.039966 0.023198 -0.116240
 13 5.168527 5.004116 -0.000135 -0.093422 0.102270 1.657444
 14 17.182070 0.000099 0.000206 -0.000001 -0.000007 -0.305313
 15 16.782906 0.000656 -0.000113 -0.040899 0.188717 -0.288146
 16 5.168479 5.004167 -0.000064 0.119350 -0.088279 1.754034
 17 -2.170036 1.352229 2.953745 -0.132357 -1.264036 2.616729
 18 5.760273 0.000016 0.000006 0.393790 0.870172 0.147788
time 34
  0 -0.279524 0.279524 2.185503 0.002582 0.133415 -1.598415
  1 0.000000 0.000000 0.000000 -3.141168 -1.552805 1.570704
  2 4.484989 -0.004008 -0.070309 -0.503676 0.047404 0.002921
  3 5.037136 -0.005101 -0.000238 -0.009120 -0.021198 0.326096
  4 6.388059 -0.005253 -0.000001 0.016635 -0.023886 0.223679
  5 6.146608 1.394838 0.000001 -0.000001 -0.000002 0.650292
  6 -2.170032 1.352243 -2.953732 -1.099103 1.199980 1.408386
  7 5.791521 -0.000012 -0.000009 -0.249260 -0.329880 -0.313621
  8 10.965153 0.000065 -0.000006 0.380330 0.082408 -1.901495
  9 0.000007 -0.000004 -4.044200 -2.838963 0.092155 -2.761072
 10 -0.000007 0.000007 4.044200 2.961153 -0.089576 2.477913
 11 17.182070 0.000091 0.000546 0.000004 -0.000009 -0.248803
 12 16.782913 0.000650 -0.000234 -0.052302 0.019010 -0.131286
 13 5.168527 5.004116 -0.000135 -0.092771 0.102181 1.659598
 14 17.182070 0.000099 0.000206 -0.000001 -0.000007 -0.657616
 15 16.782906 0.000656 -0.000113 -0.005508 0.154875 -0.307414
 16 5.168479 5.004167 -0.000064 0.123258 -0.089981 1.721220
 17 -2.170036 1.352229 2.953745 -0.132357 -1.264036 2.616729
 18 5.760273 0.000016 0.000006 0.393790 0.870172 0.147788
time 35
  0 -0.244367 0.244367 2.290975 0.004303 0.132822 -1.620198
  1 0.000000 0.000000 0.000000 -3.141168 -1.552805 1.570704
  2 4.484989 -0.004008 -0.070309 -0.492204 0.045406 0.002628
  3 5.037136 -0.005101 -0.000238 -0.009120 -0.021198 0.326096
  4 6.388059 -0.005253 -0.000001 0.016635 -0.023886 0.223679
  5 6.146608 1.394838 0.000001 -0.000001 -0.000002 0.650292
  6 -2.170032 1.352243 -2.953732 -1.099103 1.199980 1.408386
  7 5.791521 -0.000012 -0.000009 -0.249260 -0.329880 -0.313621
  8 10.965153 0.000065 -0.000006 0.380330 0.082408 -1.901495
  9 0.000007 -0.000004 -4.044200 -2.857842 0.150145 -2.866644
 10 -0.000007 0.000007 4.044200 2.961440 -0.081492 2.508977
 11 17.182070 0.000091 0.000546 0.000004 -0.000009 -0.151289
 12 16.782913 0.000650 -0.000234 -0.064564 0.014692 -0.146229
 13 5.168527 5.004116 -0.000135 -0.092133 0.102163 1.661784
 14 17.182070 0.000099 0.000206 -0.000001 -0.000007 -1.009918
 15 16.782906 0.000656 -0.000113 0.030323 0.121753 -0.327774
 16 5.168479 5.004167 -0.000064 0.127239 -0.091539 1.688385
 17 -2.170036 1.352229 2.953745 -0.132357 -1.264036 2.616729
 18 5.760273 0.000016 0.000006 0.393790 0.870172 0.147788
time 36
  0 -0.193584 0.193584 1.814398 0.006120 0.132229 -1.642356
  1 0.000000 0.000000 0.000000 -3.141168 -1.552805 1.570704
  2 4.484989 -0.004008 -0.070309 -0.480733 0.043408 0.002335
  3 5.037136 -0.005101 -0.000238 -0.009120 -0.021198 0.326096
  4 6.388059 -0.005253 -0.000001 0.016635 -0.023886 0.223679
  5 6.146608 1.394838 0.000001 -0.000001 -0.000002 0.650292
  6 -2.170032 1.352243 -2.953732 -1.099103 1.199980 1.408386
  7 5.791521 -0.000012 -0.000009 -0.249260 -0.329880 -0.313621
  8 10.965153 0.000065 -0.000006 0.380330 0.082408 -1.901495
  9 0.000007 -0.000004 -4.044200 -2.882508 0.206225 -2.973935
 10 -0.000007 0.000007 4.044200 2.962015 -0.073775 2.540327
 11 17.182070 0.000091 0.000546 0.000004 -0.000009 -0.053488
 12 16.782913 0.000650 -0.000234 -0.076704 0.010189 -0.161309
 13 5.168527 5.004116 -0.000135 -0.091495 0.102092 1.663971
 14 17.182070 0.000099 0.000206 -0.000001 -0.000007 -1.362358
 15 16.782906 0.000656 -0.000113 0.066706 0.089432 -0.349263
 16 5.168479 5.004167 -0.000064 0.131258 -0.092965 1.655610
 17 -2.170036 1.352229 2.953745 -0.132357 -1.264036 2.616729
 18 5.760273 0.000016 0.000006 0.393790 0.870172 0.147788
time 37
  0 -0.138895 0.138895 0.630768 0.007841 0.131636 -1.667612
  1 0.000000 0.000000 0.000000 -3.141168 -1.552805 1.570704
  2 4.484989 -0.004008 -0.070309 -0.381259 0.029807 0.004744
  3 5.037136 -0.005101 -0.000238 -0.009120 -0.021198 0.326096
  4 6.388059 -0.005253 -0.000001 0.016635 -0.023886 0.223679
  5 6.146608 1.394838 0.000001 -0.000001 -0.000002 0.650292
  6 -2.170032 1.352243 -2.953732 -1.099103 1.199980 1.408386
  7 5.791521 -0.000012 -0.000009 -0.249260 -0.329880 -0.313621
  8 10.965153 0.000065 -0.000006 0.380330 0.082408 -1.901495
  9 0.000007 -0.000004 -4.044200 -2.906509 0.247688 -3.002024
 10 -0.000007 0.000007 4.044200 2.975050 -0.085993 2.583721
 11 17.182070 0.000091 0.000546 -0.009200 -0.003652 -0.253607
 12 16.782913 0.000650 -0.000234 -0.108046 -0.039254 -0.056906
 13 5.168527 5.004116 -0.000135 -0.075411 0.083250 1.811750
 14 17.182070 0.000099 0.000206 -0.000001 -0.000007 -1.574932
 15 16.782906 0.000656 -0.000113 0.099267 0.054192 -0.205540
 16 5.168479 5.004167 -0.000064 0.138038 -0.095111 1.600926
 17 -2.170036 1.352229 2.953745 -0.132357 -1.264036 2.616729
 18 5.760273 0.000016 0.000006 0.393790 0.870172 0.147788
time 38
  0 -0.076393 0.076393 -1.052877 0.009849 0.131043 -1.692399
  1 0.000000 0.000000 0.000000 -3.141168 -1.552805 1.570704
  2 4.484989 -0.004008 -0.070309 -0.281818 0.016062 0.005851
  3 5.037136 -0.005101 -0.000238 -0.009120 -0.021198 0.326096
  4 6.388059 -0.005253 -0.000001 0.016635 -0.023886 0.223679
  5 6.146608 1.394838 0.000001 -0.000001 -0.000002 0.650292
  6 -2.170032 1.352243 -2.953732 -1.099103 1.199980 1.408386
  7 5.791521 -0.000012 -0.000009 -0.249260 -0.329880 -0.313621
  8 10.965153 0.000065 -0.000006 0.380330 0.082408 -1.901495
  9 0.000007 -0.000004 -4.044200 -2.931649 0.288482 -3.031546
 10 -0.000007 0.000007 4.044200 2.987702 -0.098488 2.627210
 11 17.182070 0.000091 0.000546 -0.017517 -0.009117 -0.453798
 12 16.782913 0.000650 -0.000234 -0.144317 -0.085119 0.049195
 13 5.168527 5.004116 -0.000135 -0.062291 0.062255 1.958975
 14 17.182070 0.000099 0.000206 -0.000001 -0.000007 -1.787643
 15 16.782906 0.000656 -0.000113 0.126331 0.014614 -0.063209
 16 5.168479 5.004167 -0.000064 0.144929 -0.096813 1.546363
 17 -2.170036 1.352229 2.953745 -0.132357 -1.264036 2.616729
 18 5.760273 0.000016 0.000006 0.393790 0.870172 0.147788
time 39
  0 -0.025610 0.025610 -2.736522 0.011857 0.130450 -1.717468
  1 0.000000 0.000000 0.000000 -3.141168 -1.552805 1.570704
  2 4.484989 -0.004008 -0.070309 -0.182442 0.002222 0.005558
  3 5.037136 -0.005101 -0.000238 -0.009120 -0.021198 0.326096
  4 6.388059 -0.005253 -0.000001 0.016635 -0.023886 0.223679
  5 6.146608 1.394838 0.000001 -0.000001 -0.000002 0.650292
  6 -2.170032 1.352243 -2.953732 -1.099103 1.199980 1.408386
  7 5.791521 -0.000012 -0.000009 -0.249260 -0.329880 -0.313621
  8 10.965153 0.000065 -0.000006 0.380330 0.082408 -1.901495
  9 0.000007 -0.000004 -4.044200 -2.958876 0.328320 -3.062596
 10 -0.000007 0.000007 4.044200 2.999778 -0.112084 2.670126
 11 17.182070 0.000091 0.000546 -0.024588 -0.016128 -0.653845
 12 16.782913 0.000650 -0.000234 -0.185567 -0.126815 0.157096
 13 5.168527 5.004116 -0.000135 -0.052442 0.039499 2.105775
 14 17.182070 0.000099 0.000206 -0.000001 -0.000007 -2.000354
 15 16.782906 0.000656 -0.000113 0.147621 -0.028357 0.078067
 16 5.168479 5.004167 -0.000064 0.151918 -0.098179 1.491658
 17 -2.170036 1.352229 2.953745 -0.132357 -1.264036 2.616729
 18 5.760273 0.000016 0.000006 0.393790 0.870172 0.147788
time 40
  0 0.009547 -0.009547 -3.920152 0.014152 0.130055 -1.742724
  1 0.000000 0.000000 0.000000 -3.141168 -1.552805 1.570704
  2 4.484989 -0.004008 -0.070309 -0.079557 0.007608 0.071025
  3 5.037136 -0.005101 -0.000238 -0.009120 -0.021198 0.326096
  4 6.388059 -0.005253 -0.000001 0.016635 -0.023886 0.223679
  5 6.146608 1.394838 0.000001 -0.000001 -0.000002 0.650292
  6 -2.170032 1.352243 -2.953732 -1.099103 1.199980 1.408386
  7 5.791521 -0.000012 -0.000009 -0.249260 -0.329880 -0.313621
  8 10.965153 0.000065 -0.000006 0.380330 0.082408 -1.901495
  9 0.000007 -0.000004 -4.044200 -2.987051 0.367203 -3.094698
 10 -0.000007 0.000007 4.044200 3.011184 -0.125957 2.713520
 11 17.182070 0.000091 0.000546 -0.030125 -0.024446 -0.854107
 12 16.782913 0.000650 -0.000234 -0.231403 -0.163822 0.267680
 13 5.168527 5.004116 -0.000135 -0.046062 0.015675 2.252249
 14 17.182070 0.000099 0.000206 -0.000001 -0.000007 -2.213134
 15 16.782906 0.000656 -0.000113 0.162649 -0.073939 0.218629
 16 5.168479 5.004167 -0.000064 0.158957 -0.099150 1.436913
 17 -2.170036 1.352229 2.953745 -0.132357 -1.264036 2.616729
 18 5.760273 0.000016 0.000006 0.393790 0.870172 0.147788
end
