version 1
nodes
  0 "Bip01"  -1
  1 "Bip01 Pelvis"   0
  2 "Bip01 Spine"   1
  3 "Bip01 Spine1"   2
  4 "Bip01 Spine2"   3
  5 "Bip01 Neck"   4
  6 "Bip01 R Clavicle"   5
  7 "Bip01 R UpperArm"   6
  8 "Bip01 R Forearm"   7
  9 "Bip01 R Thigh"   1
 10 "Bip01 L Thigh"   1
 11 "Bip01 L Calf"  10
 12 "Bip01 L Foot"  11
 13 "Bip01 L Toe0"  12
 14 "Bip01 R Calf"   9
 15 "Bip01 R Foot"  14
 16 "Bip01 R Toe0"  15
 17 "Bip01 L Clavicle"   5
 18 "Bip01 L UpperArm"  17
end
skeleton
time 0
  0 0.009547 -0.009547 -1.740398 -0.004112 0.233130 -1.746104
  1 0.000000 0.000000 0.000000 -1.739980 -1.640491 0.171721
  2 4.484989 -0.004008 0.000006 -0.379407 -0.201204 1.067513
  3 5.037136 -0.020726 -0.000238 -0.043013 0.273223 -0.272380
  4 6.388059 -0.005253 -0.000001 -0.013255 0.002360 -0.096653
  5 6.146608 1.394838 0.000001 0.087534 -0.062391 0.573875
  6 -2.439571 0.949887 -2.922481 0.017639 1.122906 2.257388
  7 5.842304 -0.023450 0.101557 -0.353272 -0.647814 -0.310563
  8 10.965153 0.000065 -0.000006 0.480905 -0.286928 -1.676762
  9 0.000007 -0.000004 -4.044200 -0.157538 2.939323 -0.365023
 10 -0.000007 0.000007 4.044200 -0.101465 -2.958390 -0.904699
 11 17.182070 0.000091 0.000546 -0.015504 -0.015697 -1.073657
 12 16.782913 0.000650 -0.000234 -0.231403 -0.163822 0.267680
 13 5.168527 5.004116 -0.000135 -0.046062 0.015675 2.252249
 14 17.182070 0.000099 0.000206 -0.172244 0.078061 -1.544369
 15 16.782906 0.000656 -0.004019 0.233073 -0.090819 0.053606
 16 5.168479 5.004167 -0.000064 0.158957 -0.099150 1.436913
 17 -2.084096 1.445982 2.965464 0.224936 -1.263941 2.349751
 18 5.760273 0.000016 0.000006 0.182440 0.730698 0.020327
time 1
  0 0.009547 -0.009547 -1.673990 0.004877 0.181543 -1.743851
  1 0.000000 0.000000 0.000000 -1.739980 -1.640491 0.171721
  2 4.484989 -0.004008 0.000006 -0.340996 -0.184614 0.825211
  3 5.037136 -0.020726 -0.000238 -0.057706 0.306817 -0.355870
  4 6.388059 -0.005253 -0.000001 -0.013255 0.002360 -0.096653
  5 6.146608 1.394838 0.000001 0.087534 -0.062391 0.573875
  6 -2.423946 0.945981 -2.914668 -0.149229 1.199242 2.339894
  7 5.959495 -0.035169 0.070306 -0.259879 -0.525456 -0.282119
  8 10.965153 0.000065 -0.000006 0.480905 -0.286928 -1.676762
  9 0.000007 -0.000004 -4.044200 -0.159151 2.896045 -0.119007
 10 -0.000007 0.000007 4.044200 -0.113541 -2.974559 -0.788186
 11 17.182070 0.000091 0.000546 -0.018093 -0.017519 -1.032930
 12 16.782913 0.000650 -0.000234 -0.231403 -0.163822 0.267680
 13 5.168527 5.004116 -0.000135 -0.046062 0.015675 2.252249
 14 17.182070 0.000099 0.000206 -0.159851 0.165692 -1.157185
 15 16.790718 0.004562 -0.004019 0.229186 -0.088126 0.100234
 16 5.168479 5.004167 -0.000064 0.158957 -0.099150 1.436913
 17 -2.084096 1.445982 2.965464 0.224936 -1.263941 2.349751
 18 5.760273 0.000016 0.000006 -0.005970 0.652013 -0.135374
time 2
  0 0.009547 -0.009547 -1.623207 0.014152 0.130055 -1.742724
  1 0.000000 0.000000 0.000000 -1.739980 -1.640491 0.171721
  2 4.484989 -0.004008 0.000006 -0.307849 -0.159490 0.584602
  3 5.037136 -0.020726 -0.000238 -0.075494 0.339139 -0.440810
  4 6.388059 -0.005253 -0.000001 -0.013255 0.002360 -0.096653
  5 6.146608 1.394838 0.000001 0.087534 -0.062391 0.573875
  6 -2.423946 0.945981 -2.914668 -0.337052 1.280192 2.398077
  7 6.080592 -0.042982 0.039055 -0.168868 -0.405852 -0.243175
  8 10.965153 0.000065 -0.000006 0.480905 -0.286928 -1.676762
  9 0.000007 -0.000004 -4.044200 -0.149379 2.853818 0.129493
 10 -0.000007 0.000007 4.044200 -0.123605 -2.992014 -0.671959
 11 17.182070 0.000091 0.000546 -0.020693 -0.019268 -0.992347
 12 16.782913 0.000650 -0.000234 -0.231403 -0.163822 0.267680
 13 5.168527 5.004116 -0.000135 -0.046062 0.015675 2.252249
 14 17.182070 0.000099 0.000206 -0.114166 0.242046 -0.762258
 15 16.825876 0.000656 -0.004019 0.225380 -0.085227 0.146711
 16 5.168479 5.004167 -0.000064 0.158957 -0.099150 1.436913
 17 -2.084096 1.442075 2.965464 0.224936 -1.263941 2.349751
 18 5.760273 0.000016 0.000006 -0.166960 0.553681 -0.262297
time 3
  0 0.013454 -0.013454 -1.740398 0.022949 0.078369 -1.741879
  1 0.000000 0.000000 0.000000 -1.739980 -1.640491 0.171721
  2 4.484989 -0.004008 0.000006 -0.281851 -0.127285 0.345946
  3 5.037136 -0.020726 -0.000238 -0.096394 0.369866 -0.527351
  4 6.388059 -0.005253 -0.000001 -0.013255 0.002360 -0.096653
  5 6.146608 1.394838 0.000001 0.087534 -0.062391 0.573875
  6 -2.427852 0.938168 -2.914668 -0.574401 1.363226 2.403609
  7 6.158720 -0.050795 0.019523 -0.076292 -0.289907 -0.194545
  8 10.965153 0.000065 -0.000006 0.480905 -0.286928 -1.676762
  9 0.000007 -0.000004 -4.044200 -0.129267 2.815126 0.382196
 10 -0.000007 0.000007 4.044200 -0.131752 -3.010480 -0.556306
 11 17.182070 0.000091 0.000546 -0.023426 -0.020898 -0.951692
 12 16.782913 0.000650 -0.000234 -0.231403 -0.163822 0.267680
 13 5.168527 5.004116 -0.000135 -0.046062 0.015675 2.252249
 14 17.182070 0.000099 0.000206 -0.040617 0.294946 -0.356983
 15 16.841501 0.020188 -0.004019 0.221737 -0.082184 0.193302
 16 5.168479 5.004167 -0.000064 0.158957 -0.099150 1.436913
 17 -2.084096 1.442075 2.965464 0.224936 -1.263941 2.349751
 18 5.760273 0.000016 0.000006 -0.304398 0.440954 -0.363314
time 4
  0 0.017360 -0.017360 -2.420106 0.033467 0.018184 -1.741128
  1 0.000000 0.000000 0.000000 -1.739980 -1.640491 0.171721
  2 4.484989 -0.004008 0.000006 -0.277951 -0.120828 0.302486
  3 5.037136 -0.005101 -0.023676 -0.105560 0.381659 -0.562433
  4 6.388059 -0.005253 -0.000001 -0.013255 0.002360 -0.096653
  5 6.146608 1.394838 0.000001 0.087534 -0.062391 0.573875
  6 -2.427852 0.957700 -2.891230 -0.574401 1.363226 2.403609
  7 6.170439 -0.054701 0.003897 -0.076292 -0.289907 -0.194545
  8 10.965153 0.000065 -0.000006 0.480905 -0.286928 -1.676762
  9 0.000007 -0.000004 -4.044200 -0.156779 2.880569 -0.030059
 10 -0.000007 0.000007 4.044200 -0.128876 -3.003498 -0.599509
 11 17.182070 0.000091 0.000546 -0.001938 -0.002574 -1.317226
 12 16.786819 0.000650 -0.000234 -0.217891 -0.150498 0.022024
 13 5.168527 5.004116 -0.000135 -0.046062 0.015675 2.252249
 14 17.182070 0.000099 0.000206 -0.120290 0.235083 -0.803443
 15 16.841501 0.035813 -0.004019 0.209620 -0.068799 0.367470
 16 5.168479 5.004167 -0.000064 0.158957 -0.099150 1.436913
 17 -2.084096 1.442075 2.965464 0.224936 -1.263941 2.349751
 18 5.760273 0.000016 0.000006 -0.304398 0.440954 -0.363314
time 5
  0 0.017360 -0.017360 -2.990436 0.043794 -0.041853 -1.741128
  1 0.000000 0.000000 0.000000 -1.739980 -1.640491 0.171721
  2 4.484989 -0.004008 0.000006 -0.274377 -0.114131 0.259124
  3 5.037136 -0.020726 -0.000238 -0.115236 0.393159 -0.597817
  4 6.388059 -0.005253 -0.000001 -0.013255 0.002360 -0.096653
  5 6.146608 1.394838 0.000001 0.087534 -0.062391 0.573875
  6 -2.423946 0.942074 -2.914668 -0.574401 1.363226 2.403609
  7 6.158720 -0.050795 0.019523 -0.076292 -0.289907 -0.194545
  8 10.965153 0.000065 -0.000006 0.480905 -0.286928 -1.676762
  9 0.000007 -0.000004 -4.044200 -0.155166 2.950979 -0.433525
 10 -0.000007 0.000007 4.044200 -0.125809 -2.996516 -0.642712
 11 17.182070 0.000091 0.000546 0.011425 0.022186 -1.682545
 12 16.814163 0.000650 -0.000234 -0.208105 -0.134339 -0.222884
 13 5.168527 5.004116 -0.000135 -0.046062 0.015675 2.252249
 14 17.182070 0.000099 0.000206 -0.165233 0.148146 -1.237500
 15 16.841501 0.043626 -0.004019 0.200024 -0.053502 0.541338
 16 5.168479 5.004167 -0.000064 0.158957 -0.099150 1.436913
 17 -2.084096 1.445982 2.965464 0.224936 -1.263941 2.349751
 18 5.760273 0.000016 0.000006 -0.304398 0.440954 -0.363314
time 6
  0 0.017360 -0.017360 -2.677927 0.036527 0.000198 -1.741128
  1 0.000000 0.000000 0.000000 -1.739980 -1.640491 0.171721
  2 4.484989 -0.004008 0.000006 -0.244837 -0.142964 0.272341
  3 5.060575 -0.157449 0.179455 -0.074167 0.406518 -0.571649
  4 6.388059 -0.005253 -0.000001 -0.028727 -0.037646 -0.084566
  5 6.146608 1.394838 0.000001 0.092538 -0.066210 0.580702
  6 -2.490354 0.817070 -3.078736 -0.358196 1.400669 2.611925
  7 6.256379 -0.062514 0.050774 -0.099300 -0.337670 -0.155295
  8 10.996404 0.000065 -0.000006 0.400876 -0.236466 -1.714279
  9 0.000007 -0.000004 -4.044200 -0.149854 2.970277 -0.545498
 10 -0.000007 0.000007 4.044200 -0.138748 -3.036295 -0.403759
 11 17.182070 0.000091 0.000546 0.001226 0.001717 -1.386920
 12 16.818071 0.000650 -0.000234 -0.208400 -0.134876 -0.214971
 13 5.168527 5.004116 -0.000135 -0.046062 0.015675 2.252249
 14 17.182070 0.000099 0.000206 -0.152517 0.184028 -1.070428
 15 16.837595 0.047532 -0.004019 0.211897 -0.071698 0.332847
 16 5.168479 5.004167 -0.000064 0.158957 -0.099150 1.436913
 17 -2.084096 1.445982 2.965464 0.276135 -1.241152 2.315122
 18 5.760273 0.000016 0.000006 -0.296050 0.422328 -0.353572
time 7
  0 0.025173 -0.025173 -2.080252 0.029260 0.042446 -1.741128
  1 0.000000 0.000000 0.000000 -1.739980 -1.640491 0.171721
  2 4.484989 -0.004008 0.000006 -0.215524 -0.172196 0.284744
  3 5.095732 -0.325423 0.421650 -0.032435 0.418882 -0.544756
  4 6.388059 -0.005253 -0.000001 -0.044774 -0.077614 -0.071828
  5 6.146608 1.394838 0.000001 0.097524 -0.070089 0.587530
  6 -2.556763 0.660816 -3.301399 -0.045889 1.426800 2.916864
  7 6.369664 -0.097671 0.089837 -0.124690 -0.384528 -0.114515
  8 11.054999 0.027410 -0.000006 0.319849 -0.189046 -1.755635
  9 0.000007 -0.000004 -4.044200 -0.142169 2.988620 -0.657375
 10 -0.000007 0.000007 4.044200 -0.142103 -3.077453 -0.165953
 11 17.182070 0.000091 0.000546 -0.014401 -0.014918 -1.091008
 12 16.814163 0.000650 -0.000234 -0.208620 -0.135469 -0.207091
 13 5.168527 5.004116 -0.000135 -0.046062 0.015675 2.252249
 14 17.182070 0.000099 0.000206 -0.133773 0.217369 -0.901781
 15 16.841501 0.047532 -0.004019 0.227234 -0.087036 0.123868
 16 5.168479 5.004167 -0.000064 0.158957 -0.099150 1.436913
 17 -2.084096 1.445982 2.965464 0.322169 -1.217859 2.285995
 18 5.760273 0.000016 0.000006 -0.288177 0.403605 -0.343784
time 8
  0 0.017360 -0.017360 -1.654458 0.021993 0.084694 -1.741879
  1 0.000000 0.000000 0.000000 -1.739980 -1.640491 0.171721
  2 4.484989 -0.004008 0.000006 -0.186440 -0.201747 0.296333
  3 5.119170 -0.454333 0.581811 0.009773 0.430178 -0.517168
  4 6.388059 -0.005253 -0.000001 -0.061445 -0.117373 -0.058351
  5 6.146608 1.394838 0.000001 0.102490 -0.073987 0.594239
  6 -2.595826 0.559250 -3.449841 -2.794742 1.706883 0.160781
  7 6.455604 -0.105484 0.124995 -0.152599 -0.430363 -0.071289
  8 11.086250 0.046941 -0.000006 0.237546 -0.145059 -1.800210
  9 0.000007 -0.000004 -4.044200 -0.132398 3.005816 -0.768775
 10 -0.000007 0.000007 4.044200 -0.135106 -3.118611 0.071087
 11 17.182070 0.000091 0.000546 -0.034356 -0.026219 -0.794810
 12 16.814163 0.000650 -0.000234 -0.208915 -0.135988 -0.199042
 13 5.168527 5.004116 -0.000135 -0.046062 0.015675 2.252249
 14 17.182070 0.000099 0.000206 -0.109360 0.247079 -0.731283
 15 16.837595 0.047532 -0.004019 0.245515 -0.098879 -0.085564
 16 5.168479 5.004167 -0.000064 0.158957 -0.099150 1.436913
 17 -2.084096 1.445982 2.965464 0.363498 -1.194158 2.261708
 18 5.760273 0.000016 0.000006 -0.280779 0.384833 -0.334535
time 9
  0 0.017360 -0.017360 -1.584143 0.021993 0.084694 -1.741879
  1 0.000000 0.000000 0.000000 -1.739980 -1.640491 0.171721
  2 4.484989 -0.004008 0.000006 -0.194531 -0.214629 0.383937
  3 5.119170 -0.466053 0.601343 0.008549 0.431202 -0.521791
  4 6.388059 -0.005253 -0.000001 -0.061445 -0.117373 -0.058351
  5 6.146608 1.394838 0.000001 0.102490 -0.073987 0.594239
  6 -2.607545 0.543625 -3.469373 -2.794742 1.706883 0.160781
  7 6.467323 -0.117203 0.121088 -0.152599 -0.430363 -0.071289
  8 11.090157 0.046941 -0.000006 0.237546 -0.145059 -1.800210
  9 0.000007 -0.000004 -4.044200 -0.132398 3.005816 -0.768775
 10 -0.000007 0.000007 4.044200 -0.135106 -3.118611 0.071087
 11 17.182070 0.000091 0.000546 -0.034356 -0.026219 -0.794810
 12 16.814163 0.000650 -0.000234 -0.208915 -0.135988 -0.199042
 13 5.168527 5.004116 -0.000135 -0.046062 0.015675 2.252249
 14 17.182070 0.000099 0.000206 -0.109360 0.247079 -0.731283
 15 16.833689 0.047532 -0.004019 0.245515 -0.098879 -0.085564
 16 5.168479 5.004167 -0.000064 0.158957 -0.099150 1.436913
 17 -2.084096 1.445982 2.965464 0.363498 -1.194158 2.261708
 18 5.760273 0.000016 0.000006 -0.280779 0.384833 -0.334535
time 10
  0 0.021267 -0.021267 -1.326323 0.016160 0.118443 -1.742161
  1 0.000000 0.000000 0.000000 -1.739980 -1.640491 0.171721
  2 4.484989 -0.004008 0.000006 -0.203728 -0.226744 0.471899
  3 5.107450 -0.434802 0.558373 0.007239 0.432168 -0.526414
  4 6.388059 -0.005253 -0.000001 -0.061445 -0.117373 -0.058351
  5 6.146608 1.394838 0.000001 0.102490 -0.073987 0.594239
  6 -2.595826 0.578782 -3.434216 -2.794742 1.706883 0.160781
  7 6.443885 -0.109390 0.113276 -0.152599 -0.430363 -0.071289
  8 11.086250 0.043035 -0.003912 0.237546 -0.145059 -1.800210
  9 0.000007 -0.000004 -4.044200 -0.138280 2.995976 -0.704763
 10 -0.000007 0.000007 4.044200 -0.137982 -3.107954 0.008577
 11 17.182070 0.000091 0.000546 -0.036393 -0.026986 -0.766129
 12 16.802444 0.000650 -0.000234 -0.209086 -0.136396 -0.193268
 13 5.168527 5.004116 -0.000135 -0.046062 0.015675 2.252249
 14 17.182070 0.000099 0.000206 -0.127146 0.226562 -0.851755
 15 16.837595 0.043626 -0.004019 0.240278 -0.096021 -0.028398
 16 5.168479 5.004167 -0.000064 0.158957 -0.099150 1.436913
 17 -2.084096 1.445982 2.965464 0.363498 -1.194158 2.261708
 18 5.760273 0.000016 0.000006 -0.280779 0.384833 -0.334535
time 11
  0 0.021267 -0.021267 -1.002094 0.010136 0.152241 -1.743006
  1 0.000000 0.000000 0.000000 -1.739980 -1.640491 0.171721
  2 4.484989 -0.004008 0.000006 -0.214062 -0.238092 0.560219
  3 5.111357 -0.399644 0.515403 0.005998 0.433163 -0.531037
  4 6.388059 -0.005253 -0.000001 -0.061445 -0.117373 -0.058351
  5 6.146608 1.394838 0.000001 0.102490 -0.073987 0.594239
  6 -2.584107 0.598314 -3.402965 -2.794742 1.706883 0.160781
  7 6.424353 -0.109390 0.113276 -0.152599 -0.430363 -0.071289
  8 11.078438 0.031316 -0.000006 0.237546 -0.145059 -1.800210
  9 0.000007 -0.000004 -4.044200 -0.143213 2.985754 -0.640751
 10 -0.000007 0.000007 4.044200 -0.140090 -3.097113 -0.054219
 11 17.182070 0.000091 0.000546 -0.038491 -0.027693 -0.737735
 12 16.802444 0.000650 -0.000234 -0.209283 -0.136785 -0.187495
 13 5.168527 5.004116 -0.000135 -0.046062 0.015675 2.252249
 14 17.182070 0.000099 0.000206 -0.142162 0.204079 -0.971337
 15 16.837595 0.047532 -0.004019 0.235236 -0.092896 0.028805
 16 5.168479 5.004167 -0.000064 0.158957 -0.099150 1.436913
 17 -2.084096 1.442075 2.965464 0.363498 -1.194158 2.261708
 18 5.760273 0.000016 0.000006 -0.280779 0.384833 -0.334535
time 12
  0 0.021267 -0.021267 -0.638802 0.004112 0.185990 -1.744414
  1 0.000000 0.000000 0.000000 -1.739980 -1.640491 0.171721
  2 4.484989 -0.004008 0.000006 -0.225371 -0.248416 0.648897
  3 5.119170 -0.454333 0.581811 0.004723 0.434172 -0.535661
  4 6.388059 -0.005253 -0.000001 -0.061445 -0.117373 -0.058351
  5 6.146608 1.394838 0.000001 0.102490 -0.073987 0.594239
  6 -2.595826 0.559250 -3.457654 -2.794742 1.706883 0.160781
  7 6.455604 -0.105484 0.124995 -0.152599 -0.430363 -0.071289
  8 11.090157 0.046941 -0.000006 0.237546 -0.145059 -1.800210
  9 0.000007 -0.000004 -4.044200 -0.147766 2.975436 -0.576548
 10 -0.000007 0.000007 4.044200 -0.141432 -3.086181 -0.116251
 11 17.182070 0.000091 0.000546 -0.040648 -0.028365 -0.709198
 12 16.794632 0.000650 -0.000234 -0.209503 -0.137211 -0.181721
 13 5.168527 5.004116 -0.000135 -0.046062 0.015675 2.252249
 14 17.182070 0.000099 0.000206 -0.154327 0.180014 -1.089959
 15 16.837595 0.047532 -0.004019 0.230373 -0.089483 0.085895
 16 5.168479 5.004167 -0.000064 0.158957 -0.099150 1.436913
 17 -2.084096 1.442075 2.965464 0.363498 -1.194158 2.261708
 18 5.760273 0.000016 0.000006 -0.280779 0.384833 -0.334535
time 13
  0 0.021267 -0.021267 -0.259884 -0.001626 0.219739 -1.745353
  1 0.000000 0.000000 0.000000 -1.739980 -1.640491 0.171721
  2 4.484989 -0.004008 0.000006 -0.165414 -0.304803 0.583723
  3 5.166046 -0.696528 0.917759 0.092200 0.453150 -0.473927
  4 6.388059 -0.005253 -0.000001 -0.096644 -0.196167 -0.029163
  5 6.146608 1.394838 0.000001 0.112347 -0.081882 0.607736
  6 -2.693485 0.348306 -3.766257 -2.129650 1.749573 0.810718
  7 6.615765 -0.148454 0.179684 -0.217199 -0.518295 0.021841
  8 11.152658 0.074286 -0.000006 0.068462 -0.068765 -1.899018
  9 0.000007 -0.000004 -4.044200 -0.151466 2.964545 -0.512441
 10 -0.000007 0.000007 4.044200 -0.142199 -3.075156 -0.179048
 11 17.182070 0.000091 0.000546 -0.042793 -0.028952 -0.680589
 12 16.798538 0.000650 -0.000234 -0.209699 -0.137582 -0.175947
 13 5.168527 5.004116 -0.000135 -0.046062 0.015675 2.252249
 14 17.182070 0.000099 0.000206 -0.163435 0.154666 -1.207827
 15 16.841501 0.047532 -0.004019 0.225738 -0.085782 0.142873
 16 5.168479 5.004167 -0.000064 0.158957 -0.099150 1.436913
 17 -2.084096 1.442075 2.965464 0.435178 -1.145812 2.223852
 18 5.760273 0.000016 0.000006 -0.266119 0.347096 -0.316352
time 14
  0 0.013454 -0.013454 0.099502 -0.007841 0.253488 -1.747043
  1 0.000000 0.000000 0.000000 -1.739980 -1.640491 0.171721
  2 4.484989 -0.004008 0.000006 -0.100550 -0.357129 0.513829
  3 5.248080 -1.048102 1.394336 0.181481 0.467196 -0.410079
  4 6.388059 -0.005253 -0.000001 -0.134875 -0.273934 0.003474
  5 6.146608 1.394838 0.000001 0.122109 -0.089935 0.621154
  6 -2.830208 0.027984 -4.211583 1.341538 1.307642 4.266815
  7 6.850147 -0.199237 0.261718 -0.294595 -0.600090 0.127358
  8 11.262037 0.121162 -0.011725 -0.106800 -0.010536 -2.008970
  9 0.000007 -0.000004 -4.044200 -0.154597 2.953749 -0.448238
 10 -0.000007 0.000007 4.044200 -0.142199 -3.064132 -0.241558
 11 17.182070 0.000091 0.000546 -0.044902 -0.029443 -0.652124
 12 16.794632 0.000650 -0.000234 -0.209896 -0.137971 -0.170140
 13 5.168527 5.004116 -0.000135 -0.046062 0.015675 2.252249
 14 17.182070 0.000099 0.000206 -0.169415 0.128516 -1.324942
 15 16.841501 0.043626 -0.004019 0.221265 -0.081855 0.199925
 16 5.168479 5.004167 -0.000064 0.158957 -0.099150 1.436913
 17 -2.084096 1.445982 2.965464 0.495880 -1.096618 2.197667
 18 5.760273 0.000016 0.000006 -0.252545 0.309163 -0.299022
time 15
  0 0.013454 -0.013454 0.408105 -0.014152 0.287237 -1.748733
  1 0.000000 0.000000 0.000000 -1.739980 -1.640491 0.171721
  2 4.484989 -0.004008 0.000006 -0.030584 -0.404885 0.438986
  3 5.310582 -1.395768 1.878726 0.272156 0.475975 -0.344690
  4 6.388059 -0.005253 -0.000001 -0.176749 -0.350235 0.040069
  5 6.146608 1.394838 0.000001 0.131757 -0.098088 0.634532
  6 -2.966931 -0.288432 -4.668628 1.507169 1.209710 4.417329
  7 7.088436 -0.250020 0.347658 -0.387512 -0.674017 0.246689
  8 11.371415 0.160226 -0.023444 -0.287419 0.027250 -2.127403
  9 0.000007 -0.000004 -4.044200 -0.158012 2.937604 -0.355564
 10 -0.000007 0.000007 4.044200 -0.138557 -3.034458 -0.413795
 11 17.182070 0.000091 0.000546 -0.042721 -0.028940 -0.681091
 12 16.790726 0.000650 -0.000234 -0.210116 -0.138360 -0.164366
 13 5.168527 5.004116 -0.000135 -0.046062 0.015675 2.252249
 14 17.182070 0.000099 0.000206 -0.153260 0.182422 -1.078172
 15 16.841501 0.043626 -0.004019 0.217069 -0.077640 0.256903
 16 5.168479 5.004167 -0.000064 0.158957 -0.099150 1.436913
 17 -2.084096 1.445982 2.965464 0.548556 -1.046889 2.179356
 18 5.760273 0.000016 0.000006 -0.239921 0.270988 -0.282276
time 16
  0 0.013454 -0.013454 0.662019 -0.020463 0.320887 -1.750329
  1 0.000000 0.000000 0.000000 -1.739980 -1.640491 0.171721
  2 4.484989 -0.004008 0.000006 0.044582 -0.447526 0.359065
  3 5.376990 -1.661402 2.230299 0.363630 0.479472 -0.278484
  4 6.388059 -0.005253 -0.000001 -0.222925 -0.425052 0.081239
  5 6.146608 1.394838 0.000001 0.141291 -0.106378 0.647910
  6 -3.068497 -0.522814 -5.004576 1.604890 1.106795 4.499454
  7 7.256410 -0.285177 0.410160 -0.496901 -0.737871 0.381772
  8 11.449543 0.191477 -0.031257 -0.471428 0.042906 -2.251099
  9 0.000007 -0.000004 -4.044200 -0.183437 2.963589 -0.551039
 10 -0.000007 0.000007 4.044200 -0.129739 -3.005519 -0.586797
 11 17.182070 0.000091 0.000546 -0.040600 -0.028329 -0.709987
 12 16.786819 0.000650 -0.000234 -0.210313 -0.138768 -0.158592
 13 5.168527 5.004116 -0.000135 -0.046062 0.015675 2.252249
 14 17.182070 0.000099 0.000206 -0.123862 0.230768 -0.827839
 15 16.837595 0.047532 -0.004019 0.213133 -0.073199 0.313880
 16 5.168479 5.004167 -0.000064 0.158957 -0.099150 1.436913
 17 -2.084096 1.445982 2.965464 0.595697 -0.996751 2.167402
 18 5.760273 0.000016 0.000006 -0.227840 0.232618 -0.266472
time 17
  0 0.013454 -0.013454 -0.283322 -0.026965 0.354636 -1.752395
  1 0.000000 0.000000 0.000000 -1.739980 -1.640491 0.171721
  2 4.484989 -0.004008 0.000006 0.044582 -0.447526 0.359065
  3 5.373084 -1.692652 2.273269 0.363630 0.479472 -0.278484
  4 6.388059 -0.005253 -0.000001 -0.239344 -0.523887 0.012517
  5 6.146608 1.394838 0.000001 0.141291 -0.106378 0.647910
  6 -3.084122 -0.557972 -5.055359 1.604890 1.106795 4.499454
  7 7.291567 -0.285177 0.417973 -0.508337 -0.731379 0.384575
  8 11.461262 0.203196 -0.031257 -0.468155 0.027491 -2.243670
  9 0.000007 -0.000004 -4.044200 -0.191975 2.954609 -0.531549
 10 -0.000007 0.000007 4.044200 -0.116033 -2.978509 -0.760563
 11 17.182070 0.000091 0.000546 -0.038455 -0.027634 -0.739098
 12 16.786819 0.000650 -0.000234 -0.210533 -0.139157 -0.152818
 13 5.168527 5.004116 -0.000135 -0.046062 0.015675 2.252249
 14 17.182070 0.000099 0.000206 -0.082635 0.270401 -0.573395
 15 16.841501 0.047532 -0.004019 0.209441 -0.068573 0.370782
 16 5.168479 5.004167 -0.000064 0.158957 -0.099150 1.436913
 17 -2.084096 1.445982 2.965464 0.595697 -0.996751 2.167402
 18 5.760273 0.000016 0.000006 -0.227840 0.232618 -0.266472
time 18
  0 0.013454 -0.013454 -1.615394 -0.033563 0.388385 -1.754836
  1 0.000000 0.000000 0.000000 -1.739980 -1.640491 0.171721
  2 4.484989 -0.004008 0.000006 0.112371 -0.386825 0.344807
  3 5.373084 -1.669214 2.245924 0.363630 0.479472 -0.278484
  4 6.388059 -0.005253 -0.000001 -0.248489 -0.623655 -0.058703
  5 6.146608 1.394838 0.000001 0.141291 -0.106378 0.647910
  6 -3.080216 -0.534533 -5.055359 1.604890 1.106795 4.499454
  7 7.287661 -0.269551 0.421879 -0.519297 -0.724848 0.387073
  8 11.449543 0.195383 -0.031257 -0.464985 0.011925 -2.236303
  9 0.000007 -0.000004 -4.044200 -0.196054 2.936362 -0.455595
 10 -0.000007 0.000007 4.044200 -0.097343 -2.942864 -1.006111
 11 17.182070 0.000091 0.000546 -0.036285 -0.026902 -0.768065
 12 16.782913 0.000650 -0.000234 -0.210729 -0.139546 -0.147045
 13 5.168527 5.004116 -0.000135 -0.046062 0.015675 2.252249
 14 17.182070 0.000099 0.000206 -0.031916 0.298613 -0.314975
 15 16.841501 0.047532 -0.004019 0.206042 -0.063700 0.427684
 16 5.168479 5.004167 -0.000064 0.158957 -0.099150 1.436913
 17 -2.084096 1.445982 2.965464 0.595697 -0.996751 2.167402
 18 5.760273 0.000016 0.000006 -0.227840 0.232618 -0.266472
time 19
  0 0.009548 -0.009548 -1.740398 -0.004112 0.233130 -1.746104
  1 0.000000 0.000000 0.000000 -1.739980 -1.640491 0.171721
  2 4.484989 -0.004008 0.000006 -0.030584 -0.404885 0.438986
  3 5.314488 -1.395768 1.878726 0.272156 0.475975 -0.344690
  4 6.388059 -0.005253 -0.000001 -0.176749 -0.350235 0.040069
  5 6.146608 1.394838 0.000001 0.131757 -0.098088 0.634532
  6 -2.963025 -0.292338 -4.668628 1.507169 1.209710 4.417329
  7 7.092342 -0.246113 0.343751 -0.387512 -0.674017 0.246689
  8 11.363603 0.160226 -0.027351 -0.287419 0.027250 -2.127403
  9 0.000007 -0.000004 -4.044200 -0.144826 2.982410 -0.619350
 10 -0.000007 0.000007 4.044200 -0.110091 -2.969414 -0.823933
 11 17.182070 0.000091 0.000546 -0.055389 -0.031109 -0.515748
 12 16.782913 0.000650 -0.000234 -0.215536 -0.147329 -0.028887
 13 5.168527 5.004116 -0.000135 -0.046062 0.015675 2.252249
 14 17.182070 0.000099 0.000206 -0.130609 0.221828 -0.877659
 15 16.810249 0.035813 -0.004019 0.209132 -0.068100 0.376201
 16 5.168479 5.004167 -0.000064 0.158957 -0.099150 1.436913
 17 -2.170036 1.352229 2.953745 -0.101360 -1.282173 2.587697
 18 6.756397 0.054705 -2.230531 1.105825 0.851887 0.277360
end
