version 1
nodes
  0 "Bip01"  -1
  1 "Bip01 Pelvis"   0
  2 "Bip01 Spine"   1
  3 "Bip01 Spine1"   2
  4 "Bip01 Spine2"   3
  5 "Bip01 Neck"   4
  6 "Bip01 R Clavicle"   5
  7 "Bip01 R UpperArm"   6
  8 "Bip01 R Forearm"   7
  9 "Bip01 R Thigh"   1
 10 "Bip01 L Thigh"   1
 11 "Bip01 L Calf"  10
 12 "Bip01 L Foot"  11
 13 "Bip01 L Toe0"  12
 14 "Bip01 R Calf"   9
 15 "Bip01 R Foot"  14
 16 "Bip01 R Toe0"  15
 17 "Bip01 L Clavicle"   5
 18 "Bip01 L UpperArm"  17
end
skeleton
time 0
  0 0.005641 -0.005641 -4.720958 0.000000 0.087214 -1.396458
  1 0.000000 0.000000 0.000000 -1.570796 -1.570796 0.000000
  2 4.484989 -0.004008 0.000006 -0.114719 -0.079689 -0.309275
  3 5.037136 -0.005101 -0.000238 -0.151680 -0.044726 -0.071800
  4 6.388059 -0.005253 -0.000001 0.073490 -0.046078 -0.185291
  5 6.146608 1.394838 0.000001 -0.000001 -0.000002 0.650292
  6 -2.170032 1.352243 -2.953732 0.927606 1.006385 3.335784
  7 5.760270 -0.000012 -0.000009 -0.563202 -0.735747 0.761837
  8 10.965153 0.000065 -0.000006 0.000013 0.000002 -0.550437
  9 0.000007 -0.000004 -4.044200 0.204381 2.952221 -0.914187
 10 -0.000007 0.000007 4.044200 -0.168556 -2.962065 0.243038
 11 17.182070 0.000091 0.000546 0.000004 -0.000009 -0.577196
 12 16.782913 0.000650 -0.000234 0.111349 -0.091086 -0.191774
 13 5.168527 5.004116 -0.000135 -0.085806 0.015871 2.640169
 14 17.182070 0.000099 0.000206 -0.000001 -0.000007 -0.706682
 15 16.782906 0.000656 -0.000113 -0.003719 0.033652 0.324079
 16 5.168479 5.004167 -0.000064 0.000011 -0.000001 1.570802
 17 -2.170036 1.352229 2.953745 1.392754 -1.394110 1.100536
 18 5.760273 0.000016 0.000006 0.884090 1.081037 0.705808
time 1
  0 -0.205303 -1.434653 -4.904557 0.000000 0.087214 -1.403124
  1 0.000000 0.000000 0.000000 -1.570796 -1.570796 0.000000
  2 4.484989 -0.004008 0.000006 -0.114719 -0.079689 -0.309275
  3 5.037136 -0.005101 -0.000238 -0.151680 -0.044726 -0.071800
  4 6.388059 -0.005253 -0.000001 0.073490 -0.046078 -0.185291
  5 6.146608 1.394838 0.000001 -0.000001 -0.000002 0.650292
  6 -2.170032 1.352243 -2.953732 0.927606 1.006385 3.335784
  7 5.760270 -0.000012 -0.000009 -0.563202 -0.735747 0.761837
  8 10.965153 0.000065 -0.000006 0.000013 0.000002 -0.550437
  9 0.000007 -0.000004 -4.044200 0.201820 2.952316 -0.951639
 10 -0.000007 0.000007 4.044200 -0.162614 -2.941854 0.198688
 11 17.182070 0.000091 0.000546 0.000004 -0.000009 -0.705398
 12 16.782913 0.000650 -0.000234 0.107989 -0.089381 -0.083465
 13 5.168527 5.004116 -0.000135 -0.077471 0.014999 2.557501
 14 17.182070 0.000099 0.000206 -0.000001 -0.000007 -0.865393
 15 16.782906 0.000656 -0.000113 0.001275 0.011344 0.261193
 16 5.168479 5.004167 -0.000064 0.000011 -0.000001 1.575152
 17 -2.170036 1.352229 2.953745 1.392754 -1.394110 1.100536
 18 5.760273 0.000016 0.000006 0.884090 1.081037 0.705808
time 2
  0 -0.451404 -2.828507 -5.146752 0.000000 0.087214 -1.407349
  1 0.000000 0.000000 0.000000 -1.570796 -1.570796 0.000000
  2 4.484989 -0.004008 0.000006 -0.114719 -0.079689 -0.309275
  3 5.037136 -0.005101 -0.000238 -0.151680 -0.044726 -0.071800
  4 6.388059 -0.005253 -0.000001 0.073490 -0.046078 -0.185291
  5 6.146608 1.394838 0.000001 -0.000001 -0.000002 0.650292
  6 -2.170032 1.352243 -2.953732 0.927606 1.006385 3.335784
  7 5.760270 -0.000012 -0.000009 -0.563202 -0.735747 0.761837
  8 10.965153 0.000065 -0.000006 0.000013 0.000002 -0.550437
  9 0.000007 -0.000004 -4.044200 0.203338 2.957380 -0.963772
 10 -0.000007 0.000007 4.044200 -0.154850 -2.920723 0.159787
 11 17.182070 0.000091 0.000546 0.000004 -0.000009 -0.839408
 12 16.782913 0.000650 -0.000234 0.102766 -0.087843 0.041723
 13 5.168527 5.004116 -0.000135 -0.055592 0.015960 2.341021
 14 17.182070 0.000099 0.000206 -0.000001 -0.000007 -0.978327
 15 16.782906 0.000656 -0.000113 0.013391 -0.010347 0.178324
 16 5.168479 5.004167 -0.000064 0.000011 -0.000001 1.583912
 17 -2.170036 1.352229 2.953745 1.392754 -1.394110 1.100536
 18 5.760273 0.000016 0.000006 0.884090 1.081037 0.705808
time 3
  0 -0.705318 -4.214549 -5.357696 0.000000 0.087214 -1.411574
  1 0.000000 0.000000 0.000000 -1.570796 -1.570796 0.000000
  2 4.484989 -0.004008 0.000006 -0.114719 -0.079689 -0.309275
  3 5.037136 -0.005101 -0.000238 -0.151680 -0.044726 -0.071800
  4 6.388059 -0.005253 -0.000001 0.073490 -0.046078 -0.185291
  5 6.146608 1.394838 0.000001 -0.000001 -0.000002 0.650292
  6 -2.170032 1.352243 -2.953732 0.927606 1.006385 3.335784
  7 5.760270 -0.000012 -0.000009 -0.563202 -0.735747 0.761837
  8 10.965153 0.000065 -0.000006 0.000013 0.000002 -0.550437
  9 0.000007 -0.000004 -4.044200 0.207227 2.963685 -0.956225
 10 -0.000007 0.000007 4.044200 -0.146512 -2.900604 0.117827
 11 17.182070 0.000091 0.000546 0.000004 -0.000009 -0.970478
 12 16.782913 0.000650 -0.000234 0.098793 -0.085823 0.157843
 13 5.168527 5.004116 -0.000135 -0.029645 0.023575 2.073562
 14 17.182070 0.000099 0.000206 -0.000001 -0.000007 -1.073786
 15 16.782906 0.000656 -0.000113 0.019198 -0.020976 0.197554
 16 5.168479 5.004167 -0.000064 0.000011 -0.000001 1.588302
 17 -2.170036 1.352229 2.953745 1.392754 -1.394110 1.100536
 18 5.760273 0.000016 0.000006 0.884090 1.081037 0.705808
time 4
  0 -0.939700 -5.620123 -5.447542 0.000000 0.087214 -1.416738
  1 0.000000 0.000000 0.000000 -1.570796 -1.570796 0.000000
  2 4.484989 -0.004008 0.000006 -0.114719 -0.079689 -0.309275
  3 5.037136 -0.005101 -0.000238 -0.151680 -0.044726 -0.071800
  4 6.388059 -0.005253 -0.000001 0.073490 -0.046078 -0.185291
  5 6.146608 1.394838 0.000001 -0.000001 -0.000002 0.650292
  6 -2.170032 1.352243 -2.953732 0.927606 1.006385 3.335784
  7 5.760270 -0.000012 -0.000009 -0.563202 -0.735747 0.761837
  8 10.965153 0.000065 -0.000006 0.000013 0.000002 -0.550437
  9 0.000007 -0.000004 -4.044200 0.212445 2.971519 -0.931289
 10 -0.000007 0.000007 4.044200 -0.139036 -2.882781 0.064206
 11 17.182070 0.000091 0.000546 0.000004 -0.000009 -1.090220
 12 16.782913 0.000650 -0.000234 0.099160 -0.082432 0.241189
 13 5.168527 5.004116 -0.000135 -0.010730 0.034624 1.857311
 14 17.182070 0.000099 0.000206 -0.000001 -0.000007 -1.153416
 15 16.782906 0.000656 -0.000113 0.017767 -0.023155 0.304810
 16 5.168479 5.004167 -0.000064 0.000011 -0.000001 1.588383
 17 -2.170036 1.352229 2.953745 1.392754 -1.394110 1.100536
 18 5.760273 0.000016 0.000006 0.884090 1.081037 0.705808
time 5
  0 -1.138925 -7.060854 -5.338164 0.000000 0.087214 -1.423686
  1 0.000000 0.000000 0.000000 -1.570796 -1.570796 0.000000
  2 4.484989 -0.004008 0.000006 -0.114719 -0.079689 -0.309275
  3 5.037136 -0.005101 -0.000238 -0.151680 -0.044726 -0.071800
  4 6.388059 -0.005253 -0.000001 0.073490 -0.046078 -0.185291
  5 6.146608 1.394838 0.000001 -0.000001 -0.000002 0.650292
  6 -2.170032 1.352243 -2.953732 0.927606 1.006385 3.335784
  7 5.760270 -0.000012 -0.000009 -0.563202 -0.735747 0.761837
  8 10.965153 0.000065 -0.000006 0.000013 0.000002 -0.550437
  9 0.000007 -0.000004 -4.044200 0.219560 2.983175 -0.882372
 10 -0.000007 0.000007 4.044200 -0.133573 -2.869277 -0.010156
 11 17.182070 0.000091 0.000546 0.000004 -0.000009 -1.189454
 12 16.782913 0.000650 -0.000234 0.106444 -0.076465 0.265914
 13 5.168527 5.004116 -0.000135 -0.004177 0.039908 1.774740
 14 17.182070 0.000099 0.000206 -0.000001 -0.000007 -1.195012
 15 16.782906 0.000656 -0.000113 0.018563 -0.023772 0.400663
 16 5.168479 5.004167 -0.000064 0.000011 -0.000001 1.588626
 17 -2.170036 1.352229 2.953745 1.392754 -1.394110 1.100536
 18 5.760273 0.000016 0.000006 0.884090 1.081037 0.705808
time 6
  0 -1.279554 -8.560181 -5.041280 0.000000 0.087214 -1.434014
  1 0.000000 0.000000 0.000000 -1.570796 -1.570796 0.000000
  2 4.484989 -0.004008 0.000006 -0.114719 -0.079689 -0.309275
  3 5.037136 -0.005101 -0.000238 -0.151680 -0.044726 -0.071800
  4 6.388059 -0.005253 -0.000001 0.073490 -0.046078 -0.185291
  5 6.146608 1.394838 0.000001 -0.000001 -0.000002 0.650292
  6 -2.170032 1.352243 -2.953732 0.927606 1.006385 3.335784
  7 5.760270 -0.000012 -0.000009 -0.563202 -0.735747 0.761837
  8 10.965153 0.000065 -0.000006 0.000013 0.000002 -0.550437
  9 0.000007 -0.000004 -4.044200 0.227054 2.997887 -0.814443
 10 -0.000007 0.000007 4.044200 -0.130601 -2.858987 -0.119310
 11 17.182070 0.000091 0.000546 0.000004 -0.000009 -1.273632
 12 16.782913 0.000650 -0.000234 0.125622 -0.063048 0.196052
 13 5.168527 5.004116 -0.000135 -0.005041 0.027934 1.754571
 14 17.182070 0.000099 0.000206 -0.000001 -0.000007 -1.202276
 15 16.782906 0.000656 -0.000113 0.019491 -0.021799 0.483344
 16 5.168479 5.004167 -0.000064 0.000011 -0.000001 1.588990
 17 -2.170036 1.352229 2.953745 1.392754 -1.394110 1.100536
 18 5.760273 0.000016 0.000006 0.884090 1.081037 0.705808
time 7
  0 -1.330337 -10.149354 -4.662362 0.000000 0.087214 -1.449130
  1 0.000000 0.000000 0.000000 -1.570796 -1.570796 0.000000
  2 4.484989 -0.004008 0.000006 -0.114719 -0.079689 -0.309275
  3 5.037136 -0.005101 -0.000238 -0.151680 -0.044726 -0.071800
  4 6.388059 -0.005253 -0.000001 0.073490 -0.046078 -0.185291
  5 6.146608 1.394838 0.000001 -0.000001 -0.000002 0.650292
  6 -2.170032 1.352243 -2.953732 0.927606 1.006385 3.335784
  7 5.760270 -0.000012 -0.000009 -0.563202 -0.735747 0.761837
  8 10.965153 0.000065 -0.000006 0.000013 0.000002 -0.550437
  9 0.000007 -0.000004 -4.044200 0.233031 3.012313 -0.735623
 10 -0.000007 0.000007 4.044200 -0.129164 -2.850535 -0.256851
 11 17.182070 0.000091 0.000546 0.000004 -0.000009 -1.349062
 12 16.782913 0.000650 -0.000234 0.147596 -0.040365 0.048617
 13 5.168527 5.004116 -0.000135 -0.006185 -0.003452 1.701830
 14 17.182070 0.000099 0.000206 -0.000001 -0.000007 -1.186104
 15 16.782906 0.000656 -0.000113 0.019116 -0.016062 0.554510
 16 5.168479 5.004167 -0.000064 0.000011 -0.000001 1.589435
 17 -2.170036 1.352229 2.953745 1.392754 -1.394110 1.100536
 18 5.760273 0.000016 0.000006 0.884090 1.081037 0.705808
time 8
  0 -1.310805 -11.808841 -4.248287 0.000000 0.087214 -1.468002
  1 0.000000 0.000000 0.000000 -1.570796 -1.570796 0.000000
  2 4.484989 -0.004008 0.000006 -0.114719 -0.079689 -0.309275
  3 5.037136 -0.005101 -0.000238 -0.151680 -0.044726 -0.071800
  4 6.388059 -0.005253 -0.000001 0.073490 -0.046078 -0.185291
  5 6.146608 1.394838 0.000001 -0.000001 -0.000002 0.650292
  6 -2.170032 1.352243 -2.953732 0.927606 1.006385 3.335784
  7 5.760270 -0.000012 -0.000009 -0.563202 -0.735747 0.761837
  8 10.965153 0.000065 -0.000006 0.000013 0.000002 -0.550437
  9 0.000007 -0.000004 -4.044200 0.236067 3.025879 -0.648968
 10 -0.000007 0.000007 4.044200 -0.129068 -2.845115 -0.401847
 11 17.182070 0.000091 0.000546 0.000004 -0.000009 -1.407140
 12 16.782913 0.000650 -0.000234 0.157847 -0.016534 -0.122217
 13 5.168527 5.004116 -0.000135 -0.005267 -0.042239 1.636654
 14 17.182070 0.000099 0.000206 -0.000001 -0.000007 -1.150880
 15 16.782906 0.000656 -0.000113 0.017880 -0.006646 0.613557
 16 5.168479 5.004167 -0.000064 0.000011 -0.000001 1.589961
 17 -2.170036 1.352229 2.953745 1.392754 -1.394110 1.100536
 18 5.760273 0.000016 0.000006 0.884090 1.081037 0.705808
time 9
  0 -1.279554 -13.480048 -3.845931 0.000000 0.087214 -1.489503
  1 0.000000 0.000000 0.000000 -1.570796 -1.570796 0.000000
  2 4.484989 -0.004008 0.000006 -0.114719 -0.079689 -0.309275
  3 5.037136 -0.005101 -0.000238 -0.151680 -0.044726 -0.071800
  4 6.388059 -0.005253 -0.000001 0.073490 -0.046078 -0.185291
  5 6.146608 1.394838 0.000001 -0.000001 -0.000002 0.650292
  6 -2.170032 1.352243 -2.953732 0.927606 1.006385 3.335784
  7 5.760270 -0.000012 -0.000009 -0.563202 -0.735747 0.761837
  8 10.965153 0.000065 -0.000006 0.000013 0.000002 -0.550437
  9 0.000007 -0.000004 -4.044200 0.236257 3.038299 -0.557918
 10 -0.000007 0.000007 4.044200 -0.129835 -2.843645 -0.531455
 11 17.182070 0.000091 0.000546 0.000004 -0.000009 -1.439908
 12 16.782913 0.000650 -0.000234 0.153359 -0.002932 -0.262893
 13 5.168527 5.004116 -0.000135 -0.002675 -0.073589 1.583717
 14 17.182070 0.000099 0.000206 -0.000001 -0.000007 -1.100375
 15 16.782906 0.000656 -0.000113 0.017344 0.005361 0.660900
 16 5.168479 5.004167 -0.000064 0.000011 -0.000001 1.590547
 17 -2.170036 1.352229 2.953745 1.392754 -1.394110 1.100536
 18 5.760273 0.000016 0.000006 0.884090 1.081037 0.705808
time 10
  0 -1.220959 -15.178600 -3.486545 0.000000 0.087214 -1.513445
  1 0.000000 0.000000 0.000000 -1.570796 -1.570796 0.000000
  2 4.484989 -0.004008 0.000006 -0.114719 -0.079689 -0.309275
  3 5.037136 -0.005101 -0.000238 -0.151680 -0.044726 -0.071800
  4 6.388059 -0.005253 -0.000001 0.073490 -0.046078 -0.185291
  5 6.146608 1.394838 0.000001 -0.000001 -0.000002 0.650292
  6 -2.170032 1.352243 -2.953732 0.927606 1.006385 3.335784
  7 5.760270 -0.000012 -0.000009 -0.563202 -0.735747 0.761837
  8 10.965153 0.000065 -0.000006 0.000013 0.000002 -0.550437
  9 0.000007 -0.000004 -4.044200 0.233790 3.048808 -0.464098
 10 -0.000007 0.000007 4.044200 -0.132135 -2.846768 -0.623213
 11 17.182070 0.000091 0.000546 0.000004 -0.000009 -1.439191
 12 16.782913 0.000650 -0.000234 0.139331 -0.006045 -0.318491
 13 5.168527 5.004116 -0.000135 -0.001266 -0.085492 1.563646
 14 17.182070 0.000099 0.000206 -0.000001 -0.000007 -1.039454
 15 16.782906 0.000656 -0.000113 0.017945 0.019774 0.697254
 16 5.168479 5.004167 -0.000064 0.000011 -0.000001 1.591094
 17 -2.170036 1.352229 2.953745 1.392754 -1.394110 1.100536
 18 5.760273 0.000016 0.000006 0.884090 1.081037 0.705808
time 11
  0 -1.135019 -16.904497 -3.220912 0.000000 0.087214 -1.538889
  1 0.000000 0.000000 0.000000 -1.570796 -1.570796 0.000000
  2 4.484989 -0.004008 0.000006 -0.114719 -0.079689 -0.309275
  3 5.037136 -0.005101 -0.000238 -0.151680 -0.044726 -0.071800
  4 6.388059 -0.005253 -0.000001 0.073490 -0.046078 -0.185291
  5 6.146608 1.394838 0.000001 -0.000001 -0.000002 0.650292
  6 -2.170032 1.352243 -2.953732 0.927606 1.006385 3.335784
  7 5.760270 -0.000012 -0.000009 -0.563202 -0.735747 0.761837
  8 10.965153 0.000065 -0.000006 0.000013 0.000002 -0.550437
  9 0.000007 -0.000004 -4.044200 0.228477 3.056546 -0.370469
 10 -0.000007 0.000007 4.044200 -0.136640 -2.853383 -0.683142
 11 17.182070 0.000091 0.000546 0.000004 -0.000009 -1.407355
 12 16.782913 0.000650 -0.000234 0.122998 -0.018554 -0.296075
 13 5.168527 5.004116 -0.000135 -0.001213 -0.082752 1.564298
 14 17.182070 0.000099 0.000206 -0.000001 -0.000007 -0.972639
 15 16.782906 0.000656 -0.000113 0.019865 0.036037 0.724012
 16 5.168479 5.004167 -0.000064 0.000011 -0.000001 1.591620
 17 -2.170036 1.352229 2.953745 1.392754 -1.394110 1.100536
 18 5.760273 0.000016 0.000006 0.884090 1.081037 0.705808
time 12
  0 -1.049079 -18.630390 -3.103721 0.000000 0.087214 -1.565272
  1 0.000000 0.000000 0.000000 -1.570796 -1.570796 0.000000
  2 4.484989 -0.004008 0.000006 -0.114719 -0.079689 -0.309275
  3 5.037136 -0.005101 -0.000238 -0.151680 -0.044726 -0.071800
  4 6.388059 -0.005253 -0.000001 0.073490 -0.046078 -0.185291
  5 6.146608 1.394838 0.000001 -0.000001 -0.000002 0.650292
  6 -2.170032 1.352243 -2.953732 0.927606 1.006385 3.335784
  7 5.760270 -0.000012 -0.000009 -0.563202 -0.735747 0.761837
  8 10.965153 0.000065 -0.000006 0.000013 0.000002 -0.550437
  9 0.000007 -0.000004 -4.044200 0.220319 3.060559 -0.279419
 10 -0.000007 0.000007 4.044200 -0.142870 -2.861192 -0.731984
 11 17.182070 0.000091 0.000546 0.000004 -0.000009 -1.355802
 12 16.782913 0.000650 -0.000234 0.107425 -0.030729 -0.243772
 13 5.168527 5.004116 -0.000135 -0.001173 -0.074870 1.565930
 14 17.182070 0.000099 0.000206 -0.000001 -0.000007 -0.905550
 15 16.782906 0.000656 -0.000113 0.023004 0.053760 0.743619
 16 5.168479 5.004167 -0.000064 0.000011 -0.000001 1.592065
 17 -2.170036 1.352229 2.953745 1.392754 -1.394110 1.100536
 18 5.760273 0.000016 0.000006 0.884090 1.081037 0.705808
time 13
  0 -0.935794 -20.383633 -3.095908 0.000000 0.087214 -1.592500
  1 0.000000 0.000000 0.000000 -1.570796 -1.570796 0.000000
  2 4.484989 -0.004008 0.000006 -0.114719 -0.079689 -0.309275
  3 5.037136 -0.005101 -0.000238 -0.151680 -0.044726 -0.071800
  4 6.388059 -0.005253 -0.000001 0.073490 -0.046078 -0.185291
  5 6.146608 1.394838 0.000001 -0.000001 -0.000002 0.650292
  6 -2.170032 1.352243 -2.953732 0.927606 1.006385 3.335784
  7 5.760270 -0.000012 -0.000009 -0.563202 -0.735747 0.761837
  8 10.965153 0.000065 -0.000006 0.000013 0.000002 -0.550437
  9 0.000007 -0.000004 -4.044200 0.210927 3.060654 -0.189229
 10 -0.000007 0.000007 4.044200 -0.151208 -2.870103 -0.772224
 11 17.182070 0.000091 0.000546 0.000004 -0.000009 -1.290482
 12 16.782913 0.000650 -0.000234 0.092294 -0.040718 -0.168951
 13 5.168527 5.004116 -0.000135 -0.001027 -0.062789 1.568443
 14 17.182070 0.000099 0.000206 -0.000001 -0.000007 -0.836131
 15 16.782906 0.000656 -0.000113 0.026940 0.072367 0.754231
 16 5.168479 5.004167 -0.000064 0.000011 -0.000001 1.592409
 17 -2.170036 1.352229 2.953745 1.392754 -1.394110 1.100536
 18 5.760273 0.000016 0.000006 0.884090 1.081037 0.705808
time 14
  0 -0.818603 -22.140779 -3.146691 0.000000 0.087214 -1.618977
  1 0.000000 0.000000 0.000000 -1.570796 -1.570796 0.000000
  2 4.484989 -0.004008 0.000006 -0.114719 -0.079689 -0.309275
  3 5.037136 -0.005101 -0.000238 -0.151680 -0.044726 -0.071800
  4 6.388059 -0.005253 -0.000001 0.073490 -0.046078 -0.185291
  5 6.146608 1.394838 0.000001 -0.000001 -0.000002 0.650292
  6 -2.170032 1.352243 -2.953732 0.927606 1.006385 3.335784
  7 5.760270 -0.000012 -0.000009 -0.563202 -0.735747 0.761837
  8 10.965153 0.000065 -0.000006 0.000013 0.000002 -0.550437
  9 0.000007 -0.000004 -4.044200 0.201061 3.058362 -0.096173
 10 -0.000007 0.000007 4.044200 -0.160888 -2.879842 -0.805199
 11 17.182070 0.000091 0.000546 0.000004 -0.000009 -1.216271
 12 16.782913 0.000650 -0.000234 0.077309 -0.047519 -0.078575
 13 5.168527 5.004116 -0.000135 -0.000801 -0.048039 1.571348
 14 17.182070 0.000099 0.000206 -0.000001 -0.000007 -0.755679
 15 16.782906 0.000656 -0.000113 0.030876 0.091221 0.749866
 16 5.168479 5.004167 -0.000064 0.000011 -0.000001 1.592672
 17 -2.170036 1.352229 2.953745 1.392754 -1.394110 1.100536
 18 5.760273 0.000016 0.000006 0.884090 1.081037 0.705808
time 15
  0 -0.681880 -23.917458 -3.314665 0.000000 0.087214 -1.645454
  1 0.000000 0.000000 0.000000 -1.570796 -1.570796 0.000000
  2 4.484989 -0.004008 0.000006 -0.114719 -0.079689 -0.309275
  3 5.037136 -0.005101 -0.000238 -0.151680 -0.044726 -0.071800
  4 6.388059 -0.005253 -0.000001 0.073490 -0.046078 -0.185291
  5 6.146608 1.394838 0.000001 -0.000001 -0.000002 0.650292
  6 -2.170032 1.352243 -2.953732 0.927606 1.006385 3.335784
  7 5.760270 -0.000012 -0.000009 -0.563202 -0.735747 0.761837
  8 10.965153 0.000065 -0.000006 0.000013 0.000002 -0.550437
  9 0.000007 -0.000004 -4.044200 0.191195 3.052725 -0.003499
 10 -0.000007 0.000007 4.044200 -0.170089 -2.890590 -0.832918
 11 17.182070 0.000091 0.000546 0.000004 -0.000009 -1.138905
 12 16.782913 0.000650 -0.000234 0.062349 -0.050650 0.020802
 13 5.168527 5.004116 -0.000135 -0.000562 -0.032293 1.574612
 14 17.182070 0.000099 0.000206 -0.000001 -0.000007 -0.671184
 15 16.782906 0.000656 -0.000113 0.033640 0.109828 0.734135
 16 5.168479 5.004167 -0.000064 0.000011 -0.000001 1.592753
 17 -2.170036 1.352229 2.953745 1.392754 -1.394110 1.100536
 18 5.760273 0.000016 0.000006 0.884090 1.081037 0.705808
time 16
  0 -0.545157 -25.694136 -3.572485 0.000000 0.087214 -1.670241
  1 0.000000 0.000000 0.000000 -1.570796 -1.570796 0.000000
  2 4.484989 -0.004008 0.000006 -0.114719 -0.079689 -0.309275
  3 5.037136 -0.005101 -0.000238 -0.151680 -0.044726 -0.071800
  4 6.388059 -0.005253 -0.000001 0.073490 -0.046078 -0.185291
  5 6.146608 1.394838 0.000001 -0.000001 -0.000002 0.650292
  6 -2.170032 1.352243 -2.953732 0.927606 1.006385 3.335784
  7 5.760270 -0.000012 -0.000009 -0.563202 -0.735747 0.761837
  8 10.965153 0.000065 -0.000006 0.000013 0.000002 -0.550437
  9 0.000007 -0.000004 -4.044200 0.179905 3.042025 0.068825
 10 -0.000007 0.000007 4.044200 -0.179099 -2.902258 -0.857195
 11 17.182070 0.000091 0.000546 0.000004 -0.000009 -1.063762
 12 16.782913 0.000650 -0.000234 0.047022 -0.050094 0.121401
 13 5.168527 5.004116 -0.000135 -0.000256 -0.017490 1.577679
 14 17.182070 0.000099 0.000206 -0.000001 -0.000007 -0.625887
 15 16.782906 0.000656 -0.000113 0.033087 0.123110 0.711894
 16 5.168479 5.004167 -0.000064 0.010181 0.006603 1.638697
 17 -2.170036 1.352229 2.953745 1.392754 -1.394110 1.100536
 18 5.760273 0.000016 0.000006 0.884090 1.081037 0.705808
time 17
  0 -0.408434 -27.470816 -3.877182 0.000000 0.087214 -1.693244
  1 0.000000 0.000000 0.000000 -1.570796 -1.570796 0.000000
  2 4.484989 -0.004008 0.000006 -0.114719 -0.079689 -0.309275
  3 5.037136 -0.005101 -0.000238 -0.151680 -0.044726 -0.071800
  4 6.388059 -0.005253 -0.000001 0.073490 -0.046078 -0.185291
  5 6.146608 1.394838 0.000001 -0.000001 -0.000002 0.650292
  6 -2.170032 1.352243 -2.953732 0.927606 1.006385 3.335784
  7 5.760270 -0.000012 -0.000009 -0.563202 -0.735747 0.761837
  8 10.965153 0.000065 -0.000006 0.000013 0.000002 -0.550437
  9 0.000007 -0.000004 -4.044200 0.168426 3.030560 0.146116
 10 -0.000007 0.000007 4.044200 -0.186766 -2.915028 -0.879083
 11 17.182070 0.000091 0.000546 0.000004 -0.000009 -0.996291
 12 16.782913 0.000650 -0.000234 0.030639 -0.045814 0.217007
 13 5.168527 5.004116 -0.000135 0.000010 -0.005427 1.580225
 14 17.182070 0.000099 0.000206 -0.000001 -0.000007 -0.566816
 15 16.782906 0.000656 -0.000113 0.029851 0.132650 0.681335
 16 5.168479 5.004167 -0.000064 0.022878 0.001976 1.683651
 17 -2.170036 1.352229 2.953745 1.392754 -1.394110 1.100536
 18 5.760273 0.000016 0.000006 0.884090 1.081037 0.705808
time 18
  0 -0.271711 -29.247494 -4.193598 0.000000 0.087214 -1.713712
  1 0.000000 0.000000 0.000000 -1.570796 -1.570796 0.000000
  2 4.484989 -0.004008 0.000006 -0.114719 -0.079689 -0.309275
  3 5.037136 -0.005101 -0.000238 -0.151680 -0.044726 -0.071800
  4 6.388059 -0.005253 -0.000001 0.073490 -0.046078 -0.185291
  5 6.146608 1.394838 0.000001 -0.000001 -0.000002 0.650292
  6 -2.170032 1.352243 -2.953732 0.927606 1.006385 3.335784
  7 5.760270 -0.000012 -0.000009 -0.563202 -0.735747 0.761837
  8 10.965153 0.000065 -0.000006 0.000013 0.000002 -0.550437
  9 0.000007 -0.000004 -4.044200 0.157896 3.016039 0.216816
 10 -0.000007 0.000007 4.044200 -0.192134 -2.928532 -0.900780
 11 17.182070 0.000091 0.000546 0.000004 -0.000009 -0.941583
 12 16.782913 0.000650 -0.000234 0.011903 -0.037715 0.300488
 13 5.168527 5.004116 -0.000135 0.000169 0.002420 1.581922
 14 17.182070 0.000099 0.000206 -0.000001 -0.000007 -0.515488
 15 16.782906 0.000656 -0.000113 0.023069 0.138776 0.628949
 16 5.168479 5.004167 -0.000064 0.038496 -0.007384 1.750251
 17 -2.170036 1.352229 2.953745 1.392754 -1.394110 1.100536
 18 5.760273 0.000016 0.000006 0.884090 1.081037 0.705808
time 19
  0 -0.134988 -31.024174 -4.478763 0.000000 0.087214 -1.731645
  1 0.000000 0.000000 0.000000 -1.570796 -1.570796 0.000000
  2 4.484989 -0.004008 0.000006 -0.114719 -0.079689 -0.309275
  3 5.037136 -0.005101 -0.000238 -0.151680 -0.044726 -0.071800
  4 6.388059 -0.005253 -0.000001 0.073490 -0.046078 -0.185291
  5 6.146608 1.394838 0.000001 -0.000001 -0.000002 0.650292
  6 -2.170032 1.352243 -2.953732 0.927606 1.006385 3.335784
  7 5.760270 -0.000012 -0.000009 -0.563202 -0.735747 0.761837
  8 10.965153 0.000065 -0.000006 0.000013 0.000002 -0.550437
  9 0.000007 -0.000004 -4.044200 0.150212 2.997983 0.268885
 10 -0.000007 0.000007 4.044200 -0.195872 -2.942956 -0.924293
 11 17.182070 0.000091 0.000546 0.000004 -0.000009 -0.905445
 12 16.782913 0.000650 -0.000234 -0.010929 -0.025670 0.364849
 13 5.168527 5.004116 -0.000135 0.000262 0.005160 1.582510
 14 17.182070 0.000099 0.000206 -0.000001 -0.000007 -0.491024
 15 16.782906 0.000656 -0.000113 0.011732 0.141120 0.545365
 16 5.168479 5.004167 -0.000064 0.058207 -0.015162 1.855776
 17 -2.170036 1.352229 2.953745 1.392754 -1.394110 1.100536
 18 5.760273 0.000016 0.000006 0.884090 1.081037 0.705808
time 20
  0 0.001735 -32.800854 -4.720958 0.000000 0.087214 -1.745541
  1 0.000000 0.000000 0.000000 -1.570796 -1.570796 0.000000
  2 4.484989 -0.004008 0.000006 -0.114719 -0.079689 -0.309275
  3 5.037136 -0.005101 -0.000238 -0.151680 -0.044726 -0.071800
  4 6.388059 -0.005253 -0.000001 0.073490 -0.046078 -0.185291
  5 6.146608 1.394838 0.000001 -0.000001 -0.000002 0.650292
  6 -2.170032 1.352243 -2.953732 0.927606 1.006385 3.335784
  7 5.760270 -0.000012 -0.000009 -0.563202 -0.735747 0.761837
  8 10.965153 0.000065 -0.000006 0.000013 0.000002 -0.550437
  9 0.000007 -0.000004 -4.044200 0.144330 2.976009 0.287325
 10 -0.000007 0.000007 4.044200 -0.182166 -2.968863 -0.919419
 11 17.182070 0.000091 0.000546 0.000004 -0.000009 -1.008767
 12 16.782913 0.000650 -0.000234 -0.094435 -0.002728 0.448296
 13 5.168527 5.004116 -0.000135 0.008836 0.007206 1.585349
 14 17.182070 0.000099 0.000206 -0.000001 -0.000007 -0.512953
 15 16.782906 0.000656 -0.000113 -0.004955 0.135878 0.414663
 16 5.168479 5.004167 -0.000064 0.085783 -0.015869 2.021772
 17 -2.170036 1.352229 2.953745 1.392754 -1.394110 1.100536
 18 5.760273 0.000016 0.000006 0.884090 1.081037 0.705808
time 21
  0 0.169709 -34.608780 -4.935808 0.000000 0.087214 -1.753803
  1 0.000000 0.000000 0.000000 -1.570796 -1.570796 0.000000
  2 4.484989 -0.004008 0.000006 -0.114719 -0.079689 -0.309275
  3 5.037136 -0.005101 -0.000238 -0.151680 -0.044726 -0.071800
  4 6.388059 -0.005253 -0.000001 0.073490 -0.046078 -0.185291
  5 6.146608 1.394838 0.000001 -0.000001 -0.000002 0.650292
  6 -2.170032 1.352243 -2.953732 0.927606 1.006385 3.335784
  7 5.760270 -0.000012 -0.000009 -0.563202 -0.735747 0.761837
  8 10.965153 0.000065 -0.000006 0.000013 0.000002 -0.550437
  9 0.000007 -0.000004 -4.044200 0.142053 2.955564 0.271083
 10 -0.000007 0.000007 4.044200 -0.153508 -3.007724 -0.921808
 11 17.182070 0.000091 0.000546 0.000004 -0.000009 -1.076238
 12 16.782913 0.000650 -0.000234 -0.235131 0.001423 0.354320
 13 5.168527 5.004116 -0.000135 0.026010 0.011227 1.590930
 14 17.182070 0.000099 0.000206 -0.000001 -0.000007 -0.598818
 15 16.782906 0.000656 -0.000113 -0.021382 0.134150 0.378234
 16 5.168479 5.004167 -0.000064 0.077771 -0.017283 1.998122
 17 -2.170036 1.352229 2.953745 1.392754 -1.394110 1.100536
 18 5.760273 0.000016 0.000006 0.884090 1.081037 0.705808
time 22
  0 0.368933 -36.447964 -5.181909 0.000000 0.087214 -1.754742
  1 0.000000 0.000000 0.000000 -1.570796 -1.570796 0.000000
  2 4.484989 -0.004008 0.000006 -0.114719 -0.079689 -0.309275
  3 5.037136 -0.005101 -0.000238 -0.151680 -0.044726 -0.071800
  4 6.388059 -0.005253 -0.000001 0.073490 -0.046078 -0.185291
  5 6.146608 1.394838 0.000001 -0.000001 -0.000002 0.650292
  6 -2.170032 1.352243 -2.953732 0.927606 1.006385 3.335784
  7 5.760270 -0.000012 -0.000009 -0.563202 -0.735747 0.761837
  8 10.965153 0.000065 -0.000006 0.000013 0.000002 -0.550437
  9 0.000007 -0.000004 -4.044200 0.140630 2.932827 0.227708
 10 -0.000007 0.000007 4.044200 -0.140761 -3.036020 -0.911676
 11 17.182070 0.000091 0.000546 0.000004 -0.000009 -1.137471
 12 16.782913 0.000650 -0.000234 -0.317950 -0.009566 0.306500
 13 5.168527 5.004116 -0.000135 0.034583 0.013202 1.593737
 14 17.182070 0.000099 0.000206 -0.000001 -0.000007 -0.735463
 15 16.782906 0.000656 -0.000113 -0.040655 0.125680 0.356030
 16 5.168479 5.004167 -0.000064 0.056962 -0.021873 1.936235
 17 -2.170036 1.352229 2.953745 1.392754 -1.394110 1.100536
 18 5.760273 0.000016 0.000006 0.884090 1.081037 0.705808
time 23
  0 0.591596 -38.310581 -5.381134 0.000000 0.087214 -1.749672
  1 0.000000 0.000000 0.000000 -1.570796 -1.570796 0.000000
  2 4.484989 -0.004008 0.000006 -0.114719 -0.079689 -0.309275
  3 5.037136 -0.005101 -0.000238 -0.151680 -0.044726 -0.071800
  4 6.388059 -0.005253 -0.000001 0.073490 -0.046078 -0.185291
  5 6.146608 1.394838 0.000001 -0.000001 -0.000002 0.650292
  6 -2.170032 1.352243 -2.953732 0.927606 1.006385 3.335784
  7 5.760270 -0.000012 -0.000009 -0.563202 -0.735747 0.761837
  8 10.965153 0.000065 -0.000006 0.000013 0.000002 -0.550437
  9 0.000007 -0.000004 -4.044200 0.139112 2.909898 0.162454
 10 -0.000007 0.000007 4.044200 -0.151879 -3.056966 -0.875165
 11 17.182070 0.000091 0.000546 0.000004 -0.000009 -1.196266
 12 16.782913 0.000650 -0.000234 -0.336245 0.028461 0.417526
 13 5.168527 5.004116 -0.000135 0.017861 -0.003630 1.574089
 14 17.182070 0.000099 0.000206 -0.000001 -0.000007 -0.896710
 15 16.782906 0.000656 -0.000113 -0.061831 0.111431 0.337288
 16 5.168479 5.004167 -0.000064 0.031692 -0.029255 1.859903
 17 -2.170036 1.352229 2.953745 1.392754 -1.394110 1.100536
 18 5.760273 0.000016 0.000006 0.884090 1.081037 0.705808
time 24
  0 0.822072 -40.181011 -5.455355 0.000000 0.087214 -1.740095
  1 0.000000 0.000000 0.000000 -1.570796 -1.570796 0.000000
  2 4.484989 -0.004008 0.000006 -0.114719 -0.079689 -0.309275
  3 5.037136 -0.005101 -0.000238 -0.151680 -0.044726 -0.071800
  4 6.388059 -0.005253 -0.000001 0.073490 -0.046078 -0.185291
  5 6.146608 1.394838 0.000001 -0.000001 -0.000002 0.650292
  6 -2.170032 1.352243 -2.953732 0.927606 1.006385 3.335784
  7 5.760270 -0.000012 -0.000009 -0.563202 -0.735747 0.761837
  8 10.965153 0.000065 -0.000006 0.000013 0.000002 -0.550437
  9 0.000007 -0.000004 -4.044200 0.136551 2.888307 0.081245
 10 -0.000007 0.000007 4.044200 -0.163189 -3.074789 -0.834065
 11 17.182070 0.000091 0.000546 0.000004 -0.000009 -1.240291
 12 16.782913 0.000650 -0.000234 -0.337545 0.050161 0.489494
 13 5.168527 5.004116 -0.000135 0.005273 -0.012437 1.585806
 14 17.182070 0.000099 0.000206 -0.000001 -0.000007 -1.056723
 15 16.782906 0.000656 -0.000113 -0.083560 0.093750 0.311095
 16 5.168479 5.004167 -0.000064 0.011685 -0.036746 1.798280
 17 -2.170036 1.352229 2.953745 1.392754 -1.394110 1.100536
 18 5.760273 0.000016 0.000006 0.884090 1.081037 0.705808
time 25
  0 1.033016 -42.031914 -5.338164 0.000000 0.087214 -1.726481
  1 0.000000 0.000000 0.000000 -1.570796 -1.570796 0.000000
  2 4.484989 -0.004008 0.000006 -0.114719 -0.079689 -0.309275
  3 5.037136 -0.005101 -0.000238 -0.151680 -0.044726 -0.071800
  4 6.388059 -0.005253 -0.000001 0.073490 -0.046078 -0.185291
  5 6.146608 1.394838 0.000001 -0.000001 -0.000002 0.650292
  6 -2.170032 1.352243 -2.953732 0.927606 1.006385 3.335784
  7 5.760270 -0.000012 -0.000009 -0.563202 -0.735747 0.761837
  8 10.965153 0.000065 -0.000006 0.000013 0.000002 -0.550437
  9 0.000007 -0.000004 -4.044200 0.132851 2.870060 -0.010283
 10 -0.000007 0.000007 4.044200 -0.175553 -3.092152 -0.773562
 11 17.182070 0.000091 0.000546 0.000004 -0.000009 -1.251476
 12 16.782913 0.000650 -0.000234 -0.327539 0.068192 0.547707
 13 5.168527 5.004116 -0.000135 -0.006052 -0.016956 1.598371
 14 17.182070 0.000099 0.000206 -0.000001 -0.000007 -1.189325
 15 16.782906 0.000656 -0.000113 -0.105305 0.076870 0.266010
 16 5.168479 5.004167 -0.000064 0.004190 -0.039898 1.774710
 17 -2.170036 1.352229 2.953745 1.392754 -1.394110 1.100536
 18 5.760273 0.000016 0.000006 0.884090 1.081037 0.705808
time 26
  0 1.204896 -43.843746 -5.041280 0.000000 0.087214 -1.710332
  1 0.000000 0.000000 0.000000 -1.570796 -1.570796 0.000000
  2 4.484989 -0.004008 0.000006 -0.114719 -0.079689 -0.309275
  3 5.037136 -0.005101 -0.000238 -0.151680 -0.044726 -0.071800
  4 6.388059 -0.005253 -0.000001 0.073490 -0.046078 -0.185291
  5 6.146608 1.394838 0.000001 -0.000001 -0.000002 0.650292
  6 -2.170032 1.352243 -2.953732 0.927606 1.006385 3.335784
  7 5.760270 -0.000012 -0.000009 -0.563202 -0.735747 0.761837
  8 10.965153 0.000065 -0.000006 0.000013 0.000002 -0.550437
  9 0.000007 -0.000004 -4.044200 0.126780 2.852863 -0.127033
 10 -0.000007 0.000007 4.044200 -0.187533 -3.108505 -0.695663
 11 17.182070 0.000091 0.000546 0.000004 -0.000009 -1.230253
 12 16.782913 0.000650 -0.000234 -0.308778 0.082962 0.594949
 13 5.168527 5.004116 -0.000135 -0.016712 -0.018451 1.607052
 14 17.182070 0.000099 0.000206 -0.000001 -0.000007 -1.310551
 15 16.782906 0.000656 -0.000113 -0.132824 0.060504 0.183028
 16 5.168479 5.004167 -0.000064 0.005053 -0.027853 1.754560
 17 -2.170036 1.352229 2.953745 1.392754 -1.394110 1.100536
 18 5.760273 0.000016 0.000006 0.884090 1.081037 0.705808
time 27
  0 1.329900 -45.608711 -4.662362 0.000000 0.087214 -1.693244
  1 0.000000 0.000000 0.000000 -1.570796 -1.570796 0.000000
  2 4.484989 -0.004008 0.000006 -0.114719 -0.079689 -0.309275
  3 5.037136 -0.005101 -0.000238 -0.151680 -0.044726 -0.071800
  4 6.388059 -0.005253 -0.000001 0.073490 -0.046078 -0.185291
  5 6.146608 1.394838 0.000001 -0.000001 -0.000002 0.650292
  6 -2.170032 1.352243 -2.953732 0.927606 1.006385 3.335784
  7 5.760270 -0.000012 -0.000009 -0.563202 -0.735747 0.761837
  8 10.965153 0.000065 -0.000006 0.000013 0.000002 -0.550437
  9 0.000007 -0.000004 -4.044200 0.118242 2.836240 -0.273304
 10 -0.000007 0.000007 4.044200 -0.196830 -3.122745 -0.605435
 11 17.182070 0.000091 0.000546 0.000004 -0.000009 -1.185224
 12 16.782913 0.000650 -0.000234 -0.284008 0.093210 0.635128
 13 5.168527 5.004116 -0.000135 -0.026788 -0.017650 1.611458
 14 17.182070 0.000099 0.000206 -0.000001 -0.000007 -1.437533
 15 16.782906 0.000656 -0.000113 -0.160685 0.040478 0.069638
 16 5.168479 5.004167 -0.000064 0.006162 0.003463 1.701859
 17 -2.170036 1.352229 2.953745 1.392754 -1.394110 1.100536
 18 5.760273 0.000016 0.000006 0.884090 1.081037 0.705808
time 28
  0 1.368964 -47.287727 -4.248287 0.000000 0.087214 -1.674466
  1 0.000000 0.000000 0.000000 -1.570796 -1.570796 0.000000
  2 4.484989 -0.004008 0.000006 -0.114719 -0.079689 -0.309275
  3 5.037136 -0.005101 -0.000238 -0.151680 -0.044726 -0.071800
  4 6.388059 -0.005253 -0.000001 0.073490 -0.046078 -0.185291
  5 6.146608 1.394838 0.000001 -0.000001 -0.000002 0.650292
  6 -2.170032 1.352243 -2.953732 0.927606 1.006385 3.335784
  7 5.760270 -0.000012 -0.000009 -0.563202 -0.735747 0.761837
  8 10.965153 0.000065 -0.000006 0.000013 0.000002 -0.550437
  9 0.000007 -0.000004 -4.044200 0.108375 2.823725 -0.426455
 10 -0.000007 0.000007 4.044200 -0.202868 -3.133953 -0.504884
 11 17.182070 0.000091 0.000546 0.000004 -0.000009 -1.118685
 12 16.782913 0.000650 -0.000234 -0.254628 0.097435 0.667800
 13 5.168527 5.004116 -0.000135 -0.036132 -0.014999 1.611654
 14 17.182070 0.000099 0.000206 -0.000001 -0.000007 -1.546698
 15 16.782906 0.000656 -0.000113 -0.176966 0.022529 -0.046914
 16 5.168479 5.004167 -0.000064 0.005262 0.042281 1.636674
 17 -2.170036 1.352229 2.953745 1.392754 -1.394110 1.100536
 18 5.760273 0.000016 0.000006 0.884090 1.081037 0.705808
time 29
  0 1.337713 -48.896431 -3.845931 0.000000 0.087214 -1.653153
  1 0.000000 0.000000 0.000000 -1.570796 -1.570796 0.000000
  2 4.484989 -0.004008 0.000006 -0.114719 -0.079689 -0.309275
  3 5.037136 -0.005101 -0.000238 -0.151680 -0.044726 -0.071800
  4 6.388059 -0.005253 -0.000001 0.073490 -0.046078 -0.185291
  5 6.146608 1.394838 0.000001 -0.000001 -0.000002 0.650292
  6 -2.170032 1.352243 -2.953732 0.927606 1.006385 3.335784
  7 5.760270 -0.000012 -0.000009 -0.563202 -0.735747 0.761837
  8 10.965153 0.000065 -0.000006 0.000013 0.000002 -0.550437
  9 0.000007 -0.000004 -4.044200 0.100312 2.818470 -0.563268
 10 -0.000007 0.000007 4.044200 -0.205744 -3.141578 -0.397260
 11 17.182070 0.000091 0.000546 0.000004 -0.000009 -1.034866
 12 16.782913 0.000650 -0.000234 -0.221913 0.094396 0.690692
 13 5.168527 5.004116 -0.000135 -0.044613 -0.010800 1.611328
 14 17.182070 0.000099 0.000206 -0.000001 -0.000007 -1.614473
 15 16.782906 0.000656 -0.000113 -0.177828 0.015271 -0.139116
 16 5.168479 5.004167 -0.000064 0.002686 0.073536 1.583730
 17 -2.170036 1.352229 2.953745 1.392754 -1.394110 1.100536
 18 5.760273 0.000016 0.000006 0.884090 1.081037 0.705808
time 30
  0 1.263492 -50.462170 -3.486545 0.000000 0.087214 -1.630150
  1 0.000000 0.000000 0.000000 -1.570796 -1.570796 0.000000
  2 4.484989 -0.004008 0.000006 -0.114719 -0.079689 -0.309275
  3 5.037136 -0.005101 -0.000238 -0.151680 -0.044726 -0.071800
  4 6.388059 -0.005253 -0.000001 0.073490 -0.046078 -0.185291
  5 6.146608 1.394838 0.000001 -0.000001 -0.000002 0.650292
  6 -2.170032 1.352243 -2.953732 0.927606 1.006385 3.335784
  7 5.760270 -0.000012 -0.000009 -0.563202 -0.735747 0.761837
  8 10.965153 0.000065 -0.000006 0.000013 0.000002 -0.550437
  9 0.000007 -0.000004 -4.044200 0.099363 2.821909 -0.660051
 10 -0.000007 0.000007 4.044200 -0.205744 -3.144334 -0.290113
 11 17.182070 0.000091 0.000546 0.000004 -0.000009 -0.944451
 12 16.782913 0.000650 -0.000234 -0.188927 0.082573 0.695107
 13 5.168527 5.004116 -0.000135 -0.051950 -0.005249 1.621902
 14 17.182070 0.000099 0.000206 -0.000001 -0.000007 -1.616940
 15 16.782906 0.000656 -0.000113 -0.164393 0.023269 -0.178745
 16 5.168479 5.004167 -0.000064 0.001268 0.085449 1.563620
 17 -2.170036 1.352229 2.953745 1.392754 -1.394110 1.100536
 18 5.760273 0.000016 0.000006 0.884090 1.081037 0.705808
time 31
  0 1.158020 -51.996651 -3.220912 0.000000 0.087214 -1.605363
  1 0.000000 0.000000 0.000000 -1.570796 -1.570796 0.000000
  2 4.484989 -0.004008 0.000006 -0.114719 -0.079689 -0.309275
  3 5.037136 -0.005101 -0.000238 -0.151680 -0.044726 -0.071800
  4 6.388059 -0.005253 -0.000001 0.073490 -0.046078 -0.185291
  5 6.146608 1.394838 0.000001 -0.000001 -0.000002 0.650292
  6 -2.170032 1.352243 -2.953732 0.927606 1.006385 3.335784
  7 5.760270 -0.000012 -0.000009 -0.563202 -0.735747 0.761837
  8 10.965153 0.000065 -0.000006 0.000013 0.000002 -0.550437
  9 0.000007 -0.000004 -4.044200 0.104581 2.832323 -0.721292
 10 -0.000007 0.000007 4.044200 -0.203731 -3.144334 -0.181724
 11 17.182070 0.000091 0.000546 0.000004 -0.000009 -0.844929
 12 16.782913 0.000650 -0.000234 -0.156776 0.067080 0.689978
 13 5.168527 5.004116 -0.000135 -0.058782 0.000463 1.633815
 14 17.182070 0.000099 0.000206 -0.000001 -0.000007 -1.558348
 15 16.782906 0.000656 -0.000113 -0.140273 0.040951 -0.169223
 16 5.168479 5.004167 -0.000064 0.001231 0.082046 1.564328
 17 -2.170036 1.352229 2.953745 1.392754 -1.394110 1.100536
 18 5.760273 0.000016 0.000006 0.884090 1.081037 0.705808
time 32
  0 1.048642 -53.527225 -3.103721 0.000000 0.087214 -1.579731
  1 0.000000 0.000000 0.000000 -1.570796 -1.570796 0.000000
  2 4.484989 -0.004008 0.000006 -0.114719 -0.079689 -0.309275
  3 5.037136 -0.005101 -0.000238 -0.151680 -0.044726 -0.071800
  4 6.388059 -0.005253 -0.000001 0.073490 -0.046078 -0.185291
  5 6.146608 1.394838 0.000001 -0.000001 -0.000002 0.650292
  6 -2.170032 1.352243 -2.953732 0.927606 1.006385 3.335784
  7 5.760270 -0.000012 -0.000009 -0.563202 -0.735747 0.761837
  8 10.965153 0.000065 -0.000006 0.000013 0.000002 -0.550437
  9 0.000007 -0.000004 -4.044200 0.113878 2.847513 -0.767342
 10 -0.000007 0.000007 4.044200 -0.201239 -3.139465 -0.084423
 11 17.182070 0.000091 0.000546 0.000004 -0.000009 -0.758887
 12 16.782913 0.000650 -0.000234 -0.127224 0.046788 0.668412
 13 5.168527 5.004116 -0.000135 -0.064976 0.006192 1.664428
 14 17.182070 0.000099 0.000206 -0.000001 -0.000007 -1.464739
 15 16.782906 0.000656 -0.000113 -0.109729 0.058489 -0.136181
 16 5.168479 5.004167 -0.000064 0.001157 0.072170 1.566371
 17 -2.170036 1.352229 2.953745 1.392754 -1.394110 1.100536
 18 5.760273 0.000016 0.000006 0.884090 1.081037 0.705808
time 33
  0 0.943170 -55.061714 -3.095908 0.000000 0.087214 -1.553630
  1 0.000000 0.000000 0.000000 -1.570796 -1.570796 0.000000
  2 4.484989 -0.004008 0.000006 -0.114719 -0.079689 -0.309275
  3 5.037136 -0.005101 -0.000238 -0.151680 -0.044726 -0.071800
  4 6.388059 -0.005253 -0.000001 0.073490 -0.046078 -0.185291
  5 6.146608 1.394838 0.000001 -0.000001 -0.000002 0.650292
  6 -2.170032 1.352243 -2.953732 0.927606 1.006385 3.335784
  7 5.760270 -0.000012 -0.000009 -0.563202 -0.735747 0.761837
  8 10.965153 0.000065 -0.000006 0.000013 0.000002 -0.550437
  9 0.000007 -0.000004 -4.044200 0.126875 2.864901 -0.801736
 10 -0.000007 0.000007 4.044200 -0.197405 -3.126144 -0.014266
 11 17.182070 0.000091 0.000546 0.000004 -0.000009 -0.717444
 12 16.782913 0.000650 -0.000234 -0.101547 0.020270 0.612746
 13 5.168527 5.004116 -0.000135 -0.070905 0.011245 1.745465
 14 17.182070 0.000099 0.000206 -0.000001 -0.000007 -1.345432
 15 16.782906 0.000656 -0.000113 -0.075623 0.069612 -0.084510
 16 5.168479 5.004167 -0.000064 0.000960 0.057453 1.569507
 17 -2.170036 1.352229 2.953745 1.392754 -1.394110 1.100536
 18 5.760273 0.000016 0.000006 0.884090 1.081037 0.705808
time 34
  0 0.837698 -56.596195 -3.146691 0.000000 0.087214 -1.527622
  1 0.000000 0.000000 0.000000 -1.570796 -1.570796 0.000000
  2 4.484989 -0.004008 0.000006 -0.114719 -0.079689 -0.309275
  3 5.037136 -0.005101 -0.000238 -0.151680 -0.044726 -0.071800
  4 6.388059 -0.005253 -0.000001 0.073490 -0.046078 -0.185291
  5 6.146608 1.394838 0.000001 -0.000001 -0.000002 0.650292
  6 -2.170032 1.352243 -2.953732 0.927606 1.006385 3.335784
  7 5.760270 -0.000012 -0.000009 -0.563202 -0.735747 0.761837
  8 10.965153 0.000065 -0.000006 0.000013 0.000002 -0.550437
  9 0.000007 -0.000004 -4.044200 0.141958 2.884199 -0.828010
 10 -0.000007 0.000007 4.044200 -0.192805 -3.109607 0.051780
 11 17.182070 0.000091 0.000546 0.000004 -0.000009 -0.679370
 12 16.782913 0.000650 -0.000234 -0.077783 -0.005137 0.536635
 13 5.168527 5.004116 -0.000135 -0.077697 0.014501 1.845627
 14 17.182070 0.000099 0.000206 -0.000001 -0.000007 -1.210089
 15 16.782906 0.000656 -0.000113 -0.042509 0.070825 -0.020043
 16 5.168479 5.004167 -0.000064 0.000701 0.040099 1.573048
 17 -2.170036 1.352229 2.953745 1.392754 -1.394110 1.100536
 18 5.760273 0.000016 0.000006 0.884090 1.081037 0.705808
time 35
  0 0.720507 -58.118961 -3.314665 0.000000 0.087214 -1.502084
  1 0.000000 0.000000 0.000000 -1.570796 -1.570796 0.000000
  2 4.484989 -0.004008 0.000006 -0.114719 -0.079689 -0.309275
  3 5.037136 -0.005101 -0.000238 -0.151680 -0.044726 -0.071800
  4 6.388059 -0.005253 -0.000001 0.073490 -0.046078 -0.185291
  5 6.146608 1.394838 0.000001 -0.000001 -0.000002 0.650292
  6 -2.170032 1.352243 -2.953732 0.927606 1.006385 3.335784
  7 5.760270 -0.000012 -0.000009 -0.563202 -0.735747 0.761837
  8 10.965153 0.000065 -0.000006 0.000013 0.000002 -0.550437
  9 0.000007 -0.000004 -4.044200 0.157801 2.903784 -0.848838
 10 -0.000007 0.000007 4.044200 -0.186958 -3.090590 0.112761
 11 17.182070 0.000091 0.000546 0.000004 -0.000009 -0.645886
 12 16.782913 0.000650 -0.000234 -0.056054 -0.027319 0.450945
 13 5.168527 5.004116 -0.000135 -0.085806 0.015871 1.955385
 14 17.182070 0.000099 0.000206 -0.000001 -0.000007 -1.068099
 15 16.782906 0.000656 -0.000113 -0.015543 0.062375 0.051122
 16 5.168479 5.004167 -0.000064 0.000393 0.022818 1.576649
 17 -2.170036 1.352229 2.953745 1.392754 -1.394110 1.100536
 18 5.760273 0.000016 0.000006 0.884090 1.081037 0.705808
time 36
  0 0.579877 -59.618286 -3.572485 0.000000 0.087214 -1.477297
  1 0.000000 0.000000 0.000000 -1.570796 -1.570796 0.000000
  2 4.484989 -0.004008 0.000006 -0.114719 -0.079689 -0.309275
  3 5.037136 -0.005101 -0.000238 -0.151680 -0.044726 -0.071800
  4 6.388059 -0.005253 -0.000001 0.073490 -0.046078 -0.185291
  5 6.146608 1.394838 0.000001 -0.000001 -0.000002 0.650292
  6 -2.170032 1.352243 -2.953732 0.927606 1.006385 3.335784
  7 5.760270 -0.000012 -0.000009 -0.563202 -0.735747 0.761837
  8 10.965153 0.000065 -0.000006 0.000013 0.000002 -0.550437
  9 0.000007 -0.000004 -4.044200 0.173834 2.922605 -0.867468
 10 -0.000007 0.000007 4.044200 -0.182166 -3.069552 0.168580
 11 17.182070 0.000091 0.000546 0.000004 -0.000009 -0.607812
 12 16.782913 0.000650 -0.000234 -0.031358 -0.049464 0.341074
 13 5.168527 5.004116 -0.000135 -0.090591 0.016636 2.079241
 14 17.182070 0.000099 0.000206 -0.000001 -0.000007 -0.928850
 15 16.782906 0.000656 -0.000113 0.001697 0.047592 0.122927
 16 5.168479 5.004167 -0.000064 0.000060 0.008113 1.579764
 17 -2.170036 1.352229 2.953745 1.392754 -1.394110 1.100536
 18 5.760273 0.000016 0.000006 0.884090 1.081037 0.705808
time 37
  0 0.454874 -61.133240 -3.877182 0.000000 0.087214 -1.453637
  1 0.000000 0.000000 0.000000 -1.570796 -1.570796 0.000000
  2 4.484989 -0.004008 0.000006 -0.114719 -0.079689 -0.309275
  3 5.037136 -0.005101 -0.000238 -0.151680 -0.044726 -0.071800
  4 6.388059 -0.005253 -0.000001 0.073490 -0.046078 -0.185291
  5 6.146608 1.394838 0.000001 -0.000001 -0.000002 0.650292
  6 -2.170032 1.352243 -2.953732 0.927606 1.006385 3.335784
  7 5.760270 -0.000012 -0.000009 -0.563202 -0.735747 0.761837
  8 10.965153 0.000065 -0.000006 0.000013 0.000002 -0.550437
  9 0.000007 -0.000004 -4.044200 0.189013 2.939706 -0.886863
 10 -0.000007 0.000007 4.044200 -0.179386 -3.045850 0.215797
 11 17.182070 0.000091 0.000546 0.000004 -0.000009 -0.566369
 12 16.782913 0.000650 -0.000234 0.002363 -0.072110 0.195203
 13 5.168527 5.004116 -0.000135 -0.089049 0.017508 2.226955
 14 17.182070 0.000099 0.000206 -0.000001 -0.000007 -0.802004
 15 16.782906 0.000656 -0.000113 0.008366 0.031555 0.190178
 16 5.168479 5.004167 -0.000064 -0.000162 -0.001691 1.581808
 17 -2.170036 1.352229 2.953745 1.392754 -1.394110 1.100536
 18 5.760273 0.000016 0.000006 0.884090 1.081037 0.705808
time 38
  0 0.314244 -62.632568 -4.193598 0.000000 0.087214 -1.432042
  1 0.000000 0.000000 0.000000 -1.570796 -1.570796 0.000000
  2 4.484989 -0.004008 0.000006 -0.114719 -0.079689 -0.309275
  3 5.037136 -0.005101 -0.000238 -0.151680 -0.044726 -0.071800
  4 6.388059 -0.005253 -0.000001 0.073490 -0.046078 -0.185291
  5 6.146608 1.394838 0.000001 -0.000001 -0.000002 0.650292
  6 -2.170032 1.352243 -2.953732 0.927606 1.006385 3.335784
  7 5.760270 -0.000012 -0.000009 -0.563202 -0.735747 0.761837
  8 10.965153 0.000065 -0.000006 0.000013 0.000002 -0.550437
  9 0.000007 -0.000004 -4.044200 0.202484 2.953463 -0.910174
 10 -0.000007 0.000007 4.044200 -0.177661 -3.019392 0.245618
 11 17.182070 0.000091 0.000546 0.000004 -0.000009 -0.536971
 12 16.782913 0.000650 -0.000234 0.042754 -0.088362 0.029768
 13 5.168527 5.004116 -0.000135 -0.084529 0.017152 2.388801
 14 17.182070 0.000099 0.000206 -0.000001 -0.000007 -0.696882
 15 16.782906 0.000656 -0.000113 0.006821 0.018870 0.247532
 16 5.168479 5.004167 -0.000064 -0.000248 -0.005070 1.582516
 17 -2.170036 1.352229 2.953745 1.392754 -1.394110 1.100536
 18 5.760273 0.000016 0.000006 0.884090 1.081037 0.705808
time 39
  0 0.165802 -64.124077 -4.478763 0.000000 0.087214 -1.413265
  1 0.000000 0.000000 0.000000 -1.570796 -1.570796 0.000000
  2 4.484989 -0.004008 0.000006 -0.114719 -0.079689 -0.309275
  3 5.037136 -0.005101 -0.000238 -0.151680 -0.044726 -0.071800
  4 6.388059 -0.005253 -0.000001 0.073490 -0.046078 -0.185291
  5 6.146608 1.394838 0.000001 -0.000001 -0.000002 0.650292
  6 -2.170032 1.352243 -2.953732 0.927606 1.006385 3.335784
  7 5.760270 -0.000012 -0.000009 -0.563202 -0.735747 0.761837
  8 10.965153 0.000065 -0.000006 0.000013 0.000002 -0.550437
  9 0.000007 -0.000004 -4.044200 0.208176 2.954418 -0.896130
 10 -0.000007 0.000007 4.044200 -0.174594 -2.991279 0.254699
 11 17.182070 0.000091 0.000546 0.000004 -0.000009 -0.534748
 12 16.782913 0.000650 -0.000234 0.081895 -0.092513 -0.121980
 13 5.168527 5.004116 -0.000135 -0.082895 0.016102 2.542683
 14 17.182070 0.000099 0.000206 -0.000001 -0.000007 -0.669539
 15 16.782906 0.000656 -0.000113 -0.002125 0.028266 0.329235
 16 5.168479 5.004167 -0.000064 -0.000100 -0.002566 1.576649
 17 -2.170036 1.352229 2.953745 1.392754 -1.394110 1.100536
 18 5.760273 0.000016 0.000006 0.884090 1.081037 0.705808
time 40
  0 0.005641 -65.603874 -4.720958 0.000000 0.087214 -1.396458
  1 0.000000 0.000000 0.000000 -1.570796 -1.570796 0.000000
  2 4.484989 -0.004008 0.000006 -0.114719 -0.079689 -0.309275
  3 5.037136 -0.005101 -0.000238 -0.151680 -0.044726 -0.071800
  4 6.388059 -0.005253 -0.000001 0.073490 -0.046078 -0.185291
  5 6.146608 1.394838 0.000001 -0.000001 -0.000002 0.650292
  6 -2.170032 1.352243 -2.953732 0.927606 1.006385 3.335784
  7 5.760270 -0.000012 -0.000009 -0.563202 -0.735747 0.761837
  8 10.965153 0.000065 -0.000006 0.000013 0.000002 -0.550437
  9 0.000007 -0.000004 -4.044200 0.204381 2.952221 -0.914187
 10 -0.000007 0.000007 4.044200 -0.168556 -2.962065 0.243038
 11 17.182070 0.000091 0.000546 0.000004 -0.000009 -0.577196
 12 16.782913 0.000650 -0.000234 0.111349 -0.091086 -0.191774
 13 5.168527 5.004116 -0.000135 -0.085806 0.015871 2.640169
 14 17.182070 0.000099 0.000206 -0.000001 -0.000007 -0.706682
 15 16.782906 0.000656 -0.000113 -0.003719 0.033652 0.324079
 16 5.168479 5.004167 -0.000064 0.000011 -0.000001 1.570802
 17 -2.170036 1.352229 2.953745 1.392754 -1.394110 1.100536
 18 5.760273 0.000016 0.000006 0.884090 1.081037 0.705808
end
